%
M48
M72
T01C0.0100
T02C0.0120
T03C0.0140
T04C0.0150
T05C0.0360
T06C0.0433
T07C0.0866
%
T01
X9868Y585
X10638Y1220
X10918Y1285
X10928Y1595
X10478Y1945
X12143Y1155
X12648Y1635
X13718Y1615
X15398Y1395
X16228Y1395
X17648Y965
X19163Y1615
X19398Y1745
X20806Y1286
X19748Y845
X15608Y2035
X17898Y2945
X17628Y2972
X18198Y2945
X16373Y3345
X16148Y3585
X14828Y3205
X14828Y4325
X15103Y4770
X17573Y4325
X20248Y4495
X20748Y4495
X20298Y3515
X19898Y3045
X21248Y2395
X18448Y5595
X17373Y6095
X16868Y6165
X12398Y6545
X10938Y6235
X10298Y5715
X12108Y4855
X12098Y4545
X11808Y4105
X11128Y3865
X9838Y2905
X11628Y505
T02
X9578Y845
X7948Y845
X10928Y1940
X12308Y2615
X11528Y3295
X11748Y3520
X12298Y3520
X12848Y3520
X13148Y3855
X12438Y4810
X15348Y5595
X18353Y6085
X17998Y6945
X15348Y6945
X12998Y6945
X10748Y6895
X8598Y6895
X17228Y3005
X18898Y2945
X19693Y4360
X14698Y2245
X12948Y1480
X22698Y6945
X21498Y7095
T03
X22268Y3705
X9643Y5935
T04
X20298Y6795
T05
X8093Y5263
X8093Y4329
X8093Y3441
X8093Y2507
T06
X7109Y2999
X7109Y4771
T07
X7148Y1602
X7148Y6168
M30
