G75*
%MOIN*%
%OFA0B0*%
%FSLAX25Y25*%
%IPPOS*%
%LPD*%
%AMOC8*
5,1,8,0,0,1.08239X$1,22.5*
%
%ADD10C,0.00700*%
%ADD11C,0.00800*%
%ADD12C,0.00600*%
%ADD13C,0.00300*%
%ADD14C,0.00450*%
%ADD15C,0.00394*%
%ADD16C,0.00500*%
%ADD17C,0.01575*%
D10*
X0177129Y0006217D02*
X0177946Y0005400D01*
X0179581Y0005400D01*
X0180398Y0006217D01*
X0180398Y0007852D01*
X0179581Y0008669D01*
X0177946Y0008669D01*
X0177129Y0007852D01*
X0177129Y0006217D01*
X0182285Y0005400D02*
X0184737Y0005400D01*
X0185555Y0006217D01*
X0185555Y0007852D01*
X0184737Y0008669D01*
X0182285Y0008669D01*
X0182285Y0003765D01*
X0187442Y0006217D02*
X0188259Y0005400D01*
X0189894Y0005400D01*
X0187442Y0006217D02*
X0187442Y0007852D01*
X0188259Y0008669D01*
X0189894Y0008669D01*
X0190711Y0007852D01*
X0190711Y0007035D01*
X0187442Y0007035D01*
X0192598Y0008669D02*
X0192598Y0005400D01*
X0195867Y0005400D02*
X0195867Y0007852D01*
X0195050Y0008669D01*
X0192598Y0008669D01*
X0197754Y0010304D02*
X0201024Y0010304D01*
X0199389Y0010304D02*
X0199389Y0005400D01*
X0202911Y0005400D02*
X0202911Y0010304D01*
X0205363Y0010304D01*
X0206180Y0009487D01*
X0206180Y0007852D01*
X0205363Y0007035D01*
X0202911Y0007035D01*
X0208067Y0005400D02*
X0208067Y0010304D01*
X0209702Y0008669D01*
X0211337Y0010304D01*
X0211337Y0005400D01*
D11*
X0063605Y0015228D02*
X0059668Y0015228D01*
X0059668Y0062472D01*
X0063605Y0062472D01*
X0075416Y0054598D02*
X0075416Y0023102D01*
X0102814Y0033050D02*
X0102816Y0033097D01*
X0102822Y0033144D01*
X0102832Y0033191D01*
X0102845Y0033236D01*
X0102863Y0033280D01*
X0102884Y0033322D01*
X0102908Y0033363D01*
X0102936Y0033401D01*
X0102967Y0033437D01*
X0103001Y0033470D01*
X0103037Y0033500D01*
X0103076Y0033527D01*
X0103117Y0033551D01*
X0103160Y0033571D01*
X0103204Y0033587D01*
X0103250Y0033600D01*
X0103296Y0033609D01*
X0103344Y0033614D01*
X0103391Y0033615D01*
X0103438Y0033612D01*
X0103485Y0033605D01*
X0103531Y0033594D01*
X0103576Y0033580D01*
X0103620Y0033561D01*
X0103661Y0033539D01*
X0103701Y0033514D01*
X0103739Y0033485D01*
X0103774Y0033454D01*
X0103807Y0033419D01*
X0103836Y0033382D01*
X0103862Y0033343D01*
X0103885Y0033301D01*
X0103904Y0033258D01*
X0103920Y0033213D01*
X0103932Y0033167D01*
X0103940Y0033121D01*
X0103944Y0033074D01*
X0103944Y0033026D01*
X0103940Y0032979D01*
X0103932Y0032933D01*
X0103920Y0032887D01*
X0103904Y0032842D01*
X0103885Y0032799D01*
X0103862Y0032757D01*
X0103836Y0032718D01*
X0103807Y0032681D01*
X0103774Y0032646D01*
X0103739Y0032615D01*
X0103701Y0032586D01*
X0103662Y0032561D01*
X0103620Y0032539D01*
X0103576Y0032520D01*
X0103531Y0032506D01*
X0103485Y0032495D01*
X0103438Y0032488D01*
X0103391Y0032485D01*
X0103344Y0032486D01*
X0103296Y0032491D01*
X0103250Y0032500D01*
X0103204Y0032513D01*
X0103160Y0032529D01*
X0103117Y0032549D01*
X0103076Y0032573D01*
X0103037Y0032600D01*
X0103001Y0032630D01*
X0102967Y0032663D01*
X0102936Y0032699D01*
X0102908Y0032737D01*
X0102884Y0032778D01*
X0102863Y0032820D01*
X0102845Y0032864D01*
X0102832Y0032909D01*
X0102822Y0032956D01*
X0102816Y0033003D01*
X0102814Y0033050D01*
X0096554Y0043387D02*
X0096556Y0043446D01*
X0096562Y0043504D01*
X0096572Y0043562D01*
X0096585Y0043619D01*
X0096603Y0043676D01*
X0096624Y0043731D01*
X0096649Y0043784D01*
X0096677Y0043835D01*
X0096708Y0043885D01*
X0096743Y0043932D01*
X0096781Y0043977D01*
X0096822Y0044020D01*
X0096866Y0044059D01*
X0096912Y0044095D01*
X0096960Y0044129D01*
X0097011Y0044159D01*
X0097064Y0044185D01*
X0097118Y0044208D01*
X0097173Y0044227D01*
X0097230Y0044243D01*
X0097288Y0044255D01*
X0097346Y0044263D01*
X0097405Y0044267D01*
X0097463Y0044267D01*
X0097522Y0044263D01*
X0097580Y0044255D01*
X0097638Y0044243D01*
X0097695Y0044227D01*
X0097750Y0044208D01*
X0097804Y0044185D01*
X0097857Y0044159D01*
X0097908Y0044129D01*
X0097956Y0044095D01*
X0098002Y0044059D01*
X0098046Y0044020D01*
X0098087Y0043977D01*
X0098125Y0043932D01*
X0098160Y0043885D01*
X0098191Y0043835D01*
X0098219Y0043784D01*
X0098244Y0043731D01*
X0098265Y0043676D01*
X0098283Y0043619D01*
X0098296Y0043562D01*
X0098306Y0043504D01*
X0098312Y0043446D01*
X0098314Y0043387D01*
X0098312Y0043328D01*
X0098306Y0043270D01*
X0098296Y0043212D01*
X0098283Y0043155D01*
X0098265Y0043098D01*
X0098244Y0043043D01*
X0098219Y0042990D01*
X0098191Y0042939D01*
X0098160Y0042889D01*
X0098125Y0042842D01*
X0098087Y0042797D01*
X0098046Y0042754D01*
X0098002Y0042715D01*
X0097956Y0042679D01*
X0097908Y0042645D01*
X0097857Y0042615D01*
X0097804Y0042589D01*
X0097750Y0042566D01*
X0097695Y0042547D01*
X0097638Y0042531D01*
X0097580Y0042519D01*
X0097522Y0042511D01*
X0097463Y0042507D01*
X0097405Y0042507D01*
X0097346Y0042511D01*
X0097288Y0042519D01*
X0097230Y0042531D01*
X0097173Y0042547D01*
X0097118Y0042566D01*
X0097064Y0042589D01*
X0097011Y0042615D01*
X0096960Y0042645D01*
X0096912Y0042679D01*
X0096866Y0042715D01*
X0096822Y0042754D01*
X0096781Y0042797D01*
X0096743Y0042842D01*
X0096708Y0042889D01*
X0096677Y0042939D01*
X0096649Y0042990D01*
X0096624Y0043043D01*
X0096603Y0043098D01*
X0096585Y0043155D01*
X0096572Y0043212D01*
X0096562Y0043270D01*
X0096556Y0043328D01*
X0096554Y0043387D01*
X0127814Y0033050D02*
X0127816Y0033097D01*
X0127822Y0033144D01*
X0127832Y0033191D01*
X0127845Y0033236D01*
X0127863Y0033280D01*
X0127884Y0033322D01*
X0127908Y0033363D01*
X0127936Y0033401D01*
X0127967Y0033437D01*
X0128001Y0033470D01*
X0128037Y0033500D01*
X0128076Y0033527D01*
X0128117Y0033551D01*
X0128160Y0033571D01*
X0128204Y0033587D01*
X0128250Y0033600D01*
X0128296Y0033609D01*
X0128344Y0033614D01*
X0128391Y0033615D01*
X0128438Y0033612D01*
X0128485Y0033605D01*
X0128531Y0033594D01*
X0128576Y0033580D01*
X0128620Y0033561D01*
X0128661Y0033539D01*
X0128701Y0033514D01*
X0128739Y0033485D01*
X0128774Y0033454D01*
X0128807Y0033419D01*
X0128836Y0033382D01*
X0128862Y0033343D01*
X0128885Y0033301D01*
X0128904Y0033258D01*
X0128920Y0033213D01*
X0128932Y0033167D01*
X0128940Y0033121D01*
X0128944Y0033074D01*
X0128944Y0033026D01*
X0128940Y0032979D01*
X0128932Y0032933D01*
X0128920Y0032887D01*
X0128904Y0032842D01*
X0128885Y0032799D01*
X0128862Y0032757D01*
X0128836Y0032718D01*
X0128807Y0032681D01*
X0128774Y0032646D01*
X0128739Y0032615D01*
X0128701Y0032586D01*
X0128662Y0032561D01*
X0128620Y0032539D01*
X0128576Y0032520D01*
X0128531Y0032506D01*
X0128485Y0032495D01*
X0128438Y0032488D01*
X0128391Y0032485D01*
X0128344Y0032486D01*
X0128296Y0032491D01*
X0128250Y0032500D01*
X0128204Y0032513D01*
X0128160Y0032529D01*
X0128117Y0032549D01*
X0128076Y0032573D01*
X0128037Y0032600D01*
X0128001Y0032630D01*
X0127967Y0032663D01*
X0127936Y0032699D01*
X0127908Y0032737D01*
X0127884Y0032778D01*
X0127863Y0032820D01*
X0127845Y0032864D01*
X0127832Y0032909D01*
X0127822Y0032956D01*
X0127816Y0033003D01*
X0127814Y0033050D01*
X0153314Y0033550D02*
X0153316Y0033597D01*
X0153322Y0033644D01*
X0153332Y0033691D01*
X0153345Y0033736D01*
X0153363Y0033780D01*
X0153384Y0033822D01*
X0153408Y0033863D01*
X0153436Y0033901D01*
X0153467Y0033937D01*
X0153501Y0033970D01*
X0153537Y0034000D01*
X0153576Y0034027D01*
X0153617Y0034051D01*
X0153660Y0034071D01*
X0153704Y0034087D01*
X0153750Y0034100D01*
X0153796Y0034109D01*
X0153844Y0034114D01*
X0153891Y0034115D01*
X0153938Y0034112D01*
X0153985Y0034105D01*
X0154031Y0034094D01*
X0154076Y0034080D01*
X0154120Y0034061D01*
X0154161Y0034039D01*
X0154201Y0034014D01*
X0154239Y0033985D01*
X0154274Y0033954D01*
X0154307Y0033919D01*
X0154336Y0033882D01*
X0154362Y0033843D01*
X0154385Y0033801D01*
X0154404Y0033758D01*
X0154420Y0033713D01*
X0154432Y0033667D01*
X0154440Y0033621D01*
X0154444Y0033574D01*
X0154444Y0033526D01*
X0154440Y0033479D01*
X0154432Y0033433D01*
X0154420Y0033387D01*
X0154404Y0033342D01*
X0154385Y0033299D01*
X0154362Y0033257D01*
X0154336Y0033218D01*
X0154307Y0033181D01*
X0154274Y0033146D01*
X0154239Y0033115D01*
X0154201Y0033086D01*
X0154162Y0033061D01*
X0154120Y0033039D01*
X0154076Y0033020D01*
X0154031Y0033006D01*
X0153985Y0032995D01*
X0153938Y0032988D01*
X0153891Y0032985D01*
X0153844Y0032986D01*
X0153796Y0032991D01*
X0153750Y0033000D01*
X0153704Y0033013D01*
X0153660Y0033029D01*
X0153617Y0033049D01*
X0153576Y0033073D01*
X0153537Y0033100D01*
X0153501Y0033130D01*
X0153467Y0033163D01*
X0153436Y0033199D01*
X0153408Y0033237D01*
X0153384Y0033278D01*
X0153363Y0033320D01*
X0153345Y0033364D01*
X0153332Y0033409D01*
X0153322Y0033456D01*
X0153316Y0033503D01*
X0153314Y0033550D01*
D12*
X0151480Y0030352D02*
X0151480Y0044548D01*
X0144978Y0044048D02*
X0144978Y0029852D01*
X0125980Y0029852D02*
X0125980Y0044048D01*
X0119978Y0044048D02*
X0119978Y0029852D01*
X0100980Y0029852D02*
X0100980Y0044048D01*
X0170478Y0044548D02*
X0170478Y0030352D01*
D13*
X0149829Y0032600D02*
X0148428Y0032600D01*
X0147727Y0033301D01*
X0148428Y0034001D01*
X0149829Y0034001D01*
X0149829Y0034810D02*
X0147727Y0034810D01*
X0147727Y0036211D01*
X0148077Y0037020D02*
X0147727Y0037370D01*
X0147727Y0038071D01*
X0148077Y0038421D01*
X0148778Y0038071D02*
X0149128Y0038421D01*
X0149478Y0038421D01*
X0149829Y0038071D01*
X0149829Y0037370D01*
X0149478Y0037020D01*
X0148778Y0037370D02*
X0148778Y0038071D01*
X0148778Y0037370D02*
X0148428Y0037020D01*
X0148077Y0037020D01*
X0149829Y0036211D02*
X0149829Y0034810D01*
X0148778Y0034810D02*
X0148778Y0035510D01*
X0148778Y0034001D02*
X0148778Y0032600D01*
X0148428Y0039230D02*
X0147727Y0039930D01*
X0149829Y0039930D01*
X0149829Y0039230D02*
X0149829Y0040631D01*
X0124329Y0040131D02*
X0124329Y0038730D01*
X0124329Y0039430D02*
X0122227Y0039430D01*
X0122928Y0038730D01*
X0122577Y0037921D02*
X0122227Y0037571D01*
X0122227Y0036870D01*
X0122577Y0036520D01*
X0123978Y0036520D01*
X0124329Y0036870D01*
X0124329Y0037571D01*
X0123978Y0037921D01*
X0123978Y0035711D02*
X0124329Y0035361D01*
X0124329Y0034660D01*
X0123978Y0034310D01*
X0122577Y0034310D01*
X0122227Y0034660D01*
X0122227Y0035361D01*
X0122577Y0035711D01*
X0122227Y0033501D02*
X0122227Y0032100D01*
X0124329Y0032100D01*
X0124329Y0033501D01*
X0123278Y0032801D02*
X0123278Y0032100D01*
X0099329Y0032450D02*
X0098978Y0032100D01*
X0099329Y0032450D02*
X0099329Y0033151D01*
X0098978Y0033501D01*
X0098628Y0033501D01*
X0098278Y0033151D01*
X0098278Y0032450D01*
X0097928Y0032100D01*
X0097577Y0032100D01*
X0097227Y0032450D01*
X0097227Y0033151D01*
X0097577Y0033501D01*
X0097227Y0034310D02*
X0099329Y0034310D01*
X0098278Y0034310D02*
X0098278Y0035711D01*
X0098278Y0036520D02*
X0098278Y0037921D01*
X0097928Y0037921D02*
X0099329Y0037921D01*
X0099329Y0038730D02*
X0099329Y0040131D01*
X0099329Y0039430D02*
X0097227Y0039430D01*
X0097928Y0038730D01*
X0097928Y0037921D02*
X0097227Y0037220D01*
X0097928Y0036520D01*
X0099329Y0036520D01*
X0099329Y0035711D02*
X0097227Y0035711D01*
X0087119Y0031302D02*
X0087119Y0029200D01*
X0086419Y0029200D02*
X0087820Y0029200D01*
X0085610Y0029200D02*
X0084209Y0029200D01*
X0084209Y0031302D01*
X0086419Y0030601D02*
X0087119Y0031302D01*
X0099727Y0019071D02*
X0100077Y0019421D01*
X0101478Y0018020D01*
X0101829Y0018370D01*
X0101829Y0019071D01*
X0101478Y0019421D01*
X0100077Y0019421D01*
X0099727Y0019071D02*
X0099727Y0018370D01*
X0100077Y0018020D01*
X0101478Y0018020D01*
X0101829Y0017211D02*
X0101829Y0015810D01*
X0100428Y0017211D01*
X0100077Y0017211D01*
X0099727Y0016861D01*
X0099727Y0016160D01*
X0100077Y0015810D01*
X0100077Y0015001D02*
X0099727Y0014651D01*
X0099727Y0013950D01*
X0100077Y0013600D01*
X0101478Y0013600D01*
X0101829Y0013950D01*
X0101829Y0014651D01*
X0101478Y0015001D01*
X0091329Y0014211D02*
X0091329Y0012810D01*
X0091329Y0013510D02*
X0089227Y0013510D01*
X0089928Y0012810D01*
X0089577Y0012001D02*
X0090978Y0012001D01*
X0091329Y0011651D01*
X0091329Y0010600D01*
X0089227Y0010600D01*
X0089227Y0011651D01*
X0089577Y0012001D01*
X0087240Y0009351D02*
X0086890Y0009702D01*
X0086189Y0009702D01*
X0085839Y0009351D01*
X0085839Y0009001D01*
X0086189Y0008651D01*
X0086890Y0008651D01*
X0087240Y0008301D01*
X0087240Y0007950D01*
X0086890Y0007600D01*
X0086189Y0007600D01*
X0085839Y0007950D01*
X0085839Y0008301D01*
X0086189Y0008651D01*
X0086890Y0008651D02*
X0087240Y0009001D01*
X0087240Y0009351D01*
X0085030Y0009351D02*
X0085030Y0008651D01*
X0084680Y0008301D01*
X0083629Y0008301D01*
X0084329Y0008301D02*
X0085030Y0007600D01*
X0083629Y0007600D02*
X0083629Y0009702D01*
X0084680Y0009702D01*
X0085030Y0009351D01*
X0099629Y0005702D02*
X0100680Y0005702D01*
X0101030Y0005351D01*
X0101030Y0004651D01*
X0100680Y0004301D01*
X0099629Y0004301D01*
X0100329Y0004301D02*
X0101030Y0003600D01*
X0101839Y0003600D02*
X0103240Y0003600D01*
X0102539Y0003600D02*
X0102539Y0005702D01*
X0101839Y0005001D01*
X0104048Y0004651D02*
X0105099Y0004651D01*
X0105450Y0004301D01*
X0105450Y0003950D01*
X0105099Y0003600D01*
X0104399Y0003600D01*
X0104048Y0003950D01*
X0104048Y0004651D01*
X0104749Y0005351D01*
X0105450Y0005702D01*
X0108129Y0005702D02*
X0109180Y0005702D01*
X0109530Y0005351D01*
X0109530Y0003950D01*
X0109180Y0003600D01*
X0108129Y0003600D01*
X0108129Y0005702D01*
X0110339Y0004651D02*
X0111390Y0004651D01*
X0111740Y0004301D01*
X0111740Y0003950D01*
X0111390Y0003600D01*
X0110689Y0003600D01*
X0110339Y0003950D01*
X0110339Y0004651D01*
X0111039Y0005351D01*
X0111740Y0005702D01*
X0123629Y0005702D02*
X0123629Y0003600D01*
X0123629Y0004301D02*
X0124680Y0004301D01*
X0125030Y0004651D01*
X0125030Y0005351D01*
X0124680Y0005702D01*
X0123629Y0005702D01*
X0124329Y0004301D02*
X0125030Y0003600D01*
X0125839Y0003600D02*
X0127240Y0003600D01*
X0126539Y0003600D02*
X0126539Y0005702D01*
X0125839Y0005001D01*
X0128048Y0005001D02*
X0128399Y0004651D01*
X0129099Y0004651D01*
X0129450Y0004301D01*
X0129450Y0003950D01*
X0129099Y0003600D01*
X0128399Y0003600D01*
X0128048Y0003950D01*
X0128048Y0004301D01*
X0128399Y0004651D01*
X0128048Y0005001D02*
X0128048Y0005351D01*
X0128399Y0005702D01*
X0129099Y0005702D01*
X0129450Y0005351D01*
X0129450Y0005001D01*
X0129099Y0004651D01*
X0133629Y0005702D02*
X0133629Y0003600D01*
X0134680Y0003600D01*
X0135030Y0003950D01*
X0135030Y0005351D01*
X0134680Y0005702D01*
X0133629Y0005702D01*
X0135839Y0004651D02*
X0137240Y0004651D01*
X0136890Y0005702D02*
X0135839Y0004651D01*
X0136890Y0003600D02*
X0136890Y0005702D01*
X0149629Y0005702D02*
X0149629Y0003600D01*
X0149629Y0004301D02*
X0150680Y0004301D01*
X0151030Y0004651D01*
X0151030Y0005351D01*
X0150680Y0005702D01*
X0149629Y0005702D01*
X0150329Y0004301D02*
X0151030Y0003600D01*
X0151839Y0003600D02*
X0153240Y0003600D01*
X0152539Y0003600D02*
X0152539Y0005702D01*
X0151839Y0005001D01*
X0154048Y0005001D02*
X0154399Y0004651D01*
X0155450Y0004651D01*
X0155450Y0005351D02*
X0155450Y0003950D01*
X0155099Y0003600D01*
X0154399Y0003600D01*
X0154048Y0003950D01*
X0154048Y0005001D02*
X0154048Y0005351D01*
X0154399Y0005702D01*
X0155099Y0005702D01*
X0155450Y0005351D01*
X0159629Y0005702D02*
X0159629Y0003600D01*
X0160680Y0003600D01*
X0161030Y0003950D01*
X0161030Y0005351D01*
X0160680Y0005702D01*
X0159629Y0005702D01*
X0161839Y0005702D02*
X0161839Y0004651D01*
X0162539Y0005001D01*
X0162890Y0005001D01*
X0163240Y0004651D01*
X0163240Y0003950D01*
X0162890Y0003600D01*
X0162189Y0003600D01*
X0161839Y0003950D01*
X0161839Y0005702D02*
X0163240Y0005702D01*
X0129329Y0012100D02*
X0127227Y0012100D01*
X0127227Y0013151D01*
X0127577Y0013501D01*
X0128278Y0013501D01*
X0128628Y0013151D01*
X0128628Y0012100D01*
X0128628Y0012801D02*
X0129329Y0013501D01*
X0128978Y0014310D02*
X0129329Y0014660D01*
X0129329Y0015361D01*
X0128978Y0015711D01*
X0127577Y0015711D01*
X0127227Y0015361D01*
X0127227Y0014660D01*
X0127577Y0014310D01*
X0127928Y0014310D01*
X0128278Y0014660D01*
X0128278Y0015711D01*
X0119740Y0013202D02*
X0119740Y0012851D01*
X0118339Y0011450D01*
X0118339Y0011100D01*
X0117530Y0011450D02*
X0117180Y0011100D01*
X0116479Y0011100D01*
X0116129Y0011450D01*
X0116129Y0012851D01*
X0116479Y0013202D01*
X0117180Y0013202D01*
X0117530Y0012851D01*
X0118339Y0013202D02*
X0119740Y0013202D01*
X0099629Y0005702D02*
X0099629Y0003600D01*
X0202129Y0033100D02*
X0202129Y0035202D01*
X0203180Y0035202D01*
X0203530Y0034851D01*
X0203530Y0034151D01*
X0203180Y0033801D01*
X0202129Y0033801D01*
X0202829Y0033801D02*
X0203530Y0033100D01*
X0204339Y0033100D02*
X0205740Y0033100D01*
X0205039Y0033100D02*
X0205039Y0035202D01*
X0204339Y0034501D01*
X0206548Y0034501D02*
X0207249Y0035202D01*
X0207249Y0033100D01*
X0206548Y0033100D02*
X0207950Y0033100D01*
X0210727Y0047600D02*
X0210727Y0048651D01*
X0211077Y0049001D01*
X0211778Y0049001D01*
X0212128Y0048651D01*
X0212128Y0047600D01*
X0212128Y0048301D02*
X0212829Y0049001D01*
X0212829Y0049810D02*
X0211428Y0051211D01*
X0211077Y0051211D01*
X0210727Y0050861D01*
X0210727Y0050160D01*
X0211077Y0049810D01*
X0212829Y0049810D02*
X0212829Y0051211D01*
X0212829Y0052020D02*
X0212829Y0053421D01*
X0212829Y0052720D02*
X0210727Y0052720D01*
X0211428Y0052020D01*
X0214227Y0052370D02*
X0214227Y0053071D01*
X0214577Y0053421D01*
X0215978Y0052020D01*
X0216329Y0052370D01*
X0216329Y0053071D01*
X0215978Y0053421D01*
X0214577Y0053421D01*
X0214227Y0052370D02*
X0214577Y0052020D01*
X0215978Y0052020D01*
X0216329Y0051211D02*
X0216329Y0049810D01*
X0214928Y0051211D01*
X0214577Y0051211D01*
X0214227Y0050861D01*
X0214227Y0050160D01*
X0214577Y0049810D01*
X0214577Y0049001D02*
X0215278Y0049001D01*
X0215628Y0048651D01*
X0215628Y0047600D01*
X0215628Y0048301D02*
X0216329Y0049001D01*
X0216329Y0047600D02*
X0214227Y0047600D01*
X0214227Y0048651D01*
X0214577Y0049001D01*
X0212829Y0047600D02*
X0210727Y0047600D01*
X0207829Y0059600D02*
X0205727Y0059600D01*
X0205727Y0060651D01*
X0206077Y0061001D01*
X0207478Y0061001D01*
X0207829Y0060651D01*
X0207829Y0059600D01*
X0207829Y0061810D02*
X0206428Y0063211D01*
X0206077Y0063211D01*
X0205727Y0062861D01*
X0205727Y0062160D01*
X0206077Y0061810D01*
X0207829Y0061810D02*
X0207829Y0063211D01*
X0194329Y0062861D02*
X0194329Y0062160D01*
X0193978Y0061810D01*
X0193978Y0061001D02*
X0192577Y0061001D01*
X0192227Y0060651D01*
X0192227Y0059600D01*
X0194329Y0059600D01*
X0194329Y0060651D01*
X0193978Y0061001D01*
X0192577Y0061810D02*
X0192227Y0062160D01*
X0192227Y0062861D01*
X0192577Y0063211D01*
X0192928Y0063211D01*
X0193278Y0062861D01*
X0193628Y0063211D01*
X0193978Y0063211D01*
X0194329Y0062861D01*
X0193278Y0062861D02*
X0193278Y0062510D01*
X0120240Y0065100D02*
X0118839Y0065100D01*
X0119539Y0065100D02*
X0119539Y0067202D01*
X0118839Y0066501D01*
X0118030Y0066151D02*
X0117680Y0065801D01*
X0116629Y0065801D01*
X0117329Y0065801D02*
X0118030Y0065100D01*
X0116629Y0065100D02*
X0116629Y0067202D01*
X0117680Y0067202D01*
X0118030Y0066851D01*
X0118030Y0066151D01*
X0114240Y0066501D02*
X0114240Y0066851D01*
X0113890Y0067202D01*
X0113189Y0067202D01*
X0112839Y0066851D01*
X0112030Y0066851D02*
X0112030Y0066151D01*
X0111680Y0065801D01*
X0110629Y0065801D01*
X0111329Y0065801D02*
X0112030Y0065100D01*
X0112839Y0065100D02*
X0114240Y0066501D01*
X0112030Y0066851D02*
X0111680Y0067202D01*
X0110629Y0067202D01*
X0110629Y0065100D01*
X0112839Y0065100D02*
X0114240Y0065100D01*
X0105320Y0055951D02*
X0104970Y0056302D01*
X0104269Y0056302D01*
X0103919Y0055951D01*
X0103919Y0054550D01*
X0105320Y0055951D01*
X0105320Y0054550D01*
X0104970Y0054200D01*
X0104269Y0054200D01*
X0103919Y0054550D01*
X0103110Y0054200D02*
X0101709Y0054200D01*
X0102410Y0054200D02*
X0102410Y0056302D01*
X0101709Y0055601D01*
X0100900Y0055251D02*
X0100550Y0054901D01*
X0099499Y0054901D01*
X0100200Y0054901D02*
X0100900Y0054200D01*
X0099499Y0054200D02*
X0099499Y0056302D01*
X0100550Y0056302D01*
X0100900Y0055951D01*
X0100900Y0055251D01*
X0093450Y0051851D02*
X0093099Y0052202D01*
X0092399Y0052202D01*
X0092048Y0051851D01*
X0091240Y0051851D02*
X0090890Y0052202D01*
X0090189Y0052202D01*
X0089839Y0051851D01*
X0089030Y0051851D02*
X0088680Y0052202D01*
X0087979Y0052202D01*
X0087629Y0051851D01*
X0087629Y0050450D01*
X0087979Y0050100D01*
X0088680Y0050100D01*
X0089030Y0050450D01*
X0089839Y0050100D02*
X0091240Y0051501D01*
X0091240Y0051851D01*
X0092048Y0050100D02*
X0093450Y0051501D01*
X0093450Y0051851D01*
X0093450Y0050100D02*
X0092048Y0050100D01*
X0091240Y0050100D02*
X0089839Y0050100D01*
D14*
X0089308Y0020251D02*
X0090229Y0019031D01*
X0088418Y0019031D01*
X0090229Y0019031D02*
X0092040Y0019031D01*
X0091089Y0020251D02*
X0090329Y0019091D01*
X0109559Y0010611D02*
X0109559Y0008800D01*
X0110780Y0009720D01*
X0109559Y0008800D02*
X0109559Y0006989D01*
X0110780Y0007940D02*
X0109620Y0008700D01*
X0134809Y0008250D02*
X0134809Y0006439D01*
X0136030Y0007390D02*
X0134870Y0008150D01*
X0134809Y0008250D02*
X0136030Y0009170D01*
X0134809Y0010061D02*
X0134809Y0008250D01*
X0160809Y0008450D02*
X0160809Y0006639D01*
X0162030Y0007590D02*
X0160870Y0008350D01*
X0160809Y0008450D02*
X0162030Y0009370D01*
X0160809Y0010261D02*
X0160809Y0008450D01*
X0195168Y0060781D02*
X0196979Y0060781D01*
X0196058Y0062001D01*
X0196979Y0060781D02*
X0198790Y0060781D01*
X0197839Y0062001D02*
X0197079Y0060841D01*
X0201168Y0060781D02*
X0202979Y0060781D01*
X0202058Y0062001D01*
X0202979Y0060781D02*
X0204790Y0060781D01*
X0203839Y0062001D02*
X0203079Y0060841D01*
D15*
X0204250Y0054690D02*
X0200707Y0054690D01*
X0200707Y0052131D01*
X0204250Y0052131D02*
X0204250Y0054690D01*
X0205707Y0054690D02*
X0209250Y0054690D01*
X0209250Y0052131D01*
X0209250Y0049769D02*
X0209250Y0047210D01*
X0205707Y0047210D01*
X0205707Y0049769D01*
X0204250Y0049769D02*
X0204250Y0047210D01*
X0200707Y0047210D01*
X0200707Y0049769D01*
X0205707Y0052131D02*
X0205707Y0054690D01*
X0206360Y0040022D02*
X0208919Y0040022D01*
X0208919Y0036478D01*
X0206360Y0036478D01*
X0203998Y0036478D02*
X0201439Y0036478D01*
X0201439Y0040022D01*
X0203998Y0040022D01*
X0156219Y0010222D02*
X0153660Y0010222D01*
X0151298Y0010222D02*
X0148739Y0010222D01*
X0148739Y0006678D01*
X0151298Y0006678D01*
X0153660Y0006678D02*
X0156219Y0006678D01*
X0156219Y0010222D01*
X0130269Y0010072D02*
X0130269Y0006528D01*
X0127710Y0006528D01*
X0125348Y0006528D02*
X0122789Y0006528D01*
X0122789Y0010072D01*
X0125348Y0010072D01*
X0125950Y0010360D02*
X0122407Y0010360D01*
X0122407Y0012919D01*
X0121669Y0014528D02*
X0119110Y0014528D01*
X0116748Y0014528D02*
X0114189Y0014528D01*
X0114189Y0018072D01*
X0116748Y0018072D01*
X0119110Y0018072D02*
X0121669Y0018072D01*
X0121669Y0014528D01*
X0122407Y0015281D02*
X0122407Y0017840D01*
X0125950Y0017840D01*
X0125950Y0015281D01*
X0125950Y0012919D02*
X0125950Y0010360D01*
X0127710Y0010072D02*
X0130269Y0010072D01*
X0105019Y0010572D02*
X0105019Y0007028D01*
X0102460Y0007028D01*
X0100098Y0007028D02*
X0097539Y0007028D01*
X0097539Y0010572D01*
X0100098Y0010572D01*
X0102460Y0010572D02*
X0105019Y0010572D01*
X0087150Y0010810D02*
X0087150Y0013369D01*
X0087150Y0015731D02*
X0087150Y0018290D01*
X0083607Y0018290D01*
X0083607Y0015731D01*
X0083607Y0013369D02*
X0083607Y0010810D01*
X0087150Y0010810D01*
X0086239Y0045128D02*
X0086239Y0048672D01*
X0088798Y0048672D01*
X0091160Y0048672D02*
X0093719Y0048672D01*
X0093719Y0045128D01*
X0091160Y0045128D01*
X0088798Y0045128D02*
X0086239Y0045128D01*
X0090489Y0053678D02*
X0090489Y0057222D01*
X0093048Y0057222D01*
X0095410Y0057222D02*
X0097969Y0057222D01*
X0097969Y0053678D01*
X0095410Y0053678D01*
X0093048Y0053678D02*
X0090489Y0053678D01*
X0111057Y0056460D02*
X0114600Y0056460D01*
X0114600Y0059019D01*
X0116357Y0059019D02*
X0116357Y0056460D01*
X0119900Y0056460D01*
X0119900Y0059019D01*
X0119900Y0061381D02*
X0119900Y0063940D01*
X0116357Y0063940D01*
X0116357Y0061381D01*
X0114600Y0061381D02*
X0114600Y0063940D01*
X0111057Y0063940D01*
X0111057Y0061381D01*
X0111057Y0059019D02*
X0111057Y0056460D01*
D16*
X0095369Y0043387D02*
X0095371Y0043414D01*
X0095377Y0043441D01*
X0095386Y0043467D01*
X0095399Y0043491D01*
X0095415Y0043514D01*
X0095434Y0043533D01*
X0095456Y0043550D01*
X0095480Y0043564D01*
X0095505Y0043574D01*
X0095532Y0043581D01*
X0095559Y0043584D01*
X0095587Y0043583D01*
X0095614Y0043578D01*
X0095640Y0043570D01*
X0095664Y0043558D01*
X0095687Y0043542D01*
X0095708Y0043524D01*
X0095725Y0043503D01*
X0095740Y0043479D01*
X0095751Y0043454D01*
X0095759Y0043428D01*
X0095763Y0043401D01*
X0095763Y0043373D01*
X0095759Y0043346D01*
X0095751Y0043320D01*
X0095740Y0043295D01*
X0095725Y0043271D01*
X0095708Y0043250D01*
X0095687Y0043232D01*
X0095665Y0043216D01*
X0095640Y0043204D01*
X0095614Y0043196D01*
X0095587Y0043191D01*
X0095559Y0043190D01*
X0095532Y0043193D01*
X0095505Y0043200D01*
X0095480Y0043210D01*
X0095456Y0043224D01*
X0095434Y0043241D01*
X0095415Y0043260D01*
X0095399Y0043283D01*
X0095386Y0043307D01*
X0095377Y0043333D01*
X0095371Y0043360D01*
X0095369Y0043387D01*
X0095466Y0043387D02*
X0095466Y0035513D01*
X0086992Y0035513D02*
X0086992Y0043387D01*
X0096579Y0019200D02*
X0096581Y0019220D01*
X0096587Y0019238D01*
X0096596Y0019256D01*
X0096608Y0019271D01*
X0096623Y0019283D01*
X0096641Y0019292D01*
X0096659Y0019298D01*
X0096679Y0019300D01*
X0096699Y0019298D01*
X0096717Y0019292D01*
X0096735Y0019283D01*
X0096750Y0019271D01*
X0096762Y0019256D01*
X0096771Y0019238D01*
X0096777Y0019220D01*
X0096779Y0019200D01*
X0096777Y0019180D01*
X0096771Y0019162D01*
X0096762Y0019144D01*
X0096750Y0019129D01*
X0096735Y0019117D01*
X0096717Y0019108D01*
X0096699Y0019102D01*
X0096679Y0019100D01*
X0096659Y0019102D01*
X0096641Y0019108D01*
X0096623Y0019117D01*
X0096608Y0019129D01*
X0096596Y0019144D01*
X0096587Y0019162D01*
X0096581Y0019180D01*
X0096579Y0019200D01*
X0096179Y0019200D02*
X0096181Y0019244D01*
X0096187Y0019288D01*
X0096197Y0019331D01*
X0096210Y0019373D01*
X0096227Y0019414D01*
X0096248Y0019453D01*
X0096272Y0019490D01*
X0096299Y0019525D01*
X0096329Y0019557D01*
X0096362Y0019587D01*
X0096398Y0019613D01*
X0096435Y0019637D01*
X0096475Y0019656D01*
X0096516Y0019673D01*
X0096559Y0019685D01*
X0096602Y0019694D01*
X0096646Y0019699D01*
X0096690Y0019700D01*
X0096734Y0019697D01*
X0096778Y0019690D01*
X0096821Y0019679D01*
X0096863Y0019665D01*
X0096903Y0019647D01*
X0096942Y0019625D01*
X0096978Y0019601D01*
X0097012Y0019573D01*
X0097044Y0019542D01*
X0097073Y0019508D01*
X0097099Y0019472D01*
X0097121Y0019434D01*
X0097140Y0019394D01*
X0097155Y0019352D01*
X0097167Y0019310D01*
X0097175Y0019266D01*
X0097179Y0019222D01*
X0097179Y0019178D01*
X0097175Y0019134D01*
X0097167Y0019090D01*
X0097155Y0019048D01*
X0097140Y0019006D01*
X0097121Y0018966D01*
X0097099Y0018928D01*
X0097073Y0018892D01*
X0097044Y0018858D01*
X0097012Y0018827D01*
X0096978Y0018799D01*
X0096942Y0018775D01*
X0096903Y0018753D01*
X0096863Y0018735D01*
X0096821Y0018721D01*
X0096778Y0018710D01*
X0096734Y0018703D01*
X0096690Y0018700D01*
X0096646Y0018701D01*
X0096602Y0018706D01*
X0096559Y0018715D01*
X0096516Y0018727D01*
X0096475Y0018744D01*
X0096435Y0018763D01*
X0096398Y0018787D01*
X0096362Y0018813D01*
X0096329Y0018843D01*
X0096299Y0018875D01*
X0096272Y0018910D01*
X0096248Y0018947D01*
X0096227Y0018986D01*
X0096210Y0019027D01*
X0096197Y0019069D01*
X0096187Y0019112D01*
X0096181Y0019156D01*
X0096179Y0019200D01*
X0174335Y0021935D02*
X0174335Y0053431D01*
X0197957Y0053431D02*
X0197957Y0021935D01*
D17*
X0195555Y0050183D02*
X0195557Y0050231D01*
X0195563Y0050279D01*
X0195573Y0050326D01*
X0195586Y0050372D01*
X0195604Y0050417D01*
X0195624Y0050461D01*
X0195649Y0050503D01*
X0195677Y0050542D01*
X0195707Y0050579D01*
X0195741Y0050613D01*
X0195778Y0050645D01*
X0195816Y0050674D01*
X0195857Y0050699D01*
X0195900Y0050721D01*
X0195945Y0050739D01*
X0195991Y0050753D01*
X0196038Y0050764D01*
X0196086Y0050771D01*
X0196134Y0050774D01*
X0196182Y0050773D01*
X0196230Y0050768D01*
X0196278Y0050759D01*
X0196324Y0050747D01*
X0196369Y0050730D01*
X0196413Y0050710D01*
X0196455Y0050687D01*
X0196495Y0050660D01*
X0196533Y0050630D01*
X0196568Y0050597D01*
X0196600Y0050561D01*
X0196630Y0050523D01*
X0196656Y0050482D01*
X0196678Y0050439D01*
X0196698Y0050395D01*
X0196713Y0050350D01*
X0196725Y0050303D01*
X0196733Y0050255D01*
X0196737Y0050207D01*
X0196737Y0050159D01*
X0196733Y0050111D01*
X0196725Y0050063D01*
X0196713Y0050016D01*
X0196698Y0049971D01*
X0196678Y0049927D01*
X0196656Y0049884D01*
X0196630Y0049843D01*
X0196600Y0049805D01*
X0196568Y0049769D01*
X0196533Y0049736D01*
X0196495Y0049706D01*
X0196455Y0049679D01*
X0196413Y0049656D01*
X0196369Y0049636D01*
X0196324Y0049619D01*
X0196278Y0049607D01*
X0196230Y0049598D01*
X0196182Y0049593D01*
X0196134Y0049592D01*
X0196086Y0049595D01*
X0196038Y0049602D01*
X0195991Y0049613D01*
X0195945Y0049627D01*
X0195900Y0049645D01*
X0195857Y0049667D01*
X0195816Y0049692D01*
X0195778Y0049721D01*
X0195741Y0049753D01*
X0195707Y0049787D01*
X0195677Y0049824D01*
X0195649Y0049863D01*
X0195624Y0049905D01*
X0195604Y0049949D01*
X0195586Y0049994D01*
X0195573Y0050040D01*
X0195563Y0050087D01*
X0195557Y0050135D01*
X0195555Y0050183D01*
M02*
