G75*
%MOIN*%
%OFA0B0*%
%FSLAX25Y25*%
%IPPOS*%
%LPD*%
%AMOC8*
5,1,8,0,0,1.08239X$1,22.5*
%
%ADD10C,0.05400*%
%ADD11C,0.12661*%
%ADD12C,0.02600*%
%ADD13C,0.01800*%
%ADD14C,0.02000*%
%ADD15C,0.00800*%
%ADD16C,0.02300*%
%ADD17C,0.02200*%
D10*
X0080928Y0025070D03*
X0080928Y0034413D03*
X0080928Y0043287D03*
X0080928Y0052630D03*
D11*
X0071479Y0061685D03*
X0071479Y0016015D03*
D12*
X0222679Y0037050D03*
D13*
X0207479Y0044950D03*
X0202479Y0044950D03*
X0202979Y0035150D03*
X0198979Y0030450D03*
X0212479Y0023950D03*
X0193979Y0017450D03*
X0191629Y0016150D03*
X0208065Y0012864D03*
X0197479Y0008450D03*
X0176479Y0009650D03*
X0162279Y0013950D03*
X0153979Y0013950D03*
X0156079Y0020350D03*
X0137179Y0016150D03*
X0126479Y0016350D03*
X0121429Y0011550D03*
X0109179Y0012850D03*
X0106379Y0012200D03*
X0109279Y0015950D03*
X0104779Y0019450D03*
X0098379Y0029050D03*
X0111279Y0038650D03*
X0118079Y0041050D03*
X0120979Y0045450D03*
X0121079Y0048550D03*
X0102979Y0057150D03*
X0109379Y0062350D03*
X0123979Y0065450D03*
X0168679Y0061650D03*
X0173729Y0060950D03*
X0184479Y0055950D03*
X0151029Y0047700D03*
X0148279Y0043250D03*
X0161479Y0035850D03*
X0163729Y0033450D03*
X0176279Y0029720D03*
X0178979Y0029450D03*
X0181979Y0029450D03*
X0148279Y0032050D03*
X0175729Y0043250D03*
X0116279Y0005050D03*
X0098679Y0005850D03*
D14*
X0095779Y0008450D03*
X0079479Y0008450D03*
X0109279Y0019400D03*
X0123079Y0026150D03*
X0115279Y0032950D03*
X0117479Y0035200D03*
X0122979Y0035200D03*
X0128479Y0035200D03*
X0131479Y0038550D03*
X0124379Y0048100D03*
X0153479Y0055950D03*
X0183529Y0060850D03*
X0179979Y0069450D03*
X0153479Y0069450D03*
X0129979Y0069450D03*
X0107479Y0068950D03*
X0085979Y0068950D03*
X0172279Y0030050D03*
X0188979Y0029450D03*
X0196929Y0043600D03*
X0146979Y0022450D03*
X0129479Y0014800D03*
X0226979Y0069450D03*
X0214979Y0070950D03*
D15*
X0061879Y0074850D02*
X0061879Y0002850D01*
X0236279Y0002850D01*
X0236279Y0074850D01*
X0061879Y0074850D01*
X0061879Y0074115D02*
X0236279Y0074115D01*
X0236279Y0073316D02*
X0061879Y0073316D01*
X0061879Y0072518D02*
X0213435Y0072518D01*
X0214067Y0073150D02*
X0212779Y0071861D01*
X0212779Y0070039D01*
X0214067Y0068750D01*
X0215890Y0068750D01*
X0217179Y0070039D01*
X0217179Y0071861D01*
X0215890Y0073150D01*
X0214067Y0073150D01*
X0216522Y0072518D02*
X0236279Y0072518D01*
X0236279Y0071719D02*
X0217179Y0071719D01*
X0217179Y0070920D02*
X0225338Y0070920D01*
X0224779Y0070361D02*
X0224779Y0068539D01*
X0226067Y0067250D01*
X0227890Y0067250D01*
X0229179Y0068539D01*
X0229179Y0070361D01*
X0227890Y0071650D01*
X0226067Y0071650D01*
X0224779Y0070361D01*
X0224779Y0070122D02*
X0217179Y0070122D01*
X0216463Y0069323D02*
X0224779Y0069323D01*
X0224793Y0068525D02*
X0182165Y0068525D01*
X0182179Y0068539D02*
X0180890Y0067250D01*
X0179067Y0067250D01*
X0177779Y0068539D01*
X0177779Y0070361D01*
X0179067Y0071650D01*
X0180890Y0071650D01*
X0182179Y0070361D01*
X0182179Y0068539D01*
X0182179Y0069323D02*
X0213494Y0069323D01*
X0212779Y0070122D02*
X0182179Y0070122D01*
X0181620Y0070920D02*
X0212779Y0070920D01*
X0212779Y0071719D02*
X0061879Y0071719D01*
X0061879Y0070920D02*
X0084838Y0070920D01*
X0085067Y0071150D02*
X0083779Y0069861D01*
X0083779Y0068039D01*
X0085067Y0066750D01*
X0086890Y0066750D01*
X0088179Y0068039D01*
X0088179Y0069861D01*
X0086890Y0071150D01*
X0085067Y0071150D01*
X0084039Y0070122D02*
X0061879Y0070122D01*
X0061879Y0069323D02*
X0083779Y0069323D01*
X0083779Y0068525D02*
X0074643Y0068525D01*
X0075745Y0068069D02*
X0072977Y0069215D01*
X0069981Y0069215D01*
X0067213Y0068069D01*
X0065095Y0065950D01*
X0063948Y0063183D01*
X0063948Y0060187D01*
X0065095Y0057419D01*
X0067213Y0055300D01*
X0069981Y0054154D01*
X0072977Y0054154D01*
X0075745Y0055300D01*
X0077863Y0057419D01*
X0079009Y0060187D01*
X0079009Y0063183D01*
X0077863Y0065950D01*
X0075745Y0068069D01*
X0076087Y0067726D02*
X0084091Y0067726D01*
X0084890Y0066928D02*
X0076885Y0066928D01*
X0077684Y0066129D02*
X0236279Y0066129D01*
X0236279Y0065331D02*
X0078120Y0065331D01*
X0078450Y0064532D02*
X0236279Y0064532D01*
X0236279Y0063734D02*
X0078781Y0063734D01*
X0079009Y0062935D02*
X0182503Y0062935D01*
X0182617Y0063050D02*
X0181329Y0061761D01*
X0181329Y0059939D01*
X0182617Y0058650D01*
X0184440Y0058650D01*
X0185729Y0059939D01*
X0185729Y0061761D01*
X0184440Y0063050D01*
X0182617Y0063050D01*
X0181704Y0062137D02*
X0079009Y0062137D01*
X0079009Y0061338D02*
X0095164Y0061338D01*
X0095476Y0061650D02*
X0094129Y0060303D01*
X0094129Y0058397D01*
X0095476Y0057050D01*
X0097381Y0057050D01*
X0098729Y0058397D01*
X0098729Y0060303D01*
X0097381Y0061650D01*
X0095476Y0061650D01*
X0094366Y0060540D02*
X0079009Y0060540D01*
X0078825Y0059741D02*
X0094129Y0059741D01*
X0094129Y0058943D02*
X0078494Y0058943D01*
X0078163Y0058144D02*
X0094382Y0058144D01*
X0095180Y0057346D02*
X0077790Y0057346D01*
X0076991Y0056547D02*
X0151279Y0056547D01*
X0151279Y0056861D02*
X0151279Y0055039D01*
X0152567Y0053750D01*
X0154390Y0053750D01*
X0155679Y0055039D01*
X0155679Y0056861D01*
X0154390Y0058150D01*
X0152567Y0058150D01*
X0151279Y0056861D01*
X0151763Y0057346D02*
X0097677Y0057346D01*
X0098476Y0058144D02*
X0152562Y0058144D01*
X0154396Y0058144D02*
X0236279Y0058144D01*
X0236279Y0057346D02*
X0155194Y0057346D01*
X0155679Y0056547D02*
X0236279Y0056547D01*
X0236279Y0055749D02*
X0155679Y0055749D01*
X0155590Y0054950D02*
X0236279Y0054950D01*
X0236279Y0054152D02*
X0154792Y0054152D01*
X0152166Y0054152D02*
X0084518Y0054152D01*
X0084234Y0054839D02*
X0084828Y0053405D01*
X0084828Y0051854D01*
X0084234Y0050420D01*
X0083137Y0049323D01*
X0081703Y0048730D01*
X0080152Y0048730D01*
X0078718Y0049323D01*
X0077621Y0050420D01*
X0077028Y0051854D01*
X0077028Y0053405D01*
X0077621Y0054839D01*
X0078718Y0055936D01*
X0080152Y0056530D01*
X0081703Y0056530D01*
X0083137Y0055936D01*
X0084234Y0054839D01*
X0084122Y0054950D02*
X0151367Y0054950D01*
X0151279Y0055749D02*
X0083324Y0055749D01*
X0084828Y0053353D02*
X0236279Y0053353D01*
X0236279Y0052555D02*
X0084828Y0052555D01*
X0084787Y0051756D02*
X0236279Y0051756D01*
X0236279Y0050958D02*
X0084456Y0050958D01*
X0083973Y0050159D02*
X0119718Y0050159D01*
X0120209Y0050650D02*
X0118979Y0049420D01*
X0118979Y0047680D01*
X0119609Y0047050D01*
X0118879Y0046320D01*
X0118879Y0044580D01*
X0120109Y0043350D01*
X0121849Y0043350D01*
X0123079Y0044580D01*
X0123079Y0046320D01*
X0122449Y0046950D01*
X0123179Y0047680D01*
X0123179Y0049420D01*
X0121949Y0050650D01*
X0120209Y0050650D01*
X0118979Y0049361D02*
X0083174Y0049361D01*
X0078681Y0049361D02*
X0074260Y0049361D01*
X0074108Y0049728D02*
X0073105Y0050731D01*
X0071794Y0051274D01*
X0070376Y0051274D01*
X0069065Y0050731D01*
X0068062Y0049728D01*
X0067520Y0048417D01*
X0067520Y0046999D01*
X0068062Y0045689D01*
X0069065Y0044686D01*
X0070376Y0044143D01*
X0071794Y0044143D01*
X0073105Y0044686D01*
X0074108Y0045689D01*
X0074650Y0046999D01*
X0074650Y0048417D01*
X0074108Y0049728D01*
X0073676Y0050159D02*
X0077882Y0050159D01*
X0077399Y0050958D02*
X0072557Y0050958D01*
X0069613Y0050958D02*
X0061879Y0050958D01*
X0061879Y0051756D02*
X0077068Y0051756D01*
X0077028Y0052555D02*
X0061879Y0052555D01*
X0061879Y0053353D02*
X0077028Y0053353D01*
X0077337Y0054152D02*
X0061879Y0054152D01*
X0061879Y0054950D02*
X0068058Y0054950D01*
X0066765Y0055749D02*
X0061879Y0055749D01*
X0061879Y0056547D02*
X0065966Y0056547D01*
X0065168Y0057346D02*
X0061879Y0057346D01*
X0061879Y0058144D02*
X0064794Y0058144D01*
X0064463Y0058943D02*
X0061879Y0058943D01*
X0061879Y0059741D02*
X0064133Y0059741D01*
X0063948Y0060540D02*
X0061879Y0060540D01*
X0061879Y0061338D02*
X0063948Y0061338D01*
X0063948Y0062137D02*
X0061879Y0062137D01*
X0061879Y0062935D02*
X0063948Y0062935D01*
X0064176Y0063734D02*
X0061879Y0063734D01*
X0061879Y0064532D02*
X0064507Y0064532D01*
X0064838Y0065331D02*
X0061879Y0065331D01*
X0061879Y0066129D02*
X0065273Y0066129D01*
X0066072Y0066928D02*
X0061879Y0066928D01*
X0061879Y0067726D02*
X0066871Y0067726D01*
X0068314Y0068525D02*
X0061879Y0068525D01*
X0087068Y0066928D02*
X0106390Y0066928D01*
X0106567Y0066750D02*
X0108390Y0066750D01*
X0109679Y0068039D01*
X0109679Y0069861D01*
X0108390Y0071150D01*
X0106567Y0071150D01*
X0105279Y0069861D01*
X0105279Y0068039D01*
X0106567Y0066750D01*
X0105591Y0067726D02*
X0087866Y0067726D01*
X0088179Y0068525D02*
X0105279Y0068525D01*
X0105279Y0069323D02*
X0088179Y0069323D01*
X0087918Y0070122D02*
X0105539Y0070122D01*
X0106338Y0070920D02*
X0087120Y0070920D01*
X0097693Y0061338D02*
X0181329Y0061338D01*
X0181329Y0060540D02*
X0098492Y0060540D01*
X0098729Y0059741D02*
X0181526Y0059741D01*
X0182325Y0058943D02*
X0098729Y0058943D01*
X0108568Y0066928D02*
X0236279Y0066928D01*
X0236279Y0067726D02*
X0228366Y0067726D01*
X0229165Y0068525D02*
X0236279Y0068525D01*
X0236279Y0069323D02*
X0229179Y0069323D01*
X0229179Y0070122D02*
X0236279Y0070122D01*
X0236279Y0070920D02*
X0228620Y0070920D01*
X0225591Y0067726D02*
X0181366Y0067726D01*
X0178591Y0067726D02*
X0154866Y0067726D01*
X0154390Y0067250D02*
X0155679Y0068539D01*
X0155679Y0070361D01*
X0154390Y0071650D01*
X0152567Y0071650D01*
X0151279Y0070361D01*
X0151279Y0068539D01*
X0152567Y0067250D01*
X0154390Y0067250D01*
X0155665Y0068525D02*
X0177793Y0068525D01*
X0177779Y0069323D02*
X0155679Y0069323D01*
X0155679Y0070122D02*
X0177779Y0070122D01*
X0178338Y0070920D02*
X0155120Y0070920D01*
X0151838Y0070920D02*
X0131620Y0070920D01*
X0132179Y0070361D02*
X0130890Y0071650D01*
X0129067Y0071650D01*
X0127779Y0070361D01*
X0127779Y0068539D01*
X0129067Y0067250D01*
X0130890Y0067250D01*
X0132179Y0068539D01*
X0132179Y0070361D01*
X0132179Y0070122D02*
X0151279Y0070122D01*
X0151279Y0069323D02*
X0132179Y0069323D01*
X0132165Y0068525D02*
X0151293Y0068525D01*
X0152091Y0067726D02*
X0131366Y0067726D01*
X0128591Y0067726D02*
X0109366Y0067726D01*
X0109679Y0068525D02*
X0127793Y0068525D01*
X0127779Y0069323D02*
X0109679Y0069323D01*
X0109418Y0070122D02*
X0127779Y0070122D01*
X0128338Y0070920D02*
X0108620Y0070920D01*
X0078531Y0055749D02*
X0076193Y0055749D01*
X0074899Y0054950D02*
X0077733Y0054950D01*
X0068494Y0050159D02*
X0061879Y0050159D01*
X0061879Y0049361D02*
X0067910Y0049361D01*
X0067580Y0048562D02*
X0061879Y0048562D01*
X0061879Y0047764D02*
X0067520Y0047764D01*
X0067534Y0046965D02*
X0061879Y0046965D01*
X0061879Y0046167D02*
X0067864Y0046167D01*
X0068383Y0045368D02*
X0061879Y0045368D01*
X0061879Y0044570D02*
X0069346Y0044570D01*
X0072824Y0044570D02*
X0077238Y0044570D01*
X0077028Y0044063D02*
X0077028Y0042511D01*
X0077621Y0041078D01*
X0078718Y0039981D01*
X0080152Y0039387D01*
X0081703Y0039387D01*
X0083137Y0039981D01*
X0084234Y0041078D01*
X0084828Y0042511D01*
X0084828Y0044063D01*
X0084234Y0045496D01*
X0083137Y0046593D01*
X0081703Y0047187D01*
X0080152Y0047187D01*
X0078718Y0046593D01*
X0077621Y0045496D01*
X0077028Y0044063D01*
X0077028Y0043771D02*
X0061879Y0043771D01*
X0061879Y0042973D02*
X0077028Y0042973D01*
X0077167Y0042174D02*
X0061879Y0042174D01*
X0061879Y0041376D02*
X0077498Y0041376D01*
X0078122Y0040577D02*
X0061879Y0040577D01*
X0061879Y0039779D02*
X0079207Y0039779D01*
X0082649Y0039779D02*
X0116380Y0039779D01*
X0115979Y0040180D02*
X0117209Y0038950D01*
X0118949Y0038950D01*
X0120179Y0040180D01*
X0120179Y0041920D01*
X0118949Y0043150D01*
X0117209Y0043150D01*
X0115979Y0041920D01*
X0115979Y0040180D01*
X0115979Y0040577D02*
X0083733Y0040577D01*
X0084357Y0041376D02*
X0115979Y0041376D01*
X0116233Y0042174D02*
X0084688Y0042174D01*
X0084828Y0042973D02*
X0117031Y0042973D01*
X0119126Y0042973D02*
X0146179Y0042973D01*
X0146179Y0042380D02*
X0147409Y0041150D01*
X0149149Y0041150D01*
X0150379Y0042380D01*
X0150379Y0044120D01*
X0149149Y0045350D01*
X0147409Y0045350D01*
X0146179Y0044120D01*
X0146179Y0042380D01*
X0146385Y0042174D02*
X0119924Y0042174D01*
X0120179Y0041376D02*
X0147183Y0041376D01*
X0149374Y0041376D02*
X0174633Y0041376D01*
X0174859Y0041150D02*
X0176599Y0041150D01*
X0177829Y0042380D01*
X0177829Y0044120D01*
X0176599Y0045350D01*
X0174859Y0045350D01*
X0173629Y0044120D01*
X0173629Y0042380D01*
X0174859Y0041150D01*
X0173835Y0042174D02*
X0150173Y0042174D01*
X0150379Y0042973D02*
X0173629Y0042973D01*
X0173629Y0043771D02*
X0150379Y0043771D01*
X0149929Y0044570D02*
X0174079Y0044570D01*
X0177379Y0044570D02*
X0194787Y0044570D01*
X0194729Y0044511D02*
X0194729Y0042689D01*
X0196017Y0041400D01*
X0197840Y0041400D01*
X0199129Y0042689D01*
X0199129Y0044511D01*
X0197840Y0045800D01*
X0196017Y0045800D01*
X0194729Y0044511D01*
X0194729Y0043771D02*
X0177829Y0043771D01*
X0177829Y0042973D02*
X0194729Y0042973D01*
X0195243Y0042174D02*
X0177623Y0042174D01*
X0176824Y0041376D02*
X0236279Y0041376D01*
X0236279Y0042174D02*
X0198614Y0042174D01*
X0199129Y0042973D02*
X0201486Y0042973D01*
X0201609Y0042850D02*
X0203349Y0042850D01*
X0204579Y0044080D01*
X0204579Y0045820D01*
X0203349Y0047050D01*
X0201609Y0047050D01*
X0200379Y0045820D01*
X0200379Y0044080D01*
X0201609Y0042850D01*
X0200688Y0043771D02*
X0199129Y0043771D01*
X0199070Y0044570D02*
X0200379Y0044570D01*
X0200379Y0045368D02*
X0198272Y0045368D01*
X0200726Y0046167D02*
X0123079Y0046167D01*
X0123079Y0045368D02*
X0195586Y0045368D01*
X0201524Y0046965D02*
X0122464Y0046965D01*
X0123179Y0047764D02*
X0236279Y0047764D01*
X0236279Y0048562D02*
X0123179Y0048562D01*
X0123179Y0049361D02*
X0236279Y0049361D01*
X0236279Y0050159D02*
X0122439Y0050159D01*
X0118979Y0048562D02*
X0074590Y0048562D01*
X0074650Y0047764D02*
X0118979Y0047764D01*
X0119524Y0046965D02*
X0082239Y0046965D01*
X0083563Y0046167D02*
X0118879Y0046167D01*
X0118879Y0045368D02*
X0084287Y0045368D01*
X0084618Y0044570D02*
X0118889Y0044570D01*
X0119688Y0043771D02*
X0084828Y0043771D01*
X0079616Y0046965D02*
X0074636Y0046965D01*
X0074306Y0046167D02*
X0078292Y0046167D01*
X0077568Y0045368D02*
X0073787Y0045368D01*
X0061879Y0038980D02*
X0117179Y0038980D01*
X0118979Y0038980D02*
X0129279Y0038980D01*
X0129279Y0039461D02*
X0129279Y0037639D01*
X0130567Y0036350D01*
X0132390Y0036350D01*
X0133679Y0037639D01*
X0133679Y0039461D01*
X0132390Y0040750D01*
X0130567Y0040750D01*
X0129279Y0039461D01*
X0129596Y0039779D02*
X0119777Y0039779D01*
X0120179Y0040577D02*
X0130395Y0040577D01*
X0132563Y0040577D02*
X0236279Y0040577D01*
X0236279Y0039779D02*
X0133361Y0039779D01*
X0133679Y0038980D02*
X0221073Y0038980D01*
X0221263Y0039169D02*
X0220559Y0038466D01*
X0220179Y0037547D01*
X0220179Y0036553D01*
X0220559Y0035634D01*
X0221263Y0034931D01*
X0222181Y0034550D01*
X0223176Y0034550D01*
X0224095Y0034931D01*
X0224798Y0035634D01*
X0225179Y0036553D01*
X0225179Y0037547D01*
X0224798Y0038466D01*
X0224095Y0039169D01*
X0223176Y0039550D01*
X0222181Y0039550D01*
X0221263Y0039169D01*
X0220441Y0038182D02*
X0133679Y0038182D01*
X0133423Y0037383D02*
X0160042Y0037383D01*
X0160609Y0037950D02*
X0159379Y0036720D01*
X0159379Y0034980D01*
X0160609Y0033750D01*
X0161629Y0033750D01*
X0161629Y0032580D01*
X0162859Y0031350D01*
X0164599Y0031350D01*
X0165829Y0032580D01*
X0165829Y0034320D01*
X0164599Y0035550D01*
X0163579Y0035550D01*
X0163579Y0036720D01*
X0162349Y0037950D01*
X0160609Y0037950D01*
X0159379Y0036584D02*
X0132625Y0036584D01*
X0130679Y0036111D02*
X0129390Y0037400D01*
X0127567Y0037400D01*
X0126279Y0036111D01*
X0126279Y0034289D01*
X0127567Y0033000D01*
X0129390Y0033000D01*
X0130679Y0034289D01*
X0130679Y0036111D01*
X0130679Y0035786D02*
X0159379Y0035786D01*
X0159379Y0034987D02*
X0130679Y0034987D01*
X0130579Y0034189D02*
X0160170Y0034189D01*
X0161629Y0033390D02*
X0149908Y0033390D01*
X0150379Y0032920D02*
X0149149Y0034150D01*
X0147409Y0034150D01*
X0146179Y0032920D01*
X0146179Y0031180D01*
X0147409Y0029950D01*
X0149149Y0029950D01*
X0150379Y0031180D01*
X0150379Y0032920D01*
X0150379Y0032592D02*
X0161629Y0032592D01*
X0162415Y0031793D02*
X0150379Y0031793D01*
X0150194Y0030995D02*
X0170112Y0030995D01*
X0170079Y0030961D02*
X0170079Y0029139D01*
X0171367Y0027850D01*
X0173190Y0027850D01*
X0174184Y0028844D01*
X0175409Y0027620D01*
X0177149Y0027620D01*
X0177494Y0027965D01*
X0178109Y0027350D01*
X0179849Y0027350D01*
X0180479Y0027980D01*
X0181109Y0027350D01*
X0182849Y0027350D01*
X0184079Y0028580D01*
X0184079Y0030320D01*
X0182849Y0031550D01*
X0181109Y0031550D01*
X0180479Y0030920D01*
X0179849Y0031550D01*
X0178109Y0031550D01*
X0177764Y0031205D01*
X0177149Y0031820D01*
X0175409Y0031820D01*
X0174479Y0030890D01*
X0174479Y0030961D01*
X0173190Y0032250D01*
X0171367Y0032250D01*
X0170079Y0030961D01*
X0170079Y0030196D02*
X0149395Y0030196D01*
X0147162Y0030196D02*
X0100202Y0030196D01*
X0100479Y0029920D02*
X0099249Y0031150D01*
X0097509Y0031150D01*
X0096279Y0029920D01*
X0096279Y0028180D01*
X0097509Y0026950D01*
X0099249Y0026950D01*
X0100479Y0028180D01*
X0100479Y0029920D01*
X0100479Y0029398D02*
X0170079Y0029398D01*
X0170618Y0028599D02*
X0100479Y0028599D01*
X0100099Y0027801D02*
X0121618Y0027801D01*
X0122167Y0028350D02*
X0120879Y0027061D01*
X0120879Y0025239D01*
X0122167Y0023950D01*
X0123990Y0023950D01*
X0125279Y0025239D01*
X0125279Y0027061D01*
X0123990Y0028350D01*
X0122167Y0028350D01*
X0120879Y0027002D02*
X0099301Y0027002D01*
X0097457Y0027002D02*
X0084349Y0027002D01*
X0084234Y0027280D02*
X0083137Y0028377D01*
X0081703Y0028970D01*
X0080152Y0028970D01*
X0078718Y0028377D01*
X0077621Y0027280D01*
X0077028Y0025846D01*
X0077028Y0024295D01*
X0077621Y0022861D01*
X0078718Y0021764D01*
X0080152Y0021170D01*
X0081703Y0021170D01*
X0083137Y0021764D01*
X0084234Y0022861D01*
X0084828Y0024295D01*
X0084828Y0025846D01*
X0084234Y0027280D01*
X0083713Y0027801D02*
X0096658Y0027801D01*
X0096279Y0028599D02*
X0082599Y0028599D01*
X0079256Y0028599D02*
X0074367Y0028599D01*
X0074108Y0027972D02*
X0074650Y0029283D01*
X0074650Y0030701D01*
X0074108Y0032011D01*
X0073105Y0033014D01*
X0071794Y0033557D01*
X0070376Y0033557D01*
X0069065Y0033014D01*
X0068062Y0032011D01*
X0067520Y0030701D01*
X0067520Y0029283D01*
X0068062Y0027972D01*
X0069065Y0026969D01*
X0070376Y0026426D01*
X0071794Y0026426D01*
X0073105Y0026969D01*
X0074108Y0027972D01*
X0073936Y0027801D02*
X0078143Y0027801D01*
X0077506Y0027002D02*
X0073138Y0027002D01*
X0069032Y0027002D02*
X0061879Y0027002D01*
X0061879Y0026204D02*
X0077176Y0026204D01*
X0077028Y0025405D02*
X0061879Y0025405D01*
X0061879Y0024607D02*
X0077028Y0024607D01*
X0077229Y0023808D02*
X0061879Y0023808D01*
X0061879Y0023010D02*
X0068686Y0023010D01*
X0069981Y0023546D02*
X0067213Y0022400D01*
X0065095Y0020281D01*
X0063948Y0017513D01*
X0063948Y0014517D01*
X0065095Y0011750D01*
X0067213Y0009631D01*
X0069981Y0008485D01*
X0072977Y0008485D01*
X0075745Y0009631D01*
X0077863Y0011750D01*
X0079009Y0014517D01*
X0079009Y0017513D01*
X0077863Y0020281D01*
X0075745Y0022400D01*
X0072977Y0023546D01*
X0069981Y0023546D01*
X0067025Y0022211D02*
X0061879Y0022211D01*
X0061879Y0021413D02*
X0066226Y0021413D01*
X0065428Y0020614D02*
X0061879Y0020614D01*
X0061879Y0019816D02*
X0064902Y0019816D01*
X0064571Y0019017D02*
X0061879Y0019017D01*
X0061879Y0018219D02*
X0064240Y0018219D01*
X0063948Y0017420D02*
X0061879Y0017420D01*
X0061879Y0016622D02*
X0063948Y0016622D01*
X0063948Y0015823D02*
X0061879Y0015823D01*
X0061879Y0015025D02*
X0063948Y0015025D01*
X0064069Y0014226D02*
X0061879Y0014226D01*
X0061879Y0013428D02*
X0064399Y0013428D01*
X0064730Y0012629D02*
X0061879Y0012629D01*
X0061879Y0011831D02*
X0065061Y0011831D01*
X0065812Y0011032D02*
X0061879Y0011032D01*
X0061879Y0010234D02*
X0066610Y0010234D01*
X0067686Y0009435D02*
X0061879Y0009435D01*
X0061879Y0008637D02*
X0069614Y0008637D01*
X0073344Y0008637D02*
X0077279Y0008637D01*
X0077279Y0009361D02*
X0077279Y0007539D01*
X0078567Y0006250D01*
X0080390Y0006250D01*
X0081679Y0007539D01*
X0081679Y0009361D01*
X0080390Y0010650D01*
X0078567Y0010650D01*
X0077279Y0009361D01*
X0077353Y0009435D02*
X0075271Y0009435D01*
X0076347Y0010234D02*
X0078151Y0010234D01*
X0077146Y0011032D02*
X0104577Y0011032D01*
X0104279Y0011330D02*
X0105509Y0010100D01*
X0107249Y0010100D01*
X0108104Y0010955D01*
X0108309Y0010750D01*
X0110049Y0010750D01*
X0111279Y0011980D01*
X0111279Y0013720D01*
X0110649Y0014350D01*
X0111379Y0015080D01*
X0111379Y0016820D01*
X0110594Y0017604D01*
X0111479Y0018489D01*
X0111479Y0020311D01*
X0110190Y0021600D01*
X0108367Y0021600D01*
X0107079Y0020311D01*
X0107079Y0018489D01*
X0107963Y0017604D01*
X0107179Y0016820D01*
X0107179Y0015080D01*
X0107809Y0014450D01*
X0107454Y0014095D01*
X0107249Y0014300D01*
X0105509Y0014300D01*
X0104279Y0013070D01*
X0104279Y0011330D01*
X0104279Y0011831D02*
X0077897Y0011831D01*
X0078227Y0012629D02*
X0104279Y0012629D01*
X0104637Y0013428D02*
X0078558Y0013428D01*
X0078889Y0014226D02*
X0105435Y0014226D01*
X0107322Y0014226D02*
X0107585Y0014226D01*
X0107234Y0015025D02*
X0079009Y0015025D01*
X0079009Y0015823D02*
X0107179Y0015823D01*
X0107179Y0016622D02*
X0079009Y0016622D01*
X0079009Y0017420D02*
X0107779Y0017420D01*
X0107349Y0018219D02*
X0078717Y0018219D01*
X0078386Y0019017D02*
X0107079Y0019017D01*
X0107079Y0019816D02*
X0078056Y0019816D01*
X0077530Y0020614D02*
X0107382Y0020614D01*
X0108180Y0021413D02*
X0082288Y0021413D01*
X0083584Y0022211D02*
X0144779Y0022211D01*
X0144779Y0021539D02*
X0146067Y0020250D01*
X0147890Y0020250D01*
X0149179Y0021539D01*
X0149179Y0023361D01*
X0147890Y0024650D01*
X0146067Y0024650D01*
X0144779Y0023361D01*
X0144779Y0021539D01*
X0144905Y0021413D02*
X0110377Y0021413D01*
X0111176Y0020614D02*
X0145703Y0020614D01*
X0148254Y0020614D02*
X0236279Y0020614D01*
X0236279Y0019816D02*
X0111479Y0019816D01*
X0111479Y0019017D02*
X0236279Y0019017D01*
X0236279Y0018219D02*
X0192530Y0018219D01*
X0192499Y0018250D02*
X0190759Y0018250D01*
X0189529Y0017020D01*
X0189529Y0015280D01*
X0190759Y0014050D01*
X0192499Y0014050D01*
X0193729Y0015280D01*
X0193729Y0017020D01*
X0192499Y0018250D01*
X0193328Y0017420D02*
X0236279Y0017420D01*
X0236279Y0016622D02*
X0193729Y0016622D01*
X0193729Y0015823D02*
X0236279Y0015823D01*
X0236279Y0015025D02*
X0193473Y0015025D01*
X0192675Y0014226D02*
X0206457Y0014226D01*
X0205965Y0013734D02*
X0205965Y0011994D01*
X0207195Y0010764D01*
X0208934Y0010764D01*
X0210165Y0011994D01*
X0210165Y0013734D01*
X0208934Y0014964D01*
X0207195Y0014964D01*
X0205965Y0013734D01*
X0205965Y0013428D02*
X0156079Y0013428D01*
X0156079Y0013080D02*
X0154849Y0011850D01*
X0153109Y0011850D01*
X0151879Y0013080D01*
X0151879Y0014820D01*
X0153109Y0016050D01*
X0154849Y0016050D01*
X0156079Y0014820D01*
X0156079Y0013080D01*
X0155628Y0012629D02*
X0205965Y0012629D01*
X0206128Y0011831D02*
X0111129Y0011831D01*
X0111279Y0012629D02*
X0128538Y0012629D01*
X0128567Y0012600D02*
X0130390Y0012600D01*
X0131679Y0013889D01*
X0131679Y0015711D01*
X0130390Y0017000D01*
X0128579Y0017000D01*
X0128579Y0017220D01*
X0127349Y0018450D01*
X0125609Y0018450D01*
X0124379Y0017220D01*
X0124379Y0015480D01*
X0125609Y0014250D01*
X0127279Y0014250D01*
X0127279Y0013889D01*
X0128567Y0012600D01*
X0127740Y0013428D02*
X0111279Y0013428D01*
X0110772Y0014226D02*
X0127279Y0014226D01*
X0124834Y0015025D02*
X0111323Y0015025D01*
X0111379Y0015823D02*
X0124379Y0015823D01*
X0124379Y0016622D02*
X0111379Y0016622D01*
X0110778Y0017420D02*
X0124579Y0017420D01*
X0125378Y0018219D02*
X0111209Y0018219D01*
X0121511Y0024607D02*
X0084828Y0024607D01*
X0084828Y0025405D02*
X0120879Y0025405D01*
X0120879Y0026204D02*
X0084679Y0026204D01*
X0084626Y0023808D02*
X0145226Y0023808D01*
X0144779Y0023010D02*
X0084295Y0023010D01*
X0079567Y0021413D02*
X0076731Y0021413D01*
X0075933Y0022211D02*
X0078271Y0022211D01*
X0077560Y0023010D02*
X0074271Y0023010D01*
X0068234Y0027801D02*
X0061879Y0027801D01*
X0061879Y0028599D02*
X0067803Y0028599D01*
X0067520Y0029398D02*
X0061879Y0029398D01*
X0061879Y0030196D02*
X0067520Y0030196D01*
X0067641Y0030995D02*
X0061879Y0030995D01*
X0061879Y0031793D02*
X0067972Y0031793D01*
X0068643Y0032592D02*
X0061879Y0032592D01*
X0061879Y0033390D02*
X0069974Y0033390D01*
X0072196Y0033390D02*
X0077130Y0033390D01*
X0077028Y0033637D02*
X0077621Y0032204D01*
X0078718Y0031107D01*
X0080152Y0030513D01*
X0081703Y0030513D01*
X0083137Y0031107D01*
X0084234Y0032204D01*
X0084828Y0033637D01*
X0084828Y0035189D01*
X0084234Y0036622D01*
X0083137Y0037719D01*
X0081703Y0038313D01*
X0080152Y0038313D01*
X0078718Y0037719D01*
X0077621Y0036622D01*
X0077028Y0035189D01*
X0077028Y0033637D01*
X0077028Y0034189D02*
X0061879Y0034189D01*
X0061879Y0034987D02*
X0077028Y0034987D01*
X0077275Y0035786D02*
X0061879Y0035786D01*
X0061879Y0036584D02*
X0077606Y0036584D01*
X0078382Y0037383D02*
X0061879Y0037383D01*
X0061879Y0038182D02*
X0079834Y0038182D01*
X0082021Y0038182D02*
X0129279Y0038182D01*
X0129407Y0037383D02*
X0129534Y0037383D01*
X0130205Y0036584D02*
X0130333Y0036584D01*
X0127550Y0037383D02*
X0123907Y0037383D01*
X0123890Y0037400D02*
X0122067Y0037400D01*
X0120779Y0036111D01*
X0120779Y0034289D01*
X0122067Y0033000D01*
X0123890Y0033000D01*
X0125179Y0034289D01*
X0125179Y0036111D01*
X0123890Y0037400D01*
X0124705Y0036584D02*
X0126752Y0036584D01*
X0126279Y0035786D02*
X0125179Y0035786D01*
X0125179Y0034987D02*
X0126279Y0034987D01*
X0126378Y0034189D02*
X0125079Y0034189D01*
X0124280Y0033390D02*
X0127177Y0033390D01*
X0129780Y0033390D02*
X0146649Y0033390D01*
X0146179Y0032592D02*
X0117479Y0032592D01*
X0117479Y0033000D02*
X0118390Y0033000D01*
X0119679Y0034289D01*
X0119679Y0036111D01*
X0118390Y0037400D01*
X0116567Y0037400D01*
X0115279Y0036111D01*
X0115279Y0035150D01*
X0114367Y0035150D01*
X0113079Y0033861D01*
X0113079Y0032039D01*
X0114367Y0030750D01*
X0116190Y0030750D01*
X0117479Y0032039D01*
X0117479Y0033000D01*
X0117233Y0031793D02*
X0146179Y0031793D01*
X0146364Y0030995D02*
X0116435Y0030995D01*
X0114123Y0030995D02*
X0099404Y0030995D01*
X0097354Y0030995D02*
X0082867Y0030995D01*
X0083823Y0031793D02*
X0113324Y0031793D01*
X0113079Y0032592D02*
X0084395Y0032592D01*
X0084725Y0033390D02*
X0113079Y0033390D01*
X0113406Y0034189D02*
X0084828Y0034189D01*
X0084828Y0034987D02*
X0114205Y0034987D01*
X0115279Y0035786D02*
X0084580Y0035786D01*
X0084249Y0036584D02*
X0115752Y0036584D01*
X0116550Y0037383D02*
X0083473Y0037383D01*
X0077461Y0032592D02*
X0073527Y0032592D01*
X0074198Y0031793D02*
X0078032Y0031793D01*
X0078988Y0030995D02*
X0074529Y0030995D01*
X0074650Y0030196D02*
X0096555Y0030196D01*
X0096279Y0029398D02*
X0074650Y0029398D01*
X0118780Y0033390D02*
X0121677Y0033390D01*
X0120878Y0034189D02*
X0119579Y0034189D01*
X0119679Y0034987D02*
X0120779Y0034987D01*
X0120779Y0035786D02*
X0119679Y0035786D01*
X0119205Y0036584D02*
X0121252Y0036584D01*
X0122050Y0037383D02*
X0118407Y0037383D01*
X0122270Y0043771D02*
X0146179Y0043771D01*
X0146629Y0044570D02*
X0123068Y0044570D01*
X0162916Y0037383D02*
X0220179Y0037383D01*
X0220179Y0036584D02*
X0204514Y0036584D01*
X0205079Y0036020D02*
X0203849Y0037250D01*
X0202109Y0037250D01*
X0200879Y0036020D01*
X0200879Y0034280D01*
X0202109Y0033050D01*
X0203849Y0033050D01*
X0205079Y0034280D01*
X0205079Y0036020D01*
X0205079Y0035786D02*
X0220496Y0035786D01*
X0221206Y0034987D02*
X0205079Y0034987D01*
X0204988Y0034189D02*
X0236279Y0034189D01*
X0236279Y0034987D02*
X0224152Y0034987D01*
X0224861Y0035786D02*
X0236279Y0035786D01*
X0236279Y0036584D02*
X0225179Y0036584D01*
X0225179Y0037383D02*
X0236279Y0037383D01*
X0236279Y0038182D02*
X0224916Y0038182D01*
X0224284Y0038980D02*
X0236279Y0038980D01*
X0236279Y0042973D02*
X0208471Y0042973D01*
X0208349Y0042850D02*
X0209579Y0044080D01*
X0209579Y0045820D01*
X0208349Y0047050D01*
X0206609Y0047050D01*
X0205379Y0045820D01*
X0205379Y0044080D01*
X0206609Y0042850D01*
X0208349Y0042850D01*
X0209270Y0043771D02*
X0236279Y0043771D01*
X0236279Y0044570D02*
X0209579Y0044570D01*
X0209579Y0045368D02*
X0236279Y0045368D01*
X0236279Y0046167D02*
X0209232Y0046167D01*
X0208433Y0046965D02*
X0236279Y0046965D01*
X0206524Y0046965D02*
X0203433Y0046965D01*
X0204232Y0046167D02*
X0205726Y0046167D01*
X0205379Y0045368D02*
X0204579Y0045368D01*
X0204579Y0044570D02*
X0205379Y0044570D01*
X0205688Y0043771D02*
X0204270Y0043771D01*
X0203471Y0042973D02*
X0206486Y0042973D01*
X0201443Y0036584D02*
X0163579Y0036584D01*
X0163579Y0035786D02*
X0200879Y0035786D01*
X0200879Y0034987D02*
X0165161Y0034987D01*
X0165829Y0034189D02*
X0200970Y0034189D01*
X0201768Y0033390D02*
X0165829Y0033390D01*
X0165829Y0032592D02*
X0236279Y0032592D01*
X0236279Y0033390D02*
X0204189Y0033390D01*
X0201079Y0031320D02*
X0199849Y0032550D01*
X0198109Y0032550D01*
X0196879Y0031320D01*
X0196879Y0029580D01*
X0198109Y0028350D01*
X0199849Y0028350D01*
X0201079Y0029580D01*
X0201079Y0031320D01*
X0201079Y0030995D02*
X0236279Y0030995D01*
X0236279Y0031793D02*
X0200605Y0031793D01*
X0197352Y0031793D02*
X0177175Y0031793D01*
X0175382Y0031793D02*
X0173647Y0031793D01*
X0174445Y0030995D02*
X0174584Y0030995D01*
X0170911Y0031793D02*
X0165042Y0031793D01*
X0173939Y0028599D02*
X0174429Y0028599D01*
X0175228Y0027801D02*
X0124539Y0027801D01*
X0125279Y0027002D02*
X0236279Y0027002D01*
X0236279Y0026204D02*
X0125279Y0026204D01*
X0125279Y0025405D02*
X0236279Y0025405D01*
X0236279Y0024607D02*
X0147933Y0024607D01*
X0148732Y0023808D02*
X0236279Y0023808D01*
X0236279Y0023010D02*
X0149179Y0023010D01*
X0149179Y0022211D02*
X0236279Y0022211D01*
X0236279Y0021413D02*
X0149053Y0021413D01*
X0146024Y0024607D02*
X0124647Y0024607D01*
X0127580Y0018219D02*
X0136278Y0018219D01*
X0136309Y0018250D02*
X0135079Y0017020D01*
X0135079Y0015280D01*
X0136309Y0014050D01*
X0138049Y0014050D01*
X0139279Y0015280D01*
X0139279Y0017020D01*
X0138049Y0018250D01*
X0136309Y0018250D01*
X0135479Y0017420D02*
X0128378Y0017420D01*
X0130768Y0016622D02*
X0135079Y0016622D01*
X0135079Y0015823D02*
X0131567Y0015823D01*
X0131679Y0015025D02*
X0135334Y0015025D01*
X0136133Y0014226D02*
X0131679Y0014226D01*
X0131218Y0013428D02*
X0151879Y0013428D01*
X0151879Y0014226D02*
X0138225Y0014226D01*
X0139023Y0015025D02*
X0152084Y0015025D01*
X0152882Y0015823D02*
X0139279Y0015823D01*
X0139279Y0016622D02*
X0189529Y0016622D01*
X0189529Y0015823D02*
X0155075Y0015823D01*
X0155874Y0015025D02*
X0189784Y0015025D01*
X0190583Y0014226D02*
X0156079Y0014226D01*
X0152330Y0012629D02*
X0130419Y0012629D01*
X0138878Y0017420D02*
X0189929Y0017420D01*
X0190728Y0018219D02*
X0138080Y0018219D01*
X0118379Y0005920D02*
X0117149Y0007150D01*
X0115409Y0007150D01*
X0114179Y0005920D01*
X0114179Y0004180D01*
X0115409Y0002950D01*
X0117149Y0002950D01*
X0118379Y0004180D01*
X0118379Y0005920D01*
X0118058Y0006241D02*
X0236279Y0006241D01*
X0236279Y0005443D02*
X0118379Y0005443D01*
X0118379Y0004644D02*
X0236279Y0004644D01*
X0236279Y0003846D02*
X0118044Y0003846D01*
X0117246Y0003047D02*
X0236279Y0003047D01*
X0236279Y0007040D02*
X0199038Y0007040D01*
X0199579Y0007580D02*
X0198349Y0006350D01*
X0196609Y0006350D01*
X0195379Y0007580D01*
X0195379Y0009320D01*
X0196609Y0010550D01*
X0198349Y0010550D01*
X0199579Y0009320D01*
X0199579Y0007580D01*
X0199579Y0007838D02*
X0236279Y0007838D01*
X0236279Y0008637D02*
X0199579Y0008637D01*
X0199463Y0009435D02*
X0236279Y0009435D01*
X0236279Y0010234D02*
X0198665Y0010234D01*
X0196293Y0010234D02*
X0178579Y0010234D01*
X0178579Y0010520D02*
X0177349Y0011750D01*
X0175609Y0011750D01*
X0174379Y0010520D01*
X0174379Y0008780D01*
X0175609Y0007550D01*
X0177349Y0007550D01*
X0178579Y0008780D01*
X0178579Y0010520D01*
X0178066Y0011032D02*
X0206927Y0011032D01*
X0209202Y0011032D02*
X0236279Y0011032D01*
X0236279Y0011831D02*
X0210001Y0011831D01*
X0210165Y0012629D02*
X0236279Y0012629D01*
X0236279Y0013428D02*
X0210165Y0013428D01*
X0209672Y0014226D02*
X0236279Y0014226D01*
X0236279Y0027801D02*
X0190441Y0027801D01*
X0189890Y0027250D02*
X0191179Y0028539D01*
X0191179Y0030361D01*
X0189890Y0031650D01*
X0188067Y0031650D01*
X0186779Y0030361D01*
X0186779Y0028539D01*
X0188067Y0027250D01*
X0189890Y0027250D01*
X0191179Y0028599D02*
X0197859Y0028599D01*
X0197061Y0029398D02*
X0191179Y0029398D01*
X0191179Y0030196D02*
X0196879Y0030196D01*
X0196879Y0030995D02*
X0190545Y0030995D01*
X0187412Y0030995D02*
X0183404Y0030995D01*
X0184079Y0030196D02*
X0186779Y0030196D01*
X0186779Y0029398D02*
X0184079Y0029398D01*
X0184079Y0028599D02*
X0186779Y0028599D01*
X0187517Y0027801D02*
X0183299Y0027801D01*
X0180658Y0027801D02*
X0180299Y0027801D01*
X0177658Y0027801D02*
X0177330Y0027801D01*
X0180404Y0030995D02*
X0180554Y0030995D01*
X0200098Y0028599D02*
X0236279Y0028599D01*
X0236279Y0029398D02*
X0200896Y0029398D01*
X0201079Y0030196D02*
X0236279Y0030196D01*
X0195494Y0009435D02*
X0178579Y0009435D01*
X0178435Y0008637D02*
X0195379Y0008637D01*
X0195379Y0007838D02*
X0177637Y0007838D01*
X0175321Y0007838D02*
X0097979Y0007838D01*
X0097979Y0007539D02*
X0096690Y0006250D01*
X0094867Y0006250D01*
X0093579Y0007539D01*
X0093579Y0009361D01*
X0094867Y0010650D01*
X0096690Y0010650D01*
X0097979Y0009361D01*
X0097979Y0007539D01*
X0097480Y0007040D02*
X0115298Y0007040D01*
X0114500Y0006241D02*
X0061879Y0006241D01*
X0061879Y0005443D02*
X0114179Y0005443D01*
X0114179Y0004644D02*
X0061879Y0004644D01*
X0061879Y0003846D02*
X0114513Y0003846D01*
X0115312Y0003047D02*
X0061879Y0003047D01*
X0061879Y0007040D02*
X0077778Y0007040D01*
X0077279Y0007838D02*
X0061879Y0007838D01*
X0080806Y0010234D02*
X0094451Y0010234D01*
X0093653Y0009435D02*
X0081605Y0009435D01*
X0081679Y0008637D02*
X0093579Y0008637D01*
X0093579Y0007838D02*
X0081679Y0007838D01*
X0081180Y0007040D02*
X0094078Y0007040D01*
X0097979Y0008637D02*
X0174522Y0008637D01*
X0174379Y0009435D02*
X0097905Y0009435D01*
X0097106Y0010234D02*
X0105375Y0010234D01*
X0107382Y0010234D02*
X0174379Y0010234D01*
X0174891Y0011032D02*
X0110331Y0011032D01*
X0117259Y0007040D02*
X0195919Y0007040D01*
X0184733Y0058943D02*
X0236279Y0058943D01*
X0236279Y0059741D02*
X0185531Y0059741D01*
X0185729Y0060540D02*
X0236279Y0060540D01*
X0236279Y0061338D02*
X0185729Y0061338D01*
X0185353Y0062137D02*
X0236279Y0062137D01*
X0236279Y0062935D02*
X0184555Y0062935D01*
D16*
X0202979Y0067950D03*
D17*
X0096429Y0059350D03*
M02*
