G75*
%MOIN*%
%OFA0B0*%
%FSLAX25Y25*%
%IPPOS*%
%LPD*%
%AMOC8*
5,1,8,0,0,1.08239X$1,22.5*
%
%ADD10C,0.00000*%
D10*
X0060479Y0001450D02*
X0060479Y0076250D01*
X0237679Y0076250D01*
X0237679Y0001450D01*
X0060479Y0001450D01*
X0068920Y0029992D02*
X0068922Y0030085D01*
X0068928Y0030177D01*
X0068938Y0030269D01*
X0068952Y0030360D01*
X0068969Y0030451D01*
X0068991Y0030541D01*
X0069016Y0030630D01*
X0069045Y0030718D01*
X0069078Y0030804D01*
X0069115Y0030889D01*
X0069155Y0030973D01*
X0069199Y0031054D01*
X0069246Y0031134D01*
X0069296Y0031212D01*
X0069350Y0031287D01*
X0069407Y0031360D01*
X0069467Y0031430D01*
X0069530Y0031498D01*
X0069596Y0031563D01*
X0069664Y0031625D01*
X0069735Y0031685D01*
X0069809Y0031741D01*
X0069885Y0031794D01*
X0069963Y0031843D01*
X0070043Y0031890D01*
X0070125Y0031932D01*
X0070209Y0031972D01*
X0070294Y0032007D01*
X0070381Y0032039D01*
X0070469Y0032068D01*
X0070558Y0032092D01*
X0070648Y0032113D01*
X0070739Y0032129D01*
X0070831Y0032142D01*
X0070923Y0032151D01*
X0071016Y0032156D01*
X0071108Y0032157D01*
X0071201Y0032154D01*
X0071293Y0032147D01*
X0071385Y0032136D01*
X0071476Y0032121D01*
X0071567Y0032103D01*
X0071657Y0032080D01*
X0071745Y0032054D01*
X0071833Y0032024D01*
X0071919Y0031990D01*
X0072003Y0031953D01*
X0072086Y0031911D01*
X0072167Y0031867D01*
X0072247Y0031819D01*
X0072324Y0031768D01*
X0072398Y0031713D01*
X0072471Y0031655D01*
X0072541Y0031595D01*
X0072608Y0031531D01*
X0072672Y0031465D01*
X0072734Y0031395D01*
X0072792Y0031324D01*
X0072847Y0031250D01*
X0072899Y0031173D01*
X0072948Y0031094D01*
X0072994Y0031014D01*
X0073036Y0030931D01*
X0073074Y0030847D01*
X0073109Y0030761D01*
X0073140Y0030674D01*
X0073167Y0030586D01*
X0073190Y0030496D01*
X0073210Y0030406D01*
X0073226Y0030315D01*
X0073238Y0030223D01*
X0073246Y0030131D01*
X0073250Y0030038D01*
X0073250Y0029946D01*
X0073246Y0029853D01*
X0073238Y0029761D01*
X0073226Y0029669D01*
X0073210Y0029578D01*
X0073190Y0029488D01*
X0073167Y0029398D01*
X0073140Y0029310D01*
X0073109Y0029223D01*
X0073074Y0029137D01*
X0073036Y0029053D01*
X0072994Y0028970D01*
X0072948Y0028890D01*
X0072899Y0028811D01*
X0072847Y0028734D01*
X0072792Y0028660D01*
X0072734Y0028589D01*
X0072672Y0028519D01*
X0072608Y0028453D01*
X0072541Y0028389D01*
X0072471Y0028329D01*
X0072398Y0028271D01*
X0072324Y0028216D01*
X0072247Y0028165D01*
X0072168Y0028117D01*
X0072086Y0028073D01*
X0072003Y0028031D01*
X0071919Y0027994D01*
X0071833Y0027960D01*
X0071745Y0027930D01*
X0071657Y0027904D01*
X0071567Y0027881D01*
X0071476Y0027863D01*
X0071385Y0027848D01*
X0071293Y0027837D01*
X0071201Y0027830D01*
X0071108Y0027827D01*
X0071016Y0027828D01*
X0070923Y0027833D01*
X0070831Y0027842D01*
X0070739Y0027855D01*
X0070648Y0027871D01*
X0070558Y0027892D01*
X0070469Y0027916D01*
X0070381Y0027945D01*
X0070294Y0027977D01*
X0070209Y0028012D01*
X0070125Y0028052D01*
X0070043Y0028094D01*
X0069963Y0028141D01*
X0069885Y0028190D01*
X0069809Y0028243D01*
X0069735Y0028299D01*
X0069664Y0028359D01*
X0069596Y0028421D01*
X0069530Y0028486D01*
X0069467Y0028554D01*
X0069407Y0028624D01*
X0069350Y0028697D01*
X0069296Y0028772D01*
X0069246Y0028850D01*
X0069199Y0028930D01*
X0069155Y0029011D01*
X0069115Y0029095D01*
X0069078Y0029180D01*
X0069045Y0029266D01*
X0069016Y0029354D01*
X0068991Y0029443D01*
X0068969Y0029533D01*
X0068952Y0029624D01*
X0068938Y0029715D01*
X0068928Y0029807D01*
X0068922Y0029899D01*
X0068920Y0029992D01*
X0068920Y0047708D02*
X0068922Y0047801D01*
X0068928Y0047893D01*
X0068938Y0047985D01*
X0068952Y0048076D01*
X0068969Y0048167D01*
X0068991Y0048257D01*
X0069016Y0048346D01*
X0069045Y0048434D01*
X0069078Y0048520D01*
X0069115Y0048605D01*
X0069155Y0048689D01*
X0069199Y0048770D01*
X0069246Y0048850D01*
X0069296Y0048928D01*
X0069350Y0049003D01*
X0069407Y0049076D01*
X0069467Y0049146D01*
X0069530Y0049214D01*
X0069596Y0049279D01*
X0069664Y0049341D01*
X0069735Y0049401D01*
X0069809Y0049457D01*
X0069885Y0049510D01*
X0069963Y0049559D01*
X0070043Y0049606D01*
X0070125Y0049648D01*
X0070209Y0049688D01*
X0070294Y0049723D01*
X0070381Y0049755D01*
X0070469Y0049784D01*
X0070558Y0049808D01*
X0070648Y0049829D01*
X0070739Y0049845D01*
X0070831Y0049858D01*
X0070923Y0049867D01*
X0071016Y0049872D01*
X0071108Y0049873D01*
X0071201Y0049870D01*
X0071293Y0049863D01*
X0071385Y0049852D01*
X0071476Y0049837D01*
X0071567Y0049819D01*
X0071657Y0049796D01*
X0071745Y0049770D01*
X0071833Y0049740D01*
X0071919Y0049706D01*
X0072003Y0049669D01*
X0072086Y0049627D01*
X0072167Y0049583D01*
X0072247Y0049535D01*
X0072324Y0049484D01*
X0072398Y0049429D01*
X0072471Y0049371D01*
X0072541Y0049311D01*
X0072608Y0049247D01*
X0072672Y0049181D01*
X0072734Y0049111D01*
X0072792Y0049040D01*
X0072847Y0048966D01*
X0072899Y0048889D01*
X0072948Y0048810D01*
X0072994Y0048730D01*
X0073036Y0048647D01*
X0073074Y0048563D01*
X0073109Y0048477D01*
X0073140Y0048390D01*
X0073167Y0048302D01*
X0073190Y0048212D01*
X0073210Y0048122D01*
X0073226Y0048031D01*
X0073238Y0047939D01*
X0073246Y0047847D01*
X0073250Y0047754D01*
X0073250Y0047662D01*
X0073246Y0047569D01*
X0073238Y0047477D01*
X0073226Y0047385D01*
X0073210Y0047294D01*
X0073190Y0047204D01*
X0073167Y0047114D01*
X0073140Y0047026D01*
X0073109Y0046939D01*
X0073074Y0046853D01*
X0073036Y0046769D01*
X0072994Y0046686D01*
X0072948Y0046606D01*
X0072899Y0046527D01*
X0072847Y0046450D01*
X0072792Y0046376D01*
X0072734Y0046305D01*
X0072672Y0046235D01*
X0072608Y0046169D01*
X0072541Y0046105D01*
X0072471Y0046045D01*
X0072398Y0045987D01*
X0072324Y0045932D01*
X0072247Y0045881D01*
X0072168Y0045833D01*
X0072086Y0045789D01*
X0072003Y0045747D01*
X0071919Y0045710D01*
X0071833Y0045676D01*
X0071745Y0045646D01*
X0071657Y0045620D01*
X0071567Y0045597D01*
X0071476Y0045579D01*
X0071385Y0045564D01*
X0071293Y0045553D01*
X0071201Y0045546D01*
X0071108Y0045543D01*
X0071016Y0045544D01*
X0070923Y0045549D01*
X0070831Y0045558D01*
X0070739Y0045571D01*
X0070648Y0045587D01*
X0070558Y0045608D01*
X0070469Y0045632D01*
X0070381Y0045661D01*
X0070294Y0045693D01*
X0070209Y0045728D01*
X0070125Y0045768D01*
X0070043Y0045810D01*
X0069963Y0045857D01*
X0069885Y0045906D01*
X0069809Y0045959D01*
X0069735Y0046015D01*
X0069664Y0046075D01*
X0069596Y0046137D01*
X0069530Y0046202D01*
X0069467Y0046270D01*
X0069407Y0046340D01*
X0069350Y0046413D01*
X0069296Y0046488D01*
X0069246Y0046566D01*
X0069199Y0046646D01*
X0069155Y0046727D01*
X0069115Y0046811D01*
X0069078Y0046896D01*
X0069045Y0046982D01*
X0069016Y0047070D01*
X0068991Y0047159D01*
X0068969Y0047249D01*
X0068952Y0047340D01*
X0068938Y0047431D01*
X0068928Y0047523D01*
X0068922Y0047615D01*
X0068920Y0047708D01*
M02*
