G75*
%MOIN*%
%OFA0B0*%
%FSLAX24Y24*%
%IPPOS*%
%LPD*%
%AMOC8*
5,1,8,0,0,1.08239X$1,22.5*
%
%ADD10C,0.0540*%
%ADD11C,0.1266*%
%ADD12C,0.0180*%
%ADD13C,0.0200*%
%ADD14C,0.0080*%
%ADD15C,0.0240*%
%ADD16C,0.0220*%
D10*
X002045Y002362D03*
X002045Y003296D03*
X002045Y004184D03*
X002045Y005118D03*
D11*
X001100Y006023D03*
X001100Y001457D03*
D12*
X003820Y000440D03*
X006075Y001050D03*
X006600Y001350D03*
X007700Y001400D03*
X009750Y001820D03*
X011840Y002840D03*
X013150Y002775D03*
X014300Y002675D03*
X013150Y003150D03*
X010325Y003200D03*
X008780Y003060D03*
X005760Y003960D03*
X005080Y003720D03*
X008975Y004625D03*
X011575Y004200D03*
X013140Y004280D03*
X014750Y004975D03*
X017075Y003975D03*
X011325Y005950D03*
X010800Y005950D03*
X004995Y005275D03*
X004480Y001800D03*
X004950Y001450D03*
X013400Y001100D03*
X014920Y000960D03*
D13*
X015450Y000900D03*
X016150Y001575D03*
X012620Y002840D03*
X012340Y003250D03*
X012830Y003435D03*
X012405Y003850D03*
X011985Y004275D03*
X011000Y003400D03*
X011200Y002950D03*
X008650Y002100D03*
X007200Y001360D03*
X006900Y001335D03*
X004880Y001795D03*
X004700Y001175D03*
X003610Y000700D03*
X001900Y000700D03*
X006260Y002460D03*
X005420Y003140D03*
X005700Y003375D03*
X006250Y003375D03*
X006800Y003375D03*
X007100Y003720D03*
X006400Y004575D03*
X006060Y004700D03*
X009300Y005450D03*
X012225Y005200D03*
X014400Y005620D03*
X016800Y004475D03*
X016525Y004225D03*
X016785Y003970D03*
X016525Y003750D03*
X016775Y003475D03*
X016650Y006800D03*
X014400Y006800D03*
X011950Y006800D03*
X009300Y006800D03*
X006950Y006800D03*
X005620Y006600D03*
X004700Y006750D03*
X005340Y006240D03*
X002550Y006750D03*
D14*
X000220Y007260D02*
X000220Y000220D01*
X017500Y000220D01*
X017500Y007260D01*
X000220Y007260D01*
X000220Y007222D02*
X017500Y007222D01*
X017500Y007144D02*
X000220Y007144D01*
X000220Y007065D02*
X017500Y007065D01*
X017500Y006987D02*
X000220Y006987D01*
X000220Y006908D02*
X017500Y006908D01*
X017500Y006830D02*
X000220Y006830D01*
X000220Y006751D02*
X000889Y006751D01*
X000950Y006777D02*
X000673Y006662D01*
X000462Y006450D01*
X000347Y006173D01*
X000347Y005874D01*
X000462Y005597D01*
X000673Y005385D01*
X000950Y005270D01*
X001250Y005270D01*
X001527Y005385D01*
X001738Y005597D01*
X001853Y005874D01*
X001853Y006173D01*
X001738Y006450D01*
X001527Y006662D01*
X001250Y006777D01*
X000950Y006777D01*
X000699Y006673D02*
X000220Y006673D01*
X000220Y006594D02*
X000606Y006594D01*
X000527Y006516D02*
X000220Y006516D01*
X000220Y006437D02*
X000456Y006437D01*
X000424Y006359D02*
X000220Y006359D01*
X000220Y006280D02*
X000391Y006280D01*
X000359Y006202D02*
X000220Y006202D01*
X000220Y006123D02*
X000347Y006123D01*
X000347Y006045D02*
X000220Y006045D01*
X000220Y005966D02*
X000347Y005966D01*
X000347Y005888D02*
X000220Y005888D01*
X000220Y005809D02*
X000374Y005809D01*
X000406Y005731D02*
X000220Y005731D01*
X000220Y005652D02*
X000439Y005652D01*
X000485Y005574D02*
X000220Y005574D01*
X000220Y005495D02*
X000563Y005495D01*
X000642Y005417D02*
X000220Y005417D01*
X000220Y005338D02*
X000787Y005338D01*
X000220Y005260D02*
X001660Y005260D01*
X001665Y005275D02*
X001645Y005214D01*
X001636Y005158D01*
X002005Y005158D01*
X002005Y005527D01*
X001949Y005518D01*
X001887Y005498D01*
X001830Y005469D01*
X001778Y005431D01*
X001732Y005385D01*
X001694Y005333D01*
X001665Y005275D01*
X001698Y005338D02*
X001413Y005338D01*
X001558Y005417D02*
X001764Y005417D01*
X001882Y005495D02*
X001637Y005495D01*
X001715Y005574D02*
X004003Y005574D01*
X004043Y005590D02*
X003798Y005489D01*
X003611Y005302D01*
X003611Y005302D01*
X003510Y005057D01*
X003510Y002800D01*
X003506Y002761D01*
X003477Y002690D01*
X003422Y002635D01*
X003351Y002606D01*
X003312Y002602D01*
X002356Y002602D01*
X002266Y002693D01*
X002122Y002752D01*
X001967Y002752D01*
X001824Y002693D01*
X001714Y002583D01*
X001655Y002440D01*
X001655Y002284D01*
X001714Y002141D01*
X001824Y002031D01*
X001967Y001972D01*
X002122Y001972D01*
X002266Y002031D01*
X002356Y002122D01*
X003447Y002122D01*
X003696Y002225D01*
X003887Y002416D01*
X003990Y002665D01*
X003990Y004925D01*
X003994Y004961D01*
X004021Y005028D01*
X004072Y005079D01*
X004139Y005106D01*
X004175Y005110D01*
X004223Y005110D01*
X004247Y005120D01*
X004270Y005120D01*
X004287Y005137D01*
X004311Y005147D01*
X004378Y005214D01*
X004388Y005238D01*
X004405Y005255D01*
X004405Y005278D01*
X004415Y005302D01*
X004415Y005398D01*
X004405Y005422D01*
X004405Y005445D01*
X004388Y005462D01*
X004378Y005486D01*
X004311Y005553D01*
X004287Y005563D01*
X004270Y005580D01*
X004247Y005580D01*
X004223Y005590D01*
X004043Y005590D01*
X004277Y005574D02*
X005400Y005574D01*
X005400Y005652D02*
X001761Y005652D01*
X001794Y005731D02*
X005400Y005731D01*
X005400Y005809D02*
X001826Y005809D01*
X001853Y005888D02*
X005400Y005888D01*
X005400Y005954D02*
X005400Y005244D01*
X005399Y005243D01*
X005400Y005178D01*
X005400Y005114D01*
X005401Y005112D01*
X005401Y005110D01*
X005448Y005066D01*
X005494Y005020D01*
X005496Y005020D01*
X005840Y004689D01*
X005840Y004609D01*
X005969Y004480D01*
X006151Y004480D01*
X006180Y004509D01*
X006180Y004484D01*
X006309Y004355D01*
X006491Y004355D01*
X006620Y004484D01*
X006620Y004666D01*
X006491Y004795D01*
X006309Y004795D01*
X006280Y004766D01*
X006280Y004791D01*
X006151Y004920D01*
X006062Y004920D01*
X005720Y005248D01*
X005720Y006086D01*
X005560Y006246D01*
X005560Y006331D01*
X005431Y006460D01*
X005249Y006460D01*
X005120Y006331D01*
X005120Y006149D01*
X005249Y006020D01*
X005334Y006020D01*
X005400Y005954D01*
X005388Y005966D02*
X001853Y005966D01*
X001853Y006045D02*
X005224Y006045D01*
X005146Y006123D02*
X001853Y006123D01*
X001841Y006202D02*
X005120Y006202D01*
X005120Y006280D02*
X001809Y006280D01*
X001776Y006359D02*
X005147Y006359D01*
X005226Y006437D02*
X001744Y006437D01*
X001673Y006516D02*
X005400Y006516D01*
X005400Y006509D02*
X005529Y006380D01*
X005711Y006380D01*
X005840Y006509D01*
X005840Y006691D01*
X005711Y006820D01*
X005529Y006820D01*
X005400Y006691D01*
X005400Y006509D01*
X005400Y006594D02*
X001594Y006594D01*
X001501Y006673D02*
X005400Y006673D01*
X005460Y006751D02*
X001311Y006751D01*
X002005Y005495D02*
X002085Y005495D01*
X002085Y005527D02*
X002085Y005158D01*
X002454Y005158D01*
X002445Y005214D01*
X002425Y005275D01*
X002396Y005333D01*
X002358Y005385D01*
X002312Y005431D01*
X002260Y005469D01*
X002202Y005498D01*
X002141Y005518D01*
X002085Y005527D01*
X002085Y005417D02*
X002005Y005417D01*
X002005Y005338D02*
X002085Y005338D01*
X002085Y005260D02*
X002005Y005260D01*
X002005Y005181D02*
X002085Y005181D01*
X002085Y005158D02*
X002005Y005158D01*
X002005Y005078D01*
X002085Y005078D01*
X002085Y005158D01*
X002085Y005103D02*
X003529Y005103D01*
X003510Y005024D02*
X002445Y005024D01*
X002445Y005022D02*
X002454Y005078D01*
X002085Y005078D01*
X002085Y004709D01*
X002141Y004718D01*
X002202Y004738D01*
X002260Y004767D01*
X002312Y004805D01*
X002358Y004851D01*
X002396Y004903D01*
X002425Y004961D01*
X002445Y005022D01*
X002417Y004946D02*
X003510Y004946D01*
X003510Y004867D02*
X002369Y004867D01*
X002289Y004789D02*
X003510Y004789D01*
X003510Y004710D02*
X002090Y004710D01*
X002085Y004710D02*
X002005Y004710D01*
X002005Y004709D02*
X002005Y005078D01*
X001636Y005078D01*
X001645Y005022D01*
X001665Y004961D01*
X001694Y004903D01*
X001732Y004851D01*
X001778Y004805D01*
X001830Y004767D01*
X001887Y004738D01*
X001949Y004718D01*
X002005Y004709D01*
X002000Y004710D02*
X001412Y004710D01*
X001417Y004697D02*
X001363Y004828D01*
X001263Y004928D01*
X001132Y004982D01*
X000990Y004982D01*
X000859Y004928D01*
X000758Y004828D01*
X000704Y004697D01*
X000704Y004555D01*
X000758Y004424D01*
X000859Y004324D01*
X000990Y004269D01*
X001132Y004269D01*
X001263Y004324D01*
X001363Y004424D01*
X001417Y004555D01*
X001417Y004697D01*
X001417Y004632D02*
X003510Y004632D01*
X003510Y004553D02*
X002172Y004553D01*
X002122Y004574D02*
X001967Y004574D01*
X001824Y004514D01*
X001714Y004405D01*
X001655Y004261D01*
X001655Y004106D01*
X001714Y003963D01*
X001824Y003853D01*
X001967Y003794D01*
X002122Y003794D01*
X002266Y003853D01*
X002376Y003963D01*
X002435Y004106D01*
X002435Y004261D01*
X002376Y004405D01*
X002266Y004514D01*
X002122Y004574D01*
X001917Y004553D02*
X001416Y004553D01*
X001384Y004475D02*
X001784Y004475D01*
X001711Y004396D02*
X001335Y004396D01*
X001248Y004318D02*
X001678Y004318D01*
X001655Y004239D02*
X000220Y004239D01*
X000220Y004161D02*
X001655Y004161D01*
X001665Y004082D02*
X000220Y004082D01*
X000220Y004004D02*
X001697Y004004D01*
X001752Y003925D02*
X000220Y003925D01*
X000220Y003847D02*
X001840Y003847D01*
X001967Y003686D02*
X001824Y003627D01*
X001714Y003517D01*
X001655Y003374D01*
X001655Y003219D01*
X001714Y003075D01*
X001824Y002966D01*
X001967Y002906D01*
X002122Y002906D01*
X002266Y002966D01*
X002376Y003075D01*
X002435Y003219D01*
X002435Y003374D01*
X002376Y003517D01*
X002266Y003627D01*
X002122Y003686D01*
X001967Y003686D01*
X001808Y003611D02*
X000220Y003611D01*
X000220Y003533D02*
X001730Y003533D01*
X001688Y003454D02*
X000220Y003454D01*
X000220Y003376D02*
X001656Y003376D01*
X001655Y003297D02*
X000220Y003297D01*
X000220Y003219D02*
X001655Y003219D01*
X001687Y003140D02*
X001279Y003140D01*
X001263Y003156D02*
X001132Y003211D01*
X000990Y003211D01*
X000859Y003156D01*
X000758Y003056D01*
X000704Y002925D01*
X000704Y002783D01*
X000758Y002652D01*
X000859Y002552D01*
X000990Y002498D01*
X001132Y002498D01*
X001263Y002552D01*
X001363Y002652D01*
X001417Y002783D01*
X001417Y002925D01*
X001363Y003056D01*
X001263Y003156D01*
X001358Y003062D02*
X001728Y003062D01*
X001807Y002983D02*
X001393Y002983D01*
X001417Y002905D02*
X003510Y002905D01*
X003510Y002983D02*
X002283Y002983D01*
X002362Y003062D02*
X003510Y003062D01*
X003510Y003140D02*
X002402Y003140D01*
X002435Y003219D02*
X003510Y003219D01*
X003510Y003297D02*
X002435Y003297D01*
X002434Y003376D02*
X003510Y003376D01*
X003510Y003454D02*
X002402Y003454D01*
X002360Y003533D02*
X003510Y003533D01*
X003510Y003611D02*
X002282Y003611D01*
X002250Y003847D02*
X003510Y003847D01*
X003510Y003925D02*
X002338Y003925D01*
X002392Y004004D02*
X003510Y004004D01*
X003510Y004082D02*
X002425Y004082D01*
X002435Y004161D02*
X003510Y004161D01*
X003510Y004239D02*
X002435Y004239D01*
X002412Y004318D02*
X003510Y004318D01*
X003510Y004396D02*
X002379Y004396D01*
X002306Y004475D02*
X003510Y004475D01*
X003990Y004475D02*
X006189Y004475D01*
X006268Y004396D02*
X003990Y004396D01*
X003990Y004318D02*
X011396Y004318D01*
X011365Y004287D02*
X011365Y004113D01*
X011402Y004076D01*
X011391Y004036D01*
X011330Y003958D01*
X011244Y003910D01*
X011201Y003900D01*
X010742Y003900D01*
X010632Y003903D01*
X010632Y003903D01*
X010422Y003822D01*
X010422Y003822D01*
X010259Y003667D01*
X010259Y003667D01*
X010168Y003461D01*
X010167Y003413D01*
X010165Y003411D01*
X010165Y003347D01*
X010165Y003337D01*
X010115Y003287D01*
X010115Y003113D01*
X010238Y002990D01*
X010412Y002990D01*
X010535Y003113D01*
X010535Y003287D01*
X010485Y003337D01*
X010485Y003341D01*
X010491Y003389D01*
X010530Y003476D01*
X010599Y003542D01*
X010688Y003577D01*
X010735Y003580D01*
X010738Y003580D01*
X010802Y003578D01*
X010804Y003580D01*
X011160Y003580D01*
X011169Y003573D01*
X011225Y003580D01*
X011281Y003580D01*
X011289Y003588D01*
X011348Y003595D01*
X011546Y003707D01*
X011546Y003707D01*
X011687Y003887D01*
X011714Y003985D01*
X012639Y003060D01*
X012529Y003060D01*
X012400Y002931D01*
X012400Y002749D01*
X012529Y002620D01*
X012711Y002620D01*
X012840Y002749D01*
X012840Y002859D01*
X012940Y002759D01*
X012940Y002688D01*
X013063Y002565D01*
X013237Y002565D01*
X013240Y002568D01*
X013240Y001260D01*
X007857Y001260D01*
X007910Y001313D01*
X007910Y001487D01*
X007787Y001610D01*
X007613Y001610D01*
X007490Y001487D01*
X007490Y001313D01*
X007543Y001260D01*
X007411Y001260D01*
X007420Y001269D01*
X007420Y001451D01*
X007291Y001580D01*
X007206Y001580D01*
X006660Y002126D01*
X006660Y002806D01*
X006260Y003206D01*
X006166Y003300D01*
X005571Y003300D01*
X005511Y003360D01*
X005329Y003360D01*
X005200Y003231D01*
X005200Y003049D01*
X005329Y002920D01*
X005511Y002920D01*
X005571Y002980D01*
X006034Y002980D01*
X006334Y002680D01*
X006169Y002680D01*
X006040Y002551D01*
X006040Y002369D01*
X006169Y002240D01*
X006340Y002240D01*
X006340Y001994D01*
X006434Y001900D01*
X006980Y001354D01*
X006980Y001269D01*
X006989Y001260D01*
X006850Y001260D01*
X006827Y001263D01*
X006810Y001273D01*
X006810Y001437D01*
X006687Y001560D01*
X006513Y001560D01*
X006390Y001437D01*
X006390Y001263D01*
X006477Y001176D01*
X006550Y001050D01*
X006740Y000940D01*
X013263Y000940D01*
X013313Y000890D01*
X013487Y000890D01*
X013610Y001013D01*
X013610Y001187D01*
X013560Y001237D01*
X013560Y003028D01*
X013457Y003207D01*
X013457Y003207D01*
X013457Y003207D01*
X013299Y003298D01*
X013237Y003360D01*
X013063Y003360D01*
X012940Y003237D01*
X012940Y003211D01*
X011791Y004360D01*
X011712Y004360D01*
X011662Y004410D01*
X011488Y004410D01*
X011365Y004287D01*
X011365Y004239D02*
X003990Y004239D01*
X003990Y004161D02*
X005664Y004161D01*
X005673Y004170D02*
X005550Y004047D01*
X005550Y003873D01*
X005673Y003750D01*
X005847Y003750D01*
X005970Y003873D01*
X005970Y004047D01*
X005847Y004170D01*
X005673Y004170D01*
X005585Y004082D02*
X003990Y004082D01*
X003990Y004004D02*
X005550Y004004D01*
X005550Y003925D02*
X005172Y003925D01*
X005167Y003930D02*
X004993Y003930D01*
X004870Y003807D01*
X004870Y003633D01*
X004993Y003510D01*
X005167Y003510D01*
X005290Y003633D01*
X005290Y003807D01*
X005167Y003930D01*
X005250Y003847D02*
X005577Y003847D01*
X005655Y003768D02*
X005290Y003768D01*
X005290Y003690D02*
X006880Y003690D01*
X006880Y003629D02*
X007009Y003500D01*
X007191Y003500D01*
X007320Y003629D01*
X007320Y003811D01*
X007191Y003940D01*
X007009Y003940D01*
X006880Y003811D01*
X006880Y003629D01*
X006898Y003611D02*
X005268Y003611D01*
X005189Y003533D02*
X006976Y003533D01*
X007224Y003533D02*
X010199Y003533D01*
X010168Y003461D02*
X010168Y003461D01*
X010168Y003454D02*
X003990Y003454D01*
X003990Y003376D02*
X010165Y003376D01*
X010125Y003297D02*
X006169Y003297D01*
X006248Y003219D02*
X008642Y003219D01*
X008693Y003270D02*
X008570Y003147D01*
X008570Y002973D01*
X008693Y002850D01*
X008764Y002850D01*
X008980Y002634D01*
X009074Y002540D01*
X011766Y002540D01*
X011856Y002630D01*
X011927Y002630D01*
X012050Y002753D01*
X012050Y002927D01*
X011927Y003050D01*
X011753Y003050D01*
X011630Y002927D01*
X011630Y002860D01*
X009206Y002860D01*
X008990Y003076D01*
X008990Y003147D01*
X008867Y003270D01*
X008693Y003270D01*
X008918Y003219D02*
X010115Y003219D01*
X010115Y003140D02*
X008990Y003140D01*
X009005Y003062D02*
X010167Y003062D01*
X010325Y003200D02*
X010325Y003345D01*
X010489Y003376D02*
X012323Y003376D01*
X012245Y003454D02*
X010520Y003454D01*
X010589Y003533D02*
X012166Y003533D01*
X012088Y003611D02*
X011376Y003611D01*
X011515Y003690D02*
X012009Y003690D01*
X011931Y003768D02*
X011594Y003768D01*
X011655Y003847D02*
X011852Y003847D01*
X011774Y003925D02*
X011697Y003925D01*
X011687Y003887D02*
X011687Y003887D01*
X011366Y004004D02*
X005970Y004004D01*
X005970Y003925D02*
X006994Y003925D01*
X006915Y003847D02*
X005943Y003847D01*
X005865Y003768D02*
X006880Y003768D01*
X007206Y003925D02*
X011271Y003925D01*
X011215Y003740D02*
X010740Y003740D01*
X010486Y003847D02*
X007285Y003847D01*
X007320Y003768D02*
X010365Y003768D01*
X010283Y003690D02*
X007320Y003690D01*
X007302Y003611D02*
X010234Y003611D01*
X010525Y003297D02*
X012402Y003297D01*
X012480Y003219D02*
X010535Y003219D01*
X010535Y003140D02*
X012559Y003140D01*
X012637Y003062D02*
X010483Y003062D01*
X010325Y003345D02*
X010328Y003382D01*
X010334Y003419D01*
X010343Y003455D01*
X010356Y003491D01*
X010372Y003524D01*
X010391Y003557D01*
X010413Y003587D01*
X010438Y003615D01*
X010465Y003641D01*
X010494Y003664D01*
X010525Y003684D01*
X010558Y003702D01*
X010593Y003716D01*
X010629Y003727D01*
X010665Y003735D01*
X010703Y003739D01*
X010740Y003740D01*
X011396Y004082D02*
X005935Y004082D01*
X005856Y004161D02*
X011365Y004161D01*
X011575Y004200D02*
X011578Y004162D01*
X011577Y004124D01*
X011573Y004086D01*
X011565Y004049D01*
X011554Y004012D01*
X011540Y003977D01*
X011522Y003943D01*
X011502Y003911D01*
X011478Y003881D01*
X011452Y003853D01*
X011423Y003828D01*
X011392Y003805D01*
X011360Y003786D01*
X011325Y003769D01*
X011289Y003756D01*
X011253Y003746D01*
X011215Y003740D01*
X012148Y004004D02*
X016865Y004004D01*
X016865Y004062D02*
X016865Y003888D01*
X016988Y003765D01*
X017162Y003765D01*
X017285Y003888D01*
X017285Y004062D01*
X017162Y004185D01*
X016988Y004185D01*
X016865Y004062D01*
X016885Y004082D02*
X013239Y004082D01*
X013227Y004070D02*
X013350Y004193D01*
X013350Y004367D01*
X013227Y004490D01*
X013053Y004490D01*
X012930Y004367D01*
X012930Y004193D01*
X013053Y004070D01*
X013227Y004070D01*
X013317Y004161D02*
X016964Y004161D01*
X016891Y004255D02*
X017020Y004384D01*
X017020Y004566D01*
X016891Y004695D01*
X016709Y004695D01*
X016580Y004566D01*
X016580Y004384D01*
X016709Y004255D01*
X016891Y004255D01*
X016954Y004318D02*
X017500Y004318D01*
X017500Y004396D02*
X017020Y004396D01*
X017020Y004475D02*
X017500Y004475D01*
X017500Y004553D02*
X017020Y004553D01*
X016955Y004632D02*
X017500Y004632D01*
X017500Y004710D02*
X009185Y004710D01*
X009185Y004712D02*
X009062Y004835D01*
X008888Y004835D01*
X008765Y004712D01*
X008765Y004538D01*
X008888Y004415D01*
X009062Y004415D01*
X009185Y004538D01*
X009185Y004712D01*
X009185Y004632D02*
X016645Y004632D01*
X016580Y004553D02*
X009185Y004553D01*
X009121Y004475D02*
X013038Y004475D01*
X012959Y004396D02*
X011676Y004396D01*
X011834Y004318D02*
X012930Y004318D01*
X012930Y004239D02*
X011912Y004239D01*
X011991Y004161D02*
X012963Y004161D01*
X013041Y004082D02*
X012069Y004082D01*
X011725Y004200D02*
X013150Y002775D01*
X012940Y002748D02*
X012839Y002748D01*
X012840Y002826D02*
X012873Y002826D01*
X013175Y003150D02*
X013202Y003148D01*
X013229Y003143D01*
X013255Y003135D01*
X013280Y003124D01*
X013303Y003110D01*
X013324Y003093D01*
X013343Y003074D01*
X013360Y003053D01*
X013374Y003030D01*
X013385Y003005D01*
X013393Y002979D01*
X013398Y002952D01*
X013400Y002925D01*
X013400Y001100D01*
X006850Y001100D01*
X006601Y001021D02*
X006285Y001021D01*
X006285Y000963D02*
X006162Y000840D01*
X005988Y000840D01*
X005865Y000963D01*
X005865Y001137D01*
X005988Y001260D01*
X006162Y001260D01*
X006285Y001137D01*
X006285Y000963D01*
X006264Y000942D02*
X006737Y000942D01*
X006550Y001050D02*
X006550Y001050D01*
X006550Y001050D01*
X006521Y001099D02*
X006285Y001099D01*
X006244Y001178D02*
X006476Y001178D01*
X006397Y001256D02*
X006166Y001256D01*
X005984Y001256D02*
X005053Y001256D01*
X005037Y001240D02*
X005160Y001363D01*
X005160Y001537D01*
X005037Y001660D01*
X004863Y001660D01*
X004740Y001537D01*
X004740Y001363D01*
X004863Y001240D01*
X005037Y001240D01*
X005131Y001335D02*
X006390Y001335D01*
X006390Y001413D02*
X005160Y001413D01*
X005160Y001492D02*
X006445Y001492D01*
X006755Y001492D02*
X006842Y001492D01*
X006810Y001413D02*
X006921Y001413D01*
X006850Y001100D02*
X006820Y001102D01*
X006790Y001107D01*
X006761Y001116D01*
X006734Y001129D01*
X006708Y001144D01*
X006684Y001163D01*
X006663Y001184D01*
X006644Y001208D01*
X006629Y001234D01*
X006616Y001261D01*
X006607Y001290D01*
X006602Y001320D01*
X006600Y001350D01*
X006810Y001335D02*
X006980Y001335D01*
X007200Y001360D02*
X006500Y002060D01*
X006500Y002740D01*
X006100Y003140D01*
X005420Y003140D01*
X005200Y003140D02*
X003990Y003140D01*
X003990Y003062D02*
X005200Y003062D01*
X005266Y002983D02*
X003990Y002983D01*
X003990Y002905D02*
X006109Y002905D01*
X006188Y002826D02*
X003990Y002826D01*
X003990Y002748D02*
X006266Y002748D01*
X006158Y002669D02*
X003990Y002669D01*
X003959Y002591D02*
X006079Y002591D01*
X006040Y002512D02*
X003927Y002512D01*
X003894Y002434D02*
X006040Y002434D01*
X006054Y002355D02*
X003826Y002355D01*
X003887Y002416D02*
X003887Y002416D01*
X003747Y002277D02*
X006132Y002277D01*
X006340Y002198D02*
X003630Y002198D01*
X003696Y002225D02*
X003696Y002225D01*
X004270Y001887D02*
X004393Y002010D01*
X004567Y002010D01*
X004690Y001887D01*
X004690Y001713D01*
X004567Y001590D01*
X004393Y001590D01*
X004270Y001713D01*
X004270Y001887D01*
X004270Y001884D02*
X001738Y001884D01*
X001738Y001883D02*
X001527Y002095D01*
X001250Y002210D01*
X000950Y002210D01*
X000673Y002095D01*
X000462Y001883D01*
X000347Y001606D01*
X000347Y001307D01*
X000462Y001030D01*
X000673Y000818D01*
X000950Y000703D01*
X001250Y000703D01*
X001527Y000818D01*
X001738Y001030D01*
X001853Y001307D01*
X001853Y001606D01*
X001738Y001883D01*
X001771Y001806D02*
X004270Y001806D01*
X004270Y001727D02*
X001803Y001727D01*
X001836Y001649D02*
X004335Y001649D01*
X004625Y001649D02*
X004852Y001649D01*
X004773Y001570D02*
X001853Y001570D01*
X001853Y001492D02*
X004740Y001492D01*
X004740Y001413D02*
X001853Y001413D01*
X001853Y001335D02*
X004769Y001335D01*
X004847Y001256D02*
X001832Y001256D01*
X001800Y001178D02*
X005906Y001178D01*
X005865Y001099D02*
X001767Y001099D01*
X001729Y001021D02*
X005865Y001021D01*
X005886Y000942D02*
X001650Y000942D01*
X001572Y000864D02*
X005965Y000864D01*
X006185Y000864D02*
X014720Y000864D01*
X014710Y000873D02*
X014833Y000750D01*
X015007Y000750D01*
X015130Y000873D01*
X015130Y001047D01*
X015007Y001170D01*
X014833Y001170D01*
X014710Y001047D01*
X014710Y000873D01*
X014710Y000942D02*
X013539Y000942D01*
X013610Y001021D02*
X014710Y001021D01*
X014762Y001099D02*
X013610Y001099D01*
X013610Y001178D02*
X017500Y001178D01*
X017500Y001256D02*
X013560Y001256D01*
X013560Y001335D02*
X017500Y001335D01*
X017500Y001413D02*
X013560Y001413D01*
X013560Y001492D02*
X017500Y001492D01*
X017500Y001570D02*
X013560Y001570D01*
X013560Y001649D02*
X017500Y001649D01*
X017500Y001727D02*
X013560Y001727D01*
X013560Y001806D02*
X017500Y001806D01*
X017500Y001884D02*
X013560Y001884D01*
X013560Y001963D02*
X017500Y001963D01*
X017500Y002041D02*
X013560Y002041D01*
X013560Y002120D02*
X017500Y002120D01*
X017500Y002198D02*
X015999Y002198D01*
X015991Y002189D02*
X016086Y002284D01*
X016137Y002408D01*
X016137Y002542D01*
X016086Y002666D01*
X015991Y002761D01*
X015867Y002812D01*
X015733Y002812D01*
X015609Y002761D01*
X015514Y002666D01*
X015463Y002542D01*
X015463Y002408D01*
X015514Y002284D01*
X015609Y002189D01*
X015733Y002138D01*
X015867Y002138D01*
X015991Y002189D01*
X016078Y002277D02*
X017500Y002277D01*
X017500Y002355D02*
X016115Y002355D01*
X016137Y002434D02*
X017500Y002434D01*
X017500Y002512D02*
X016137Y002512D01*
X016117Y002591D02*
X017500Y002591D01*
X017500Y002669D02*
X016082Y002669D01*
X016004Y002748D02*
X017500Y002748D01*
X017500Y002826D02*
X014446Y002826D01*
X014387Y002885D02*
X014213Y002885D01*
X014090Y002762D01*
X014090Y002588D01*
X014213Y002465D01*
X014387Y002465D01*
X014510Y002588D01*
X014510Y002762D01*
X014387Y002885D01*
X014154Y002826D02*
X013560Y002826D01*
X013560Y002748D02*
X014090Y002748D01*
X014090Y002669D02*
X013560Y002669D01*
X013560Y002591D02*
X014090Y002591D01*
X014166Y002512D02*
X013560Y002512D01*
X013560Y002434D02*
X015463Y002434D01*
X015463Y002512D02*
X014434Y002512D01*
X014510Y002591D02*
X015483Y002591D01*
X015518Y002669D02*
X014510Y002669D01*
X014510Y002748D02*
X015596Y002748D01*
X015485Y002355D02*
X013560Y002355D01*
X013560Y002277D02*
X015522Y002277D01*
X015601Y002198D02*
X013560Y002198D01*
X013240Y002198D02*
X006660Y002198D01*
X006660Y002277D02*
X013240Y002277D01*
X013240Y002355D02*
X006660Y002355D01*
X006660Y002434D02*
X013240Y002434D01*
X013240Y002512D02*
X006660Y002512D01*
X006660Y002591D02*
X009023Y002591D01*
X008945Y002669D02*
X006660Y002669D01*
X006660Y002748D02*
X008866Y002748D01*
X008788Y002826D02*
X006640Y002826D01*
X006562Y002905D02*
X008639Y002905D01*
X008570Y002983D02*
X006483Y002983D01*
X006405Y003062D02*
X008570Y003062D01*
X008570Y003140D02*
X006326Y003140D01*
X005266Y003297D02*
X003990Y003297D01*
X003990Y003219D02*
X005200Y003219D01*
X004971Y003533D02*
X003990Y003533D01*
X003990Y003611D02*
X004892Y003611D01*
X004870Y003690D02*
X003990Y003690D01*
X003990Y003768D02*
X004870Y003768D01*
X004910Y003847D02*
X003990Y003847D01*
X003990Y003925D02*
X004988Y003925D01*
X006532Y004396D02*
X011474Y004396D01*
X011575Y004200D02*
X011725Y004200D01*
X012226Y003925D02*
X016865Y003925D01*
X016907Y003847D02*
X012305Y003847D01*
X012383Y003768D02*
X016985Y003768D01*
X016872Y003690D02*
X017500Y003690D01*
X017500Y003768D02*
X017165Y003768D01*
X017243Y003847D02*
X017500Y003847D01*
X017500Y003925D02*
X017285Y003925D01*
X017285Y004004D02*
X017500Y004004D01*
X017500Y004082D02*
X017265Y004082D01*
X017186Y004161D02*
X017500Y004161D01*
X017500Y004239D02*
X013350Y004239D01*
X013350Y004318D02*
X016646Y004318D01*
X016580Y004396D02*
X013321Y004396D01*
X013242Y004475D02*
X016580Y004475D01*
X017500Y004789D02*
X014860Y004789D01*
X014837Y004765D02*
X014960Y004888D01*
X014960Y005062D01*
X014837Y005185D01*
X014663Y005185D01*
X014540Y005062D01*
X014540Y004888D01*
X014663Y004765D01*
X014837Y004765D01*
X014939Y004867D02*
X017500Y004867D01*
X017500Y004946D02*
X014960Y004946D01*
X014960Y005024D02*
X017500Y005024D01*
X017500Y005103D02*
X014919Y005103D01*
X014841Y005181D02*
X015230Y005181D01*
X015209Y005189D02*
X015333Y005138D01*
X015467Y005138D01*
X015591Y005189D01*
X015686Y005284D01*
X015737Y005408D01*
X015737Y005542D01*
X015686Y005666D01*
X015591Y005761D01*
X015467Y005812D01*
X015333Y005812D01*
X015209Y005761D01*
X015114Y005666D01*
X015063Y005542D01*
X015063Y005408D01*
X015114Y005284D01*
X015209Y005189D01*
X015139Y005260D02*
X005720Y005260D01*
X005720Y005338D02*
X015092Y005338D01*
X015063Y005417D02*
X005720Y005417D01*
X005720Y005495D02*
X015063Y005495D01*
X015076Y005574D02*
X005720Y005574D01*
X005720Y005652D02*
X015109Y005652D01*
X015179Y005731D02*
X005720Y005731D01*
X005720Y005809D02*
X010644Y005809D01*
X010590Y005863D02*
X010713Y005740D01*
X010887Y005740D01*
X011010Y005863D01*
X011010Y006037D01*
X010887Y006160D01*
X010713Y006160D01*
X010590Y006037D01*
X010590Y005863D01*
X010590Y005888D02*
X005720Y005888D01*
X005720Y005966D02*
X010590Y005966D01*
X010598Y006045D02*
X005720Y006045D01*
X005683Y006123D02*
X010676Y006123D01*
X010924Y006123D02*
X011201Y006123D01*
X011238Y006160D02*
X011115Y006037D01*
X011115Y005863D01*
X011238Y005740D01*
X011412Y005740D01*
X011535Y005863D01*
X011535Y006037D01*
X011412Y006160D01*
X011238Y006160D01*
X011123Y006045D02*
X011002Y006045D01*
X011010Y005966D02*
X011115Y005966D01*
X011115Y005888D02*
X011010Y005888D01*
X010956Y005809D02*
X011169Y005809D01*
X011481Y005809D02*
X015326Y005809D01*
X015474Y005809D02*
X016126Y005809D01*
X016133Y005812D02*
X016009Y005761D01*
X015914Y005666D01*
X015863Y005542D01*
X015863Y005408D01*
X015914Y005284D01*
X016009Y005189D01*
X016133Y005138D01*
X016267Y005138D01*
X016391Y005189D01*
X016486Y005284D01*
X016537Y005408D01*
X016537Y005542D01*
X016486Y005666D01*
X016391Y005761D01*
X016267Y005812D01*
X016133Y005812D01*
X016274Y005809D02*
X017500Y005809D01*
X017500Y005731D02*
X016421Y005731D01*
X016491Y005652D02*
X017500Y005652D01*
X017500Y005574D02*
X016524Y005574D01*
X016537Y005495D02*
X017500Y005495D01*
X017500Y005417D02*
X016537Y005417D01*
X016508Y005338D02*
X017500Y005338D01*
X017500Y005260D02*
X016461Y005260D01*
X016370Y005181D02*
X017500Y005181D01*
X016030Y005181D02*
X015570Y005181D01*
X015661Y005260D02*
X015939Y005260D01*
X015892Y005338D02*
X015708Y005338D01*
X015737Y005417D02*
X015863Y005417D01*
X015863Y005495D02*
X015737Y005495D01*
X015724Y005574D02*
X015876Y005574D01*
X015909Y005652D02*
X015691Y005652D01*
X015621Y005731D02*
X015979Y005731D01*
X014659Y005181D02*
X005790Y005181D01*
X005872Y005103D02*
X014581Y005103D01*
X014540Y005024D02*
X005954Y005024D01*
X006035Y004946D02*
X014540Y004946D01*
X014561Y004867D02*
X006204Y004867D01*
X006280Y004789D02*
X006302Y004789D01*
X006498Y004789D02*
X008842Y004789D01*
X008765Y004710D02*
X006576Y004710D01*
X006620Y004632D02*
X008765Y004632D01*
X008765Y004553D02*
X006620Y004553D01*
X006611Y004475D02*
X008829Y004475D01*
X009108Y004789D02*
X014639Y004789D01*
X016555Y003566D02*
X016684Y003695D01*
X016866Y003695D01*
X016995Y003566D01*
X016995Y003384D01*
X016866Y003255D01*
X016684Y003255D01*
X016555Y003384D01*
X016555Y003566D01*
X016555Y003533D02*
X012619Y003533D01*
X012540Y003611D02*
X016600Y003611D01*
X016678Y003690D02*
X012462Y003690D01*
X012697Y003454D02*
X016555Y003454D01*
X016563Y003376D02*
X012776Y003376D01*
X012854Y003297D02*
X013000Y003297D01*
X012940Y003219D02*
X012933Y003219D01*
X013150Y003150D02*
X013175Y003150D01*
X013437Y003219D02*
X017500Y003219D01*
X017500Y003297D02*
X016908Y003297D01*
X016987Y003376D02*
X017500Y003376D01*
X017500Y003454D02*
X016995Y003454D01*
X016995Y003533D02*
X017500Y003533D01*
X017500Y003611D02*
X016950Y003611D01*
X016642Y003297D02*
X013301Y003297D01*
X013495Y003140D02*
X017500Y003140D01*
X017500Y003062D02*
X013541Y003062D01*
X013560Y002983D02*
X017500Y002983D01*
X017500Y002905D02*
X013560Y002905D01*
X012959Y002669D02*
X012760Y002669D01*
X012480Y002669D02*
X011966Y002669D01*
X012044Y002748D02*
X012401Y002748D01*
X012400Y002826D02*
X012050Y002826D01*
X012050Y002905D02*
X012400Y002905D01*
X012452Y002983D02*
X011994Y002983D01*
X011686Y002983D02*
X009083Y002983D01*
X009162Y002905D02*
X011630Y002905D01*
X011700Y002700D02*
X011840Y002840D01*
X011700Y002700D02*
X009140Y002700D01*
X008780Y003060D01*
X006667Y002120D02*
X013240Y002120D01*
X013240Y002041D02*
X006745Y002041D01*
X006824Y001963D02*
X009596Y001963D01*
X009540Y001907D02*
X009540Y001733D01*
X009663Y001610D01*
X009837Y001610D01*
X009960Y001733D01*
X009960Y001907D01*
X009837Y002030D01*
X009663Y002030D01*
X009540Y001907D01*
X009540Y001884D02*
X006902Y001884D01*
X006981Y001806D02*
X009540Y001806D01*
X009546Y001727D02*
X007059Y001727D01*
X007138Y001649D02*
X009625Y001649D01*
X009875Y001649D02*
X013240Y001649D01*
X013240Y001727D02*
X009954Y001727D01*
X009960Y001806D02*
X013240Y001806D01*
X013240Y001884D02*
X009960Y001884D01*
X009904Y001963D02*
X013240Y001963D01*
X013240Y001570D02*
X007827Y001570D01*
X007905Y001492D02*
X013240Y001492D01*
X013240Y001413D02*
X007910Y001413D01*
X007910Y001335D02*
X013240Y001335D01*
X014798Y000785D02*
X001447Y000785D01*
X001257Y000707D02*
X017500Y000707D01*
X017500Y000785D02*
X015042Y000785D01*
X015120Y000864D02*
X017500Y000864D01*
X017500Y000942D02*
X015130Y000942D01*
X015130Y001021D02*
X017500Y001021D01*
X017500Y001099D02*
X015078Y001099D01*
X017500Y000628D02*
X003929Y000628D01*
X003907Y000650D02*
X003733Y000650D01*
X003610Y000527D01*
X003610Y000353D01*
X003733Y000230D01*
X003907Y000230D01*
X004030Y000353D01*
X004030Y000527D01*
X003907Y000650D01*
X004007Y000550D02*
X017500Y000550D01*
X017500Y000471D02*
X004030Y000471D01*
X004030Y000393D02*
X017500Y000393D01*
X017500Y000314D02*
X003991Y000314D01*
X003912Y000236D02*
X017500Y000236D01*
X013038Y002591D02*
X011817Y002591D01*
X007573Y001570D02*
X007301Y001570D01*
X007380Y001492D02*
X007495Y001492D01*
X007490Y001413D02*
X007420Y001413D01*
X007420Y001335D02*
X007490Y001335D01*
X006764Y001570D02*
X005127Y001570D01*
X005048Y001649D02*
X006685Y001649D01*
X006607Y001727D02*
X004690Y001727D01*
X004690Y001806D02*
X006528Y001806D01*
X006450Y001884D02*
X004690Y001884D01*
X004614Y001963D02*
X006371Y001963D01*
X006340Y002041D02*
X002275Y002041D01*
X002354Y002120D02*
X006340Y002120D01*
X004346Y001963D02*
X001659Y001963D01*
X001581Y002041D02*
X001814Y002041D01*
X001736Y002120D02*
X001467Y002120D01*
X001278Y002198D02*
X001691Y002198D01*
X001658Y002277D02*
X000220Y002277D01*
X000220Y002355D02*
X001655Y002355D01*
X001655Y002434D02*
X000220Y002434D01*
X000220Y002512D02*
X000955Y002512D01*
X000820Y002591D02*
X000220Y002591D01*
X000220Y002669D02*
X000751Y002669D01*
X000719Y002748D02*
X000220Y002748D01*
X000220Y002826D02*
X000704Y002826D01*
X000704Y002905D02*
X000220Y002905D01*
X000220Y002983D02*
X000728Y002983D01*
X000764Y003062D02*
X000220Y003062D01*
X000220Y003140D02*
X000842Y003140D01*
X001417Y002826D02*
X003510Y002826D01*
X003500Y002748D02*
X002133Y002748D01*
X002289Y002669D02*
X003456Y002669D01*
X001956Y002748D02*
X001402Y002748D01*
X001370Y002669D02*
X001800Y002669D01*
X001722Y002591D02*
X001301Y002591D01*
X001166Y002512D02*
X001685Y002512D01*
X000922Y002198D02*
X000220Y002198D01*
X000220Y002120D02*
X000733Y002120D01*
X000619Y002041D02*
X000220Y002041D01*
X000220Y001963D02*
X000541Y001963D01*
X000462Y001884D02*
X000220Y001884D01*
X000220Y001806D02*
X000429Y001806D01*
X000397Y001727D02*
X000220Y001727D01*
X000220Y001649D02*
X000364Y001649D01*
X000347Y001570D02*
X000220Y001570D01*
X000220Y001492D02*
X000347Y001492D01*
X000347Y001413D02*
X000220Y001413D01*
X000220Y001335D02*
X000347Y001335D01*
X000368Y001256D02*
X000220Y001256D01*
X000220Y001178D02*
X000400Y001178D01*
X000433Y001099D02*
X000220Y001099D01*
X000220Y001021D02*
X000471Y001021D01*
X000550Y000942D02*
X000220Y000942D01*
X000220Y000864D02*
X000628Y000864D01*
X000753Y000785D02*
X000220Y000785D01*
X000220Y000707D02*
X000943Y000707D01*
X000220Y000628D02*
X003711Y000628D01*
X003633Y000550D02*
X000220Y000550D01*
X000220Y000471D02*
X003610Y000471D01*
X003610Y000393D02*
X000220Y000393D01*
X000220Y000314D02*
X003649Y000314D01*
X003728Y000236D02*
X000220Y000236D01*
X000220Y003690D02*
X003510Y003690D01*
X003510Y003768D02*
X000220Y003768D01*
X000220Y004318D02*
X000873Y004318D01*
X000786Y004396D02*
X000220Y004396D01*
X000220Y004475D02*
X000737Y004475D01*
X000705Y004553D02*
X000220Y004553D01*
X000220Y004632D02*
X000704Y004632D01*
X000710Y004710D02*
X000220Y004710D01*
X000220Y004789D02*
X000742Y004789D01*
X000798Y004867D02*
X000220Y004867D01*
X000220Y004946D02*
X000901Y004946D01*
X001221Y004946D02*
X001673Y004946D01*
X001645Y005024D02*
X000220Y005024D01*
X000220Y005103D02*
X002005Y005103D01*
X002005Y005024D02*
X002085Y005024D01*
X002085Y004946D02*
X002005Y004946D01*
X002005Y004867D02*
X002085Y004867D01*
X002085Y004789D02*
X002005Y004789D01*
X001801Y004789D02*
X001379Y004789D01*
X001324Y004867D02*
X001720Y004867D01*
X001640Y005181D02*
X000220Y005181D01*
X002208Y005495D02*
X003813Y005495D01*
X003798Y005489D02*
X003798Y005489D01*
X003726Y005417D02*
X002326Y005417D01*
X002392Y005338D02*
X003648Y005338D01*
X003594Y005260D02*
X002430Y005260D01*
X002450Y005181D02*
X003561Y005181D01*
X004020Y005024D02*
X005490Y005024D01*
X005410Y005103D02*
X005120Y005103D01*
X005082Y005065D02*
X004908Y005065D01*
X004785Y005188D01*
X004785Y005362D01*
X004908Y005485D01*
X005082Y005485D01*
X005205Y005362D01*
X005205Y005188D01*
X005082Y005065D01*
X004870Y005103D02*
X004129Y005103D01*
X004345Y005181D02*
X004792Y005181D01*
X004785Y005260D02*
X004405Y005260D01*
X004415Y005338D02*
X004785Y005338D01*
X004840Y005417D02*
X004407Y005417D01*
X004369Y005495D02*
X005400Y005495D01*
X005400Y005417D02*
X005150Y005417D01*
X005205Y005338D02*
X005400Y005338D01*
X005400Y005260D02*
X005205Y005260D01*
X005198Y005181D02*
X005400Y005181D01*
X005560Y005180D02*
X005560Y006020D01*
X005340Y006240D01*
X005560Y006280D02*
X017500Y006280D01*
X017500Y006202D02*
X005605Y006202D01*
X005533Y006359D02*
X017500Y006359D01*
X017500Y006437D02*
X005768Y006437D01*
X005840Y006516D02*
X017500Y006516D01*
X017500Y006594D02*
X005840Y006594D01*
X005840Y006673D02*
X017500Y006673D01*
X017500Y006751D02*
X005780Y006751D01*
X005472Y006437D02*
X005454Y006437D01*
X005560Y005180D02*
X006060Y004700D01*
X005840Y004632D02*
X003990Y004632D01*
X003990Y004710D02*
X005819Y004710D01*
X005737Y004789D02*
X003990Y004789D01*
X003990Y004867D02*
X005655Y004867D01*
X005573Y004946D02*
X003992Y004946D01*
X003990Y004553D02*
X005896Y004553D01*
X011449Y006123D02*
X017500Y006123D01*
X017500Y006045D02*
X011527Y006045D01*
X011535Y005966D02*
X017500Y005966D01*
X017500Y005888D02*
X011535Y005888D01*
D15*
X004175Y005350D02*
X004136Y005348D01*
X004097Y005343D01*
X004059Y005334D01*
X004021Y005321D01*
X003986Y005305D01*
X003951Y005286D01*
X003919Y005264D01*
X003889Y005239D01*
X003861Y005211D01*
X003836Y005181D01*
X003814Y005149D01*
X003795Y005114D01*
X003779Y005079D01*
X003766Y005041D01*
X003757Y005003D01*
X003752Y004964D01*
X003750Y004925D01*
X003750Y002800D01*
X003748Y002760D01*
X003743Y002720D01*
X003733Y002680D01*
X003720Y002642D01*
X003704Y002605D01*
X003684Y002569D01*
X003662Y002536D01*
X003636Y002505D01*
X003607Y002476D01*
X003576Y002450D01*
X003543Y002428D01*
X003507Y002408D01*
X003470Y002392D01*
X003432Y002379D01*
X003392Y002369D01*
X003352Y002364D01*
X003312Y002362D01*
X002045Y002362D01*
D16*
X004175Y005350D03*
M02*
