%
M48
M72
T01C0.0100
T02C0.0120
T03C0.0140
T04C0.0360
T05C0.0394
T06C0.0433
T07C0.0866
%
T01
X3820Y440
X6075Y1050
X6600Y1350
X7700Y1400
X9750Y1820
X11840Y2840
X13150Y2775
X14300Y2675
X13150Y3150
X10325Y3200
X8780Y3060
X5760Y3960
X5080Y3720
X8975Y4625
X11575Y4200
X13140Y4280
X14750Y4975
X17075Y3975
X11325Y5950
X10800Y5950
X4995Y5275
X4480Y1800
X4950Y1450
X13400Y1100
X14920Y960
T02
X1900Y700
X3610Y700
X4700Y1175
X4880Y1795
X6260Y2460
X5420Y3140
X5700Y3375
X6250Y3375
X6800Y3375
X7100Y3720
X6400Y4575
X6060Y4700
X9300Y5450
X12225Y5200
X14400Y5620
X16800Y4475
X16525Y4225
X16785Y3970
X16525Y3750
X16775Y3475
X12830Y3435
X12340Y3250
X11200Y2950
X12620Y2840
X11000Y3400
X12405Y3850
X11985Y4275
X8650Y2100
X7200Y1360
X6900Y1335
X15450Y900
X16150Y1575
X5340Y6240
X5620Y6600
X4700Y6750
X2550Y6750
X6950Y6800
X9300Y6800
X11950Y6800
X14400Y6800
X16650Y6800
T03
X4175Y5350
T04
X2045Y5118
X2045Y4184
X2045Y3296
X2045Y2362
T05
X15400Y5475
X16200Y5475
X15800Y2475
T06
X1061Y2854
X1061Y4626
T07
X1100Y6023
X1100Y1457
M30
