G75*
%MOIN*%
%OFA0B0*%
%FSLAX24Y24*%
%IPPOS*%
%LPD*%
%AMOC8*
5,1,8,0,0,1.08239X$1,22.5*
%
%ADD10C,0.0390*%
%ADD11C,0.0474*%
%ADD12C,0.0820*%
%ADD13C,0.1346*%
%ADD14C,0.0513*%
%ADD15R,0.0320X0.0950*%
%ADD16C,0.0500*%
%ADD17R,0.0395X0.0395*%
%ADD18R,0.0138X0.0177*%
%ADD19R,0.0178X0.0277*%
%ADD20R,0.0710X0.0434*%
%ADD21R,0.0356X0.0434*%
%ADD22R,0.0276X0.0236*%
%ADD23R,0.0177X0.0138*%
%ADD24R,0.0474X0.0513*%
%ADD25R,0.0236X0.0276*%
D10*
X015550Y002975D03*
X015550Y002975D03*
X015550Y002975D03*
X016050Y002975D03*
X016050Y003475D03*
X015550Y003475D03*
X015550Y003975D03*
X016050Y003975D03*
X016050Y004475D03*
X015550Y004475D03*
X015550Y004975D03*
X016050Y004975D03*
D11*
X003125Y000850D03*
X015800Y002475D03*
X016800Y000850D03*
X016200Y005475D03*
X015400Y005475D03*
X003150Y006300D03*
D12*
X002045Y005118D03*
X002045Y004184D03*
X002045Y003296D03*
X002045Y002362D03*
D13*
X001100Y001457D03*
X001100Y006023D03*
D14*
X001061Y004626D03*
X001061Y002854D03*
D15*
X004250Y002520D03*
X004750Y002520D03*
X005250Y002520D03*
X005750Y002520D03*
X006750Y002520D03*
X007250Y002520D03*
X007750Y002520D03*
X008250Y002520D03*
X009300Y002570D03*
X009800Y002570D03*
X010300Y002570D03*
X010800Y002570D03*
X008250Y004580D03*
X007750Y004580D03*
X007250Y004580D03*
X006750Y004580D03*
X005750Y004580D03*
X005250Y004580D03*
X004750Y004580D03*
X004250Y004580D03*
X009300Y004630D03*
X009800Y004630D03*
X010300Y004630D03*
X010800Y004630D03*
D16*
X002796Y006300D02*
X002798Y006337D01*
X002804Y006374D01*
X002813Y006409D01*
X002827Y006444D01*
X002843Y006477D01*
X002864Y006508D01*
X002887Y006537D01*
X002913Y006563D01*
X002942Y006586D01*
X002973Y006607D01*
X003006Y006623D01*
X003041Y006637D01*
X003076Y006646D01*
X003113Y006652D01*
X003150Y006654D01*
X003187Y006652D01*
X003224Y006646D01*
X003259Y006637D01*
X003294Y006623D01*
X003327Y006607D01*
X003358Y006586D01*
X003387Y006563D01*
X003413Y006537D01*
X003436Y006508D01*
X003457Y006477D01*
X003473Y006444D01*
X003487Y006409D01*
X003496Y006374D01*
X003502Y006337D01*
X003504Y006300D01*
X003502Y006263D01*
X003496Y006226D01*
X003487Y006191D01*
X003473Y006156D01*
X003457Y006123D01*
X003436Y006092D01*
X003413Y006063D01*
X003387Y006037D01*
X003358Y006014D01*
X003327Y005993D01*
X003294Y005977D01*
X003259Y005963D01*
X003224Y005954D01*
X003187Y005948D01*
X003150Y005946D01*
X003113Y005948D01*
X003076Y005954D01*
X003041Y005963D01*
X003006Y005977D01*
X002973Y005993D01*
X002942Y006014D01*
X002913Y006037D01*
X002887Y006063D01*
X002864Y006092D01*
X002843Y006123D01*
X002827Y006156D01*
X002813Y006191D01*
X002804Y006226D01*
X002798Y006263D01*
X002796Y006300D01*
X002771Y000850D02*
X002773Y000887D01*
X002779Y000924D01*
X002788Y000959D01*
X002802Y000994D01*
X002818Y001027D01*
X002839Y001058D01*
X002862Y001087D01*
X002888Y001113D01*
X002917Y001136D01*
X002948Y001157D01*
X002981Y001173D01*
X003016Y001187D01*
X003051Y001196D01*
X003088Y001202D01*
X003125Y001204D01*
X003162Y001202D01*
X003199Y001196D01*
X003234Y001187D01*
X003269Y001173D01*
X003302Y001157D01*
X003333Y001136D01*
X003362Y001113D01*
X003388Y001087D01*
X003411Y001058D01*
X003432Y001027D01*
X003448Y000994D01*
X003462Y000959D01*
X003471Y000924D01*
X003477Y000887D01*
X003479Y000850D01*
X003477Y000813D01*
X003471Y000776D01*
X003462Y000741D01*
X003448Y000706D01*
X003432Y000673D01*
X003411Y000642D01*
X003388Y000613D01*
X003362Y000587D01*
X003333Y000564D01*
X003302Y000543D01*
X003269Y000527D01*
X003234Y000513D01*
X003199Y000504D01*
X003162Y000498D01*
X003125Y000496D01*
X003088Y000498D01*
X003051Y000504D01*
X003016Y000513D01*
X002981Y000527D01*
X002948Y000543D01*
X002917Y000564D01*
X002888Y000587D01*
X002862Y000613D01*
X002839Y000642D01*
X002818Y000673D01*
X002802Y000706D01*
X002788Y000741D01*
X002779Y000776D01*
X002773Y000813D01*
X002771Y000850D01*
X016446Y000850D02*
X016448Y000887D01*
X016454Y000924D01*
X016463Y000959D01*
X016477Y000994D01*
X016493Y001027D01*
X016514Y001058D01*
X016537Y001087D01*
X016563Y001113D01*
X016592Y001136D01*
X016623Y001157D01*
X016656Y001173D01*
X016691Y001187D01*
X016726Y001196D01*
X016763Y001202D01*
X016800Y001204D01*
X016837Y001202D01*
X016874Y001196D01*
X016909Y001187D01*
X016944Y001173D01*
X016977Y001157D01*
X017008Y001136D01*
X017037Y001113D01*
X017063Y001087D01*
X017086Y001058D01*
X017107Y001027D01*
X017123Y000994D01*
X017137Y000959D01*
X017146Y000924D01*
X017152Y000887D01*
X017154Y000850D01*
X017152Y000813D01*
X017146Y000776D01*
X017137Y000741D01*
X017123Y000706D01*
X017107Y000673D01*
X017086Y000642D01*
X017063Y000613D01*
X017037Y000587D01*
X017008Y000564D01*
X016977Y000543D01*
X016944Y000527D01*
X016909Y000513D01*
X016874Y000504D01*
X016837Y000498D01*
X016800Y000496D01*
X016763Y000498D01*
X016726Y000504D01*
X016691Y000513D01*
X016656Y000527D01*
X016623Y000543D01*
X016592Y000564D01*
X016563Y000587D01*
X016537Y000613D01*
X016514Y000642D01*
X016493Y000673D01*
X016477Y000706D01*
X016463Y000741D01*
X016454Y000776D01*
X016448Y000813D01*
X016446Y000850D01*
D17*
X010395Y000700D03*
X009805Y000700D03*
X007795Y000680D03*
X007205Y000680D03*
X005270Y000735D03*
X004680Y000735D03*
X002975Y001530D03*
X002975Y002120D03*
X013705Y003170D03*
X014295Y003170D03*
X014295Y003995D03*
X013705Y003995D03*
D18*
X014597Y003175D03*
X014853Y003175D03*
X009448Y000700D03*
X009192Y000700D03*
X006853Y000725D03*
X006597Y000725D03*
X004348Y000735D03*
X004092Y000735D03*
X004997Y005525D03*
X005253Y005525D03*
X005497Y005525D03*
X005753Y005525D03*
D19*
X003370Y004174D03*
X003173Y004174D03*
X002977Y004174D03*
X002780Y004174D03*
X002780Y003426D03*
X002977Y003426D03*
X003173Y003426D03*
X003370Y003426D03*
D20*
X003075Y003800D03*
D21*
X002969Y002800D03*
X003481Y002800D03*
D22*
X002500Y001517D03*
X002500Y001083D03*
D23*
X005985Y001347D03*
X006300Y001353D03*
X006300Y001097D03*
X005985Y001603D03*
X013700Y002572D03*
X013700Y002828D03*
X017075Y003472D03*
X017075Y003728D03*
X017075Y004222D03*
X017075Y004478D03*
X014450Y004722D03*
X014450Y004978D03*
X013700Y004603D03*
X013700Y004347D03*
D24*
X003620Y002110D03*
X003620Y001440D03*
D25*
X003167Y004685D03*
X002733Y004685D03*
X003158Y005350D03*
X003592Y005350D03*
M02*
