G75*
%MOIN*%
%OFA0B0*%
%FSLAX24Y24*%
%IPPOS*%
%LPD*%
%AMOC8*
5,1,8,0,0,1.08239X$1,22.5*
%
%ADD10C,0.0310*%
%ADD11C,0.0740*%
%ADD12C,0.1266*%
%ADD13R,0.0240X0.0870*%
%ADD14C,0.0394*%
%ADD15R,0.0315X0.0315*%
%ADD16R,0.0098X0.0138*%
%ADD17R,0.0098X0.0197*%
%ADD18R,0.0630X0.0354*%
%ADD19R,0.0276X0.0354*%
%ADD20R,0.0236X0.0197*%
%ADD21R,0.0138X0.0098*%
%ADD22R,0.0394X0.0433*%
%ADD23R,0.0197X0.0236*%
%ADD24C,0.0180*%
%ADD25C,0.0080*%
%ADD26C,0.0200*%
%ADD27C,0.0160*%
%ADD28C,0.0100*%
%ADD29C,0.0120*%
%ADD30C,0.0220*%
D10*
X015550Y002975D03*
X015550Y002975D03*
X015550Y002975D03*
X016050Y002975D03*
X016050Y003475D03*
X015550Y003475D03*
X015550Y003975D03*
X016050Y003975D03*
X016050Y004475D03*
X015550Y004475D03*
X015550Y004975D03*
X016050Y004975D03*
D11*
X002045Y005118D03*
X002045Y004184D03*
X002045Y003296D03*
X002045Y002362D03*
D12*
X001100Y001457D03*
X001100Y006023D03*
D13*
X004250Y004580D03*
X004750Y004580D03*
X005250Y004580D03*
X005750Y004580D03*
X006750Y004580D03*
X007250Y004580D03*
X007750Y004580D03*
X008250Y004580D03*
X009300Y004630D03*
X009800Y004630D03*
X010300Y004630D03*
X010800Y004630D03*
X010800Y002570D03*
X010300Y002570D03*
X009800Y002570D03*
X009300Y002570D03*
X008250Y002520D03*
X007750Y002520D03*
X007250Y002520D03*
X006750Y002520D03*
X005750Y002520D03*
X005250Y002520D03*
X004750Y002520D03*
X004250Y002520D03*
D14*
X003125Y000850D03*
X016800Y000850D03*
X003150Y006300D03*
D15*
X013705Y003995D03*
X014295Y003995D03*
X014295Y003170D03*
X013705Y003170D03*
X010395Y000700D03*
X009805Y000700D03*
X007795Y000680D03*
X007205Y000680D03*
X005270Y000735D03*
X004680Y000735D03*
X002975Y001530D03*
X002975Y002120D03*
D16*
X004092Y000735D03*
X004348Y000735D03*
X006597Y000725D03*
X006853Y000725D03*
X009192Y000700D03*
X009448Y000700D03*
X014597Y003175D03*
X014853Y003175D03*
X005753Y005525D03*
X005497Y005525D03*
X005253Y005525D03*
X004997Y005525D03*
D17*
X003370Y004174D03*
X003173Y004174D03*
X002977Y004174D03*
X002780Y004174D03*
X002780Y003426D03*
X002977Y003426D03*
X003173Y003426D03*
X003370Y003426D03*
D18*
X003075Y003800D03*
D19*
X002969Y002800D03*
X003481Y002800D03*
D20*
X002500Y001517D03*
X002500Y001083D03*
D21*
X005985Y001347D03*
X006300Y001353D03*
X006300Y001097D03*
X005985Y001603D03*
X013700Y002572D03*
X013700Y002828D03*
X017075Y003472D03*
X017075Y003728D03*
X017075Y004222D03*
X017075Y004478D03*
X014450Y004722D03*
X014450Y004978D03*
X013700Y004603D03*
X013700Y004347D03*
D22*
X003620Y002110D03*
X003620Y001440D03*
D23*
X003167Y004685D03*
X002733Y004685D03*
X003158Y005350D03*
X003592Y005350D03*
D24*
X004995Y005275D03*
X008975Y004625D03*
X011575Y004200D03*
X013140Y004280D03*
X014750Y004975D03*
X017075Y003975D03*
X014300Y002675D03*
X013150Y002775D03*
X013150Y003150D03*
X011840Y002840D03*
X010325Y003200D03*
X008780Y003060D03*
X005760Y003960D03*
X005080Y003720D03*
X004480Y001800D03*
X004950Y001450D03*
X006075Y001050D03*
X006600Y001350D03*
X007700Y001400D03*
X009750Y001820D03*
X013400Y001100D03*
X014920Y000960D03*
X003820Y000440D03*
X010800Y005950D03*
X011325Y005950D03*
D25*
X000220Y007260D02*
X000220Y000220D01*
X017500Y000220D01*
X017500Y007260D01*
X000220Y007260D01*
X000220Y007222D02*
X017500Y007222D01*
X017500Y007144D02*
X000220Y007144D01*
X000220Y007065D02*
X017500Y007065D01*
X017500Y006987D02*
X000220Y006987D01*
X000220Y006908D02*
X017500Y006908D01*
X017500Y006830D02*
X000220Y006830D01*
X000220Y006751D02*
X000889Y006751D01*
X000950Y006777D02*
X000673Y006662D01*
X000462Y006450D01*
X000347Y006173D01*
X000347Y005874D01*
X000462Y005597D01*
X000673Y005385D01*
X000950Y005270D01*
X001250Y005270D01*
X001527Y005385D01*
X001738Y005597D01*
X001853Y005874D01*
X001853Y006173D01*
X001738Y006450D01*
X001527Y006662D01*
X001250Y006777D01*
X000950Y006777D01*
X000699Y006673D02*
X000220Y006673D01*
X000220Y006594D02*
X000606Y006594D01*
X000527Y006516D02*
X000220Y006516D01*
X000220Y006437D02*
X000456Y006437D01*
X000424Y006359D02*
X000220Y006359D01*
X000220Y006280D02*
X000391Y006280D01*
X000359Y006202D02*
X000220Y006202D01*
X000220Y006123D02*
X000347Y006123D01*
X000347Y006045D02*
X000220Y006045D01*
X000220Y005966D02*
X000347Y005966D01*
X000347Y005888D02*
X000220Y005888D01*
X000220Y005809D02*
X000374Y005809D01*
X000406Y005731D02*
X000220Y005731D01*
X000220Y005652D02*
X000439Y005652D01*
X000485Y005574D02*
X000220Y005574D01*
X000220Y005495D02*
X000563Y005495D01*
X000642Y005417D02*
X000220Y005417D01*
X000220Y005338D02*
X000787Y005338D01*
X000220Y005260D02*
X001555Y005260D01*
X001547Y005237D02*
X001535Y005158D01*
X002005Y005158D01*
X002005Y005628D01*
X002005Y005628D01*
X001925Y005615D01*
X001849Y005591D01*
X001778Y005554D01*
X001713Y005507D01*
X001656Y005450D01*
X001609Y005385D01*
X001572Y005314D01*
X001547Y005237D01*
X001539Y005181D02*
X000220Y005181D01*
X000220Y005103D02*
X002005Y005103D01*
X002005Y005078D02*
X001535Y005078D01*
X001535Y005078D01*
X001547Y004999D01*
X001572Y004922D01*
X001609Y004851D01*
X001656Y004786D01*
X001713Y004729D01*
X001778Y004682D01*
X001849Y004645D01*
X001866Y004640D01*
X001767Y004599D01*
X001629Y004461D01*
X001555Y004281D01*
X001555Y004086D01*
X001629Y003906D01*
X001767Y003768D01*
X001836Y003740D01*
X001767Y003712D01*
X001629Y003574D01*
X001555Y003394D01*
X001555Y003199D01*
X001629Y003019D01*
X001767Y002881D01*
X001892Y002829D01*
X001767Y002777D01*
X001629Y002640D01*
X001555Y002460D01*
X001555Y002265D01*
X001629Y002084D01*
X001767Y001947D01*
X001947Y001872D01*
X002142Y001872D01*
X002322Y001947D01*
X002460Y002084D01*
X002535Y002265D01*
X002535Y002460D01*
X002460Y002640D01*
X002322Y002777D01*
X002198Y002829D01*
X002322Y002881D01*
X002460Y003019D01*
X002535Y003199D01*
X002535Y003394D01*
X002460Y003574D01*
X002322Y003712D01*
X002254Y003740D01*
X002322Y003768D01*
X003035Y003768D01*
X003035Y003760D02*
X002620Y003760D01*
X002620Y003612D01*
X002618Y003610D01*
X002600Y003578D01*
X002591Y003543D01*
X002591Y003426D01*
X002591Y003309D01*
X002600Y003274D01*
X002618Y003242D01*
X002645Y003216D01*
X002676Y003197D01*
X002712Y003188D01*
X002780Y003188D01*
X002817Y003188D01*
X002817Y003097D01*
X002782Y003097D01*
X002711Y003027D01*
X002711Y002573D01*
X002775Y002509D01*
X002775Y002398D01*
X002768Y002398D01*
X002698Y002327D01*
X002698Y001913D01*
X002768Y001843D01*
X003182Y001843D01*
X003252Y001913D01*
X003252Y001920D01*
X003303Y001920D01*
X003303Y001843D01*
X003363Y001784D01*
X003337Y001769D01*
X003311Y001743D01*
X003293Y001711D01*
X003283Y001675D01*
X003283Y001480D01*
X003580Y001480D01*
X003580Y001400D01*
X003660Y001400D01*
X003660Y001084D01*
X003835Y001084D01*
X003871Y001093D01*
X003903Y001112D01*
X003929Y001138D01*
X003947Y001170D01*
X003957Y001205D01*
X003957Y001400D01*
X003660Y001400D01*
X003660Y001480D01*
X003957Y001480D01*
X003957Y001675D01*
X003947Y001711D01*
X003929Y001743D01*
X003903Y001769D01*
X003877Y001784D01*
X003885Y001792D01*
X003960Y001717D01*
X004077Y001600D01*
X004383Y001600D01*
X004393Y001590D01*
X004403Y001590D01*
X004206Y001504D01*
X004206Y001504D01*
X004026Y001317D01*
X003932Y001076D01*
X003935Y000948D01*
X003935Y000866D01*
X003923Y000854D01*
X003923Y000773D01*
X003920Y000769D01*
X003920Y000769D01*
X003923Y000753D01*
X003923Y000634D01*
X003907Y000650D01*
X003733Y000650D01*
X003610Y000527D01*
X003610Y000353D01*
X003733Y000230D01*
X003907Y000230D01*
X003957Y000280D01*
X005152Y000280D01*
X005210Y000274D01*
X005217Y000280D01*
X005226Y000280D01*
X005268Y000321D01*
X005327Y000370D01*
X005337Y000370D01*
X005378Y000412D01*
X005423Y000448D01*
X005424Y000458D01*
X005477Y000458D01*
X005548Y000528D01*
X005548Y000735D01*
X005646Y000637D01*
X005821Y000565D01*
X006469Y000565D01*
X006498Y000536D01*
X006696Y000536D01*
X006725Y000565D01*
X006754Y000536D01*
X006927Y000536D01*
X006927Y000473D01*
X006998Y000403D01*
X007412Y000403D01*
X007482Y000473D01*
X007482Y000810D01*
X007518Y000810D01*
X007518Y000473D01*
X007588Y000403D01*
X008002Y000403D01*
X008073Y000473D01*
X008073Y000887D01*
X008002Y000957D01*
X007888Y000957D01*
X007878Y000980D01*
X008695Y000980D01*
X009023Y000644D01*
X009023Y000581D01*
X009093Y000511D01*
X009291Y000511D01*
X009320Y000540D01*
X009349Y000511D01*
X009527Y000511D01*
X009527Y000493D01*
X009598Y000423D01*
X010012Y000423D01*
X010082Y000493D01*
X010082Y000907D01*
X010012Y000977D01*
X009598Y000977D01*
X009527Y000907D01*
X009527Y000889D01*
X009349Y000889D01*
X009320Y000860D01*
X009291Y000889D01*
X009231Y000889D01*
X008922Y001205D01*
X008922Y001206D01*
X008888Y001240D01*
X013243Y001240D01*
X013190Y001187D01*
X013190Y001013D01*
X013313Y000890D01*
X013487Y000890D01*
X013537Y000940D01*
X014061Y000940D01*
X014461Y001070D01*
X014802Y001318D01*
X014802Y001318D01*
X015050Y001659D01*
X015180Y002059D01*
X015180Y002580D01*
X015185Y002626D01*
X015220Y002711D01*
X015253Y002744D01*
X015295Y002680D01*
X015484Y002594D01*
X015463Y002542D01*
X015463Y002408D01*
X015514Y002284D01*
X015609Y002189D01*
X015733Y002138D01*
X015867Y002138D01*
X015991Y002189D01*
X016086Y002284D01*
X016137Y002408D01*
X016137Y002542D01*
X016110Y002606D01*
X016212Y002620D01*
X016378Y002764D01*
X016378Y002764D01*
X016440Y002975D01*
X016440Y002975D01*
X016378Y003186D01*
X016333Y003225D01*
X016378Y003264D01*
X016378Y003264D01*
X016393Y003315D01*
X016624Y003315D01*
X016684Y003255D01*
X016866Y003255D01*
X016926Y003315D01*
X016944Y003315D01*
X016956Y003303D01*
X017194Y003303D01*
X017264Y003373D01*
X017264Y003571D01*
X017235Y003600D01*
X017264Y003629D01*
X017264Y003827D01*
X017244Y003847D01*
X017285Y003888D01*
X017285Y004062D01*
X017244Y004103D01*
X017264Y004123D01*
X017264Y004321D01*
X017235Y004350D01*
X017264Y004379D01*
X017264Y004577D01*
X017194Y004647D01*
X016956Y004647D01*
X016948Y004638D01*
X016891Y004695D01*
X016709Y004695D01*
X016649Y004635D01*
X016393Y004635D01*
X016378Y004686D01*
X016333Y004725D01*
X016378Y004764D01*
X016378Y004764D01*
X016440Y004975D01*
X016379Y005184D01*
X016391Y005189D01*
X016486Y005284D01*
X016537Y005408D01*
X016537Y005542D01*
X016486Y005666D01*
X016391Y005761D01*
X016267Y005812D01*
X016133Y005812D01*
X016009Y005761D01*
X015914Y005666D01*
X015863Y005542D01*
X015863Y005408D01*
X015900Y005318D01*
X015795Y005270D01*
X015795Y005270D01*
X015790Y005262D01*
X015712Y005330D01*
X015705Y005331D01*
X015737Y005408D01*
X015737Y005542D01*
X015686Y005666D01*
X015591Y005761D01*
X015467Y005812D01*
X015333Y005812D01*
X015209Y005761D01*
X015114Y005666D01*
X015063Y005542D01*
X015063Y005408D01*
X015114Y005284D01*
X015209Y005189D01*
X015236Y005178D01*
X015208Y005135D01*
X014887Y005135D01*
X014837Y005185D01*
X014663Y005185D01*
X014616Y005138D01*
X014578Y005138D01*
X014569Y005147D01*
X014331Y005147D01*
X014261Y005077D01*
X014261Y004879D01*
X014290Y004850D01*
X014261Y004821D01*
X014261Y004774D01*
X014235Y004747D01*
X014221Y004747D01*
X014115Y004642D01*
X014115Y004272D01*
X014088Y004272D01*
X014018Y004202D01*
X014018Y003788D01*
X014088Y003718D01*
X014115Y003718D01*
X014115Y003447D01*
X014088Y003447D01*
X014018Y003377D01*
X014018Y002963D01*
X014088Y002893D01*
X014120Y002893D01*
X014120Y002792D01*
X014090Y002762D01*
X014090Y002588D01*
X014213Y002465D01*
X014387Y002465D01*
X014510Y002588D01*
X014510Y002762D01*
X014480Y002792D01*
X014480Y002893D01*
X014502Y002893D01*
X014573Y002963D01*
X014573Y002986D01*
X014690Y002986D01*
X014690Y002271D01*
X014675Y002156D01*
X014592Y001936D01*
X014444Y001753D01*
X014248Y001625D01*
X014021Y001563D01*
X013910Y001560D01*
X013899Y001560D01*
X013837Y001563D01*
X013833Y001560D01*
X007837Y001560D01*
X007787Y001610D01*
X007613Y001610D01*
X007490Y001487D01*
X007490Y001313D01*
X007503Y001300D01*
X007502Y001300D01*
X007420Y001375D01*
X007420Y001451D01*
X007291Y001580D01*
X007109Y001580D01*
X006980Y001451D01*
X006980Y001269D01*
X007109Y001140D01*
X007203Y001140D01*
X007214Y001130D01*
X006489Y001130D01*
X006489Y001164D01*
X006513Y001140D01*
X006687Y001140D01*
X006810Y001263D01*
X006810Y001437D01*
X006687Y001560D01*
X006513Y001560D01*
X006466Y001513D01*
X006428Y001513D01*
X006419Y001522D01*
X006190Y001522D01*
X006194Y001535D01*
X006194Y001603D01*
X006194Y001671D01*
X006184Y001706D01*
X006166Y001738D01*
X006140Y001764D01*
X006123Y001774D01*
X006302Y001878D01*
X006420Y002082D01*
X006420Y002309D01*
X006480Y002369D01*
X006480Y002551D01*
X006351Y002680D01*
X006169Y002680D01*
X006040Y002551D01*
X006040Y002369D01*
X006100Y002309D01*
X006100Y002200D01*
X006096Y002169D01*
X006065Y002115D01*
X006011Y002084D01*
X006010Y002084D01*
X006010Y002500D01*
X005770Y002500D01*
X005770Y002540D01*
X005730Y002540D01*
X005730Y003095D01*
X005640Y003095D01*
X005640Y003231D01*
X005511Y003360D01*
X005329Y003360D01*
X005200Y003231D01*
X005200Y003075D01*
X005080Y003075D01*
X005010Y003005D01*
X005010Y002035D01*
X005080Y001965D01*
X005420Y001965D01*
X005490Y002035D01*
X005490Y002920D01*
X005490Y002540D01*
X005730Y002540D01*
X005730Y002500D01*
X005490Y002500D01*
X005490Y002067D01*
X005500Y002031D01*
X005518Y001999D01*
X005530Y001987D01*
X005440Y001831D01*
X005440Y001012D01*
X005063Y001012D01*
X004993Y000942D01*
X004957Y000942D01*
X004887Y001012D01*
X004473Y001012D01*
X004402Y000942D01*
X004255Y000942D01*
X004255Y000952D02*
X004255Y000954D01*
X004260Y001018D01*
X004307Y001138D01*
X004396Y001231D01*
X004514Y001282D01*
X004578Y001290D01*
X004813Y001290D01*
X004863Y001240D01*
X005037Y001240D01*
X005160Y001363D01*
X005160Y001537D01*
X005037Y001660D01*
X004863Y001660D01*
X004813Y001610D01*
X004639Y001610D01*
X004638Y001611D01*
X004587Y001610D01*
X004690Y001713D01*
X004690Y001887D01*
X004612Y001965D01*
X004920Y001965D01*
X004990Y002035D01*
X004990Y003005D01*
X004920Y003075D01*
X004580Y003075D01*
X004510Y003005D01*
X004510Y002035D01*
X004535Y002010D01*
X004465Y002010D01*
X004490Y002035D01*
X004490Y003005D01*
X004420Y003075D01*
X004080Y003075D01*
X004010Y003005D01*
X004010Y002233D01*
X003937Y002306D01*
X003937Y002376D01*
X003867Y002446D01*
X003373Y002446D01*
X003303Y002376D01*
X003303Y002320D01*
X003252Y002320D01*
X003252Y002327D01*
X003182Y002398D01*
X003175Y002398D01*
X003175Y002521D01*
X003225Y002571D01*
X003293Y002503D01*
X003668Y002503D01*
X003739Y002573D01*
X003739Y003027D01*
X003668Y003097D01*
X003604Y003097D01*
X003541Y003160D01*
X003481Y003220D01*
X003539Y003278D01*
X003539Y003574D01*
X003526Y003588D01*
X003530Y003604D01*
X003530Y003760D01*
X003115Y003760D01*
X003115Y003840D01*
X003530Y003840D01*
X003530Y003988D01*
X003532Y003990D01*
X003550Y004022D01*
X003559Y004057D01*
X003559Y004174D01*
X003370Y004174D01*
X003370Y004412D01*
X003333Y004412D01*
X003333Y004466D01*
X003385Y004517D01*
X003385Y004853D01*
X003367Y004871D01*
X003367Y005172D01*
X003375Y005180D01*
X003443Y005112D01*
X003740Y005112D01*
X003778Y005150D01*
X004050Y005150D01*
X004073Y005127D01*
X004010Y005065D01*
X004010Y004095D01*
X004080Y004025D01*
X004420Y004025D01*
X004490Y004095D01*
X004490Y005065D01*
X004480Y005074D01*
X004526Y005120D01*
X004565Y005120D01*
X004510Y005065D01*
X004510Y004095D01*
X004580Y004025D01*
X004920Y004025D01*
X004990Y004095D01*
X004990Y005065D01*
X004990Y005065D01*
X005010Y005065D01*
X005010Y004095D01*
X005078Y004027D01*
X005073Y003966D01*
X005073Y003966D01*
X005084Y003930D01*
X004993Y003930D01*
X004870Y003807D01*
X004870Y003633D01*
X004993Y003510D01*
X005167Y003510D01*
X005284Y003627D01*
X005418Y003558D01*
X005449Y003556D01*
X005455Y003550D01*
X005518Y003550D01*
X005581Y003545D01*
X005587Y003550D01*
X006959Y003550D01*
X007009Y003500D01*
X007191Y003500D01*
X007241Y003550D01*
X007544Y003550D01*
X007634Y003544D01*
X007634Y003544D01*
X007766Y003609D01*
X007817Y003568D01*
X007869Y003560D01*
X007880Y003550D01*
X007937Y003550D01*
X007995Y003541D01*
X008006Y003550D01*
X009797Y003550D01*
X009807Y003542D01*
X009866Y003550D01*
X009925Y003550D01*
X009934Y003559D01*
X010013Y003569D01*
X010249Y003706D01*
X010249Y003706D01*
X010416Y003923D01*
X010456Y004075D01*
X010470Y004075D01*
X010540Y004145D01*
X010540Y005115D01*
X010470Y005185D01*
X010130Y005185D01*
X010060Y005115D01*
X010060Y004145D01*
X010104Y004101D01*
X010099Y004079D01*
X010016Y003972D01*
X009899Y003904D01*
X009839Y003890D01*
X007969Y003890D01*
X007958Y003893D01*
X007931Y003915D01*
X007923Y003934D01*
X007924Y003954D01*
X007920Y003959D01*
X007920Y003977D01*
X007928Y004034D01*
X007990Y004095D01*
X007990Y005065D01*
X007920Y005135D01*
X007580Y005135D01*
X007510Y005065D01*
X007510Y004095D01*
X007580Y004025D01*
X007580Y004003D01*
X007566Y003907D01*
X007571Y003893D01*
X007566Y003890D01*
X007556Y003890D01*
X007491Y003894D01*
X007486Y003890D01*
X007241Y003890D01*
X007191Y003940D01*
X007009Y003940D01*
X006959Y003890D01*
X005970Y003890D01*
X005970Y004047D01*
X005956Y004061D01*
X005990Y004095D01*
X005990Y004480D01*
X006151Y004480D01*
X006180Y004509D01*
X006180Y004484D01*
X006309Y004355D01*
X006491Y004355D01*
X006510Y004374D01*
X006510Y004095D01*
X006580Y004025D01*
X006920Y004025D01*
X006990Y004095D01*
X006990Y005065D01*
X006920Y005135D01*
X006580Y005135D01*
X006510Y005065D01*
X006510Y004776D01*
X006491Y004795D01*
X006309Y004795D01*
X006280Y004766D01*
X006280Y004791D01*
X006151Y004920D01*
X005990Y004920D01*
X005990Y005065D01*
X005920Y005135D01*
X005920Y005404D01*
X005922Y005406D01*
X005922Y005472D01*
X005924Y005495D01*
X005959Y005578D01*
X006022Y005641D01*
X006105Y005676D01*
X006150Y005680D01*
X007694Y005680D01*
X007771Y005669D01*
X007915Y005602D01*
X008022Y005485D01*
X008076Y005337D01*
X008080Y005260D01*
X008080Y005254D01*
X008077Y005187D01*
X008079Y005185D01*
X008079Y005183D01*
X008080Y005182D01*
X008080Y005135D01*
X008010Y005065D01*
X008010Y004095D01*
X008080Y004025D01*
X008420Y004025D01*
X008490Y004095D01*
X008490Y005065D01*
X008420Y005135D01*
X008420Y005246D01*
X008420Y005247D01*
X008430Y005333D01*
X008500Y005491D01*
X008624Y005610D01*
X008785Y005673D01*
X008871Y005680D01*
X008873Y005680D01*
X008942Y005679D01*
X008943Y005680D01*
X010282Y005680D01*
X010284Y005678D01*
X010352Y005680D01*
X010356Y005680D01*
X010407Y005676D01*
X010505Y005639D01*
X010581Y005568D01*
X010623Y005472D01*
X010630Y005421D01*
X010630Y005185D01*
X010560Y005115D01*
X010560Y004145D01*
X010630Y004075D01*
X010970Y004075D01*
X011040Y004145D01*
X011040Y005115D01*
X010970Y005185D01*
X010970Y005357D01*
X010972Y005359D01*
X010970Y005427D01*
X010970Y005495D01*
X013260Y005495D01*
X013260Y005417D02*
X010970Y005417D01*
X010970Y005495D02*
X010968Y005497D01*
X010966Y005551D01*
X010882Y005740D01*
X010887Y005740D01*
X011010Y005863D01*
X011010Y006037D01*
X010967Y006080D01*
X011158Y006080D01*
X011115Y006037D01*
X011115Y005863D01*
X011238Y005740D01*
X011412Y005740D01*
X011535Y005863D01*
X011535Y006037D01*
X011492Y006080D01*
X012974Y006080D01*
X013260Y005794D01*
X013260Y004457D01*
X013227Y004490D01*
X013053Y004490D01*
X012930Y004367D01*
X012930Y004193D01*
X013053Y004070D01*
X013227Y004070D01*
X013260Y004103D01*
X013260Y003337D01*
X013237Y003360D01*
X013063Y003360D01*
X012940Y003237D01*
X012940Y003063D01*
X013041Y002962D01*
X012940Y002862D01*
X012940Y002688D01*
X013063Y002565D01*
X013237Y002565D01*
X013273Y002601D01*
X013354Y002520D01*
X013462Y002412D01*
X013572Y002412D01*
X013581Y002403D01*
X013819Y002403D01*
X013889Y002473D01*
X013889Y002671D01*
X013860Y002700D01*
X013889Y002729D01*
X013889Y002893D01*
X013912Y002893D01*
X013982Y002963D01*
X013982Y003377D01*
X013912Y003447D01*
X013580Y003447D01*
X013580Y003718D01*
X013912Y003718D01*
X013982Y003788D01*
X013982Y004202D01*
X013912Y004272D01*
X013889Y004272D01*
X013889Y004446D01*
X013860Y004475D01*
X013889Y004504D01*
X013889Y004702D01*
X013860Y004731D01*
X013860Y005886D01*
X013280Y006466D01*
X013186Y006560D01*
X005886Y006560D01*
X005840Y006606D01*
X005840Y006691D01*
X005711Y006820D01*
X005529Y006820D01*
X005400Y006691D01*
X005400Y006509D01*
X005509Y006400D01*
X005491Y006400D01*
X005431Y006460D01*
X005249Y006460D01*
X005120Y006331D01*
X005120Y006149D01*
X005249Y006020D01*
X005431Y006020D01*
X005491Y006080D01*
X010633Y006080D01*
X010590Y006037D01*
X010590Y005976D01*
X010466Y006023D01*
X010348Y006020D01*
X008877Y006020D01*
X008723Y006023D01*
X008723Y006023D01*
X008433Y005910D01*
X008258Y005742D01*
X008124Y005888D01*
X007856Y006013D01*
X007856Y006013D01*
X007773Y006017D01*
X007770Y006020D01*
X007704Y006020D01*
X007637Y006023D01*
X007634Y006020D01*
X006037Y006020D01*
X005827Y005933D01*
X005667Y005773D01*
X005667Y005773D01*
X005637Y005701D01*
X005568Y005821D01*
X005414Y005910D01*
X005048Y005910D01*
X004914Y005833D01*
X004914Y005833D01*
X004914Y005833D01*
X004837Y005699D01*
X004837Y005653D01*
X004828Y005644D01*
X004828Y005440D01*
X004405Y005440D01*
X004405Y005445D01*
X004270Y005580D01*
X004080Y005580D01*
X004050Y005550D01*
X003778Y005550D01*
X003740Y005588D01*
X003443Y005588D01*
X003375Y005520D01*
X003307Y005588D01*
X003010Y005588D01*
X002940Y005518D01*
X002940Y005182D01*
X002967Y005156D01*
X002967Y004871D01*
X002959Y004863D01*
X002944Y004889D01*
X002918Y004915D01*
X002886Y004934D01*
X002850Y004943D01*
X002743Y004943D01*
X002743Y004694D01*
X002724Y004694D01*
X002724Y004676D01*
X002495Y004676D01*
X002495Y004548D01*
X002505Y004513D01*
X002523Y004481D01*
X002549Y004455D01*
X002581Y004436D01*
X002617Y004427D01*
X002724Y004427D01*
X002724Y004676D01*
X002743Y004676D01*
X002743Y004427D01*
X002850Y004427D01*
X002886Y004436D01*
X002918Y004455D01*
X002944Y004481D01*
X002959Y004507D01*
X003013Y004452D01*
X003013Y004392D01*
X002901Y004392D01*
X002883Y004403D01*
X002847Y004412D01*
X002780Y004412D01*
X002780Y004174D01*
X002780Y004174D01*
X002780Y004412D01*
X002712Y004412D01*
X002676Y004403D01*
X002645Y004384D01*
X002618Y004358D01*
X002600Y004326D01*
X002591Y004291D01*
X002591Y004174D01*
X002591Y004057D01*
X002600Y004022D01*
X002618Y003990D01*
X002620Y003988D01*
X002620Y003840D01*
X003035Y003840D01*
X003035Y003760D01*
X003115Y003768D02*
X004870Y003768D01*
X004870Y003690D02*
X003530Y003690D01*
X003530Y003611D02*
X004892Y003611D01*
X004971Y003533D02*
X003539Y003533D01*
X003539Y003454D02*
X013260Y003454D01*
X013260Y003376D02*
X010446Y003376D01*
X010412Y003410D02*
X010238Y003410D01*
X010115Y003287D01*
X010115Y003113D01*
X010117Y003111D01*
X010060Y003055D01*
X010060Y002085D01*
X010130Y002015D01*
X010470Y002015D01*
X010540Y002085D01*
X010540Y003055D01*
X010508Y003086D01*
X010535Y003113D01*
X010535Y003287D01*
X010412Y003410D01*
X010525Y003297D02*
X013000Y003297D01*
X012940Y003219D02*
X010535Y003219D01*
X010535Y003140D02*
X010643Y003140D01*
X010626Y003135D02*
X010594Y003117D01*
X010568Y003091D01*
X010550Y003059D01*
X010540Y003023D01*
X010540Y002590D01*
X010780Y002590D01*
X010780Y003145D01*
X010662Y003145D01*
X010626Y003135D01*
X010551Y003062D02*
X010533Y003062D01*
X010540Y002983D02*
X010540Y002983D01*
X010540Y002905D02*
X010540Y002905D01*
X010540Y002826D02*
X010540Y002826D01*
X010540Y002748D02*
X010540Y002748D01*
X010540Y002669D02*
X010540Y002669D01*
X010540Y002591D02*
X010540Y002591D01*
X010540Y002550D02*
X010540Y002117D01*
X010550Y002081D01*
X010568Y002049D01*
X010594Y002023D01*
X010626Y002005D01*
X010662Y001995D01*
X010780Y001995D01*
X010780Y002550D01*
X010820Y002550D01*
X010820Y002590D01*
X011060Y002590D01*
X011060Y003023D01*
X011050Y003059D01*
X011032Y003091D01*
X011006Y003117D01*
X010974Y003135D01*
X010938Y003145D01*
X010820Y003145D01*
X010820Y002590D01*
X010780Y002590D01*
X010780Y002550D01*
X010540Y002550D01*
X010540Y002512D02*
X010540Y002512D01*
X010540Y002434D02*
X010540Y002434D01*
X010540Y002355D02*
X010540Y002355D01*
X010540Y002277D02*
X010540Y002277D01*
X010540Y002198D02*
X010540Y002198D01*
X010540Y002120D02*
X010540Y002120D01*
X010576Y002041D02*
X010496Y002041D01*
X010780Y002041D02*
X010820Y002041D01*
X010820Y001995D02*
X010938Y001995D01*
X010974Y002005D01*
X011006Y002023D01*
X011032Y002049D01*
X011050Y002081D01*
X011060Y002117D01*
X011060Y002550D01*
X010820Y002550D01*
X010820Y001995D01*
X011024Y002041D02*
X014631Y002041D01*
X014602Y001963D02*
X009904Y001963D01*
X009852Y002015D02*
X009970Y002015D01*
X010040Y002085D01*
X010040Y003055D01*
X009970Y003125D01*
X009630Y003125D01*
X009560Y003055D01*
X009560Y002085D01*
X009630Y002015D01*
X009648Y002015D01*
X009540Y001907D01*
X009540Y001733D01*
X009663Y001610D01*
X009837Y001610D01*
X009960Y001733D01*
X009960Y001907D01*
X009852Y002015D01*
X009996Y002041D02*
X010104Y002041D01*
X010060Y002120D02*
X010040Y002120D01*
X010040Y002198D02*
X010060Y002198D01*
X010060Y002277D02*
X010040Y002277D01*
X010040Y002355D02*
X010060Y002355D01*
X010060Y002434D02*
X010040Y002434D01*
X010040Y002512D02*
X010060Y002512D01*
X010060Y002591D02*
X010040Y002591D01*
X010040Y002669D02*
X010060Y002669D01*
X010060Y002748D02*
X010040Y002748D01*
X010040Y002826D02*
X010060Y002826D01*
X010060Y002905D02*
X010040Y002905D01*
X010040Y002983D02*
X010060Y002983D01*
X010067Y003062D02*
X010033Y003062D01*
X010115Y003140D02*
X008990Y003140D01*
X008990Y003147D02*
X008867Y003270D01*
X008693Y003270D01*
X008570Y003147D01*
X008570Y002973D01*
X008693Y002850D01*
X008867Y002850D01*
X008990Y002973D01*
X008990Y003147D01*
X008990Y003062D02*
X009067Y003062D01*
X009060Y003055D02*
X009060Y002085D01*
X009130Y002015D01*
X009470Y002015D01*
X009540Y002085D01*
X009540Y003055D01*
X009470Y003125D01*
X009130Y003125D01*
X009060Y003055D01*
X009060Y002983D02*
X008990Y002983D01*
X008921Y002905D02*
X009060Y002905D01*
X009060Y002826D02*
X008510Y002826D01*
X008510Y002748D02*
X009060Y002748D01*
X009060Y002669D02*
X008510Y002669D01*
X008510Y002591D02*
X009060Y002591D01*
X009060Y002512D02*
X008270Y002512D01*
X008270Y002500D02*
X008270Y002540D01*
X008510Y002540D01*
X008510Y002973D01*
X008500Y003009D01*
X008482Y003041D01*
X008456Y003067D01*
X008424Y003085D01*
X008388Y003095D01*
X008270Y003095D01*
X008270Y002540D01*
X008230Y002540D01*
X008230Y003095D01*
X008112Y003095D01*
X008076Y003085D01*
X008044Y003067D01*
X008018Y003041D01*
X008000Y003009D01*
X007990Y002973D01*
X007990Y002540D01*
X008230Y002540D01*
X008230Y002500D01*
X008270Y002500D01*
X008510Y002500D01*
X008510Y002067D01*
X008500Y002031D01*
X008482Y001999D01*
X008456Y001973D01*
X008424Y001955D01*
X008388Y001945D01*
X008270Y001945D01*
X008270Y002500D01*
X008230Y002500D02*
X008230Y001945D01*
X008112Y001945D01*
X008076Y001955D01*
X008044Y001973D01*
X008018Y001999D01*
X008000Y002031D01*
X007990Y002067D01*
X007990Y002500D01*
X008230Y002500D01*
X008230Y002512D02*
X007990Y002512D01*
X007990Y002434D02*
X007990Y002434D01*
X007990Y002355D02*
X007990Y002355D01*
X007990Y002277D02*
X007990Y002277D01*
X007990Y002198D02*
X007990Y002198D01*
X007990Y002120D02*
X007990Y002120D01*
X007990Y002041D02*
X007997Y002041D01*
X007990Y002035D02*
X007920Y001965D01*
X007580Y001965D01*
X007510Y002035D01*
X007510Y003005D01*
X007580Y003075D01*
X007920Y003075D01*
X007990Y003005D01*
X007990Y002035D01*
X008062Y001963D02*
X006351Y001963D01*
X006396Y002041D02*
X006510Y002041D01*
X006510Y002035D02*
X006580Y001965D01*
X006920Y001965D01*
X006990Y002035D01*
X006990Y003005D01*
X006920Y003075D01*
X006580Y003075D01*
X006510Y003005D01*
X006510Y002035D01*
X006510Y002120D02*
X006420Y002120D01*
X006420Y002198D02*
X006510Y002198D01*
X006510Y002277D02*
X006420Y002277D01*
X006466Y002355D02*
X006510Y002355D01*
X006510Y002434D02*
X006480Y002434D01*
X006480Y002512D02*
X006510Y002512D01*
X006510Y002591D02*
X006441Y002591D01*
X006510Y002669D02*
X006362Y002669D01*
X006510Y002748D02*
X006010Y002748D01*
X006010Y002826D02*
X006510Y002826D01*
X006510Y002905D02*
X006010Y002905D01*
X006010Y002973D02*
X006000Y003009D01*
X005982Y003041D01*
X005956Y003067D01*
X005924Y003085D01*
X005888Y003095D01*
X005770Y003095D01*
X005770Y002540D01*
X006010Y002540D01*
X006010Y002973D01*
X006007Y002983D02*
X006510Y002983D01*
X006567Y003062D02*
X005961Y003062D01*
X005770Y003062D02*
X005730Y003062D01*
X005730Y002983D02*
X005770Y002983D01*
X005770Y002905D02*
X005730Y002905D01*
X005730Y002826D02*
X005770Y002826D01*
X005770Y002748D02*
X005730Y002748D01*
X005730Y002669D02*
X005770Y002669D01*
X005770Y002591D02*
X005730Y002591D01*
X005730Y002512D02*
X005490Y002512D01*
X005490Y002434D02*
X005490Y002434D01*
X005490Y002355D02*
X005490Y002355D01*
X005490Y002277D02*
X005490Y002277D01*
X005490Y002198D02*
X005490Y002198D01*
X005490Y002120D02*
X005490Y002120D01*
X005490Y002041D02*
X005497Y002041D01*
X005516Y001963D02*
X004614Y001963D01*
X004690Y001884D02*
X005471Y001884D01*
X005440Y001806D02*
X004690Y001806D01*
X004690Y001727D02*
X005440Y001727D01*
X005440Y001649D02*
X005048Y001649D01*
X005127Y001570D02*
X005440Y001570D01*
X005440Y001492D02*
X005160Y001492D01*
X005160Y001413D02*
X005440Y001413D01*
X005440Y001335D02*
X005131Y001335D01*
X005053Y001256D02*
X005440Y001256D01*
X005440Y001178D02*
X004345Y001178D01*
X004292Y001099D02*
X005440Y001099D01*
X005440Y001021D02*
X004261Y001021D01*
X004255Y000952D02*
X004256Y000924D01*
X004402Y000924D01*
X004402Y000942D01*
X004095Y000950D02*
X004096Y000993D01*
X004101Y001035D01*
X004109Y001077D01*
X004121Y001118D01*
X004137Y001158D01*
X004156Y001196D01*
X004178Y001233D01*
X004203Y001267D01*
X004232Y001299D01*
X004262Y001329D01*
X004296Y001356D01*
X004331Y001379D01*
X004369Y001400D01*
X004408Y001417D01*
X004449Y001431D01*
X004490Y001441D01*
X004532Y001447D01*
X004575Y001450D01*
X004950Y001450D01*
X004847Y001256D02*
X004454Y001256D01*
X004043Y001335D02*
X003957Y001335D01*
X004026Y001317D02*
X004026Y001317D01*
X004003Y001256D02*
X003957Y001256D01*
X003949Y001178D02*
X003972Y001178D01*
X003941Y001099D02*
X003881Y001099D01*
X003932Y001076D02*
X003932Y001076D01*
X003934Y001021D02*
X003397Y001021D01*
X003394Y001029D02*
X003304Y001119D01*
X003188Y001167D01*
X003062Y001167D01*
X002946Y001119D01*
X002856Y001029D01*
X002808Y000913D01*
X002808Y000787D01*
X002856Y000671D01*
X002946Y000581D01*
X003062Y000533D01*
X003188Y000533D01*
X003304Y000581D01*
X003394Y000671D01*
X003442Y000787D01*
X003442Y000913D01*
X003394Y001029D01*
X003405Y001084D02*
X003580Y001084D01*
X003580Y001400D01*
X003283Y001400D01*
X003283Y001205D01*
X003293Y001170D01*
X003311Y001138D01*
X003337Y001112D01*
X003369Y001093D01*
X003405Y001084D01*
X003359Y001099D02*
X003324Y001099D01*
X003291Y001178D02*
X002758Y001178D01*
X002758Y001200D02*
X002749Y001236D01*
X002730Y001268D01*
X002704Y001294D01*
X002678Y001309D01*
X002698Y001328D01*
X002698Y001323D01*
X002768Y001252D01*
X003182Y001252D01*
X003252Y001323D01*
X003252Y001737D01*
X003182Y001807D01*
X002768Y001807D01*
X002698Y001737D01*
X002698Y001705D01*
X002668Y001735D01*
X002332Y001735D01*
X002262Y001665D01*
X002262Y001368D01*
X002322Y001309D01*
X002296Y001294D01*
X002270Y001268D01*
X002251Y001236D01*
X002242Y001200D01*
X002242Y001093D01*
X002491Y001093D01*
X002491Y001074D01*
X002509Y001074D01*
X002509Y000845D01*
X002637Y000845D01*
X002672Y000855D01*
X002704Y000873D01*
X002730Y000899D01*
X002749Y000931D01*
X002758Y000967D01*
X002758Y001074D01*
X002509Y001074D01*
X002509Y001093D01*
X002758Y001093D01*
X002758Y001200D01*
X002764Y001256D02*
X002737Y001256D01*
X002758Y001099D02*
X002926Y001099D01*
X002853Y001021D02*
X002758Y001021D01*
X002752Y000942D02*
X002820Y000942D01*
X002808Y000864D02*
X002688Y000864D01*
X002809Y000785D02*
X001447Y000785D01*
X001527Y000818D02*
X001738Y001030D01*
X001853Y001307D01*
X001853Y001606D01*
X001738Y001883D01*
X001527Y002095D01*
X001250Y002210D01*
X000950Y002210D01*
X000673Y002095D01*
X000462Y001883D01*
X000347Y001606D01*
X000347Y001307D01*
X000462Y001030D01*
X000673Y000818D01*
X000950Y000703D01*
X001250Y000703D01*
X001527Y000818D01*
X001572Y000864D02*
X002312Y000864D01*
X002296Y000873D02*
X002328Y000855D01*
X002363Y000845D01*
X002491Y000845D01*
X002491Y001074D01*
X002242Y001074D01*
X002242Y000967D01*
X002251Y000931D01*
X002270Y000899D01*
X002296Y000873D01*
X002248Y000942D02*
X001650Y000942D01*
X001729Y001021D02*
X002242Y001021D01*
X002242Y001099D02*
X001767Y001099D01*
X001800Y001178D02*
X002242Y001178D01*
X002263Y001256D02*
X001832Y001256D01*
X001853Y001335D02*
X002296Y001335D01*
X002262Y001413D02*
X001853Y001413D01*
X001853Y001492D02*
X002262Y001492D01*
X002262Y001570D02*
X001853Y001570D01*
X001836Y001649D02*
X002262Y001649D01*
X002324Y001727D02*
X001803Y001727D01*
X001771Y001806D02*
X002766Y001806D01*
X002727Y001884D02*
X002171Y001884D01*
X002338Y001963D02*
X002698Y001963D01*
X002698Y002041D02*
X002417Y002041D01*
X002475Y002120D02*
X002698Y002120D01*
X002698Y002198D02*
X002507Y002198D01*
X002535Y002277D02*
X002698Y002277D01*
X002725Y002355D02*
X002535Y002355D01*
X002535Y002434D02*
X002775Y002434D01*
X002772Y002512D02*
X002513Y002512D01*
X002481Y002591D02*
X002711Y002591D01*
X002711Y002669D02*
X002431Y002669D01*
X002352Y002748D02*
X002711Y002748D01*
X002711Y002826D02*
X002205Y002826D01*
X002346Y002905D02*
X002711Y002905D01*
X002711Y002983D02*
X002425Y002983D01*
X002478Y003062D02*
X002746Y003062D01*
X002817Y003140D02*
X002511Y003140D01*
X002535Y003219D02*
X002642Y003219D01*
X002594Y003297D02*
X002535Y003297D01*
X002535Y003376D02*
X002591Y003376D01*
X002591Y003426D02*
X002780Y003426D01*
X002780Y003188D01*
X002780Y003426D01*
X002780Y003426D01*
X002780Y003426D01*
X002591Y003426D01*
X002591Y003454D02*
X002510Y003454D01*
X002477Y003533D02*
X002591Y003533D01*
X002619Y003611D02*
X002423Y003611D01*
X002345Y003690D02*
X002620Y003690D01*
X002620Y003847D02*
X002401Y003847D01*
X002460Y003906D02*
X002322Y003768D01*
X002460Y003906D02*
X002535Y004086D01*
X002535Y004281D01*
X002460Y004461D01*
X002322Y004599D01*
X002224Y004640D01*
X002241Y004645D01*
X002312Y004682D01*
X002377Y004729D01*
X002434Y004786D01*
X002481Y004851D01*
X002518Y004922D01*
X002542Y004999D01*
X002555Y005078D01*
X002085Y005078D01*
X002085Y005158D01*
X002555Y005158D01*
X002555Y005158D01*
X002542Y005237D01*
X002518Y005314D01*
X002481Y005385D01*
X002434Y005450D01*
X002377Y005507D01*
X002312Y005554D01*
X002241Y005591D01*
X002164Y005615D01*
X002085Y005628D01*
X002085Y005628D01*
X002085Y005158D01*
X002005Y005158D01*
X002005Y005078D01*
X002085Y005103D02*
X002967Y005103D01*
X002967Y005024D02*
X002546Y005024D01*
X002555Y005078D02*
X002555Y005078D01*
X002551Y005181D02*
X002941Y005181D01*
X002940Y005260D02*
X002535Y005260D01*
X002505Y005338D02*
X002940Y005338D01*
X002940Y005417D02*
X002458Y005417D01*
X002389Y005495D02*
X002940Y005495D01*
X002996Y005574D02*
X002274Y005574D01*
X002085Y005574D02*
X002005Y005574D01*
X002005Y005495D02*
X002085Y005495D01*
X002085Y005417D02*
X002005Y005417D01*
X002005Y005338D02*
X002085Y005338D01*
X002085Y005260D02*
X002005Y005260D01*
X002005Y005181D02*
X002085Y005181D01*
X001585Y005338D02*
X001413Y005338D01*
X001558Y005417D02*
X001631Y005417D01*
X001637Y005495D02*
X001701Y005495D01*
X001715Y005574D02*
X001816Y005574D01*
X001761Y005652D02*
X004836Y005652D01*
X004828Y005574D02*
X004277Y005574D01*
X004355Y005495D02*
X004828Y005495D01*
X004997Y005525D02*
X004997Y005278D01*
X004996Y005277D01*
X004995Y005274D01*
X004995Y005275D02*
X004995Y005280D01*
X004460Y005280D01*
X004250Y005070D01*
X004250Y004580D01*
X004490Y004553D02*
X004510Y004553D01*
X004510Y004475D02*
X004490Y004475D01*
X004490Y004396D02*
X004510Y004396D01*
X004510Y004318D02*
X004490Y004318D01*
X004490Y004239D02*
X004510Y004239D01*
X004510Y004161D02*
X004490Y004161D01*
X004477Y004082D02*
X004523Y004082D01*
X004977Y004082D02*
X005023Y004082D01*
X005010Y004161D02*
X004990Y004161D01*
X004990Y004239D02*
X005010Y004239D01*
X005010Y004318D02*
X004990Y004318D01*
X004990Y004396D02*
X005010Y004396D01*
X005010Y004475D02*
X004990Y004475D01*
X004990Y004553D02*
X005010Y004553D01*
X005010Y004632D02*
X004990Y004632D01*
X004990Y004710D02*
X005010Y004710D01*
X005010Y004789D02*
X004990Y004789D01*
X004990Y004867D02*
X005010Y004867D01*
X005010Y004946D02*
X004990Y004946D01*
X004990Y005024D02*
X005010Y005024D01*
X005010Y005065D02*
X005010Y005065D01*
X005410Y005135D02*
X005410Y005336D01*
X005580Y005336D01*
X005580Y005135D01*
X005510Y005065D01*
X005510Y004095D01*
X005554Y004051D01*
X005550Y004047D01*
X005550Y003890D01*
X005536Y003890D01*
X005514Y003894D01*
X005468Y003917D01*
X005435Y003956D01*
X005420Y004005D01*
X005420Y004025D01*
X005490Y004095D01*
X005490Y005065D01*
X005420Y005135D01*
X005410Y005135D01*
X005410Y005181D02*
X005580Y005181D01*
X005580Y005260D02*
X005410Y005260D01*
X005452Y005103D02*
X005548Y005103D01*
X005510Y005024D02*
X005490Y005024D01*
X005490Y004946D02*
X005510Y004946D01*
X005510Y004867D02*
X005490Y004867D01*
X005490Y004789D02*
X005510Y004789D01*
X005510Y004710D02*
X005490Y004710D01*
X005490Y004632D02*
X005510Y004632D01*
X005510Y004553D02*
X005490Y004553D01*
X005490Y004475D02*
X005510Y004475D01*
X005510Y004396D02*
X005490Y004396D01*
X005490Y004318D02*
X005510Y004318D01*
X005510Y004239D02*
X005490Y004239D01*
X005490Y004161D02*
X005510Y004161D01*
X005523Y004082D02*
X005477Y004082D01*
X005420Y004004D02*
X005550Y004004D01*
X005550Y003925D02*
X005462Y003925D01*
X005760Y003960D02*
X005760Y004570D01*
X005759Y004575D01*
X005755Y004579D01*
X005750Y004580D01*
X005990Y004475D02*
X006189Y004475D01*
X006268Y004396D02*
X005990Y004396D01*
X005990Y004318D02*
X006510Y004318D01*
X006510Y004239D02*
X005990Y004239D01*
X005990Y004161D02*
X006510Y004161D01*
X006523Y004082D02*
X005977Y004082D01*
X005970Y004004D02*
X007580Y004004D01*
X007568Y003925D02*
X007206Y003925D01*
X007080Y004025D02*
X007420Y004025D01*
X007490Y004095D01*
X007490Y005065D01*
X007420Y005135D01*
X007080Y005135D01*
X007010Y005065D01*
X007010Y004095D01*
X007080Y004025D01*
X007023Y004082D02*
X006977Y004082D01*
X006990Y004161D02*
X007010Y004161D01*
X007010Y004239D02*
X006990Y004239D01*
X006990Y004318D02*
X007010Y004318D01*
X007010Y004396D02*
X006990Y004396D01*
X006990Y004475D02*
X007010Y004475D01*
X007010Y004553D02*
X006990Y004553D01*
X006990Y004632D02*
X007010Y004632D01*
X007010Y004710D02*
X006990Y004710D01*
X006990Y004789D02*
X007010Y004789D01*
X007010Y004867D02*
X006990Y004867D01*
X006990Y004946D02*
X007010Y004946D01*
X007010Y005024D02*
X006990Y005024D01*
X006952Y005103D02*
X007048Y005103D01*
X007452Y005103D02*
X007548Y005103D01*
X007510Y005024D02*
X007490Y005024D01*
X007490Y004946D02*
X007510Y004946D01*
X007510Y004867D02*
X007490Y004867D01*
X007490Y004789D02*
X007510Y004789D01*
X007510Y004710D02*
X007490Y004710D01*
X007490Y004632D02*
X007510Y004632D01*
X007510Y004553D02*
X007490Y004553D01*
X007490Y004475D02*
X007510Y004475D01*
X007510Y004396D02*
X007490Y004396D01*
X007490Y004318D02*
X007510Y004318D01*
X007510Y004239D02*
X007490Y004239D01*
X007490Y004161D02*
X007510Y004161D01*
X007523Y004082D02*
X007477Y004082D01*
X007566Y003907D02*
X007566Y003907D01*
X007927Y003925D02*
X009935Y003925D01*
X010041Y004004D02*
X007924Y004004D01*
X007977Y004082D02*
X008023Y004082D01*
X008010Y004161D02*
X007990Y004161D01*
X007990Y004239D02*
X008010Y004239D01*
X008010Y004318D02*
X007990Y004318D01*
X007990Y004396D02*
X008010Y004396D01*
X008010Y004475D02*
X007990Y004475D01*
X007990Y004553D02*
X008010Y004553D01*
X008010Y004632D02*
X007990Y004632D01*
X007990Y004710D02*
X008010Y004710D01*
X008010Y004789D02*
X007990Y004789D01*
X007990Y004867D02*
X008010Y004867D01*
X008010Y004946D02*
X007990Y004946D01*
X007990Y005024D02*
X008010Y005024D01*
X008048Y005103D02*
X007952Y005103D01*
X008080Y005181D02*
X005920Y005181D01*
X005920Y005260D02*
X008080Y005260D01*
X008075Y005338D02*
X005920Y005338D01*
X005922Y005417D02*
X008047Y005417D01*
X008013Y005495D02*
X005924Y005495D01*
X005957Y005574D02*
X007941Y005574D01*
X007808Y005652D02*
X006048Y005652D01*
X005753Y005525D02*
X005753Y005453D01*
X005753Y005452D01*
X005752Y005450D01*
X005750Y005450D01*
X005497Y005525D02*
X005497Y005578D01*
X005495Y005602D01*
X005490Y005626D01*
X005481Y005649D01*
X005470Y005671D01*
X005455Y005691D01*
X005438Y005708D01*
X005418Y005723D01*
X005396Y005734D01*
X005373Y005743D01*
X005349Y005748D01*
X005325Y005750D01*
X005125Y005750D01*
X005105Y005748D01*
X005085Y005744D01*
X005067Y005736D01*
X005050Y005726D01*
X005034Y005713D01*
X005021Y005697D01*
X005011Y005680D01*
X005003Y005662D01*
X004999Y005642D01*
X004997Y005622D01*
X004997Y005525D01*
X005250Y005522D02*
X005250Y004580D01*
X004510Y004632D02*
X004490Y004632D01*
X004490Y004710D02*
X004510Y004710D01*
X004510Y004789D02*
X004490Y004789D01*
X004490Y004867D02*
X004510Y004867D01*
X004510Y004946D02*
X004490Y004946D01*
X004490Y005024D02*
X004510Y005024D01*
X004509Y005103D02*
X004548Y005103D01*
X004048Y005103D02*
X003367Y005103D01*
X003367Y005024D02*
X004010Y005024D01*
X004010Y004946D02*
X003367Y004946D01*
X003371Y004867D02*
X004010Y004867D01*
X004010Y004789D02*
X003385Y004789D01*
X003385Y004710D02*
X004010Y004710D01*
X004010Y004632D02*
X003385Y004632D01*
X003385Y004553D02*
X004010Y004553D01*
X004010Y004475D02*
X003342Y004475D01*
X003370Y004412D02*
X003370Y004174D01*
X003370Y004174D01*
X003559Y004174D01*
X003559Y004291D01*
X003550Y004326D01*
X003532Y004358D01*
X003505Y004384D01*
X003474Y004403D01*
X003438Y004412D01*
X003370Y004412D01*
X003370Y004396D02*
X003370Y004396D01*
X003370Y004318D02*
X003370Y004318D01*
X003370Y004239D02*
X003370Y004239D01*
X003370Y004174D02*
X003370Y004174D01*
X003559Y004161D02*
X004010Y004161D01*
X004010Y004239D02*
X003559Y004239D01*
X003552Y004318D02*
X004010Y004318D01*
X004010Y004396D02*
X003485Y004396D01*
X003173Y004570D02*
X003173Y004174D01*
X002977Y004174D01*
X002780Y004174D02*
X002591Y004174D01*
X002780Y004174D01*
X002780Y004174D01*
X002780Y004239D02*
X002780Y004239D01*
X002780Y004318D02*
X002780Y004318D01*
X002780Y004396D02*
X002780Y004396D01*
X002743Y004475D02*
X002724Y004475D01*
X002724Y004553D02*
X002743Y004553D01*
X002743Y004632D02*
X002724Y004632D01*
X002724Y004694D02*
X002495Y004694D01*
X002495Y004822D01*
X002505Y004857D01*
X002523Y004889D01*
X002549Y004915D01*
X002581Y004934D01*
X002617Y004943D01*
X002724Y004943D01*
X002724Y004694D01*
X002724Y004710D02*
X002743Y004710D01*
X002743Y004789D02*
X002724Y004789D01*
X002724Y004867D02*
X002743Y004867D01*
X002957Y004867D02*
X002962Y004867D01*
X002967Y004946D02*
X002525Y004946D01*
X002510Y004867D02*
X002489Y004867D01*
X002495Y004789D02*
X002436Y004789D01*
X002495Y004710D02*
X002351Y004710D01*
X002244Y004632D02*
X002495Y004632D01*
X002495Y004553D02*
X002369Y004553D01*
X002447Y004475D02*
X002529Y004475D01*
X002487Y004396D02*
X002665Y004396D01*
X002598Y004318D02*
X002520Y004318D01*
X002535Y004239D02*
X002591Y004239D01*
X002591Y004161D02*
X002535Y004161D01*
X002533Y004082D02*
X002591Y004082D01*
X002610Y004004D02*
X002501Y004004D01*
X002468Y003925D02*
X002620Y003925D01*
X003530Y003925D02*
X004988Y003925D01*
X004910Y003847D02*
X003530Y003847D01*
X003540Y004004D02*
X005076Y004004D01*
X005970Y003925D02*
X006994Y003925D01*
X006976Y003533D02*
X005189Y003533D01*
X005268Y003611D02*
X005315Y003611D01*
X005418Y003558D02*
X005418Y003558D01*
X005266Y003297D02*
X003539Y003297D01*
X003539Y003376D02*
X010204Y003376D01*
X010125Y003297D02*
X005574Y003297D01*
X005640Y003219D02*
X008642Y003219D01*
X008570Y003140D02*
X005640Y003140D01*
X005200Y003140D02*
X003561Y003140D01*
X003483Y003219D02*
X005200Y003219D01*
X005067Y003062D02*
X004933Y003062D01*
X004990Y002983D02*
X005010Y002983D01*
X005010Y002905D02*
X004990Y002905D01*
X004990Y002826D02*
X005010Y002826D01*
X005010Y002748D02*
X004990Y002748D01*
X004990Y002669D02*
X005010Y002669D01*
X005010Y002591D02*
X004990Y002591D01*
X004990Y002512D02*
X005010Y002512D01*
X005010Y002434D02*
X004990Y002434D01*
X004990Y002355D02*
X005010Y002355D01*
X005010Y002277D02*
X004990Y002277D01*
X004990Y002198D02*
X005010Y002198D01*
X005010Y002120D02*
X004990Y002120D01*
X004990Y002041D02*
X005010Y002041D01*
X004510Y002041D02*
X004490Y002041D01*
X004490Y002120D02*
X004510Y002120D01*
X004510Y002198D02*
X004490Y002198D01*
X004490Y002277D02*
X004510Y002277D01*
X004510Y002355D02*
X004490Y002355D01*
X004490Y002434D02*
X004510Y002434D01*
X004510Y002512D02*
X004490Y002512D01*
X004490Y002591D02*
X004510Y002591D01*
X004510Y002669D02*
X004490Y002669D01*
X004490Y002748D02*
X004510Y002748D01*
X004510Y002826D02*
X004490Y002826D01*
X004490Y002905D02*
X004510Y002905D01*
X004510Y002983D02*
X004490Y002983D01*
X004433Y003062D02*
X004567Y003062D01*
X004067Y003062D02*
X003704Y003062D01*
X003739Y002983D02*
X004010Y002983D01*
X004010Y002905D02*
X003739Y002905D01*
X003739Y002826D02*
X004010Y002826D01*
X004010Y002748D02*
X003739Y002748D01*
X003739Y002669D02*
X004010Y002669D01*
X004010Y002591D02*
X003739Y002591D01*
X003678Y002512D02*
X004010Y002512D01*
X004010Y002434D02*
X003879Y002434D01*
X003937Y002355D02*
X004010Y002355D01*
X004010Y002277D02*
X003966Y002277D01*
X003664Y002120D02*
X003620Y002110D01*
X003620Y002120D01*
X003303Y002355D02*
X003225Y002355D01*
X003175Y002434D02*
X003361Y002434D01*
X003284Y002512D02*
X003175Y002512D01*
X002975Y002794D02*
X002969Y002800D01*
X002977Y002807D01*
X002977Y003426D01*
X003173Y003426D02*
X003175Y003426D01*
X003175Y003175D01*
X003275Y003075D01*
X003400Y003075D01*
X003475Y003000D01*
X003475Y002806D01*
X003481Y002800D01*
X002780Y003219D02*
X002780Y003219D01*
X002780Y003297D02*
X002780Y003297D01*
X002780Y003376D02*
X002780Y003376D01*
X001745Y003690D02*
X000220Y003690D01*
X000220Y003768D02*
X001768Y003768D01*
X001689Y003847D02*
X000220Y003847D01*
X000220Y003925D02*
X001622Y003925D01*
X001589Y004004D02*
X000220Y004004D01*
X000220Y004082D02*
X001557Y004082D01*
X001555Y004161D02*
X000220Y004161D01*
X000220Y004239D02*
X001555Y004239D01*
X001570Y004318D02*
X001248Y004318D01*
X001263Y004324D02*
X001363Y004424D01*
X001417Y004555D01*
X001417Y004697D01*
X001363Y004828D01*
X001263Y004928D01*
X001132Y004982D01*
X000990Y004982D01*
X000859Y004928D01*
X000758Y004828D01*
X000704Y004697D01*
X000704Y004555D01*
X000758Y004424D01*
X000859Y004324D01*
X000990Y004269D01*
X001132Y004269D01*
X001263Y004324D01*
X001335Y004396D02*
X001602Y004396D01*
X001643Y004475D02*
X001384Y004475D01*
X001416Y004553D02*
X001721Y004553D01*
X001846Y004632D02*
X001417Y004632D01*
X001412Y004710D02*
X001739Y004710D01*
X001654Y004789D02*
X001379Y004789D01*
X001324Y004867D02*
X001600Y004867D01*
X001565Y004946D02*
X001221Y004946D01*
X000901Y004946D02*
X000220Y004946D01*
X000220Y005024D02*
X001543Y005024D01*
X001535Y005158D02*
X001535Y005158D01*
X000798Y004867D02*
X000220Y004867D01*
X000220Y004789D02*
X000742Y004789D01*
X000710Y004710D02*
X000220Y004710D01*
X000220Y004632D02*
X000704Y004632D01*
X000705Y004553D02*
X000220Y004553D01*
X000220Y004475D02*
X000737Y004475D01*
X000786Y004396D02*
X000220Y004396D01*
X000220Y004318D02*
X000873Y004318D01*
X000220Y003611D02*
X001667Y003611D01*
X001612Y003533D02*
X000220Y003533D01*
X000220Y003454D02*
X001580Y003454D01*
X001555Y003376D02*
X000220Y003376D01*
X000220Y003297D02*
X001555Y003297D01*
X001555Y003219D02*
X000220Y003219D01*
X000220Y003140D02*
X000842Y003140D01*
X000859Y003156D02*
X000758Y003056D01*
X000704Y002925D01*
X000704Y002783D01*
X000758Y002652D01*
X000859Y002552D01*
X000990Y002498D01*
X001132Y002498D01*
X001263Y002552D01*
X001363Y002652D01*
X001417Y002783D01*
X001417Y002925D01*
X001363Y003056D01*
X001263Y003156D01*
X001132Y003211D01*
X000990Y003211D01*
X000859Y003156D01*
X000764Y003062D02*
X000220Y003062D01*
X000220Y002983D02*
X000728Y002983D01*
X000704Y002905D02*
X000220Y002905D01*
X000220Y002826D02*
X000704Y002826D01*
X000719Y002748D02*
X000220Y002748D01*
X000220Y002669D02*
X000751Y002669D01*
X000820Y002591D02*
X000220Y002591D01*
X000220Y002512D02*
X000955Y002512D01*
X001166Y002512D02*
X001577Y002512D01*
X001555Y002434D02*
X000220Y002434D01*
X000220Y002355D02*
X001555Y002355D01*
X001555Y002277D02*
X000220Y002277D01*
X000220Y002198D02*
X000922Y002198D01*
X000733Y002120D02*
X000220Y002120D01*
X000220Y002041D02*
X000619Y002041D01*
X000541Y001963D02*
X000220Y001963D01*
X000220Y001884D02*
X000462Y001884D01*
X000429Y001806D02*
X000220Y001806D01*
X000220Y001727D02*
X000397Y001727D01*
X000364Y001649D02*
X000220Y001649D01*
X000220Y001570D02*
X000347Y001570D01*
X000347Y001492D02*
X000220Y001492D01*
X000220Y001413D02*
X000347Y001413D01*
X000347Y001335D02*
X000220Y001335D01*
X000220Y001256D02*
X000368Y001256D01*
X000400Y001178D02*
X000220Y001178D01*
X000220Y001099D02*
X000433Y001099D01*
X000471Y001021D02*
X000220Y001021D01*
X000220Y000942D02*
X000550Y000942D01*
X000628Y000864D02*
X000220Y000864D01*
X000220Y000785D02*
X000753Y000785D01*
X000943Y000707D02*
X000220Y000707D01*
X000220Y000628D02*
X002899Y000628D01*
X002841Y000707D02*
X001257Y000707D01*
X000220Y000550D02*
X003022Y000550D01*
X003228Y000550D02*
X003633Y000550D01*
X003610Y000471D02*
X000220Y000471D01*
X000220Y000393D02*
X003610Y000393D01*
X003649Y000314D02*
X000220Y000314D01*
X000220Y000236D02*
X003728Y000236D01*
X003912Y000236D02*
X017500Y000236D01*
X017500Y000314D02*
X005260Y000314D01*
X005359Y000393D02*
X017500Y000393D01*
X017500Y000471D02*
X010651Y000471D01*
X010673Y000493D02*
X010673Y000540D01*
X014706Y000540D01*
X014709Y000542D01*
X014753Y000541D01*
X014954Y000647D01*
X014954Y000647D01*
X014954Y000647D01*
X015039Y000782D01*
X015130Y000873D01*
X015130Y001047D01*
X015007Y001170D01*
X014833Y001170D01*
X014710Y001047D01*
X014710Y000884D01*
X014678Y000867D01*
X014652Y000865D01*
X014648Y000865D01*
X014585Y000867D01*
X014582Y000865D01*
X014579Y000865D01*
X014574Y000860D01*
X010673Y000860D01*
X010673Y000907D01*
X010602Y000977D01*
X010188Y000977D01*
X010118Y000907D01*
X010118Y000493D01*
X010188Y000423D01*
X010602Y000423D01*
X010673Y000493D01*
X010140Y000471D02*
X010060Y000471D01*
X010082Y000550D02*
X010118Y000550D01*
X010118Y000628D02*
X010082Y000628D01*
X010082Y000707D02*
X010118Y000707D01*
X010118Y000785D02*
X010082Y000785D01*
X010082Y000864D02*
X010118Y000864D01*
X010153Y000942D02*
X010047Y000942D01*
X009562Y000942D02*
X009179Y000942D01*
X009103Y001021D02*
X013190Y001021D01*
X013190Y001099D02*
X009026Y001099D01*
X008949Y001178D02*
X013190Y001178D01*
X013400Y001100D02*
X013850Y001100D01*
X014067Y000942D02*
X014710Y000942D01*
X014920Y000960D02*
X014917Y000930D01*
X014911Y000901D01*
X014902Y000873D01*
X014889Y000846D01*
X014874Y000821D01*
X014856Y000797D01*
X014835Y000776D01*
X014812Y000757D01*
X014787Y000740D01*
X014761Y000727D01*
X014733Y000717D01*
X014704Y000710D01*
X014675Y000706D01*
X014645Y000705D01*
X014644Y000703D01*
X014643Y000701D01*
X014640Y000700D01*
X010395Y000700D01*
X010673Y000864D02*
X014577Y000864D01*
X014710Y001021D02*
X014308Y001021D01*
X014501Y001099D02*
X014762Y001099D01*
X014609Y001178D02*
X017500Y001178D01*
X017500Y001256D02*
X014717Y001256D01*
X014814Y001335D02*
X017500Y001335D01*
X017500Y001413D02*
X014871Y001413D01*
X014928Y001492D02*
X017500Y001492D01*
X017500Y001570D02*
X014985Y001570D01*
X015042Y001649D02*
X017500Y001649D01*
X017500Y001727D02*
X015072Y001727D01*
X015050Y001659D02*
X015050Y001659D01*
X015098Y001806D02*
X017500Y001806D01*
X017500Y001884D02*
X015123Y001884D01*
X015149Y001963D02*
X017500Y001963D01*
X017500Y002041D02*
X015174Y002041D01*
X015180Y002120D02*
X017500Y002120D01*
X017500Y002198D02*
X015999Y002198D01*
X016078Y002277D02*
X017500Y002277D01*
X017500Y002355D02*
X016115Y002355D01*
X016137Y002434D02*
X017500Y002434D01*
X017500Y002512D02*
X016137Y002512D01*
X016117Y002591D02*
X017500Y002591D01*
X017500Y002669D02*
X016268Y002669D01*
X016212Y002620D02*
X016212Y002620D01*
X016359Y002748D02*
X017500Y002748D01*
X017500Y002826D02*
X016396Y002826D01*
X016419Y002905D02*
X017500Y002905D01*
X017500Y002983D02*
X016438Y002983D01*
X016415Y003062D02*
X017500Y003062D01*
X017500Y003140D02*
X016392Y003140D01*
X016378Y003186D02*
X016378Y003186D01*
X016378Y003186D01*
X016340Y003219D02*
X017500Y003219D01*
X017500Y003297D02*
X016908Y003297D01*
X016642Y003297D02*
X016388Y003297D01*
X016050Y003475D02*
X016775Y003475D01*
X017072Y003475D01*
X017074Y003475D01*
X017075Y003474D01*
X017075Y003472D01*
X017264Y003454D02*
X017500Y003454D01*
X017500Y003376D02*
X017264Y003376D01*
X017264Y003533D02*
X017500Y003533D01*
X017500Y003611D02*
X017246Y003611D01*
X017264Y003690D02*
X017500Y003690D01*
X017500Y003768D02*
X017264Y003768D01*
X017244Y003847D02*
X017500Y003847D01*
X017500Y003925D02*
X017285Y003925D01*
X017285Y004004D02*
X017500Y004004D01*
X017500Y004082D02*
X017265Y004082D01*
X017264Y004161D02*
X017500Y004161D01*
X017500Y004239D02*
X017264Y004239D01*
X017264Y004318D02*
X017500Y004318D01*
X017500Y004396D02*
X017264Y004396D01*
X017264Y004475D02*
X017500Y004475D01*
X017500Y004553D02*
X017264Y004553D01*
X017209Y004632D02*
X017500Y004632D01*
X017500Y004710D02*
X016350Y004710D01*
X016378Y004686D02*
X016378Y004686D01*
X016378Y004686D01*
X016385Y004789D02*
X017500Y004789D01*
X017500Y004867D02*
X016408Y004867D01*
X016431Y004946D02*
X017500Y004946D01*
X017500Y005024D02*
X016426Y005024D01*
X016440Y004975D02*
X016440Y004975D01*
X016403Y005103D02*
X017500Y005103D01*
X017500Y005181D02*
X016380Y005181D01*
X016461Y005260D02*
X017500Y005260D01*
X017500Y005338D02*
X016508Y005338D01*
X016537Y005417D02*
X017500Y005417D01*
X017500Y005495D02*
X016537Y005495D01*
X016524Y005574D02*
X017500Y005574D01*
X017500Y005652D02*
X016491Y005652D01*
X016421Y005731D02*
X017500Y005731D01*
X017500Y005809D02*
X016274Y005809D01*
X016126Y005809D02*
X015474Y005809D01*
X015326Y005809D02*
X013860Y005809D01*
X013860Y005731D02*
X015179Y005731D01*
X015109Y005652D02*
X013860Y005652D01*
X013860Y005574D02*
X015076Y005574D01*
X015063Y005495D02*
X013860Y005495D01*
X013860Y005417D02*
X015063Y005417D01*
X015092Y005338D02*
X013860Y005338D01*
X013860Y005260D02*
X015139Y005260D01*
X015230Y005181D02*
X014841Y005181D01*
X014659Y005181D02*
X013860Y005181D01*
X013860Y005103D02*
X014287Y005103D01*
X014261Y005024D02*
X013860Y005024D01*
X013860Y004946D02*
X014261Y004946D01*
X014273Y004867D02*
X013860Y004867D01*
X013860Y004789D02*
X014261Y004789D01*
X014183Y004710D02*
X013881Y004710D01*
X013889Y004632D02*
X014115Y004632D01*
X014115Y004553D02*
X013889Y004553D01*
X013860Y004475D02*
X014115Y004475D01*
X014115Y004396D02*
X013889Y004396D01*
X013889Y004318D02*
X014115Y004318D01*
X014055Y004239D02*
X013945Y004239D01*
X013982Y004161D02*
X014018Y004161D01*
X014018Y004082D02*
X013982Y004082D01*
X013982Y004004D02*
X014018Y004004D01*
X014018Y003925D02*
X013982Y003925D01*
X013982Y003847D02*
X014018Y003847D01*
X014038Y003768D02*
X013962Y003768D01*
X014115Y003690D02*
X013580Y003690D01*
X013580Y003611D02*
X014115Y003611D01*
X014115Y003533D02*
X013580Y003533D01*
X013580Y003454D02*
X014115Y003454D01*
X014018Y003376D02*
X013982Y003376D01*
X013982Y003297D02*
X014018Y003297D01*
X014018Y003219D02*
X013982Y003219D01*
X013982Y003140D02*
X014018Y003140D01*
X014018Y003062D02*
X013982Y003062D01*
X013982Y002983D02*
X014018Y002983D01*
X014076Y002905D02*
X013924Y002905D01*
X013889Y002826D02*
X014120Y002826D01*
X014090Y002748D02*
X013889Y002748D01*
X013889Y002669D02*
X014090Y002669D01*
X014090Y002591D02*
X013889Y002591D01*
X013889Y002512D02*
X014166Y002512D01*
X014434Y002512D02*
X014690Y002512D01*
X014690Y002434D02*
X013849Y002434D01*
X014850Y002265D02*
X014845Y002206D01*
X014836Y002147D01*
X014824Y002088D01*
X014807Y002031D01*
X014787Y001975D01*
X014763Y001920D01*
X014736Y001867D01*
X014705Y001816D01*
X014672Y001767D01*
X014634Y001720D01*
X014594Y001676D01*
X014552Y001635D01*
X014506Y001596D01*
X014458Y001561D01*
X014408Y001528D01*
X014356Y001500D01*
X014302Y001474D01*
X014247Y001452D01*
X014190Y001434D01*
X014132Y001419D01*
X014073Y001409D01*
X014014Y001402D01*
X013955Y001399D01*
X013895Y001400D01*
X007700Y001400D01*
X007490Y001413D02*
X007420Y001413D01*
X007380Y001492D02*
X007495Y001492D01*
X007573Y001570D02*
X007301Y001570D01*
X007099Y001570D02*
X006194Y001570D01*
X006194Y001603D02*
X005985Y001603D01*
X006194Y001603D01*
X006194Y001649D02*
X009625Y001649D01*
X009546Y001727D02*
X006172Y001727D01*
X006177Y001806D02*
X009540Y001806D01*
X009540Y001884D02*
X006306Y001884D01*
X006302Y001878D02*
X006302Y001878D01*
X006302Y001878D01*
X005980Y001920D02*
X005780Y001920D01*
X005780Y001760D02*
X005826Y001760D01*
X005804Y001738D01*
X005786Y001706D01*
X005776Y001671D01*
X005776Y001603D01*
X005985Y001603D01*
X005985Y001603D01*
X005985Y001603D01*
X005776Y001603D01*
X005776Y001535D01*
X005786Y001500D01*
X005804Y001468D01*
X005811Y001461D01*
X005796Y001446D01*
X005796Y001248D01*
X005866Y001178D01*
X005906Y001178D01*
X005865Y001137D01*
X005865Y000963D01*
X005943Y000885D01*
X005915Y000885D01*
X005885Y000888D01*
X005829Y000911D01*
X005786Y000954D01*
X005763Y001010D01*
X005760Y001040D01*
X005760Y001740D01*
X005761Y001745D01*
X005766Y001754D01*
X005775Y001759D01*
X005780Y001760D01*
X005780Y001920D02*
X005754Y001918D01*
X005729Y001913D01*
X005705Y001904D01*
X005683Y001891D01*
X005662Y001876D01*
X005644Y001858D01*
X005629Y001837D01*
X005616Y001815D01*
X005607Y001791D01*
X005602Y001766D01*
X005600Y001740D01*
X005600Y001040D01*
X005762Y001021D02*
X005865Y001021D01*
X005600Y001040D02*
X005602Y001007D01*
X005607Y000975D01*
X005615Y000943D01*
X005627Y000912D01*
X005642Y000882D01*
X005660Y000855D01*
X005681Y000829D01*
X005704Y000806D01*
X005730Y000785D01*
X005758Y000767D01*
X005787Y000752D01*
X005818Y000740D01*
X005850Y000732D01*
X005882Y000727D01*
X005915Y000725D01*
X006597Y000725D01*
X006485Y000550D02*
X005548Y000550D01*
X005548Y000628D02*
X005668Y000628D01*
X005646Y000637D02*
X005646Y000637D01*
X005577Y000707D02*
X005548Y000707D01*
X005270Y000735D02*
X005270Y000530D01*
X005160Y000440D01*
X003820Y000440D01*
X003711Y000628D02*
X003351Y000628D01*
X003409Y000707D02*
X003923Y000707D01*
X003923Y000785D02*
X003441Y000785D01*
X003442Y000864D02*
X003933Y000864D01*
X003935Y000942D02*
X003430Y000942D01*
X003580Y001099D02*
X003660Y001099D01*
X003660Y001178D02*
X003580Y001178D01*
X003580Y001256D02*
X003660Y001256D01*
X003660Y001335D02*
X003580Y001335D01*
X003580Y001413D02*
X003252Y001413D01*
X003252Y001335D02*
X003283Y001335D01*
X003283Y001256D02*
X003186Y001256D01*
X003660Y001413D02*
X004119Y001413D01*
X004194Y001492D02*
X003957Y001492D01*
X003957Y001570D02*
X004357Y001570D01*
X004625Y001649D02*
X004852Y001649D01*
X004029Y001649D02*
X003957Y001649D01*
X003950Y001727D02*
X003938Y001727D01*
X003341Y001806D02*
X003184Y001806D01*
X003223Y001884D02*
X003303Y001884D01*
X003302Y001727D02*
X003252Y001727D01*
X003252Y001649D02*
X003283Y001649D01*
X003283Y001570D02*
X003252Y001570D01*
X003252Y001492D02*
X003283Y001492D01*
X002975Y001530D02*
X002513Y001530D01*
X002500Y001517D01*
X002676Y001727D02*
X002698Y001727D01*
X001919Y001884D02*
X001738Y001884D01*
X001751Y001963D02*
X001659Y001963D01*
X001673Y002041D02*
X001581Y002041D01*
X001615Y002120D02*
X001467Y002120D01*
X001582Y002198D02*
X001278Y002198D01*
X001301Y002591D02*
X001609Y002591D01*
X001659Y002669D02*
X001370Y002669D01*
X001402Y002748D02*
X001737Y002748D01*
X001885Y002826D02*
X001417Y002826D01*
X001417Y002905D02*
X001744Y002905D01*
X001665Y002983D02*
X001393Y002983D01*
X001358Y003062D02*
X001612Y003062D01*
X001579Y003140D02*
X001279Y003140D01*
X003559Y004082D02*
X004023Y004082D01*
X003013Y004396D02*
X002895Y004396D01*
X002938Y004475D02*
X002991Y004475D01*
X003167Y004577D02*
X003167Y004685D01*
X003166Y004577D02*
X003167Y004574D01*
X003170Y004571D01*
X003173Y004570D01*
X003166Y005342D02*
X003165Y005346D01*
X003162Y005349D01*
X003158Y005350D01*
X003321Y005574D02*
X003429Y005574D01*
X003754Y005574D02*
X004073Y005574D01*
X004855Y005731D02*
X001794Y005731D01*
X001826Y005809D02*
X004900Y005809D01*
X005009Y005888D02*
X001853Y005888D01*
X001853Y005966D02*
X005906Y005966D01*
X005827Y005933D02*
X005827Y005933D01*
X005781Y005888D02*
X005453Y005888D01*
X005568Y005821D02*
X005568Y005821D01*
X005568Y005821D01*
X005575Y005809D02*
X005703Y005809D01*
X005649Y005731D02*
X005620Y005731D01*
X005253Y005525D02*
X005252Y005525D01*
X005250Y005524D01*
X005250Y005522D01*
X005952Y005103D02*
X006548Y005103D01*
X006510Y005024D02*
X005990Y005024D01*
X005990Y004946D02*
X006510Y004946D01*
X006510Y004867D02*
X006204Y004867D01*
X006280Y004789D02*
X006302Y004789D01*
X006498Y004789D02*
X006510Y004789D01*
X006405Y004580D02*
X006750Y004580D01*
X006405Y004580D02*
X006403Y004579D01*
X006401Y004578D01*
X006400Y004575D01*
X008490Y004553D02*
X008765Y004553D01*
X008765Y004538D02*
X008888Y004415D01*
X009060Y004415D01*
X009060Y004145D01*
X009130Y004075D01*
X009470Y004075D01*
X009540Y004145D01*
X009540Y005115D01*
X009470Y005185D01*
X009130Y005185D01*
X009060Y005115D01*
X009060Y004835D01*
X008888Y004835D01*
X008765Y004712D01*
X008765Y004538D01*
X008829Y004475D02*
X008490Y004475D01*
X008490Y004396D02*
X009060Y004396D01*
X009060Y004318D02*
X008490Y004318D01*
X008490Y004239D02*
X009060Y004239D01*
X009060Y004161D02*
X008490Y004161D01*
X008477Y004082D02*
X009123Y004082D01*
X009477Y004082D02*
X009623Y004082D01*
X009630Y004075D02*
X009970Y004075D01*
X010040Y004145D01*
X010040Y005115D01*
X009970Y005185D01*
X009630Y005185D01*
X009560Y005115D01*
X009560Y004145D01*
X009630Y004075D01*
X009560Y004161D02*
X009540Y004161D01*
X009540Y004239D02*
X009560Y004239D01*
X009560Y004318D02*
X009540Y004318D01*
X009540Y004396D02*
X009560Y004396D01*
X009560Y004475D02*
X009540Y004475D01*
X009540Y004553D02*
X009560Y004553D01*
X009560Y004632D02*
X009540Y004632D01*
X009540Y004710D02*
X009560Y004710D01*
X009560Y004789D02*
X009540Y004789D01*
X009540Y004867D02*
X009560Y004867D01*
X009560Y004946D02*
X009540Y004946D01*
X009540Y005024D02*
X009560Y005024D01*
X009560Y005103D02*
X009540Y005103D01*
X009474Y005181D02*
X009626Y005181D01*
X009974Y005181D02*
X010126Y005181D01*
X010060Y005103D02*
X010040Y005103D01*
X010040Y005024D02*
X010060Y005024D01*
X010060Y004946D02*
X010040Y004946D01*
X010040Y004867D02*
X010060Y004867D01*
X010060Y004789D02*
X010040Y004789D01*
X010040Y004710D02*
X010060Y004710D01*
X010060Y004632D02*
X010040Y004632D01*
X010040Y004553D02*
X010060Y004553D01*
X010060Y004475D02*
X010040Y004475D01*
X010040Y004396D02*
X010060Y004396D01*
X010060Y004318D02*
X010040Y004318D01*
X010040Y004239D02*
X010060Y004239D01*
X010060Y004161D02*
X010040Y004161D01*
X010099Y004082D02*
X009977Y004082D01*
X010416Y003925D02*
X013260Y003925D01*
X013260Y003847D02*
X010357Y003847D01*
X010416Y003923D02*
X010416Y003923D01*
X010437Y004004D02*
X011475Y004004D01*
X011488Y003990D02*
X011662Y003990D01*
X011785Y004113D01*
X011785Y004287D01*
X011662Y004410D01*
X011488Y004410D01*
X011365Y004287D01*
X011365Y004113D01*
X011488Y003990D01*
X011396Y004082D02*
X010977Y004082D01*
X011040Y004161D02*
X011365Y004161D01*
X011365Y004239D02*
X011040Y004239D01*
X011040Y004318D02*
X011396Y004318D01*
X011474Y004396D02*
X011040Y004396D01*
X011040Y004475D02*
X013038Y004475D01*
X012959Y004396D02*
X011676Y004396D01*
X011754Y004318D02*
X012930Y004318D01*
X012930Y004239D02*
X011785Y004239D01*
X011785Y004161D02*
X012963Y004161D01*
X013041Y004082D02*
X011754Y004082D01*
X011675Y004004D02*
X013260Y004004D01*
X013260Y004082D02*
X013239Y004082D01*
X013700Y004347D02*
X013703Y004346D01*
X013704Y004345D01*
X013705Y004342D01*
X013260Y004475D02*
X013242Y004475D01*
X013260Y004553D02*
X011040Y004553D01*
X011040Y004632D02*
X013260Y004632D01*
X013260Y004710D02*
X011040Y004710D01*
X011040Y004789D02*
X013260Y004789D01*
X013260Y004867D02*
X011040Y004867D01*
X011040Y004946D02*
X013260Y004946D01*
X013260Y005024D02*
X011040Y005024D01*
X011040Y005103D02*
X013260Y005103D01*
X013260Y005181D02*
X010974Y005181D01*
X010970Y005260D02*
X013260Y005260D01*
X013260Y005338D02*
X010970Y005338D01*
X010630Y005338D02*
X008433Y005338D01*
X008422Y005260D02*
X010630Y005260D01*
X010626Y005181D02*
X010474Y005181D01*
X010540Y005103D02*
X010560Y005103D01*
X010560Y005024D02*
X010540Y005024D01*
X010540Y004946D02*
X010560Y004946D01*
X010560Y004867D02*
X010540Y004867D01*
X010540Y004789D02*
X010560Y004789D01*
X010560Y004710D02*
X010540Y004710D01*
X010540Y004632D02*
X010560Y004632D01*
X010560Y004553D02*
X010540Y004553D01*
X010540Y004475D02*
X010560Y004475D01*
X010560Y004396D02*
X010540Y004396D01*
X010540Y004318D02*
X010560Y004318D01*
X010560Y004239D02*
X010540Y004239D01*
X010540Y004161D02*
X010560Y004161D01*
X010623Y004082D02*
X010477Y004082D01*
X010297Y003768D02*
X013260Y003768D01*
X013260Y003690D02*
X010221Y003690D01*
X010085Y003611D02*
X013260Y003611D01*
X013260Y003533D02*
X007224Y003533D01*
X007817Y003568D02*
X007817Y003568D01*
X008918Y003219D02*
X010115Y003219D01*
X009567Y003062D02*
X009533Y003062D01*
X009540Y002983D02*
X009560Y002983D01*
X009560Y002905D02*
X009540Y002905D01*
X009540Y002826D02*
X009560Y002826D01*
X009560Y002748D02*
X009540Y002748D01*
X009540Y002669D02*
X009560Y002669D01*
X009560Y002591D02*
X009540Y002591D01*
X009540Y002512D02*
X009560Y002512D01*
X009560Y002434D02*
X009540Y002434D01*
X009540Y002355D02*
X009560Y002355D01*
X009560Y002277D02*
X009540Y002277D01*
X009540Y002198D02*
X009560Y002198D01*
X009560Y002120D02*
X009540Y002120D01*
X009496Y002041D02*
X009604Y002041D01*
X009596Y001963D02*
X008438Y001963D01*
X008503Y002041D02*
X009104Y002041D01*
X009060Y002120D02*
X008510Y002120D01*
X008510Y002198D02*
X009060Y002198D01*
X009060Y002277D02*
X008510Y002277D01*
X008510Y002355D02*
X009060Y002355D01*
X009060Y002434D02*
X008510Y002434D01*
X008270Y002434D02*
X008230Y002434D01*
X008230Y002355D02*
X008270Y002355D01*
X008270Y002277D02*
X008230Y002277D01*
X008230Y002198D02*
X008270Y002198D01*
X008270Y002120D02*
X008230Y002120D01*
X008230Y002041D02*
X008270Y002041D01*
X008270Y001963D02*
X008230Y001963D01*
X007510Y002041D02*
X007490Y002041D01*
X007490Y002035D02*
X007420Y001965D01*
X007080Y001965D01*
X007010Y002035D01*
X007010Y003005D01*
X007080Y003075D01*
X007420Y003075D01*
X007490Y003005D01*
X007490Y002035D01*
X007490Y002120D02*
X007510Y002120D01*
X007510Y002198D02*
X007490Y002198D01*
X007490Y002277D02*
X007510Y002277D01*
X007510Y002355D02*
X007490Y002355D01*
X007490Y002434D02*
X007510Y002434D01*
X007510Y002512D02*
X007490Y002512D01*
X007490Y002591D02*
X007510Y002591D01*
X007510Y002669D02*
X007490Y002669D01*
X007490Y002748D02*
X007510Y002748D01*
X007510Y002826D02*
X007490Y002826D01*
X007490Y002905D02*
X007510Y002905D01*
X007510Y002983D02*
X007490Y002983D01*
X007433Y003062D02*
X007567Y003062D01*
X007933Y003062D02*
X008039Y003062D01*
X007993Y002983D02*
X007990Y002983D01*
X007990Y002905D02*
X007990Y002905D01*
X007990Y002826D02*
X007990Y002826D01*
X007990Y002748D02*
X007990Y002748D01*
X007990Y002669D02*
X007990Y002669D01*
X007990Y002591D02*
X007990Y002591D01*
X008230Y002591D02*
X008270Y002591D01*
X008270Y002669D02*
X008230Y002669D01*
X008230Y002748D02*
X008270Y002748D01*
X008270Y002826D02*
X008230Y002826D01*
X008230Y002905D02*
X008270Y002905D01*
X008270Y002983D02*
X008230Y002983D01*
X008230Y003062D02*
X008270Y003062D01*
X008461Y003062D02*
X008570Y003062D01*
X008570Y002983D02*
X008507Y002983D01*
X008510Y002905D02*
X008639Y002905D01*
X007067Y003062D02*
X006933Y003062D01*
X006990Y002983D02*
X007010Y002983D01*
X007010Y002905D02*
X006990Y002905D01*
X006990Y002826D02*
X007010Y002826D01*
X007010Y002748D02*
X006990Y002748D01*
X006990Y002669D02*
X007010Y002669D01*
X007010Y002591D02*
X006990Y002591D01*
X006990Y002512D02*
X007010Y002512D01*
X007010Y002434D02*
X006990Y002434D01*
X006990Y002355D02*
X007010Y002355D01*
X007010Y002277D02*
X006990Y002277D01*
X006990Y002198D02*
X007010Y002198D01*
X007010Y002120D02*
X006990Y002120D01*
X006990Y002041D02*
X007010Y002041D01*
X006260Y002200D02*
X006260Y002460D01*
X006040Y002434D02*
X006010Y002434D01*
X006010Y002355D02*
X006054Y002355D01*
X006010Y002277D02*
X006100Y002277D01*
X006100Y002198D02*
X006010Y002198D01*
X006260Y002200D02*
X006258Y002169D01*
X006253Y002138D01*
X006244Y002108D01*
X006232Y002079D01*
X006217Y002051D01*
X006199Y002025D01*
X006178Y002002D01*
X006155Y001981D01*
X006129Y001963D01*
X006101Y001948D01*
X006072Y001936D01*
X006042Y001927D01*
X006011Y001922D01*
X005980Y001920D01*
X005798Y001727D02*
X005760Y001727D01*
X005760Y001649D02*
X005776Y001649D01*
X005776Y001570D02*
X005760Y001570D01*
X005760Y001492D02*
X005790Y001492D01*
X005796Y001413D02*
X005760Y001413D01*
X005760Y001335D02*
X005796Y001335D01*
X005796Y001256D02*
X005760Y001256D01*
X005760Y001178D02*
X005906Y001178D01*
X005865Y001099D02*
X005760Y001099D01*
X006075Y001050D02*
X006228Y001050D01*
X006227Y001050D02*
X006241Y001049D01*
X006255Y001051D01*
X006267Y001056D01*
X006279Y001063D01*
X006288Y001073D01*
X006295Y001084D01*
X006300Y001097D01*
X006300Y001098D02*
X006301Y001078D01*
X006305Y001059D01*
X006313Y001040D01*
X006322Y001024D01*
X006335Y001008D01*
X006350Y000995D01*
X006366Y000985D01*
X006384Y000977D01*
X006403Y000972D01*
X006422Y000970D01*
X007565Y000970D01*
X007518Y000785D02*
X007482Y000785D01*
X007482Y000707D02*
X007518Y000707D01*
X007565Y000970D02*
X007596Y000965D01*
X007626Y000956D01*
X007655Y000943D01*
X007683Y000927D01*
X007708Y000907D01*
X007730Y000885D01*
X007750Y000860D01*
X007766Y000833D01*
X007779Y000804D01*
X007789Y000774D01*
X007795Y000743D01*
X007797Y000712D01*
X007795Y000680D01*
X008073Y000707D02*
X008962Y000707D01*
X009023Y000628D02*
X008073Y000628D01*
X008073Y000550D02*
X009055Y000550D01*
X009192Y000700D02*
X008762Y001140D01*
X007440Y001140D01*
X007200Y001360D01*
X006980Y001335D02*
X006810Y001335D01*
X006810Y001413D02*
X006980Y001413D01*
X007020Y001492D02*
X006755Y001492D01*
X006600Y001400D02*
X006553Y001353D01*
X006600Y001353D02*
X006600Y001350D01*
X006600Y001400D01*
X006600Y001353D02*
X006300Y001353D01*
X006300Y001347D01*
X005985Y001347D01*
X006724Y001178D02*
X007071Y001178D01*
X006993Y001256D02*
X006803Y001256D01*
X007465Y001335D02*
X007490Y001335D01*
X007827Y001570D02*
X014046Y001570D01*
X014284Y001649D02*
X009875Y001649D01*
X009954Y001727D02*
X014404Y001727D01*
X014486Y001806D02*
X009960Y001806D01*
X009960Y001884D02*
X014549Y001884D01*
X014661Y002120D02*
X011060Y002120D01*
X011060Y002198D02*
X014681Y002198D01*
X014690Y002277D02*
X011060Y002277D01*
X011060Y002355D02*
X014690Y002355D01*
X014850Y002265D02*
X014850Y003200D01*
X014853Y003197D01*
X014853Y003175D01*
X014850Y003200D02*
X014850Y003250D01*
X015014Y003302D02*
X015019Y003361D01*
X015098Y003561D01*
X015247Y003717D01*
X015265Y003724D01*
X015176Y003585D01*
X015176Y003365D01*
X015266Y003225D01*
X015176Y003085D01*
X015176Y003082D01*
X015101Y003051D01*
X015101Y003051D01*
X015010Y002960D01*
X015010Y003044D01*
X015022Y003056D01*
X015022Y003294D01*
X015014Y003302D01*
X015019Y003297D02*
X015220Y003297D01*
X015262Y003219D02*
X015022Y003219D01*
X015022Y003140D02*
X015211Y003140D01*
X015127Y003062D02*
X015022Y003062D01*
X015010Y002983D02*
X015033Y002983D01*
X015415Y002975D02*
X015550Y002975D01*
X014850Y003250D02*
X014851Y003301D01*
X014856Y003352D01*
X014864Y003402D01*
X014875Y003452D01*
X014891Y003500D01*
X014909Y003548D01*
X014931Y003594D01*
X014957Y003638D01*
X014985Y003680D01*
X015016Y003720D01*
X015050Y003758D01*
X015087Y003794D01*
X015126Y003826D01*
X015167Y003856D01*
X015210Y003883D01*
X015255Y003906D01*
X015302Y003927D01*
X015350Y003943D01*
X015399Y003957D01*
X015449Y003967D01*
X015500Y003973D01*
X015550Y003976D01*
X015224Y004161D02*
X014573Y004161D01*
X014573Y004202D02*
X014502Y004272D01*
X014475Y004272D01*
X014475Y004507D01*
X014521Y004553D01*
X014569Y004553D01*
X015176Y004553D01*
X015176Y004585D02*
X015176Y004365D01*
X015266Y004225D01*
X015176Y004085D01*
X015176Y004046D01*
X015055Y003993D01*
X014814Y003744D01*
X014687Y003421D01*
X014688Y003364D01*
X014573Y003364D01*
X014573Y003377D01*
X014502Y003447D01*
X014475Y003447D01*
X014475Y003718D01*
X014502Y003718D01*
X014573Y003788D01*
X014573Y004202D01*
X014536Y004239D02*
X015257Y004239D01*
X015206Y004318D02*
X014475Y004318D01*
X014475Y004396D02*
X015176Y004396D01*
X015176Y004475D02*
X014475Y004475D01*
X014569Y004553D02*
X014639Y004623D01*
X014639Y004789D01*
X014663Y004765D01*
X014837Y004765D01*
X014887Y004815D01*
X015208Y004815D01*
X015266Y004725D01*
X015176Y004585D01*
X015206Y004632D02*
X014639Y004632D01*
X014639Y004710D02*
X015256Y004710D01*
X015225Y004789D02*
X014860Y004789D01*
X014639Y004789D02*
X014639Y004789D01*
X014750Y004975D02*
X014747Y004978D01*
X014450Y004978D01*
X014750Y004975D02*
X015550Y004975D01*
X015795Y005270D02*
X015795Y005270D01*
X015712Y005330D02*
X015712Y005330D01*
X015708Y005338D02*
X015892Y005338D01*
X015863Y005417D02*
X015737Y005417D01*
X015737Y005495D02*
X015863Y005495D01*
X015876Y005574D02*
X015724Y005574D01*
X015691Y005652D02*
X015909Y005652D01*
X015979Y005731D02*
X015621Y005731D01*
X013859Y005888D02*
X017500Y005888D01*
X017500Y005966D02*
X013780Y005966D01*
X013702Y006045D02*
X017500Y006045D01*
X017500Y006123D02*
X013623Y006123D01*
X013545Y006202D02*
X017500Y006202D01*
X017500Y006280D02*
X013466Y006280D01*
X013388Y006359D02*
X017500Y006359D01*
X017500Y006437D02*
X013309Y006437D01*
X013231Y006516D02*
X017500Y006516D01*
X017500Y006594D02*
X005852Y006594D01*
X005840Y006673D02*
X017500Y006673D01*
X017500Y006751D02*
X005780Y006751D01*
X005460Y006751D02*
X001311Y006751D01*
X001501Y006673D02*
X005400Y006673D01*
X005400Y006594D02*
X003268Y006594D01*
X003213Y006617D02*
X003087Y006617D01*
X002971Y006569D01*
X002881Y006479D01*
X002833Y006363D01*
X002833Y006237D01*
X002881Y006121D01*
X002971Y006031D01*
X003087Y005983D01*
X003213Y005983D01*
X003329Y006031D01*
X003419Y006121D01*
X003467Y006237D01*
X003467Y006363D01*
X003419Y006479D01*
X003329Y006569D01*
X003213Y006617D01*
X003032Y006594D02*
X001594Y006594D01*
X001673Y006516D02*
X002917Y006516D01*
X002864Y006437D02*
X001744Y006437D01*
X001776Y006359D02*
X002833Y006359D01*
X002833Y006280D02*
X001809Y006280D01*
X001841Y006202D02*
X002848Y006202D01*
X002880Y006123D02*
X001853Y006123D01*
X001853Y006045D02*
X002957Y006045D01*
X003343Y006045D02*
X005224Y006045D01*
X005146Y006123D02*
X003420Y006123D01*
X003452Y006202D02*
X005120Y006202D01*
X005120Y006280D02*
X003467Y006280D01*
X003467Y006359D02*
X005147Y006359D01*
X005226Y006437D02*
X003436Y006437D01*
X003383Y006516D02*
X005400Y006516D01*
X005454Y006437D02*
X005472Y006437D01*
X005620Y006600D02*
X005820Y006400D01*
X013120Y006400D01*
X013700Y005820D01*
X013700Y004603D01*
X014573Y004082D02*
X015176Y004082D01*
X015078Y004004D02*
X014573Y004004D01*
X014573Y003925D02*
X014989Y003925D01*
X015055Y003993D02*
X015055Y003993D01*
X014913Y003847D02*
X014573Y003847D01*
X014553Y003768D02*
X014838Y003768D01*
X014793Y003690D02*
X014475Y003690D01*
X014475Y003611D02*
X014762Y003611D01*
X014731Y003533D02*
X014475Y003533D01*
X014475Y003454D02*
X014700Y003454D01*
X014688Y003376D02*
X014573Y003376D01*
X015024Y003376D02*
X015176Y003376D01*
X015176Y003454D02*
X015055Y003454D01*
X015086Y003533D02*
X015176Y003533D01*
X015193Y003611D02*
X015146Y003611D01*
X015098Y003561D02*
X015098Y003561D01*
X015221Y003690D02*
X015243Y003690D01*
X016333Y003725D02*
X016378Y003764D01*
X016378Y003764D01*
X016440Y003975D01*
X016378Y004186D01*
X016333Y004225D01*
X016378Y004264D01*
X016378Y004264D01*
X016393Y004315D01*
X016649Y004315D01*
X016709Y004255D01*
X016886Y004255D01*
X016886Y004123D01*
X016906Y004103D01*
X016865Y004062D01*
X016865Y003888D01*
X016906Y003847D01*
X016886Y003827D01*
X016886Y003675D01*
X016866Y003695D01*
X016684Y003695D01*
X016624Y003635D01*
X016393Y003635D01*
X016378Y003686D01*
X016333Y003725D01*
X016374Y003690D02*
X016678Y003690D01*
X016872Y003690D02*
X016886Y003690D01*
X016886Y003768D02*
X016379Y003768D01*
X016402Y003847D02*
X016906Y003847D01*
X016865Y003925D02*
X016425Y003925D01*
X016432Y004004D02*
X016865Y004004D01*
X016885Y004082D02*
X016409Y004082D01*
X016386Y004161D02*
X016886Y004161D01*
X016886Y004239D02*
X016349Y004239D01*
X016378Y004186D02*
X016378Y004186D01*
X017075Y004222D02*
X017075Y003975D01*
X017075Y003728D01*
X016378Y003686D02*
X016378Y003686D01*
X014597Y003175D02*
X014300Y003175D01*
X014298Y003174D01*
X014296Y003173D01*
X014295Y003170D01*
X014573Y002983D02*
X014690Y002983D01*
X014690Y002905D02*
X014514Y002905D01*
X014480Y002826D02*
X014690Y002826D01*
X014690Y002748D02*
X014510Y002748D01*
X014510Y002669D02*
X014690Y002669D01*
X014690Y002591D02*
X014510Y002591D01*
X014301Y002675D02*
X014297Y002681D01*
X014296Y002687D01*
X014297Y002694D01*
X014301Y002699D01*
X013705Y002833D02*
X013705Y003170D01*
X013260Y002963D02*
X013260Y002962D01*
X013259Y002962D01*
X013260Y002963D01*
X013020Y002983D02*
X012788Y002983D01*
X012840Y002931D02*
X012711Y003060D01*
X012529Y003060D01*
X012400Y002931D01*
X012400Y002749D01*
X012529Y002620D01*
X012711Y002620D01*
X012840Y002749D01*
X012840Y002931D01*
X012840Y002905D02*
X012983Y002905D01*
X012940Y002826D02*
X012840Y002826D01*
X012839Y002748D02*
X012940Y002748D01*
X012959Y002669D02*
X012760Y002669D01*
X012480Y002669D02*
X011966Y002669D01*
X011927Y002630D02*
X011753Y002630D01*
X011630Y002753D01*
X011630Y002927D01*
X011753Y003050D01*
X011927Y003050D01*
X012050Y002927D01*
X012050Y002753D01*
X011927Y002630D01*
X011714Y002669D02*
X011060Y002669D01*
X011060Y002591D02*
X013038Y002591D01*
X013262Y002591D02*
X013283Y002591D01*
X013362Y002512D02*
X011060Y002512D01*
X011060Y002434D02*
X013440Y002434D01*
X013528Y002572D02*
X013420Y002680D01*
X013420Y005860D01*
X013040Y006240D01*
X005340Y006240D01*
X005456Y006045D02*
X010598Y006045D01*
X010466Y006023D02*
X010466Y006023D01*
X010956Y005809D02*
X011169Y005809D01*
X011115Y005888D02*
X011010Y005888D01*
X011010Y005966D02*
X011115Y005966D01*
X011123Y006045D02*
X011002Y006045D01*
X011527Y006045D02*
X013009Y006045D01*
X013088Y005966D02*
X011535Y005966D01*
X011535Y005888D02*
X013166Y005888D01*
X013245Y005809D02*
X011481Y005809D01*
X010956Y005574D02*
X013260Y005574D01*
X013260Y005652D02*
X010921Y005652D01*
X010886Y005731D02*
X013260Y005731D01*
X010966Y005551D02*
X010966Y005551D01*
X010613Y005495D02*
X008504Y005495D01*
X008467Y005417D02*
X010630Y005417D01*
X010574Y005574D02*
X008586Y005574D01*
X008731Y005652D02*
X010471Y005652D01*
X009126Y005181D02*
X008420Y005181D01*
X008452Y005103D02*
X009060Y005103D01*
X009060Y005024D02*
X008490Y005024D01*
X008490Y004946D02*
X009060Y004946D01*
X009060Y004867D02*
X008490Y004867D01*
X008490Y004789D02*
X008842Y004789D01*
X008765Y004710D02*
X008490Y004710D01*
X008490Y004632D02*
X008765Y004632D01*
X008980Y004630D02*
X009300Y004630D01*
X008980Y004630D02*
X008978Y004629D01*
X008976Y004628D01*
X008975Y004625D01*
X010013Y003569D02*
X010013Y003569D01*
X010780Y003140D02*
X010820Y003140D01*
X010820Y003062D02*
X010780Y003062D01*
X010780Y002983D02*
X010820Y002983D01*
X010820Y002905D02*
X010780Y002905D01*
X010780Y002826D02*
X010820Y002826D01*
X010820Y002748D02*
X010780Y002748D01*
X010780Y002669D02*
X010820Y002669D01*
X010820Y002591D02*
X010780Y002591D01*
X010780Y002512D02*
X010820Y002512D01*
X010820Y002434D02*
X010780Y002434D01*
X010780Y002355D02*
X010820Y002355D01*
X010820Y002277D02*
X010780Y002277D01*
X010780Y002198D02*
X010820Y002198D01*
X010820Y002120D02*
X010780Y002120D01*
X011060Y002748D02*
X011636Y002748D01*
X011630Y002826D02*
X011060Y002826D01*
X011060Y002905D02*
X011630Y002905D01*
X011686Y002983D02*
X011060Y002983D01*
X011049Y003062D02*
X012942Y003062D01*
X012940Y003140D02*
X010957Y003140D01*
X011994Y002983D02*
X012452Y002983D01*
X012400Y002905D02*
X012050Y002905D01*
X012050Y002826D02*
X012400Y002826D01*
X012401Y002748D02*
X012044Y002748D01*
X013528Y002572D02*
X013700Y002572D01*
X013700Y002828D02*
X013703Y002829D01*
X013704Y002831D01*
X013705Y002833D01*
X015020Y002580D02*
X015020Y002270D01*
X015180Y002277D02*
X015522Y002277D01*
X015485Y002355D02*
X015180Y002355D01*
X015180Y002434D02*
X015463Y002434D01*
X015463Y002512D02*
X015180Y002512D01*
X015181Y002591D02*
X015483Y002591D01*
X015415Y002975D02*
X015376Y002973D01*
X015338Y002967D01*
X015300Y002958D01*
X015264Y002945D01*
X015229Y002928D01*
X015196Y002908D01*
X015164Y002885D01*
X015136Y002859D01*
X015110Y002831D01*
X015087Y002799D01*
X015067Y002766D01*
X015050Y002731D01*
X015037Y002695D01*
X015028Y002657D01*
X015022Y002619D01*
X015020Y002580D01*
X015202Y002669D02*
X015319Y002669D01*
X015295Y002680D02*
X015295Y002680D01*
X015180Y002198D02*
X015601Y002198D01*
X015020Y002270D02*
X015018Y002204D01*
X015013Y002139D01*
X015003Y002074D01*
X014991Y002010D01*
X014974Y001946D01*
X014954Y001884D01*
X014931Y001822D01*
X014904Y001762D01*
X014874Y001704D01*
X014841Y001648D01*
X014804Y001593D01*
X014765Y001541D01*
X014722Y001490D01*
X014677Y001443D01*
X014630Y001398D01*
X014579Y001355D01*
X014527Y001316D01*
X014472Y001279D01*
X014416Y001246D01*
X014358Y001216D01*
X014298Y001189D01*
X014236Y001166D01*
X014174Y001146D01*
X014110Y001129D01*
X014046Y001117D01*
X013981Y001107D01*
X013916Y001102D01*
X013850Y001100D01*
X013261Y000942D02*
X010638Y000942D01*
X009324Y000864D02*
X009316Y000864D01*
X008885Y000785D02*
X008073Y000785D01*
X008073Y000864D02*
X008809Y000864D01*
X008732Y000942D02*
X008018Y000942D01*
X007200Y000725D02*
X007205Y000680D01*
X007482Y000628D02*
X007518Y000628D01*
X007518Y000550D02*
X007482Y000550D01*
X007480Y000471D02*
X007520Y000471D01*
X008071Y000471D02*
X009549Y000471D01*
X006929Y000471D02*
X005491Y000471D01*
X004993Y000600D02*
X004957Y000600D01*
X004957Y000942D01*
X004993Y000942D02*
X004993Y000600D01*
X004993Y000628D02*
X004957Y000628D01*
X004957Y000707D02*
X004993Y000707D01*
X004993Y000785D02*
X004957Y000785D01*
X004957Y000864D02*
X004993Y000864D01*
X004680Y000735D02*
X004348Y000735D01*
X004095Y000718D02*
X004091Y000723D01*
X004090Y000729D01*
X004092Y000735D01*
X004095Y000718D02*
X004095Y000950D01*
X002509Y000942D02*
X002491Y000942D01*
X002491Y000864D02*
X002509Y000864D01*
X002509Y001021D02*
X002491Y001021D01*
X005798Y000942D02*
X005886Y000942D01*
X006207Y000885D02*
X006212Y000890D01*
X006214Y000890D01*
X006221Y000885D01*
X006207Y000885D01*
X006709Y000550D02*
X006741Y000550D01*
X006067Y002120D02*
X006010Y002120D01*
X006040Y002512D02*
X005770Y002512D01*
X006010Y002591D02*
X006079Y002591D01*
X006010Y002669D02*
X006158Y002669D01*
X005490Y002669D02*
X005490Y002669D01*
X005490Y002591D02*
X005490Y002591D01*
X005490Y002748D02*
X005490Y002748D01*
X005490Y002826D02*
X005490Y002826D01*
X005490Y002905D02*
X005490Y002905D01*
X005490Y002920D02*
X005490Y002920D01*
X008197Y005809D02*
X008328Y005809D01*
X008410Y005888D02*
X008125Y005888D01*
X008124Y005888D02*
X008124Y005888D01*
X007957Y005966D02*
X008577Y005966D01*
X008433Y005910D02*
X008433Y005910D01*
X016050Y004475D02*
X016800Y004475D01*
X017072Y004475D01*
X017075Y004478D01*
X016863Y001167D02*
X016737Y001167D01*
X016621Y001119D01*
X016531Y001029D01*
X016483Y000913D01*
X016483Y000787D01*
X016531Y000671D01*
X016621Y000581D01*
X016737Y000533D01*
X016863Y000533D01*
X016979Y000581D01*
X017069Y000671D01*
X017117Y000787D01*
X017117Y000913D01*
X017069Y001029D01*
X016979Y001119D01*
X016863Y001167D01*
X016999Y001099D02*
X017500Y001099D01*
X017500Y001021D02*
X017072Y001021D01*
X017105Y000942D02*
X017500Y000942D01*
X017500Y000864D02*
X017117Y000864D01*
X017116Y000785D02*
X017500Y000785D01*
X017500Y000707D02*
X017084Y000707D01*
X017026Y000628D02*
X017500Y000628D01*
X017500Y000550D02*
X016903Y000550D01*
X016697Y000550D02*
X014769Y000550D01*
X014753Y000541D02*
X014753Y000541D01*
X014918Y000628D02*
X016574Y000628D01*
X016516Y000707D02*
X014992Y000707D01*
X015042Y000785D02*
X016484Y000785D01*
X016483Y000864D02*
X015120Y000864D01*
X015130Y000942D02*
X016495Y000942D01*
X016528Y001021D02*
X015130Y001021D01*
X015078Y001099D02*
X016601Y001099D01*
D26*
X015450Y000900D03*
X016150Y001575D03*
X012620Y002840D03*
X012340Y003250D03*
X012830Y003435D03*
X012405Y003850D03*
X011985Y004275D03*
X011000Y003400D03*
X011200Y002950D03*
X008650Y002100D03*
X007200Y001360D03*
X006900Y001335D03*
X004880Y001795D03*
X004700Y001175D03*
X003610Y000700D03*
X001900Y000700D03*
X006260Y002460D03*
X005420Y003140D03*
X005700Y003375D03*
X006250Y003375D03*
X006800Y003375D03*
X007100Y003720D03*
X006400Y004575D03*
X006060Y004700D03*
X009300Y005450D03*
X012225Y005200D03*
X014400Y005620D03*
X016800Y004475D03*
X016525Y004225D03*
X016785Y003970D03*
X016525Y003750D03*
X016775Y003475D03*
X016650Y006800D03*
X014400Y006800D03*
X011950Y006800D03*
X009300Y006800D03*
X006950Y006800D03*
X005620Y006600D03*
X004700Y006750D03*
X005340Y006240D03*
X002550Y006750D03*
D27*
X003167Y005342D02*
X003167Y004685D01*
X003592Y005350D02*
X004175Y005350D01*
X002975Y002794D02*
X002975Y002120D01*
X003664Y002120D01*
X003620Y002120D02*
X003840Y002120D01*
X004160Y001800D01*
X004480Y001800D01*
X016050Y003975D02*
X016475Y003975D01*
X016475Y004000D01*
D28*
X014450Y004722D02*
X014295Y004567D01*
X013705Y004342D02*
X013705Y003995D01*
X010800Y004630D02*
X010800Y005425D01*
X010801Y005426D02*
X010798Y005466D01*
X010791Y005506D01*
X010781Y005545D01*
X010767Y005583D01*
X010749Y005619D01*
X010729Y005654D01*
X010705Y005687D01*
X010678Y005717D01*
X010649Y005745D01*
X010617Y005770D01*
X010583Y005792D01*
X010547Y005810D01*
X010509Y005826D01*
X010471Y005838D01*
X010431Y005846D01*
X010391Y005850D01*
X010350Y005851D01*
X010350Y005850D02*
X008875Y005850D01*
X007700Y005850D02*
X006150Y005850D01*
X006111Y005848D01*
X006072Y005842D01*
X006034Y005833D01*
X005997Y005820D01*
X005961Y005803D01*
X005928Y005783D01*
X005896Y005759D01*
X005867Y005733D01*
X005841Y005704D01*
X005817Y005672D01*
X005797Y005639D01*
X005780Y005603D01*
X005767Y005566D01*
X005758Y005528D01*
X005752Y005489D01*
X005750Y005450D01*
X005750Y004580D01*
X005250Y004580D02*
X005250Y004045D01*
X005249Y004011D01*
X005252Y003978D01*
X005259Y003945D01*
X005269Y003912D01*
X005283Y003882D01*
X005300Y003853D01*
X005320Y003826D01*
X005343Y003801D01*
X005369Y003779D01*
X005397Y003761D01*
X005427Y003745D01*
X005459Y003733D01*
X005492Y003725D01*
X005525Y003720D01*
X007100Y003720D01*
X007120Y003720D01*
X007550Y003720D01*
X007750Y003895D02*
X007750Y003990D01*
X007750Y004580D01*
X008250Y004580D02*
X008250Y005250D01*
X008251Y005295D01*
X008247Y005340D01*
X008240Y005385D01*
X008230Y005429D01*
X008216Y005472D01*
X008199Y005514D01*
X008179Y005554D01*
X008155Y005593D01*
X008129Y005630D01*
X008100Y005664D01*
X008068Y005696D01*
X008033Y005726D01*
X007997Y005753D01*
X007959Y005776D01*
X007918Y005797D01*
X007877Y005815D01*
X007834Y005829D01*
X007790Y005839D01*
X007745Y005847D01*
X007700Y005850D01*
X008250Y005251D02*
X008253Y005299D01*
X008260Y005346D01*
X008270Y005393D01*
X008284Y005439D01*
X008302Y005484D01*
X008323Y005527D01*
X008347Y005569D01*
X008375Y005608D01*
X008405Y005646D01*
X008438Y005680D01*
X008474Y005712D01*
X008513Y005741D01*
X008553Y005767D01*
X008596Y005790D01*
X008640Y005809D01*
X008686Y005825D01*
X008732Y005837D01*
X008779Y005845D01*
X008827Y005850D01*
X008876Y005851D01*
X010300Y004630D02*
X010300Y004300D01*
X010301Y004301D02*
X010304Y004258D01*
X010305Y004215D01*
X010301Y004173D01*
X010295Y004130D01*
X010285Y004089D01*
X010271Y004048D01*
X010254Y004009D01*
X010234Y003971D01*
X010211Y003936D01*
X010185Y003902D01*
X010156Y003870D01*
X010125Y003841D01*
X010091Y003814D01*
X010056Y003791D01*
X010018Y003770D01*
X009979Y003753D01*
X009939Y003739D01*
X009898Y003728D01*
X009856Y003720D01*
X009855Y003720D02*
X007950Y003720D01*
X007922Y003726D01*
X007895Y003735D01*
X007869Y003747D01*
X007845Y003763D01*
X007822Y003781D01*
X007803Y003802D01*
X007786Y003825D01*
X007771Y003850D01*
X007760Y003877D01*
X007752Y003904D01*
X007748Y003933D01*
X007747Y003961D01*
X007750Y003990D01*
X007751Y003895D02*
X007747Y003869D01*
X007739Y003843D01*
X007728Y003819D01*
X007714Y003796D01*
X007697Y003776D01*
X007676Y003758D01*
X007654Y003743D01*
X007630Y003732D01*
X007604Y003724D01*
X007577Y003721D01*
X007550Y003720D01*
X007200Y000725D02*
X006853Y000725D01*
X009448Y000700D02*
X009805Y000700D01*
D29*
X014300Y002700D02*
X014300Y003175D01*
X014295Y003170D02*
X014295Y003995D01*
X014295Y004567D01*
D30*
X004175Y005350D03*
M02*
