G75*
%MOIN*%
%OFA0B0*%
%FSLAX24Y24*%
%IPPOS*%
%LPD*%
%AMOC8*
5,1,8,0,0,1.08239X$1,22.5*
%
%ADD10C,0.0050*%
%ADD11C,0.0080*%
%ADD12C,0.0060*%
%ADD13C,0.0039*%
%ADD14R,0.0039X0.0118*%
%ADD15R,0.0236X0.0039*%
%ADD16R,0.0197X0.0079*%
%ADD17R,0.0039X0.0394*%
%ADD18R,0.0118X0.0039*%
%ADD19R,0.0039X0.0236*%
%ADD20R,0.0079X0.0197*%
%ADD21R,0.0394X0.0039*%
D10*
X003534Y001775D02*
X003536Y001793D01*
X003541Y001810D01*
X003550Y001826D01*
X003562Y001839D01*
X003577Y001849D01*
X003593Y001857D01*
X003611Y001861D01*
X003629Y001861D01*
X003647Y001857D01*
X003663Y001849D01*
X003678Y001839D01*
X003690Y001826D01*
X003699Y001810D01*
X003704Y001793D01*
X003706Y001775D01*
X003704Y001757D01*
X003699Y001740D01*
X003690Y001724D01*
X003678Y001711D01*
X003663Y001701D01*
X003647Y001693D01*
X003629Y001689D01*
X003611Y001689D01*
X003593Y001693D01*
X003577Y001701D01*
X003562Y001711D01*
X003550Y001724D01*
X003541Y001740D01*
X003536Y001757D01*
X003534Y001775D01*
X003610Y001775D02*
X003612Y001780D01*
X003616Y001784D01*
X003621Y001785D01*
X003627Y001783D01*
X003630Y001778D01*
X003630Y001772D01*
X003627Y001767D01*
X003621Y001765D01*
X003616Y001766D01*
X003612Y001770D01*
X003610Y001775D01*
X003570Y001775D02*
X003572Y001788D01*
X003577Y001801D01*
X003586Y001812D01*
X003597Y001819D01*
X003610Y001824D01*
X003623Y001825D01*
X003637Y001822D01*
X003649Y001816D01*
X003659Y001807D01*
X003666Y001795D01*
X003670Y001782D01*
X003670Y001768D01*
X003666Y001755D01*
X003659Y001743D01*
X003649Y001734D01*
X003637Y001728D01*
X003623Y001725D01*
X003610Y001726D01*
X003597Y001731D01*
X003586Y001738D01*
X003577Y001749D01*
X003572Y001762D01*
X003570Y001775D01*
X003469Y003406D02*
X003469Y004194D01*
X003449Y004194D02*
X003451Y004202D01*
X003456Y004209D01*
X003463Y004213D01*
X003471Y004214D01*
X003479Y004211D01*
X003485Y004206D01*
X003489Y004198D01*
X003489Y004190D01*
X003485Y004182D01*
X003479Y004177D01*
X003471Y004174D01*
X003463Y004175D01*
X003456Y004179D01*
X003451Y004186D01*
X003449Y004194D01*
X002681Y004194D02*
X002681Y003406D01*
X016800Y002475D02*
X016800Y005475D01*
D11*
X013933Y004176D02*
X013933Y003995D01*
X014055Y004087D01*
X013933Y003995D02*
X013933Y003814D01*
X014055Y003909D02*
X013939Y003985D01*
X013933Y003351D02*
X013933Y003170D01*
X014055Y003262D01*
X013933Y003170D02*
X013933Y002989D01*
X014055Y003084D02*
X013939Y003160D01*
X009283Y003210D02*
X009285Y003225D01*
X009291Y003238D01*
X009300Y003250D01*
X009311Y003259D01*
X009325Y003265D01*
X009340Y003267D01*
X009355Y003265D01*
X009368Y003259D01*
X009380Y003250D01*
X009389Y003239D01*
X009395Y003225D01*
X009397Y003210D01*
X009395Y003195D01*
X009389Y003182D01*
X009380Y003170D01*
X009369Y003161D01*
X009355Y003155D01*
X009340Y003153D01*
X009325Y003155D01*
X009312Y003161D01*
X009300Y003170D01*
X009291Y003181D01*
X009285Y003195D01*
X009283Y003210D01*
X006733Y003160D02*
X006735Y003175D01*
X006741Y003188D01*
X006750Y003200D01*
X006761Y003209D01*
X006775Y003215D01*
X006790Y003217D01*
X006805Y003215D01*
X006818Y003209D01*
X006830Y003200D01*
X006839Y003189D01*
X006845Y003175D01*
X006847Y003160D01*
X006845Y003145D01*
X006839Y003132D01*
X006830Y003120D01*
X006819Y003111D01*
X006805Y003105D01*
X006790Y003103D01*
X006775Y003105D01*
X006762Y003111D01*
X006750Y003120D01*
X006741Y003131D01*
X006735Y003145D01*
X006733Y003160D01*
X004233Y003160D02*
X004235Y003175D01*
X004241Y003188D01*
X004250Y003200D01*
X004261Y003209D01*
X004275Y003215D01*
X004290Y003217D01*
X004305Y003215D01*
X004318Y003209D01*
X004330Y003200D01*
X004339Y003189D01*
X004345Y003175D01*
X004347Y003160D01*
X004345Y003145D01*
X004339Y003132D01*
X004330Y003120D01*
X004319Y003111D01*
X004305Y003105D01*
X004290Y003103D01*
X004275Y003105D01*
X004262Y003111D01*
X004250Y003120D01*
X004241Y003131D01*
X004235Y003145D01*
X004233Y003160D01*
X003578Y004194D02*
X003580Y004212D01*
X003586Y004230D01*
X003595Y004246D01*
X003607Y004259D01*
X003622Y004270D01*
X003639Y004278D01*
X003657Y004282D01*
X003675Y004282D01*
X003693Y004278D01*
X003710Y004270D01*
X003725Y004259D01*
X003737Y004246D01*
X003746Y004230D01*
X003752Y004212D01*
X003754Y004194D01*
X003752Y004176D01*
X003746Y004158D01*
X003737Y004142D01*
X003725Y004129D01*
X003710Y004118D01*
X003693Y004110D01*
X003675Y004106D01*
X003657Y004106D01*
X003639Y004110D01*
X003622Y004118D01*
X003607Y004129D01*
X003595Y004142D01*
X003586Y004158D01*
X003580Y004176D01*
X003578Y004194D01*
X001494Y005315D02*
X001494Y002165D01*
X002794Y001758D02*
X002975Y001758D01*
X002883Y001880D01*
X002985Y001764D02*
X003061Y001880D01*
X002975Y001758D02*
X003156Y001758D01*
X004908Y000916D02*
X004908Y000735D01*
X005030Y000827D01*
X004908Y000735D02*
X004908Y000554D01*
X005030Y000649D02*
X004914Y000725D01*
X007433Y000680D02*
X007433Y000499D01*
X007555Y000594D02*
X007439Y000670D01*
X007433Y000680D02*
X007555Y000772D01*
X007433Y000861D02*
X007433Y000680D01*
X010033Y000700D02*
X010033Y000519D01*
X010155Y000614D02*
X010039Y000690D01*
X010033Y000700D02*
X010155Y000792D01*
X010033Y000881D02*
X010033Y000700D01*
X000313Y001378D02*
X-000081Y001378D01*
X-000081Y006102D01*
X000313Y006102D01*
D12*
X004070Y004260D02*
X004070Y002840D01*
X005930Y002840D02*
X005930Y004260D01*
X006570Y004260D02*
X006570Y002840D01*
X008430Y002840D02*
X008430Y004260D01*
X009120Y004310D02*
X009120Y002890D01*
X010980Y002890D02*
X010980Y004310D01*
D13*
X002677Y000926D02*
X002323Y000926D01*
X002323Y001182D01*
X002677Y001182D02*
X002677Y000926D01*
X003984Y000863D02*
X003984Y000607D01*
X004141Y000607D01*
X004299Y000607D02*
X004456Y000607D01*
X004456Y000863D01*
X004299Y000863D01*
X004141Y000863D02*
X003984Y000863D01*
X002677Y001418D02*
X002677Y001674D01*
X002323Y001674D01*
X002323Y001418D01*
X005857Y001396D02*
X005857Y001239D01*
X006113Y001239D01*
X006113Y001396D01*
X006172Y001461D02*
X006172Y001304D01*
X006428Y001304D02*
X006428Y001461D01*
X006172Y001461D01*
X006113Y001554D02*
X006113Y001711D01*
X005857Y001711D01*
X005857Y001554D01*
X006172Y001146D02*
X006172Y000989D01*
X006428Y000989D01*
X006428Y001146D01*
X006489Y000853D02*
X006489Y000597D01*
X006646Y000597D01*
X006804Y000597D02*
X006961Y000597D01*
X006961Y000853D01*
X006804Y000853D01*
X006646Y000853D02*
X006489Y000853D01*
X009084Y000828D02*
X009084Y000572D01*
X009241Y000572D01*
X009399Y000572D02*
X009556Y000572D01*
X009556Y000828D01*
X009399Y000828D01*
X009241Y000828D02*
X009084Y000828D01*
X013572Y002464D02*
X013828Y002464D01*
X013828Y002621D01*
X013572Y002621D02*
X013572Y002464D01*
X013572Y002779D02*
X013572Y002936D01*
X013828Y002936D01*
X013828Y002779D01*
X014489Y003047D02*
X014646Y003047D01*
X014489Y003047D02*
X014489Y003303D01*
X014646Y003303D01*
X014804Y003303D02*
X014961Y003303D01*
X014961Y003047D01*
X014804Y003047D01*
X016947Y003364D02*
X016947Y003521D01*
X017203Y003521D02*
X017203Y003364D01*
X016947Y003364D01*
X016947Y003679D02*
X016947Y003836D01*
X017203Y003836D01*
X017203Y003679D01*
X017203Y004114D02*
X016947Y004114D01*
X016947Y004271D01*
X017203Y004271D02*
X017203Y004114D01*
X017203Y004429D02*
X017203Y004586D01*
X016947Y004586D01*
X016947Y004429D01*
X014578Y004614D02*
X014578Y004771D01*
X014322Y004771D02*
X014322Y004614D01*
X014578Y004614D01*
X014578Y004929D02*
X014578Y005086D01*
X014322Y005086D01*
X014322Y004929D01*
X013828Y004711D02*
X013572Y004711D01*
X013572Y004554D01*
X013828Y004554D02*
X013828Y004711D01*
X013828Y004396D02*
X013828Y004239D01*
X013572Y004239D01*
X013572Y004396D01*
X005861Y005397D02*
X005861Y005653D01*
X005704Y005653D01*
X005546Y005653D02*
X005389Y005653D01*
X005389Y005397D01*
X005546Y005397D01*
X005704Y005397D02*
X005861Y005397D01*
X005361Y005397D02*
X005361Y005653D01*
X005204Y005653D01*
X005046Y005653D02*
X004889Y005653D01*
X004889Y005397D01*
X005046Y005397D01*
X005204Y005397D02*
X005361Y005397D01*
X003749Y005527D02*
X003749Y005173D01*
X003493Y005173D01*
X003257Y005173D02*
X003001Y005173D01*
X003001Y005527D01*
X003257Y005527D01*
X003493Y005527D02*
X003749Y005527D01*
X003324Y004862D02*
X003068Y004862D01*
X002832Y004862D02*
X002576Y004862D01*
X002576Y004508D01*
X002832Y004508D01*
X003068Y004508D02*
X003324Y004508D01*
X003324Y004862D01*
D14*
X005027Y005525D03*
X005223Y005525D03*
X005527Y005525D03*
X005723Y005525D03*
X014627Y003175D03*
X014823Y003175D03*
X009418Y000700D03*
X009222Y000700D03*
X006823Y000725D03*
X006627Y000725D03*
X004318Y000735D03*
X004122Y000735D03*
D15*
X004220Y000696D03*
X004220Y000774D03*
X006725Y000764D03*
X006725Y000686D03*
X009320Y000661D03*
X009320Y000739D03*
X014725Y003136D03*
X014725Y003214D03*
X005625Y005486D03*
X005625Y005564D03*
X005125Y005564D03*
X005125Y005486D03*
D16*
X002500Y001457D03*
X002500Y001143D03*
D17*
X002421Y001300D03*
X002579Y001300D03*
D18*
X005985Y001377D03*
X006300Y001323D03*
X006300Y001127D03*
X005985Y001573D03*
X013700Y002602D03*
X013700Y002798D03*
X017075Y003502D03*
X017075Y003698D03*
X017075Y004252D03*
X017075Y004448D03*
X014450Y004752D03*
X014450Y004948D03*
X013700Y004573D03*
X013700Y004377D03*
D19*
X013739Y004475D03*
X013661Y004475D03*
X014411Y004850D03*
X014489Y004850D03*
X017036Y004350D03*
X017114Y004350D03*
X017114Y003600D03*
X017036Y003600D03*
X013739Y002700D03*
X013661Y002700D03*
X006339Y001225D03*
X006261Y001225D03*
X006024Y001475D03*
X005946Y001475D03*
D20*
X003107Y004685D03*
X002793Y004685D03*
X003218Y005350D03*
X003532Y005350D03*
D21*
X003375Y005271D03*
X003375Y005429D03*
X002950Y004764D03*
X002950Y004606D03*
M02*
