G75*
%MOIN*%
%OFA0B0*%
%FSLAX24Y24*%
%IPPOS*%
%LPD*%
%AMOC8*
5,1,8,0,0,1.08239X$1,22.5*
%
%ADD10C,0.0050*%
%ADD11C,0.0080*%
%ADD12C,0.0060*%
%ADD13C,0.0020*%
%ADD14C,0.0039*%
%ADD15R,0.0039X0.0118*%
%ADD16R,0.0236X0.0039*%
%ADD17R,0.0197X0.0079*%
%ADD18R,0.0039X0.0394*%
%ADD19R,0.0118X0.0039*%
%ADD20R,0.0039X0.0236*%
%ADD21R,0.0079X0.0197*%
%ADD22R,0.0394X0.0039*%
D10*
X003534Y001775D02*
X003536Y001793D01*
X003541Y001810D01*
X003550Y001826D01*
X003562Y001839D01*
X003577Y001849D01*
X003593Y001857D01*
X003611Y001861D01*
X003629Y001861D01*
X003647Y001857D01*
X003663Y001849D01*
X003678Y001839D01*
X003690Y001826D01*
X003699Y001810D01*
X003704Y001793D01*
X003706Y001775D01*
X003704Y001757D01*
X003699Y001740D01*
X003690Y001724D01*
X003678Y001711D01*
X003663Y001701D01*
X003647Y001693D01*
X003629Y001689D01*
X003611Y001689D01*
X003593Y001693D01*
X003577Y001701D01*
X003562Y001711D01*
X003550Y001724D01*
X003541Y001740D01*
X003536Y001757D01*
X003534Y001775D01*
X003610Y001775D02*
X003612Y001780D01*
X003616Y001784D01*
X003621Y001785D01*
X003627Y001783D01*
X003630Y001778D01*
X003630Y001772D01*
X003627Y001767D01*
X003621Y001765D01*
X003616Y001766D01*
X003612Y001770D01*
X003610Y001775D01*
X003570Y001775D02*
X003572Y001788D01*
X003577Y001801D01*
X003586Y001812D01*
X003597Y001819D01*
X003610Y001824D01*
X003623Y001825D01*
X003637Y001822D01*
X003649Y001816D01*
X003659Y001807D01*
X003666Y001795D01*
X003670Y001782D01*
X003670Y001768D01*
X003666Y001755D01*
X003659Y001743D01*
X003649Y001734D01*
X003637Y001728D01*
X003623Y001725D01*
X003610Y001726D01*
X003597Y001731D01*
X003586Y001738D01*
X003577Y001749D01*
X003572Y001762D01*
X003570Y001775D01*
X003469Y003406D02*
X003469Y004194D01*
X003449Y004194D02*
X003451Y004202D01*
X003456Y004209D01*
X003463Y004213D01*
X003471Y004214D01*
X003479Y004211D01*
X003485Y004206D01*
X003489Y004198D01*
X003489Y004190D01*
X003485Y004182D01*
X003479Y004177D01*
X003471Y004174D01*
X003463Y004175D01*
X003456Y004179D01*
X003451Y004186D01*
X003449Y004194D01*
X002681Y004194D02*
X002681Y003406D01*
X016800Y002475D02*
X016800Y005475D01*
D11*
X013933Y004176D02*
X013933Y003995D01*
X014055Y004087D01*
X013933Y003995D02*
X013933Y003814D01*
X014055Y003909D02*
X013939Y003985D01*
X013933Y003351D02*
X013933Y003170D01*
X014055Y003262D01*
X013933Y003170D02*
X013933Y002989D01*
X014055Y003084D02*
X013939Y003160D01*
X009283Y003210D02*
X009285Y003225D01*
X009291Y003238D01*
X009300Y003250D01*
X009311Y003259D01*
X009325Y003265D01*
X009340Y003267D01*
X009355Y003265D01*
X009368Y003259D01*
X009380Y003250D01*
X009389Y003239D01*
X009395Y003225D01*
X009397Y003210D01*
X009395Y003195D01*
X009389Y003182D01*
X009380Y003170D01*
X009369Y003161D01*
X009355Y003155D01*
X009340Y003153D01*
X009325Y003155D01*
X009312Y003161D01*
X009300Y003170D01*
X009291Y003181D01*
X009285Y003195D01*
X009283Y003210D01*
X006733Y003160D02*
X006735Y003175D01*
X006741Y003188D01*
X006750Y003200D01*
X006761Y003209D01*
X006775Y003215D01*
X006790Y003217D01*
X006805Y003215D01*
X006818Y003209D01*
X006830Y003200D01*
X006839Y003189D01*
X006845Y003175D01*
X006847Y003160D01*
X006845Y003145D01*
X006839Y003132D01*
X006830Y003120D01*
X006819Y003111D01*
X006805Y003105D01*
X006790Y003103D01*
X006775Y003105D01*
X006762Y003111D01*
X006750Y003120D01*
X006741Y003131D01*
X006735Y003145D01*
X006733Y003160D01*
X004233Y003160D02*
X004235Y003175D01*
X004241Y003188D01*
X004250Y003200D01*
X004261Y003209D01*
X004275Y003215D01*
X004290Y003217D01*
X004305Y003215D01*
X004318Y003209D01*
X004330Y003200D01*
X004339Y003189D01*
X004345Y003175D01*
X004347Y003160D01*
X004345Y003145D01*
X004339Y003132D01*
X004330Y003120D01*
X004319Y003111D01*
X004305Y003105D01*
X004290Y003103D01*
X004275Y003105D01*
X004262Y003111D01*
X004250Y003120D01*
X004241Y003131D01*
X004235Y003145D01*
X004233Y003160D01*
X003578Y004194D02*
X003580Y004212D01*
X003586Y004230D01*
X003595Y004246D01*
X003607Y004259D01*
X003622Y004270D01*
X003639Y004278D01*
X003657Y004282D01*
X003675Y004282D01*
X003693Y004278D01*
X003710Y004270D01*
X003725Y004259D01*
X003737Y004246D01*
X003746Y004230D01*
X003752Y004212D01*
X003754Y004194D01*
X003752Y004176D01*
X003746Y004158D01*
X003737Y004142D01*
X003725Y004129D01*
X003710Y004118D01*
X003693Y004110D01*
X003675Y004106D01*
X003657Y004106D01*
X003639Y004110D01*
X003622Y004118D01*
X003607Y004129D01*
X003595Y004142D01*
X003586Y004158D01*
X003580Y004176D01*
X003578Y004194D01*
X001494Y005315D02*
X001494Y002165D01*
X002794Y001758D02*
X002975Y001758D01*
X002883Y001880D01*
X002985Y001764D02*
X003061Y001880D01*
X002975Y001758D02*
X003156Y001758D01*
X004908Y000916D02*
X004908Y000735D01*
X005030Y000827D01*
X004908Y000735D02*
X004908Y000554D01*
X005030Y000649D02*
X004914Y000725D01*
X007433Y000680D02*
X007433Y000499D01*
X007555Y000594D02*
X007439Y000670D01*
X007433Y000680D02*
X007555Y000772D01*
X007433Y000861D02*
X007433Y000680D01*
X010033Y000700D02*
X010033Y000519D01*
X010155Y000614D02*
X010039Y000690D01*
X010033Y000700D02*
X010155Y000792D01*
X010033Y000881D02*
X010033Y000700D01*
X000313Y001378D02*
X-000081Y001378D01*
X-000081Y006102D01*
X000313Y006102D01*
D12*
X004070Y004260D02*
X004070Y002840D01*
X005930Y002840D02*
X005930Y004260D01*
X006570Y004260D02*
X006570Y002840D01*
X008430Y002840D02*
X008430Y004260D01*
X009120Y004310D02*
X009120Y002890D01*
X010980Y002890D02*
X010980Y004310D01*
D13*
X002403Y000580D02*
X002310Y000580D01*
X002380Y000650D01*
X002380Y000510D01*
X002457Y000510D02*
X002457Y000533D01*
X002551Y000627D01*
X002551Y000650D01*
X002457Y000650D01*
X002481Y000720D02*
X002457Y000743D01*
X002457Y000767D01*
X002481Y000790D01*
X002527Y000790D01*
X002551Y000767D01*
X002551Y000743D01*
X002527Y000720D01*
X002481Y000720D01*
X002481Y000790D02*
X002457Y000813D01*
X002457Y000837D01*
X002481Y000860D01*
X002527Y000860D01*
X002551Y000837D01*
X002551Y000813D01*
X002527Y000790D01*
X002403Y000790D02*
X002380Y000767D01*
X002310Y000767D01*
X002357Y000767D02*
X002403Y000720D01*
X002403Y000790D02*
X002403Y000837D01*
X002380Y000860D01*
X002310Y000860D01*
X002310Y000720D01*
X002605Y000627D02*
X002605Y000533D01*
X002698Y000627D01*
X002698Y000533D01*
X002675Y000510D01*
X002628Y000510D01*
X002605Y000533D01*
X002605Y000627D02*
X002628Y000650D01*
X002675Y000650D01*
X002698Y000627D01*
X003980Y000465D02*
X004073Y000465D01*
X004127Y000418D02*
X004221Y000512D01*
X004221Y000535D01*
X004127Y000535D01*
X004050Y000535D02*
X003980Y000465D01*
X004050Y000395D02*
X004050Y000535D01*
X004275Y000512D02*
X004298Y000535D01*
X004345Y000535D01*
X004368Y000512D01*
X004275Y000418D01*
X004298Y000395D01*
X004345Y000395D01*
X004368Y000418D01*
X004368Y000512D01*
X004275Y000512D02*
X004275Y000418D01*
X004127Y000418D02*
X004127Y000395D01*
X005040Y000450D02*
X005040Y000310D01*
X005110Y000310D01*
X005134Y000333D01*
X005134Y000427D01*
X005110Y000450D01*
X005040Y000450D01*
X005188Y000380D02*
X005258Y000380D01*
X005281Y000357D01*
X005281Y000333D01*
X005258Y000310D01*
X005211Y000310D01*
X005188Y000333D01*
X005188Y000380D01*
X005234Y000427D01*
X005281Y000450D01*
X006485Y000455D02*
X006578Y000455D01*
X006632Y000408D02*
X006632Y000385D01*
X006632Y000408D02*
X006726Y000502D01*
X006726Y000525D01*
X006632Y000525D01*
X006555Y000525D02*
X006485Y000455D01*
X006555Y000385D02*
X006555Y000525D01*
X006780Y000502D02*
X006780Y000408D01*
X006873Y000502D01*
X006873Y000408D01*
X006850Y000385D01*
X006803Y000385D01*
X006780Y000408D01*
X006780Y000502D02*
X006803Y000525D01*
X006850Y000525D01*
X006873Y000502D01*
X007565Y000395D02*
X007565Y000255D01*
X007635Y000255D01*
X007659Y000278D01*
X007659Y000372D01*
X007635Y000395D01*
X007565Y000395D01*
X007713Y000325D02*
X007806Y000325D01*
X007783Y000255D02*
X007783Y000395D01*
X007713Y000325D01*
X009080Y000420D02*
X009160Y000420D01*
X009209Y000380D02*
X009209Y000360D01*
X009209Y000380D02*
X009289Y000460D01*
X009289Y000480D01*
X009209Y000480D01*
X009140Y000480D02*
X009080Y000420D01*
X009140Y000360D02*
X009140Y000480D01*
X009338Y000460D02*
X009338Y000380D01*
X009418Y000460D01*
X009418Y000380D01*
X009398Y000360D01*
X009358Y000360D01*
X009338Y000380D01*
X009338Y000460D02*
X009358Y000480D01*
X009398Y000480D01*
X009418Y000460D01*
X010165Y000415D02*
X010165Y000275D01*
X010235Y000275D01*
X010259Y000298D01*
X010259Y000392D01*
X010235Y000415D01*
X010165Y000415D01*
X010313Y000415D02*
X010313Y000345D01*
X010359Y000368D01*
X010383Y000368D01*
X010406Y000345D01*
X010406Y000298D01*
X010383Y000275D01*
X010336Y000275D01*
X010313Y000298D01*
X010313Y000415D02*
X010406Y000415D01*
X009418Y000930D02*
X009398Y000910D01*
X009358Y000910D01*
X009338Y000930D01*
X009358Y000970D02*
X009418Y000970D01*
X009418Y000930D02*
X009418Y001010D01*
X009398Y001030D01*
X009358Y001030D01*
X009338Y001010D01*
X009338Y000990D01*
X009358Y000970D01*
X009289Y000910D02*
X009209Y000910D01*
X009249Y000910D02*
X009249Y001030D01*
X009209Y000990D01*
X009160Y000970D02*
X009140Y000950D01*
X009080Y000950D01*
X009080Y000910D02*
X009080Y001030D01*
X009140Y001030D01*
X009160Y001010D01*
X009160Y000970D01*
X009120Y000950D02*
X009160Y000910D01*
X006873Y000958D02*
X006850Y000935D01*
X006803Y000935D01*
X006780Y000958D01*
X006780Y000982D01*
X006803Y001005D01*
X006850Y001005D01*
X006873Y000982D01*
X006873Y000958D01*
X006850Y001005D02*
X006873Y001028D01*
X006873Y001052D01*
X006850Y001075D01*
X006803Y001075D01*
X006780Y001052D01*
X006780Y001028D01*
X006803Y001005D01*
X006726Y000935D02*
X006632Y000935D01*
X006679Y000935D02*
X006679Y001075D01*
X006632Y001028D01*
X006578Y001005D02*
X006555Y000982D01*
X006485Y000982D01*
X006532Y000982D02*
X006578Y000935D01*
X006578Y001005D02*
X006578Y001052D01*
X006555Y001075D01*
X006485Y001075D01*
X006485Y000935D01*
X005715Y001435D02*
X005715Y001555D01*
X005795Y001555D01*
X005755Y001495D02*
X005715Y001495D01*
X005666Y001515D02*
X005666Y001435D01*
X005606Y001435D01*
X005586Y001455D01*
X005586Y001515D01*
X005537Y001515D02*
X005537Y001535D01*
X005517Y001555D01*
X005477Y001555D01*
X005457Y001535D01*
X005408Y001535D02*
X005328Y001455D01*
X005348Y001435D01*
X005388Y001435D01*
X005408Y001455D01*
X005408Y001535D01*
X005388Y001555D01*
X005348Y001555D01*
X005328Y001535D01*
X005328Y001455D01*
X005284Y001455D02*
X005284Y001435D01*
X005264Y001435D01*
X005264Y001455D01*
X005284Y001455D01*
X005215Y001455D02*
X005195Y001435D01*
X005155Y001435D01*
X005135Y001455D01*
X005215Y001535D01*
X005215Y001455D01*
X005135Y001455D02*
X005135Y001535D01*
X005155Y001555D01*
X005195Y001555D01*
X005215Y001535D01*
X005457Y001435D02*
X005537Y001515D01*
X005537Y001435D02*
X005457Y001435D01*
X005595Y001625D02*
X005635Y001625D01*
X005655Y001645D01*
X005704Y001645D02*
X005784Y001725D01*
X005784Y001745D01*
X005704Y001745D01*
X005655Y001725D02*
X005635Y001745D01*
X005595Y001745D01*
X005575Y001725D01*
X005575Y001645D01*
X005595Y001625D01*
X005704Y001625D02*
X005704Y001645D01*
X006195Y001613D02*
X006242Y001660D01*
X006242Y001520D01*
X006288Y001520D02*
X006195Y001520D01*
X006342Y001543D02*
X006436Y001637D01*
X006436Y001543D01*
X006412Y001520D01*
X006366Y001520D01*
X006342Y001543D01*
X006342Y001637D01*
X006366Y001660D01*
X006412Y001660D01*
X006436Y001637D01*
X006490Y001637D02*
X006513Y001660D01*
X006560Y001660D01*
X006583Y001637D01*
X006490Y001543D01*
X006513Y001520D01*
X006560Y001520D01*
X006583Y001543D01*
X006583Y001637D01*
X006637Y001660D02*
X006637Y001520D01*
X006637Y001567D02*
X006730Y001660D01*
X006660Y001590D02*
X006730Y001520D01*
X006490Y001543D02*
X006490Y001637D01*
X006412Y001730D02*
X006366Y001730D01*
X006342Y001753D01*
X006366Y001800D02*
X006436Y001800D01*
X006436Y001753D02*
X006436Y001847D01*
X006412Y001870D01*
X006366Y001870D01*
X006342Y001847D01*
X006342Y001823D01*
X006366Y001800D01*
X006288Y001800D02*
X006265Y001777D01*
X006195Y001777D01*
X006242Y001777D02*
X006288Y001730D01*
X006288Y001800D02*
X006288Y001847D01*
X006265Y001870D01*
X006195Y001870D01*
X006195Y001730D01*
X006412Y001730D02*
X006436Y001753D01*
X004485Y001470D02*
X004392Y001470D01*
X004392Y001330D01*
X004338Y001330D02*
X004338Y001423D01*
X004392Y001400D02*
X004439Y001400D01*
X004338Y001330D02*
X004268Y001330D01*
X004245Y001353D01*
X004245Y001423D01*
X004191Y001423D02*
X004191Y001447D01*
X004167Y001470D01*
X004121Y001470D01*
X004097Y001447D01*
X004043Y001447D02*
X004020Y001470D01*
X003973Y001470D01*
X003950Y001447D01*
X003973Y001530D02*
X004020Y001530D01*
X004043Y001553D01*
X004097Y001530D02*
X004191Y001623D01*
X004191Y001647D01*
X004167Y001670D01*
X004121Y001670D01*
X004097Y001647D01*
X004043Y001647D02*
X004020Y001670D01*
X003973Y001670D01*
X003950Y001647D01*
X003950Y001553D01*
X003973Y001530D01*
X004043Y001447D02*
X004043Y001423D01*
X003950Y001330D01*
X004043Y001330D01*
X004097Y001330D02*
X004191Y001423D01*
X004191Y001330D02*
X004097Y001330D01*
X004097Y001530D02*
X004191Y001530D01*
X004245Y001553D02*
X004338Y001647D01*
X004338Y001553D01*
X004315Y001530D01*
X004268Y001530D01*
X004245Y001553D01*
X004245Y001647D01*
X004268Y001670D01*
X004315Y001670D01*
X004338Y001647D01*
X004368Y001085D02*
X004321Y001062D01*
X004275Y001015D01*
X004345Y001015D01*
X004368Y000992D01*
X004368Y000968D01*
X004345Y000945D01*
X004298Y000945D01*
X004275Y000968D01*
X004275Y001015D01*
X004221Y000945D02*
X004127Y000945D01*
X004174Y000945D02*
X004174Y001085D01*
X004127Y001038D01*
X004073Y001015D02*
X004050Y000992D01*
X003980Y000992D01*
X004027Y000992D02*
X004073Y000945D01*
X004073Y001015D02*
X004073Y001062D01*
X004050Y001085D01*
X003980Y001085D01*
X003980Y000945D01*
X002756Y001980D02*
X002662Y001980D01*
X002709Y001980D02*
X002709Y002120D01*
X002662Y002073D01*
X002608Y002097D02*
X002608Y002003D01*
X002585Y001980D01*
X002515Y001980D01*
X002515Y002120D01*
X002585Y002120D01*
X002608Y002097D01*
X002640Y002440D02*
X002720Y002520D01*
X002720Y002540D01*
X002700Y002560D01*
X002660Y002560D01*
X002640Y002540D01*
X002640Y002440D02*
X002720Y002440D01*
X002769Y002440D02*
X002789Y002440D01*
X002789Y002460D01*
X002769Y002460D01*
X002769Y002440D01*
X002833Y002440D02*
X002913Y002520D01*
X002913Y002540D01*
X002893Y002560D01*
X002853Y002560D01*
X002833Y002540D01*
X002833Y002440D02*
X002913Y002440D01*
X002962Y002460D02*
X002982Y002440D01*
X003042Y002440D01*
X003042Y002520D01*
X003091Y002500D02*
X003171Y002500D01*
X003171Y002560D02*
X003171Y002440D01*
X003091Y002440D02*
X003091Y002560D01*
X002962Y002520D02*
X002962Y002460D01*
X002896Y003095D02*
X002816Y003095D01*
X002856Y003095D02*
X002856Y003215D01*
X002816Y003175D01*
X002767Y003095D02*
X002687Y003095D01*
X002687Y003215D01*
X004430Y003290D02*
X004430Y003383D01*
X004477Y003430D01*
X004523Y003383D01*
X004523Y003290D01*
X004523Y003360D02*
X004430Y003360D01*
X004577Y003430D02*
X004671Y003430D01*
X004624Y003430D02*
X004624Y003290D01*
X004725Y003313D02*
X004748Y003290D01*
X004795Y003290D01*
X004818Y003313D01*
X004818Y003337D01*
X004795Y003360D01*
X004748Y003360D01*
X004725Y003383D01*
X004725Y003407D01*
X004748Y003430D01*
X004795Y003430D01*
X004818Y003407D01*
X004872Y003430D02*
X004872Y003290D01*
X004872Y003360D02*
X004965Y003360D01*
X005019Y003360D02*
X005113Y003360D01*
X005113Y003383D02*
X005113Y003290D01*
X005167Y003290D02*
X005260Y003383D01*
X005260Y003407D01*
X005237Y003430D01*
X005190Y003430D01*
X005167Y003407D01*
X005113Y003383D02*
X005066Y003430D01*
X005019Y003383D01*
X005019Y003290D01*
X004965Y003290D02*
X004965Y003430D01*
X004965Y003560D02*
X004872Y003560D01*
X004919Y003560D02*
X004919Y003700D01*
X004872Y003653D01*
X004818Y003653D02*
X004818Y003560D01*
X004818Y003630D02*
X004725Y003630D01*
X004725Y003653D02*
X004771Y003700D01*
X004818Y003653D01*
X004725Y003653D02*
X004725Y003560D01*
X004671Y003560D02*
X004671Y003700D01*
X004671Y003630D02*
X004577Y003630D01*
X004523Y003607D02*
X004523Y003583D01*
X004500Y003560D01*
X004453Y003560D01*
X004430Y003583D01*
X004453Y003630D02*
X004500Y003630D01*
X004523Y003607D01*
X004523Y003677D02*
X004500Y003700D01*
X004453Y003700D01*
X004430Y003677D01*
X004430Y003653D01*
X004453Y003630D01*
X004577Y003560D02*
X004577Y003700D01*
X005314Y003407D02*
X005337Y003430D01*
X005384Y003430D01*
X005407Y003407D01*
X005314Y003313D01*
X005337Y003290D01*
X005384Y003290D01*
X005407Y003313D01*
X005407Y003407D01*
X005461Y003360D02*
X005531Y003430D01*
X005531Y003290D01*
X005555Y003360D02*
X005461Y003360D01*
X005314Y003313D02*
X005314Y003407D01*
X005260Y003290D02*
X005167Y003290D01*
X007210Y003310D02*
X007210Y003403D01*
X007257Y003450D01*
X007303Y003403D01*
X007303Y003310D01*
X007303Y003380D02*
X007210Y003380D01*
X007357Y003450D02*
X007451Y003450D01*
X007404Y003450D02*
X007404Y003310D01*
X007505Y003310D02*
X007598Y003310D01*
X007652Y003333D02*
X007675Y003310D01*
X007722Y003310D01*
X007745Y003333D01*
X007799Y003333D02*
X007823Y003310D01*
X007869Y003310D01*
X007893Y003333D01*
X007947Y003310D02*
X008040Y003310D01*
X007993Y003310D02*
X007993Y003450D01*
X007947Y003403D01*
X007893Y003427D02*
X007869Y003450D01*
X007823Y003450D01*
X007799Y003427D01*
X007799Y003333D01*
X007652Y003333D02*
X007652Y003427D01*
X007675Y003450D01*
X007722Y003450D01*
X007745Y003427D01*
X007745Y003560D02*
X007652Y003560D01*
X007699Y003560D02*
X007699Y003700D01*
X007652Y003653D01*
X007598Y003677D02*
X007575Y003700D01*
X007528Y003700D01*
X007505Y003677D01*
X007505Y003583D01*
X007528Y003560D01*
X007575Y003560D01*
X007598Y003583D01*
X007598Y003450D02*
X007505Y003450D01*
X007505Y003310D01*
X007505Y003380D02*
X007551Y003380D01*
X007427Y003560D02*
X007451Y003583D01*
X007427Y003560D02*
X007381Y003560D01*
X007357Y003583D01*
X007357Y003677D01*
X007381Y003700D01*
X007427Y003700D01*
X007451Y003677D01*
X007303Y003700D02*
X007210Y003700D01*
X007210Y003560D01*
X007303Y003560D01*
X007257Y003630D02*
X007210Y003630D01*
X008094Y003427D02*
X008094Y003333D01*
X008187Y003427D01*
X008187Y003333D01*
X008164Y003310D01*
X008117Y003310D01*
X008094Y003333D01*
X008241Y003333D02*
X008241Y003357D01*
X008265Y003380D01*
X008311Y003380D01*
X008335Y003357D01*
X008335Y003333D01*
X008311Y003310D01*
X008265Y003310D01*
X008241Y003333D01*
X008265Y003380D02*
X008241Y003403D01*
X008241Y003427D01*
X008265Y003450D01*
X008311Y003450D01*
X008335Y003427D01*
X008335Y003403D01*
X008311Y003380D01*
X008187Y003427D02*
X008164Y003450D01*
X008117Y003450D01*
X008094Y003427D01*
X009560Y003430D02*
X009653Y003430D01*
X009653Y003453D02*
X009653Y003360D01*
X009560Y003360D02*
X009560Y003453D01*
X009607Y003500D01*
X009653Y003453D01*
X009707Y003500D02*
X009801Y003500D01*
X009754Y003500D02*
X009754Y003360D01*
X009855Y003360D02*
X009855Y003453D01*
X009901Y003500D01*
X009948Y003453D01*
X009948Y003360D01*
X010002Y003360D02*
X010002Y003500D01*
X010095Y003500D01*
X010149Y003477D02*
X010149Y003453D01*
X010173Y003430D01*
X010219Y003430D01*
X010243Y003407D01*
X010243Y003383D01*
X010219Y003360D01*
X010173Y003360D01*
X010149Y003383D01*
X010095Y003360D02*
X010002Y003360D01*
X010002Y003430D02*
X010049Y003430D01*
X009948Y003430D02*
X009855Y003430D01*
X010149Y003477D02*
X010173Y003500D01*
X010219Y003500D01*
X010243Y003477D01*
X010297Y003453D02*
X010343Y003500D01*
X010343Y003360D01*
X010297Y003360D02*
X010390Y003360D01*
X010444Y003383D02*
X010467Y003360D01*
X010514Y003360D01*
X010537Y003383D01*
X010537Y003407D01*
X010514Y003430D01*
X010491Y003430D01*
X010514Y003430D02*
X010537Y003453D01*
X010537Y003477D01*
X010514Y003500D01*
X010467Y003500D01*
X010444Y003477D01*
X010591Y003477D02*
X010615Y003500D01*
X010661Y003500D01*
X010685Y003477D01*
X010685Y003453D01*
X010591Y003360D01*
X010685Y003360D01*
X010095Y003610D02*
X010002Y003610D01*
X010049Y003610D02*
X010049Y003750D01*
X010002Y003703D01*
X009948Y003727D02*
X009925Y003750D01*
X009878Y003750D01*
X009855Y003727D01*
X009855Y003703D01*
X009878Y003680D01*
X009925Y003680D01*
X009948Y003657D01*
X009948Y003633D01*
X009925Y003610D01*
X009878Y003610D01*
X009855Y003633D01*
X009801Y003610D02*
X009707Y003610D01*
X009707Y003750D01*
X009801Y003750D01*
X009754Y003680D02*
X009707Y003680D01*
X009653Y003680D02*
X009560Y003680D01*
X009560Y003703D02*
X009607Y003750D01*
X009653Y003703D01*
X009653Y003610D01*
X009560Y003610D02*
X009560Y003703D01*
X013565Y003525D02*
X013565Y003385D01*
X013635Y003385D01*
X013659Y003408D01*
X013659Y003502D01*
X013635Y003525D01*
X013565Y003525D01*
X013713Y003502D02*
X013736Y003525D01*
X013783Y003525D01*
X013806Y003502D01*
X013806Y003478D01*
X013783Y003455D01*
X013806Y003432D01*
X013806Y003408D01*
X013783Y003385D01*
X013736Y003385D01*
X013713Y003408D01*
X013759Y003455D02*
X013783Y003455D01*
X014485Y003432D02*
X014555Y003432D01*
X014578Y003455D01*
X014578Y003502D01*
X014555Y003525D01*
X014485Y003525D01*
X014485Y003385D01*
X014532Y003432D02*
X014578Y003385D01*
X014632Y003385D02*
X014726Y003385D01*
X014679Y003385D02*
X014679Y003525D01*
X014632Y003478D01*
X014780Y003478D02*
X014826Y003525D01*
X014826Y003385D01*
X014780Y003385D02*
X014873Y003385D01*
X014850Y002975D02*
X014873Y002952D01*
X014780Y002858D01*
X014803Y002835D01*
X014850Y002835D01*
X014873Y002858D01*
X014873Y002952D01*
X014850Y002975D02*
X014803Y002975D01*
X014780Y002952D01*
X014780Y002858D01*
X014726Y002858D02*
X014702Y002835D01*
X014656Y002835D01*
X014632Y002858D01*
X014726Y002952D01*
X014726Y002858D01*
X014632Y002858D02*
X014632Y002952D01*
X014656Y002975D01*
X014702Y002975D01*
X014726Y002952D01*
X014578Y002835D02*
X014485Y002835D01*
X014532Y002835D02*
X014532Y002975D01*
X014485Y002928D01*
X014927Y002882D02*
X015020Y002975D01*
X014927Y002975D02*
X014927Y002835D01*
X014950Y002905D02*
X015020Y002835D01*
X013921Y002390D02*
X013921Y002250D01*
X013875Y002250D02*
X013968Y002250D01*
X013945Y002160D02*
X013968Y002137D01*
X013875Y002043D01*
X013898Y002020D01*
X013945Y002020D01*
X013968Y002043D01*
X013968Y002137D01*
X013945Y002160D02*
X013898Y002160D01*
X013875Y002137D01*
X013875Y002043D01*
X013821Y002137D02*
X013727Y002043D01*
X013727Y002020D01*
X013650Y002020D02*
X013650Y002160D01*
X013580Y002090D01*
X013673Y002090D01*
X013727Y002160D02*
X013821Y002160D01*
X013821Y002137D01*
X013821Y002250D02*
X013727Y002250D01*
X013821Y002343D01*
X013821Y002367D01*
X013797Y002390D01*
X013751Y002390D01*
X013727Y002367D01*
X013673Y002367D02*
X013673Y002320D01*
X013650Y002297D01*
X013580Y002297D01*
X013627Y002297D02*
X013673Y002250D01*
X013580Y002250D02*
X013580Y002390D01*
X013650Y002390D01*
X013673Y002367D01*
X013875Y002343D02*
X013921Y002390D01*
X016881Y002470D02*
X016974Y002470D01*
X016927Y002470D02*
X016927Y002610D01*
X016881Y002563D01*
X017028Y002587D02*
X017051Y002610D01*
X017098Y002610D01*
X017121Y002587D01*
X017028Y002493D01*
X017051Y002470D01*
X017098Y002470D01*
X017121Y002493D01*
X017121Y002587D01*
X017175Y002587D02*
X017199Y002610D01*
X017245Y002610D01*
X017269Y002587D01*
X017175Y002493D01*
X017199Y002470D01*
X017245Y002470D01*
X017269Y002493D01*
X017269Y002587D01*
X017323Y002610D02*
X017323Y002470D01*
X017323Y002517D02*
X017416Y002610D01*
X017346Y002540D02*
X017416Y002470D01*
X017175Y002493D02*
X017175Y002587D01*
X017183Y002670D02*
X017276Y002763D01*
X017276Y002787D01*
X017253Y002810D01*
X017206Y002810D01*
X017183Y002787D01*
X017082Y002810D02*
X017082Y002670D01*
X017035Y002670D02*
X017129Y002670D01*
X017183Y002670D02*
X017276Y002670D01*
X017082Y002810D02*
X017035Y002763D01*
X016981Y002740D02*
X016958Y002717D01*
X016888Y002717D01*
X016935Y002717D02*
X016981Y002670D01*
X016981Y002740D02*
X016981Y002787D01*
X016958Y002810D01*
X016888Y002810D01*
X016888Y002670D01*
X017028Y002587D02*
X017028Y002493D01*
X014381Y004210D02*
X014287Y004210D01*
X014381Y004303D01*
X014381Y004327D01*
X014357Y004350D01*
X014311Y004350D01*
X014287Y004327D01*
X014233Y004327D02*
X014210Y004350D01*
X014140Y004350D01*
X014140Y004210D01*
X014210Y004210D01*
X014233Y004233D01*
X014233Y004327D01*
X013930Y004780D02*
X013883Y004780D01*
X013860Y004803D01*
X013953Y004897D01*
X013953Y004803D01*
X013930Y004780D01*
X013860Y004803D02*
X013860Y004897D01*
X013883Y004920D01*
X013930Y004920D01*
X013953Y004897D01*
X013930Y004970D02*
X013883Y004970D01*
X013860Y004993D01*
X013953Y005087D01*
X013953Y004993D01*
X013930Y004970D01*
X013860Y004993D02*
X013860Y005087D01*
X013883Y005110D01*
X013930Y005110D01*
X013953Y005087D01*
X013806Y005087D02*
X013806Y005063D01*
X013712Y004970D01*
X013806Y004970D01*
X013806Y004920D02*
X013806Y004897D01*
X013712Y004803D01*
X013712Y004780D01*
X013635Y004780D02*
X013635Y004920D01*
X013565Y004850D01*
X013658Y004850D01*
X013712Y004920D02*
X013806Y004920D01*
X013658Y004970D02*
X013612Y005017D01*
X013635Y005017D02*
X013565Y005017D01*
X013565Y004970D02*
X013565Y005110D01*
X013635Y005110D01*
X013658Y005087D01*
X013658Y005040D01*
X013635Y005017D01*
X013712Y005087D02*
X013736Y005110D01*
X013782Y005110D01*
X013806Y005087D01*
X014330Y005150D02*
X014423Y005150D01*
X014377Y005150D02*
X014377Y005290D01*
X014330Y005243D01*
X014330Y005340D02*
X014330Y005480D01*
X014400Y005480D01*
X014423Y005457D01*
X014423Y005410D01*
X014400Y005387D01*
X014330Y005387D01*
X014377Y005387D02*
X014423Y005340D01*
X014477Y005340D02*
X014571Y005340D01*
X014524Y005340D02*
X014524Y005480D01*
X014477Y005433D01*
X014625Y005410D02*
X014695Y005480D01*
X014695Y005340D01*
X014695Y005290D02*
X014718Y005267D01*
X014625Y005173D01*
X014648Y005150D01*
X014695Y005150D01*
X014718Y005173D01*
X014718Y005267D01*
X014695Y005290D02*
X014648Y005290D01*
X014625Y005267D01*
X014625Y005173D01*
X014571Y005173D02*
X014547Y005150D01*
X014501Y005150D01*
X014477Y005173D01*
X014571Y005267D01*
X014571Y005173D01*
X014477Y005173D02*
X014477Y005267D01*
X014501Y005290D01*
X014547Y005290D01*
X014571Y005267D01*
X014772Y005290D02*
X014772Y005150D01*
X014772Y005197D02*
X014865Y005290D01*
X014795Y005220D02*
X014865Y005150D01*
X014718Y005410D02*
X014625Y005410D01*
X016888Y005397D02*
X016958Y005397D01*
X016981Y005420D01*
X016981Y005467D01*
X016958Y005490D01*
X016888Y005490D01*
X016888Y005350D01*
X016935Y005397D02*
X016981Y005350D01*
X017035Y005350D02*
X017129Y005350D01*
X017082Y005350D02*
X017082Y005490D01*
X017035Y005443D01*
X017183Y005467D02*
X017206Y005490D01*
X017253Y005490D01*
X017276Y005467D01*
X017276Y005443D01*
X017253Y005420D01*
X017276Y005397D01*
X017276Y005373D01*
X017253Y005350D01*
X017206Y005350D01*
X017183Y005373D01*
X017229Y005420D02*
X017253Y005420D01*
X017245Y005270D02*
X017269Y005247D01*
X017175Y005153D01*
X017199Y005130D01*
X017245Y005130D01*
X017269Y005153D01*
X017269Y005247D01*
X017245Y005270D02*
X017199Y005270D01*
X017175Y005247D01*
X017175Y005153D01*
X017121Y005153D02*
X017098Y005130D01*
X017051Y005130D01*
X017028Y005153D01*
X017121Y005247D01*
X017121Y005153D01*
X017028Y005153D02*
X017028Y005247D01*
X017051Y005270D01*
X017098Y005270D01*
X017121Y005247D01*
X016927Y005270D02*
X016881Y005223D01*
X016927Y005270D02*
X016927Y005130D01*
X016881Y005130D02*
X016974Y005130D01*
X017323Y005130D02*
X017323Y005270D01*
X017346Y005200D02*
X017416Y005130D01*
X017323Y005177D02*
X017416Y005270D01*
X006331Y005488D02*
X006308Y005465D01*
X006261Y005465D01*
X006238Y005488D01*
X006238Y005535D02*
X006284Y005558D01*
X006308Y005558D01*
X006331Y005535D01*
X006331Y005488D01*
X006238Y005535D02*
X006238Y005605D01*
X006331Y005605D01*
X006184Y005582D02*
X006160Y005605D01*
X006114Y005605D01*
X006090Y005582D01*
X006036Y005582D02*
X006036Y005558D01*
X006013Y005535D01*
X005966Y005535D01*
X005943Y005558D01*
X005943Y005582D01*
X005966Y005605D01*
X006013Y005605D01*
X006036Y005582D01*
X006013Y005535D02*
X006036Y005512D01*
X006036Y005488D01*
X006013Y005465D01*
X005966Y005465D01*
X005943Y005488D01*
X005943Y005512D01*
X005966Y005535D01*
X006090Y005465D02*
X006184Y005558D01*
X006184Y005582D01*
X006184Y005465D02*
X006090Y005465D01*
X005751Y005735D02*
X005658Y005735D01*
X005704Y005735D02*
X005704Y005875D01*
X005658Y005828D01*
X005604Y005805D02*
X005580Y005782D01*
X005510Y005782D01*
X005510Y005735D02*
X005510Y005875D01*
X005580Y005875D01*
X005604Y005852D01*
X005604Y005805D01*
X005557Y005782D02*
X005604Y005735D01*
X005251Y005715D02*
X005158Y005715D01*
X005251Y005808D01*
X005251Y005832D01*
X005228Y005855D01*
X005181Y005855D01*
X005158Y005832D01*
X005104Y005832D02*
X005104Y005785D01*
X005080Y005762D01*
X005010Y005762D01*
X005010Y005715D02*
X005010Y005855D01*
X005080Y005855D01*
X005104Y005832D01*
X005057Y005762D02*
X005104Y005715D01*
X004811Y005605D02*
X004718Y005512D01*
X004741Y005535D02*
X004811Y005465D01*
X004718Y005465D02*
X004718Y005605D01*
X004664Y005582D02*
X004640Y005605D01*
X004594Y005605D01*
X004570Y005582D01*
X004516Y005582D02*
X004493Y005605D01*
X004446Y005605D01*
X004423Y005582D01*
X004423Y005558D01*
X004446Y005535D01*
X004516Y005535D01*
X004516Y005488D02*
X004516Y005582D01*
X004516Y005488D02*
X004493Y005465D01*
X004446Y005465D01*
X004423Y005488D01*
X004373Y005488D02*
X004373Y005465D01*
X004349Y005465D01*
X004349Y005488D01*
X004373Y005488D01*
X004295Y005488D02*
X004272Y005465D01*
X004225Y005465D01*
X004202Y005488D01*
X004249Y005535D02*
X004272Y005535D01*
X004295Y005512D01*
X004295Y005488D01*
X004272Y005535D02*
X004295Y005558D01*
X004295Y005582D01*
X004272Y005605D01*
X004225Y005605D01*
X004202Y005582D01*
X004570Y005465D02*
X004664Y005558D01*
X004664Y005582D01*
X004664Y005465D02*
X004570Y005465D01*
X003291Y005737D02*
X003198Y005643D01*
X003198Y005620D01*
X003147Y005620D02*
X003124Y005620D01*
X003124Y005643D01*
X003147Y005643D01*
X003147Y005620D01*
X003047Y005620D02*
X003047Y005760D01*
X002977Y005690D01*
X003070Y005690D01*
X003198Y005760D02*
X003291Y005760D01*
X003291Y005737D01*
X003268Y005810D02*
X003221Y005810D01*
X003198Y005833D01*
X003291Y005927D01*
X003291Y005833D01*
X003268Y005810D01*
X003198Y005833D02*
X003198Y005927D01*
X003221Y005950D01*
X003268Y005950D01*
X003291Y005927D01*
X003144Y005810D02*
X003050Y005810D01*
X003097Y005810D02*
X003097Y005950D01*
X003050Y005903D01*
X002996Y005880D02*
X002973Y005857D01*
X002903Y005857D01*
X002950Y005857D02*
X002996Y005810D01*
X002996Y005880D02*
X002996Y005927D01*
X002973Y005950D01*
X002903Y005950D01*
X002903Y005810D01*
X003423Y004875D02*
X003400Y004852D01*
X003400Y004758D01*
X003423Y004735D01*
X003470Y004735D01*
X003493Y004758D01*
X003547Y004735D02*
X003641Y004828D01*
X003641Y004852D01*
X003617Y004875D01*
X003571Y004875D01*
X003547Y004852D01*
X003493Y004852D02*
X003470Y004875D01*
X003423Y004875D01*
X003695Y004852D02*
X003718Y004875D01*
X003765Y004875D01*
X003788Y004852D01*
X003788Y004828D01*
X003695Y004735D01*
X003788Y004735D01*
X003842Y004665D02*
X003935Y004665D01*
X003889Y004595D02*
X003842Y004595D01*
X003788Y004618D02*
X003788Y004525D01*
X003718Y004525D01*
X003695Y004548D01*
X003695Y004618D01*
X003641Y004642D02*
X003547Y004548D01*
X003571Y004525D01*
X003617Y004525D01*
X003641Y004548D01*
X003641Y004642D01*
X003617Y004665D01*
X003571Y004665D01*
X003547Y004642D01*
X003547Y004548D01*
X003493Y004525D02*
X003400Y004525D01*
X003447Y004525D02*
X003447Y004665D01*
X003400Y004618D01*
X003547Y004735D02*
X003641Y004735D01*
X003842Y004665D02*
X003842Y004525D01*
D14*
X003324Y004508D02*
X003324Y004862D01*
X003068Y004862D01*
X002832Y004862D02*
X002576Y004862D01*
X002576Y004508D01*
X002832Y004508D01*
X003068Y004508D02*
X003324Y004508D01*
X003257Y005173D02*
X003001Y005173D01*
X003001Y005527D01*
X003257Y005527D01*
X003493Y005527D02*
X003749Y005527D01*
X003749Y005173D01*
X003493Y005173D01*
X004889Y005397D02*
X004889Y005653D01*
X005046Y005653D01*
X005204Y005653D02*
X005361Y005653D01*
X005361Y005397D01*
X005204Y005397D01*
X005046Y005397D02*
X004889Y005397D01*
X005389Y005397D02*
X005389Y005653D01*
X005546Y005653D01*
X005704Y005653D02*
X005861Y005653D01*
X005861Y005397D01*
X005704Y005397D01*
X005546Y005397D02*
X005389Y005397D01*
X013572Y004711D02*
X013572Y004554D01*
X013828Y004554D02*
X013828Y004711D01*
X013572Y004711D01*
X013572Y004396D02*
X013572Y004239D01*
X013828Y004239D01*
X013828Y004396D01*
X014322Y004614D02*
X014578Y004614D01*
X014578Y004771D01*
X014322Y004771D02*
X014322Y004614D01*
X014322Y004929D02*
X014322Y005086D01*
X014578Y005086D01*
X014578Y004929D01*
X016937Y004846D02*
X016937Y004689D01*
X016937Y004846D02*
X017193Y004846D01*
X017193Y004689D01*
X017193Y004531D02*
X017193Y004374D01*
X016937Y004374D01*
X016937Y004531D01*
X016937Y003576D02*
X017193Y003576D01*
X017193Y003419D01*
X017193Y003261D02*
X017193Y003104D01*
X016937Y003104D01*
X016937Y003261D01*
X016937Y003419D02*
X016937Y003576D01*
X014961Y003303D02*
X014961Y003047D01*
X014804Y003047D01*
X014646Y003047D02*
X014489Y003047D01*
X014489Y003303D01*
X014646Y003303D01*
X014804Y003303D02*
X014961Y003303D01*
X013828Y002936D02*
X013828Y002779D01*
X013572Y002779D02*
X013572Y002936D01*
X013828Y002936D01*
X013828Y002621D02*
X013828Y002464D01*
X013572Y002464D01*
X013572Y002621D01*
X009556Y000828D02*
X009399Y000828D01*
X009556Y000828D02*
X009556Y000572D01*
X009399Y000572D01*
X009241Y000572D02*
X009084Y000572D01*
X009084Y000828D01*
X009241Y000828D01*
X006961Y000853D02*
X006961Y000597D01*
X006804Y000597D01*
X006646Y000597D02*
X006489Y000597D01*
X006489Y000853D01*
X006646Y000853D01*
X006804Y000853D02*
X006961Y000853D01*
X006428Y000989D02*
X006172Y000989D01*
X006172Y001146D01*
X006428Y001146D02*
X006428Y000989D01*
X006428Y001304D02*
X006428Y001461D01*
X006172Y001461D01*
X006172Y001304D01*
X006113Y001239D02*
X006113Y001396D01*
X005857Y001396D02*
X005857Y001239D01*
X006113Y001239D01*
X006113Y001554D02*
X006113Y001711D01*
X005857Y001711D01*
X005857Y001554D01*
X004456Y000863D02*
X004456Y000607D01*
X004299Y000607D01*
X004141Y000607D02*
X003984Y000607D01*
X003984Y000863D01*
X004141Y000863D01*
X004299Y000863D02*
X004456Y000863D01*
X002677Y000926D02*
X002677Y001182D01*
X002323Y001182D02*
X002323Y000926D01*
X002677Y000926D01*
X002677Y001418D02*
X002677Y001674D01*
X002323Y001674D01*
X002323Y001418D01*
D15*
X004122Y000735D03*
X004318Y000735D03*
X006627Y000725D03*
X006823Y000725D03*
X009222Y000700D03*
X009418Y000700D03*
X014627Y003175D03*
X014823Y003175D03*
X005723Y005525D03*
X005527Y005525D03*
X005223Y005525D03*
X005027Y005525D03*
D16*
X005125Y005486D03*
X005125Y005564D03*
X005625Y005564D03*
X005625Y005486D03*
X014725Y003214D03*
X014725Y003136D03*
X009320Y000739D03*
X009320Y000661D03*
X006725Y000686D03*
X006725Y000764D03*
X004220Y000774D03*
X004220Y000696D03*
D17*
X002500Y001143D03*
X002500Y001457D03*
D18*
X002421Y001300D03*
X002579Y001300D03*
D19*
X005985Y001377D03*
X006300Y001323D03*
X006300Y001127D03*
X005985Y001573D03*
X013700Y002602D03*
X013700Y002798D03*
X017065Y003242D03*
X017065Y003438D03*
X017065Y004512D03*
X017065Y004708D03*
X014450Y004752D03*
X014450Y004948D03*
X013700Y004573D03*
X013700Y004377D03*
D20*
X013739Y004475D03*
X013661Y004475D03*
X014411Y004850D03*
X014489Y004850D03*
X017026Y004610D03*
X017104Y004610D03*
X017104Y003340D03*
X017026Y003340D03*
X013739Y002700D03*
X013661Y002700D03*
X006339Y001225D03*
X006261Y001225D03*
X006024Y001475D03*
X005946Y001475D03*
D21*
X003107Y004685D03*
X002793Y004685D03*
X003218Y005350D03*
X003532Y005350D03*
D22*
X003375Y005271D03*
X003375Y005429D03*
X002950Y004764D03*
X002950Y004606D03*
M02*
