G75*
%MOIN*%
%OFA0B0*%
%FSLAX24Y24*%
%IPPOS*%
%LPD*%
%AMOC8*
5,1,8,0,0,1.08239X$1,22.5*
%
%ADD10C,0.0100*%
%ADD11C,0.0030*%
%ADD12C,0.0020*%
%ADD13C,0.0050*%
%ADD14C,0.0020*%
%ADD15C,0.0039*%
%ADD16R,0.0039X0.0118*%
%ADD17R,0.0236X0.0039*%
%ADD18C,0.0010*%
%ADD19R,0.0079X0.0197*%
%ADD20R,0.0394X0.0039*%
%ADD21R,0.0118X0.0039*%
%ADD22R,0.0039X0.0236*%
%ADD23R,0.0197X0.0079*%
%ADD24R,0.0039X0.0394*%
%ADD25C,0.0080*%
D10*
X004971Y002330D02*
X005080Y002221D01*
X007520Y002221D01*
X007629Y002330D01*
X007629Y004770D01*
X007520Y004879D01*
X005080Y004879D01*
X004971Y004770D01*
X004971Y002330D01*
X005277Y004337D02*
X005279Y004367D01*
X005285Y004397D01*
X005294Y004426D01*
X005307Y004453D01*
X005324Y004478D01*
X005343Y004501D01*
X005366Y004522D01*
X005391Y004539D01*
X005417Y004553D01*
X005446Y004563D01*
X005475Y004570D01*
X005505Y004573D01*
X005536Y004572D01*
X005566Y004567D01*
X005595Y004558D01*
X005622Y004546D01*
X005648Y004531D01*
X005672Y004512D01*
X005693Y004490D01*
X005711Y004466D01*
X005726Y004439D01*
X005737Y004411D01*
X005745Y004382D01*
X005749Y004352D01*
X005749Y004322D01*
X005745Y004292D01*
X005737Y004263D01*
X005726Y004235D01*
X005711Y004208D01*
X005693Y004184D01*
X005672Y004162D01*
X005648Y004143D01*
X005622Y004128D01*
X005595Y004116D01*
X005566Y004107D01*
X005536Y004102D01*
X005505Y004101D01*
X005475Y004104D01*
X005446Y004111D01*
X005417Y004121D01*
X005391Y004135D01*
X005366Y004152D01*
X005343Y004173D01*
X005324Y004196D01*
X005307Y004221D01*
X005294Y004248D01*
X005285Y004277D01*
X005279Y004307D01*
X005277Y004337D01*
D11*
X005231Y005555D02*
X005231Y005695D01*
X005301Y005765D01*
X005371Y005695D01*
X005371Y005555D01*
X005452Y005590D02*
X005452Y005625D01*
X005487Y005660D01*
X005557Y005660D01*
X005592Y005695D01*
X005592Y005730D01*
X005557Y005765D01*
X005487Y005765D01*
X005452Y005730D01*
X005371Y005660D02*
X005231Y005660D01*
X005150Y005555D02*
X005150Y005765D01*
X005080Y005695D01*
X005010Y005765D01*
X005010Y005555D01*
X004929Y005660D02*
X004789Y005660D01*
X004708Y005695D02*
X004708Y005730D01*
X004673Y005765D01*
X004603Y005765D01*
X004568Y005730D01*
X004603Y005660D02*
X004568Y005625D01*
X004568Y005590D01*
X004603Y005555D01*
X004673Y005555D01*
X004708Y005590D01*
X004673Y005660D02*
X004603Y005660D01*
X004673Y005660D02*
X004708Y005695D01*
X004824Y005765D02*
X004824Y005555D01*
X004929Y005660D02*
X004824Y005765D01*
X004487Y005660D02*
X004347Y005660D01*
X004266Y005660D02*
X004126Y005660D01*
X004126Y005695D02*
X004126Y005555D01*
X004266Y005555D02*
X004266Y005695D01*
X004196Y005765D01*
X004126Y005695D01*
X004382Y005765D02*
X004382Y005555D01*
X004487Y005660D02*
X004382Y005765D01*
X004382Y005835D02*
X004347Y005870D01*
X004347Y006045D01*
X004266Y005975D02*
X004196Y006045D01*
X004196Y005835D01*
X004266Y005835D02*
X004126Y005835D01*
X004382Y005835D02*
X004452Y005835D01*
X004487Y005870D01*
X004487Y006045D01*
X005452Y005590D02*
X005487Y005555D01*
X005557Y005555D01*
X005592Y005590D01*
D12*
X010185Y004219D02*
X010187Y004233D01*
X010193Y004247D01*
X010201Y004259D01*
X010213Y004267D01*
X010227Y004273D01*
X010241Y004275D01*
X010255Y004273D01*
X010269Y004267D01*
X010281Y004259D01*
X010289Y004247D01*
X010295Y004233D01*
X010297Y004219D01*
X010295Y004205D01*
X010289Y004191D01*
X010281Y004179D01*
X010269Y004171D01*
X010255Y004165D01*
X010241Y004163D01*
X010227Y004165D01*
X010213Y004171D01*
X010201Y004179D01*
X010193Y004191D01*
X010187Y004205D01*
X010185Y004219D01*
D13*
X010045Y004446D02*
X013895Y004446D01*
X013895Y002654D01*
X010045Y002654D01*
X010045Y004446D01*
X010398Y001541D02*
X010516Y001541D01*
X010398Y001541D02*
X010398Y001029D01*
X010516Y001029D01*
X008823Y001029D02*
X008587Y001029D01*
X008587Y001541D02*
X008823Y001541D01*
D14*
X009728Y002010D02*
X009788Y002070D01*
X009808Y002050D02*
X009728Y002130D01*
X009808Y002130D02*
X009808Y002010D01*
X009857Y002110D02*
X009937Y002030D01*
X009937Y002010D01*
X009981Y002010D02*
X010001Y002010D01*
X010001Y002030D01*
X009981Y002030D01*
X009981Y002010D01*
X010070Y002010D02*
X010070Y002130D01*
X010130Y002070D01*
X010050Y002070D01*
X009937Y002130D02*
X009857Y002130D01*
X009857Y002110D01*
X009941Y002190D02*
X009981Y002190D01*
X010001Y002210D01*
X010001Y002250D02*
X009961Y002270D01*
X009941Y002270D01*
X009921Y002250D01*
X009921Y002210D01*
X009941Y002190D01*
X010001Y002250D02*
X010001Y002310D01*
X009921Y002310D01*
X010050Y002290D02*
X010050Y002250D01*
X010070Y002230D01*
X010130Y002230D01*
X010130Y002190D02*
X010130Y002310D01*
X010070Y002310D01*
X010050Y002290D01*
X010090Y002230D02*
X010050Y002190D01*
X010719Y002010D02*
X010719Y001990D01*
X010739Y001970D01*
X010779Y001970D01*
X010799Y001990D01*
X010799Y002010D01*
X010779Y002030D01*
X010739Y002030D01*
X010719Y002010D01*
X010739Y001970D02*
X010719Y001950D01*
X010719Y001930D01*
X010739Y001910D01*
X010779Y001910D01*
X010799Y001930D01*
X010799Y001950D01*
X010779Y001970D01*
X010848Y001930D02*
X010868Y001910D01*
X010908Y001910D01*
X010928Y001930D01*
X010928Y002010D01*
X010908Y002030D01*
X010868Y002030D01*
X010848Y002010D01*
X011579Y001650D02*
X011659Y001650D01*
X011659Y001590D01*
X011619Y001610D01*
X011599Y001610D01*
X011579Y001590D01*
X011579Y001550D01*
X011599Y001530D01*
X011639Y001530D01*
X011659Y001550D01*
X011708Y001530D02*
X011788Y001530D01*
X011748Y001530D02*
X011748Y001650D01*
X011788Y001610D01*
X011837Y001590D02*
X011857Y001570D01*
X011917Y001570D01*
X011917Y001530D02*
X011917Y001650D01*
X011857Y001650D01*
X011837Y001630D01*
X011837Y001590D01*
X011877Y001570D02*
X011837Y001530D01*
X011866Y001470D02*
X011866Y001350D01*
X011906Y001350D02*
X011826Y001350D01*
X011777Y001370D02*
X011697Y001450D01*
X011697Y001370D01*
X011717Y001350D01*
X011757Y001350D01*
X011777Y001370D01*
X011777Y001450D01*
X011757Y001470D01*
X011717Y001470D01*
X011697Y001450D01*
X011648Y001450D02*
X011648Y001370D01*
X011568Y001450D01*
X011568Y001370D01*
X011588Y001350D01*
X011628Y001350D01*
X011648Y001370D01*
X011648Y001450D02*
X011628Y001470D01*
X011588Y001470D01*
X011568Y001450D01*
X011519Y001470D02*
X011519Y001350D01*
X011519Y001390D02*
X011439Y001470D01*
X011499Y001410D02*
X011439Y001350D01*
X011866Y001470D02*
X011906Y001430D01*
X012048Y001430D02*
X012108Y001490D01*
X012128Y001470D02*
X012048Y001550D01*
X012128Y001550D02*
X012128Y001430D01*
X012177Y001530D02*
X012257Y001450D01*
X012257Y001430D01*
X012301Y001430D02*
X012321Y001430D01*
X012321Y001450D01*
X012301Y001450D01*
X012301Y001430D01*
X012390Y001430D02*
X012390Y001550D01*
X012450Y001490D01*
X012370Y001490D01*
X012370Y001610D02*
X012410Y001650D01*
X012390Y001650D02*
X012450Y001650D01*
X012450Y001610D02*
X012450Y001730D01*
X012390Y001730D01*
X012370Y001710D01*
X012370Y001670D01*
X012390Y001650D01*
X012321Y001630D02*
X012301Y001610D01*
X012261Y001610D01*
X012241Y001630D01*
X012241Y001650D01*
X012261Y001670D01*
X012321Y001670D01*
X012321Y001630D01*
X012321Y001670D02*
X012281Y001710D01*
X012241Y001730D01*
X012257Y001550D02*
X012177Y001550D01*
X012177Y001530D01*
X013432Y001530D02*
X013512Y001450D01*
X013492Y001470D02*
X013432Y001410D01*
X013512Y001410D02*
X013512Y001530D01*
X013561Y001510D02*
X013641Y001430D01*
X013621Y001410D01*
X013581Y001410D01*
X013561Y001430D01*
X013561Y001510D01*
X013581Y001530D01*
X013621Y001530D01*
X013641Y001510D01*
X013641Y001430D01*
X013690Y001410D02*
X013770Y001410D01*
X013730Y001410D02*
X013730Y001530D01*
X013770Y001490D01*
X013770Y001590D02*
X013770Y001710D01*
X013710Y001710D01*
X013690Y001690D01*
X013690Y001650D01*
X013710Y001630D01*
X013770Y001630D01*
X013730Y001630D02*
X013690Y001590D01*
X013641Y001590D02*
X013641Y001610D01*
X013561Y001690D01*
X013561Y001710D01*
X013641Y001710D01*
X008470Y002090D02*
X008390Y002170D01*
X008390Y002190D01*
X008410Y002210D01*
X008450Y002210D01*
X008470Y002190D01*
X008450Y002250D02*
X008410Y002250D01*
X008390Y002270D01*
X008341Y002250D02*
X008261Y002250D01*
X008281Y002210D02*
X008321Y002210D01*
X008341Y002190D01*
X008341Y002250D02*
X008261Y002330D01*
X008261Y002350D01*
X008281Y002370D01*
X008321Y002370D01*
X008341Y002350D01*
X008390Y002350D02*
X008410Y002370D01*
X008450Y002370D01*
X008470Y002350D01*
X008470Y002270D01*
X008450Y002250D01*
X008281Y002210D02*
X008261Y002190D01*
X008261Y002170D01*
X008341Y002090D01*
X008261Y002090D01*
X008212Y002090D02*
X008152Y002090D01*
X008132Y002110D01*
X008132Y002150D01*
X008152Y002170D01*
X008212Y002170D01*
X008212Y002050D01*
X008083Y002090D02*
X008083Y002210D01*
X008003Y002210D01*
X008043Y002150D02*
X008083Y002150D01*
X008152Y002250D02*
X008192Y002250D01*
X008212Y002270D01*
X008172Y002310D02*
X008152Y002310D01*
X008132Y002290D01*
X008132Y002270D01*
X008152Y002250D01*
X008152Y002310D02*
X008132Y002330D01*
X008132Y002350D01*
X008152Y002370D01*
X008192Y002370D01*
X008212Y002350D01*
X008390Y002090D02*
X008470Y002090D01*
X006395Y001550D02*
X006395Y001470D01*
X006375Y001450D01*
X006335Y001450D01*
X006315Y001470D01*
X006266Y001450D02*
X006186Y001450D01*
X006226Y001450D02*
X006226Y001570D01*
X006266Y001530D01*
X006315Y001550D02*
X006335Y001570D01*
X006375Y001570D01*
X006395Y001550D01*
X006137Y001510D02*
X006077Y001510D01*
X006057Y001490D01*
X006057Y001470D01*
X006077Y001450D01*
X006117Y001450D01*
X006137Y001470D01*
X006137Y001510D01*
X006097Y001550D01*
X006057Y001570D01*
X006073Y001380D02*
X005993Y001380D01*
X006033Y001320D02*
X006073Y001320D01*
X006122Y001340D02*
X006122Y001260D01*
X006182Y001260D01*
X006202Y001280D01*
X006202Y001340D01*
X006250Y001260D02*
X006331Y001260D01*
X006291Y001260D02*
X006291Y001380D01*
X006331Y001340D01*
X006375Y001280D02*
X006375Y001260D01*
X006395Y001260D01*
X006395Y001280D01*
X006375Y001280D01*
X006073Y001260D02*
X006073Y001380D01*
X007083Y001030D02*
X007163Y001030D01*
X007163Y000910D01*
X007212Y000930D02*
X007232Y000910D01*
X007292Y000910D01*
X007292Y000870D02*
X007292Y000990D01*
X007232Y000990D01*
X007212Y000970D01*
X007212Y000930D01*
X007163Y000970D02*
X007123Y000970D01*
X007341Y000990D02*
X007341Y001010D01*
X007361Y001030D01*
X007401Y001030D01*
X007421Y001010D01*
X007470Y001010D02*
X007490Y001030D01*
X007530Y001030D01*
X007550Y001010D01*
X007470Y001010D02*
X007470Y000990D01*
X007550Y000910D01*
X007470Y000910D01*
X007421Y000910D02*
X007341Y000990D01*
X007341Y000910D02*
X007421Y000910D01*
X007421Y001090D02*
X007341Y001090D01*
X007292Y001150D02*
X007212Y001150D01*
X007232Y001090D02*
X007232Y001210D01*
X007292Y001150D01*
X007341Y001170D02*
X007341Y001190D01*
X007361Y001210D01*
X007401Y001210D01*
X007421Y001190D01*
X007470Y001190D02*
X007490Y001210D01*
X007530Y001210D01*
X007550Y001190D01*
X007550Y001110D01*
X007530Y001090D01*
X007490Y001090D01*
X007470Y001110D01*
X007421Y001090D02*
X007341Y001170D01*
X005990Y000770D02*
X005990Y000690D01*
X005970Y000670D01*
X005930Y000670D01*
X005910Y000690D01*
X005861Y000670D02*
X005781Y000670D01*
X005821Y000670D02*
X005821Y000790D01*
X005861Y000750D01*
X005910Y000770D02*
X005930Y000790D01*
X005970Y000790D01*
X005990Y000770D01*
X005732Y000790D02*
X005652Y000790D01*
X005652Y000770D01*
X005732Y000690D01*
X005732Y000670D01*
X005717Y000580D02*
X005717Y000560D01*
X005797Y000480D01*
X005797Y000460D01*
X005841Y000460D02*
X005861Y000460D01*
X005861Y000480D01*
X005841Y000480D01*
X005841Y000460D01*
X005930Y000460D02*
X005930Y000580D01*
X005990Y000520D01*
X005910Y000520D01*
X005797Y000580D02*
X005717Y000580D01*
X005668Y000540D02*
X005668Y000480D01*
X005648Y000460D01*
X005588Y000460D01*
X005588Y000540D01*
X005539Y000520D02*
X005499Y000520D01*
X005539Y000460D02*
X005539Y000580D01*
X005459Y000580D01*
X004095Y002750D02*
X004115Y002770D01*
X004035Y002850D01*
X004035Y002770D01*
X004055Y002750D01*
X004095Y002750D01*
X004115Y002770D02*
X004115Y002850D01*
X004095Y002870D01*
X004055Y002870D01*
X004035Y002850D01*
X004055Y002920D02*
X004035Y002940D01*
X004055Y002920D02*
X004095Y002920D01*
X004115Y002940D01*
X004115Y003020D01*
X004095Y003040D01*
X004055Y003040D01*
X004035Y003020D01*
X003986Y003040D02*
X003986Y002980D01*
X003946Y003000D01*
X003926Y003000D01*
X003906Y002980D01*
X003906Y002940D01*
X003926Y002920D01*
X003966Y002920D01*
X003986Y002940D01*
X003882Y002870D02*
X003882Y002750D01*
X003922Y002750D02*
X003842Y002750D01*
X003793Y002770D02*
X003773Y002750D01*
X003713Y002750D01*
X003713Y002830D01*
X003664Y002810D02*
X003624Y002810D01*
X003664Y002750D02*
X003664Y002870D01*
X003584Y002870D01*
X003793Y002830D02*
X003793Y002770D01*
X003882Y002870D02*
X003922Y002830D01*
X003966Y002770D02*
X003966Y002750D01*
X003986Y002750D01*
X003986Y002770D01*
X003966Y002770D01*
X003986Y003040D02*
X003906Y003040D01*
X003003Y003415D02*
X002923Y003495D01*
X002923Y003515D01*
X002943Y003535D01*
X002983Y003535D01*
X003003Y003515D01*
X003003Y003615D02*
X003003Y003735D01*
X002943Y003735D01*
X002923Y003715D01*
X002923Y003675D01*
X002943Y003655D01*
X003003Y003655D01*
X002963Y003655D02*
X002923Y003615D01*
X002874Y003675D02*
X002794Y003675D01*
X002814Y003615D02*
X002814Y003735D01*
X002874Y003675D01*
X002874Y003805D02*
X002874Y003825D01*
X002794Y003905D01*
X002794Y003925D01*
X002874Y003925D01*
X002923Y003905D02*
X002943Y003925D01*
X002983Y003925D01*
X003003Y003905D01*
X002923Y003905D02*
X002923Y003885D01*
X003003Y003805D01*
X002923Y003805D01*
X002923Y004005D02*
X002963Y004045D01*
X002943Y004045D02*
X003003Y004045D01*
X003003Y004005D02*
X003003Y004125D01*
X002943Y004125D01*
X002923Y004105D01*
X002923Y004065D01*
X002943Y004045D01*
X002874Y004025D02*
X002854Y004005D01*
X002814Y004005D01*
X002794Y004025D01*
X002794Y004045D01*
X002814Y004065D01*
X002834Y004065D01*
X002814Y004065D02*
X002794Y004085D01*
X002794Y004105D01*
X002814Y004125D01*
X002854Y004125D01*
X002874Y004105D01*
X002874Y003535D02*
X002794Y003535D01*
X002794Y003515D01*
X002874Y003435D01*
X002874Y003415D01*
X002923Y003415D02*
X003003Y003415D01*
X008448Y005195D02*
X008542Y005195D01*
X008542Y005055D01*
X008596Y005055D02*
X008596Y005148D01*
X008542Y005125D02*
X008495Y005125D01*
X008596Y005055D02*
X008666Y005055D01*
X008689Y005078D01*
X008689Y005148D01*
X008743Y005055D02*
X008836Y005055D01*
X008790Y005055D02*
X008790Y005195D01*
X008836Y005148D01*
X008887Y005078D02*
X008887Y005055D01*
X008910Y005055D01*
X008910Y005078D01*
X008887Y005078D01*
X008887Y005245D02*
X008840Y005245D01*
X008817Y005268D01*
X008763Y005245D02*
X008669Y005245D01*
X008716Y005245D02*
X008716Y005385D01*
X008763Y005338D01*
X008817Y005362D02*
X008840Y005385D01*
X008887Y005385D01*
X008910Y005362D01*
X008910Y005268D01*
X008887Y005245D01*
X008615Y005268D02*
X008615Y005362D01*
X008592Y005385D01*
X008545Y005385D01*
X008522Y005362D01*
X008615Y005268D01*
X008592Y005245D01*
X008545Y005245D01*
X008522Y005268D01*
X008522Y005362D01*
X008010Y005450D02*
X008010Y005473D01*
X007987Y005473D01*
X007987Y005450D01*
X008010Y005450D01*
X007936Y005450D02*
X007843Y005450D01*
X007890Y005450D02*
X007890Y005590D01*
X007936Y005543D01*
X007789Y005543D02*
X007789Y005473D01*
X007766Y005450D01*
X007696Y005450D01*
X007696Y005543D01*
X007642Y005520D02*
X007595Y005520D01*
X007642Y005450D02*
X007642Y005590D01*
X007548Y005590D01*
X007461Y005590D02*
X007441Y005590D01*
X007441Y005570D01*
X007461Y005570D01*
X007461Y005590D01*
X007397Y005570D02*
X007317Y005570D01*
X007357Y005570D02*
X007357Y005690D01*
X007397Y005650D01*
X007377Y005750D02*
X007337Y005750D01*
X007317Y005770D01*
X007268Y005750D02*
X007188Y005750D01*
X007228Y005750D02*
X007228Y005870D01*
X007268Y005830D01*
X007317Y005850D02*
X007337Y005870D01*
X007377Y005870D01*
X007397Y005850D01*
X007397Y005770D01*
X007377Y005750D01*
X007268Y005650D02*
X007268Y005590D01*
X007248Y005570D01*
X007188Y005570D01*
X007188Y005650D01*
X007139Y005630D02*
X007099Y005630D01*
X007139Y005570D02*
X007139Y005690D01*
X007059Y005690D01*
X007079Y005750D02*
X007119Y005750D01*
X007139Y005770D01*
X007099Y005810D02*
X007079Y005810D01*
X007059Y005790D01*
X007059Y005770D01*
X007079Y005750D01*
X007079Y005810D02*
X007059Y005830D01*
X007059Y005850D01*
X007079Y005870D01*
X007119Y005870D01*
X007139Y005850D01*
X007622Y005747D02*
X007622Y005723D01*
X007645Y005700D01*
X007692Y005700D01*
X007715Y005723D01*
X007715Y005747D01*
X007692Y005770D01*
X007645Y005770D01*
X007622Y005747D01*
X007645Y005700D02*
X007622Y005677D01*
X007622Y005653D01*
X007645Y005630D01*
X007692Y005630D01*
X007715Y005653D01*
X007715Y005677D01*
X007692Y005700D01*
X007769Y005630D02*
X007863Y005630D01*
X007816Y005630D02*
X007816Y005770D01*
X007863Y005723D01*
X007917Y005747D02*
X007940Y005770D01*
X007987Y005770D01*
X008010Y005747D01*
X008010Y005653D01*
X007987Y005630D01*
X007940Y005630D01*
X007917Y005653D01*
X008051Y005775D02*
X008144Y005775D01*
X008144Y005635D01*
X008198Y005635D02*
X008198Y005728D01*
X008144Y005705D02*
X008098Y005705D01*
X008198Y005635D02*
X008268Y005635D01*
X008292Y005658D01*
X008292Y005728D01*
X008346Y005752D02*
X008439Y005658D01*
X008439Y005635D01*
X008489Y005635D02*
X008513Y005635D01*
X008513Y005658D01*
X008489Y005658D01*
X008489Y005635D01*
X008590Y005635D02*
X008590Y005775D01*
X008660Y005705D01*
X008567Y005705D01*
X008590Y005845D02*
X008567Y005868D01*
X008590Y005845D02*
X008637Y005845D01*
X008660Y005868D01*
X008660Y005962D01*
X008637Y005985D01*
X008590Y005985D01*
X008567Y005962D01*
X008513Y005938D02*
X008466Y005985D01*
X008466Y005845D01*
X008513Y005845D02*
X008419Y005845D01*
X008365Y005868D02*
X008342Y005845D01*
X008295Y005845D01*
X008272Y005868D01*
X008272Y005962D01*
X008295Y005985D01*
X008342Y005985D01*
X008365Y005962D01*
X008365Y005938D01*
X008342Y005915D01*
X008272Y005915D01*
X008346Y005775D02*
X008346Y005752D01*
X008346Y005775D02*
X008439Y005775D01*
X009599Y005610D02*
X009679Y005610D01*
X009679Y005490D01*
X009728Y005510D02*
X009748Y005490D01*
X009808Y005490D01*
X009808Y005450D02*
X009808Y005570D01*
X009748Y005570D01*
X009728Y005550D01*
X009728Y005510D01*
X009679Y005550D02*
X009639Y005550D01*
X009857Y005510D02*
X009877Y005490D01*
X009917Y005490D01*
X009937Y005510D01*
X009857Y005590D01*
X009857Y005510D01*
X009937Y005510D02*
X009937Y005590D01*
X009917Y005610D01*
X009877Y005610D01*
X009857Y005590D01*
X009986Y005590D02*
X010066Y005510D01*
X010046Y005490D01*
X010006Y005490D01*
X009986Y005510D01*
X009986Y005590D01*
X010006Y005610D01*
X010046Y005610D01*
X010066Y005590D01*
X010066Y005510D01*
X010114Y005490D02*
X010195Y005490D01*
X010114Y005570D01*
X010114Y005590D01*
X010135Y005610D01*
X010175Y005610D01*
X010195Y005590D01*
X010243Y005590D02*
X010263Y005610D01*
X010303Y005610D01*
X010323Y005590D01*
X010313Y005655D02*
X010273Y005655D01*
X010253Y005675D01*
X010204Y005675D02*
X010204Y005715D01*
X010144Y005715D01*
X010124Y005695D01*
X010124Y005675D01*
X010144Y005655D01*
X010184Y005655D01*
X010204Y005675D01*
X010204Y005715D02*
X010164Y005755D01*
X010124Y005775D01*
X010253Y005755D02*
X010273Y005775D01*
X010313Y005775D01*
X010333Y005755D01*
X010333Y005675D01*
X010313Y005655D01*
X010243Y005590D02*
X010243Y005570D01*
X010323Y005490D01*
X010243Y005490D01*
X010268Y005370D02*
X010308Y005370D01*
X010328Y005350D01*
X010328Y005270D01*
X010308Y005250D01*
X010268Y005250D01*
X010248Y005270D01*
X010199Y005270D02*
X010179Y005250D01*
X010139Y005250D01*
X010119Y005270D01*
X010119Y005290D01*
X010139Y005310D01*
X010159Y005310D01*
X010139Y005310D02*
X010119Y005330D01*
X010119Y005350D01*
X010139Y005370D01*
X010179Y005370D01*
X010199Y005350D01*
X010248Y005350D02*
X010268Y005370D01*
X010270Y005210D02*
X010250Y005190D01*
X010330Y005110D01*
X010310Y005090D01*
X010270Y005090D01*
X010250Y005110D01*
X010250Y005190D01*
X010270Y005210D02*
X010310Y005210D01*
X010330Y005190D01*
X010330Y005110D01*
X010201Y005110D02*
X010181Y005110D01*
X010181Y005090D01*
X010201Y005090D01*
X010201Y005110D01*
X010137Y005090D02*
X010057Y005090D01*
X010097Y005090D02*
X010097Y005210D01*
X010137Y005170D01*
X010008Y005170D02*
X010008Y005110D01*
X009988Y005090D01*
X009928Y005090D01*
X009928Y005170D01*
X009879Y005150D02*
X009839Y005150D01*
X009879Y005090D02*
X009879Y005210D01*
X009799Y005210D01*
X011305Y005725D02*
X011305Y005845D01*
X011225Y005845D01*
X011265Y005785D02*
X011305Y005785D01*
X011354Y005785D02*
X011354Y005745D01*
X011374Y005725D01*
X011434Y005725D01*
X011434Y005685D02*
X011434Y005805D01*
X011374Y005805D01*
X011354Y005785D01*
X011483Y005745D02*
X011503Y005725D01*
X011543Y005725D01*
X011563Y005745D01*
X011483Y005825D01*
X011483Y005745D01*
X011483Y005825D02*
X011503Y005845D01*
X011543Y005845D01*
X011563Y005825D01*
X011563Y005745D01*
X011612Y005745D02*
X011632Y005725D01*
X011672Y005725D01*
X011692Y005745D01*
X011612Y005825D01*
X011612Y005745D01*
X011612Y005825D02*
X011632Y005845D01*
X011672Y005845D01*
X011692Y005825D01*
X011692Y005745D01*
X011741Y005725D02*
X011821Y005725D01*
X011741Y005805D01*
X011741Y005825D01*
X011761Y005845D01*
X011801Y005845D01*
X011821Y005825D01*
X011870Y005825D02*
X011890Y005845D01*
X011930Y005845D01*
X011950Y005825D01*
X011870Y005825D02*
X011870Y005805D01*
X011950Y005725D01*
X011870Y005725D01*
X012129Y005660D02*
X012222Y005660D01*
X012222Y005520D01*
X012276Y005543D02*
X012300Y005520D01*
X012370Y005520D01*
X012370Y005473D02*
X012370Y005613D01*
X012300Y005613D01*
X012276Y005590D01*
X012276Y005543D01*
X012222Y005590D02*
X012176Y005590D01*
X012424Y005543D02*
X012447Y005520D01*
X012494Y005520D01*
X012517Y005543D01*
X012424Y005637D01*
X012424Y005543D01*
X012517Y005543D02*
X012517Y005637D01*
X012494Y005660D01*
X012447Y005660D01*
X012424Y005637D01*
X012571Y005637D02*
X012664Y005543D01*
X012641Y005520D01*
X012594Y005520D01*
X012571Y005543D01*
X012571Y005637D01*
X012594Y005660D01*
X012641Y005660D01*
X012664Y005637D01*
X012664Y005543D01*
X012718Y005520D02*
X012812Y005520D01*
X012718Y005613D01*
X012718Y005637D01*
X012742Y005660D01*
X012788Y005660D01*
X012812Y005637D01*
X012866Y005637D02*
X012889Y005660D01*
X012936Y005660D01*
X012959Y005637D01*
X012926Y005710D02*
X012880Y005710D01*
X012856Y005733D01*
X012802Y005780D02*
X012709Y005780D01*
X012732Y005710D02*
X012732Y005850D01*
X012802Y005780D01*
X012856Y005827D02*
X012880Y005850D01*
X012926Y005850D01*
X012950Y005827D01*
X012950Y005733D01*
X012926Y005710D01*
X012866Y005637D02*
X012866Y005613D01*
X012959Y005520D01*
X012866Y005520D01*
X013259Y005210D02*
X013339Y005210D01*
X013339Y005150D01*
X013299Y005170D01*
X013279Y005170D01*
X013259Y005150D01*
X013259Y005110D01*
X013279Y005090D01*
X013319Y005090D01*
X013339Y005110D01*
X013388Y005110D02*
X013388Y005190D01*
X013468Y005110D01*
X013448Y005090D01*
X013408Y005090D01*
X013388Y005110D01*
X013468Y005110D02*
X013468Y005190D01*
X013448Y005210D01*
X013408Y005210D01*
X013388Y005190D01*
X013517Y005190D02*
X013537Y005210D01*
X013577Y005210D01*
X013597Y005190D01*
X013646Y005190D02*
X013646Y005170D01*
X013666Y005150D01*
X013646Y005130D01*
X013646Y005110D01*
X013666Y005090D01*
X013706Y005090D01*
X013726Y005110D01*
X013774Y005110D02*
X013795Y005090D01*
X013835Y005090D01*
X013855Y005110D01*
X013855Y005190D01*
X013835Y005210D01*
X013795Y005210D01*
X013774Y005190D01*
X013726Y005190D02*
X013706Y005210D01*
X013666Y005210D01*
X013646Y005190D01*
X013666Y005150D02*
X013686Y005150D01*
X013597Y005090D02*
X013517Y005170D01*
X013517Y005190D01*
X013517Y005090D02*
X013597Y005090D01*
X013903Y005110D02*
X013923Y005090D01*
X013963Y005090D01*
X013983Y005110D01*
X013963Y005150D02*
X013923Y005150D01*
X013903Y005130D01*
X013903Y005110D01*
X013963Y005150D02*
X013983Y005170D01*
X013983Y005190D01*
X013963Y005210D01*
X013923Y005210D01*
X013903Y005190D01*
X014032Y005190D02*
X014112Y005110D01*
X014112Y005090D01*
X014161Y005110D02*
X014161Y005190D01*
X014181Y005210D01*
X014221Y005210D01*
X014241Y005190D01*
X014241Y005170D01*
X014221Y005150D01*
X014161Y005150D01*
X014161Y005110D02*
X014181Y005090D01*
X014221Y005090D01*
X014241Y005110D01*
X014330Y005090D02*
X014330Y005210D01*
X014370Y005210D02*
X014290Y005210D01*
X014248Y005270D02*
X014248Y005390D01*
X014208Y005350D01*
X014168Y005390D01*
X014168Y005270D01*
X014119Y005270D02*
X014039Y005270D01*
X014079Y005270D02*
X014079Y005390D01*
X014119Y005350D01*
X014297Y005330D02*
X014317Y005310D01*
X014377Y005310D01*
X014377Y005270D02*
X014377Y005390D01*
X014317Y005390D01*
X014297Y005370D01*
X014297Y005330D01*
X014426Y005390D02*
X014506Y005390D01*
X014466Y005390D02*
X014466Y005270D01*
X014459Y005210D02*
X014419Y005170D01*
X014419Y005090D01*
X014419Y005150D02*
X014499Y005150D01*
X014499Y005170D02*
X014499Y005090D01*
X014499Y005170D02*
X014459Y005210D01*
X014112Y005210D02*
X014032Y005210D01*
X014032Y005190D01*
X011970Y005190D02*
X011970Y005110D01*
X011950Y005090D01*
X011910Y005090D01*
X011890Y005110D01*
X011841Y005090D02*
X011761Y005090D01*
X011801Y005090D02*
X011801Y005210D01*
X011841Y005170D01*
X011890Y005190D02*
X011910Y005210D01*
X011950Y005210D01*
X011970Y005190D01*
X011950Y005030D02*
X011910Y005030D01*
X011890Y005010D01*
X011970Y004930D01*
X011950Y004910D01*
X011910Y004910D01*
X011890Y004930D01*
X011890Y005010D01*
X011950Y005030D02*
X011970Y005010D01*
X011970Y004930D01*
X011841Y004930D02*
X011841Y004910D01*
X011821Y004910D01*
X011821Y004930D01*
X011841Y004930D01*
X011777Y004910D02*
X011697Y004910D01*
X011737Y004910D02*
X011737Y005030D01*
X011777Y004990D01*
X011648Y004990D02*
X011648Y004930D01*
X011628Y004910D01*
X011568Y004910D01*
X011568Y004990D01*
X011519Y004970D02*
X011479Y004970D01*
X011519Y004910D02*
X011519Y005030D01*
X011439Y005030D01*
X011741Y005915D02*
X011821Y005915D01*
X011741Y005995D01*
X011741Y006015D01*
X011761Y006035D01*
X011801Y006035D01*
X011821Y006015D01*
X011870Y006015D02*
X011890Y006035D01*
X011930Y006035D01*
X011950Y006015D01*
X011950Y005935D01*
X011930Y005915D01*
X011890Y005915D01*
X011870Y005935D01*
X006565Y006395D02*
X006485Y006395D01*
X006436Y006355D02*
X006416Y006355D01*
X006416Y006335D01*
X006436Y006335D01*
X006436Y006355D01*
X006372Y006355D02*
X006292Y006435D01*
X006292Y006455D01*
X006372Y006455D01*
X006356Y006525D02*
X006436Y006525D01*
X006396Y006525D02*
X006396Y006645D01*
X006436Y006605D01*
X006485Y006625D02*
X006505Y006645D01*
X006545Y006645D01*
X006565Y006625D01*
X006565Y006545D01*
X006545Y006525D01*
X006505Y006525D01*
X006485Y006545D01*
X006505Y006455D02*
X006565Y006395D01*
X006505Y006335D02*
X006505Y006455D01*
X006372Y006355D02*
X006372Y006335D01*
X006243Y006355D02*
X006223Y006335D01*
X006163Y006335D01*
X006163Y006415D01*
X006114Y006395D02*
X006074Y006395D01*
X006114Y006335D02*
X006114Y006455D01*
X006034Y006455D01*
X006227Y006525D02*
X006307Y006525D01*
X006227Y006605D01*
X006227Y006625D01*
X006247Y006645D01*
X006287Y006645D01*
X006307Y006625D01*
X006243Y006415D02*
X006243Y006355D01*
X005950Y005810D02*
X005910Y005810D01*
X005890Y005790D01*
X005841Y005790D02*
X005841Y005770D01*
X005821Y005750D01*
X005761Y005750D01*
X005761Y005710D02*
X005761Y005790D01*
X005781Y005810D01*
X005821Y005810D01*
X005841Y005790D01*
X005841Y005710D02*
X005821Y005690D01*
X005781Y005690D01*
X005761Y005710D01*
X005890Y005710D02*
X005910Y005690D01*
X005950Y005690D01*
X005970Y005710D01*
X005970Y005790D01*
X005950Y005810D01*
X003620Y005823D02*
X003573Y005870D01*
X003573Y005730D01*
X003527Y005730D02*
X003620Y005730D01*
X003473Y005730D02*
X003379Y005823D01*
X003379Y005847D01*
X003403Y005870D01*
X003449Y005870D01*
X003473Y005847D01*
X003478Y005935D02*
X003384Y005935D01*
X003431Y005935D02*
X003431Y006075D01*
X003478Y006028D01*
X003532Y006052D02*
X003578Y006005D01*
X003578Y005935D01*
X003578Y006005D02*
X003625Y006052D01*
X003625Y006075D01*
X003532Y006075D02*
X003532Y006052D01*
X003325Y005870D02*
X003279Y005823D01*
X003232Y005870D01*
X003232Y005730D01*
X003178Y005730D02*
X003178Y005870D01*
X003178Y005800D02*
X003085Y005800D01*
X003085Y005870D02*
X003085Y005730D01*
X003031Y005730D02*
X002937Y005730D01*
X003031Y005730D02*
X003031Y005753D01*
X002937Y005847D01*
X002937Y005870D01*
X003031Y005870D01*
X003325Y005870D02*
X003325Y005730D01*
X003379Y005730D02*
X003473Y005730D01*
D15*
X005226Y000873D02*
X005482Y000873D01*
X005718Y000873D02*
X005974Y000873D01*
X005974Y001227D01*
X005718Y001227D01*
X005754Y001272D02*
X005911Y001272D01*
X005911Y001528D01*
X005754Y001528D01*
X005596Y001528D02*
X005439Y001528D01*
X005439Y001272D01*
X005596Y001272D01*
X005482Y001227D02*
X005226Y001227D01*
X005226Y000873D01*
X007609Y000977D02*
X007766Y000977D01*
X007609Y000977D02*
X007609Y001233D01*
X007766Y001233D01*
X007924Y001233D02*
X008081Y001233D01*
X008081Y000977D01*
X007924Y000977D01*
X009914Y001672D02*
X010071Y001672D01*
X009914Y001672D02*
X009914Y001928D01*
X010071Y001928D01*
X010229Y001928D02*
X010386Y001928D01*
X010386Y001672D01*
X010229Y001672D01*
X010964Y001727D02*
X010964Y001983D01*
X011121Y001983D01*
X011279Y001983D02*
X011436Y001983D01*
X011436Y001727D01*
X011279Y001727D01*
X011121Y001727D02*
X010964Y001727D01*
X011697Y001714D02*
X011953Y001714D01*
X011953Y001871D01*
X011989Y001797D02*
X012146Y001797D01*
X011989Y001797D02*
X011989Y002053D01*
X012146Y002053D01*
X012304Y002053D02*
X012461Y002053D01*
X012461Y001797D01*
X012304Y001797D01*
X011697Y001871D02*
X011697Y001714D01*
X011697Y002029D02*
X011697Y002186D01*
X011953Y002186D01*
X011953Y002029D01*
X013289Y002053D02*
X013289Y001797D01*
X013446Y001797D01*
X013604Y001797D02*
X013761Y001797D01*
X013761Y002053D01*
X013604Y002053D01*
X013446Y002053D02*
X013289Y002053D01*
X008411Y002048D02*
X008411Y001792D01*
X008254Y001792D01*
X008096Y001792D02*
X007939Y001792D01*
X007939Y002048D01*
X008096Y002048D01*
X008254Y002048D02*
X008411Y002048D01*
X004111Y003122D02*
X003954Y003122D01*
X004111Y003122D02*
X004111Y003378D01*
X003954Y003378D01*
X003869Y003398D02*
X003869Y003752D01*
X003613Y003752D01*
X003613Y003748D02*
X003869Y003748D01*
X003869Y004102D01*
X003613Y004102D01*
X003377Y004102D02*
X003121Y004102D01*
X003121Y003748D01*
X003377Y003748D01*
X003377Y003752D02*
X003121Y003752D01*
X003121Y003398D01*
X003377Y003398D01*
X003613Y003398D02*
X003869Y003398D01*
X003796Y003378D02*
X003639Y003378D01*
X003639Y003122D01*
X003796Y003122D01*
X004112Y004324D02*
X004112Y004481D01*
X004368Y004481D02*
X004368Y004324D01*
X004112Y004324D01*
X004112Y004639D02*
X004112Y004796D01*
X004368Y004796D01*
X004368Y004639D01*
X004452Y004784D02*
X004452Y004941D01*
X004708Y004941D02*
X004708Y004784D01*
X004452Y004784D01*
X004452Y005099D02*
X004452Y005256D01*
X004708Y005256D01*
X004708Y005099D01*
X006039Y005547D02*
X006196Y005547D01*
X006039Y005547D02*
X006039Y005803D01*
X006196Y005803D01*
X006293Y005888D02*
X006549Y005888D01*
X006549Y006242D01*
X006293Y006242D01*
X006057Y006242D02*
X005801Y006242D01*
X005801Y005888D01*
X006057Y005888D01*
X006354Y005803D02*
X006511Y005803D01*
X006511Y005547D01*
X006354Y005547D01*
X006489Y005547D02*
X006489Y005803D01*
X006646Y005803D01*
X006804Y005803D02*
X006961Y005803D01*
X006961Y005547D01*
X006804Y005547D01*
X006646Y005547D02*
X006489Y005547D01*
X007782Y005311D02*
X007782Y005154D01*
X008038Y005154D02*
X008038Y005311D01*
X007782Y005311D01*
X008128Y005268D02*
X008128Y005524D01*
X008482Y005524D01*
X008482Y005268D01*
X008482Y005032D02*
X008482Y004776D01*
X008128Y004776D01*
X008128Y005032D01*
X008038Y004996D02*
X008038Y004839D01*
X007782Y004839D01*
X007782Y004996D01*
X008587Y004986D02*
X008587Y004829D01*
X008843Y004829D02*
X008843Y004986D01*
X008587Y004986D01*
X008587Y004671D02*
X008587Y004514D01*
X008843Y004514D01*
X008843Y004671D01*
X010439Y005112D02*
X010439Y005368D01*
X010596Y005368D01*
X010596Y005457D02*
X010439Y005457D01*
X010439Y005713D01*
X010596Y005713D01*
X010754Y005713D02*
X010911Y005713D01*
X010911Y005457D01*
X010754Y005457D01*
X010754Y005368D02*
X010911Y005368D01*
X010911Y005112D01*
X010754Y005112D01*
X010596Y005112D02*
X010439Y005112D01*
X011214Y005072D02*
X011371Y005072D01*
X011214Y005072D02*
X011214Y005328D01*
X011371Y005328D01*
X011371Y005397D02*
X011214Y005397D01*
X011214Y005653D01*
X011371Y005653D01*
X011529Y005653D02*
X011686Y005653D01*
X011686Y005397D01*
X011529Y005397D01*
X011529Y005328D02*
X011686Y005328D01*
X011686Y005072D01*
X011529Y005072D01*
X012672Y005146D02*
X012672Y004989D01*
X012928Y004989D01*
X012928Y005146D01*
X012928Y005304D02*
X012928Y005461D01*
X012672Y005461D01*
X012672Y005304D01*
D16*
X011548Y005200D03*
X011352Y005200D03*
X010773Y005240D03*
X010577Y005240D03*
X011352Y005525D03*
X011548Y005525D03*
X010773Y005585D03*
X010577Y005585D03*
X006823Y005675D03*
X006627Y005675D03*
X006373Y005675D03*
X006177Y005675D03*
X003973Y003250D03*
X003777Y003250D03*
X008077Y001920D03*
X008273Y001920D03*
X010052Y001800D03*
X010248Y001800D03*
X011102Y001855D03*
X011298Y001855D03*
X012127Y001925D03*
X012323Y001925D03*
X013427Y001925D03*
X013623Y001925D03*
X007943Y001105D03*
X007747Y001105D03*
X005773Y001400D03*
X005577Y001400D03*
D17*
X005675Y001439D03*
X005675Y001361D03*
X007845Y001144D03*
X007845Y001066D03*
X010150Y001761D03*
X010150Y001839D03*
X011200Y001816D03*
X011200Y001894D03*
X012225Y001886D03*
X012225Y001964D03*
X013525Y001964D03*
X013525Y001886D03*
X008175Y001881D03*
X008175Y001959D03*
X003875Y003211D03*
X003875Y003289D03*
X010675Y005201D03*
X010675Y005279D03*
X010675Y005546D03*
X010675Y005624D03*
X011450Y005564D03*
X011450Y005486D03*
X011450Y005239D03*
X011450Y005161D03*
X006725Y005636D03*
X006725Y005714D03*
X006275Y005714D03*
X006275Y005636D03*
D18*
X004365Y005190D02*
X004365Y005090D01*
X004340Y005065D01*
X004290Y005065D01*
X004265Y005090D01*
X004218Y005065D02*
X004118Y005065D01*
X004168Y005065D02*
X004168Y005215D01*
X004218Y005165D01*
X004265Y005190D02*
X004290Y005215D01*
X004340Y005215D01*
X004365Y005190D01*
X004070Y005140D02*
X003970Y005140D01*
X003995Y005065D02*
X003995Y005215D01*
X004070Y005140D01*
X003997Y005035D02*
X003897Y005035D01*
X003947Y004960D02*
X003997Y004960D01*
X004044Y004985D02*
X004044Y004885D01*
X004119Y004885D01*
X004144Y004910D01*
X004144Y004985D01*
X004241Y005035D02*
X004241Y004885D01*
X004291Y004885D02*
X004191Y004885D01*
X004291Y004985D02*
X004241Y005035D01*
X003997Y005035D02*
X003997Y004885D01*
X003980Y004735D02*
X004030Y004735D01*
X004055Y004710D01*
X004055Y004610D01*
X004030Y004585D01*
X003980Y004585D01*
X003955Y004610D01*
X003908Y004585D02*
X003808Y004585D01*
X003760Y004585D02*
X003660Y004585D01*
X003687Y004555D02*
X003587Y004555D01*
X003637Y004480D02*
X003687Y004480D01*
X003734Y004505D02*
X003734Y004405D01*
X003809Y004405D01*
X003834Y004430D01*
X003834Y004505D01*
X003858Y004585D02*
X003858Y004735D01*
X003908Y004685D01*
X003955Y004710D02*
X003980Y004735D01*
X003760Y004685D02*
X003710Y004735D01*
X003710Y004585D01*
X003687Y004555D02*
X003687Y004405D01*
X003881Y004405D02*
X003981Y004405D01*
X004030Y004405D02*
X004055Y004405D01*
X004055Y004430D01*
X004030Y004430D01*
X004030Y004405D01*
X003931Y004405D02*
X003931Y004555D01*
X003981Y004505D01*
X004340Y004885D02*
X004365Y004885D01*
X004365Y004910D01*
X004340Y004910D01*
X004340Y004885D01*
X010417Y001880D02*
X010477Y001880D01*
X010477Y001790D01*
X010509Y001805D02*
X010524Y001790D01*
X010569Y001790D01*
X010569Y001760D02*
X010569Y001850D01*
X010524Y001850D01*
X010509Y001835D01*
X010509Y001805D01*
X010477Y001835D02*
X010447Y001835D01*
X010601Y001865D02*
X010601Y001805D01*
X010616Y001790D01*
X010646Y001790D01*
X010661Y001805D01*
X010601Y001865D01*
X010616Y001880D01*
X010646Y001880D01*
X010661Y001865D01*
X010661Y001805D01*
X010693Y001805D02*
X010708Y001790D01*
X010738Y001790D01*
X010753Y001805D01*
X010693Y001865D01*
X010693Y001805D01*
X010693Y001865D02*
X010708Y001880D01*
X010738Y001880D01*
X010753Y001865D01*
X010753Y001805D01*
X010785Y001790D02*
X010845Y001790D01*
X010785Y001850D01*
X010785Y001865D01*
X010800Y001880D01*
X010830Y001880D01*
X010845Y001865D01*
X010877Y001865D02*
X010892Y001880D01*
X010922Y001880D01*
X010937Y001865D01*
X010877Y001865D02*
X010877Y001850D01*
X010937Y001790D01*
X010877Y001790D01*
D19*
X005757Y001050D03*
X005443Y001050D03*
X003652Y003575D03*
X003338Y003575D03*
X003338Y003925D03*
X003652Y003925D03*
X006018Y006065D03*
X006332Y006065D03*
D20*
X006175Y005986D03*
X006175Y006144D03*
X003495Y004004D03*
X003495Y003846D03*
X003495Y003654D03*
X003495Y003496D03*
X005600Y001129D03*
X005600Y000971D03*
D21*
X011825Y001852D03*
X011825Y002048D03*
X004240Y004462D03*
X004240Y004658D03*
X004580Y004922D03*
X004580Y005118D03*
X007910Y005173D03*
X007910Y004977D03*
X008715Y004848D03*
X008715Y004652D03*
X012800Y005127D03*
X012800Y005323D03*
D22*
X012761Y005225D03*
X012839Y005225D03*
X008754Y004750D03*
X008676Y004750D03*
X007949Y005075D03*
X007871Y005075D03*
X004619Y005020D03*
X004541Y005020D03*
X004279Y004560D03*
X004201Y004560D03*
X011786Y001950D03*
X011864Y001950D03*
D23*
X008305Y004993D03*
X008305Y005307D03*
D24*
X008226Y005150D03*
X008384Y005150D03*
D25*
X003485Y005662D02*
X002973Y005662D01*
X002973Y004185D02*
X003485Y004185D01*
M02*
