G75*
%MOIN*%
%OFA0B0*%
%FSLAX24Y24*%
%IPPOS*%
%LPD*%
%AMOC8*
5,1,8,0,0,1.08239X$1,22.5*
%
%ADD10C,0.0390*%
%ADD11C,0.0474*%
%ADD12C,0.0820*%
%ADD13C,0.1346*%
%ADD14C,0.0513*%
%ADD15R,0.0320X0.0950*%
%ADD16R,0.0395X0.0395*%
%ADD17R,0.0138X0.0177*%
%ADD18R,0.0178X0.0277*%
%ADD19R,0.0710X0.0434*%
%ADD20R,0.0356X0.0434*%
%ADD21R,0.0276X0.0236*%
%ADD22R,0.0177X0.0138*%
%ADD23R,0.0474X0.0513*%
%ADD24R,0.0236X0.0276*%
D10*
X015550Y002975D03*
X015550Y002975D03*
X015550Y002975D03*
X016050Y002975D03*
X016050Y003475D03*
X015550Y003475D03*
X015550Y003975D03*
X016050Y003975D03*
X016050Y004475D03*
X015550Y004475D03*
X015550Y004975D03*
X016050Y004975D03*
D11*
X003125Y000850D03*
X015800Y002475D03*
X016800Y000850D03*
X016200Y005475D03*
X015400Y005475D03*
X003150Y006300D03*
D12*
X002045Y005118D03*
X002045Y004184D03*
X002045Y003296D03*
X002045Y002362D03*
D13*
X001100Y001457D03*
X001100Y006023D03*
D14*
X001061Y004626D03*
X001061Y002854D03*
D15*
X004250Y002520D03*
X004750Y002520D03*
X005250Y002520D03*
X005750Y002520D03*
X006750Y002520D03*
X007250Y002520D03*
X007750Y002520D03*
X008250Y002520D03*
X009300Y002570D03*
X009800Y002570D03*
X010300Y002570D03*
X010800Y002570D03*
X008250Y004580D03*
X007750Y004580D03*
X007250Y004580D03*
X006750Y004580D03*
X005750Y004580D03*
X005250Y004580D03*
X004750Y004580D03*
X004250Y004580D03*
X009300Y004630D03*
X009800Y004630D03*
X010300Y004630D03*
X010800Y004630D03*
D16*
X013705Y003995D03*
X014295Y003995D03*
X014295Y003170D03*
X013705Y003170D03*
X010395Y000700D03*
X009805Y000700D03*
X007795Y000680D03*
X007205Y000680D03*
X005270Y000735D03*
X004680Y000735D03*
X002975Y001530D03*
X002975Y002120D03*
D17*
X004092Y000735D03*
X004348Y000735D03*
X006597Y000725D03*
X006853Y000725D03*
X009192Y000700D03*
X009448Y000700D03*
X014597Y003175D03*
X014853Y003175D03*
X005753Y005525D03*
X005497Y005525D03*
X005253Y005525D03*
X004997Y005525D03*
D18*
X003370Y004174D03*
X003173Y004174D03*
X002977Y004174D03*
X002780Y004174D03*
X002780Y003426D03*
X002977Y003426D03*
X003173Y003426D03*
X003370Y003426D03*
D19*
X003075Y003800D03*
D20*
X002969Y002800D03*
X003481Y002800D03*
D21*
X002500Y001517D03*
X002500Y001083D03*
D22*
X005985Y001347D03*
X006300Y001353D03*
X006300Y001097D03*
X005985Y001603D03*
X013700Y002572D03*
X013700Y002828D03*
X017065Y003212D03*
X017065Y003468D03*
X017065Y004482D03*
X017065Y004738D03*
X014450Y004722D03*
X014450Y004978D03*
X013700Y004603D03*
X013700Y004347D03*
D23*
X003620Y002110D03*
X003620Y001440D03*
D24*
X003167Y004685D03*
X002733Y004685D03*
X003158Y005350D03*
X003592Y005350D03*
M02*
