G75*
%MOIN*%
%OFA0B0*%
%FSLAX24Y24*%
%IPPOS*%
%LPD*%
%AMOC8*
5,1,8,0,0,1.08239X$1,22.5*
%
%ADD10R,0.0180X0.0530*%
%ADD11R,0.0530X0.0180*%
%ADD12C,0.0474*%
%ADD13C,0.0820*%
%ADD14C,0.1346*%
%ADD15C,0.0513*%
%ADD16R,0.0178X0.0395*%
%ADD17R,0.0138X0.0177*%
%ADD18R,0.0236X0.0276*%
%ADD19R,0.0177X0.0138*%
%ADD20R,0.0276X0.0236*%
%ADD21C,0.0257*%
%ADD22R,0.0604X0.1376*%
%ADD23R,0.0552X0.0316*%
D10*
X005217Y001877D03*
X005414Y001877D03*
X005611Y001877D03*
X005808Y001877D03*
X006005Y001877D03*
X006202Y001877D03*
X006398Y001877D03*
X006595Y001877D03*
X006792Y001877D03*
X006989Y001877D03*
X007186Y001877D03*
X007383Y001877D03*
X007383Y005223D03*
X007186Y005223D03*
X006989Y005223D03*
X006792Y005223D03*
X006595Y005223D03*
X006398Y005223D03*
X006202Y005223D03*
X006005Y005223D03*
X005808Y005223D03*
X005611Y005223D03*
X005414Y005223D03*
X005217Y005223D03*
D11*
X004627Y004633D03*
X004627Y004436D03*
X004627Y004239D03*
X004627Y004042D03*
X004627Y003845D03*
X004627Y003648D03*
X004627Y003452D03*
X004627Y003255D03*
X004627Y003058D03*
X004627Y002861D03*
X004627Y002664D03*
X004627Y002467D03*
X007973Y002467D03*
X007973Y002664D03*
X007973Y002861D03*
X007973Y003058D03*
X007973Y003255D03*
X007973Y003452D03*
X007973Y003648D03*
X007973Y003845D03*
X007973Y004042D03*
X007973Y004239D03*
X007973Y004436D03*
X007973Y004633D03*
D12*
X003125Y000850D03*
X015800Y002475D03*
X015400Y005475D03*
X016200Y005475D03*
X016775Y006300D03*
X003150Y006300D03*
D13*
X002045Y005118D03*
X002045Y004184D03*
X002045Y003296D03*
X002045Y002362D03*
D14*
X001100Y001457D03*
X001100Y006023D03*
D15*
X001061Y004626D03*
X001061Y002854D03*
D16*
X010280Y002400D03*
X010540Y002400D03*
X010800Y002400D03*
X011060Y002400D03*
X011320Y002400D03*
X011580Y002400D03*
X011840Y002400D03*
X012100Y002398D03*
X012360Y002400D03*
X012620Y002400D03*
X012880Y002400D03*
X013140Y002400D03*
X013400Y002400D03*
X013660Y002400D03*
X013660Y004700D03*
X013400Y004700D03*
X013140Y004700D03*
X012880Y004700D03*
X012620Y004700D03*
X012360Y004700D03*
X012100Y004702D03*
X011840Y004700D03*
X011580Y004700D03*
X011320Y004700D03*
X011060Y004700D03*
X010800Y004700D03*
X010540Y004700D03*
X010280Y004700D03*
D17*
X011322Y005200D03*
X011578Y005200D03*
X010803Y005240D03*
X010547Y005240D03*
X011322Y005525D03*
X011578Y005525D03*
X010803Y005585D03*
X010547Y005585D03*
X006853Y005675D03*
X006597Y005675D03*
X006403Y005675D03*
X006147Y005675D03*
X004003Y003250D03*
X003747Y003250D03*
X008047Y001920D03*
X008303Y001920D03*
X010022Y001800D03*
X010278Y001800D03*
X011072Y001855D03*
X011328Y001855D03*
X012097Y001925D03*
X012353Y001925D03*
X013397Y001925D03*
X013653Y001925D03*
X007973Y001105D03*
X007717Y001105D03*
X005803Y001400D03*
X005547Y001400D03*
D18*
X005383Y001050D03*
X005817Y001050D03*
X003712Y003575D03*
X003278Y003575D03*
X003278Y003925D03*
X003712Y003925D03*
X005958Y006065D03*
X006392Y006065D03*
D19*
X007910Y005203D03*
X007910Y004947D03*
X008715Y004878D03*
X008715Y004622D03*
X012800Y005097D03*
X012800Y005353D03*
X004580Y005148D03*
X004580Y004892D03*
X004240Y004688D03*
X004240Y004432D03*
X011825Y002078D03*
X011825Y001822D03*
D20*
X008305Y004933D03*
X008305Y005367D03*
D21*
X003512Y005397D02*
X003512Y005397D01*
X002938Y005397D01*
X002938Y005397D01*
X003512Y005397D01*
X003512Y004925D02*
X003512Y004925D01*
X002938Y004925D01*
X002938Y004925D01*
X003512Y004925D01*
X003512Y004453D02*
X003512Y004453D01*
X002938Y004453D01*
X002938Y004453D01*
X003512Y004453D01*
D22*
X003224Y004924D03*
D23*
X008311Y001462D03*
X008311Y001108D03*
X010792Y001108D03*
X010792Y001462D03*
M02*
