G75*
%MOIN*%
%OFA0B0*%
%FSLAX25Y25*%
%IPPOS*%
%LPD*%
%AMOC8*
5,1,8,0,0,1.08239X$1,22.5*
%
%ADD10C,0.03100*%
%ADD11C,0.07400*%
%ADD12C,0.12661*%
%ADD13R,0.02400X0.08700*%
%ADD14C,0.03937*%
%ADD15R,0.03150X0.03150*%
%ADD16R,0.02362X0.01969*%
%ADD17R,0.00984X0.01969*%
%ADD18R,0.06299X0.03543*%
%ADD19R,0.02756X0.03543*%
%ADD20R,0.01969X0.02362*%
%ADD21R,0.03937X0.04331*%
%ADD22C,0.01800*%
%ADD23C,0.01000*%
%ADD24C,0.01600*%
%ADD25C,0.00800*%
%ADD26C,0.01400*%
%ADD27C,0.02000*%
%ADD28C,0.02200*%
%ADD29C,0.01800*%
D10*
X0215979Y0031550D03*
X0220979Y0031550D03*
X0220979Y0036550D03*
X0215979Y0036550D03*
X0215979Y0041550D03*
X0220979Y0041550D03*
X0220979Y0046550D03*
X0215979Y0046550D03*
X0215979Y0051550D03*
X0220979Y0051550D03*
D11*
X0080928Y0052980D03*
X0080928Y0043637D03*
X0080928Y0034763D03*
X0080928Y0025420D03*
D12*
X0071479Y0016365D03*
X0071479Y0062035D03*
D13*
X0102979Y0047600D03*
X0107979Y0047600D03*
X0112979Y0047600D03*
X0117979Y0047600D03*
X0127979Y0047600D03*
X0132979Y0047600D03*
X0137979Y0047600D03*
X0142979Y0047600D03*
X0153479Y0048100D03*
X0158479Y0048100D03*
X0163479Y0048100D03*
X0168479Y0048100D03*
X0168479Y0027500D03*
X0163479Y0027500D03*
X0158479Y0027500D03*
X0153479Y0027500D03*
X0142979Y0027000D03*
X0137979Y0027000D03*
X0132979Y0027000D03*
X0127979Y0027000D03*
X0117979Y0027000D03*
X0112979Y0027000D03*
X0107979Y0027000D03*
X0102979Y0027000D03*
D14*
X0091979Y0064800D03*
X0228229Y0064800D03*
X0228479Y0010300D03*
D15*
X0203431Y0033500D03*
X0197526Y0033500D03*
X0197526Y0041750D03*
X0203431Y0041750D03*
X0164431Y0008800D03*
X0158526Y0008800D03*
X0138431Y0008600D03*
X0132526Y0008600D03*
X0113181Y0009150D03*
X0107276Y0009150D03*
X0090229Y0017097D03*
X0090229Y0023003D03*
D16*
X0085379Y0017065D03*
X0085379Y0012735D03*
X0124179Y0012285D03*
X0124179Y0016615D03*
X0197379Y0025335D03*
X0197379Y0029665D03*
X0208929Y0041485D03*
X0208929Y0045815D03*
X0203579Y0047235D03*
X0197479Y0045585D03*
X0197479Y0049915D03*
X0203579Y0051565D03*
X0231529Y0050965D03*
X0231529Y0046635D03*
X0231329Y0036365D03*
X0231329Y0032035D03*
X0118129Y0058385D03*
X0112829Y0058385D03*
X0112829Y0062715D03*
X0118129Y0062715D03*
D17*
X0094181Y0043540D03*
X0092213Y0043540D03*
X0090244Y0043540D03*
X0088276Y0043540D03*
X0088276Y0036060D03*
X0090244Y0036060D03*
X0092213Y0036060D03*
X0094181Y0036060D03*
D18*
X0091229Y0039800D03*
D19*
X0090170Y0029800D03*
X0095288Y0029800D03*
D20*
X0115763Y0016650D03*
X0120094Y0016650D03*
X0103444Y0009150D03*
X0099113Y0009150D03*
X0124363Y0008650D03*
X0128694Y0008650D03*
X0150313Y0008800D03*
X0154644Y0008800D03*
X0092144Y0047250D03*
X0087813Y0047250D03*
X0092063Y0055300D03*
X0096394Y0055300D03*
D21*
X0096679Y0022896D03*
X0096679Y0016204D03*
D22*
X0105279Y0019800D03*
X0109279Y0016300D03*
X0109179Y0013200D03*
X0106379Y0012550D03*
X0121429Y0011700D03*
X0126479Y0016700D03*
X0137179Y0016500D03*
X0153979Y0014300D03*
X0162279Y0014300D03*
X0156079Y0020700D03*
X0178879Y0030200D03*
X0191979Y0029550D03*
X0191979Y0033300D03*
X0194679Y0036800D03*
X0176229Y0043800D03*
X0191879Y0044600D03*
X0207979Y0051550D03*
X0197479Y0060000D03*
X0173729Y0061300D03*
X0168679Y0062000D03*
X0151029Y0047950D03*
X0121079Y0048900D03*
X0120979Y0045800D03*
X0118079Y0041400D03*
X0111279Y0039000D03*
X0098379Y0029400D03*
X0148279Y0032400D03*
X0163729Y0033800D03*
X0203479Y0028550D03*
X0210879Y0027600D03*
X0231279Y0029200D03*
X0191629Y0016500D03*
X0098679Y0006200D03*
X0231579Y0054100D03*
X0109379Y0062700D03*
X0102979Y0057500D03*
D23*
X0124479Y0047600D02*
X0124479Y0047550D01*
X0092213Y0047505D02*
X0092213Y0043540D01*
X0090244Y0043540D01*
X0090244Y0036060D02*
X0090244Y0029875D01*
X0093229Y0032550D02*
X0094479Y0032550D01*
X0095229Y0031800D01*
X0095229Y0029859D01*
X0093229Y0032550D02*
X0092229Y0033550D01*
X0092229Y0036060D01*
X0109179Y0013200D02*
X0115379Y0013200D01*
X0115474Y0013198D01*
X0115569Y0013192D01*
X0115663Y0013182D01*
X0115758Y0013169D01*
X0115851Y0013151D01*
X0115944Y0013130D01*
X0116035Y0013104D01*
X0116126Y0013075D01*
X0116215Y0013043D01*
X0116303Y0013006D01*
X0116389Y0012966D01*
X0116474Y0012923D01*
X0116556Y0012876D01*
X0116637Y0012825D01*
X0116715Y0012772D01*
X0116792Y0012715D01*
X0116865Y0012655D01*
X0116937Y0012592D01*
X0117005Y0012526D01*
X0117071Y0012458D01*
X0117134Y0012386D01*
X0117194Y0012313D01*
X0117251Y0012236D01*
X0117304Y0012158D01*
X0117355Y0012077D01*
X0117402Y0011995D01*
X0117445Y0011910D01*
X0117485Y0011824D01*
X0117522Y0011736D01*
X0117554Y0011647D01*
X0117583Y0011556D01*
X0117609Y0011465D01*
X0117630Y0011372D01*
X0117648Y0011279D01*
X0117661Y0011184D01*
X0117671Y0011090D01*
X0117677Y0010995D01*
X0117679Y0010900D01*
X0117679Y0010600D01*
X0117681Y0010513D01*
X0117687Y0010425D01*
X0117697Y0010338D01*
X0117710Y0010252D01*
X0117728Y0010166D01*
X0117749Y0010081D01*
X0117774Y0009997D01*
X0117803Y0009915D01*
X0117836Y0009834D01*
X0117872Y0009754D01*
X0117912Y0009676D01*
X0117955Y0009600D01*
X0118002Y0009526D01*
X0118051Y0009454D01*
X0118104Y0009384D01*
X0118161Y0009317D01*
X0118220Y0009252D01*
X0118281Y0009191D01*
X0118346Y0009132D01*
X0118413Y0009075D01*
X0118483Y0009022D01*
X0118555Y0008973D01*
X0118629Y0008926D01*
X0118705Y0008883D01*
X0118783Y0008843D01*
X0118863Y0008807D01*
X0118944Y0008774D01*
X0119026Y0008745D01*
X0119110Y0008720D01*
X0119195Y0008699D01*
X0119281Y0008681D01*
X0119367Y0008668D01*
X0119454Y0008658D01*
X0119542Y0008652D01*
X0119629Y0008650D01*
X0124363Y0008650D01*
X0162279Y0014300D02*
X0164431Y0012447D01*
X0164431Y0008800D01*
X0191629Y0016500D02*
X0198779Y0016500D01*
X0199011Y0016498D01*
X0199243Y0016502D01*
X0199475Y0016511D01*
X0199706Y0016526D01*
X0199938Y0016546D01*
X0200168Y0016572D01*
X0200398Y0016603D01*
X0200627Y0016641D01*
X0200855Y0016683D01*
X0201082Y0016731D01*
X0201308Y0016785D01*
X0201532Y0016844D01*
X0201755Y0016908D01*
X0201977Y0016978D01*
X0202196Y0017053D01*
X0202414Y0017133D01*
X0202630Y0017219D01*
X0202843Y0017310D01*
X0203054Y0017406D01*
X0203263Y0017507D01*
X0203470Y0017613D01*
X0203673Y0017724D01*
X0203874Y0017840D01*
X0204073Y0017960D01*
X0204268Y0018086D01*
X0204460Y0018216D01*
X0204649Y0018351D01*
X0204834Y0018490D01*
X0205017Y0018634D01*
X0205195Y0018782D01*
X0205370Y0018934D01*
X0205542Y0019091D01*
X0205709Y0019251D01*
X0205873Y0019416D01*
X0206032Y0019584D01*
X0206187Y0019757D01*
X0206339Y0019933D01*
X0206485Y0020112D01*
X0206628Y0020296D01*
X0206766Y0020482D01*
X0206899Y0020672D01*
X0207028Y0020865D01*
X0207152Y0021061D01*
X0207272Y0021260D01*
X0207386Y0021462D01*
X0207496Y0021666D01*
X0207601Y0021873D01*
X0207700Y0022083D01*
X0207795Y0022295D01*
X0207884Y0022509D01*
X0207968Y0022725D01*
X0208047Y0022943D01*
X0208121Y0023163D01*
X0208189Y0023385D01*
X0208252Y0023608D01*
X0208310Y0023833D01*
X0208362Y0024059D01*
X0208408Y0024287D01*
X0208449Y0024515D01*
X0208485Y0024744D01*
X0208515Y0024974D01*
X0208539Y0025205D01*
X0208558Y0025436D01*
X0208571Y0025668D01*
X0208579Y0025900D01*
X0208579Y0040935D01*
X0197479Y0049915D02*
X0197479Y0060000D01*
X0231579Y0051430D02*
X0231529Y0050965D01*
X0231329Y0032035D02*
X0231279Y0031970D01*
X0163479Y0044800D02*
X0163479Y0048100D01*
D24*
X0168479Y0048100D02*
X0168479Y0056050D01*
X0168474Y0056180D01*
X0168464Y0056309D01*
X0168451Y0056438D01*
X0168434Y0056567D01*
X0168413Y0056695D01*
X0168388Y0056822D01*
X0168360Y0056949D01*
X0168327Y0057074D01*
X0168292Y0057199D01*
X0168252Y0057322D01*
X0168209Y0057445D01*
X0168162Y0057566D01*
X0168111Y0057685D01*
X0168058Y0057803D01*
X0168000Y0057919D01*
X0167939Y0058034D01*
X0167875Y0058147D01*
X0167808Y0058258D01*
X0167737Y0058366D01*
X0167663Y0058473D01*
X0167586Y0058577D01*
X0167506Y0058679D01*
X0167423Y0058779D01*
X0167337Y0058876D01*
X0167248Y0058970D01*
X0167156Y0059062D01*
X0167062Y0059151D01*
X0166965Y0059238D01*
X0166866Y0059321D01*
X0166764Y0059401D01*
X0166660Y0059479D01*
X0166553Y0059553D01*
X0166445Y0059624D01*
X0166334Y0059691D01*
X0166221Y0059756D01*
X0166107Y0059817D01*
X0165991Y0059875D01*
X0165873Y0059929D01*
X0165753Y0059979D01*
X0165632Y0060026D01*
X0165510Y0060070D01*
X0165387Y0060110D01*
X0165262Y0060146D01*
X0165137Y0060178D01*
X0165010Y0060207D01*
X0164883Y0060232D01*
X0164755Y0060253D01*
X0164626Y0060271D01*
X0164497Y0060284D01*
X0164368Y0060294D01*
X0164238Y0060300D01*
X0164109Y0060302D01*
X0163979Y0060300D01*
X0149229Y0060300D01*
X0137479Y0060300D02*
X0121979Y0060300D01*
X0118129Y0062715D02*
X0114949Y0062680D01*
X0112865Y0062680D01*
X0112829Y0062715D01*
X0112829Y0062700D01*
X0109379Y0062700D01*
X0112879Y0058020D02*
X0112979Y0047600D01*
X0112979Y0042150D01*
X0112972Y0042043D01*
X0112969Y0041935D01*
X0112970Y0041828D01*
X0112974Y0041721D01*
X0112983Y0041613D01*
X0112995Y0041507D01*
X0113011Y0041400D01*
X0113030Y0041295D01*
X0113054Y0041190D01*
X0113081Y0041086D01*
X0113112Y0040983D01*
X0113147Y0040881D01*
X0113185Y0040781D01*
X0113227Y0040682D01*
X0113272Y0040584D01*
X0113320Y0040489D01*
X0113373Y0040395D01*
X0113428Y0040303D01*
X0113487Y0040212D01*
X0113548Y0040125D01*
X0113613Y0040039D01*
X0113681Y0039956D01*
X0113752Y0039875D01*
X0113826Y0039797D01*
X0113902Y0039721D01*
X0113981Y0039648D01*
X0114063Y0039579D01*
X0114147Y0039512D01*
X0114233Y0039448D01*
X0114322Y0039387D01*
X0114413Y0039330D01*
X0114506Y0039275D01*
X0114600Y0039224D01*
X0114697Y0039177D01*
X0114795Y0039133D01*
X0114894Y0039092D01*
X0114995Y0039055D01*
X0115097Y0039022D01*
X0115200Y0038992D01*
X0115305Y0038967D01*
X0115410Y0038944D01*
X0115516Y0038926D01*
X0115622Y0038911D01*
X0115729Y0038900D01*
X0131479Y0038900D01*
X0135879Y0038900D01*
X0135965Y0038896D01*
X0136052Y0038897D01*
X0136138Y0038901D01*
X0136224Y0038908D01*
X0136309Y0038920D01*
X0136394Y0038935D01*
X0136479Y0038954D01*
X0136562Y0038976D01*
X0136644Y0039002D01*
X0136725Y0039032D01*
X0136805Y0039065D01*
X0136883Y0039102D01*
X0136960Y0039142D01*
X0137034Y0039185D01*
X0137107Y0039232D01*
X0137178Y0039282D01*
X0137246Y0039334D01*
X0137312Y0039390D01*
X0137376Y0039449D01*
X0137437Y0039510D01*
X0137495Y0039573D01*
X0137550Y0039640D01*
X0137603Y0039708D01*
X0137652Y0039779D01*
X0137698Y0039852D01*
X0137741Y0039927D01*
X0137781Y0040004D01*
X0137817Y0040082D01*
X0137850Y0040162D01*
X0137879Y0040243D01*
X0137905Y0040325D01*
X0137927Y0040409D01*
X0137946Y0040493D01*
X0137961Y0040578D01*
X0137972Y0040664D01*
X0137979Y0040750D01*
X0137979Y0041700D01*
X0137979Y0047600D01*
X0142979Y0047600D02*
X0142979Y0054300D01*
X0142984Y0054455D01*
X0142993Y0054610D01*
X0143006Y0054765D01*
X0143023Y0054919D01*
X0143044Y0055073D01*
X0143069Y0055226D01*
X0143097Y0055379D01*
X0143130Y0055530D01*
X0143166Y0055681D01*
X0143206Y0055831D01*
X0143250Y0055980D01*
X0143298Y0056128D01*
X0143349Y0056274D01*
X0143404Y0056419D01*
X0143463Y0056563D01*
X0143525Y0056705D01*
X0143591Y0056846D01*
X0143660Y0056985D01*
X0143733Y0057122D01*
X0143810Y0057257D01*
X0143889Y0057390D01*
X0143972Y0057521D01*
X0144059Y0057650D01*
X0144148Y0057776D01*
X0144241Y0057901D01*
X0144337Y0058023D01*
X0144436Y0058142D01*
X0144538Y0058259D01*
X0144643Y0058374D01*
X0144751Y0058485D01*
X0144862Y0058594D01*
X0144975Y0058700D01*
X0145091Y0058803D01*
X0145209Y0058904D01*
X0145330Y0059001D01*
X0145454Y0059095D01*
X0145580Y0059186D01*
X0145708Y0059273D01*
X0145838Y0059358D01*
X0145970Y0059439D01*
X0146105Y0059517D01*
X0146241Y0059591D01*
X0146379Y0059662D01*
X0146519Y0059729D01*
X0146660Y0059793D01*
X0146804Y0059853D01*
X0146948Y0059909D01*
X0147094Y0059962D01*
X0147241Y0060011D01*
X0147390Y0060056D01*
X0147539Y0060098D01*
X0147690Y0060136D01*
X0147841Y0060169D01*
X0147994Y0060200D01*
X0148147Y0060226D01*
X0148300Y0060248D01*
X0148454Y0060266D01*
X0148609Y0060281D01*
X0148764Y0060292D01*
X0148919Y0060298D01*
X0149074Y0060301D01*
X0149229Y0060300D01*
X0142979Y0054300D02*
X0142983Y0054451D01*
X0142984Y0054601D01*
X0142980Y0054752D01*
X0142973Y0054902D01*
X0142962Y0055053D01*
X0142947Y0055203D01*
X0142928Y0055352D01*
X0142905Y0055501D01*
X0142878Y0055649D01*
X0142847Y0055797D01*
X0142813Y0055943D01*
X0142774Y0056089D01*
X0142732Y0056234D01*
X0142686Y0056377D01*
X0142637Y0056519D01*
X0142583Y0056660D01*
X0142526Y0056800D01*
X0142465Y0056938D01*
X0142401Y0057074D01*
X0142333Y0057208D01*
X0142262Y0057341D01*
X0142187Y0057472D01*
X0142109Y0057601D01*
X0142027Y0057727D01*
X0141943Y0057852D01*
X0141855Y0057974D01*
X0141763Y0058094D01*
X0141669Y0058211D01*
X0141572Y0058326D01*
X0141471Y0058439D01*
X0141368Y0058549D01*
X0141262Y0058655D01*
X0141153Y0058760D01*
X0141042Y0058861D01*
X0140927Y0058959D01*
X0140811Y0059055D01*
X0140692Y0059147D01*
X0140570Y0059236D01*
X0140446Y0059322D01*
X0140320Y0059404D01*
X0140192Y0059484D01*
X0140062Y0059559D01*
X0139930Y0059632D01*
X0139796Y0059701D01*
X0139660Y0059766D01*
X0139523Y0059828D01*
X0139384Y0059886D01*
X0139243Y0059941D01*
X0139102Y0059992D01*
X0138959Y0060039D01*
X0138814Y0060082D01*
X0138669Y0060122D01*
X0138523Y0060158D01*
X0138375Y0060190D01*
X0138227Y0060218D01*
X0138079Y0060242D01*
X0137929Y0060262D01*
X0137780Y0060279D01*
X0137629Y0060291D01*
X0137479Y0060300D01*
X0121979Y0060300D02*
X0121853Y0060298D01*
X0121728Y0060292D01*
X0121603Y0060282D01*
X0121478Y0060268D01*
X0121353Y0060251D01*
X0121229Y0060229D01*
X0121106Y0060204D01*
X0120984Y0060174D01*
X0120863Y0060141D01*
X0120743Y0060104D01*
X0120624Y0060064D01*
X0120507Y0060019D01*
X0120390Y0059971D01*
X0120276Y0059919D01*
X0120163Y0059864D01*
X0120052Y0059805D01*
X0119943Y0059743D01*
X0119836Y0059677D01*
X0119731Y0059608D01*
X0119628Y0059536D01*
X0119527Y0059461D01*
X0119429Y0059382D01*
X0119334Y0059300D01*
X0119241Y0059216D01*
X0119151Y0059128D01*
X0119063Y0059038D01*
X0118979Y0058945D01*
X0118897Y0058850D01*
X0118818Y0058752D01*
X0118743Y0058651D01*
X0118671Y0058548D01*
X0118602Y0058443D01*
X0118536Y0058336D01*
X0118474Y0058227D01*
X0118415Y0058116D01*
X0118360Y0058003D01*
X0118308Y0057889D01*
X0118260Y0057772D01*
X0118215Y0057655D01*
X0118175Y0057536D01*
X0118138Y0057416D01*
X0118105Y0057295D01*
X0118075Y0057173D01*
X0118050Y0057050D01*
X0118028Y0056926D01*
X0118011Y0056801D01*
X0117997Y0056676D01*
X0117987Y0056551D01*
X0117981Y0056426D01*
X0117979Y0056300D01*
X0117979Y0047600D01*
X0124479Y0047600D02*
X0127979Y0047600D01*
X0137979Y0041700D02*
X0137967Y0041605D01*
X0137958Y0041510D01*
X0137954Y0041414D01*
X0137953Y0041319D01*
X0137956Y0041223D01*
X0137963Y0041127D01*
X0137974Y0041032D01*
X0137989Y0040938D01*
X0138008Y0040844D01*
X0138030Y0040751D01*
X0138056Y0040659D01*
X0138085Y0040568D01*
X0138119Y0040478D01*
X0138156Y0040390D01*
X0138196Y0040303D01*
X0138240Y0040218D01*
X0138287Y0040135D01*
X0138338Y0040054D01*
X0138392Y0039974D01*
X0138449Y0039898D01*
X0138509Y0039823D01*
X0138572Y0039751D01*
X0138637Y0039682D01*
X0138706Y0039615D01*
X0138777Y0039551D01*
X0138851Y0039490D01*
X0138927Y0039432D01*
X0139005Y0039377D01*
X0139086Y0039325D01*
X0139168Y0039277D01*
X0139253Y0039232D01*
X0139339Y0039190D01*
X0139427Y0039152D01*
X0139516Y0039117D01*
X0139607Y0039087D01*
X0139698Y0039059D01*
X0139791Y0039036D01*
X0139885Y0039016D01*
X0139979Y0039000D01*
X0159029Y0039000D01*
X0159170Y0039021D01*
X0159310Y0039045D01*
X0159450Y0039073D01*
X0159589Y0039106D01*
X0159726Y0039142D01*
X0159863Y0039181D01*
X0159999Y0039225D01*
X0160133Y0039272D01*
X0160266Y0039323D01*
X0160398Y0039377D01*
X0160528Y0039435D01*
X0160656Y0039497D01*
X0160783Y0039562D01*
X0160908Y0039631D01*
X0161031Y0039703D01*
X0161152Y0039778D01*
X0161270Y0039857D01*
X0161387Y0039939D01*
X0161501Y0040024D01*
X0161613Y0040113D01*
X0161722Y0040204D01*
X0161829Y0040298D01*
X0161933Y0040395D01*
X0162034Y0040495D01*
X0162133Y0040598D01*
X0162229Y0040704D01*
X0162321Y0040812D01*
X0162411Y0040922D01*
X0162498Y0041035D01*
X0162582Y0041151D01*
X0162662Y0041268D01*
X0162739Y0041388D01*
X0162813Y0041510D01*
X0162883Y0041634D01*
X0162950Y0041760D01*
X0163013Y0041887D01*
X0163073Y0042016D01*
X0163130Y0042147D01*
X0163182Y0042280D01*
X0163231Y0042413D01*
X0163277Y0042548D01*
X0163318Y0042685D01*
X0163356Y0042822D01*
X0163390Y0042960D01*
X0163420Y0043099D01*
X0163447Y0043239D01*
X0163469Y0043380D01*
X0163488Y0043521D01*
X0163502Y0043663D01*
X0163513Y0043805D01*
X0163520Y0043947D01*
X0163523Y0044090D01*
X0163522Y0044232D01*
X0163517Y0044374D01*
X0163508Y0044517D01*
X0163495Y0044659D01*
X0163479Y0044800D01*
X0153479Y0048100D02*
X0151179Y0048100D01*
X0197526Y0045223D02*
X0197526Y0041750D01*
X0203431Y0041750D02*
X0203431Y0045200D01*
X0204047Y0045815D01*
X0208929Y0045815D01*
X0203431Y0045200D02*
X0203431Y0047087D01*
X0203579Y0047235D01*
X0203579Y0051565D02*
X0207949Y0051580D01*
X0228479Y0046550D02*
X0231199Y0046550D01*
X0231579Y0051430D02*
X0231579Y0054100D01*
X0225229Y0041800D02*
X0225229Y0041550D01*
X0220979Y0041550D01*
X0215979Y0041550D02*
X0209394Y0041550D01*
X0208929Y0041485D01*
X0228229Y0036550D02*
X0231199Y0036550D01*
X0231329Y0032035D02*
X0230844Y0031550D01*
X0220979Y0031550D01*
X0215979Y0031550D02*
X0214729Y0031550D01*
X0214607Y0031546D01*
X0214484Y0031539D01*
X0214362Y0031528D01*
X0214241Y0031513D01*
X0214120Y0031494D01*
X0213999Y0031471D01*
X0213880Y0031445D01*
X0213761Y0031415D01*
X0213643Y0031381D01*
X0213526Y0031343D01*
X0213411Y0031302D01*
X0213297Y0031257D01*
X0213184Y0031209D01*
X0213073Y0031157D01*
X0212964Y0031102D01*
X0212857Y0031043D01*
X0212751Y0030981D01*
X0212647Y0030916D01*
X0212546Y0030847D01*
X0212446Y0030776D01*
X0212349Y0030701D01*
X0212255Y0030623D01*
X0212163Y0030542D01*
X0212073Y0030459D01*
X0211986Y0030372D01*
X0211902Y0030283D01*
X0211821Y0030191D01*
X0211742Y0030097D01*
X0211667Y0030001D01*
X0211595Y0029902D01*
X0211526Y0029801D01*
X0211460Y0029697D01*
X0211397Y0029592D01*
X0211338Y0029485D01*
X0211282Y0029376D01*
X0211229Y0029265D01*
X0211180Y0029153D01*
X0211135Y0029039D01*
X0211093Y0028924D01*
X0211055Y0028808D01*
X0211020Y0028690D01*
X0210989Y0028571D01*
X0210962Y0028452D01*
X0210939Y0028332D01*
X0210920Y0028211D01*
X0210904Y0028089D01*
X0210892Y0027967D01*
X0210884Y0027845D01*
X0210880Y0027723D01*
X0210879Y0027600D01*
X0197526Y0030127D02*
X0197526Y0033500D01*
X0231279Y0031970D02*
X0231279Y0029200D01*
X0158526Y0008800D02*
X0154644Y0008800D01*
X0138431Y0008600D02*
X0138434Y0008720D01*
X0138433Y0008839D01*
X0138428Y0008958D01*
X0138419Y0009078D01*
X0138407Y0009197D01*
X0138390Y0009315D01*
X0138370Y0009433D01*
X0138345Y0009550D01*
X0138317Y0009666D01*
X0138285Y0009781D01*
X0138250Y0009895D01*
X0138210Y0010008D01*
X0138167Y0010120D01*
X0138121Y0010230D01*
X0138071Y0010338D01*
X0138017Y0010445D01*
X0137960Y0010550D01*
X0137899Y0010653D01*
X0137835Y0010754D01*
X0137768Y0010853D01*
X0137698Y0010950D01*
X0137624Y0011044D01*
X0137547Y0011136D01*
X0137468Y0011225D01*
X0137386Y0011311D01*
X0137300Y0011395D01*
X0137212Y0011476D01*
X0137122Y0011554D01*
X0137029Y0011629D01*
X0136934Y0011701D01*
X0136836Y0011770D01*
X0136736Y0011836D01*
X0136634Y0011898D01*
X0136530Y0011957D01*
X0136424Y0012013D01*
X0136316Y0012065D01*
X0136207Y0012113D01*
X0136096Y0012158D01*
X0135984Y0012199D01*
X0135871Y0012237D01*
X0135756Y0012271D01*
X0135640Y0012301D01*
X0135524Y0012327D01*
X0135406Y0012349D01*
X0135288Y0012368D01*
X0135169Y0012382D01*
X0135050Y0012393D01*
X0134931Y0012400D01*
X0124199Y0012400D01*
X0124179Y0012285D02*
X0122758Y0012400D01*
X0121429Y0011700D01*
X0128694Y0008650D02*
X0132576Y0008650D01*
X0126479Y0016630D02*
X0124179Y0016615D01*
X0123779Y0016670D02*
X0120094Y0016650D01*
X0105279Y0019800D02*
X0102079Y0019800D01*
X0098879Y0023000D01*
X0096679Y0023000D01*
X0097122Y0023003D02*
X0090229Y0023003D01*
X0090229Y0029741D01*
X0090229Y0017097D02*
X0085611Y0017097D01*
X0103444Y0009150D02*
X0107276Y0009150D01*
X0102979Y0047600D02*
X0102979Y0057500D01*
D25*
X0062679Y0074400D02*
X0062679Y0004000D01*
X0235479Y0004000D01*
X0235479Y0074400D01*
X0062679Y0074400D01*
X0062679Y0073666D02*
X0235479Y0073666D01*
X0235479Y0072868D02*
X0062679Y0072868D01*
X0062679Y0072069D02*
X0235479Y0072069D01*
X0235479Y0071270D02*
X0062679Y0071270D01*
X0062679Y0070472D02*
X0235479Y0070472D01*
X0235479Y0069673D02*
X0062679Y0069673D01*
X0062679Y0068875D02*
X0068314Y0068875D01*
X0067213Y0068419D02*
X0065095Y0066300D01*
X0063948Y0063533D01*
X0063948Y0060537D01*
X0065095Y0057769D01*
X0067213Y0055650D01*
X0069981Y0054504D01*
X0072977Y0054504D01*
X0075745Y0055650D01*
X0077863Y0057769D01*
X0079009Y0060537D01*
X0079009Y0063533D01*
X0077863Y0066300D01*
X0075745Y0068419D01*
X0072977Y0069565D01*
X0069981Y0069565D01*
X0067213Y0068419D01*
X0066871Y0068076D02*
X0062679Y0068076D01*
X0062679Y0067278D02*
X0066072Y0067278D01*
X0065273Y0066479D02*
X0062679Y0066479D01*
X0062679Y0065681D02*
X0064838Y0065681D01*
X0064507Y0064882D02*
X0062679Y0064882D01*
X0062679Y0064084D02*
X0064176Y0064084D01*
X0063948Y0063285D02*
X0062679Y0063285D01*
X0062679Y0062487D02*
X0063948Y0062487D01*
X0063948Y0061688D02*
X0062679Y0061688D01*
X0062679Y0060890D02*
X0063948Y0060890D01*
X0064133Y0060091D02*
X0062679Y0060091D01*
X0062679Y0059293D02*
X0064463Y0059293D01*
X0064794Y0058494D02*
X0062679Y0058494D01*
X0062679Y0057696D02*
X0065168Y0057696D01*
X0065966Y0056897D02*
X0062679Y0056897D01*
X0062679Y0056099D02*
X0066765Y0056099D01*
X0068058Y0055300D02*
X0062679Y0055300D01*
X0062679Y0054502D02*
X0076060Y0054502D01*
X0075953Y0054174D02*
X0076201Y0054937D01*
X0076566Y0055653D01*
X0077038Y0056302D01*
X0077605Y0056870D01*
X0078255Y0057341D01*
X0078970Y0057706D01*
X0079733Y0057954D01*
X0080526Y0058080D01*
X0080528Y0058080D01*
X0080528Y0053380D01*
X0081328Y0053380D01*
X0081328Y0058080D01*
X0081329Y0058080D01*
X0082122Y0057954D01*
X0082885Y0057706D01*
X0083601Y0057341D01*
X0084250Y0056870D01*
X0084818Y0056302D01*
X0085289Y0055653D01*
X0085654Y0054937D01*
X0085902Y0054174D01*
X0086028Y0053381D01*
X0086028Y0053380D01*
X0081328Y0053380D01*
X0081328Y0052580D01*
X0086028Y0052580D01*
X0086028Y0052578D01*
X0085902Y0051785D01*
X0085654Y0051022D01*
X0085289Y0050307D01*
X0084818Y0049657D01*
X0084250Y0049089D01*
X0083601Y0048618D01*
X0082885Y0048253D01*
X0082718Y0048199D01*
X0083703Y0047791D01*
X0085082Y0046413D01*
X0085828Y0044612D01*
X0085828Y0042662D01*
X0085082Y0040861D01*
X0083703Y0039483D01*
X0083020Y0039200D01*
X0083703Y0038917D01*
X0085082Y0037539D01*
X0085828Y0035738D01*
X0085828Y0033788D01*
X0085082Y0031987D01*
X0083703Y0030609D01*
X0082454Y0030092D01*
X0083703Y0029574D01*
X0085082Y0028196D01*
X0085828Y0026395D01*
X0085828Y0024446D01*
X0085082Y0022645D01*
X0083703Y0021266D01*
X0081902Y0020520D01*
X0079953Y0020520D01*
X0078152Y0021266D01*
X0076774Y0022645D01*
X0076028Y0024446D01*
X0076028Y0026395D01*
X0076774Y0028196D01*
X0078152Y0029574D01*
X0079401Y0030092D01*
X0078152Y0030609D01*
X0076774Y0031987D01*
X0076028Y0033788D01*
X0076028Y0035738D01*
X0076774Y0037539D01*
X0078152Y0038917D01*
X0078835Y0039200D01*
X0078152Y0039483D01*
X0076774Y0040861D01*
X0076028Y0042662D01*
X0076028Y0044612D01*
X0076774Y0046413D01*
X0078152Y0047791D01*
X0079137Y0048199D01*
X0078970Y0048253D01*
X0078255Y0048618D01*
X0077605Y0049089D01*
X0077038Y0049657D01*
X0076566Y0050307D01*
X0076201Y0051022D01*
X0075953Y0051785D01*
X0075828Y0052578D01*
X0075828Y0052580D01*
X0080527Y0052580D01*
X0080527Y0053380D01*
X0075828Y0053380D01*
X0075828Y0053381D01*
X0075953Y0054174D01*
X0075879Y0053703D02*
X0062679Y0053703D01*
X0062679Y0052905D02*
X0080527Y0052905D01*
X0080528Y0053703D02*
X0081328Y0053703D01*
X0081328Y0052905D02*
X0090044Y0052905D01*
X0090044Y0053457D02*
X0090044Y0049072D01*
X0089918Y0049291D01*
X0089657Y0049551D01*
X0089338Y0049736D01*
X0088982Y0049831D01*
X0087906Y0049831D01*
X0087906Y0047342D01*
X0087721Y0047342D01*
X0087721Y0047158D01*
X0085429Y0047158D01*
X0085429Y0045885D01*
X0085525Y0045529D01*
X0085709Y0045209D01*
X0085970Y0044949D01*
X0086289Y0044764D01*
X0086391Y0044737D01*
X0086384Y0044709D01*
X0086384Y0043540D01*
X0086384Y0042372D01*
X0086479Y0042016D01*
X0086664Y0041696D01*
X0086679Y0041681D01*
X0086679Y0040200D01*
X0090829Y0040200D01*
X0090829Y0039400D01*
X0086679Y0039400D01*
X0086679Y0037919D01*
X0086664Y0037904D01*
X0086479Y0037584D01*
X0086384Y0037228D01*
X0086384Y0036060D01*
X0088276Y0036060D01*
X0088276Y0036060D01*
X0086384Y0036060D01*
X0086384Y0034891D01*
X0086479Y0034535D01*
X0086664Y0034216D01*
X0086924Y0033955D01*
X0087243Y0033771D01*
X0087600Y0033676D01*
X0088276Y0033676D01*
X0088544Y0033676D01*
X0088544Y0032772D01*
X0088295Y0032772D01*
X0087592Y0032069D01*
X0087592Y0027531D01*
X0088229Y0026894D01*
X0088229Y0025778D01*
X0088157Y0025778D01*
X0087454Y0025075D01*
X0087454Y0020931D01*
X0088157Y0020228D01*
X0092301Y0020228D01*
X0093004Y0020931D01*
X0093004Y0021003D01*
X0093510Y0021003D01*
X0093510Y0020234D01*
X0094107Y0019637D01*
X0093851Y0019489D01*
X0093590Y0019229D01*
X0093406Y0018909D01*
X0093310Y0018553D01*
X0093310Y0016604D01*
X0096279Y0016604D01*
X0096279Y0015804D01*
X0093310Y0015804D01*
X0093310Y0013854D01*
X0093406Y0013498D01*
X0093590Y0013179D01*
X0093851Y0012918D01*
X0094170Y0012734D01*
X0094526Y0012638D01*
X0096279Y0012638D01*
X0096279Y0015803D01*
X0097079Y0015803D01*
X0097079Y0012638D01*
X0098832Y0012638D01*
X0099188Y0012734D01*
X0099507Y0012918D01*
X0099768Y0013179D01*
X0099952Y0013498D01*
X0100047Y0013854D01*
X0100047Y0015804D01*
X0097079Y0015804D01*
X0097079Y0016604D01*
X0100047Y0016604D01*
X0100047Y0018553D01*
X0099952Y0018909D01*
X0099768Y0019229D01*
X0099507Y0019489D01*
X0099250Y0019637D01*
X0099332Y0019719D01*
X0100079Y0018972D01*
X0101250Y0017800D01*
X0104309Y0017800D01*
X0104409Y0017700D01*
X0106149Y0017700D01*
X0107379Y0018930D01*
X0107379Y0020670D01*
X0106599Y0021450D01*
X0109676Y0021450D01*
X0110379Y0022153D01*
X0110379Y0031847D01*
X0109676Y0032550D01*
X0106282Y0032550D01*
X0105579Y0031847D01*
X0105579Y0022153D01*
X0105832Y0021900D01*
X0105126Y0021900D01*
X0105379Y0022153D01*
X0105379Y0031847D01*
X0104676Y0032550D01*
X0101282Y0032550D01*
X0100579Y0031847D01*
X0100579Y0024128D01*
X0099847Y0024860D01*
X0099847Y0025559D01*
X0099144Y0026262D01*
X0094213Y0026262D01*
X0093510Y0025559D01*
X0093510Y0025003D01*
X0093004Y0025003D01*
X0093004Y0025075D01*
X0092301Y0025778D01*
X0092229Y0025778D01*
X0092229Y0027012D01*
X0092729Y0027512D01*
X0093413Y0026828D01*
X0097163Y0026828D01*
X0097634Y0027300D01*
X0099249Y0027300D01*
X0100479Y0028530D01*
X0100479Y0030270D01*
X0099249Y0031500D01*
X0097866Y0031500D01*
X0097866Y0032069D01*
X0097163Y0032772D01*
X0096661Y0032772D01*
X0095933Y0033500D01*
X0095364Y0034069D01*
X0095874Y0034579D01*
X0095874Y0037541D01*
X0095734Y0037680D01*
X0095778Y0037844D01*
X0095778Y0039400D01*
X0091629Y0039400D01*
X0091629Y0040200D01*
X0095778Y0040200D01*
X0095778Y0041681D01*
X0095794Y0041696D01*
X0095978Y0042016D01*
X0096074Y0042372D01*
X0096074Y0043540D01*
X0094182Y0043540D01*
X0094182Y0043540D01*
X0096074Y0043540D01*
X0096074Y0044709D01*
X0095978Y0045065D01*
X0095794Y0045384D01*
X0095533Y0045645D01*
X0095214Y0045829D01*
X0094858Y0045924D01*
X0094328Y0045924D01*
X0094328Y0048928D01*
X0094244Y0049012D01*
X0094244Y0053588D01*
X0094913Y0052919D01*
X0097875Y0052919D01*
X0098578Y0053622D01*
X0098578Y0056978D01*
X0098512Y0057045D01*
X0098517Y0057536D01*
X0098729Y0057747D01*
X0098729Y0059653D01*
X0097381Y0061000D01*
X0095476Y0061000D01*
X0094129Y0059653D01*
X0094129Y0057747D01*
X0094317Y0057559D01*
X0094312Y0057080D01*
X0094229Y0056997D01*
X0093545Y0057681D01*
X0090582Y0057681D01*
X0089879Y0056978D01*
X0089879Y0053622D01*
X0090044Y0053457D01*
X0089879Y0053703D02*
X0085977Y0053703D01*
X0085795Y0054502D02*
X0089879Y0054502D01*
X0089879Y0055300D02*
X0085469Y0055300D01*
X0084965Y0056099D02*
X0089879Y0056099D01*
X0089879Y0056897D02*
X0084212Y0056897D01*
X0082905Y0057696D02*
X0094180Y0057696D01*
X0094129Y0058494D02*
X0078163Y0058494D01*
X0078494Y0059293D02*
X0094129Y0059293D01*
X0094567Y0060091D02*
X0078825Y0060091D01*
X0079009Y0060890D02*
X0095366Y0060890D01*
X0093774Y0062114D02*
X0094665Y0063005D01*
X0095147Y0064170D01*
X0095147Y0065430D01*
X0094665Y0066595D01*
X0093774Y0067486D01*
X0092609Y0067968D01*
X0091348Y0067968D01*
X0090184Y0067486D01*
X0089293Y0066595D01*
X0088810Y0065430D01*
X0088810Y0064170D01*
X0089293Y0063005D01*
X0090184Y0062114D01*
X0091348Y0061631D01*
X0092609Y0061631D01*
X0093774Y0062114D01*
X0094147Y0062487D02*
X0107279Y0062487D01*
X0107279Y0061830D02*
X0108509Y0060600D01*
X0110249Y0060600D01*
X0110349Y0060700D01*
X0110982Y0060700D01*
X0111132Y0060550D01*
X0110448Y0059866D01*
X0110448Y0056903D01*
X0110894Y0056457D01*
X0110929Y0052797D01*
X0110579Y0052447D01*
X0110579Y0042753D01*
X0110979Y0042353D01*
X0110979Y0042233D01*
X0110903Y0041323D01*
X0110974Y0041100D01*
X0110409Y0041100D01*
X0109179Y0039870D01*
X0109179Y0038130D01*
X0110409Y0036900D01*
X0112149Y0036900D01*
X0113031Y0037782D01*
X0114569Y0036990D01*
X0114569Y0036990D01*
X0114833Y0036968D01*
X0114900Y0036900D01*
X0115646Y0036900D01*
X0116388Y0036838D01*
X0116461Y0036900D01*
X0130367Y0036900D01*
X0130567Y0036700D01*
X0132390Y0036700D01*
X0132590Y0036900D01*
X0135816Y0036900D01*
X0136816Y0036837D01*
X0136816Y0036837D01*
X0138145Y0037496D01*
X0138524Y0037195D01*
X0138524Y0037195D01*
X0139031Y0037119D01*
X0139150Y0037000D01*
X0139831Y0037000D01*
X0140504Y0036900D01*
X0140639Y0037000D01*
X0158350Y0037000D01*
X0158469Y0036909D01*
X0159160Y0037000D01*
X0159857Y0037000D01*
X0159963Y0037106D01*
X0160704Y0037203D01*
X0163174Y0038630D01*
X0164910Y0040892D01*
X0164910Y0040892D01*
X0165419Y0042793D01*
X0165879Y0043253D01*
X0165879Y0052947D01*
X0165176Y0053650D01*
X0161782Y0053650D01*
X0161079Y0052947D01*
X0161079Y0043253D01*
X0161283Y0043048D01*
X0161196Y0042723D01*
X0160444Y0041742D01*
X0159373Y0041124D01*
X0158841Y0041000D01*
X0140197Y0041000D01*
X0140179Y0041005D01*
X0140027Y0041126D01*
X0140009Y0041170D01*
X0140027Y0041450D01*
X0139979Y0041505D01*
X0139979Y0041552D01*
X0140079Y0042225D01*
X0139982Y0042356D01*
X0140379Y0042753D01*
X0140379Y0052447D01*
X0139676Y0053150D01*
X0136282Y0053150D01*
X0135579Y0052447D01*
X0135579Y0042753D01*
X0135979Y0042353D01*
X0135979Y0041848D01*
X0135839Y0040907D01*
X0135178Y0040948D01*
X0135123Y0040900D01*
X0132590Y0040900D01*
X0132390Y0041100D01*
X0130567Y0041100D01*
X0130367Y0040900D01*
X0120179Y0040900D01*
X0120179Y0042270D01*
X0120037Y0042411D01*
X0120379Y0042753D01*
X0120379Y0043700D01*
X0121849Y0043700D01*
X0123079Y0044930D01*
X0123079Y0045839D01*
X0123567Y0045350D01*
X0125390Y0045350D01*
X0125579Y0045539D01*
X0125579Y0042753D01*
X0126282Y0042050D01*
X0129676Y0042050D01*
X0130379Y0042753D01*
X0130379Y0052447D01*
X0129676Y0053150D01*
X0126282Y0053150D01*
X0125579Y0052447D01*
X0125579Y0049600D01*
X0125540Y0049600D01*
X0125390Y0049750D01*
X0123567Y0049750D01*
X0123179Y0049361D01*
X0123179Y0049770D01*
X0121949Y0051000D01*
X0120379Y0051000D01*
X0120379Y0052447D01*
X0119979Y0052847D01*
X0119979Y0056300D01*
X0119987Y0056380D01*
X0120510Y0056903D01*
X0120510Y0057605D01*
X0120868Y0057963D01*
X0121589Y0058262D01*
X0121979Y0058300D01*
X0137405Y0058300D01*
X0138121Y0058198D01*
X0139449Y0057579D01*
X0140439Y0056499D01*
X0140940Y0055122D01*
X0140979Y0054421D01*
X0140979Y0054343D01*
X0140945Y0053559D01*
X0140963Y0053539D01*
X0140962Y0053513D01*
X0140979Y0053495D01*
X0140979Y0052847D01*
X0140579Y0052447D01*
X0140579Y0042753D01*
X0141282Y0042050D01*
X0144676Y0042050D01*
X0145379Y0042753D01*
X0145379Y0052447D01*
X0144979Y0052847D01*
X0144979Y0054256D01*
X0144979Y0054266D01*
X0145074Y0055062D01*
X0145720Y0056537D01*
X0146882Y0057652D01*
X0148381Y0058238D01*
X0149183Y0058300D01*
X0149208Y0058300D01*
X0150016Y0058284D01*
X0150033Y0058300D01*
X0163184Y0058300D01*
X0163208Y0058277D01*
X0164007Y0058300D01*
X0164048Y0058300D01*
X0164501Y0058268D01*
X0165367Y0057938D01*
X0166041Y0057301D01*
X0166421Y0056455D01*
X0166479Y0055999D01*
X0166479Y0053347D01*
X0166079Y0052947D01*
X0166079Y0043253D01*
X0166782Y0042550D01*
X0170176Y0042550D01*
X0170879Y0043253D01*
X0170879Y0052947D01*
X0170479Y0053347D01*
X0170479Y0055255D01*
X0170502Y0055279D01*
X0170479Y0056079D01*
X0170479Y0056878D01*
X0170455Y0056902D01*
X0170442Y0057375D01*
X0169404Y0059690D01*
X0169182Y0059900D01*
X0169549Y0059900D01*
X0170779Y0061130D01*
X0170779Y0062870D01*
X0169549Y0064100D01*
X0167809Y0064100D01*
X0166579Y0062870D01*
X0166579Y0061806D01*
X0165190Y0062335D01*
X0165190Y0062335D01*
X0163950Y0062300D01*
X0149249Y0062300D01*
X0147653Y0062333D01*
X0144642Y0061157D01*
X0143074Y0059651D01*
X0141903Y0060928D01*
X0139107Y0062231D01*
X0139107Y0062231D01*
X0138343Y0062264D01*
X0138307Y0062300D01*
X0137522Y0062300D01*
X0136738Y0062334D01*
X0136701Y0062300D01*
X0120785Y0062300D01*
X0120510Y0062186D01*
X0120510Y0064197D01*
X0119807Y0064900D01*
X0116451Y0064900D01*
X0116245Y0064694D01*
X0114938Y0064680D01*
X0114727Y0064680D01*
X0114507Y0064900D01*
X0111151Y0064900D01*
X0110951Y0064700D01*
X0110349Y0064700D01*
X0110249Y0064800D01*
X0108509Y0064800D01*
X0107279Y0063570D01*
X0107279Y0061830D01*
X0107421Y0061688D02*
X0092746Y0061688D01*
X0091211Y0061688D02*
X0079009Y0061688D01*
X0079009Y0062487D02*
X0089811Y0062487D01*
X0089177Y0063285D02*
X0079009Y0063285D01*
X0078781Y0064084D02*
X0088846Y0064084D01*
X0088810Y0064882D02*
X0078450Y0064882D01*
X0078120Y0065681D02*
X0088914Y0065681D01*
X0089245Y0066479D02*
X0077684Y0066479D01*
X0076885Y0067278D02*
X0089976Y0067278D01*
X0093982Y0067278D02*
X0226226Y0067278D01*
X0226434Y0067486D02*
X0225543Y0066595D01*
X0225060Y0065430D01*
X0225060Y0064170D01*
X0225543Y0063005D01*
X0226434Y0062114D01*
X0227598Y0061631D01*
X0228859Y0061631D01*
X0230024Y0062114D01*
X0230915Y0063005D01*
X0231397Y0064170D01*
X0231397Y0065430D01*
X0230915Y0066595D01*
X0230024Y0067486D01*
X0228859Y0067968D01*
X0227598Y0067968D01*
X0226434Y0067486D01*
X0225495Y0066479D02*
X0094713Y0066479D01*
X0095043Y0065681D02*
X0225164Y0065681D01*
X0225060Y0064882D02*
X0119824Y0064882D01*
X0120510Y0064084D02*
X0167793Y0064084D01*
X0166994Y0063285D02*
X0120510Y0063285D01*
X0120510Y0062487D02*
X0166579Y0062487D01*
X0169565Y0064084D02*
X0225096Y0064084D01*
X0225427Y0063285D02*
X0174713Y0063285D01*
X0174599Y0063400D02*
X0172859Y0063400D01*
X0171629Y0062170D01*
X0171629Y0060430D01*
X0172859Y0059200D01*
X0174599Y0059200D01*
X0175829Y0060430D01*
X0175829Y0062170D01*
X0174599Y0063400D01*
X0175512Y0062487D02*
X0226061Y0062487D01*
X0227461Y0061688D02*
X0198760Y0061688D01*
X0198349Y0062100D02*
X0196609Y0062100D01*
X0195379Y0060870D01*
X0195379Y0059130D01*
X0195779Y0058730D01*
X0195779Y0052078D01*
X0195098Y0051397D01*
X0195098Y0048434D01*
X0195782Y0047750D01*
X0195098Y0047066D01*
X0195098Y0044168D01*
X0194751Y0043822D01*
X0194751Y0039678D01*
X0195454Y0038975D01*
X0199598Y0038975D01*
X0200301Y0039678D01*
X0200301Y0043822D01*
X0199860Y0044263D01*
X0199860Y0047066D01*
X0199176Y0047750D01*
X0199860Y0048434D01*
X0199860Y0051397D01*
X0199179Y0052078D01*
X0199179Y0058730D01*
X0199579Y0059130D01*
X0199579Y0060870D01*
X0198349Y0062100D01*
X0199559Y0060890D02*
X0235479Y0060890D01*
X0235479Y0061688D02*
X0228996Y0061688D01*
X0230397Y0062487D02*
X0235479Y0062487D01*
X0235479Y0063285D02*
X0231031Y0063285D01*
X0231362Y0064084D02*
X0235479Y0064084D01*
X0235479Y0064882D02*
X0231397Y0064882D01*
X0231293Y0065681D02*
X0235479Y0065681D01*
X0235479Y0066479D02*
X0230963Y0066479D01*
X0230232Y0067278D02*
X0235479Y0067278D01*
X0235479Y0068076D02*
X0076087Y0068076D01*
X0074643Y0068875D02*
X0235479Y0068875D01*
X0235479Y0060091D02*
X0199579Y0060091D01*
X0199579Y0059293D02*
X0212458Y0059293D01*
X0212571Y0059406D02*
X0211623Y0058458D01*
X0211110Y0057220D01*
X0211110Y0055880D01*
X0211623Y0054642D01*
X0212571Y0053694D01*
X0212838Y0053584D01*
X0212752Y0053450D01*
X0209049Y0053450D01*
X0208849Y0053650D01*
X0207109Y0053650D01*
X0207035Y0053577D01*
X0205435Y0053571D01*
X0205257Y0053750D01*
X0201901Y0053750D01*
X0201198Y0053047D01*
X0201198Y0050084D01*
X0201882Y0049400D01*
X0201198Y0048716D01*
X0201198Y0045753D01*
X0201431Y0045519D01*
X0201431Y0044525D01*
X0201360Y0044525D01*
X0200657Y0043822D01*
X0200657Y0039678D01*
X0201360Y0038975D01*
X0201531Y0038975D01*
X0201531Y0036275D01*
X0201360Y0036275D01*
X0200657Y0035572D01*
X0200657Y0031428D01*
X0201360Y0030725D01*
X0201581Y0030725D01*
X0201581Y0029623D01*
X0201379Y0029420D01*
X0201379Y0027680D01*
X0202609Y0026450D01*
X0204349Y0026450D01*
X0205579Y0027680D01*
X0205579Y0029420D01*
X0205381Y0029617D01*
X0205381Y0030725D01*
X0205503Y0030725D01*
X0206206Y0031428D01*
X0206206Y0035572D01*
X0205503Y0036275D01*
X0205331Y0036275D01*
X0205331Y0038975D01*
X0205503Y0038975D01*
X0206206Y0039678D01*
X0206206Y0043815D01*
X0207066Y0043815D01*
X0207232Y0043650D01*
X0206548Y0042966D01*
X0206548Y0040003D01*
X0206879Y0039672D01*
X0206879Y0025932D01*
X0206756Y0024702D01*
X0205943Y0022367D01*
X0204449Y0020397D01*
X0202419Y0018986D01*
X0200052Y0018271D01*
X0198821Y0018200D01*
X0198796Y0018200D01*
X0198110Y0018214D01*
X0198095Y0018200D01*
X0192899Y0018200D01*
X0192499Y0018600D01*
X0190759Y0018600D01*
X0189529Y0017370D01*
X0189529Y0015630D01*
X0190759Y0014400D01*
X0192499Y0014400D01*
X0192899Y0014800D01*
X0198761Y0014800D01*
X0200533Y0014763D01*
X0203960Y0015798D01*
X0203960Y0015798D01*
X0206900Y0017842D01*
X0209064Y0020694D01*
X0210241Y0024075D01*
X0210264Y0025181D01*
X0210279Y0025196D01*
X0210279Y0025500D01*
X0211749Y0025500D01*
X0212979Y0026730D01*
X0212979Y0028168D01*
X0213185Y0028685D01*
X0213298Y0028801D01*
X0213425Y0028603D01*
X0215324Y0027735D01*
X0215110Y0027220D01*
X0215110Y0025880D01*
X0215623Y0024642D01*
X0216571Y0023694D01*
X0217809Y0023181D01*
X0219149Y0023181D01*
X0220387Y0023694D01*
X0221334Y0024642D01*
X0221847Y0025880D01*
X0221847Y0027220D01*
X0221584Y0027856D01*
X0222599Y0028002D01*
X0224260Y0029441D01*
X0224260Y0029442D01*
X0224291Y0029550D01*
X0229179Y0029550D01*
X0229179Y0028330D01*
X0230409Y0027100D01*
X0232149Y0027100D01*
X0233379Y0028330D01*
X0233379Y0030070D01*
X0233303Y0030146D01*
X0233710Y0030553D01*
X0233710Y0033516D01*
X0233026Y0034200D01*
X0233710Y0034884D01*
X0233710Y0037847D01*
X0233007Y0038550D01*
X0232028Y0038550D01*
X0229340Y0038550D01*
X0229140Y0038750D01*
X0227317Y0038750D01*
X0227017Y0038450D01*
X0224321Y0038450D01*
X0224260Y0038658D01*
X0224260Y0038658D01*
X0223808Y0039050D01*
X0224260Y0039441D01*
X0224260Y0039442D01*
X0224879Y0041550D01*
X0224260Y0043658D01*
X0224260Y0043658D01*
X0223808Y0044050D01*
X0224260Y0044441D01*
X0224260Y0044442D01*
X0224321Y0044650D01*
X0227267Y0044650D01*
X0227567Y0044350D01*
X0229390Y0044350D01*
X0229590Y0044550D01*
X0229751Y0044550D01*
X0229851Y0044450D01*
X0233207Y0044450D01*
X0233910Y0045153D01*
X0233910Y0048116D01*
X0233226Y0048800D01*
X0233910Y0049484D01*
X0233910Y0052447D01*
X0233579Y0052778D01*
X0233579Y0053130D01*
X0233679Y0053230D01*
X0233679Y0054970D01*
X0232449Y0056200D01*
X0230709Y0056200D01*
X0229479Y0054970D01*
X0229479Y0053230D01*
X0229579Y0053130D01*
X0229579Y0052878D01*
X0229148Y0052447D01*
X0229148Y0049484D01*
X0229832Y0048800D01*
X0229586Y0048554D01*
X0229390Y0048750D01*
X0227567Y0048750D01*
X0227267Y0048450D01*
X0224321Y0048450D01*
X0224260Y0048658D01*
X0224260Y0048658D01*
X0224260Y0048658D01*
X0223808Y0049050D01*
X0224260Y0049441D01*
X0224260Y0049442D01*
X0224879Y0051550D01*
X0224264Y0053643D01*
X0224387Y0053694D01*
X0225334Y0054642D01*
X0225847Y0055880D01*
X0225847Y0057220D01*
X0225334Y0058458D01*
X0224387Y0059406D01*
X0223149Y0059918D01*
X0221809Y0059918D01*
X0220571Y0059406D01*
X0219623Y0058458D01*
X0219110Y0057220D01*
X0219110Y0055880D01*
X0219483Y0054981D01*
X0218425Y0054497D01*
X0218377Y0054423D01*
X0217599Y0055098D01*
X0217599Y0055098D01*
X0217527Y0055108D01*
X0217847Y0055880D01*
X0217847Y0057220D01*
X0217334Y0058458D01*
X0216387Y0059406D01*
X0215149Y0059918D01*
X0213809Y0059918D01*
X0212571Y0059406D01*
X0211659Y0058494D02*
X0199179Y0058494D01*
X0199179Y0057696D02*
X0211307Y0057696D01*
X0211110Y0056897D02*
X0199179Y0056897D01*
X0199179Y0056099D02*
X0211110Y0056099D01*
X0211350Y0055300D02*
X0199179Y0055300D01*
X0199179Y0054502D02*
X0211763Y0054502D01*
X0212562Y0053703D02*
X0205303Y0053703D01*
X0201854Y0053703D02*
X0199179Y0053703D01*
X0199179Y0052905D02*
X0201198Y0052905D01*
X0201198Y0052106D02*
X0199179Y0052106D01*
X0199860Y0051308D02*
X0201198Y0051308D01*
X0201198Y0050509D02*
X0199860Y0050509D01*
X0199860Y0049711D02*
X0201571Y0049711D01*
X0201394Y0048912D02*
X0199860Y0048912D01*
X0199539Y0048114D02*
X0201198Y0048114D01*
X0201198Y0047315D02*
X0199611Y0047315D01*
X0199860Y0046517D02*
X0201198Y0046517D01*
X0201233Y0045718D02*
X0199860Y0045718D01*
X0199860Y0044920D02*
X0201431Y0044920D01*
X0200956Y0044121D02*
X0200002Y0044121D01*
X0200301Y0043323D02*
X0200657Y0043323D01*
X0200657Y0042524D02*
X0200301Y0042524D01*
X0200301Y0041726D02*
X0200657Y0041726D01*
X0200657Y0040927D02*
X0200301Y0040927D01*
X0200301Y0040129D02*
X0200657Y0040129D01*
X0201005Y0039330D02*
X0199953Y0039330D01*
X0201531Y0038532D02*
X0195917Y0038532D01*
X0195549Y0038900D02*
X0196779Y0037670D01*
X0196779Y0036275D01*
X0199598Y0036275D01*
X0200301Y0035572D01*
X0200301Y0031428D01*
X0199760Y0030887D01*
X0199760Y0028184D01*
X0199076Y0027500D01*
X0199760Y0026816D01*
X0199760Y0023853D01*
X0199057Y0023150D01*
X0195701Y0023150D01*
X0194998Y0023853D01*
X0194998Y0025506D01*
X0194715Y0025801D01*
X0194016Y0026500D01*
X0193079Y0027437D01*
X0193079Y0027680D01*
X0192849Y0027450D01*
X0191109Y0027450D01*
X0189879Y0028680D01*
X0189879Y0030420D01*
X0190884Y0031425D01*
X0189879Y0032430D01*
X0189879Y0034170D01*
X0191109Y0035400D01*
X0192849Y0035400D01*
X0193079Y0035170D01*
X0193079Y0035430D01*
X0192579Y0035930D01*
X0192579Y0037670D01*
X0193809Y0038900D01*
X0195549Y0038900D01*
X0195099Y0039330D02*
X0163711Y0039330D01*
X0163174Y0038630D02*
X0163174Y0038630D01*
X0163004Y0038532D02*
X0193440Y0038532D01*
X0192642Y0037733D02*
X0161621Y0037733D01*
X0158663Y0036934D02*
X0192579Y0036934D01*
X0192579Y0036136D02*
X0095874Y0036136D01*
X0095874Y0036934D02*
X0110374Y0036934D01*
X0109576Y0037733D02*
X0095749Y0037733D01*
X0095778Y0038532D02*
X0109179Y0038532D01*
X0109179Y0039330D02*
X0095778Y0039330D01*
X0095778Y0040927D02*
X0110236Y0040927D01*
X0110903Y0041323D02*
X0110903Y0041323D01*
X0110936Y0041726D02*
X0095811Y0041726D01*
X0096074Y0042524D02*
X0100808Y0042524D01*
X0100579Y0042753D02*
X0101282Y0042050D01*
X0104676Y0042050D01*
X0105379Y0042753D01*
X0105379Y0052447D01*
X0104979Y0052847D01*
X0104979Y0056530D01*
X0105079Y0056630D01*
X0105079Y0058370D01*
X0103849Y0059600D01*
X0102109Y0059600D01*
X0100879Y0058370D01*
X0100879Y0056630D01*
X0100979Y0056530D01*
X0100979Y0052847D01*
X0100579Y0052447D01*
X0100579Y0042753D01*
X0100579Y0043323D02*
X0096074Y0043323D01*
X0096074Y0044121D02*
X0100579Y0044121D01*
X0100579Y0044920D02*
X0096017Y0044920D01*
X0095406Y0045718D02*
X0100579Y0045718D01*
X0100579Y0046517D02*
X0094328Y0046517D01*
X0094328Y0047315D02*
X0100579Y0047315D01*
X0100579Y0048114D02*
X0094328Y0048114D01*
X0094328Y0048912D02*
X0100579Y0048912D01*
X0100579Y0049711D02*
X0094244Y0049711D01*
X0094244Y0050509D02*
X0100579Y0050509D01*
X0100579Y0051308D02*
X0094244Y0051308D01*
X0094244Y0052106D02*
X0100579Y0052106D01*
X0100979Y0052905D02*
X0094244Y0052905D01*
X0090044Y0052106D02*
X0085953Y0052106D01*
X0085747Y0051308D02*
X0090044Y0051308D01*
X0090044Y0050509D02*
X0085393Y0050509D01*
X0084857Y0049711D02*
X0086245Y0049711D01*
X0086289Y0049736D02*
X0085970Y0049551D01*
X0085709Y0049291D01*
X0085525Y0048971D01*
X0085429Y0048615D01*
X0085429Y0047342D01*
X0087721Y0047342D01*
X0087721Y0049831D01*
X0086645Y0049831D01*
X0086289Y0049736D01*
X0085509Y0048912D02*
X0084006Y0048912D01*
X0082924Y0048114D02*
X0085429Y0048114D01*
X0084179Y0047315D02*
X0087721Y0047315D01*
X0087721Y0048114D02*
X0087906Y0048114D01*
X0087906Y0048912D02*
X0087721Y0048912D01*
X0087721Y0049711D02*
X0087906Y0049711D01*
X0089381Y0049711D02*
X0090044Y0049711D01*
X0092144Y0047574D02*
X0092144Y0047250D01*
X0092213Y0047505D02*
X0092198Y0047507D01*
X0092183Y0047512D01*
X0092170Y0047520D01*
X0092159Y0047531D01*
X0092151Y0047544D01*
X0092146Y0047559D01*
X0092144Y0047574D01*
X0085429Y0046517D02*
X0084978Y0046517D01*
X0085369Y0045718D02*
X0085474Y0045718D01*
X0085700Y0044920D02*
X0086020Y0044920D01*
X0085828Y0044121D02*
X0086384Y0044121D01*
X0086384Y0043540D02*
X0088276Y0043540D01*
X0086384Y0043540D01*
X0086384Y0043323D02*
X0085828Y0043323D01*
X0085770Y0042524D02*
X0086384Y0042524D01*
X0086647Y0041726D02*
X0085440Y0041726D01*
X0085109Y0040927D02*
X0086679Y0040927D01*
X0084349Y0040129D02*
X0090829Y0040129D01*
X0091629Y0040129D02*
X0109437Y0040129D01*
X0109676Y0042050D02*
X0106282Y0042050D01*
X0105579Y0042753D01*
X0105579Y0052447D01*
X0106282Y0053150D01*
X0109676Y0053150D01*
X0110379Y0052447D01*
X0110379Y0042753D01*
X0109676Y0042050D01*
X0110150Y0042524D02*
X0110808Y0042524D01*
X0110579Y0043323D02*
X0110379Y0043323D01*
X0110379Y0044121D02*
X0110579Y0044121D01*
X0110579Y0044920D02*
X0110379Y0044920D01*
X0110379Y0045718D02*
X0110579Y0045718D01*
X0110579Y0046517D02*
X0110379Y0046517D01*
X0110379Y0047315D02*
X0110579Y0047315D01*
X0110579Y0048114D02*
X0110379Y0048114D01*
X0110379Y0048912D02*
X0110579Y0048912D01*
X0110579Y0049711D02*
X0110379Y0049711D01*
X0110379Y0050509D02*
X0110579Y0050509D01*
X0110579Y0051308D02*
X0110379Y0051308D01*
X0110379Y0052106D02*
X0110579Y0052106D01*
X0110928Y0052905D02*
X0109921Y0052905D01*
X0110920Y0053703D02*
X0104979Y0053703D01*
X0104979Y0052905D02*
X0106036Y0052905D01*
X0105579Y0052106D02*
X0105379Y0052106D01*
X0105379Y0051308D02*
X0105579Y0051308D01*
X0105579Y0050509D02*
X0105379Y0050509D01*
X0105379Y0049711D02*
X0105579Y0049711D01*
X0105579Y0048912D02*
X0105379Y0048912D01*
X0105379Y0048114D02*
X0105579Y0048114D01*
X0105579Y0047315D02*
X0105379Y0047315D01*
X0105379Y0046517D02*
X0105579Y0046517D01*
X0105579Y0045718D02*
X0105379Y0045718D01*
X0105379Y0044920D02*
X0105579Y0044920D01*
X0105579Y0044121D02*
X0105379Y0044121D01*
X0105379Y0043323D02*
X0105579Y0043323D01*
X0105808Y0042524D02*
X0105150Y0042524D01*
X0112982Y0037733D02*
X0113127Y0037733D01*
X0112183Y0036934D02*
X0114866Y0036934D01*
X0115590Y0035400D02*
X0113767Y0035400D01*
X0112479Y0034111D01*
X0112479Y0032550D01*
X0111282Y0032550D01*
X0110579Y0031847D01*
X0110579Y0022153D01*
X0111282Y0021450D01*
X0114676Y0021450D01*
X0115379Y0022153D01*
X0115379Y0031000D01*
X0115379Y0027200D01*
X0117779Y0027200D01*
X0117779Y0032750D01*
X0116879Y0032750D01*
X0116879Y0034111D01*
X0115590Y0035400D01*
X0115653Y0035337D02*
X0162296Y0035337D01*
X0162859Y0035900D02*
X0161629Y0034670D01*
X0161629Y0032930D01*
X0161645Y0032914D01*
X0161079Y0032347D01*
X0161079Y0022653D01*
X0161782Y0021950D01*
X0165176Y0021950D01*
X0165879Y0022653D01*
X0165879Y0032347D01*
X0165562Y0032664D01*
X0165829Y0032930D01*
X0165829Y0034670D01*
X0164599Y0035900D01*
X0162859Y0035900D01*
X0165161Y0035337D02*
X0191046Y0035337D01*
X0190248Y0034539D02*
X0165829Y0034539D01*
X0165829Y0033740D02*
X0189879Y0033740D01*
X0189879Y0032942D02*
X0170567Y0032942D01*
X0170538Y0032970D02*
X0170219Y0033155D01*
X0169863Y0033250D01*
X0168679Y0033250D01*
X0168679Y0027700D01*
X0171079Y0027700D01*
X0171079Y0032034D01*
X0170983Y0032390D01*
X0170799Y0032710D01*
X0170538Y0032970D01*
X0171049Y0032143D02*
X0177852Y0032143D01*
X0178009Y0032300D02*
X0176779Y0031070D01*
X0176779Y0029330D01*
X0178009Y0028100D01*
X0179749Y0028100D01*
X0180979Y0029330D01*
X0180979Y0031070D01*
X0179749Y0032300D01*
X0178009Y0032300D01*
X0177054Y0031345D02*
X0171079Y0031345D01*
X0171079Y0030546D02*
X0176779Y0030546D01*
X0176779Y0029748D02*
X0171079Y0029748D01*
X0171079Y0028949D02*
X0177159Y0028949D01*
X0177958Y0028151D02*
X0171079Y0028151D01*
X0171079Y0027300D02*
X0168679Y0027300D01*
X0168679Y0027700D01*
X0168279Y0027700D01*
X0168279Y0033250D01*
X0167094Y0033250D01*
X0166738Y0033155D01*
X0166419Y0032970D01*
X0166158Y0032710D01*
X0165974Y0032390D01*
X0165879Y0032034D01*
X0165879Y0027700D01*
X0168279Y0027700D01*
X0168279Y0027300D01*
X0168679Y0027300D01*
X0168679Y0021750D01*
X0169863Y0021750D01*
X0170219Y0021845D01*
X0170538Y0022030D01*
X0170799Y0022290D01*
X0170983Y0022610D01*
X0171079Y0022966D01*
X0171079Y0027300D01*
X0171079Y0026554D02*
X0193962Y0026554D01*
X0194759Y0025755D02*
X0171079Y0025755D01*
X0171079Y0024957D02*
X0194998Y0024957D01*
X0194998Y0024158D02*
X0171079Y0024158D01*
X0171079Y0023360D02*
X0195491Y0023360D01*
X0199266Y0023360D02*
X0206289Y0023360D01*
X0206567Y0024158D02*
X0199760Y0024158D01*
X0199760Y0024957D02*
X0206782Y0024957D01*
X0206861Y0025755D02*
X0199760Y0025755D01*
X0199760Y0026554D02*
X0202505Y0026554D01*
X0201707Y0027352D02*
X0199223Y0027352D01*
X0199727Y0028151D02*
X0201379Y0028151D01*
X0201379Y0028949D02*
X0199760Y0028949D01*
X0199760Y0029748D02*
X0201581Y0029748D01*
X0201581Y0030546D02*
X0199760Y0030546D01*
X0200218Y0031345D02*
X0200740Y0031345D01*
X0200657Y0032143D02*
X0200301Y0032143D01*
X0200301Y0032942D02*
X0200657Y0032942D01*
X0200657Y0033740D02*
X0200301Y0033740D01*
X0200301Y0034539D02*
X0200657Y0034539D01*
X0200657Y0035337D02*
X0200301Y0035337D01*
X0199737Y0036136D02*
X0201221Y0036136D01*
X0201531Y0036934D02*
X0196779Y0036934D01*
X0196716Y0037733D02*
X0201531Y0037733D01*
X0205331Y0037733D02*
X0206879Y0037733D01*
X0206879Y0036934D02*
X0205331Y0036934D01*
X0205642Y0036136D02*
X0206879Y0036136D01*
X0206879Y0035337D02*
X0206206Y0035337D01*
X0206206Y0034539D02*
X0206879Y0034539D01*
X0206879Y0033740D02*
X0206206Y0033740D01*
X0206206Y0032942D02*
X0206879Y0032942D01*
X0206879Y0032143D02*
X0206206Y0032143D01*
X0206123Y0031345D02*
X0206879Y0031345D01*
X0206879Y0030546D02*
X0205381Y0030546D01*
X0205381Y0029748D02*
X0206879Y0029748D01*
X0206879Y0028949D02*
X0205579Y0028949D01*
X0205579Y0028151D02*
X0206879Y0028151D01*
X0206879Y0027352D02*
X0205251Y0027352D01*
X0204452Y0026554D02*
X0206879Y0026554D01*
X0210259Y0024957D02*
X0215493Y0024957D01*
X0215162Y0025755D02*
X0212004Y0025755D01*
X0212802Y0026554D02*
X0215110Y0026554D01*
X0215165Y0027352D02*
X0212979Y0027352D01*
X0212979Y0028151D02*
X0214414Y0028151D01*
X0213425Y0028603D02*
X0213425Y0028603D01*
X0210279Y0031486D02*
X0210279Y0039300D01*
X0210607Y0039300D01*
X0210856Y0039550D01*
X0212816Y0039550D01*
X0213137Y0039050D01*
X0212237Y0037649D01*
X0212237Y0035451D01*
X0213137Y0034050D01*
X0212530Y0033106D01*
X0211373Y0032609D01*
X0210279Y0031486D01*
X0210279Y0032143D02*
X0210919Y0032143D01*
X0211373Y0032609D02*
X0211373Y0032609D01*
X0212149Y0032942D02*
X0210279Y0032942D01*
X0210279Y0033740D02*
X0212938Y0033740D01*
X0212823Y0034539D02*
X0210279Y0034539D01*
X0210279Y0035337D02*
X0212310Y0035337D01*
X0212237Y0036136D02*
X0210279Y0036136D01*
X0210279Y0036934D02*
X0212237Y0036934D01*
X0212291Y0037733D02*
X0210279Y0037733D01*
X0210279Y0038532D02*
X0212804Y0038532D01*
X0212957Y0039330D02*
X0210637Y0039330D01*
X0206879Y0039330D02*
X0205858Y0039330D01*
X0206206Y0040129D02*
X0206548Y0040129D01*
X0206548Y0040927D02*
X0206206Y0040927D01*
X0206206Y0041726D02*
X0206548Y0041726D01*
X0206548Y0042524D02*
X0206206Y0042524D01*
X0206206Y0043323D02*
X0206904Y0043323D01*
X0210626Y0043650D02*
X0211310Y0044334D01*
X0211310Y0047297D01*
X0210607Y0048000D01*
X0207251Y0048000D01*
X0207066Y0047815D01*
X0205960Y0047815D01*
X0205960Y0048716D01*
X0205276Y0049400D01*
X0205447Y0049571D01*
X0206983Y0049576D01*
X0207109Y0049450D01*
X0208849Y0049450D01*
X0209049Y0049650D01*
X0212752Y0049650D01*
X0213137Y0049050D01*
X0212237Y0047649D01*
X0212237Y0045451D01*
X0213137Y0044050D01*
X0212816Y0043550D01*
X0210726Y0043550D01*
X0210626Y0043650D01*
X0211097Y0044121D02*
X0213092Y0044121D01*
X0212578Y0044920D02*
X0211310Y0044920D01*
X0211310Y0045718D02*
X0212237Y0045718D01*
X0212237Y0046517D02*
X0211310Y0046517D01*
X0211291Y0047315D02*
X0212237Y0047315D01*
X0212535Y0048114D02*
X0205960Y0048114D01*
X0205764Y0048912D02*
X0213049Y0048912D01*
X0207979Y0051550D02*
X0207949Y0051580D01*
X0217607Y0055300D02*
X0219350Y0055300D01*
X0219110Y0056099D02*
X0217847Y0056099D01*
X0217847Y0056897D02*
X0219110Y0056897D01*
X0219307Y0057696D02*
X0217650Y0057696D01*
X0217298Y0058494D02*
X0219659Y0058494D01*
X0220458Y0059293D02*
X0216500Y0059293D01*
X0224500Y0059293D02*
X0235479Y0059293D01*
X0235479Y0058494D02*
X0225298Y0058494D01*
X0225650Y0057696D02*
X0235479Y0057696D01*
X0235479Y0056897D02*
X0225847Y0056897D01*
X0225847Y0056099D02*
X0230608Y0056099D01*
X0229809Y0055300D02*
X0225607Y0055300D01*
X0225194Y0054502D02*
X0229479Y0054502D01*
X0229479Y0053703D02*
X0224396Y0053703D01*
X0224481Y0052905D02*
X0229579Y0052905D01*
X0229148Y0052106D02*
X0224715Y0052106D01*
X0224879Y0051550D02*
X0224879Y0051550D01*
X0224808Y0051308D02*
X0229148Y0051308D01*
X0229148Y0050509D02*
X0224573Y0050509D01*
X0224339Y0049711D02*
X0229148Y0049711D01*
X0229720Y0048912D02*
X0223967Y0048912D01*
X0231199Y0046550D02*
X0231529Y0046635D01*
X0233910Y0046517D02*
X0235479Y0046517D01*
X0235479Y0047315D02*
X0233910Y0047315D01*
X0233910Y0048114D02*
X0235479Y0048114D01*
X0235479Y0048912D02*
X0233338Y0048912D01*
X0233910Y0049711D02*
X0235479Y0049711D01*
X0235479Y0050509D02*
X0233910Y0050509D01*
X0233910Y0051308D02*
X0235479Y0051308D01*
X0235479Y0052106D02*
X0233910Y0052106D01*
X0233579Y0052905D02*
X0235479Y0052905D01*
X0235479Y0053703D02*
X0233679Y0053703D01*
X0233679Y0054502D02*
X0235479Y0054502D01*
X0235479Y0055300D02*
X0233348Y0055300D01*
X0232550Y0056099D02*
X0235479Y0056099D01*
X0218434Y0054502D02*
X0218286Y0054502D01*
X0218425Y0054497D02*
X0218425Y0054497D01*
X0218425Y0054497D01*
X0195779Y0054502D02*
X0170479Y0054502D01*
X0170501Y0055300D02*
X0195779Y0055300D01*
X0195779Y0056099D02*
X0170479Y0056099D01*
X0170460Y0056897D02*
X0195779Y0056897D01*
X0195779Y0057696D02*
X0170298Y0057696D01*
X0170442Y0057375D02*
X0170442Y0057375D01*
X0166466Y0056099D02*
X0145528Y0056099D01*
X0145178Y0055300D02*
X0166479Y0055300D01*
X0166479Y0054502D02*
X0145007Y0054502D01*
X0144979Y0053703D02*
X0166479Y0053703D01*
X0166079Y0052905D02*
X0165879Y0052905D01*
X0165879Y0052106D02*
X0166079Y0052106D01*
X0166079Y0051308D02*
X0165879Y0051308D01*
X0165879Y0050509D02*
X0166079Y0050509D01*
X0166079Y0049711D02*
X0165879Y0049711D01*
X0165879Y0048912D02*
X0166079Y0048912D01*
X0166079Y0048114D02*
X0165879Y0048114D01*
X0165879Y0047315D02*
X0166079Y0047315D01*
X0166079Y0046517D02*
X0165879Y0046517D01*
X0165879Y0045718D02*
X0166079Y0045718D01*
X0166079Y0044920D02*
X0165879Y0044920D01*
X0165879Y0044121D02*
X0166079Y0044121D01*
X0166079Y0043323D02*
X0165879Y0043323D01*
X0165347Y0042524D02*
X0174535Y0042524D01*
X0174129Y0042930D02*
X0175359Y0041700D01*
X0177099Y0041700D01*
X0178329Y0042930D01*
X0178329Y0044670D01*
X0177099Y0045900D01*
X0175359Y0045900D01*
X0174129Y0044670D01*
X0174129Y0042930D01*
X0174129Y0043323D02*
X0170879Y0043323D01*
X0170879Y0044121D02*
X0174129Y0044121D01*
X0174379Y0044920D02*
X0170879Y0044920D01*
X0170879Y0045718D02*
X0175177Y0045718D01*
X0177280Y0045718D02*
X0190027Y0045718D01*
X0189779Y0045470D02*
X0189779Y0043730D01*
X0191009Y0042500D01*
X0192749Y0042500D01*
X0193979Y0043730D01*
X0193979Y0045470D01*
X0192749Y0046700D01*
X0191009Y0046700D01*
X0189779Y0045470D01*
X0189779Y0044920D02*
X0178079Y0044920D01*
X0178329Y0044121D02*
X0189779Y0044121D01*
X0190186Y0043323D02*
X0178329Y0043323D01*
X0177923Y0042524D02*
X0190985Y0042524D01*
X0192773Y0042524D02*
X0194751Y0042524D01*
X0194751Y0041726D02*
X0177124Y0041726D01*
X0175333Y0041726D02*
X0165133Y0041726D01*
X0164919Y0040927D02*
X0194751Y0040927D01*
X0194751Y0040129D02*
X0164324Y0040129D01*
X0161043Y0042524D02*
X0145150Y0042524D01*
X0145379Y0043323D02*
X0151079Y0043323D01*
X0151079Y0043253D02*
X0151782Y0042550D01*
X0155176Y0042550D01*
X0155879Y0043253D01*
X0155879Y0052947D01*
X0155176Y0053650D01*
X0151782Y0053650D01*
X0151079Y0052947D01*
X0151079Y0050100D01*
X0150350Y0050100D01*
X0150300Y0050050D01*
X0150159Y0050050D01*
X0148929Y0048820D01*
X0148929Y0047080D01*
X0150159Y0045850D01*
X0151079Y0045850D01*
X0151079Y0043253D01*
X0151079Y0044121D02*
X0145379Y0044121D01*
X0145379Y0044920D02*
X0151079Y0044920D01*
X0151079Y0045718D02*
X0145379Y0045718D01*
X0145379Y0046517D02*
X0149492Y0046517D01*
X0148929Y0047315D02*
X0145379Y0047315D01*
X0145379Y0048114D02*
X0148929Y0048114D01*
X0149021Y0048912D02*
X0145379Y0048912D01*
X0145379Y0049711D02*
X0149820Y0049711D01*
X0151079Y0050509D02*
X0145379Y0050509D01*
X0145379Y0051308D02*
X0151079Y0051308D01*
X0151079Y0052106D02*
X0145379Y0052106D01*
X0144979Y0052905D02*
X0151079Y0052905D01*
X0155879Y0052905D02*
X0156079Y0052905D01*
X0156079Y0052947D02*
X0156079Y0043253D01*
X0156782Y0042550D01*
X0160176Y0042550D01*
X0160879Y0043253D01*
X0160879Y0052947D01*
X0160176Y0053650D01*
X0156782Y0053650D01*
X0156079Y0052947D01*
X0156079Y0052106D02*
X0155879Y0052106D01*
X0155879Y0051308D02*
X0156079Y0051308D01*
X0156079Y0050509D02*
X0155879Y0050509D01*
X0155879Y0049711D02*
X0156079Y0049711D01*
X0156079Y0048912D02*
X0155879Y0048912D01*
X0155879Y0048114D02*
X0156079Y0048114D01*
X0156079Y0047315D02*
X0155879Y0047315D01*
X0155879Y0046517D02*
X0156079Y0046517D01*
X0156079Y0045718D02*
X0155879Y0045718D01*
X0155879Y0044920D02*
X0156079Y0044920D01*
X0156079Y0044121D02*
X0155879Y0044121D01*
X0155879Y0043323D02*
X0156079Y0043323D01*
X0160414Y0041726D02*
X0140005Y0041726D01*
X0140150Y0042524D02*
X0140808Y0042524D01*
X0140579Y0043323D02*
X0140379Y0043323D01*
X0140379Y0044121D02*
X0140579Y0044121D01*
X0140579Y0044920D02*
X0140379Y0044920D01*
X0140379Y0045718D02*
X0140579Y0045718D01*
X0140579Y0046517D02*
X0140379Y0046517D01*
X0140379Y0047315D02*
X0140579Y0047315D01*
X0140579Y0048114D02*
X0140379Y0048114D01*
X0140379Y0048912D02*
X0140579Y0048912D01*
X0140579Y0049711D02*
X0140379Y0049711D01*
X0140379Y0050509D02*
X0140579Y0050509D01*
X0140579Y0051308D02*
X0140379Y0051308D01*
X0140379Y0052106D02*
X0140579Y0052106D01*
X0140979Y0052905D02*
X0139921Y0052905D01*
X0140951Y0053703D02*
X0119979Y0053703D01*
X0119979Y0052905D02*
X0126036Y0052905D01*
X0125579Y0052106D02*
X0120379Y0052106D01*
X0120379Y0051308D02*
X0125579Y0051308D01*
X0125579Y0050509D02*
X0122439Y0050509D01*
X0123179Y0049711D02*
X0123528Y0049711D01*
X0125429Y0049711D02*
X0125579Y0049711D01*
X0124529Y0047600D02*
X0124516Y0047598D01*
X0124504Y0047593D01*
X0124494Y0047585D01*
X0124486Y0047575D01*
X0124481Y0047563D01*
X0124479Y0047550D01*
X0123199Y0045718D02*
X0123079Y0045718D01*
X0123068Y0044920D02*
X0125579Y0044920D01*
X0125579Y0044121D02*
X0122270Y0044121D01*
X0120379Y0043323D02*
X0125579Y0043323D01*
X0125808Y0042524D02*
X0120150Y0042524D01*
X0120179Y0041726D02*
X0135960Y0041726D01*
X0135842Y0040927D02*
X0135514Y0040927D01*
X0135154Y0040927D02*
X0132563Y0040927D01*
X0131282Y0042050D02*
X0134676Y0042050D01*
X0135379Y0042753D01*
X0135379Y0052447D01*
X0134676Y0053150D01*
X0131282Y0053150D01*
X0130579Y0052447D01*
X0130579Y0042753D01*
X0131282Y0042050D01*
X0130808Y0042524D02*
X0130150Y0042524D01*
X0130379Y0043323D02*
X0130579Y0043323D01*
X0130579Y0044121D02*
X0130379Y0044121D01*
X0130379Y0044920D02*
X0130579Y0044920D01*
X0130579Y0045718D02*
X0130379Y0045718D01*
X0130379Y0046517D02*
X0130579Y0046517D01*
X0130579Y0047315D02*
X0130379Y0047315D01*
X0130379Y0048114D02*
X0130579Y0048114D01*
X0130579Y0048912D02*
X0130379Y0048912D01*
X0130379Y0049711D02*
X0130579Y0049711D01*
X0130579Y0050509D02*
X0130379Y0050509D01*
X0130379Y0051308D02*
X0130579Y0051308D01*
X0130579Y0052106D02*
X0130379Y0052106D01*
X0129921Y0052905D02*
X0131036Y0052905D01*
X0134921Y0052905D02*
X0136036Y0052905D01*
X0135579Y0052106D02*
X0135379Y0052106D01*
X0135379Y0051308D02*
X0135579Y0051308D01*
X0135579Y0050509D02*
X0135379Y0050509D01*
X0135379Y0049711D02*
X0135579Y0049711D01*
X0135579Y0048912D02*
X0135379Y0048912D01*
X0135379Y0048114D02*
X0135579Y0048114D01*
X0135579Y0047315D02*
X0135379Y0047315D01*
X0135379Y0046517D02*
X0135579Y0046517D01*
X0135579Y0045718D02*
X0135379Y0045718D01*
X0135379Y0044920D02*
X0135579Y0044920D01*
X0135579Y0044121D02*
X0135379Y0044121D01*
X0135379Y0043323D02*
X0135579Y0043323D01*
X0135808Y0042524D02*
X0135150Y0042524D01*
X0130395Y0040927D02*
X0120179Y0040927D01*
X0118079Y0041400D02*
X0118079Y0047500D01*
X0118077Y0047517D01*
X0118073Y0047534D01*
X0118066Y0047550D01*
X0118056Y0047564D01*
X0118043Y0047577D01*
X0118029Y0047587D01*
X0118013Y0047594D01*
X0117996Y0047598D01*
X0117979Y0047600D01*
X0115579Y0047315D02*
X0115379Y0047315D01*
X0115379Y0046517D02*
X0115579Y0046517D01*
X0115579Y0045718D02*
X0115379Y0045718D01*
X0115379Y0044920D02*
X0115579Y0044920D01*
X0115579Y0044121D02*
X0115379Y0044121D01*
X0115379Y0043323D02*
X0115579Y0043323D01*
X0115579Y0042753D02*
X0116020Y0042311D01*
X0115979Y0042270D01*
X0115979Y0040900D01*
X0115857Y0040900D01*
X0115700Y0040929D01*
X0115350Y0041109D01*
X0115095Y0041410D01*
X0114979Y0041774D01*
X0114979Y0042067D01*
X0115005Y0042379D01*
X0115379Y0042753D01*
X0115379Y0052447D01*
X0114928Y0052898D01*
X0114893Y0056586D01*
X0115210Y0056903D01*
X0115210Y0059866D01*
X0114526Y0060550D01*
X0114652Y0060676D01*
X0114960Y0060680D01*
X0115778Y0060680D01*
X0115787Y0060689D01*
X0116287Y0060694D01*
X0116432Y0060550D01*
X0115748Y0059866D01*
X0115748Y0056903D01*
X0115979Y0056672D01*
X0115979Y0052847D01*
X0115579Y0052447D01*
X0115579Y0042753D01*
X0115808Y0042524D02*
X0115150Y0042524D01*
X0114994Y0041726D02*
X0115979Y0041726D01*
X0115979Y0040927D02*
X0115710Y0040927D01*
X0113705Y0035337D02*
X0095874Y0035337D01*
X0095834Y0034539D02*
X0112906Y0034539D01*
X0112479Y0033740D02*
X0095692Y0033740D01*
X0096491Y0032942D02*
X0112479Y0032942D01*
X0110875Y0032143D02*
X0110082Y0032143D01*
X0110379Y0031345D02*
X0110579Y0031345D01*
X0110579Y0030546D02*
X0110379Y0030546D01*
X0110379Y0029748D02*
X0110579Y0029748D01*
X0110579Y0028949D02*
X0110379Y0028949D01*
X0110379Y0028151D02*
X0110579Y0028151D01*
X0110579Y0027352D02*
X0110379Y0027352D01*
X0110379Y0026554D02*
X0110579Y0026554D01*
X0110579Y0025755D02*
X0110379Y0025755D01*
X0110379Y0024957D02*
X0110579Y0024957D01*
X0110579Y0024158D02*
X0110379Y0024158D01*
X0110379Y0023360D02*
X0110579Y0023360D01*
X0110579Y0022561D02*
X0110379Y0022561D01*
X0109989Y0021763D02*
X0110969Y0021763D01*
X0114989Y0021763D02*
X0115686Y0021763D01*
X0115658Y0021790D02*
X0115919Y0021530D01*
X0116238Y0021345D01*
X0116594Y0021250D01*
X0117779Y0021250D01*
X0117779Y0026800D01*
X0118179Y0026800D01*
X0118179Y0027200D01*
X0120579Y0027200D01*
X0120579Y0031534D01*
X0120483Y0031890D01*
X0120299Y0032210D01*
X0120038Y0032470D01*
X0119719Y0032655D01*
X0119363Y0032750D01*
X0118179Y0032750D01*
X0118179Y0027200D01*
X0117779Y0027200D01*
X0117779Y0026800D01*
X0115379Y0026800D01*
X0115379Y0022466D01*
X0115474Y0022110D01*
X0115658Y0021790D01*
X0115379Y0022561D02*
X0115379Y0022561D01*
X0115379Y0023360D02*
X0115379Y0023360D01*
X0115379Y0024158D02*
X0115379Y0024158D01*
X0115379Y0024957D02*
X0115379Y0024957D01*
X0115379Y0025755D02*
X0115379Y0025755D01*
X0115379Y0026554D02*
X0115379Y0026554D01*
X0115379Y0027352D02*
X0115379Y0027352D01*
X0115379Y0028151D02*
X0115379Y0028151D01*
X0115379Y0028949D02*
X0115379Y0028949D01*
X0115379Y0029748D02*
X0115379Y0029748D01*
X0115379Y0030546D02*
X0115379Y0030546D01*
X0115379Y0031000D02*
X0115379Y0031000D01*
X0117779Y0031345D02*
X0118179Y0031345D01*
X0118179Y0032143D02*
X0117779Y0032143D01*
X0116879Y0032942D02*
X0146179Y0032942D01*
X0146179Y0033270D02*
X0146179Y0031530D01*
X0147409Y0030300D01*
X0149149Y0030300D01*
X0150379Y0031530D01*
X0150379Y0033270D01*
X0149149Y0034500D01*
X0147409Y0034500D01*
X0146179Y0033270D01*
X0146649Y0033740D02*
X0116879Y0033740D01*
X0116451Y0034539D02*
X0161629Y0034539D01*
X0161629Y0033740D02*
X0149908Y0033740D01*
X0150379Y0032942D02*
X0151674Y0032942D01*
X0151782Y0033050D02*
X0151079Y0032347D01*
X0151079Y0022653D01*
X0151782Y0021950D01*
X0154359Y0021950D01*
X0153979Y0021570D01*
X0153979Y0019830D01*
X0155209Y0018600D01*
X0156949Y0018600D01*
X0158179Y0019830D01*
X0158179Y0021570D01*
X0157799Y0021950D01*
X0160176Y0021950D01*
X0160879Y0022653D01*
X0160879Y0032347D01*
X0160176Y0033050D01*
X0156782Y0033050D01*
X0156079Y0032347D01*
X0156079Y0022800D01*
X0155879Y0022800D01*
X0155879Y0032347D01*
X0155176Y0033050D01*
X0151782Y0033050D01*
X0151079Y0032143D02*
X0150379Y0032143D01*
X0150194Y0031345D02*
X0151079Y0031345D01*
X0151079Y0030546D02*
X0149395Y0030546D01*
X0151079Y0029748D02*
X0145579Y0029748D01*
X0145579Y0030546D02*
X0147162Y0030546D01*
X0146364Y0031345D02*
X0145579Y0031345D01*
X0145579Y0031534D02*
X0145483Y0031890D01*
X0145299Y0032210D01*
X0145038Y0032470D01*
X0144719Y0032655D01*
X0144363Y0032750D01*
X0143179Y0032750D01*
X0143179Y0027200D01*
X0145579Y0027200D01*
X0145579Y0031534D01*
X0145337Y0032143D02*
X0146179Y0032143D01*
X0143179Y0032143D02*
X0142779Y0032143D01*
X0142779Y0032750D02*
X0141594Y0032750D01*
X0141238Y0032655D01*
X0140919Y0032470D01*
X0140658Y0032210D01*
X0140474Y0031890D01*
X0140379Y0031534D01*
X0140379Y0027200D01*
X0142779Y0027200D01*
X0142779Y0032750D01*
X0140620Y0032143D02*
X0140082Y0032143D01*
X0140379Y0031847D02*
X0139676Y0032550D01*
X0136282Y0032550D01*
X0135579Y0031847D01*
X0135579Y0022153D01*
X0136282Y0021450D01*
X0139676Y0021450D01*
X0140379Y0022153D01*
X0140379Y0031847D01*
X0140379Y0031345D02*
X0140379Y0031345D01*
X0140379Y0030546D02*
X0140379Y0030546D01*
X0140379Y0029748D02*
X0140379Y0029748D01*
X0140379Y0028949D02*
X0140379Y0028949D01*
X0140379Y0028151D02*
X0140379Y0028151D01*
X0140379Y0027352D02*
X0140379Y0027352D01*
X0140379Y0026800D02*
X0140379Y0022466D01*
X0140474Y0022110D01*
X0140658Y0021790D01*
X0140919Y0021530D01*
X0141238Y0021345D01*
X0141594Y0021250D01*
X0142779Y0021250D01*
X0142779Y0026800D01*
X0143179Y0026800D01*
X0143179Y0027200D01*
X0142779Y0027200D01*
X0142779Y0026800D01*
X0140379Y0026800D01*
X0140379Y0026554D02*
X0140379Y0026554D01*
X0140379Y0025755D02*
X0140379Y0025755D01*
X0140379Y0024957D02*
X0140379Y0024957D01*
X0140379Y0024158D02*
X0140379Y0024158D01*
X0140379Y0023360D02*
X0140379Y0023360D01*
X0140379Y0022561D02*
X0140379Y0022561D01*
X0140686Y0021763D02*
X0139989Y0021763D01*
X0142779Y0021763D02*
X0143179Y0021763D01*
X0143179Y0021250D02*
X0144363Y0021250D01*
X0144719Y0021345D01*
X0145038Y0021530D01*
X0145299Y0021790D01*
X0145483Y0022110D01*
X0145579Y0022466D01*
X0145579Y0026800D01*
X0143179Y0026800D01*
X0143179Y0021250D01*
X0143179Y0022561D02*
X0142779Y0022561D01*
X0142779Y0023360D02*
X0143179Y0023360D01*
X0143179Y0024158D02*
X0142779Y0024158D01*
X0142779Y0024957D02*
X0143179Y0024957D01*
X0143179Y0025755D02*
X0142779Y0025755D01*
X0142779Y0026554D02*
X0143179Y0026554D01*
X0143179Y0027352D02*
X0142779Y0027352D01*
X0142779Y0028151D02*
X0143179Y0028151D01*
X0143179Y0028949D02*
X0142779Y0028949D01*
X0142779Y0029748D02*
X0143179Y0029748D01*
X0143179Y0030546D02*
X0142779Y0030546D01*
X0142779Y0031345D02*
X0143179Y0031345D01*
X0145579Y0028949D02*
X0151079Y0028949D01*
X0151079Y0028151D02*
X0145579Y0028151D01*
X0145579Y0027352D02*
X0151079Y0027352D01*
X0151079Y0026554D02*
X0145579Y0026554D01*
X0145579Y0025755D02*
X0151079Y0025755D01*
X0151079Y0024957D02*
X0145579Y0024957D01*
X0145579Y0024158D02*
X0151079Y0024158D01*
X0151079Y0023360D02*
X0145579Y0023360D01*
X0145579Y0022561D02*
X0151170Y0022561D01*
X0154172Y0021763D02*
X0145271Y0021763D01*
X0139279Y0017370D02*
X0138049Y0018600D01*
X0136309Y0018600D01*
X0135079Y0017370D01*
X0135079Y0015630D01*
X0136309Y0014400D01*
X0138049Y0014400D01*
X0139279Y0015630D01*
X0139279Y0017370D01*
X0139279Y0016972D02*
X0189529Y0016972D01*
X0189529Y0016173D02*
X0163375Y0016173D01*
X0163149Y0016400D02*
X0161409Y0016400D01*
X0160179Y0015170D01*
X0160179Y0013430D01*
X0161409Y0012200D01*
X0162113Y0012200D01*
X0162731Y0011667D01*
X0162731Y0011575D01*
X0162360Y0011575D01*
X0161657Y0010872D01*
X0161657Y0006728D01*
X0162360Y0006025D01*
X0166503Y0006025D01*
X0167206Y0006728D01*
X0167206Y0010872D01*
X0166503Y0011575D01*
X0166131Y0011575D01*
X0166131Y0011816D01*
X0166179Y0011872D01*
X0166131Y0012511D01*
X0166131Y0013151D01*
X0166080Y0013203D01*
X0166074Y0013276D01*
X0165589Y0013694D01*
X0165136Y0014147D01*
X0165062Y0014147D01*
X0164379Y0014736D01*
X0164379Y0015170D01*
X0163149Y0016400D01*
X0164174Y0015375D02*
X0189784Y0015375D01*
X0190583Y0014576D02*
X0164564Y0014576D01*
X0165505Y0013778D02*
X0235479Y0013778D01*
X0235479Y0014576D02*
X0192675Y0014576D01*
X0189929Y0017770D02*
X0138878Y0017770D01*
X0138080Y0018569D02*
X0190728Y0018569D01*
X0192530Y0018569D02*
X0201037Y0018569D01*
X0202967Y0019367D02*
X0157716Y0019367D01*
X0158179Y0020166D02*
X0204116Y0020166D01*
X0204879Y0020964D02*
X0158179Y0020964D01*
X0157986Y0021763D02*
X0167047Y0021763D01*
X0167094Y0021750D02*
X0168279Y0021750D01*
X0168279Y0027300D01*
X0165879Y0027300D01*
X0165879Y0022966D01*
X0165974Y0022610D01*
X0166158Y0022290D01*
X0166419Y0022030D01*
X0166738Y0021845D01*
X0167094Y0021750D01*
X0168279Y0021763D02*
X0168679Y0021763D01*
X0168679Y0022561D02*
X0168279Y0022561D01*
X0168279Y0023360D02*
X0168679Y0023360D01*
X0168679Y0024158D02*
X0168279Y0024158D01*
X0168279Y0024957D02*
X0168679Y0024957D01*
X0168679Y0025755D02*
X0168279Y0025755D01*
X0168279Y0026554D02*
X0168679Y0026554D01*
X0168679Y0027352D02*
X0193164Y0027352D01*
X0194679Y0028100D02*
X0194679Y0036800D01*
X0193079Y0035337D02*
X0192911Y0035337D01*
X0190165Y0032143D02*
X0187847Y0032143D01*
X0187590Y0032400D02*
X0185767Y0032400D01*
X0184479Y0031111D01*
X0184479Y0029289D01*
X0185767Y0028000D01*
X0187590Y0028000D01*
X0188879Y0029289D01*
X0188879Y0031111D01*
X0187590Y0032400D01*
X0188645Y0031345D02*
X0190804Y0031345D01*
X0190005Y0030546D02*
X0188879Y0030546D01*
X0188879Y0029748D02*
X0189879Y0029748D01*
X0189879Y0028949D02*
X0188539Y0028949D01*
X0187741Y0028151D02*
X0190408Y0028151D01*
X0194679Y0028100D02*
X0195858Y0026920D01*
X0197379Y0025335D01*
X0203479Y0028550D02*
X0203463Y0028569D01*
X0203449Y0028590D01*
X0203439Y0028613D01*
X0203433Y0028637D01*
X0203429Y0028661D01*
X0203430Y0028686D01*
X0203433Y0028711D01*
X0203441Y0028735D01*
X0203451Y0028758D01*
X0203465Y0028778D01*
X0203482Y0028797D01*
X0197526Y0030127D02*
X0197541Y0030094D01*
X0197552Y0030060D01*
X0197560Y0030025D01*
X0197563Y0029990D01*
X0197564Y0029954D01*
X0197560Y0029918D01*
X0197553Y0029883D01*
X0197542Y0029849D01*
X0197528Y0029816D01*
X0197510Y0029785D01*
X0197489Y0029756D01*
X0197465Y0029729D01*
X0197439Y0029705D01*
X0197410Y0029684D01*
X0197379Y0029666D01*
X0193079Y0031420D02*
X0193074Y0031425D01*
X0193079Y0031430D01*
X0193079Y0031420D01*
X0185511Y0032143D02*
X0179905Y0032143D01*
X0180704Y0031345D02*
X0184712Y0031345D01*
X0184479Y0030546D02*
X0180979Y0030546D01*
X0180979Y0029748D02*
X0184479Y0029748D01*
X0184818Y0028949D02*
X0180598Y0028949D01*
X0179799Y0028151D02*
X0185617Y0028151D01*
X0170955Y0022561D02*
X0206011Y0022561D01*
X0205485Y0021763D02*
X0169911Y0021763D01*
X0166002Y0022561D02*
X0165787Y0022561D01*
X0165879Y0023360D02*
X0165879Y0023360D01*
X0165879Y0024158D02*
X0165879Y0024158D01*
X0165879Y0024957D02*
X0165879Y0024957D01*
X0165879Y0025755D02*
X0165879Y0025755D01*
X0165879Y0026554D02*
X0165879Y0026554D01*
X0165879Y0027352D02*
X0168279Y0027352D01*
X0168279Y0028151D02*
X0168679Y0028151D01*
X0168679Y0028949D02*
X0168279Y0028949D01*
X0168279Y0029748D02*
X0168679Y0029748D01*
X0168679Y0030546D02*
X0168279Y0030546D01*
X0168279Y0031345D02*
X0168679Y0031345D01*
X0168679Y0032143D02*
X0168279Y0032143D01*
X0168279Y0032942D02*
X0168679Y0032942D01*
X0166391Y0032942D02*
X0165829Y0032942D01*
X0165879Y0032143D02*
X0165908Y0032143D01*
X0165879Y0031345D02*
X0165879Y0031345D01*
X0165879Y0030546D02*
X0165879Y0030546D01*
X0165879Y0029748D02*
X0165879Y0029748D01*
X0165879Y0028949D02*
X0165879Y0028949D01*
X0165879Y0028151D02*
X0165879Y0028151D01*
X0161079Y0028151D02*
X0160879Y0028151D01*
X0160879Y0028949D02*
X0161079Y0028949D01*
X0161079Y0029748D02*
X0160879Y0029748D01*
X0160879Y0030546D02*
X0161079Y0030546D01*
X0161079Y0031345D02*
X0160879Y0031345D01*
X0160879Y0032143D02*
X0161079Y0032143D01*
X0161629Y0032942D02*
X0160284Y0032942D01*
X0156674Y0032942D02*
X0155284Y0032942D01*
X0155879Y0032143D02*
X0156079Y0032143D01*
X0156079Y0031345D02*
X0155879Y0031345D01*
X0155879Y0030546D02*
X0156079Y0030546D01*
X0156079Y0029748D02*
X0155879Y0029748D01*
X0155879Y0028949D02*
X0156079Y0028949D01*
X0156079Y0028151D02*
X0155879Y0028151D01*
X0155879Y0027352D02*
X0156079Y0027352D01*
X0156079Y0026554D02*
X0155879Y0026554D01*
X0155879Y0025755D02*
X0156079Y0025755D01*
X0156079Y0024957D02*
X0155879Y0024957D01*
X0155879Y0024158D02*
X0156079Y0024158D01*
X0156079Y0023360D02*
X0155879Y0023360D01*
X0160787Y0022561D02*
X0161170Y0022561D01*
X0161079Y0023360D02*
X0160879Y0023360D01*
X0160879Y0024158D02*
X0161079Y0024158D01*
X0161079Y0024957D02*
X0160879Y0024957D01*
X0160879Y0025755D02*
X0161079Y0025755D01*
X0161079Y0026554D02*
X0160879Y0026554D01*
X0160879Y0027352D02*
X0161079Y0027352D01*
X0153979Y0020964D02*
X0107084Y0020964D01*
X0107379Y0020166D02*
X0153979Y0020166D01*
X0154442Y0019367D02*
X0107379Y0019367D01*
X0107017Y0018569D02*
X0113588Y0018569D01*
X0113659Y0018691D02*
X0113475Y0018371D01*
X0113379Y0018015D01*
X0113379Y0016742D01*
X0115671Y0016742D01*
X0115671Y0016558D01*
X0113379Y0016558D01*
X0113379Y0015285D01*
X0113475Y0014929D01*
X0113491Y0014900D01*
X0110849Y0014900D01*
X0111379Y0015430D01*
X0111379Y0017170D01*
X0110149Y0018400D01*
X0108409Y0018400D01*
X0107909Y0017900D01*
X0106416Y0017900D01*
X0102716Y0014200D01*
X0102223Y0014200D01*
X0102209Y0014213D01*
X0101563Y0014200D01*
X0100916Y0014200D01*
X0100903Y0014187D01*
X0100884Y0014186D01*
X0100436Y0013720D01*
X0099979Y0013263D01*
X0099979Y0013244D01*
X0098333Y0011531D01*
X0097632Y0011531D01*
X0096929Y0010828D01*
X0096929Y0007472D01*
X0096955Y0007446D01*
X0096579Y0007070D01*
X0096579Y0005330D01*
X0097809Y0004100D01*
X0099549Y0004100D01*
X0100049Y0004600D01*
X0111999Y0004600D01*
X0112579Y0004542D01*
X0112650Y0004600D01*
X0112741Y0004600D01*
X0113154Y0005012D01*
X0113753Y0005503D01*
X0113844Y0005503D01*
X0114257Y0005915D01*
X0114708Y0006285D01*
X0114717Y0006375D01*
X0115253Y0006375D01*
X0115956Y0007078D01*
X0115956Y0011059D01*
X0115958Y0011055D01*
X0115979Y0010900D01*
X0115979Y0009622D01*
X0116957Y0007928D01*
X0118651Y0006950D01*
X0122201Y0006950D01*
X0122882Y0006269D01*
X0125845Y0006269D01*
X0126529Y0006953D01*
X0127213Y0006269D01*
X0130010Y0006269D01*
X0130454Y0005825D01*
X0134598Y0005825D01*
X0135301Y0006528D01*
X0135301Y0010296D01*
X0135657Y0010131D01*
X0135657Y0006528D01*
X0136360Y0005825D01*
X0140503Y0005825D01*
X0141206Y0006528D01*
X0141206Y0010672D01*
X0140503Y0011375D01*
X0139840Y0011375D01*
X0139701Y0011753D01*
X0138178Y0013407D01*
X0138178Y0013407D01*
X0136137Y0014352D01*
X0135794Y0014366D01*
X0135760Y0014400D01*
X0134973Y0014400D01*
X0134186Y0014432D01*
X0134151Y0014400D01*
X0125926Y0014400D01*
X0125876Y0014450D01*
X0126026Y0014600D01*
X0127349Y0014600D01*
X0128579Y0015830D01*
X0128579Y0017570D01*
X0127349Y0018800D01*
X0125609Y0018800D01*
X0125608Y0018800D01*
X0122501Y0018800D01*
X0122364Y0018663D01*
X0121946Y0018660D01*
X0121575Y0019031D01*
X0118613Y0019031D01*
X0118016Y0018434D01*
X0117868Y0018691D01*
X0117607Y0018951D01*
X0117288Y0019136D01*
X0116932Y0019231D01*
X0115856Y0019231D01*
X0115856Y0016742D01*
X0115671Y0016742D01*
X0115671Y0019231D01*
X0114595Y0019231D01*
X0114239Y0019136D01*
X0113920Y0018951D01*
X0113659Y0018691D01*
X0113379Y0017770D02*
X0110778Y0017770D01*
X0111379Y0016972D02*
X0113379Y0016972D01*
X0113379Y0016173D02*
X0111379Y0016173D01*
X0111323Y0015375D02*
X0113379Y0015375D01*
X0109279Y0016300D02*
X0107079Y0016300D01*
X0103379Y0012600D01*
X0101579Y0012600D01*
X0099129Y0010050D01*
X0099129Y0009180D01*
X0099129Y0009179D02*
X0099130Y0009172D01*
X0099129Y0009164D01*
X0099125Y0009158D01*
X0099120Y0009152D01*
X0099113Y0009149D01*
X0096929Y0008987D02*
X0073344Y0008987D01*
X0072977Y0008835D02*
X0069981Y0008835D01*
X0067213Y0009981D01*
X0065095Y0012100D01*
X0063948Y0014867D01*
X0063948Y0017863D01*
X0065095Y0020631D01*
X0067213Y0022750D01*
X0069981Y0023896D01*
X0072977Y0023896D01*
X0075745Y0022750D01*
X0077863Y0020631D01*
X0079009Y0017863D01*
X0079009Y0014867D01*
X0077863Y0012100D01*
X0075745Y0009981D01*
X0072977Y0008835D01*
X0075271Y0009785D02*
X0096929Y0009785D01*
X0096929Y0010584D02*
X0087339Y0010584D01*
X0087419Y0010630D02*
X0087680Y0010891D01*
X0087864Y0011210D01*
X0087960Y0011566D01*
X0087960Y0012642D01*
X0085471Y0012642D01*
X0085471Y0010350D01*
X0086744Y0010350D01*
X0087100Y0010446D01*
X0087419Y0010630D01*
X0087911Y0011382D02*
X0097483Y0011382D01*
X0098957Y0012181D02*
X0087960Y0012181D01*
X0087960Y0012827D02*
X0087960Y0013903D01*
X0087864Y0014259D01*
X0087680Y0014579D01*
X0087419Y0014839D01*
X0087163Y0014987D01*
X0087273Y0015097D01*
X0087454Y0015097D01*
X0087454Y0015025D01*
X0088157Y0014322D01*
X0092301Y0014322D01*
X0093004Y0015025D01*
X0093004Y0019169D01*
X0092301Y0019872D01*
X0088157Y0019872D01*
X0087454Y0019169D01*
X0087454Y0019097D01*
X0087209Y0019097D01*
X0087057Y0019250D01*
X0083701Y0019250D01*
X0082998Y0018547D01*
X0082998Y0015584D01*
X0083594Y0014987D01*
X0083338Y0014839D01*
X0083077Y0014579D01*
X0082893Y0014259D01*
X0082798Y0013903D01*
X0082798Y0012827D01*
X0085287Y0012827D01*
X0085287Y0012642D01*
X0085471Y0012642D01*
X0085471Y0012827D01*
X0087960Y0012827D01*
X0087960Y0012979D02*
X0093789Y0012979D01*
X0093331Y0013778D02*
X0087960Y0013778D01*
X0087903Y0014576D02*
X0087681Y0014576D01*
X0085287Y0012642D02*
X0085287Y0010350D01*
X0084013Y0010350D01*
X0083657Y0010446D01*
X0083338Y0010630D01*
X0083077Y0010891D01*
X0082893Y0011210D01*
X0082798Y0011566D01*
X0082798Y0012642D01*
X0085287Y0012642D01*
X0085287Y0012181D02*
X0085471Y0012181D01*
X0085471Y0011382D02*
X0085287Y0011382D01*
X0085287Y0010584D02*
X0085471Y0010584D01*
X0083419Y0010584D02*
X0076347Y0010584D01*
X0077146Y0011382D02*
X0082847Y0011382D01*
X0082798Y0012181D02*
X0077897Y0012181D01*
X0078227Y0012979D02*
X0082798Y0012979D01*
X0082798Y0013778D02*
X0078558Y0013778D01*
X0078889Y0014576D02*
X0083076Y0014576D01*
X0083207Y0015375D02*
X0079009Y0015375D01*
X0079009Y0016173D02*
X0082998Y0016173D01*
X0082998Y0016972D02*
X0079009Y0016972D01*
X0079009Y0017770D02*
X0082998Y0017770D01*
X0083020Y0018569D02*
X0078717Y0018569D01*
X0078386Y0019367D02*
X0087652Y0019367D01*
X0087454Y0020964D02*
X0082974Y0020964D01*
X0084200Y0021763D02*
X0087454Y0021763D01*
X0087454Y0022561D02*
X0084998Y0022561D01*
X0085378Y0023360D02*
X0087454Y0023360D01*
X0087454Y0024158D02*
X0085708Y0024158D01*
X0085828Y0024957D02*
X0087454Y0024957D01*
X0088135Y0025755D02*
X0085828Y0025755D01*
X0085762Y0026554D02*
X0088229Y0026554D01*
X0087771Y0027352D02*
X0085431Y0027352D01*
X0085100Y0028151D02*
X0087592Y0028151D01*
X0087592Y0028949D02*
X0084328Y0028949D01*
X0083285Y0029748D02*
X0087592Y0029748D01*
X0087592Y0030546D02*
X0083552Y0030546D01*
X0084439Y0031345D02*
X0087592Y0031345D01*
X0087666Y0032143D02*
X0085146Y0032143D01*
X0085477Y0032942D02*
X0088544Y0032942D01*
X0088276Y0033676D02*
X0088276Y0036060D01*
X0088276Y0036060D01*
X0088276Y0033676D01*
X0088276Y0033740D02*
X0088276Y0033740D01*
X0088276Y0034539D02*
X0088276Y0034539D01*
X0088276Y0035337D02*
X0088276Y0035337D01*
X0087357Y0033740D02*
X0085808Y0033740D01*
X0085828Y0034539D02*
X0086478Y0034539D01*
X0086384Y0035337D02*
X0085828Y0035337D01*
X0085663Y0036136D02*
X0086384Y0036136D01*
X0086384Y0036934D02*
X0085332Y0036934D01*
X0084887Y0037733D02*
X0086565Y0037733D01*
X0086679Y0038532D02*
X0084089Y0038532D01*
X0083334Y0039330D02*
X0086679Y0039330D01*
X0092213Y0036060D02*
X0092229Y0036060D01*
X0097791Y0032143D02*
X0100875Y0032143D01*
X0100579Y0031345D02*
X0099404Y0031345D01*
X0100202Y0030546D02*
X0100579Y0030546D01*
X0100579Y0029748D02*
X0100479Y0029748D01*
X0100479Y0028949D02*
X0100579Y0028949D01*
X0100579Y0028151D02*
X0100099Y0028151D01*
X0100579Y0027352D02*
X0099301Y0027352D01*
X0100579Y0026554D02*
X0092229Y0026554D01*
X0092323Y0025755D02*
X0093707Y0025755D01*
X0092889Y0027352D02*
X0092569Y0027352D01*
X0099651Y0025755D02*
X0100579Y0025755D01*
X0100579Y0024957D02*
X0099847Y0024957D01*
X0100549Y0024158D02*
X0100579Y0024158D01*
X0105379Y0024158D02*
X0105579Y0024158D01*
X0105579Y0023360D02*
X0105379Y0023360D01*
X0105379Y0022561D02*
X0105579Y0022561D01*
X0105579Y0024957D02*
X0105379Y0024957D01*
X0105379Y0025755D02*
X0105579Y0025755D01*
X0105579Y0026554D02*
X0105379Y0026554D01*
X0105379Y0027352D02*
X0105579Y0027352D01*
X0105579Y0028151D02*
X0105379Y0028151D01*
X0105379Y0028949D02*
X0105579Y0028949D01*
X0105579Y0029748D02*
X0105379Y0029748D01*
X0105379Y0030546D02*
X0105579Y0030546D01*
X0105579Y0031345D02*
X0105379Y0031345D01*
X0105082Y0032143D02*
X0105875Y0032143D01*
X0095288Y0029800D02*
X0095229Y0029859D01*
X0090244Y0029875D02*
X0090170Y0029800D01*
X0090229Y0029741D01*
X0078571Y0029748D02*
X0074650Y0029748D01*
X0074650Y0029633D02*
X0074108Y0028322D01*
X0073105Y0027319D01*
X0071794Y0026776D01*
X0070376Y0026776D01*
X0069065Y0027319D01*
X0068062Y0028322D01*
X0067520Y0029633D01*
X0067520Y0031051D01*
X0068062Y0032361D01*
X0069065Y0033364D01*
X0070376Y0033907D01*
X0071794Y0033907D01*
X0073105Y0033364D01*
X0074108Y0032361D01*
X0074650Y0031051D01*
X0074650Y0029633D01*
X0074367Y0028949D02*
X0077527Y0028949D01*
X0076755Y0028151D02*
X0073936Y0028151D01*
X0073138Y0027352D02*
X0076424Y0027352D01*
X0076093Y0026554D02*
X0062679Y0026554D01*
X0062679Y0027352D02*
X0069032Y0027352D01*
X0068234Y0028151D02*
X0062679Y0028151D01*
X0062679Y0028949D02*
X0067803Y0028949D01*
X0067520Y0029748D02*
X0062679Y0029748D01*
X0062679Y0030546D02*
X0067520Y0030546D01*
X0067641Y0031345D02*
X0062679Y0031345D01*
X0062679Y0032143D02*
X0067972Y0032143D01*
X0068643Y0032942D02*
X0062679Y0032942D01*
X0062679Y0033740D02*
X0069974Y0033740D01*
X0072196Y0033740D02*
X0076047Y0033740D01*
X0076028Y0034539D02*
X0062679Y0034539D01*
X0062679Y0035337D02*
X0076028Y0035337D01*
X0076193Y0036136D02*
X0062679Y0036136D01*
X0062679Y0036934D02*
X0076523Y0036934D01*
X0076968Y0037733D02*
X0062679Y0037733D01*
X0062679Y0038532D02*
X0077766Y0038532D01*
X0078521Y0039330D02*
X0062679Y0039330D01*
X0062679Y0040129D02*
X0077506Y0040129D01*
X0076746Y0040927D02*
X0062679Y0040927D01*
X0062679Y0041726D02*
X0076416Y0041726D01*
X0076085Y0042524D02*
X0062679Y0042524D01*
X0062679Y0043323D02*
X0076028Y0043323D01*
X0076028Y0044121D02*
X0062679Y0044121D01*
X0062679Y0044920D02*
X0069346Y0044920D01*
X0069065Y0045036D02*
X0070376Y0044493D01*
X0071794Y0044493D01*
X0073105Y0045036D01*
X0074108Y0046039D01*
X0074650Y0047349D01*
X0074650Y0048767D01*
X0074108Y0050078D01*
X0073105Y0051081D01*
X0071794Y0051624D01*
X0070376Y0051624D01*
X0069065Y0051081D01*
X0068062Y0050078D01*
X0067520Y0048767D01*
X0067520Y0047349D01*
X0068062Y0046039D01*
X0069065Y0045036D01*
X0068383Y0045718D02*
X0062679Y0045718D01*
X0062679Y0046517D02*
X0067864Y0046517D01*
X0067534Y0047315D02*
X0062679Y0047315D01*
X0062679Y0048114D02*
X0067520Y0048114D01*
X0067580Y0048912D02*
X0062679Y0048912D01*
X0062679Y0049711D02*
X0067910Y0049711D01*
X0068494Y0050509D02*
X0062679Y0050509D01*
X0062679Y0051308D02*
X0069613Y0051308D01*
X0072557Y0051308D02*
X0076108Y0051308D01*
X0075902Y0052106D02*
X0062679Y0052106D01*
X0073676Y0050509D02*
X0076462Y0050509D01*
X0076999Y0049711D02*
X0074260Y0049711D01*
X0074590Y0048912D02*
X0077849Y0048912D01*
X0078931Y0048114D02*
X0074650Y0048114D01*
X0074636Y0047315D02*
X0077676Y0047315D01*
X0076878Y0046517D02*
X0074306Y0046517D01*
X0073787Y0045718D02*
X0076486Y0045718D01*
X0076155Y0044920D02*
X0072824Y0044920D01*
X0088276Y0043540D02*
X0088276Y0043540D01*
X0076378Y0032942D02*
X0073527Y0032942D01*
X0074198Y0032143D02*
X0076709Y0032143D01*
X0077416Y0031345D02*
X0074529Y0031345D01*
X0074650Y0030546D02*
X0078303Y0030546D01*
X0076028Y0025755D02*
X0062679Y0025755D01*
X0062679Y0024957D02*
X0076028Y0024957D01*
X0076147Y0024158D02*
X0062679Y0024158D01*
X0062679Y0023360D02*
X0068686Y0023360D01*
X0067025Y0022561D02*
X0062679Y0022561D01*
X0062679Y0021763D02*
X0066226Y0021763D01*
X0065428Y0020964D02*
X0062679Y0020964D01*
X0062679Y0020166D02*
X0064902Y0020166D01*
X0064571Y0019367D02*
X0062679Y0019367D01*
X0062679Y0018569D02*
X0064240Y0018569D01*
X0063948Y0017770D02*
X0062679Y0017770D01*
X0062679Y0016972D02*
X0063948Y0016972D01*
X0063948Y0016173D02*
X0062679Y0016173D01*
X0062679Y0015375D02*
X0063948Y0015375D01*
X0064069Y0014576D02*
X0062679Y0014576D01*
X0062679Y0013778D02*
X0064399Y0013778D01*
X0064730Y0012979D02*
X0062679Y0012979D01*
X0062679Y0012181D02*
X0065061Y0012181D01*
X0065812Y0011382D02*
X0062679Y0011382D01*
X0062679Y0010584D02*
X0066610Y0010584D01*
X0067686Y0009785D02*
X0062679Y0009785D01*
X0062679Y0008987D02*
X0069614Y0008987D01*
X0062679Y0008188D02*
X0096929Y0008188D01*
X0096898Y0007390D02*
X0062679Y0007390D01*
X0062679Y0006591D02*
X0096579Y0006591D01*
X0096579Y0005793D02*
X0062679Y0005793D01*
X0062679Y0004994D02*
X0096915Y0004994D01*
X0097713Y0004196D02*
X0062679Y0004196D01*
X0092554Y0014576D02*
X0093310Y0014576D01*
X0093310Y0015375D02*
X0093004Y0015375D01*
X0093004Y0016173D02*
X0096279Y0016173D01*
X0096279Y0015375D02*
X0097079Y0015375D01*
X0097079Y0016173D02*
X0104689Y0016173D01*
X0103891Y0015375D02*
X0100047Y0015375D01*
X0100047Y0014576D02*
X0103092Y0014576D01*
X0100491Y0013778D02*
X0100027Y0013778D01*
X0099724Y0012979D02*
X0099568Y0012979D01*
X0097079Y0012979D02*
X0096279Y0012979D01*
X0096279Y0013778D02*
X0097079Y0013778D01*
X0097079Y0014576D02*
X0096279Y0014576D01*
X0093310Y0016972D02*
X0093004Y0016972D01*
X0093004Y0017770D02*
X0093310Y0017770D01*
X0093314Y0018569D02*
X0093004Y0018569D01*
X0092805Y0019367D02*
X0093729Y0019367D01*
X0093579Y0020166D02*
X0078056Y0020166D01*
X0077530Y0020964D02*
X0078881Y0020964D01*
X0077656Y0021763D02*
X0076731Y0021763D01*
X0076857Y0022561D02*
X0075933Y0022561D01*
X0076477Y0023360D02*
X0074271Y0023360D01*
X0085379Y0017065D02*
X0085611Y0017097D01*
X0093004Y0020964D02*
X0093510Y0020964D01*
X0096679Y0022896D02*
X0096679Y0023000D01*
X0096679Y0022896D02*
X0097122Y0023003D01*
X0099629Y0019367D02*
X0099683Y0019367D01*
X0100043Y0018569D02*
X0100482Y0018569D01*
X0100047Y0017770D02*
X0104339Y0017770D01*
X0105488Y0016972D02*
X0100047Y0016972D01*
X0106219Y0017770D02*
X0106286Y0017770D01*
X0107079Y0014037D02*
X0107079Y0012330D01*
X0107484Y0011925D01*
X0105204Y0011925D01*
X0104810Y0011531D01*
X0104573Y0011531D01*
X0107079Y0014037D01*
X0107079Y0013778D02*
X0106819Y0013778D01*
X0107079Y0012979D02*
X0106021Y0012979D01*
X0105222Y0012181D02*
X0107228Y0012181D01*
X0110051Y0011102D02*
X0110449Y0011500D01*
X0110685Y0011500D01*
X0110407Y0011222D01*
X0110407Y0007800D01*
X0110051Y0007800D01*
X0110051Y0011102D01*
X0110331Y0011382D02*
X0110567Y0011382D01*
X0110407Y0010584D02*
X0110051Y0010584D01*
X0110051Y0009785D02*
X0110407Y0009785D01*
X0110407Y0008987D02*
X0110051Y0008987D01*
X0110051Y0008188D02*
X0110407Y0008188D01*
X0112079Y0006200D02*
X0113181Y0007103D01*
X0113181Y0009150D01*
X0115956Y0008987D02*
X0116346Y0008987D01*
X0115979Y0009785D02*
X0115956Y0009785D01*
X0115956Y0010584D02*
X0115979Y0010584D01*
X0115956Y0008188D02*
X0116807Y0008188D01*
X0116957Y0007928D02*
X0116957Y0007928D01*
X0116957Y0007928D01*
X0117889Y0007390D02*
X0115956Y0007390D01*
X0115469Y0006591D02*
X0122560Y0006591D01*
X0126167Y0006591D02*
X0126891Y0006591D01*
X0132526Y0008600D02*
X0132576Y0008650D01*
X0135301Y0008987D02*
X0135657Y0008987D01*
X0135657Y0009785D02*
X0135301Y0009785D01*
X0135301Y0008188D02*
X0135657Y0008188D01*
X0135657Y0007390D02*
X0135301Y0007390D01*
X0135301Y0006591D02*
X0135657Y0006591D01*
X0141206Y0006591D02*
X0148660Y0006591D01*
X0148832Y0006419D02*
X0151795Y0006419D01*
X0152479Y0007103D01*
X0153163Y0006419D01*
X0156060Y0006419D01*
X0156454Y0006025D01*
X0160598Y0006025D01*
X0161301Y0006728D01*
X0161301Y0010872D01*
X0160598Y0011575D01*
X0156454Y0011575D01*
X0156060Y0011181D01*
X0153163Y0011181D01*
X0152479Y0010497D01*
X0152269Y0010706D01*
X0153997Y0012200D01*
X0154849Y0012200D01*
X0156079Y0013430D01*
X0156079Y0015170D01*
X0154849Y0016400D01*
X0153109Y0016400D01*
X0151879Y0015170D01*
X0151879Y0014599D01*
X0149683Y0012700D01*
X0149616Y0012700D01*
X0149188Y0012272D01*
X0148731Y0011877D01*
X0148726Y0011810D01*
X0148679Y0011763D01*
X0148679Y0011158D01*
X0148669Y0011018D01*
X0148129Y0010478D01*
X0148129Y0007122D01*
X0148832Y0006419D01*
X0148129Y0007390D02*
X0141206Y0007390D01*
X0141206Y0008188D02*
X0148129Y0008188D01*
X0148129Y0008987D02*
X0141206Y0008987D01*
X0141206Y0009785D02*
X0148129Y0009785D01*
X0148235Y0010584D02*
X0141206Y0010584D01*
X0139837Y0011382D02*
X0148679Y0011382D01*
X0149082Y0012181D02*
X0139307Y0012181D01*
X0139701Y0011753D02*
X0139701Y0011753D01*
X0138572Y0012979D02*
X0150006Y0012979D01*
X0150929Y0013778D02*
X0137377Y0013778D01*
X0138225Y0014576D02*
X0151852Y0014576D01*
X0152084Y0015375D02*
X0139023Y0015375D01*
X0139279Y0016173D02*
X0152882Y0016173D01*
X0155075Y0016173D02*
X0161182Y0016173D01*
X0160384Y0015375D02*
X0155874Y0015375D01*
X0156079Y0014576D02*
X0160179Y0014576D01*
X0160179Y0013778D02*
X0156079Y0013778D01*
X0155628Y0012979D02*
X0160630Y0012979D01*
X0162135Y0012181D02*
X0153974Y0012181D01*
X0153051Y0011382D02*
X0156261Y0011382D01*
X0160790Y0011382D02*
X0162167Y0011382D01*
X0161657Y0010584D02*
X0161301Y0010584D01*
X0161301Y0009785D02*
X0161657Y0009785D01*
X0161657Y0008987D02*
X0161301Y0008987D01*
X0161301Y0008188D02*
X0161657Y0008188D01*
X0161657Y0007390D02*
X0161301Y0007390D01*
X0161164Y0006591D02*
X0161794Y0006591D01*
X0167069Y0006591D02*
X0235479Y0006591D01*
X0235479Y0005793D02*
X0114134Y0005793D01*
X0113136Y0004994D02*
X0235479Y0004994D01*
X0235479Y0004196D02*
X0099644Y0004196D01*
X0098679Y0006200D02*
X0112079Y0006200D01*
X0119452Y0010423D02*
X0119387Y0010535D01*
X0119379Y0010600D01*
X0119379Y0010780D01*
X0119809Y0010350D01*
X0119629Y0010350D01*
X0119564Y0010359D01*
X0119452Y0010423D01*
X0119381Y0010584D02*
X0119575Y0010584D01*
X0119329Y0012058D02*
X0118307Y0013828D01*
X0118307Y0013828D01*
X0117506Y0014290D01*
X0117607Y0014349D01*
X0117868Y0014609D01*
X0118016Y0014866D01*
X0118613Y0014269D01*
X0121575Y0014269D01*
X0121967Y0014660D01*
X0122270Y0014662D01*
X0122439Y0014492D01*
X0122341Y0014440D01*
X0122094Y0014460D01*
X0121631Y0014067D01*
X0121124Y0013800D01*
X0120559Y0013800D01*
X0119930Y0013171D01*
X0119764Y0013084D01*
X0119729Y0012970D01*
X0119329Y0012570D01*
X0119329Y0012058D01*
X0119329Y0012181D02*
X0119258Y0012181D01*
X0118797Y0012979D02*
X0119732Y0012979D01*
X0120537Y0013778D02*
X0118336Y0013778D01*
X0118305Y0014576D02*
X0117835Y0014576D01*
X0121883Y0014576D02*
X0122356Y0014576D01*
X0126002Y0014576D02*
X0136133Y0014576D01*
X0136137Y0014352D02*
X0136137Y0014352D01*
X0135334Y0015375D02*
X0128123Y0015375D01*
X0128579Y0016173D02*
X0135079Y0016173D01*
X0135079Y0016972D02*
X0128579Y0016972D01*
X0128378Y0017770D02*
X0135479Y0017770D01*
X0136278Y0018569D02*
X0127580Y0018569D01*
X0126479Y0016700D02*
X0126479Y0016630D01*
X0124179Y0016615D02*
X0123779Y0016670D01*
X0118150Y0018569D02*
X0117938Y0018569D01*
X0115856Y0018569D02*
X0115671Y0018569D01*
X0115671Y0017770D02*
X0115856Y0017770D01*
X0115856Y0016972D02*
X0115671Y0016972D01*
X0118179Y0021250D02*
X0119363Y0021250D01*
X0119719Y0021345D01*
X0120038Y0021530D01*
X0120299Y0021790D01*
X0120483Y0022110D01*
X0120579Y0022466D01*
X0120579Y0026800D01*
X0118179Y0026800D01*
X0118179Y0021250D01*
X0118179Y0021763D02*
X0117779Y0021763D01*
X0117779Y0022561D02*
X0118179Y0022561D01*
X0118179Y0023360D02*
X0117779Y0023360D01*
X0117779Y0024158D02*
X0118179Y0024158D01*
X0118179Y0024957D02*
X0117779Y0024957D01*
X0117779Y0025755D02*
X0118179Y0025755D01*
X0118179Y0026554D02*
X0117779Y0026554D01*
X0117779Y0027352D02*
X0118179Y0027352D01*
X0118179Y0028151D02*
X0117779Y0028151D01*
X0117779Y0028949D02*
X0118179Y0028949D01*
X0118179Y0029748D02*
X0117779Y0029748D01*
X0117779Y0030546D02*
X0118179Y0030546D01*
X0120579Y0030546D02*
X0125579Y0030546D01*
X0125579Y0029748D02*
X0120579Y0029748D01*
X0120579Y0028949D02*
X0125579Y0028949D01*
X0125579Y0028151D02*
X0124539Y0028151D01*
X0123990Y0028700D02*
X0125279Y0027411D01*
X0125279Y0025589D01*
X0123990Y0024300D01*
X0122167Y0024300D01*
X0120879Y0025589D01*
X0120879Y0027411D01*
X0122167Y0028700D01*
X0123990Y0028700D01*
X0125279Y0027352D02*
X0125579Y0027352D01*
X0125579Y0026554D02*
X0125279Y0026554D01*
X0125279Y0025755D02*
X0125579Y0025755D01*
X0125579Y0024957D02*
X0124647Y0024957D01*
X0125579Y0024158D02*
X0120579Y0024158D01*
X0120579Y0023360D02*
X0125579Y0023360D01*
X0125579Y0022561D02*
X0120579Y0022561D01*
X0120271Y0021763D02*
X0125969Y0021763D01*
X0126282Y0021450D02*
X0129676Y0021450D01*
X0130379Y0022153D01*
X0130379Y0031847D01*
X0129676Y0032550D01*
X0126282Y0032550D01*
X0125579Y0031847D01*
X0125579Y0022153D01*
X0126282Y0021450D01*
X0129989Y0021763D02*
X0130969Y0021763D01*
X0131282Y0021450D02*
X0134676Y0021450D01*
X0135379Y0022153D01*
X0135379Y0031847D01*
X0134676Y0032550D01*
X0131282Y0032550D01*
X0130579Y0031847D01*
X0130579Y0022153D01*
X0131282Y0021450D01*
X0130579Y0022561D02*
X0130379Y0022561D01*
X0130379Y0023360D02*
X0130579Y0023360D01*
X0130579Y0024158D02*
X0130379Y0024158D01*
X0130379Y0024957D02*
X0130579Y0024957D01*
X0130579Y0025755D02*
X0130379Y0025755D01*
X0130379Y0026554D02*
X0130579Y0026554D01*
X0130579Y0027352D02*
X0130379Y0027352D01*
X0130379Y0028151D02*
X0130579Y0028151D01*
X0130579Y0028949D02*
X0130379Y0028949D01*
X0130379Y0029748D02*
X0130579Y0029748D01*
X0130579Y0030546D02*
X0130379Y0030546D01*
X0130379Y0031345D02*
X0130579Y0031345D01*
X0130875Y0032143D02*
X0130082Y0032143D01*
X0125875Y0032143D02*
X0120337Y0032143D01*
X0120579Y0031345D02*
X0125579Y0031345D01*
X0121618Y0028151D02*
X0120579Y0028151D01*
X0120579Y0027352D02*
X0120879Y0027352D01*
X0120879Y0026554D02*
X0120579Y0026554D01*
X0120579Y0025755D02*
X0120879Y0025755D01*
X0120579Y0024957D02*
X0121511Y0024957D01*
X0134989Y0021763D02*
X0135969Y0021763D01*
X0135579Y0022561D02*
X0135379Y0022561D01*
X0135379Y0023360D02*
X0135579Y0023360D01*
X0135579Y0024158D02*
X0135379Y0024158D01*
X0135379Y0024957D02*
X0135579Y0024957D01*
X0135579Y0025755D02*
X0135379Y0025755D01*
X0135379Y0026554D02*
X0135579Y0026554D01*
X0135579Y0027352D02*
X0135379Y0027352D01*
X0135379Y0028151D02*
X0135579Y0028151D01*
X0135579Y0028949D02*
X0135379Y0028949D01*
X0135379Y0029748D02*
X0135579Y0029748D01*
X0135579Y0030546D02*
X0135379Y0030546D01*
X0135379Y0031345D02*
X0135579Y0031345D01*
X0135875Y0032143D02*
X0135082Y0032143D01*
X0137014Y0036934D02*
X0140270Y0036934D01*
X0140550Y0036934D02*
X0158435Y0036934D01*
X0160879Y0043323D02*
X0161079Y0043323D01*
X0161079Y0044121D02*
X0160879Y0044121D01*
X0160879Y0044920D02*
X0161079Y0044920D01*
X0161079Y0045718D02*
X0160879Y0045718D01*
X0160879Y0046517D02*
X0161079Y0046517D01*
X0161079Y0047315D02*
X0160879Y0047315D01*
X0160879Y0048114D02*
X0161079Y0048114D01*
X0161079Y0048912D02*
X0160879Y0048912D01*
X0160879Y0049711D02*
X0161079Y0049711D01*
X0161079Y0050509D02*
X0160879Y0050509D01*
X0160879Y0051308D02*
X0161079Y0051308D01*
X0161079Y0052106D02*
X0160879Y0052106D01*
X0160879Y0052905D02*
X0161079Y0052905D01*
X0170479Y0053703D02*
X0195779Y0053703D01*
X0195779Y0052905D02*
X0170879Y0052905D01*
X0170879Y0052106D02*
X0195779Y0052106D01*
X0195098Y0051308D02*
X0170879Y0051308D01*
X0170879Y0050509D02*
X0195098Y0050509D01*
X0195098Y0049711D02*
X0170879Y0049711D01*
X0170879Y0048912D02*
X0195098Y0048912D01*
X0195418Y0048114D02*
X0170879Y0048114D01*
X0170879Y0047315D02*
X0195347Y0047315D01*
X0195098Y0046517D02*
X0192932Y0046517D01*
X0193730Y0045718D02*
X0195098Y0045718D01*
X0195098Y0044920D02*
X0193979Y0044920D01*
X0193979Y0044121D02*
X0195050Y0044121D01*
X0194751Y0043323D02*
X0193571Y0043323D01*
X0197527Y0045223D02*
X0197544Y0045249D01*
X0197558Y0045276D01*
X0197569Y0045306D01*
X0197576Y0045336D01*
X0197580Y0045367D01*
X0197579Y0045398D01*
X0197575Y0045429D01*
X0197568Y0045459D01*
X0197556Y0045488D01*
X0197542Y0045515D01*
X0197524Y0045541D01*
X0197503Y0045564D01*
X0197479Y0045585D01*
X0190826Y0046517D02*
X0170879Y0046517D01*
X0151179Y0048100D02*
X0151156Y0048098D01*
X0151133Y0048093D01*
X0151111Y0048084D01*
X0151091Y0048071D01*
X0151073Y0048056D01*
X0151058Y0048038D01*
X0151045Y0048018D01*
X0151036Y0047996D01*
X0151031Y0047973D01*
X0151029Y0047950D01*
X0140974Y0054502D02*
X0119979Y0054502D01*
X0119979Y0055300D02*
X0140875Y0055300D01*
X0140585Y0056099D02*
X0119979Y0056099D01*
X0120504Y0056897D02*
X0140074Y0056897D01*
X0139198Y0057696D02*
X0120600Y0057696D01*
X0118129Y0058385D02*
X0118008Y0056330D01*
X0118009Y0056330D02*
X0118008Y0056321D01*
X0118003Y0056312D01*
X0117997Y0056306D01*
X0117988Y0056301D01*
X0117979Y0056300D01*
X0115979Y0056099D02*
X0114897Y0056099D01*
X0114905Y0055300D02*
X0115979Y0055300D01*
X0115979Y0054502D02*
X0114913Y0054502D01*
X0114920Y0053703D02*
X0115979Y0053703D01*
X0115979Y0052905D02*
X0114928Y0052905D01*
X0115379Y0052106D02*
X0115579Y0052106D01*
X0115579Y0051308D02*
X0115379Y0051308D01*
X0115379Y0050509D02*
X0115579Y0050509D01*
X0115579Y0049711D02*
X0115379Y0049711D01*
X0115379Y0048912D02*
X0115579Y0048912D01*
X0115579Y0048114D02*
X0115379Y0048114D01*
X0100979Y0053703D02*
X0098578Y0053703D01*
X0098578Y0054502D02*
X0100979Y0054502D01*
X0100979Y0055300D02*
X0098578Y0055300D01*
X0098578Y0056099D02*
X0100979Y0056099D01*
X0100879Y0056897D02*
X0098578Y0056897D01*
X0098677Y0057696D02*
X0100879Y0057696D01*
X0101003Y0058494D02*
X0098729Y0058494D01*
X0098729Y0059293D02*
X0101802Y0059293D01*
X0104156Y0059293D02*
X0110448Y0059293D01*
X0110448Y0058494D02*
X0104954Y0058494D01*
X0105079Y0057696D02*
X0110448Y0057696D01*
X0110454Y0056897D02*
X0105079Y0056897D01*
X0104979Y0056099D02*
X0110897Y0056099D01*
X0110905Y0055300D02*
X0104979Y0055300D01*
X0104979Y0054502D02*
X0110912Y0054502D01*
X0115204Y0056897D02*
X0115754Y0056897D01*
X0115748Y0057696D02*
X0115210Y0057696D01*
X0115210Y0058494D02*
X0115748Y0058494D01*
X0115748Y0059293D02*
X0115210Y0059293D01*
X0114984Y0060091D02*
X0115973Y0060091D01*
X0112829Y0058385D02*
X0112811Y0058359D01*
X0112797Y0058331D01*
X0112787Y0058301D01*
X0112780Y0058271D01*
X0112776Y0058240D01*
X0112777Y0058208D01*
X0112781Y0058177D01*
X0112789Y0058147D01*
X0112801Y0058118D01*
X0112816Y0058090D01*
X0112834Y0058064D01*
X0112855Y0058041D01*
X0112879Y0058021D01*
X0110673Y0060091D02*
X0098290Y0060091D01*
X0097492Y0060890D02*
X0108219Y0060890D01*
X0107279Y0063285D02*
X0094781Y0063285D01*
X0095112Y0064084D02*
X0107793Y0064084D01*
X0111133Y0064882D02*
X0095147Y0064882D01*
X0081328Y0057696D02*
X0080528Y0057696D01*
X0080528Y0056897D02*
X0081328Y0056897D01*
X0081328Y0056099D02*
X0080528Y0056099D01*
X0080528Y0055300D02*
X0081328Y0055300D01*
X0081328Y0054502D02*
X0080528Y0054502D01*
X0076890Y0056099D02*
X0076193Y0056099D01*
X0076386Y0055300D02*
X0074899Y0055300D01*
X0076991Y0056897D02*
X0077643Y0056897D01*
X0077790Y0057696D02*
X0078950Y0057696D01*
X0092063Y0055300D02*
X0092079Y0055298D01*
X0092094Y0055294D01*
X0092108Y0055286D01*
X0092120Y0055276D01*
X0092130Y0055264D01*
X0092138Y0055250D01*
X0092142Y0055235D01*
X0092144Y0055219D01*
X0114524Y0064882D02*
X0116433Y0064882D01*
X0120785Y0062300D02*
X0120785Y0062300D01*
X0140271Y0061688D02*
X0146004Y0061688D01*
X0144642Y0061157D02*
X0144642Y0061157D01*
X0144364Y0060890D02*
X0141938Y0060890D01*
X0141903Y0060928D02*
X0141903Y0060928D01*
X0141903Y0060928D01*
X0142670Y0060091D02*
X0143532Y0060091D01*
X0146994Y0057696D02*
X0165624Y0057696D01*
X0166223Y0056897D02*
X0146096Y0056897D01*
X0147653Y0062333D02*
X0147653Y0062333D01*
X0169404Y0059690D02*
X0169404Y0059690D01*
X0169582Y0059293D02*
X0172766Y0059293D01*
X0171968Y0060091D02*
X0169740Y0060091D01*
X0170538Y0060890D02*
X0171629Y0060890D01*
X0171629Y0061688D02*
X0170779Y0061688D01*
X0170779Y0062487D02*
X0171946Y0062487D01*
X0172744Y0063285D02*
X0170363Y0063285D01*
X0175829Y0061688D02*
X0196197Y0061688D01*
X0195399Y0060890D02*
X0175829Y0060890D01*
X0175490Y0060091D02*
X0195379Y0060091D01*
X0195379Y0059293D02*
X0174691Y0059293D01*
X0169940Y0058494D02*
X0195779Y0058494D01*
X0233910Y0045718D02*
X0235479Y0045718D01*
X0235479Y0044920D02*
X0233676Y0044920D01*
X0235479Y0044121D02*
X0223890Y0044121D01*
X0224358Y0043323D02*
X0235479Y0043323D01*
X0235479Y0042524D02*
X0224593Y0042524D01*
X0224827Y0041726D02*
X0235479Y0041726D01*
X0235479Y0040927D02*
X0224696Y0040927D01*
X0224461Y0040129D02*
X0235479Y0040129D01*
X0235479Y0039330D02*
X0224131Y0039330D01*
X0224297Y0038532D02*
X0227099Y0038532D01*
X0232028Y0038550D02*
X0232028Y0038550D01*
X0233025Y0038532D02*
X0235479Y0038532D01*
X0235479Y0037733D02*
X0233710Y0037733D01*
X0233710Y0036934D02*
X0235479Y0036934D01*
X0235479Y0036136D02*
X0233710Y0036136D01*
X0233710Y0035337D02*
X0235479Y0035337D01*
X0235479Y0034539D02*
X0233365Y0034539D01*
X0233485Y0033740D02*
X0235479Y0033740D01*
X0235479Y0032942D02*
X0233710Y0032942D01*
X0233710Y0032143D02*
X0235479Y0032143D01*
X0235479Y0031345D02*
X0233710Y0031345D01*
X0233703Y0030546D02*
X0235479Y0030546D01*
X0235479Y0029748D02*
X0233379Y0029748D01*
X0233379Y0028949D02*
X0235479Y0028949D01*
X0235479Y0028151D02*
X0233199Y0028151D01*
X0232401Y0027352D02*
X0235479Y0027352D01*
X0235479Y0026554D02*
X0221847Y0026554D01*
X0221792Y0027352D02*
X0230157Y0027352D01*
X0229358Y0028151D02*
X0222770Y0028151D01*
X0222599Y0028002D02*
X0222599Y0028002D01*
X0223692Y0028949D02*
X0229179Y0028949D01*
X0235479Y0025755D02*
X0221796Y0025755D01*
X0221465Y0024957D02*
X0235479Y0024957D01*
X0235479Y0024158D02*
X0220851Y0024158D01*
X0219579Y0023360D02*
X0235479Y0023360D01*
X0235479Y0022561D02*
X0209714Y0022561D01*
X0209436Y0021763D02*
X0235479Y0021763D01*
X0235479Y0020964D02*
X0209158Y0020964D01*
X0209064Y0020694D02*
X0209064Y0020694D01*
X0208663Y0020166D02*
X0235479Y0020166D01*
X0235479Y0019367D02*
X0208057Y0019367D01*
X0207451Y0018569D02*
X0235479Y0018569D01*
X0235479Y0017770D02*
X0206797Y0017770D01*
X0206900Y0017842D02*
X0206900Y0017842D01*
X0206900Y0017842D01*
X0205648Y0016972D02*
X0235479Y0016972D01*
X0235479Y0016173D02*
X0204500Y0016173D01*
X0202558Y0015375D02*
X0235479Y0015375D01*
X0235479Y0012979D02*
X0230281Y0012979D01*
X0230274Y0012986D02*
X0229109Y0013468D01*
X0227848Y0013468D01*
X0226684Y0012986D01*
X0225793Y0012095D01*
X0225310Y0010930D01*
X0225310Y0009670D01*
X0225793Y0008505D01*
X0226684Y0007614D01*
X0227848Y0007131D01*
X0229109Y0007131D01*
X0230274Y0007614D01*
X0231165Y0008505D01*
X0231647Y0009670D01*
X0231647Y0010930D01*
X0231165Y0012095D01*
X0230274Y0012986D01*
X0231079Y0012181D02*
X0235479Y0012181D01*
X0235479Y0011382D02*
X0231460Y0011382D01*
X0231647Y0010584D02*
X0235479Y0010584D01*
X0235479Y0009785D02*
X0231647Y0009785D01*
X0231364Y0008987D02*
X0235479Y0008987D01*
X0235479Y0008188D02*
X0230848Y0008188D01*
X0229732Y0007390D02*
X0235479Y0007390D01*
X0227225Y0007390D02*
X0167206Y0007390D01*
X0167206Y0008188D02*
X0226110Y0008188D01*
X0225593Y0008987D02*
X0167206Y0008987D01*
X0167206Y0009785D02*
X0225310Y0009785D01*
X0225310Y0010584D02*
X0167206Y0010584D01*
X0166696Y0011382D02*
X0225497Y0011382D01*
X0225878Y0012181D02*
X0166156Y0012181D01*
X0166131Y0012979D02*
X0226677Y0012979D01*
X0217378Y0023360D02*
X0209992Y0023360D01*
X0210241Y0024075D02*
X0210241Y0024075D01*
X0210243Y0024158D02*
X0216107Y0024158D01*
X0224291Y0033550D02*
X0224260Y0033658D01*
X0224260Y0033658D01*
X0224260Y0033658D01*
X0223808Y0034050D01*
X0224260Y0034441D01*
X0224260Y0034442D01*
X0224321Y0034650D01*
X0227017Y0034650D01*
X0227317Y0034350D01*
X0229140Y0034350D01*
X0229311Y0034521D01*
X0229632Y0034200D01*
X0228982Y0033550D01*
X0224291Y0033550D01*
X0224165Y0033740D02*
X0229172Y0033740D01*
X0227128Y0034539D02*
X0224288Y0034539D01*
X0231199Y0036550D02*
X0231221Y0036544D01*
X0231242Y0036536D01*
X0231262Y0036524D01*
X0231280Y0036510D01*
X0231295Y0036493D01*
X0231308Y0036475D01*
X0231319Y0036455D01*
X0231326Y0036433D01*
X0231330Y0036411D01*
X0231331Y0036388D01*
X0231329Y0036366D01*
X0208929Y0041485D02*
X0208579Y0040935D01*
X0206879Y0038532D02*
X0205331Y0038532D01*
X0203481Y0033550D02*
X0203468Y0033548D01*
X0203456Y0033543D01*
X0203446Y0033535D01*
X0203438Y0033525D01*
X0203433Y0033513D01*
X0203431Y0033500D01*
X0200533Y0014763D02*
X0200533Y0014763D01*
X0153979Y0014300D02*
X0150279Y0011100D01*
X0150279Y0008835D01*
X0150313Y0008800D01*
X0152392Y0010584D02*
X0152565Y0010584D01*
X0152991Y0006591D02*
X0151967Y0006591D01*
X0126582Y0010400D02*
X0126529Y0010347D01*
X0126476Y0010400D01*
X0126582Y0010400D01*
X0124179Y0012285D02*
X0124191Y0012296D01*
X0124201Y0012308D01*
X0124208Y0012323D01*
X0124213Y0012338D01*
X0124214Y0012355D01*
X0124212Y0012371D01*
X0124207Y0012386D01*
X0124199Y0012401D01*
D26*
X0203481Y0028797D02*
X0203481Y0033550D01*
X0203431Y0033500D02*
X0203431Y0041750D01*
X0220979Y0046550D02*
X0228479Y0046550D01*
X0215979Y0051550D02*
X0207979Y0051550D01*
X0220979Y0036550D02*
X0228229Y0036550D01*
D27*
X0228229Y0036550D03*
X0225729Y0039300D03*
X0228329Y0041500D03*
X0225729Y0044050D03*
X0228479Y0046550D03*
X0204479Y0058000D03*
X0184729Y0054800D03*
X0180329Y0044550D03*
X0184529Y0040300D03*
X0188779Y0036150D03*
X0183879Y0034300D03*
X0186679Y0030200D03*
X0172479Y0031300D03*
X0170479Y0035800D03*
X0146979Y0022800D03*
X0129479Y0015150D03*
X0109279Y0019750D03*
X0123079Y0026500D03*
X0114679Y0033200D03*
X0117479Y0035550D03*
X0122979Y0035550D03*
X0128479Y0035550D03*
X0131479Y0038900D03*
X0124479Y0047550D03*
X0153479Y0056300D03*
X0153479Y0069800D03*
X0129979Y0069800D03*
X0107479Y0069300D03*
X0085979Y0069300D03*
X0179979Y0069800D03*
X0204479Y0069800D03*
X0226979Y0069800D03*
X0221979Y0017550D03*
X0214979Y0010800D03*
X0095779Y0008800D03*
X0079479Y0008800D03*
D28*
X0096429Y0058700D03*
D29*
X0096394Y0055300D01*
X0092144Y0055219D02*
X0092144Y0047250D01*
M02*
