G75*
%MOIN*%
%OFA0B0*%
%FSLAX25Y25*%
%IPPOS*%
%LPD*%
%AMOC8*
5,1,8,0,0,1.08239X$1,22.5*
%
%ADD10C,0.00700*%
%ADD11C,0.00500*%
%ADD12C,0.00800*%
%ADD13C,0.00600*%
%ADD14C,0.00200*%
%ADD15C,0.00450*%
%ADD16C,0.00394*%
%ADD17R,0.00086X0.12900*%
%ADD18R,0.00086X0.00086*%
%ADD19R,0.00086X0.01634*%
%ADD20R,0.00086X0.01634*%
D10*
X0170129Y0006967D02*
X0170946Y0006150D01*
X0172581Y0006150D01*
X0173398Y0006967D01*
X0173398Y0008602D01*
X0172581Y0009419D01*
X0170946Y0009419D01*
X0170129Y0008602D01*
X0170129Y0006967D01*
X0175285Y0006150D02*
X0177737Y0006150D01*
X0178555Y0006967D01*
X0178555Y0008602D01*
X0177737Y0009419D01*
X0175285Y0009419D01*
X0175285Y0004515D01*
X0180442Y0006967D02*
X0181259Y0006150D01*
X0182894Y0006150D01*
X0183711Y0007785D02*
X0180442Y0007785D01*
X0180442Y0008602D02*
X0180442Y0006967D01*
X0180442Y0008602D02*
X0181259Y0009419D01*
X0182894Y0009419D01*
X0183711Y0008602D01*
X0183711Y0007785D01*
X0185598Y0006150D02*
X0185598Y0009419D01*
X0188050Y0009419D01*
X0188867Y0008602D01*
X0188867Y0006150D01*
X0192389Y0006150D02*
X0192389Y0011054D01*
X0190754Y0011054D02*
X0194024Y0011054D01*
X0195911Y0011054D02*
X0198363Y0011054D01*
X0199180Y0010237D01*
X0199180Y0008602D01*
X0198363Y0007785D01*
X0195911Y0007785D01*
X0195911Y0006150D02*
X0195911Y0011054D01*
X0201067Y0011054D02*
X0202702Y0009419D01*
X0204337Y0011054D01*
X0204337Y0006150D01*
X0201067Y0006150D02*
X0201067Y0011054D01*
D11*
X0228479Y0026550D02*
X0228479Y0056550D01*
X0095369Y0043737D02*
X0095371Y0043764D01*
X0095377Y0043791D01*
X0095386Y0043817D01*
X0095399Y0043841D01*
X0095415Y0043864D01*
X0095434Y0043883D01*
X0095456Y0043900D01*
X0095480Y0043914D01*
X0095505Y0043924D01*
X0095532Y0043931D01*
X0095559Y0043934D01*
X0095587Y0043933D01*
X0095614Y0043928D01*
X0095640Y0043920D01*
X0095664Y0043908D01*
X0095687Y0043892D01*
X0095708Y0043874D01*
X0095725Y0043853D01*
X0095740Y0043829D01*
X0095751Y0043804D01*
X0095759Y0043778D01*
X0095763Y0043751D01*
X0095763Y0043723D01*
X0095759Y0043696D01*
X0095751Y0043670D01*
X0095740Y0043645D01*
X0095725Y0043621D01*
X0095708Y0043600D01*
X0095687Y0043582D01*
X0095665Y0043566D01*
X0095640Y0043554D01*
X0095614Y0043546D01*
X0095587Y0043541D01*
X0095559Y0043540D01*
X0095532Y0043543D01*
X0095505Y0043550D01*
X0095480Y0043560D01*
X0095456Y0043574D01*
X0095434Y0043591D01*
X0095415Y0043610D01*
X0095399Y0043633D01*
X0095386Y0043657D01*
X0095377Y0043683D01*
X0095371Y0043710D01*
X0095369Y0043737D01*
X0095466Y0043737D02*
X0095466Y0035863D01*
X0086992Y0035863D02*
X0086992Y0043737D01*
X0096579Y0019550D02*
X0096581Y0019570D01*
X0096587Y0019588D01*
X0096596Y0019606D01*
X0096608Y0019621D01*
X0096623Y0019633D01*
X0096641Y0019642D01*
X0096659Y0019648D01*
X0096679Y0019650D01*
X0096699Y0019648D01*
X0096717Y0019642D01*
X0096735Y0019633D01*
X0096750Y0019621D01*
X0096762Y0019606D01*
X0096771Y0019588D01*
X0096777Y0019570D01*
X0096779Y0019550D01*
X0096777Y0019530D01*
X0096771Y0019512D01*
X0096762Y0019494D01*
X0096750Y0019479D01*
X0096735Y0019467D01*
X0096717Y0019458D01*
X0096699Y0019452D01*
X0096679Y0019450D01*
X0096659Y0019452D01*
X0096641Y0019458D01*
X0096623Y0019467D01*
X0096608Y0019479D01*
X0096596Y0019494D01*
X0096587Y0019512D01*
X0096581Y0019530D01*
X0096579Y0019550D01*
X0096179Y0019550D02*
X0096181Y0019594D01*
X0096187Y0019638D01*
X0096197Y0019681D01*
X0096210Y0019723D01*
X0096227Y0019764D01*
X0096248Y0019803D01*
X0096272Y0019840D01*
X0096299Y0019875D01*
X0096329Y0019907D01*
X0096362Y0019937D01*
X0096398Y0019963D01*
X0096435Y0019987D01*
X0096475Y0020006D01*
X0096516Y0020023D01*
X0096559Y0020035D01*
X0096602Y0020044D01*
X0096646Y0020049D01*
X0096690Y0020050D01*
X0096734Y0020047D01*
X0096778Y0020040D01*
X0096821Y0020029D01*
X0096863Y0020015D01*
X0096903Y0019997D01*
X0096942Y0019975D01*
X0096978Y0019951D01*
X0097012Y0019923D01*
X0097044Y0019892D01*
X0097073Y0019858D01*
X0097099Y0019822D01*
X0097121Y0019784D01*
X0097140Y0019744D01*
X0097155Y0019702D01*
X0097167Y0019660D01*
X0097175Y0019616D01*
X0097179Y0019572D01*
X0097179Y0019528D01*
X0097175Y0019484D01*
X0097167Y0019440D01*
X0097155Y0019398D01*
X0097140Y0019356D01*
X0097121Y0019316D01*
X0097099Y0019278D01*
X0097073Y0019242D01*
X0097044Y0019208D01*
X0097012Y0019177D01*
X0096978Y0019149D01*
X0096942Y0019125D01*
X0096903Y0019103D01*
X0096863Y0019085D01*
X0096821Y0019071D01*
X0096778Y0019060D01*
X0096734Y0019053D01*
X0096690Y0019050D01*
X0096646Y0019051D01*
X0096602Y0019056D01*
X0096559Y0019065D01*
X0096516Y0019077D01*
X0096475Y0019094D01*
X0096435Y0019113D01*
X0096398Y0019137D01*
X0096362Y0019163D01*
X0096329Y0019193D01*
X0096299Y0019225D01*
X0096272Y0019260D01*
X0096248Y0019297D01*
X0096227Y0019336D01*
X0096210Y0019377D01*
X0096197Y0019419D01*
X0096187Y0019462D01*
X0096181Y0019506D01*
X0096179Y0019550D01*
D12*
X0063605Y0015578D02*
X0059668Y0015578D01*
X0059668Y0062822D01*
X0063605Y0062822D01*
X0075416Y0054948D02*
X0075416Y0023452D01*
X0102814Y0033400D02*
X0102816Y0033447D01*
X0102822Y0033494D01*
X0102832Y0033541D01*
X0102845Y0033586D01*
X0102863Y0033630D01*
X0102884Y0033672D01*
X0102908Y0033713D01*
X0102936Y0033751D01*
X0102967Y0033787D01*
X0103001Y0033820D01*
X0103037Y0033850D01*
X0103076Y0033877D01*
X0103117Y0033901D01*
X0103160Y0033921D01*
X0103204Y0033937D01*
X0103250Y0033950D01*
X0103296Y0033959D01*
X0103344Y0033964D01*
X0103391Y0033965D01*
X0103438Y0033962D01*
X0103485Y0033955D01*
X0103531Y0033944D01*
X0103576Y0033930D01*
X0103620Y0033911D01*
X0103661Y0033889D01*
X0103701Y0033864D01*
X0103739Y0033835D01*
X0103774Y0033804D01*
X0103807Y0033769D01*
X0103836Y0033732D01*
X0103862Y0033693D01*
X0103885Y0033651D01*
X0103904Y0033608D01*
X0103920Y0033563D01*
X0103932Y0033517D01*
X0103940Y0033471D01*
X0103944Y0033424D01*
X0103944Y0033376D01*
X0103940Y0033329D01*
X0103932Y0033283D01*
X0103920Y0033237D01*
X0103904Y0033192D01*
X0103885Y0033149D01*
X0103862Y0033107D01*
X0103836Y0033068D01*
X0103807Y0033031D01*
X0103774Y0032996D01*
X0103739Y0032965D01*
X0103701Y0032936D01*
X0103662Y0032911D01*
X0103620Y0032889D01*
X0103576Y0032870D01*
X0103531Y0032856D01*
X0103485Y0032845D01*
X0103438Y0032838D01*
X0103391Y0032835D01*
X0103344Y0032836D01*
X0103296Y0032841D01*
X0103250Y0032850D01*
X0103204Y0032863D01*
X0103160Y0032879D01*
X0103117Y0032899D01*
X0103076Y0032923D01*
X0103037Y0032950D01*
X0103001Y0032980D01*
X0102967Y0033013D01*
X0102936Y0033049D01*
X0102908Y0033087D01*
X0102884Y0033128D01*
X0102863Y0033170D01*
X0102845Y0033214D01*
X0102832Y0033259D01*
X0102822Y0033306D01*
X0102816Y0033353D01*
X0102814Y0033400D01*
X0127814Y0033400D02*
X0127816Y0033447D01*
X0127822Y0033494D01*
X0127832Y0033541D01*
X0127845Y0033586D01*
X0127863Y0033630D01*
X0127884Y0033672D01*
X0127908Y0033713D01*
X0127936Y0033751D01*
X0127967Y0033787D01*
X0128001Y0033820D01*
X0128037Y0033850D01*
X0128076Y0033877D01*
X0128117Y0033901D01*
X0128160Y0033921D01*
X0128204Y0033937D01*
X0128250Y0033950D01*
X0128296Y0033959D01*
X0128344Y0033964D01*
X0128391Y0033965D01*
X0128438Y0033962D01*
X0128485Y0033955D01*
X0128531Y0033944D01*
X0128576Y0033930D01*
X0128620Y0033911D01*
X0128661Y0033889D01*
X0128701Y0033864D01*
X0128739Y0033835D01*
X0128774Y0033804D01*
X0128807Y0033769D01*
X0128836Y0033732D01*
X0128862Y0033693D01*
X0128885Y0033651D01*
X0128904Y0033608D01*
X0128920Y0033563D01*
X0128932Y0033517D01*
X0128940Y0033471D01*
X0128944Y0033424D01*
X0128944Y0033376D01*
X0128940Y0033329D01*
X0128932Y0033283D01*
X0128920Y0033237D01*
X0128904Y0033192D01*
X0128885Y0033149D01*
X0128862Y0033107D01*
X0128836Y0033068D01*
X0128807Y0033031D01*
X0128774Y0032996D01*
X0128739Y0032965D01*
X0128701Y0032936D01*
X0128662Y0032911D01*
X0128620Y0032889D01*
X0128576Y0032870D01*
X0128531Y0032856D01*
X0128485Y0032845D01*
X0128438Y0032838D01*
X0128391Y0032835D01*
X0128344Y0032836D01*
X0128296Y0032841D01*
X0128250Y0032850D01*
X0128204Y0032863D01*
X0128160Y0032879D01*
X0128117Y0032899D01*
X0128076Y0032923D01*
X0128037Y0032950D01*
X0128001Y0032980D01*
X0127967Y0033013D01*
X0127936Y0033049D01*
X0127908Y0033087D01*
X0127884Y0033128D01*
X0127863Y0033170D01*
X0127845Y0033214D01*
X0127832Y0033259D01*
X0127822Y0033306D01*
X0127816Y0033353D01*
X0127814Y0033400D01*
X0153314Y0033900D02*
X0153316Y0033947D01*
X0153322Y0033994D01*
X0153332Y0034041D01*
X0153345Y0034086D01*
X0153363Y0034130D01*
X0153384Y0034172D01*
X0153408Y0034213D01*
X0153436Y0034251D01*
X0153467Y0034287D01*
X0153501Y0034320D01*
X0153537Y0034350D01*
X0153576Y0034377D01*
X0153617Y0034401D01*
X0153660Y0034421D01*
X0153704Y0034437D01*
X0153750Y0034450D01*
X0153796Y0034459D01*
X0153844Y0034464D01*
X0153891Y0034465D01*
X0153938Y0034462D01*
X0153985Y0034455D01*
X0154031Y0034444D01*
X0154076Y0034430D01*
X0154120Y0034411D01*
X0154161Y0034389D01*
X0154201Y0034364D01*
X0154239Y0034335D01*
X0154274Y0034304D01*
X0154307Y0034269D01*
X0154336Y0034232D01*
X0154362Y0034193D01*
X0154385Y0034151D01*
X0154404Y0034108D01*
X0154420Y0034063D01*
X0154432Y0034017D01*
X0154440Y0033971D01*
X0154444Y0033924D01*
X0154444Y0033876D01*
X0154440Y0033829D01*
X0154432Y0033783D01*
X0154420Y0033737D01*
X0154404Y0033692D01*
X0154385Y0033649D01*
X0154362Y0033607D01*
X0154336Y0033568D01*
X0154307Y0033531D01*
X0154274Y0033496D01*
X0154239Y0033465D01*
X0154201Y0033436D01*
X0154162Y0033411D01*
X0154120Y0033389D01*
X0154076Y0033370D01*
X0154031Y0033356D01*
X0153985Y0033345D01*
X0153938Y0033338D01*
X0153891Y0033335D01*
X0153844Y0033336D01*
X0153796Y0033341D01*
X0153750Y0033350D01*
X0153704Y0033363D01*
X0153660Y0033379D01*
X0153617Y0033399D01*
X0153576Y0033423D01*
X0153537Y0033450D01*
X0153501Y0033480D01*
X0153467Y0033513D01*
X0153436Y0033549D01*
X0153408Y0033587D01*
X0153384Y0033628D01*
X0153363Y0033670D01*
X0153345Y0033714D01*
X0153332Y0033759D01*
X0153322Y0033806D01*
X0153316Y0033853D01*
X0153314Y0033900D01*
X0096554Y0043737D02*
X0096556Y0043796D01*
X0096562Y0043854D01*
X0096572Y0043912D01*
X0096585Y0043969D01*
X0096603Y0044026D01*
X0096624Y0044081D01*
X0096649Y0044134D01*
X0096677Y0044185D01*
X0096708Y0044235D01*
X0096743Y0044282D01*
X0096781Y0044327D01*
X0096822Y0044370D01*
X0096866Y0044409D01*
X0096912Y0044445D01*
X0096960Y0044479D01*
X0097011Y0044509D01*
X0097064Y0044535D01*
X0097118Y0044558D01*
X0097173Y0044577D01*
X0097230Y0044593D01*
X0097288Y0044605D01*
X0097346Y0044613D01*
X0097405Y0044617D01*
X0097463Y0044617D01*
X0097522Y0044613D01*
X0097580Y0044605D01*
X0097638Y0044593D01*
X0097695Y0044577D01*
X0097750Y0044558D01*
X0097804Y0044535D01*
X0097857Y0044509D01*
X0097908Y0044479D01*
X0097956Y0044445D01*
X0098002Y0044409D01*
X0098046Y0044370D01*
X0098087Y0044327D01*
X0098125Y0044282D01*
X0098160Y0044235D01*
X0098191Y0044185D01*
X0098219Y0044134D01*
X0098244Y0044081D01*
X0098265Y0044026D01*
X0098283Y0043969D01*
X0098296Y0043912D01*
X0098306Y0043854D01*
X0098312Y0043796D01*
X0098314Y0043737D01*
X0098312Y0043678D01*
X0098306Y0043620D01*
X0098296Y0043562D01*
X0098283Y0043505D01*
X0098265Y0043448D01*
X0098244Y0043393D01*
X0098219Y0043340D01*
X0098191Y0043289D01*
X0098160Y0043239D01*
X0098125Y0043192D01*
X0098087Y0043147D01*
X0098046Y0043104D01*
X0098002Y0043065D01*
X0097956Y0043029D01*
X0097908Y0042995D01*
X0097857Y0042965D01*
X0097804Y0042939D01*
X0097750Y0042916D01*
X0097695Y0042897D01*
X0097638Y0042881D01*
X0097580Y0042869D01*
X0097522Y0042861D01*
X0097463Y0042857D01*
X0097405Y0042857D01*
X0097346Y0042861D01*
X0097288Y0042869D01*
X0097230Y0042881D01*
X0097173Y0042897D01*
X0097118Y0042916D01*
X0097064Y0042939D01*
X0097011Y0042965D01*
X0096960Y0042995D01*
X0096912Y0043029D01*
X0096866Y0043065D01*
X0096822Y0043104D01*
X0096781Y0043147D01*
X0096743Y0043192D01*
X0096708Y0043239D01*
X0096677Y0043289D01*
X0096649Y0043340D01*
X0096624Y0043393D01*
X0096603Y0043448D01*
X0096585Y0043505D01*
X0096572Y0043562D01*
X0096562Y0043620D01*
X0096556Y0043678D01*
X0096554Y0043737D01*
D13*
X0100980Y0044398D02*
X0100980Y0030202D01*
X0119978Y0030202D02*
X0119978Y0044398D01*
X0125980Y0044398D02*
X0125980Y0030202D01*
X0144978Y0030202D02*
X0144978Y0044398D01*
X0151480Y0044898D02*
X0151480Y0030702D01*
X0170478Y0030702D02*
X0170478Y0044898D01*
D14*
X0170033Y0053300D02*
X0169098Y0053300D01*
X0169566Y0053300D02*
X0169566Y0054701D01*
X0169098Y0054234D01*
X0168559Y0054468D02*
X0168326Y0054701D01*
X0167859Y0054701D01*
X0167625Y0054468D01*
X0167625Y0054234D01*
X0167859Y0054001D01*
X0168326Y0054001D01*
X0168559Y0053767D01*
X0168559Y0053534D01*
X0168326Y0053300D01*
X0167859Y0053300D01*
X0167625Y0053534D01*
X0167086Y0053300D02*
X0166152Y0053300D01*
X0166152Y0054701D01*
X0167086Y0054701D01*
X0166619Y0054001D02*
X0166152Y0054001D01*
X0165613Y0054001D02*
X0164679Y0054001D01*
X0164679Y0054234D02*
X0165146Y0054701D01*
X0165613Y0054234D01*
X0165613Y0053300D01*
X0164679Y0053300D02*
X0164679Y0054234D01*
X0145133Y0052800D02*
X0144198Y0052800D01*
X0144666Y0052800D02*
X0144666Y0054201D01*
X0144198Y0053734D01*
X0143659Y0053968D02*
X0143426Y0054201D01*
X0142959Y0054201D01*
X0142725Y0053968D01*
X0142725Y0053034D01*
X0142959Y0052800D01*
X0143426Y0052800D01*
X0143659Y0053034D01*
X0142186Y0053034D02*
X0141953Y0052800D01*
X0141486Y0052800D01*
X0141252Y0053034D01*
X0141252Y0053968D01*
X0141486Y0054201D01*
X0141953Y0054201D01*
X0142186Y0053968D01*
X0140713Y0054201D02*
X0139779Y0054201D01*
X0139779Y0052800D01*
X0140713Y0052800D01*
X0140246Y0053501D02*
X0139779Y0053501D01*
X0119533Y0052800D02*
X0118598Y0052800D01*
X0119066Y0052800D02*
X0119066Y0054201D01*
X0118598Y0053734D01*
X0118059Y0053734D02*
X0118059Y0052800D01*
X0118059Y0053501D02*
X0117125Y0053501D01*
X0117125Y0053734D02*
X0117592Y0054201D01*
X0118059Y0053734D01*
X0117125Y0053734D02*
X0117125Y0052800D01*
X0116586Y0052800D02*
X0116586Y0054201D01*
X0116586Y0053501D02*
X0115652Y0053501D01*
X0115113Y0053267D02*
X0114879Y0053501D01*
X0114412Y0053501D01*
X0114179Y0053734D01*
X0114179Y0053968D01*
X0114412Y0054201D01*
X0114879Y0054201D01*
X0115113Y0053968D01*
X0115652Y0054201D02*
X0115652Y0052800D01*
X0115113Y0053034D02*
X0114879Y0052800D01*
X0114412Y0052800D01*
X0114179Y0053034D01*
X0115113Y0053034D02*
X0115113Y0053267D01*
X0098359Y0048918D02*
X0098126Y0049151D01*
X0097659Y0049151D01*
X0097425Y0048918D01*
X0096886Y0048918D02*
X0096653Y0049151D01*
X0096186Y0049151D01*
X0095952Y0048918D01*
X0095413Y0048918D02*
X0095179Y0049151D01*
X0094712Y0049151D01*
X0094479Y0048918D01*
X0094479Y0047984D01*
X0094712Y0047750D01*
X0095179Y0047750D01*
X0095413Y0047984D01*
X0095952Y0047750D02*
X0096886Y0048684D01*
X0096886Y0048918D01*
X0096886Y0047750D02*
X0095952Y0047750D01*
X0097425Y0047750D02*
X0098359Y0048684D01*
X0098359Y0048918D01*
X0098359Y0047750D02*
X0097425Y0047750D01*
X0093156Y0059900D02*
X0092689Y0059900D01*
X0092455Y0060134D01*
X0093390Y0061068D01*
X0093390Y0060134D01*
X0093156Y0059900D01*
X0092455Y0060134D02*
X0092455Y0061068D01*
X0092689Y0061301D01*
X0093156Y0061301D01*
X0093390Y0061068D01*
X0091916Y0059900D02*
X0090982Y0059900D01*
X0091449Y0059900D02*
X0091449Y0061301D01*
X0090982Y0060834D01*
X0090443Y0060601D02*
X0090210Y0060367D01*
X0089509Y0060367D01*
X0089509Y0059900D02*
X0089509Y0061301D01*
X0090210Y0061301D01*
X0090443Y0061068D01*
X0090443Y0060601D01*
X0089976Y0060367D02*
X0090443Y0059900D01*
X0111029Y0066850D02*
X0111029Y0068251D01*
X0111729Y0068251D01*
X0111963Y0068018D01*
X0111963Y0067551D01*
X0111729Y0067317D01*
X0111029Y0067317D01*
X0111496Y0067317D02*
X0111963Y0066850D01*
X0112502Y0066850D02*
X0113436Y0067784D01*
X0113436Y0068018D01*
X0113203Y0068251D01*
X0112736Y0068251D01*
X0112502Y0068018D01*
X0112502Y0066850D02*
X0113436Y0066850D01*
X0118229Y0066850D02*
X0118229Y0068251D01*
X0118929Y0068251D01*
X0119163Y0068018D01*
X0119163Y0067551D01*
X0118929Y0067317D01*
X0118229Y0067317D01*
X0118696Y0067317D02*
X0119163Y0066850D01*
X0119702Y0066850D02*
X0120636Y0066850D01*
X0120169Y0066850D02*
X0120169Y0068251D01*
X0119702Y0067784D01*
X0196229Y0055701D02*
X0196229Y0054300D01*
X0196229Y0054767D02*
X0196929Y0054767D01*
X0197163Y0055001D01*
X0197163Y0055468D01*
X0196929Y0055701D01*
X0196229Y0055701D01*
X0196696Y0054767D02*
X0197163Y0054300D01*
X0197702Y0054300D02*
X0198636Y0055234D01*
X0198636Y0055468D01*
X0198403Y0055701D01*
X0197936Y0055701D01*
X0197702Y0055468D01*
X0199175Y0055468D02*
X0199175Y0054534D01*
X0200109Y0055468D01*
X0200109Y0054534D01*
X0199876Y0054300D01*
X0199409Y0054300D01*
X0199175Y0054534D01*
X0198636Y0054300D02*
X0197702Y0054300D01*
X0199175Y0055468D02*
X0199409Y0055701D01*
X0199876Y0055701D01*
X0200109Y0055468D01*
X0202379Y0055400D02*
X0202379Y0056801D01*
X0203079Y0056801D01*
X0203313Y0056568D01*
X0203313Y0056101D01*
X0203079Y0055867D01*
X0202379Y0055867D01*
X0202846Y0055867D02*
X0203313Y0055400D01*
X0203852Y0055400D02*
X0204786Y0055400D01*
X0204319Y0055400D02*
X0204319Y0056801D01*
X0203852Y0056334D01*
X0205325Y0056101D02*
X0206259Y0056101D01*
X0206026Y0056801D02*
X0206026Y0055400D01*
X0205325Y0056101D02*
X0206026Y0056801D01*
X0229659Y0044401D02*
X0230360Y0044401D01*
X0230593Y0044168D01*
X0230593Y0043701D01*
X0230360Y0043467D01*
X0229659Y0043467D01*
X0229659Y0043000D02*
X0229659Y0044401D01*
X0230126Y0043467D02*
X0230593Y0043000D01*
X0231132Y0043000D02*
X0232066Y0043000D01*
X0231599Y0043000D02*
X0231599Y0044401D01*
X0231132Y0043934D01*
X0232605Y0044168D02*
X0232839Y0044401D01*
X0233306Y0044401D01*
X0233540Y0044168D01*
X0233540Y0043934D01*
X0233306Y0043701D01*
X0233540Y0043467D01*
X0233540Y0043234D01*
X0233306Y0043000D01*
X0232839Y0043000D01*
X0232605Y0043234D01*
X0233073Y0043701D02*
X0233306Y0043701D01*
X0211009Y0037950D02*
X0210075Y0037950D01*
X0210542Y0037950D02*
X0210542Y0039351D01*
X0210075Y0038884D01*
X0209536Y0037950D02*
X0208602Y0037950D01*
X0209069Y0037950D02*
X0209069Y0039351D01*
X0208602Y0038884D01*
X0208063Y0038651D02*
X0207829Y0038417D01*
X0207129Y0038417D01*
X0207596Y0038417D02*
X0208063Y0037950D01*
X0208063Y0038651D02*
X0208063Y0039118D01*
X0207829Y0039351D01*
X0207129Y0039351D01*
X0207129Y0037950D01*
X0198586Y0037800D02*
X0197652Y0037800D01*
X0198586Y0038734D01*
X0198586Y0038968D01*
X0198353Y0039201D01*
X0197886Y0039201D01*
X0197652Y0038968D01*
X0197113Y0038968D02*
X0196879Y0039201D01*
X0196179Y0039201D01*
X0196179Y0037800D01*
X0196879Y0037800D01*
X0197113Y0038034D01*
X0197113Y0038968D01*
X0196879Y0037251D02*
X0196179Y0037251D01*
X0196179Y0035850D01*
X0196879Y0035850D01*
X0197113Y0036084D01*
X0197113Y0037018D01*
X0196879Y0037251D01*
X0197652Y0037018D02*
X0197886Y0037251D01*
X0198353Y0037251D01*
X0198586Y0037018D01*
X0198586Y0036784D01*
X0198353Y0036551D01*
X0198586Y0036317D01*
X0198586Y0036084D01*
X0198353Y0035850D01*
X0197886Y0035850D01*
X0197652Y0036084D01*
X0198119Y0036551D02*
X0198353Y0036551D01*
X0199579Y0026301D02*
X0200279Y0026301D01*
X0200513Y0026068D01*
X0200513Y0025601D01*
X0200279Y0025367D01*
X0199579Y0025367D01*
X0200046Y0025367D02*
X0200513Y0024900D01*
X0201052Y0024900D02*
X0201986Y0025834D01*
X0201986Y0026068D01*
X0201753Y0026301D01*
X0201286Y0026301D01*
X0201052Y0026068D01*
X0201052Y0024900D02*
X0201986Y0024900D01*
X0202525Y0024900D02*
X0203459Y0024900D01*
X0202992Y0024900D02*
X0202992Y0026301D01*
X0202525Y0025834D01*
X0199579Y0026301D02*
X0199579Y0024900D01*
X0229459Y0026400D02*
X0229459Y0027801D01*
X0230160Y0027801D01*
X0230393Y0027568D01*
X0230393Y0027101D01*
X0230160Y0026867D01*
X0229459Y0026867D01*
X0229926Y0026867D02*
X0230393Y0026400D01*
X0230932Y0026400D02*
X0231866Y0026400D01*
X0231399Y0026400D02*
X0231399Y0027801D01*
X0230932Y0027334D01*
X0232405Y0027568D02*
X0232639Y0027801D01*
X0233106Y0027801D01*
X0233340Y0027568D01*
X0233340Y0027334D01*
X0232405Y0026400D01*
X0233340Y0026400D01*
X0164540Y0005951D02*
X0163605Y0005951D01*
X0163605Y0005251D01*
X0164073Y0005484D01*
X0164306Y0005484D01*
X0164540Y0005251D01*
X0164540Y0004784D01*
X0164306Y0004550D01*
X0163839Y0004550D01*
X0163605Y0004784D01*
X0163066Y0004784D02*
X0163066Y0005718D01*
X0162833Y0005951D01*
X0162132Y0005951D01*
X0162132Y0004550D01*
X0162833Y0004550D01*
X0163066Y0004784D01*
X0153458Y0011100D02*
X0153458Y0011901D01*
X0153257Y0012101D01*
X0152857Y0012101D01*
X0152657Y0011901D01*
X0152657Y0011701D01*
X0152857Y0011501D01*
X0153458Y0011501D01*
X0153458Y0011100D02*
X0153257Y0010900D01*
X0152857Y0010900D01*
X0152657Y0011100D01*
X0152169Y0010900D02*
X0151368Y0010900D01*
X0151768Y0010900D02*
X0151768Y0012101D01*
X0151368Y0011701D01*
X0150879Y0011901D02*
X0150879Y0011501D01*
X0150679Y0011300D01*
X0150079Y0011300D01*
X0150079Y0010900D02*
X0150079Y0012101D01*
X0150679Y0012101D01*
X0150879Y0011901D01*
X0150479Y0011300D02*
X0150879Y0010900D01*
X0138306Y0005751D02*
X0137605Y0005051D01*
X0138540Y0005051D01*
X0138306Y0005751D02*
X0138306Y0004350D01*
X0137066Y0004584D02*
X0137066Y0005518D01*
X0136833Y0005751D01*
X0136132Y0005751D01*
X0136132Y0004350D01*
X0136833Y0004350D01*
X0137066Y0004584D01*
X0125509Y0005284D02*
X0125276Y0005050D01*
X0124809Y0005050D01*
X0124575Y0005284D01*
X0124575Y0005517D01*
X0124809Y0005751D01*
X0125276Y0005751D01*
X0125509Y0005517D01*
X0125509Y0005284D01*
X0125276Y0005751D02*
X0125509Y0005984D01*
X0125509Y0006218D01*
X0125276Y0006451D01*
X0124809Y0006451D01*
X0124575Y0006218D01*
X0124575Y0005984D01*
X0124809Y0005751D01*
X0124036Y0005050D02*
X0123102Y0005050D01*
X0123569Y0005050D02*
X0123569Y0006451D01*
X0123102Y0005984D01*
X0122563Y0006218D02*
X0122563Y0005751D01*
X0122329Y0005517D01*
X0121629Y0005517D01*
X0122096Y0005517D02*
X0122563Y0005050D01*
X0121629Y0005050D02*
X0121629Y0006451D01*
X0122329Y0006451D01*
X0122563Y0006218D01*
X0113290Y0006301D02*
X0112823Y0006068D01*
X0112355Y0005601D01*
X0113056Y0005601D01*
X0113290Y0005367D01*
X0113290Y0005134D01*
X0113056Y0004900D01*
X0112589Y0004900D01*
X0112355Y0005134D01*
X0112355Y0005601D01*
X0111816Y0005134D02*
X0111816Y0006068D01*
X0111583Y0006301D01*
X0110882Y0006301D01*
X0110882Y0004900D01*
X0111583Y0004900D01*
X0111816Y0005134D01*
X0105259Y0005784D02*
X0105259Y0006017D01*
X0105026Y0006251D01*
X0104325Y0006251D01*
X0104325Y0005784D01*
X0104559Y0005550D01*
X0105026Y0005550D01*
X0105259Y0005784D01*
X0104792Y0006718D02*
X0104325Y0006251D01*
X0104792Y0006718D02*
X0105259Y0006951D01*
X0103319Y0006951D02*
X0103319Y0005550D01*
X0102852Y0005550D02*
X0103786Y0005550D01*
X0102852Y0006484D02*
X0103319Y0006951D01*
X0102313Y0006718D02*
X0102313Y0006251D01*
X0102079Y0006017D01*
X0101379Y0006017D01*
X0101846Y0006017D02*
X0102313Y0005550D01*
X0101379Y0005550D02*
X0101379Y0006951D01*
X0102079Y0006951D01*
X0102313Y0006718D01*
X0085886Y0009334D02*
X0085653Y0009100D01*
X0085186Y0009100D01*
X0084952Y0009334D01*
X0084952Y0009567D01*
X0085186Y0009801D01*
X0085653Y0009801D01*
X0085886Y0009567D01*
X0085886Y0009334D01*
X0085653Y0009801D02*
X0085886Y0010034D01*
X0085886Y0010268D01*
X0085653Y0010501D01*
X0085186Y0010501D01*
X0084952Y0010268D01*
X0084952Y0010034D01*
X0085186Y0009801D01*
X0084413Y0009801D02*
X0084413Y0010268D01*
X0084179Y0010501D01*
X0083479Y0010501D01*
X0083479Y0009100D01*
X0083479Y0009567D02*
X0084179Y0009567D01*
X0084413Y0009801D01*
X0083946Y0009567D02*
X0084413Y0009100D01*
X0099979Y0017334D02*
X0100212Y0017100D01*
X0100679Y0017100D01*
X0100913Y0017334D01*
X0101452Y0017100D02*
X0102386Y0018034D01*
X0102386Y0018268D01*
X0102153Y0018501D01*
X0101686Y0018501D01*
X0101452Y0018268D01*
X0100913Y0018268D02*
X0100679Y0018501D01*
X0100212Y0018501D01*
X0099979Y0018268D01*
X0099979Y0017334D01*
X0101452Y0017100D02*
X0102386Y0017100D01*
X0102925Y0017334D02*
X0103859Y0018268D01*
X0103859Y0017334D01*
X0103626Y0017100D01*
X0103159Y0017100D01*
X0102925Y0017334D01*
X0102925Y0018268D01*
X0103159Y0018501D01*
X0103626Y0018501D01*
X0103859Y0018268D01*
X0110829Y0020750D02*
X0111029Y0020550D01*
X0111429Y0020550D01*
X0111629Y0020750D01*
X0112118Y0020750D02*
X0112118Y0020550D01*
X0112118Y0020750D02*
X0112919Y0021551D01*
X0112919Y0021751D01*
X0112118Y0021751D01*
X0111629Y0021551D02*
X0111429Y0021751D01*
X0111029Y0021751D01*
X0110829Y0021551D01*
X0110829Y0020750D01*
X0123329Y0021200D02*
X0123329Y0022601D01*
X0124029Y0022601D01*
X0124263Y0022368D01*
X0124263Y0021901D01*
X0124029Y0021667D01*
X0123329Y0021667D01*
X0123796Y0021667D02*
X0124263Y0021200D01*
X0124802Y0021434D02*
X0125036Y0021200D01*
X0125503Y0021200D01*
X0125736Y0021434D01*
X0125736Y0022368D01*
X0125503Y0022601D01*
X0125036Y0022601D01*
X0124802Y0022368D01*
X0124802Y0022134D01*
X0125036Y0021901D01*
X0125736Y0021901D01*
X0088036Y0021600D02*
X0087102Y0021600D01*
X0087569Y0021600D02*
X0087569Y0023001D01*
X0087102Y0022534D01*
X0086563Y0022768D02*
X0086329Y0023001D01*
X0085629Y0023001D01*
X0085629Y0021600D01*
X0086329Y0021600D01*
X0086563Y0021834D01*
X0086563Y0022768D01*
X0087351Y0032750D02*
X0088151Y0032750D01*
X0088640Y0032750D02*
X0089440Y0032750D01*
X0089040Y0032750D02*
X0089040Y0033951D01*
X0088640Y0033551D01*
X0087351Y0033951D02*
X0087351Y0032750D01*
D15*
X0089308Y0020601D02*
X0090229Y0019381D01*
X0088418Y0019381D01*
X0090229Y0019381D02*
X0092040Y0019381D01*
X0091089Y0020601D02*
X0090329Y0019441D01*
X0109559Y0010961D02*
X0109559Y0009150D01*
X0110780Y0010070D01*
X0109559Y0009150D02*
X0109559Y0007339D01*
X0110780Y0008290D02*
X0109620Y0009050D01*
X0134809Y0008600D02*
X0134809Y0006789D01*
X0136030Y0007740D02*
X0134870Y0008500D01*
X0134809Y0008600D02*
X0136030Y0009520D01*
X0134809Y0010411D02*
X0134809Y0008600D01*
X0160809Y0008800D02*
X0160809Y0006989D01*
X0162030Y0007940D02*
X0160870Y0008700D01*
X0160809Y0008800D02*
X0162030Y0009720D01*
X0160809Y0010611D02*
X0160809Y0008800D01*
X0199809Y0031689D02*
X0199809Y0033500D01*
X0201030Y0034420D01*
X0199809Y0035311D02*
X0199809Y0033500D01*
X0199870Y0033400D02*
X0201030Y0032640D01*
X0199809Y0039939D02*
X0199809Y0041750D01*
X0201030Y0042670D01*
X0199809Y0043561D02*
X0199809Y0041750D01*
X0199870Y0041650D02*
X0201030Y0040890D01*
D16*
X0207157Y0039910D02*
X0207157Y0042469D01*
X0210700Y0042469D02*
X0210700Y0039910D01*
X0207157Y0039910D01*
X0199250Y0044010D02*
X0195707Y0044010D01*
X0195707Y0046569D01*
X0199250Y0046569D02*
X0199250Y0044010D01*
X0201807Y0045660D02*
X0205350Y0045660D01*
X0205350Y0048219D01*
X0207157Y0047390D02*
X0207157Y0044831D01*
X0210700Y0044831D02*
X0210700Y0047390D01*
X0207157Y0047390D01*
X0201807Y0048219D02*
X0201807Y0045660D01*
X0199250Y0048931D02*
X0199250Y0051490D01*
X0195707Y0051490D01*
X0195707Y0048931D01*
X0201807Y0050581D02*
X0201807Y0053140D01*
X0205350Y0053140D01*
X0205350Y0050581D01*
X0229757Y0049981D02*
X0229757Y0052540D01*
X0233300Y0052540D01*
X0233300Y0049981D01*
X0233300Y0047619D02*
X0233300Y0045060D01*
X0229757Y0045060D01*
X0229757Y0047619D01*
X0229557Y0037940D02*
X0233100Y0037940D01*
X0233100Y0035381D01*
X0233100Y0033019D02*
X0233100Y0030460D01*
X0229557Y0030460D01*
X0229557Y0033019D01*
X0229557Y0035381D02*
X0229557Y0037940D01*
X0199150Y0031240D02*
X0199150Y0028681D01*
X0195607Y0028681D02*
X0195607Y0031240D01*
X0199150Y0031240D01*
X0199150Y0026319D02*
X0199150Y0023760D01*
X0195607Y0023760D01*
X0195607Y0026319D01*
X0156219Y0010572D02*
X0153660Y0010572D01*
X0151298Y0010572D02*
X0148739Y0010572D01*
X0148739Y0007028D01*
X0151298Y0007028D01*
X0153660Y0007028D02*
X0156219Y0007028D01*
X0156219Y0010572D01*
X0130269Y0010422D02*
X0130269Y0006878D01*
X0127710Y0006878D01*
X0125348Y0006878D02*
X0122789Y0006878D01*
X0122789Y0010422D01*
X0125348Y0010422D01*
X0125950Y0010710D02*
X0122407Y0010710D01*
X0122407Y0013269D01*
X0125950Y0013269D02*
X0125950Y0010710D01*
X0127710Y0010422D02*
X0130269Y0010422D01*
X0125950Y0015631D02*
X0125950Y0018190D01*
X0122407Y0018190D01*
X0122407Y0015631D01*
X0121669Y0014878D02*
X0121669Y0018422D01*
X0119110Y0018422D01*
X0116748Y0018422D02*
X0114189Y0018422D01*
X0114189Y0014878D01*
X0116748Y0014878D01*
X0119110Y0014878D02*
X0121669Y0014878D01*
X0105019Y0010922D02*
X0105019Y0007378D01*
X0102460Y0007378D01*
X0100098Y0007378D02*
X0097539Y0007378D01*
X0097539Y0010922D01*
X0100098Y0010922D01*
X0102460Y0010922D02*
X0105019Y0010922D01*
X0087150Y0011160D02*
X0087150Y0013719D01*
X0087150Y0011160D02*
X0083607Y0011160D01*
X0083607Y0013719D01*
X0083607Y0016081D02*
X0083607Y0018640D01*
X0087150Y0018640D01*
X0087150Y0016081D01*
X0086239Y0045478D02*
X0086239Y0049022D01*
X0088798Y0049022D01*
X0091160Y0049022D02*
X0093719Y0049022D01*
X0093719Y0045478D01*
X0091160Y0045478D01*
X0088798Y0045478D02*
X0086239Y0045478D01*
X0090489Y0053528D02*
X0090489Y0057072D01*
X0093048Y0057072D01*
X0095410Y0057072D02*
X0097969Y0057072D01*
X0097969Y0053528D01*
X0095410Y0053528D01*
X0093048Y0053528D02*
X0090489Y0053528D01*
X0111057Y0056810D02*
X0114600Y0056810D01*
X0114600Y0059369D01*
X0116357Y0059369D02*
X0116357Y0056810D01*
X0119900Y0056810D01*
X0119900Y0059369D01*
X0119900Y0061731D02*
X0119900Y0064290D01*
X0116357Y0064290D01*
X0116357Y0061731D01*
X0114600Y0061731D02*
X0114600Y0064290D01*
X0111057Y0064290D01*
X0111057Y0061731D01*
X0111057Y0059369D02*
X0111057Y0056810D01*
D17*
X0095152Y0051070D03*
X0090250Y0051070D03*
D18*
X0090336Y0044663D03*
X0090422Y0044663D03*
X0090508Y0044663D03*
X0090594Y0044663D03*
X0090680Y0044663D03*
X0090766Y0044663D03*
X0090852Y0044663D03*
X0090938Y0044663D03*
X0091024Y0044663D03*
X0091110Y0044663D03*
X0091196Y0044663D03*
X0091282Y0044663D03*
X0091368Y0044663D03*
X0091454Y0044663D03*
X0091540Y0044663D03*
X0091626Y0044663D03*
X0091712Y0044663D03*
X0091798Y0044663D03*
X0091884Y0044663D03*
X0091970Y0044663D03*
X0092056Y0044663D03*
X0092142Y0044663D03*
X0092228Y0044663D03*
X0092314Y0044663D03*
X0092400Y0044663D03*
X0092486Y0044663D03*
X0092572Y0044663D03*
X0092658Y0044663D03*
X0092744Y0044663D03*
X0092830Y0044663D03*
X0092916Y0044663D03*
X0093002Y0044663D03*
X0093088Y0044663D03*
X0093174Y0044663D03*
X0093260Y0044663D03*
X0093346Y0044663D03*
X0093432Y0044663D03*
X0093518Y0044663D03*
X0093604Y0044663D03*
X0093690Y0044663D03*
X0093776Y0044663D03*
X0093862Y0044663D03*
X0093948Y0044663D03*
X0094034Y0044663D03*
X0094120Y0044663D03*
X0094206Y0044663D03*
X0094292Y0044663D03*
X0094378Y0044663D03*
X0094464Y0044663D03*
X0094550Y0044663D03*
X0094636Y0044663D03*
X0094722Y0044663D03*
X0094808Y0044663D03*
X0094894Y0044663D03*
X0094980Y0044663D03*
X0095066Y0044663D03*
X0095066Y0057477D03*
X0094980Y0057477D03*
X0094894Y0057477D03*
X0094808Y0057477D03*
X0094722Y0057477D03*
X0094636Y0057477D03*
X0094550Y0057477D03*
X0094464Y0057477D03*
X0094378Y0057477D03*
X0094292Y0057477D03*
X0094206Y0057477D03*
X0094120Y0057477D03*
X0094034Y0057477D03*
X0093948Y0057477D03*
X0093862Y0057477D03*
X0093776Y0057477D03*
X0093690Y0057477D03*
X0093604Y0057477D03*
X0093518Y0057477D03*
X0093432Y0057477D03*
X0093346Y0057477D03*
X0093260Y0057477D03*
X0093174Y0057477D03*
X0093088Y0057477D03*
X0093002Y0057477D03*
X0092916Y0057477D03*
X0092830Y0057477D03*
X0092744Y0057477D03*
X0092658Y0057477D03*
X0092572Y0057477D03*
X0092486Y0057477D03*
X0092400Y0057477D03*
X0092314Y0057477D03*
X0092228Y0057477D03*
X0092142Y0057477D03*
X0092056Y0057477D03*
X0091970Y0057477D03*
X0091884Y0057477D03*
X0091798Y0057477D03*
X0091712Y0057477D03*
X0091626Y0057477D03*
X0091540Y0057477D03*
X0091454Y0057477D03*
X0091368Y0057477D03*
X0091282Y0057477D03*
X0091196Y0057477D03*
X0091110Y0057477D03*
X0091024Y0057477D03*
X0090938Y0057477D03*
X0090852Y0057477D03*
X0090766Y0057477D03*
X0090680Y0057477D03*
X0090594Y0057477D03*
X0090508Y0057477D03*
X0090422Y0057477D03*
X0090336Y0057477D03*
D19*
X0090336Y0055757D03*
X0090422Y0055757D03*
X0090508Y0055757D03*
X0090594Y0055757D03*
X0090680Y0055757D03*
X0090766Y0055757D03*
X0090852Y0055757D03*
X0090938Y0055757D03*
X0091024Y0055757D03*
X0091110Y0055757D03*
X0091196Y0055757D03*
X0091282Y0055757D03*
X0091368Y0055757D03*
X0091454Y0055757D03*
X0091540Y0055757D03*
X0091626Y0055757D03*
X0091712Y0055757D03*
X0091798Y0055757D03*
X0091884Y0055757D03*
X0091970Y0055757D03*
X0092056Y0055757D03*
X0092142Y0055757D03*
X0092228Y0055757D03*
X0092314Y0055757D03*
X0092400Y0055757D03*
X0092486Y0055757D03*
X0092572Y0055757D03*
X0092658Y0055757D03*
X0092744Y0055757D03*
X0092830Y0055757D03*
X0092916Y0055757D03*
X0093002Y0055757D03*
X0093088Y0055757D03*
X0093174Y0055757D03*
X0093260Y0055757D03*
X0093346Y0055757D03*
X0093432Y0055757D03*
X0093518Y0055757D03*
X0093604Y0055757D03*
X0093690Y0055757D03*
X0093776Y0055757D03*
X0093862Y0055757D03*
X0093948Y0055757D03*
X0094034Y0055757D03*
X0094120Y0055757D03*
X0094206Y0055757D03*
X0094292Y0055757D03*
X0094378Y0055757D03*
X0094464Y0055757D03*
X0094550Y0055757D03*
X0094636Y0055757D03*
X0094722Y0055757D03*
X0094808Y0055757D03*
X0094894Y0055757D03*
X0094980Y0055757D03*
X0095066Y0055757D03*
X0095066Y0046297D03*
X0094980Y0046297D03*
X0094894Y0046297D03*
X0094808Y0046297D03*
X0094722Y0046297D03*
X0094636Y0046297D03*
X0094550Y0046297D03*
X0094464Y0046297D03*
X0094378Y0046297D03*
X0094292Y0046297D03*
X0094206Y0046297D03*
X0094120Y0046297D03*
X0094034Y0046297D03*
X0093948Y0046297D03*
X0093862Y0046297D03*
X0093776Y0046297D03*
X0093690Y0046297D03*
X0093604Y0046297D03*
X0093518Y0046297D03*
X0093432Y0046297D03*
X0093346Y0046297D03*
X0093260Y0046297D03*
X0093174Y0046297D03*
X0093088Y0046297D03*
X0093002Y0046297D03*
X0092916Y0046297D03*
X0092830Y0046297D03*
X0092744Y0046297D03*
X0092658Y0046297D03*
X0092572Y0046297D03*
X0092486Y0046297D03*
X0092400Y0046297D03*
X0092314Y0046297D03*
X0092228Y0046297D03*
X0092142Y0046297D03*
X0092056Y0046297D03*
X0091970Y0046297D03*
X0091884Y0046297D03*
X0091798Y0046297D03*
X0091712Y0046297D03*
X0091626Y0046297D03*
X0091540Y0046297D03*
X0091454Y0046297D03*
X0091368Y0046297D03*
X0091282Y0046297D03*
X0091196Y0046297D03*
X0091110Y0046297D03*
X0091024Y0046297D03*
X0090938Y0046297D03*
X0090852Y0046297D03*
X0090766Y0046297D03*
X0090680Y0046297D03*
X0090594Y0046297D03*
X0090508Y0046297D03*
X0090422Y0046297D03*
X0090336Y0046297D03*
D20*
X0090336Y0051027D03*
X0090422Y0051027D03*
X0090508Y0051027D03*
X0090594Y0051027D03*
X0090680Y0051027D03*
X0090766Y0051027D03*
X0090852Y0051027D03*
X0090938Y0051027D03*
X0091024Y0051027D03*
X0091110Y0051027D03*
X0091196Y0051027D03*
X0091282Y0051027D03*
X0091368Y0051027D03*
X0091454Y0051027D03*
X0091540Y0051027D03*
X0091626Y0051027D03*
X0091712Y0051027D03*
X0091798Y0051027D03*
X0091884Y0051027D03*
X0091970Y0051027D03*
X0092056Y0051027D03*
X0092142Y0051027D03*
X0092228Y0051027D03*
X0092314Y0051027D03*
X0092400Y0051027D03*
X0092486Y0051027D03*
X0092572Y0051027D03*
X0092658Y0051027D03*
X0092744Y0051027D03*
X0092830Y0051027D03*
X0092916Y0051027D03*
X0093002Y0051027D03*
X0093088Y0051027D03*
X0093174Y0051027D03*
X0093260Y0051027D03*
X0093346Y0051027D03*
X0093432Y0051027D03*
X0093518Y0051027D03*
X0093604Y0051027D03*
X0093690Y0051027D03*
X0093776Y0051027D03*
X0093862Y0051027D03*
X0093948Y0051027D03*
X0094034Y0051027D03*
X0094120Y0051027D03*
X0094206Y0051027D03*
X0094292Y0051027D03*
X0094378Y0051027D03*
X0094464Y0051027D03*
X0094550Y0051027D03*
X0094636Y0051027D03*
X0094722Y0051027D03*
X0094808Y0051027D03*
X0094894Y0051027D03*
X0094980Y0051027D03*
X0095066Y0051027D03*
M02*
