G75*
%MOIN*%
%OFA0B0*%
%FSLAX25Y25*%
%IPPOS*%
%LPD*%
%AMOC8*
5,1,8,0,0,1.08239X$1,22.5*
%
%ADD10R,0.02400X0.08700*%
%ADD11R,0.03150X0.03150*%
%ADD12R,0.02362X0.01969*%
%ADD13R,0.00984X0.01969*%
%ADD14R,0.05118X0.02756*%
%ADD15R,0.02756X0.03543*%
%ADD16R,0.01969X0.02362*%
%ADD17R,0.03937X0.04331*%
D10*
X0102979Y0027000D03*
X0107979Y0027000D03*
X0112979Y0027000D03*
X0117979Y0027000D03*
X0127979Y0027000D03*
X0132979Y0027000D03*
X0137979Y0027000D03*
X0142979Y0027000D03*
X0153479Y0027500D03*
X0158479Y0027500D03*
X0163479Y0027500D03*
X0168479Y0027500D03*
X0168479Y0048100D03*
X0163479Y0048100D03*
X0158479Y0048100D03*
X0153479Y0048100D03*
X0142979Y0047600D03*
X0137979Y0047600D03*
X0132979Y0047600D03*
X0127979Y0047600D03*
X0117979Y0047600D03*
X0112979Y0047600D03*
X0107979Y0047600D03*
X0102979Y0047600D03*
D11*
X0090229Y0023003D03*
X0090229Y0017097D03*
X0107276Y0009150D03*
X0113181Y0009150D03*
X0132526Y0008600D03*
X0138431Y0008600D03*
X0158526Y0008800D03*
X0164431Y0008800D03*
X0197526Y0033500D03*
X0203431Y0033500D03*
X0203431Y0041750D03*
X0197526Y0041750D03*
D12*
X0085379Y0012735D03*
X0085379Y0017065D03*
X0124179Y0016615D03*
X0124179Y0012285D03*
X0197379Y0025335D03*
X0197379Y0029665D03*
X0208929Y0041485D03*
X0208929Y0045815D03*
X0203579Y0047235D03*
X0197479Y0045585D03*
X0197479Y0049915D03*
X0203579Y0051565D03*
X0231529Y0050965D03*
X0231529Y0046635D03*
X0231329Y0036365D03*
X0231329Y0032035D03*
X0118129Y0058385D03*
X0112829Y0058385D03*
X0112829Y0062715D03*
X0118129Y0062715D03*
D13*
X0094181Y0043540D03*
X0092213Y0043540D03*
X0090244Y0043540D03*
X0088276Y0043540D03*
X0088276Y0036060D03*
X0090244Y0036060D03*
X0092213Y0036060D03*
X0094181Y0036060D03*
D14*
X0091229Y0039800D03*
D15*
X0090170Y0029800D03*
X0095288Y0029800D03*
D16*
X0115763Y0016650D03*
X0120094Y0016650D03*
X0103444Y0009150D03*
X0099113Y0009150D03*
X0124363Y0008650D03*
X0128694Y0008650D03*
X0150313Y0008800D03*
X0154644Y0008800D03*
X0092144Y0047250D03*
X0087813Y0047250D03*
X0092063Y0055300D03*
X0096394Y0055300D03*
D17*
X0096679Y0022896D03*
X0096679Y0016204D03*
M02*
