G75*
%MOIN*%
%OFA0B0*%
%FSLAX25Y25*%
%IPPOS*%
%LPD*%
%AMOC8*
5,1,8,0,0,1.08239X$1,22.5*
%
%ADD10R,0.01000X0.04500*%
%ADD11R,0.04500X0.01000*%
%ADD12C,0.07400*%
%ADD13C,0.12661*%
%ADD14R,0.00984X0.03150*%
%ADD15C,0.03937*%
%ADD16R,0.01969X0.02362*%
%ADD17R,0.02362X0.01969*%
%ADD18C,0.01772*%
%ADD19C,0.01000*%
%ADD20R,0.04724X0.02362*%
%ADD21C,0.00800*%
%ADD22C,0.01800*%
%ADD23C,0.02000*%
%ADD24C,0.01600*%
%ADD25C,0.01200*%
%ADD26C,0.01400*%
%ADD27C,0.02200*%
D10*
X0112652Y0020568D03*
X0114620Y0020568D03*
X0116589Y0020568D03*
X0118557Y0020568D03*
X0120526Y0020568D03*
X0122494Y0020568D03*
X0124463Y0020568D03*
X0126431Y0020568D03*
X0128400Y0020568D03*
X0130369Y0020568D03*
X0132337Y0020568D03*
X0134306Y0020568D03*
X0134306Y0054032D03*
X0132337Y0054032D03*
X0130369Y0054032D03*
X0128400Y0054032D03*
X0126431Y0054032D03*
X0124463Y0054032D03*
X0122494Y0054032D03*
X0120526Y0054032D03*
X0118557Y0054032D03*
X0116589Y0054032D03*
X0114620Y0054032D03*
X0112652Y0054032D03*
D11*
X0106746Y0048127D03*
X0106746Y0046158D03*
X0106746Y0044190D03*
X0106746Y0042221D03*
X0106746Y0040253D03*
X0106746Y0038284D03*
X0106746Y0036316D03*
X0106746Y0034347D03*
X0106746Y0032379D03*
X0106746Y0030410D03*
X0106746Y0028442D03*
X0106746Y0026473D03*
X0140211Y0026473D03*
X0140211Y0028442D03*
X0140211Y0030410D03*
X0140211Y0032379D03*
X0140211Y0034347D03*
X0140211Y0036316D03*
X0140211Y0038284D03*
X0140211Y0040253D03*
X0140211Y0042221D03*
X0140211Y0044190D03*
X0140211Y0046158D03*
X0140211Y0048127D03*
D12*
X0080928Y0043637D03*
X0080928Y0034763D03*
X0080928Y0025420D03*
X0080928Y0052980D03*
D13*
X0071479Y0062035D03*
X0071479Y0016365D03*
D14*
X0163279Y0025800D03*
X0165879Y0025800D03*
X0168479Y0025800D03*
X0171079Y0025800D03*
X0173679Y0025800D03*
X0176279Y0025800D03*
X0178879Y0025800D03*
X0181479Y0025776D03*
X0184079Y0025800D03*
X0186679Y0025800D03*
X0189279Y0025800D03*
X0191879Y0025800D03*
X0194479Y0025800D03*
X0197079Y0025800D03*
X0197079Y0048800D03*
X0194479Y0048800D03*
X0191879Y0048800D03*
X0189279Y0048800D03*
X0186679Y0048800D03*
X0184079Y0048800D03*
X0181479Y0048824D03*
X0178879Y0048800D03*
X0176279Y0048800D03*
X0173679Y0048800D03*
X0171079Y0048800D03*
X0168479Y0048800D03*
X0165879Y0048800D03*
X0163279Y0048800D03*
D15*
X0228229Y0064800D03*
X0091979Y0064800D03*
X0091729Y0010300D03*
D16*
X0114213Y0011900D03*
X0118544Y0011900D03*
X0118544Y0015700D03*
X0114213Y0015700D03*
X0134563Y0011950D03*
X0138894Y0011950D03*
X0158913Y0020700D03*
X0163244Y0020700D03*
X0169413Y0020250D03*
X0173744Y0020250D03*
X0192363Y0021050D03*
X0196694Y0021050D03*
X0143594Y0021600D03*
X0139263Y0021600D03*
X0096794Y0037550D03*
X0092463Y0037550D03*
X0092463Y0041050D03*
X0096794Y0041050D03*
X0119663Y0058750D03*
X0123994Y0058750D03*
X0126963Y0058750D03*
X0131294Y0058750D03*
X0131344Y0062750D03*
X0127013Y0062750D03*
X0123994Y0062750D03*
X0119663Y0062750D03*
X0164263Y0059050D03*
X0168594Y0059050D03*
X0173813Y0057950D03*
X0178144Y0057950D03*
X0178144Y0053800D03*
X0173813Y0053800D03*
X0168594Y0054600D03*
X0164263Y0054600D03*
D17*
X0148629Y0052265D03*
X0148629Y0047935D03*
X0139679Y0051085D03*
X0139679Y0055415D03*
X0106279Y0055265D03*
X0106279Y0050935D03*
X0102079Y0051065D03*
X0102079Y0046735D03*
X0094679Y0033815D03*
X0094679Y0029485D03*
X0178629Y0021765D03*
X0184129Y0021715D03*
X0184129Y0017385D03*
X0178629Y0017435D03*
X0189279Y0052885D03*
X0189279Y0057215D03*
D18*
X0095593Y0055774D02*
X0089865Y0055774D01*
X0089865Y0051050D02*
X0095593Y0051050D01*
X0095593Y0046326D02*
X0089865Y0046326D01*
D19*
X0088729Y0046326D02*
X0092729Y0046326D01*
X0096729Y0046326D01*
X0103117Y0046158D02*
X0106746Y0046158D01*
X0109720Y0046158D01*
X0111279Y0044600D01*
X0111279Y0039000D01*
X0115279Y0039600D02*
X0115279Y0043600D01*
X0115279Y0046200D01*
X0113352Y0048127D01*
X0106746Y0048127D01*
X0106279Y0048127D01*
X0096729Y0051050D02*
X0092729Y0051050D01*
X0088729Y0051050D01*
X0088729Y0055774D02*
X0092729Y0055774D01*
X0096729Y0055774D01*
X0116589Y0054032D02*
X0116589Y0050190D01*
X0120979Y0045800D01*
X0124463Y0047566D02*
X0124463Y0054032D01*
X0124463Y0058505D01*
X0126431Y0057918D02*
X0126431Y0054032D01*
X0126431Y0050847D01*
X0126432Y0050847D02*
X0126434Y0050784D01*
X0126440Y0050721D01*
X0126449Y0050658D01*
X0126462Y0050596D01*
X0126479Y0050536D01*
X0126500Y0050476D01*
X0126524Y0050417D01*
X0126552Y0050360D01*
X0126583Y0050305D01*
X0126617Y0050252D01*
X0126655Y0050201D01*
X0126695Y0050153D01*
X0126739Y0050107D01*
X0126785Y0050063D01*
X0126833Y0050023D01*
X0126884Y0049985D01*
X0126937Y0049951D01*
X0126992Y0049920D01*
X0127049Y0049892D01*
X0127108Y0049868D01*
X0127168Y0049847D01*
X0127228Y0049830D01*
X0127290Y0049817D01*
X0127353Y0049808D01*
X0127416Y0049802D01*
X0127479Y0049800D01*
X0128079Y0049800D01*
X0128079Y0047000D01*
X0124679Y0043600D01*
X0115279Y0043600D01*
X0118079Y0041400D02*
X0122979Y0041400D01*
X0123086Y0041399D01*
X0123192Y0041395D01*
X0123298Y0041387D01*
X0123404Y0041375D01*
X0123510Y0041359D01*
X0123614Y0041339D01*
X0123718Y0041315D01*
X0123821Y0041288D01*
X0123923Y0041256D01*
X0124024Y0041221D01*
X0124123Y0041182D01*
X0124220Y0041139D01*
X0124316Y0041093D01*
X0124410Y0041043D01*
X0124503Y0040989D01*
X0124593Y0040933D01*
X0124681Y0040872D01*
X0124767Y0040809D01*
X0124850Y0040742D01*
X0124931Y0040673D01*
X0125009Y0040600D01*
X0125084Y0040525D01*
X0125156Y0040447D01*
X0125226Y0040366D01*
X0125292Y0040282D01*
X0125355Y0040197D01*
X0125415Y0040108D01*
X0125472Y0040018D01*
X0125525Y0039926D01*
X0125575Y0039831D01*
X0125621Y0039735D01*
X0125663Y0039638D01*
X0125702Y0039538D01*
X0125737Y0039438D01*
X0125769Y0039336D01*
X0125796Y0039233D01*
X0125820Y0039129D01*
X0125839Y0039024D01*
X0125855Y0038919D01*
X0125867Y0038813D01*
X0125875Y0038707D01*
X0125879Y0038600D01*
X0125879Y0026000D01*
X0125873Y0025915D01*
X0125863Y0025830D01*
X0125849Y0025746D01*
X0125831Y0025662D01*
X0125809Y0025580D01*
X0125784Y0025498D01*
X0125755Y0025418D01*
X0125723Y0025339D01*
X0125687Y0025261D01*
X0125648Y0025185D01*
X0125605Y0025111D01*
X0125559Y0025039D01*
X0125510Y0024970D01*
X0125458Y0024902D01*
X0125402Y0024837D01*
X0125344Y0024774D01*
X0125283Y0024714D01*
X0125220Y0024657D01*
X0125154Y0024603D01*
X0125086Y0024552D01*
X0125015Y0024504D01*
X0124942Y0024459D01*
X0124868Y0024417D01*
X0124791Y0024379D01*
X0124713Y0024344D01*
X0124634Y0024313D01*
X0124553Y0024286D01*
X0124471Y0024262D01*
X0124388Y0024242D01*
X0124304Y0024225D01*
X0124220Y0024212D01*
X0124135Y0024203D01*
X0124050Y0024198D01*
X0123964Y0024197D01*
X0123879Y0024200D01*
X0123679Y0024200D01*
X0123613Y0024198D01*
X0123546Y0024193D01*
X0123481Y0024183D01*
X0123416Y0024170D01*
X0123351Y0024154D01*
X0123288Y0024134D01*
X0123226Y0024110D01*
X0123165Y0024083D01*
X0123106Y0024052D01*
X0123049Y0024019D01*
X0122994Y0023982D01*
X0122941Y0023942D01*
X0122890Y0023899D01*
X0122842Y0023853D01*
X0122796Y0023805D01*
X0122753Y0023754D01*
X0122713Y0023701D01*
X0122676Y0023646D01*
X0122643Y0023589D01*
X0122612Y0023530D01*
X0122585Y0023469D01*
X0122561Y0023407D01*
X0122541Y0023344D01*
X0122525Y0023279D01*
X0122512Y0023214D01*
X0122502Y0023149D01*
X0122497Y0023082D01*
X0122495Y0023016D01*
X0122494Y0023016D02*
X0122494Y0020568D01*
X0120479Y0020615D02*
X0120479Y0024800D01*
X0120481Y0024879D01*
X0120487Y0024957D01*
X0120496Y0025035D01*
X0120510Y0025112D01*
X0120527Y0025189D01*
X0120548Y0025264D01*
X0120573Y0025339D01*
X0120601Y0025412D01*
X0120633Y0025484D01*
X0120668Y0025554D01*
X0120707Y0025623D01*
X0120749Y0025689D01*
X0120794Y0025753D01*
X0120842Y0025815D01*
X0120893Y0025874D01*
X0120948Y0025931D01*
X0121005Y0025986D01*
X0121064Y0026037D01*
X0121126Y0026085D01*
X0121190Y0026130D01*
X0121256Y0026172D01*
X0121325Y0026211D01*
X0121395Y0026246D01*
X0121467Y0026278D01*
X0121540Y0026306D01*
X0121615Y0026331D01*
X0121690Y0026352D01*
X0121767Y0026369D01*
X0121844Y0026383D01*
X0121922Y0026392D01*
X0122000Y0026398D01*
X0122079Y0026400D01*
X0123079Y0026500D01*
X0126431Y0020568D02*
X0126431Y0017947D01*
X0126479Y0017000D01*
X0126479Y0016700D01*
X0118544Y0015700D02*
X0118508Y0020519D01*
X0114679Y0020626D02*
X0114679Y0033200D01*
X0110079Y0034300D02*
X0106799Y0034300D01*
X0106746Y0034347D02*
X0095556Y0034347D01*
X0101857Y0032379D02*
X0106746Y0032379D01*
X0106746Y0030410D02*
X0103589Y0030410D01*
X0101857Y0032378D02*
X0101744Y0032385D01*
X0101631Y0032388D01*
X0101518Y0032387D01*
X0101405Y0032382D01*
X0101293Y0032373D01*
X0101180Y0032360D01*
X0101069Y0032343D01*
X0100957Y0032322D01*
X0100847Y0032298D01*
X0100738Y0032269D01*
X0100629Y0032237D01*
X0100522Y0032201D01*
X0100416Y0032161D01*
X0100312Y0032118D01*
X0100209Y0032071D01*
X0100108Y0032020D01*
X0100009Y0031966D01*
X0099912Y0031909D01*
X0099816Y0031848D01*
X0099723Y0031784D01*
X0099633Y0031716D01*
X0099544Y0031646D01*
X0099458Y0031572D01*
X0099375Y0031496D01*
X0099295Y0031417D01*
X0099217Y0031335D01*
X0099142Y0031250D01*
X0099070Y0031162D01*
X0099002Y0031073D01*
X0098936Y0030981D01*
X0098874Y0030886D01*
X0098815Y0030790D01*
X0098759Y0030691D01*
X0098707Y0030591D01*
X0098659Y0030489D01*
X0098614Y0030385D01*
X0098573Y0030280D01*
X0098535Y0030174D01*
X0098501Y0030066D01*
X0098471Y0029957D01*
X0098445Y0029847D01*
X0098422Y0029736D01*
X0098404Y0029625D01*
X0098389Y0029512D01*
X0098379Y0029400D01*
X0099979Y0026800D02*
X0099979Y0014000D01*
X0102079Y0014300D02*
X0102079Y0023800D01*
X0102078Y0023800D02*
X0102078Y0023901D01*
X0102082Y0024001D01*
X0102090Y0024101D01*
X0102102Y0024201D01*
X0102117Y0024300D01*
X0102136Y0024399D01*
X0102159Y0024497D01*
X0102186Y0024594D01*
X0102216Y0024690D01*
X0102250Y0024784D01*
X0102288Y0024878D01*
X0102329Y0024969D01*
X0102373Y0025059D01*
X0102421Y0025148D01*
X0102473Y0025234D01*
X0102527Y0025318D01*
X0102585Y0025401D01*
X0102646Y0025481D01*
X0102710Y0025558D01*
X0102777Y0025633D01*
X0102847Y0025706D01*
X0102919Y0025775D01*
X0102994Y0025842D01*
X0103072Y0025906D01*
X0103152Y0025967D01*
X0103234Y0026025D01*
X0103318Y0026080D01*
X0103405Y0026131D01*
X0103493Y0026179D01*
X0103583Y0026224D01*
X0103675Y0026265D01*
X0103768Y0026302D01*
X0103863Y0026336D01*
X0103959Y0026366D01*
X0104056Y0026393D01*
X0104153Y0026416D01*
X0104252Y0026435D01*
X0104351Y0026450D01*
X0104451Y0026462D01*
X0104552Y0026470D01*
X0104652Y0026474D01*
X0104652Y0026473D02*
X0106746Y0026473D01*
X0103589Y0030410D02*
X0103471Y0030408D01*
X0103353Y0030402D01*
X0103235Y0030393D01*
X0103118Y0030379D01*
X0103001Y0030362D01*
X0102885Y0030341D01*
X0102769Y0030316D01*
X0102655Y0030287D01*
X0102541Y0030255D01*
X0102429Y0030218D01*
X0102317Y0030179D01*
X0102208Y0030135D01*
X0102099Y0030088D01*
X0101992Y0030038D01*
X0101887Y0029984D01*
X0101784Y0029926D01*
X0101683Y0029866D01*
X0101583Y0029802D01*
X0101486Y0029734D01*
X0101391Y0029664D01*
X0101299Y0029591D01*
X0101209Y0029514D01*
X0101121Y0029435D01*
X0101036Y0029353D01*
X0100954Y0029268D01*
X0100875Y0029180D01*
X0100798Y0029090D01*
X0100725Y0028998D01*
X0100655Y0028903D01*
X0100587Y0028806D01*
X0100523Y0028706D01*
X0100463Y0028605D01*
X0100405Y0028502D01*
X0100351Y0028397D01*
X0100301Y0028290D01*
X0100254Y0028181D01*
X0100210Y0028072D01*
X0100171Y0027960D01*
X0100134Y0027848D01*
X0100102Y0027734D01*
X0100073Y0027620D01*
X0100048Y0027504D01*
X0100027Y0027388D01*
X0100010Y0027271D01*
X0099996Y0027154D01*
X0099987Y0027036D01*
X0099981Y0026918D01*
X0099979Y0026800D01*
X0110079Y0034300D02*
X0115279Y0039600D01*
X0106746Y0040253D02*
X0097894Y0040253D01*
X0096794Y0041050D01*
X0097994Y0038284D02*
X0096794Y0037550D01*
X0097994Y0038284D02*
X0106746Y0038284D01*
X0118557Y0051321D02*
X0121079Y0048900D01*
X0118557Y0051321D02*
X0118557Y0054032D01*
X0126431Y0057918D02*
X0126422Y0057967D01*
X0126417Y0058017D01*
X0126415Y0058066D01*
X0126417Y0058116D01*
X0126422Y0058166D01*
X0126431Y0058215D01*
X0126443Y0058263D01*
X0126458Y0058310D01*
X0126477Y0058356D01*
X0126500Y0058401D01*
X0126525Y0058444D01*
X0126553Y0058485D01*
X0126584Y0058524D01*
X0126618Y0058560D01*
X0126655Y0058594D01*
X0126693Y0058626D01*
X0126734Y0058654D01*
X0126777Y0058680D01*
X0126822Y0058702D01*
X0126868Y0058721D01*
X0126915Y0058737D01*
X0126963Y0058750D01*
X0126963Y0062700D01*
X0127013Y0062750D01*
X0126963Y0058750D02*
X0127129Y0058650D01*
X0138263Y0051085D02*
X0139679Y0051085D01*
X0134979Y0049800D02*
X0128079Y0049800D01*
X0134979Y0049800D02*
X0135039Y0049798D01*
X0135100Y0049793D01*
X0135159Y0049784D01*
X0135218Y0049771D01*
X0135277Y0049755D01*
X0135334Y0049735D01*
X0135389Y0049712D01*
X0135444Y0049685D01*
X0135496Y0049656D01*
X0135547Y0049623D01*
X0135596Y0049587D01*
X0135642Y0049549D01*
X0135686Y0049507D01*
X0135728Y0049463D01*
X0135766Y0049417D01*
X0135802Y0049368D01*
X0135835Y0049317D01*
X0135864Y0049265D01*
X0135891Y0049210D01*
X0135914Y0049155D01*
X0135934Y0049098D01*
X0135950Y0049039D01*
X0135963Y0048980D01*
X0135972Y0048921D01*
X0135977Y0048860D01*
X0135979Y0048800D01*
X0135979Y0039800D01*
X0135981Y0039724D01*
X0135987Y0039648D01*
X0135996Y0039573D01*
X0136010Y0039498D01*
X0136027Y0039424D01*
X0136048Y0039351D01*
X0136072Y0039279D01*
X0136101Y0039208D01*
X0136132Y0039139D01*
X0136167Y0039072D01*
X0136206Y0039007D01*
X0136248Y0038943D01*
X0136293Y0038882D01*
X0136341Y0038823D01*
X0136392Y0038767D01*
X0136446Y0038713D01*
X0136502Y0038662D01*
X0136561Y0038614D01*
X0136622Y0038569D01*
X0136686Y0038527D01*
X0136751Y0038488D01*
X0136818Y0038453D01*
X0136887Y0038422D01*
X0136958Y0038393D01*
X0137030Y0038369D01*
X0137103Y0038348D01*
X0137177Y0038331D01*
X0137252Y0038317D01*
X0137327Y0038308D01*
X0137403Y0038302D01*
X0137479Y0038300D01*
X0140195Y0038300D01*
X0140211Y0040253D02*
X0167526Y0040253D01*
X0170057Y0042221D02*
X0140211Y0042221D01*
X0140211Y0048127D02*
X0148629Y0048127D01*
X0148629Y0047935D01*
X0138263Y0051085D02*
X0138169Y0051083D01*
X0138074Y0051077D01*
X0137980Y0051067D01*
X0137887Y0051054D01*
X0137794Y0051036D01*
X0137702Y0051015D01*
X0137611Y0050990D01*
X0137521Y0050961D01*
X0137432Y0050929D01*
X0137345Y0050893D01*
X0137259Y0050853D01*
X0137175Y0050810D01*
X0137093Y0050763D01*
X0137013Y0050713D01*
X0136935Y0050660D01*
X0136860Y0050603D01*
X0136786Y0050544D01*
X0136715Y0050481D01*
X0136647Y0050416D01*
X0136582Y0050348D01*
X0136519Y0050277D01*
X0136460Y0050203D01*
X0136403Y0050128D01*
X0136350Y0050050D01*
X0136300Y0049970D01*
X0136253Y0049888D01*
X0136210Y0049804D01*
X0136170Y0049718D01*
X0136134Y0049631D01*
X0136102Y0049542D01*
X0136073Y0049452D01*
X0136048Y0049361D01*
X0136027Y0049269D01*
X0136009Y0049176D01*
X0135996Y0049083D01*
X0135986Y0048989D01*
X0135980Y0048894D01*
X0135978Y0048800D01*
X0168479Y0048800D02*
X0168479Y0053770D01*
X0176229Y0048750D02*
X0176229Y0043800D01*
X0191879Y0044600D02*
X0191879Y0048900D01*
X0207979Y0051550D02*
X0207979Y0016800D01*
X0207975Y0016577D01*
X0207966Y0016353D01*
X0207951Y0016130D01*
X0207931Y0015907D01*
X0207905Y0015685D01*
X0207875Y0015464D01*
X0207838Y0015243D01*
X0207797Y0015024D01*
X0207750Y0014805D01*
X0207698Y0014588D01*
X0207641Y0014372D01*
X0207578Y0014157D01*
X0207511Y0013944D01*
X0207438Y0013733D01*
X0207360Y0013523D01*
X0207277Y0013316D01*
X0207189Y0013110D01*
X0207096Y0012907D01*
X0206999Y0012706D01*
X0206896Y0012507D01*
X0206789Y0012311D01*
X0206677Y0012118D01*
X0206560Y0011927D01*
X0206439Y0011739D01*
X0206313Y0011554D01*
X0206183Y0011373D01*
X0206048Y0011194D01*
X0205910Y0011019D01*
X0205767Y0010847D01*
X0205619Y0010679D01*
X0205468Y0010514D01*
X0205313Y0010353D01*
X0205154Y0010196D01*
X0204992Y0010043D01*
X0204825Y0009893D01*
X0204655Y0009748D01*
X0204482Y0009607D01*
X0204305Y0009470D01*
X0204125Y0009337D01*
X0203942Y0009209D01*
X0203756Y0009085D01*
X0203567Y0008966D01*
X0203375Y0008852D01*
X0203181Y0008742D01*
X0202983Y0008636D01*
X0202784Y0008536D01*
X0202582Y0008440D01*
X0202377Y0008350D01*
X0202171Y0008264D01*
X0201962Y0008183D01*
X0201752Y0008108D01*
X0201540Y0008037D01*
X0201326Y0007972D01*
X0201111Y0007912D01*
X0200894Y0007857D01*
X0200676Y0007807D01*
X0200457Y0007763D01*
X0200237Y0007724D01*
X0200016Y0007690D01*
X0199794Y0007662D01*
X0199572Y0007638D01*
X0199349Y0007621D01*
X0199126Y0007609D01*
X0198903Y0007602D01*
X0198679Y0007600D01*
X0108279Y0007600D01*
X0107979Y0005800D02*
X0217779Y0005800D01*
X0218029Y0005801D01*
X0218279Y0005808D01*
X0218529Y0005820D01*
X0218778Y0005839D01*
X0219027Y0005864D01*
X0219275Y0005895D01*
X0219523Y0005931D01*
X0219769Y0005974D01*
X0220015Y0006023D01*
X0220259Y0006077D01*
X0220501Y0006138D01*
X0220743Y0006204D01*
X0220982Y0006276D01*
X0221220Y0006354D01*
X0221455Y0006438D01*
X0221689Y0006527D01*
X0221921Y0006622D01*
X0222150Y0006722D01*
X0222376Y0006828D01*
X0222600Y0006939D01*
X0222821Y0007056D01*
X0223040Y0007178D01*
X0223255Y0007306D01*
X0223467Y0007438D01*
X0223676Y0007576D01*
X0223881Y0007718D01*
X0224083Y0007866D01*
X0224282Y0008018D01*
X0224476Y0008175D01*
X0224667Y0008337D01*
X0224854Y0008503D01*
X0225037Y0008674D01*
X0225215Y0008849D01*
X0225390Y0009029D01*
X0225559Y0009212D01*
X0225725Y0009400D01*
X0225886Y0009591D01*
X0226042Y0009787D01*
X0226193Y0009986D01*
X0226340Y0010189D01*
X0226481Y0010395D01*
X0226618Y0010604D01*
X0226749Y0010817D01*
X0226876Y0011033D01*
X0226997Y0011252D01*
X0227112Y0011474D01*
X0227223Y0011698D01*
X0227327Y0011925D01*
X0227427Y0012155D01*
X0227521Y0012387D01*
X0227609Y0012621D01*
X0227691Y0012857D01*
X0227768Y0013095D01*
X0227839Y0013335D01*
X0227904Y0013576D01*
X0227963Y0013819D01*
X0228016Y0014063D01*
X0228064Y0014309D01*
X0228105Y0014556D01*
X0228141Y0014803D01*
X0228171Y0015052D01*
X0228194Y0015301D01*
X0228212Y0015550D01*
X0228223Y0015800D01*
X0228229Y0016050D01*
X0228229Y0036550D01*
X0197079Y0025800D02*
X0197079Y0021435D01*
X0197077Y0021397D01*
X0197072Y0021360D01*
X0197062Y0021323D01*
X0197050Y0021288D01*
X0197034Y0021254D01*
X0197014Y0021221D01*
X0196992Y0021191D01*
X0196966Y0021163D01*
X0196938Y0021137D01*
X0196908Y0021115D01*
X0196875Y0021095D01*
X0196841Y0021079D01*
X0196806Y0021067D01*
X0196769Y0021057D01*
X0196732Y0021052D01*
X0196694Y0021050D01*
X0192363Y0021050D02*
X0188729Y0021050D01*
X0188642Y0021048D01*
X0188554Y0021042D01*
X0188467Y0021032D01*
X0188381Y0021019D01*
X0188295Y0021001D01*
X0188210Y0020980D01*
X0188126Y0020955D01*
X0188044Y0020926D01*
X0187963Y0020893D01*
X0187883Y0020857D01*
X0187805Y0020817D01*
X0187729Y0020774D01*
X0187655Y0020727D01*
X0187583Y0020678D01*
X0187513Y0020625D01*
X0187446Y0020568D01*
X0187381Y0020509D01*
X0187320Y0020448D01*
X0187261Y0020383D01*
X0187204Y0020316D01*
X0187151Y0020246D01*
X0187102Y0020174D01*
X0187055Y0020100D01*
X0187012Y0020024D01*
X0186972Y0019946D01*
X0186936Y0019866D01*
X0186903Y0019785D01*
X0186874Y0019703D01*
X0186849Y0019619D01*
X0186828Y0019534D01*
X0186810Y0019448D01*
X0186797Y0019362D01*
X0186787Y0019275D01*
X0186781Y0019187D01*
X0186779Y0019100D01*
X0186779Y0018900D01*
X0186778Y0018900D02*
X0186776Y0018823D01*
X0186770Y0018747D01*
X0186761Y0018671D01*
X0186747Y0018595D01*
X0186730Y0018520D01*
X0186709Y0018446D01*
X0186684Y0018374D01*
X0186655Y0018303D01*
X0186623Y0018233D01*
X0186588Y0018165D01*
X0186549Y0018099D01*
X0186506Y0018035D01*
X0186461Y0017973D01*
X0186413Y0017913D01*
X0186361Y0017856D01*
X0186307Y0017802D01*
X0186250Y0017750D01*
X0186190Y0017702D01*
X0186128Y0017657D01*
X0186064Y0017614D01*
X0185998Y0017575D01*
X0185930Y0017540D01*
X0185860Y0017508D01*
X0185789Y0017479D01*
X0185717Y0017454D01*
X0185643Y0017433D01*
X0185568Y0017416D01*
X0185492Y0017402D01*
X0185416Y0017393D01*
X0185340Y0017387D01*
X0185263Y0017385D01*
X0184129Y0017385D01*
X0184129Y0021715D02*
X0184108Y0025730D01*
X0186679Y0025800D02*
X0186679Y0030200D01*
X0191879Y0029650D02*
X0191879Y0025800D01*
X0194479Y0025800D02*
X0194479Y0030800D01*
X0194477Y0030898D01*
X0194471Y0030996D01*
X0194462Y0031094D01*
X0194448Y0031191D01*
X0194431Y0031288D01*
X0194410Y0031384D01*
X0194385Y0031479D01*
X0194357Y0031573D01*
X0194324Y0031665D01*
X0194289Y0031757D01*
X0194249Y0031847D01*
X0194207Y0031935D01*
X0194160Y0032022D01*
X0194111Y0032106D01*
X0194058Y0032189D01*
X0194002Y0032269D01*
X0193942Y0032348D01*
X0193880Y0032424D01*
X0193815Y0032497D01*
X0193747Y0032568D01*
X0193676Y0032636D01*
X0193603Y0032701D01*
X0193527Y0032763D01*
X0193448Y0032823D01*
X0193368Y0032879D01*
X0193285Y0032932D01*
X0193201Y0032981D01*
X0193114Y0033028D01*
X0193026Y0033070D01*
X0192936Y0033110D01*
X0192844Y0033145D01*
X0192752Y0033178D01*
X0192658Y0033206D01*
X0192563Y0033231D01*
X0192467Y0033252D01*
X0192370Y0033269D01*
X0192273Y0033283D01*
X0192175Y0033292D01*
X0192077Y0033298D01*
X0191979Y0033300D01*
X0181479Y0030800D02*
X0181479Y0025776D01*
X0178879Y0025800D02*
X0178879Y0030200D01*
X0176279Y0031500D02*
X0176279Y0025800D01*
X0178879Y0025800D02*
X0178879Y0022730D01*
X0173679Y0020630D02*
X0173679Y0025800D01*
X0165879Y0025800D02*
X0163279Y0025800D01*
X0176279Y0031500D02*
X0176276Y0031712D01*
X0176269Y0031923D01*
X0176256Y0032134D01*
X0176238Y0032345D01*
X0176215Y0032555D01*
X0176187Y0032765D01*
X0176154Y0032974D01*
X0176116Y0033182D01*
X0176073Y0033389D01*
X0176025Y0033595D01*
X0175972Y0033799D01*
X0175914Y0034003D01*
X0175851Y0034205D01*
X0175783Y0034405D01*
X0175710Y0034604D01*
X0175633Y0034801D01*
X0175551Y0034996D01*
X0175464Y0035189D01*
X0175372Y0035379D01*
X0175276Y0035568D01*
X0175176Y0035754D01*
X0175071Y0035937D01*
X0174961Y0036118D01*
X0174848Y0036297D01*
X0174730Y0036472D01*
X0174607Y0036645D01*
X0174481Y0036814D01*
X0174350Y0036981D01*
X0174216Y0037144D01*
X0174078Y0037304D01*
X0173936Y0037461D01*
X0173790Y0037614D01*
X0173640Y0037764D01*
X0173487Y0037910D01*
X0173330Y0038052D01*
X0173170Y0038190D01*
X0173007Y0038324D01*
X0172840Y0038455D01*
X0172671Y0038581D01*
X0172498Y0038704D01*
X0172323Y0038822D01*
X0172144Y0038935D01*
X0171963Y0039045D01*
X0171780Y0039150D01*
X0171594Y0039250D01*
X0171405Y0039346D01*
X0171215Y0039438D01*
X0171022Y0039525D01*
X0170827Y0039607D01*
X0170630Y0039684D01*
X0170431Y0039757D01*
X0170231Y0039825D01*
X0170029Y0039888D01*
X0169825Y0039946D01*
X0169621Y0039999D01*
X0169415Y0040047D01*
X0169208Y0040090D01*
X0169000Y0040128D01*
X0168791Y0040161D01*
X0168581Y0040189D01*
X0168371Y0040212D01*
X0168160Y0040230D01*
X0167949Y0040243D01*
X0167738Y0040250D01*
X0167526Y0040253D01*
X0170057Y0042221D02*
X0170333Y0042218D01*
X0170609Y0042208D01*
X0170884Y0042191D01*
X0171159Y0042168D01*
X0171434Y0042138D01*
X0171707Y0042101D01*
X0171980Y0042058D01*
X0172251Y0042008D01*
X0172521Y0041952D01*
X0172790Y0041889D01*
X0173057Y0041820D01*
X0173323Y0041744D01*
X0173586Y0041662D01*
X0173848Y0041574D01*
X0174107Y0041479D01*
X0174364Y0041378D01*
X0174618Y0041271D01*
X0174870Y0041157D01*
X0175119Y0041038D01*
X0175365Y0040913D01*
X0175607Y0040782D01*
X0175847Y0040645D01*
X0176083Y0040502D01*
X0176316Y0040353D01*
X0176545Y0040199D01*
X0176770Y0040040D01*
X0176991Y0039875D01*
X0177209Y0039705D01*
X0177422Y0039529D01*
X0177631Y0039349D01*
X0177835Y0039163D01*
X0178035Y0038973D01*
X0178230Y0038778D01*
X0178420Y0038578D01*
X0178606Y0038374D01*
X0178786Y0038165D01*
X0178962Y0037952D01*
X0179132Y0037734D01*
X0179297Y0037513D01*
X0179456Y0037288D01*
X0179610Y0037059D01*
X0179759Y0036826D01*
X0179902Y0036590D01*
X0180039Y0036350D01*
X0180170Y0036108D01*
X0180295Y0035862D01*
X0180414Y0035613D01*
X0180528Y0035361D01*
X0180635Y0035107D01*
X0180736Y0034850D01*
X0180831Y0034591D01*
X0180919Y0034329D01*
X0181001Y0034066D01*
X0181077Y0033800D01*
X0181146Y0033533D01*
X0181209Y0033264D01*
X0181265Y0032994D01*
X0181315Y0032723D01*
X0181358Y0032450D01*
X0181395Y0032177D01*
X0181425Y0031902D01*
X0181448Y0031627D01*
X0181465Y0031352D01*
X0181475Y0031076D01*
X0181478Y0030800D01*
X0186679Y0025800D02*
X0186679Y0023100D01*
X0186681Y0023011D01*
X0186687Y0022921D01*
X0186697Y0022832D01*
X0186710Y0022744D01*
X0186728Y0022656D01*
X0186749Y0022569D01*
X0186774Y0022484D01*
X0186803Y0022399D01*
X0186835Y0022315D01*
X0186871Y0022234D01*
X0186911Y0022153D01*
X0186954Y0022075D01*
X0187000Y0021999D01*
X0187050Y0021924D01*
X0187103Y0021852D01*
X0187159Y0021782D01*
X0187218Y0021715D01*
X0187279Y0021650D01*
X0187344Y0021589D01*
X0187411Y0021530D01*
X0187481Y0021474D01*
X0187553Y0021421D01*
X0187628Y0021371D01*
X0187704Y0021325D01*
X0187782Y0021282D01*
X0187863Y0021242D01*
X0187944Y0021206D01*
X0188028Y0021174D01*
X0188113Y0021145D01*
X0188198Y0021120D01*
X0188285Y0021099D01*
X0188373Y0021081D01*
X0188461Y0021068D01*
X0188550Y0021058D01*
X0188640Y0021052D01*
X0188729Y0021050D01*
X0158913Y0020700D02*
X0156079Y0020700D01*
X0149979Y0016050D02*
X0149979Y0026050D01*
X0149977Y0026146D01*
X0149971Y0026242D01*
X0149962Y0026338D01*
X0149948Y0026434D01*
X0149931Y0026528D01*
X0149909Y0026622D01*
X0149885Y0026715D01*
X0149856Y0026807D01*
X0149824Y0026898D01*
X0149788Y0026988D01*
X0149748Y0027075D01*
X0149705Y0027162D01*
X0149659Y0027246D01*
X0149609Y0027328D01*
X0149556Y0027409D01*
X0149499Y0027487D01*
X0149440Y0027563D01*
X0149377Y0027636D01*
X0149312Y0027707D01*
X0149244Y0027775D01*
X0149173Y0027840D01*
X0149100Y0027903D01*
X0149024Y0027962D01*
X0148946Y0028019D01*
X0148865Y0028072D01*
X0148783Y0028122D01*
X0148699Y0028168D01*
X0148612Y0028211D01*
X0148525Y0028251D01*
X0148435Y0028287D01*
X0148344Y0028319D01*
X0148252Y0028348D01*
X0148159Y0028372D01*
X0148065Y0028394D01*
X0147971Y0028411D01*
X0147875Y0028425D01*
X0147779Y0028434D01*
X0147683Y0028440D01*
X0147587Y0028442D01*
X0140211Y0028442D01*
X0134305Y0018473D02*
X0134326Y0018376D01*
X0134350Y0018279D01*
X0134377Y0018184D01*
X0134409Y0018090D01*
X0134444Y0017997D01*
X0134484Y0017906D01*
X0134526Y0017816D01*
X0134573Y0017729D01*
X0134623Y0017643D01*
X0134676Y0017559D01*
X0134732Y0017477D01*
X0134792Y0017398D01*
X0134855Y0017321D01*
X0134921Y0017247D01*
X0134990Y0017176D01*
X0135062Y0017107D01*
X0135136Y0017042D01*
X0135213Y0016979D01*
X0135293Y0016920D01*
X0135375Y0016863D01*
X0135459Y0016810D01*
X0135545Y0016761D01*
X0135633Y0016715D01*
X0135723Y0016673D01*
X0135814Y0016634D01*
X0135907Y0016599D01*
X0136001Y0016568D01*
X0136097Y0016540D01*
X0136193Y0016517D01*
X0136290Y0016497D01*
X0136388Y0016482D01*
X0136487Y0016470D01*
X0136586Y0016462D01*
X0136685Y0016458D01*
X0136784Y0016459D01*
X0136884Y0016463D01*
X0136983Y0016471D01*
X0137081Y0016483D01*
X0137179Y0016499D01*
X0142054Y0012876D02*
X0143591Y0012876D01*
X0143617Y0013050D02*
X0146979Y0013050D01*
X0142054Y0012876D02*
X0142013Y0012874D01*
X0141971Y0012869D01*
X0141931Y0012860D01*
X0141891Y0012847D01*
X0141853Y0012831D01*
X0141816Y0012812D01*
X0141781Y0012790D01*
X0141748Y0012765D01*
X0141717Y0012737D01*
X0141689Y0012706D01*
X0141664Y0012673D01*
X0141642Y0012638D01*
X0141623Y0012601D01*
X0141607Y0012563D01*
X0141594Y0012523D01*
X0141585Y0012483D01*
X0141580Y0012441D01*
X0141578Y0012400D01*
X0139344Y0012400D02*
X0139302Y0012398D01*
X0139261Y0012392D01*
X0139221Y0012383D01*
X0139181Y0012370D01*
X0139143Y0012353D01*
X0139107Y0012333D01*
X0139073Y0012309D01*
X0139041Y0012283D01*
X0139011Y0012253D01*
X0138985Y0012221D01*
X0138961Y0012187D01*
X0138941Y0012151D01*
X0138924Y0012113D01*
X0138911Y0012073D01*
X0138902Y0012033D01*
X0138896Y0011992D01*
X0138894Y0011950D01*
X0146979Y0013050D02*
X0147086Y0013052D01*
X0147193Y0013058D01*
X0147300Y0013067D01*
X0147406Y0013081D01*
X0147512Y0013098D01*
X0147617Y0013119D01*
X0147721Y0013143D01*
X0147824Y0013172D01*
X0147926Y0013204D01*
X0148027Y0013239D01*
X0148127Y0013278D01*
X0148225Y0013321D01*
X0148322Y0013367D01*
X0148417Y0013417D01*
X0148510Y0013470D01*
X0148601Y0013526D01*
X0148690Y0013586D01*
X0148777Y0013648D01*
X0148861Y0013714D01*
X0148944Y0013783D01*
X0149023Y0013854D01*
X0149100Y0013929D01*
X0149175Y0014006D01*
X0149246Y0014085D01*
X0149315Y0014168D01*
X0149381Y0014252D01*
X0149443Y0014339D01*
X0149503Y0014428D01*
X0149559Y0014519D01*
X0149612Y0014612D01*
X0149662Y0014707D01*
X0149708Y0014804D01*
X0149751Y0014902D01*
X0149790Y0015002D01*
X0149825Y0015103D01*
X0149857Y0015205D01*
X0149886Y0015308D01*
X0149910Y0015412D01*
X0149931Y0015517D01*
X0149948Y0015623D01*
X0149962Y0015729D01*
X0149971Y0015836D01*
X0149977Y0015943D01*
X0149979Y0016050D01*
X0112652Y0018773D02*
X0112652Y0020568D01*
X0112652Y0018773D02*
X0112653Y0018711D01*
X0112650Y0018649D01*
X0112644Y0018588D01*
X0112634Y0018527D01*
X0112620Y0018466D01*
X0112603Y0018407D01*
X0112582Y0018349D01*
X0112558Y0018292D01*
X0112530Y0018237D01*
X0112499Y0018183D01*
X0112465Y0018132D01*
X0112428Y0018082D01*
X0112388Y0018035D01*
X0112345Y0017991D01*
X0112299Y0017949D01*
X0112251Y0017910D01*
X0112201Y0017874D01*
X0112149Y0017841D01*
X0112094Y0017811D01*
X0112038Y0017784D01*
X0111981Y0017761D01*
X0111922Y0017742D01*
X0111863Y0017726D01*
X0111802Y0017714D01*
X0111741Y0017705D01*
X0111679Y0017700D01*
X0110579Y0017700D01*
X0110508Y0017696D01*
X0110438Y0017687D01*
X0110368Y0017676D01*
X0110299Y0017660D01*
X0110231Y0017641D01*
X0110164Y0017619D01*
X0110098Y0017592D01*
X0110034Y0017563D01*
X0109972Y0017530D01*
X0109911Y0017494D01*
X0109852Y0017455D01*
X0109795Y0017413D01*
X0109741Y0017368D01*
X0109688Y0017320D01*
X0109639Y0017269D01*
X0109592Y0017216D01*
X0109548Y0017161D01*
X0109507Y0017103D01*
X0109469Y0017043D01*
X0109435Y0016982D01*
X0109403Y0016918D01*
X0109375Y0016853D01*
X0109351Y0016787D01*
X0109330Y0016720D01*
X0109312Y0016651D01*
X0109298Y0016582D01*
X0109288Y0016512D01*
X0109281Y0016441D01*
X0109278Y0016371D01*
X0109279Y0016300D01*
X0102079Y0014300D02*
X0102075Y0014142D01*
X0102074Y0013983D01*
X0102078Y0013825D01*
X0102085Y0013667D01*
X0102097Y0013509D01*
X0102112Y0013351D01*
X0102131Y0013194D01*
X0102154Y0013037D01*
X0102181Y0012881D01*
X0102211Y0012725D01*
X0102246Y0012571D01*
X0102284Y0012417D01*
X0102326Y0012264D01*
X0102372Y0012112D01*
X0102421Y0011962D01*
X0102474Y0011813D01*
X0102531Y0011665D01*
X0102591Y0011518D01*
X0102655Y0011373D01*
X0102723Y0011230D01*
X0102794Y0011088D01*
X0102868Y0010948D01*
X0102946Y0010810D01*
X0103027Y0010674D01*
X0103111Y0010540D01*
X0103199Y0010408D01*
X0103290Y0010279D01*
X0103384Y0010151D01*
X0103482Y0010026D01*
X0103582Y0009904D01*
X0103685Y0009783D01*
X0103791Y0009666D01*
X0103900Y0009551D01*
X0104012Y0009439D01*
X0104127Y0009329D01*
X0104244Y0009223D01*
X0104364Y0009119D01*
X0104486Y0009018D01*
X0104611Y0008920D01*
X0104738Y0008826D01*
X0104867Y0008734D01*
X0104999Y0008646D01*
X0105132Y0008561D01*
X0105268Y0008479D01*
X0105406Y0008401D01*
X0105545Y0008326D01*
X0105687Y0008255D01*
X0105830Y0008187D01*
X0105974Y0008122D01*
X0106121Y0008061D01*
X0106268Y0008004D01*
X0106417Y0007950D01*
X0106568Y0007900D01*
X0106719Y0007854D01*
X0106872Y0007811D01*
X0107025Y0007773D01*
X0107180Y0007738D01*
X0107335Y0007706D01*
X0107491Y0007679D01*
X0107648Y0007655D01*
X0107805Y0007636D01*
X0107963Y0007620D01*
X0108121Y0007608D01*
X0108279Y0007600D01*
X0107979Y0005800D02*
X0107780Y0005805D01*
X0107582Y0005814D01*
X0107383Y0005829D01*
X0107186Y0005848D01*
X0106988Y0005873D01*
X0106792Y0005902D01*
X0106596Y0005936D01*
X0106401Y0005975D01*
X0106207Y0006018D01*
X0106014Y0006067D01*
X0105822Y0006120D01*
X0105632Y0006177D01*
X0105443Y0006240D01*
X0105256Y0006307D01*
X0105070Y0006378D01*
X0104887Y0006454D01*
X0104705Y0006535D01*
X0104525Y0006620D01*
X0104348Y0006710D01*
X0104172Y0006803D01*
X0103999Y0006901D01*
X0103829Y0007003D01*
X0103661Y0007110D01*
X0103496Y0007220D01*
X0103333Y0007335D01*
X0103173Y0007453D01*
X0103017Y0007576D01*
X0102863Y0007702D01*
X0102712Y0007832D01*
X0102565Y0007965D01*
X0102421Y0008102D01*
X0102280Y0008243D01*
X0102143Y0008387D01*
X0102010Y0008534D01*
X0101880Y0008685D01*
X0101754Y0008838D01*
X0101632Y0008995D01*
X0101513Y0009155D01*
X0101399Y0009317D01*
X0101288Y0009483D01*
X0101182Y0009651D01*
X0101080Y0009821D01*
X0100982Y0009994D01*
X0100888Y0010170D01*
X0100799Y0010347D01*
X0100714Y0010527D01*
X0100633Y0010709D01*
X0100557Y0010893D01*
X0100485Y0011078D01*
X0100418Y0011265D01*
X0100356Y0011454D01*
X0100298Y0011644D01*
X0100245Y0011836D01*
X0100197Y0012029D01*
X0100154Y0012223D01*
X0100115Y0012418D01*
X0100081Y0012614D01*
X0100052Y0012810D01*
X0100027Y0013008D01*
X0100008Y0013206D01*
X0099993Y0013404D01*
X0099983Y0013602D01*
X0099979Y0013801D01*
X0099979Y0014000D01*
D20*
X0143591Y0012876D03*
X0143591Y0016419D03*
X0168394Y0016419D03*
X0168394Y0012876D03*
D21*
X0062679Y0004000D02*
X0062679Y0074400D01*
X0235479Y0074400D01*
X0235479Y0004000D01*
X0062679Y0004000D01*
X0062679Y0004196D02*
X0097713Y0004196D01*
X0097809Y0004100D02*
X0099549Y0004100D01*
X0100779Y0005330D01*
X0100779Y0007070D01*
X0099549Y0008300D01*
X0097809Y0008300D01*
X0096579Y0007070D01*
X0096579Y0005330D01*
X0097809Y0004100D01*
X0096915Y0004994D02*
X0062679Y0004994D01*
X0062679Y0005793D02*
X0096579Y0005793D01*
X0096579Y0006591D02*
X0062679Y0006591D01*
X0062679Y0007390D02*
X0090475Y0007390D01*
X0089934Y0007614D02*
X0091098Y0007131D01*
X0092359Y0007131D01*
X0093524Y0007614D01*
X0094415Y0008505D01*
X0094897Y0009670D01*
X0094897Y0010930D01*
X0094415Y0012095D01*
X0093524Y0012986D01*
X0092359Y0013468D01*
X0091098Y0013468D01*
X0089934Y0012986D01*
X0089043Y0012095D01*
X0088560Y0010930D01*
X0088560Y0009670D01*
X0089043Y0008505D01*
X0089934Y0007614D01*
X0089360Y0008188D02*
X0062679Y0008188D01*
X0062679Y0008987D02*
X0069614Y0008987D01*
X0069981Y0008835D02*
X0067213Y0009981D01*
X0065095Y0012100D01*
X0063948Y0014867D01*
X0063948Y0017863D01*
X0065095Y0020631D01*
X0067213Y0022750D01*
X0069981Y0023896D01*
X0072977Y0023896D01*
X0075745Y0022750D01*
X0077863Y0020631D01*
X0079009Y0017863D01*
X0079009Y0014867D01*
X0077863Y0012100D01*
X0075745Y0009981D01*
X0072977Y0008835D01*
X0069981Y0008835D01*
X0067686Y0009785D02*
X0062679Y0009785D01*
X0062679Y0010584D02*
X0066610Y0010584D01*
X0065812Y0011382D02*
X0062679Y0011382D01*
X0062679Y0012181D02*
X0065061Y0012181D01*
X0064730Y0012979D02*
X0062679Y0012979D01*
X0062679Y0013778D02*
X0064399Y0013778D01*
X0064069Y0014576D02*
X0062679Y0014576D01*
X0062679Y0015375D02*
X0063948Y0015375D01*
X0063948Y0016173D02*
X0062679Y0016173D01*
X0062679Y0016972D02*
X0063948Y0016972D01*
X0063948Y0017770D02*
X0062679Y0017770D01*
X0062679Y0018569D02*
X0064240Y0018569D01*
X0064571Y0019367D02*
X0062679Y0019367D01*
X0062679Y0020166D02*
X0064902Y0020166D01*
X0065428Y0020964D02*
X0062679Y0020964D01*
X0062679Y0021763D02*
X0066226Y0021763D01*
X0067025Y0022561D02*
X0062679Y0022561D01*
X0062679Y0023360D02*
X0068686Y0023360D01*
X0074271Y0023360D02*
X0076477Y0023360D01*
X0076774Y0022645D02*
X0076028Y0024446D01*
X0076028Y0026395D01*
X0076774Y0028196D01*
X0078152Y0029574D01*
X0079401Y0030092D01*
X0078152Y0030609D01*
X0076774Y0031987D01*
X0076028Y0033788D01*
X0076028Y0035738D01*
X0076774Y0037539D01*
X0078152Y0038917D01*
X0078835Y0039200D01*
X0078152Y0039483D01*
X0076774Y0040861D01*
X0076028Y0042662D01*
X0076028Y0044612D01*
X0076774Y0046413D01*
X0078152Y0047791D01*
X0079137Y0048199D01*
X0078970Y0048253D01*
X0078255Y0048618D01*
X0077605Y0049089D01*
X0077038Y0049657D01*
X0076566Y0050307D01*
X0076201Y0051022D01*
X0075953Y0051785D01*
X0075828Y0052578D01*
X0075828Y0052580D01*
X0080527Y0052580D01*
X0080527Y0053380D01*
X0075828Y0053380D01*
X0075828Y0053381D01*
X0075953Y0054174D01*
X0076201Y0054937D01*
X0076566Y0055653D01*
X0077038Y0056302D01*
X0077605Y0056870D01*
X0078255Y0057341D01*
X0078970Y0057706D01*
X0079733Y0057954D01*
X0080526Y0058080D01*
X0080528Y0058080D01*
X0080528Y0053380D01*
X0081328Y0053380D01*
X0081328Y0058080D01*
X0081329Y0058080D01*
X0082122Y0057954D01*
X0082885Y0057706D01*
X0083601Y0057341D01*
X0084250Y0056870D01*
X0084818Y0056302D01*
X0085289Y0055653D01*
X0085654Y0054937D01*
X0085902Y0054174D01*
X0086028Y0053381D01*
X0086028Y0053380D01*
X0081328Y0053380D01*
X0081328Y0052580D01*
X0086028Y0052580D01*
X0086028Y0052578D01*
X0085902Y0051785D01*
X0085654Y0051022D01*
X0085289Y0050307D01*
X0084818Y0049657D01*
X0084250Y0049089D01*
X0083601Y0048618D01*
X0082885Y0048253D01*
X0082718Y0048199D01*
X0083703Y0047791D01*
X0085082Y0046413D01*
X0085828Y0044612D01*
X0085828Y0042950D01*
X0090501Y0042950D01*
X0090982Y0043431D01*
X0093945Y0043431D01*
X0094629Y0042747D01*
X0095313Y0043431D01*
X0096721Y0043431D01*
X0096367Y0044129D01*
X0096367Y0044129D01*
X0096374Y0044240D01*
X0095929Y0044240D01*
X0095929Y0044184D01*
X0095694Y0043950D01*
X0089763Y0043950D01*
X0089529Y0044184D01*
X0089529Y0044240D01*
X0089001Y0044240D01*
X0088615Y0044626D01*
X0088025Y0044626D01*
X0087029Y0045621D01*
X0087029Y0047030D01*
X0088025Y0048026D01*
X0088615Y0048026D01*
X0089001Y0048411D01*
X0089529Y0048411D01*
X0089529Y0048786D01*
X0089198Y0048852D01*
X0088782Y0049024D01*
X0088407Y0049274D01*
X0088089Y0049593D01*
X0087839Y0049967D01*
X0087667Y0050383D01*
X0087579Y0050825D01*
X0087579Y0051007D01*
X0092686Y0051007D01*
X0092686Y0051093D01*
X0087579Y0051093D01*
X0087579Y0051275D01*
X0087667Y0051717D01*
X0087839Y0052133D01*
X0088089Y0052507D01*
X0088407Y0052826D01*
X0088782Y0053076D01*
X0089198Y0053248D01*
X0089529Y0053314D01*
X0089529Y0053689D01*
X0089001Y0053689D01*
X0088615Y0054074D01*
X0088025Y0054074D01*
X0087029Y0055070D01*
X0087029Y0056479D01*
X0088025Y0057474D01*
X0088615Y0057474D01*
X0089001Y0057860D01*
X0089529Y0057860D01*
X0089529Y0057916D01*
X0089763Y0058150D01*
X0094129Y0058150D01*
X0094129Y0059653D01*
X0095476Y0061000D01*
X0097381Y0061000D01*
X0098729Y0059653D01*
X0098729Y0057747D01*
X0098356Y0057374D01*
X0098552Y0057374D01*
X0098552Y0057374D01*
X0100281Y0056376D01*
X0100281Y0056376D01*
X0101279Y0054648D01*
X0101279Y0053450D01*
X0101987Y0053450D01*
X0101987Y0051158D01*
X0102171Y0051158D01*
X0102171Y0053450D01*
X0103444Y0053450D01*
X0103800Y0053354D01*
X0104119Y0053170D01*
X0104380Y0052909D01*
X0104384Y0052902D01*
X0104494Y0053013D01*
X0104238Y0053161D01*
X0103977Y0053421D01*
X0103793Y0053741D01*
X0103698Y0054097D01*
X0103698Y0055173D01*
X0106187Y0055173D01*
X0106187Y0055357D01*
X0103698Y0055357D01*
X0103698Y0055400D01*
X0102109Y0055400D01*
X0100879Y0056630D01*
X0100879Y0058370D01*
X0102109Y0059600D01*
X0103849Y0059600D01*
X0105079Y0058370D01*
X0105079Y0057650D01*
X0106187Y0057650D01*
X0106187Y0055358D01*
X0106371Y0055358D01*
X0106371Y0057650D01*
X0107644Y0057650D01*
X0108000Y0057554D01*
X0108319Y0057370D01*
X0108580Y0057109D01*
X0108764Y0056790D01*
X0108860Y0056434D01*
X0108860Y0055357D01*
X0106371Y0055357D01*
X0106371Y0055173D01*
X0108860Y0055173D01*
X0108860Y0054097D01*
X0108764Y0053741D01*
X0108580Y0053421D01*
X0108319Y0053161D01*
X0108063Y0053013D01*
X0108660Y0052416D01*
X0108660Y0049827D01*
X0114056Y0049827D01*
X0115052Y0048831D01*
X0115052Y0048831D01*
X0116979Y0046904D01*
X0116979Y0045300D01*
X0118879Y0045300D01*
X0118879Y0045496D01*
X0114889Y0049486D01*
X0114889Y0050382D01*
X0114621Y0050382D01*
X0114621Y0054032D01*
X0114620Y0054032D01*
X0114620Y0050382D01*
X0113936Y0050382D01*
X0113580Y0050478D01*
X0113399Y0050582D01*
X0111655Y0050582D01*
X0110952Y0051285D01*
X0110952Y0056779D01*
X0111655Y0057482D01*
X0113399Y0057482D01*
X0113580Y0057587D01*
X0113936Y0057682D01*
X0114620Y0057682D01*
X0114620Y0054032D01*
X0114621Y0054032D01*
X0114621Y0057682D01*
X0115305Y0057682D01*
X0115661Y0057587D01*
X0115842Y0057482D01*
X0117279Y0057482D01*
X0117279Y0058658D01*
X0119571Y0058658D01*
X0119571Y0058842D01*
X0117279Y0058842D01*
X0117279Y0060115D01*
X0117375Y0060471D01*
X0117535Y0060750D01*
X0117375Y0061029D01*
X0117279Y0061385D01*
X0117279Y0062658D01*
X0119571Y0062658D01*
X0119571Y0062842D01*
X0117279Y0062842D01*
X0117279Y0064115D01*
X0117375Y0064471D01*
X0117559Y0064791D01*
X0117820Y0065051D01*
X0118139Y0065236D01*
X0118495Y0065331D01*
X0119571Y0065331D01*
X0119571Y0062842D01*
X0119756Y0062842D01*
X0119756Y0065331D01*
X0120832Y0065331D01*
X0121188Y0065236D01*
X0121507Y0065051D01*
X0121768Y0064791D01*
X0121916Y0064534D01*
X0122513Y0065131D01*
X0125475Y0065131D01*
X0125504Y0065103D01*
X0125532Y0065131D01*
X0128495Y0065131D01*
X0129092Y0064534D01*
X0129240Y0064791D01*
X0129500Y0065051D01*
X0129819Y0065236D01*
X0130176Y0065331D01*
X0131252Y0065331D01*
X0131252Y0062842D01*
X0131436Y0062842D01*
X0131436Y0065331D01*
X0132513Y0065331D01*
X0132869Y0065236D01*
X0133188Y0065051D01*
X0133449Y0064791D01*
X0133633Y0064471D01*
X0133728Y0064115D01*
X0133728Y0062842D01*
X0131436Y0062842D01*
X0131436Y0062658D01*
X0131436Y0061331D01*
X0131386Y0061331D01*
X0131386Y0058842D01*
X0131202Y0058842D01*
X0131202Y0060169D01*
X0131252Y0060169D01*
X0131252Y0062658D01*
X0131436Y0062658D01*
X0133728Y0062658D01*
X0133728Y0061385D01*
X0133633Y0061029D01*
X0133449Y0060709D01*
X0133447Y0060707D01*
X0133583Y0060471D01*
X0133678Y0060115D01*
X0133678Y0058842D01*
X0131386Y0058842D01*
X0131386Y0058658D01*
X0133678Y0058658D01*
X0133678Y0057482D01*
X0135303Y0057482D01*
X0136005Y0056779D01*
X0136005Y0052097D01*
X0137196Y0052785D01*
X0137516Y0052785D01*
X0137894Y0053163D01*
X0137638Y0053311D01*
X0137377Y0053571D01*
X0137193Y0053891D01*
X0137098Y0054247D01*
X0137098Y0055323D01*
X0139587Y0055323D01*
X0139587Y0055507D01*
X0137098Y0055507D01*
X0137098Y0056584D01*
X0137193Y0056940D01*
X0137377Y0057259D01*
X0137638Y0057520D01*
X0137957Y0057704D01*
X0138313Y0057800D01*
X0139587Y0057800D01*
X0139587Y0055508D01*
X0139771Y0055508D01*
X0139771Y0057800D01*
X0141044Y0057800D01*
X0141400Y0057704D01*
X0141719Y0057520D01*
X0141980Y0057259D01*
X0142164Y0056940D01*
X0142260Y0056584D01*
X0142260Y0055507D01*
X0139771Y0055507D01*
X0139771Y0055323D01*
X0142260Y0055323D01*
X0142260Y0054247D01*
X0142164Y0053891D01*
X0141980Y0053571D01*
X0141719Y0053311D01*
X0141463Y0053163D01*
X0142060Y0052566D01*
X0142060Y0049827D01*
X0146658Y0049827D01*
X0146844Y0050013D01*
X0146588Y0050161D01*
X0146327Y0050421D01*
X0146143Y0050741D01*
X0146048Y0051097D01*
X0146048Y0052173D01*
X0148537Y0052173D01*
X0148537Y0052357D01*
X0146048Y0052357D01*
X0146048Y0053434D01*
X0146143Y0053790D01*
X0146327Y0054109D01*
X0146588Y0054370D01*
X0146907Y0054554D01*
X0147263Y0054650D01*
X0148537Y0054650D01*
X0148537Y0052358D01*
X0148721Y0052358D01*
X0148721Y0054650D01*
X0149994Y0054650D01*
X0150350Y0054554D01*
X0150669Y0054370D01*
X0150930Y0054109D01*
X0151114Y0053790D01*
X0151210Y0053434D01*
X0151210Y0052357D01*
X0148721Y0052357D01*
X0148721Y0052173D01*
X0151210Y0052173D01*
X0151210Y0051097D01*
X0151114Y0050741D01*
X0150930Y0050421D01*
X0150669Y0050161D01*
X0150477Y0050050D01*
X0151899Y0050050D01*
X0153129Y0048820D01*
X0153129Y0047080D01*
X0151899Y0045850D01*
X0150406Y0045850D01*
X0150307Y0045750D01*
X0146951Y0045750D01*
X0146274Y0046427D01*
X0143661Y0046427D01*
X0143661Y0043921D01*
X0172136Y0043921D01*
X0174129Y0043274D01*
X0174129Y0044670D01*
X0174529Y0045070D01*
X0174529Y0046025D01*
X0172690Y0046025D01*
X0172520Y0046195D01*
X0172430Y0046105D01*
X0172111Y0045921D01*
X0171755Y0045825D01*
X0171079Y0045825D01*
X0171079Y0048800D01*
X0171079Y0048800D01*
X0171079Y0051775D01*
X0171755Y0051775D01*
X0172057Y0051694D01*
X0171629Y0052122D01*
X0171629Y0055478D01*
X0172026Y0055875D01*
X0171629Y0056272D01*
X0171629Y0059628D01*
X0172030Y0060029D01*
X0171629Y0060430D01*
X0171629Y0062170D01*
X0172859Y0063400D01*
X0174599Y0063400D01*
X0175829Y0062170D01*
X0175829Y0060430D01*
X0175512Y0060114D01*
X0175892Y0059734D01*
X0176040Y0059991D01*
X0176300Y0060251D01*
X0176619Y0060436D01*
X0176976Y0060531D01*
X0178052Y0060531D01*
X0178052Y0058042D01*
X0178236Y0058042D01*
X0178236Y0060531D01*
X0179313Y0060531D01*
X0179669Y0060436D01*
X0179988Y0060251D01*
X0180249Y0059991D01*
X0180433Y0059671D01*
X0180528Y0059315D01*
X0180528Y0058042D01*
X0178236Y0058042D01*
X0178236Y0057858D01*
X0178236Y0055369D01*
X0178236Y0053892D01*
X0178052Y0053892D01*
X0178052Y0057858D01*
X0178236Y0057858D01*
X0180528Y0057858D01*
X0180528Y0056585D01*
X0180433Y0056229D01*
X0180249Y0055909D01*
X0180214Y0055875D01*
X0180249Y0055841D01*
X0180433Y0055521D01*
X0180528Y0055165D01*
X0180528Y0053892D01*
X0178236Y0053892D01*
X0178236Y0053708D01*
X0180528Y0053708D01*
X0180528Y0052435D01*
X0180433Y0052079D01*
X0180249Y0051759D01*
X0179988Y0051499D01*
X0179960Y0051483D01*
X0180026Y0051417D01*
X0180127Y0051519D01*
X0180446Y0051703D01*
X0180802Y0051798D01*
X0181479Y0051798D01*
X0181479Y0048824D01*
X0181479Y0048824D01*
X0181479Y0051798D01*
X0182155Y0051798D01*
X0182511Y0051703D01*
X0182799Y0051537D01*
X0183046Y0051679D01*
X0183402Y0051775D01*
X0184079Y0051775D01*
X0184079Y0048800D01*
X0184079Y0048800D01*
X0184079Y0045825D01*
X0184755Y0045825D01*
X0185111Y0045921D01*
X0185430Y0046105D01*
X0185520Y0046195D01*
X0185690Y0046025D01*
X0187668Y0046025D01*
X0187837Y0046195D01*
X0187927Y0046105D01*
X0188246Y0045921D01*
X0188602Y0045825D01*
X0189279Y0045825D01*
X0189955Y0045825D01*
X0190179Y0045885D01*
X0190179Y0045870D01*
X0189779Y0045470D01*
X0189779Y0043730D01*
X0191009Y0042500D01*
X0192749Y0042500D01*
X0193979Y0043730D01*
X0193979Y0045470D01*
X0193579Y0045870D01*
X0193579Y0045885D01*
X0193802Y0045825D01*
X0194479Y0045825D01*
X0195155Y0045825D01*
X0195511Y0045921D01*
X0195779Y0046075D01*
X0196046Y0045921D01*
X0196402Y0045825D01*
X0197079Y0045825D01*
X0197755Y0045825D01*
X0198111Y0045921D01*
X0198430Y0046105D01*
X0198691Y0046366D01*
X0198875Y0046685D01*
X0198971Y0047041D01*
X0198971Y0048800D01*
X0198971Y0050559D01*
X0198875Y0050915D01*
X0198691Y0051234D01*
X0198430Y0051495D01*
X0198111Y0051679D01*
X0197755Y0051775D01*
X0197079Y0051775D01*
X0197079Y0048800D01*
X0198971Y0048800D01*
X0197079Y0048800D01*
X0197079Y0048800D01*
X0197079Y0048800D01*
X0197079Y0045825D01*
X0197079Y0048800D01*
X0197079Y0048800D01*
X0197079Y0051775D01*
X0196402Y0051775D01*
X0196046Y0051679D01*
X0195779Y0051525D01*
X0195511Y0051679D01*
X0195155Y0051775D01*
X0194479Y0051775D01*
X0194479Y0048800D01*
X0197079Y0048800D01*
X0195187Y0048800D01*
X0194479Y0048800D01*
X0194479Y0048800D01*
X0194479Y0048800D01*
X0194479Y0045825D01*
X0194479Y0048800D01*
X0194479Y0048800D01*
X0194479Y0051775D01*
X0193802Y0051775D01*
X0193579Y0051715D01*
X0193579Y0052131D01*
X0192748Y0053569D01*
X0191660Y0054198D01*
X0191660Y0054366D01*
X0191063Y0054963D01*
X0191319Y0055111D01*
X0191580Y0055371D01*
X0191764Y0055691D01*
X0191860Y0056047D01*
X0191860Y0057123D01*
X0189371Y0057123D01*
X0189371Y0057307D01*
X0191860Y0057307D01*
X0191860Y0058384D01*
X0191764Y0058740D01*
X0191580Y0059059D01*
X0191319Y0059320D01*
X0191000Y0059504D01*
X0190644Y0059600D01*
X0189371Y0059600D01*
X0189371Y0057308D01*
X0189187Y0057308D01*
X0189187Y0059600D01*
X0187913Y0059600D01*
X0187557Y0059504D01*
X0187238Y0059320D01*
X0186977Y0059059D01*
X0186793Y0058740D01*
X0186698Y0058384D01*
X0186698Y0057307D01*
X0189187Y0057307D01*
X0189187Y0057123D01*
X0186698Y0057123D01*
X0186698Y0056047D01*
X0186793Y0055691D01*
X0186977Y0055371D01*
X0187238Y0055111D01*
X0187494Y0054963D01*
X0186898Y0054366D01*
X0186898Y0054013D01*
X0185990Y0053489D01*
X0185990Y0053489D01*
X0185079Y0051911D01*
X0185079Y0051688D01*
X0184755Y0051775D01*
X0184079Y0051775D01*
X0184079Y0048800D01*
X0184079Y0048800D01*
X0184079Y0045825D01*
X0183402Y0045825D01*
X0183046Y0045921D01*
X0182758Y0046087D01*
X0182511Y0045944D01*
X0182155Y0045849D01*
X0181479Y0045849D01*
X0181479Y0048823D01*
X0181479Y0048823D01*
X0181479Y0045849D01*
X0180802Y0045849D01*
X0180446Y0045944D01*
X0180127Y0046129D01*
X0180049Y0046206D01*
X0179868Y0046025D01*
X0177929Y0046025D01*
X0177929Y0045070D01*
X0178329Y0044670D01*
X0178329Y0042930D01*
X0177216Y0041818D01*
X0179451Y0040194D01*
X0179451Y0040194D01*
X0179451Y0040194D01*
X0181894Y0036831D01*
X0181894Y0036831D01*
X0183179Y0032878D01*
X0183179Y0028575D01*
X0184979Y0028575D01*
X0184979Y0028789D01*
X0184479Y0029289D01*
X0184479Y0031111D01*
X0185767Y0032400D01*
X0187590Y0032400D01*
X0188879Y0031111D01*
X0188879Y0029289D01*
X0188379Y0028789D01*
X0188379Y0028715D01*
X0188602Y0028775D01*
X0189279Y0028775D01*
X0189279Y0025800D01*
X0189279Y0025800D01*
X0189279Y0022825D01*
X0189955Y0022825D01*
X0190311Y0022921D01*
X0190454Y0023003D01*
X0190201Y0022750D01*
X0188729Y0022750D01*
X0188638Y0022762D01*
X0188481Y0022853D01*
X0188478Y0022859D01*
X0188602Y0022825D01*
X0189279Y0022825D01*
X0189279Y0025800D01*
X0189279Y0025800D01*
X0189279Y0028775D01*
X0189879Y0028775D01*
X0189879Y0030420D01*
X0190884Y0031425D01*
X0189879Y0032430D01*
X0189879Y0034170D01*
X0191109Y0035400D01*
X0192849Y0035400D01*
X0193446Y0034803D01*
X0195053Y0033875D01*
X0195053Y0033875D01*
X0195053Y0033875D01*
X0196179Y0031925D01*
X0196179Y0028575D01*
X0198068Y0028575D01*
X0198771Y0027872D01*
X0198771Y0026512D01*
X0198779Y0026504D01*
X0198779Y0022828D01*
X0198878Y0022728D01*
X0198878Y0019372D01*
X0198175Y0018669D01*
X0195213Y0018669D01*
X0194529Y0019353D01*
X0193845Y0018669D01*
X0190882Y0018669D01*
X0190201Y0019350D01*
X0188729Y0019350D01*
X0188664Y0019341D01*
X0188552Y0019277D01*
X0188487Y0019165D01*
X0188479Y0019100D01*
X0188479Y0018038D01*
X0187617Y0016546D01*
X0187617Y0016546D01*
X0186510Y0015907D01*
X0186510Y0015903D01*
X0185807Y0015200D01*
X0182451Y0015200D01*
X0182016Y0015635D01*
X0180691Y0015635D01*
X0180307Y0015250D01*
X0176951Y0015250D01*
X0176701Y0015500D01*
X0175264Y0015500D01*
X0173159Y0016715D01*
X0173159Y0016715D01*
X0173159Y0016715D01*
X0172493Y0017869D01*
X0172263Y0017869D01*
X0171666Y0018466D01*
X0171637Y0018416D01*
X0171956Y0018097D01*
X0171956Y0014741D01*
X0171863Y0014647D01*
X0171956Y0014554D01*
X0171956Y0011197D01*
X0171253Y0010494D01*
X0165535Y0010494D01*
X0164832Y0011197D01*
X0164832Y0014554D01*
X0164925Y0014647D01*
X0164832Y0014741D01*
X0164832Y0018097D01*
X0165535Y0018800D01*
X0167052Y0018800D01*
X0167029Y0018885D01*
X0167029Y0020158D01*
X0169321Y0020158D01*
X0169321Y0020342D01*
X0167029Y0020342D01*
X0167029Y0021615D01*
X0167125Y0021971D01*
X0167309Y0022291D01*
X0167570Y0022551D01*
X0167889Y0022736D01*
X0168245Y0022831D01*
X0169321Y0022831D01*
X0169321Y0020342D01*
X0169506Y0020342D01*
X0169506Y0022831D01*
X0170380Y0022831D01*
X0170046Y0022921D01*
X0169727Y0023105D01*
X0169637Y0023195D01*
X0169468Y0023025D01*
X0167490Y0023025D01*
X0167179Y0023336D01*
X0166868Y0023025D01*
X0164890Y0023025D01*
X0164851Y0023064D01*
X0164850Y0022956D01*
X0165428Y0022378D01*
X0165428Y0019022D01*
X0164725Y0018319D01*
X0161763Y0018319D01*
X0161079Y0019003D01*
X0160395Y0018319D01*
X0157432Y0018319D01*
X0157050Y0018701D01*
X0156949Y0018600D01*
X0155209Y0018600D01*
X0153979Y0019830D01*
X0153979Y0021570D01*
X0155209Y0022800D01*
X0156949Y0022800D01*
X0157050Y0022699D01*
X0157432Y0023081D01*
X0160395Y0023081D01*
X0161079Y0022397D01*
X0161650Y0022969D01*
X0161652Y0023662D01*
X0161587Y0023728D01*
X0161587Y0025088D01*
X0161579Y0025096D01*
X0161579Y0026504D01*
X0161587Y0026512D01*
X0161587Y0027872D01*
X0162290Y0028575D01*
X0164268Y0028575D01*
X0164279Y0028564D01*
X0164279Y0031650D01*
X0164272Y0031700D01*
X0162859Y0031700D01*
X0161629Y0032930D01*
X0161629Y0034670D01*
X0161659Y0034700D01*
X0157816Y0034700D01*
X0157800Y0034716D01*
X0148226Y0034716D01*
X0148441Y0034500D01*
X0149149Y0034500D01*
X0150379Y0033270D01*
X0150379Y0031530D01*
X0149149Y0030300D01*
X0147409Y0030300D01*
X0146179Y0031530D01*
X0146179Y0032237D01*
X0145669Y0032747D01*
X0143661Y0032747D01*
X0143661Y0030142D01*
X0148683Y0030142D01*
X0150582Y0029045D01*
X0150582Y0029045D01*
X0150582Y0029045D01*
X0151679Y0027146D01*
X0151679Y0015115D01*
X0150963Y0013388D01*
X0150963Y0013388D01*
X0150963Y0013388D01*
X0149641Y0012066D01*
X0147914Y0011350D01*
X0147153Y0011350D01*
X0147153Y0011197D01*
X0146450Y0010494D01*
X0141078Y0010494D01*
X0141078Y0010272D01*
X0140375Y0009569D01*
X0137413Y0009569D01*
X0136816Y0010166D01*
X0136668Y0009909D01*
X0136407Y0009649D01*
X0136088Y0009464D01*
X0135732Y0009369D01*
X0134656Y0009369D01*
X0134656Y0011858D01*
X0134471Y0011858D01*
X0132179Y0011858D01*
X0132179Y0010585D01*
X0132275Y0010229D01*
X0132459Y0009909D01*
X0132720Y0009649D01*
X0133039Y0009464D01*
X0133395Y0009369D01*
X0134471Y0009369D01*
X0134471Y0011858D01*
X0134471Y0012042D01*
X0132179Y0012042D01*
X0132179Y0013315D01*
X0132275Y0013671D01*
X0132459Y0013991D01*
X0132720Y0014251D01*
X0133039Y0014436D01*
X0133395Y0014531D01*
X0134471Y0014531D01*
X0134471Y0012042D01*
X0134656Y0012042D01*
X0134656Y0014531D01*
X0135732Y0014531D01*
X0136088Y0014436D01*
X0136407Y0014251D01*
X0136668Y0013991D01*
X0136816Y0013734D01*
X0137413Y0014331D01*
X0140029Y0014331D01*
X0140029Y0014554D01*
X0140122Y0014647D01*
X0140029Y0014741D01*
X0140029Y0018097D01*
X0140732Y0018800D01*
X0141691Y0018800D01*
X0141691Y0019641D01*
X0141516Y0019816D01*
X0141368Y0019559D01*
X0141107Y0019299D01*
X0140788Y0019114D01*
X0140432Y0019019D01*
X0139356Y0019019D01*
X0139356Y0021508D01*
X0139171Y0021508D01*
X0136879Y0021508D01*
X0136879Y0020235D01*
X0136975Y0019879D01*
X0137159Y0019559D01*
X0137420Y0019299D01*
X0137739Y0019114D01*
X0138095Y0019019D01*
X0139171Y0019019D01*
X0139171Y0021508D01*
X0139171Y0021692D01*
X0136879Y0021692D01*
X0136879Y0022965D01*
X0136975Y0023321D01*
X0137159Y0023641D01*
X0137420Y0023901D01*
X0137739Y0024086D01*
X0138095Y0024181D01*
X0139171Y0024181D01*
X0139171Y0021692D01*
X0139356Y0021692D01*
X0139356Y0024181D01*
X0140432Y0024181D01*
X0140788Y0024086D01*
X0141107Y0023901D01*
X0141368Y0023641D01*
X0141516Y0023384D01*
X0141879Y0023747D01*
X0141879Y0024773D01*
X0137464Y0024773D01*
X0136761Y0025476D01*
X0136761Y0036600D01*
X0136621Y0036600D01*
X0135136Y0037457D01*
X0135136Y0037457D01*
X0135136Y0037457D01*
X0134279Y0038943D01*
X0134279Y0048100D01*
X0129779Y0048100D01*
X0129779Y0046296D01*
X0128783Y0045300D01*
X0125735Y0042252D01*
X0126301Y0041939D01*
X0126301Y0041939D01*
X0127557Y0039849D01*
X0127557Y0039849D01*
X0127566Y0039316D01*
X0127579Y0039304D01*
X0127579Y0038615D01*
X0127591Y0037926D01*
X0127579Y0037913D01*
X0127579Y0032402D01*
X0127732Y0032668D01*
X0127732Y0032668D01*
X0127732Y0032668D01*
X0129347Y0033600D01*
X0130079Y0033600D01*
X0130079Y0037189D01*
X0129279Y0037989D01*
X0129279Y0039811D01*
X0130567Y0041100D01*
X0132390Y0041100D01*
X0133679Y0039811D01*
X0133679Y0037989D01*
X0133279Y0037589D01*
X0133279Y0032303D01*
X0132582Y0031097D01*
X0132582Y0031097D01*
X0132582Y0031097D01*
X0131375Y0030400D01*
X0130279Y0030400D01*
X0130207Y0030391D01*
X0130082Y0030318D01*
X0130009Y0030193D01*
X0130000Y0030121D01*
X0130000Y0024018D01*
X0135303Y0024018D01*
X0136005Y0023315D01*
X0136005Y0018696D01*
X0136039Y0018594D01*
X0136160Y0018451D01*
X0136309Y0018600D01*
X0138049Y0018600D01*
X0139279Y0017370D01*
X0139279Y0015630D01*
X0138049Y0014400D01*
X0136309Y0014400D01*
X0135916Y0014793D01*
X0134288Y0015369D01*
X0134288Y0015369D01*
X0134288Y0015369D01*
X0132838Y0017066D01*
X0132838Y0017066D01*
X0132828Y0017118D01*
X0128579Y0017118D01*
X0128579Y0015830D01*
X0127349Y0014600D01*
X0125609Y0014600D01*
X0124379Y0015830D01*
X0124379Y0017118D01*
X0120728Y0017118D01*
X0120728Y0014022D01*
X0120527Y0013821D01*
X0120527Y0013780D01*
X0120533Y0013774D01*
X0120559Y0013800D01*
X0122299Y0013800D01*
X0123529Y0012570D01*
X0123529Y0010830D01*
X0122299Y0009600D01*
X0120559Y0009600D01*
X0120392Y0009767D01*
X0120281Y0009775D01*
X0120025Y0009519D01*
X0117063Y0009519D01*
X0116466Y0010116D01*
X0116318Y0009859D01*
X0116057Y0009599D01*
X0115738Y0009414D01*
X0115382Y0009319D01*
X0114306Y0009319D01*
X0114306Y0011808D01*
X0114121Y0011808D01*
X0111829Y0011808D01*
X0111829Y0010535D01*
X0111925Y0010179D01*
X0112109Y0009859D01*
X0112370Y0009599D01*
X0112689Y0009414D01*
X0113045Y0009319D01*
X0114121Y0009319D01*
X0114121Y0011808D01*
X0114121Y0011992D01*
X0111829Y0011992D01*
X0111829Y0013265D01*
X0111925Y0013621D01*
X0112028Y0013800D01*
X0111925Y0013979D01*
X0111829Y0014335D01*
X0111829Y0015608D01*
X0114121Y0015608D01*
X0114121Y0015792D01*
X0111829Y0015792D01*
X0111829Y0016000D01*
X0111720Y0016000D01*
X0111379Y0015983D01*
X0111379Y0015430D01*
X0110649Y0014700D01*
X0111279Y0014070D01*
X0111279Y0012330D01*
X0110049Y0011100D01*
X0108309Y0011100D01*
X0107079Y0012330D01*
X0107079Y0014070D01*
X0107809Y0014800D01*
X0107179Y0015430D01*
X0107179Y0017170D01*
X0108096Y0018087D01*
X0108314Y0018499D01*
X0108314Y0018499D01*
X0108314Y0018499D01*
X0109699Y0019369D01*
X0109699Y0019369D01*
X0109849Y0019374D01*
X0109875Y0019400D01*
X0110547Y0019400D01*
X0110939Y0019414D01*
X0110952Y0019429D01*
X0110952Y0023315D01*
X0111655Y0024018D01*
X0112979Y0024018D01*
X0112979Y0031789D01*
X0112479Y0032289D01*
X0112479Y0034111D01*
X0113767Y0035400D01*
X0115590Y0035400D01*
X0116879Y0034111D01*
X0116879Y0032289D01*
X0116379Y0031789D01*
X0116379Y0024218D01*
X0116589Y0024218D01*
X0116589Y0020568D01*
X0116589Y0020568D01*
X0116589Y0024218D01*
X0117273Y0024218D01*
X0117629Y0024122D01*
X0117810Y0024018D01*
X0118779Y0024018D01*
X0118779Y0025684D01*
X0119663Y0027216D01*
X0119663Y0027216D01*
X0119663Y0027216D01*
X0121195Y0028100D01*
X0121567Y0028100D01*
X0122167Y0028700D01*
X0123990Y0028700D01*
X0124179Y0028511D01*
X0124179Y0038572D01*
X0124135Y0038867D01*
X0123828Y0039378D01*
X0123307Y0039666D01*
X0123307Y0039666D01*
X0123011Y0039700D01*
X0122994Y0039700D01*
X0122305Y0039688D01*
X0122292Y0039700D01*
X0119349Y0039700D01*
X0118949Y0039300D01*
X0117209Y0039300D01*
X0116979Y0039529D01*
X0116985Y0038912D01*
X0116979Y0038905D01*
X0116979Y0038896D01*
X0116486Y0038404D01*
X0111779Y0033605D01*
X0111779Y0033596D01*
X0111287Y0033104D01*
X0110799Y0032607D01*
X0110790Y0032607D01*
X0110783Y0032600D01*
X0110196Y0032600D01*
X0110196Y0025476D01*
X0109494Y0024773D01*
X0104682Y0024773D01*
X0104446Y0024738D01*
X0104036Y0024491D01*
X0103805Y0024072D01*
X0103779Y0023835D01*
X0103779Y0023816D01*
X0103792Y0023128D01*
X0103779Y0023115D01*
X0103779Y0021270D01*
X0104409Y0021900D01*
X0106149Y0021900D01*
X0107379Y0020670D01*
X0107379Y0018930D01*
X0106149Y0017700D01*
X0104409Y0017700D01*
X0103779Y0018330D01*
X0103779Y0014966D01*
X0103805Y0014938D01*
X0103779Y0014267D01*
X0103779Y0014213D01*
X0103833Y0013304D01*
X0104476Y0011563D01*
X0105736Y0010202D01*
X0107421Y0009426D01*
X0108335Y0009300D01*
X0197980Y0009300D01*
X0197984Y0009304D01*
X0198683Y0009300D01*
X0198688Y0009300D01*
X0199870Y0009387D01*
X0202120Y0010104D01*
X0204039Y0011482D01*
X0205437Y0013386D01*
X0205437Y0013386D01*
X0206179Y0015629D01*
X0206279Y0016809D01*
X0206279Y0050280D01*
X0205879Y0050680D01*
X0205879Y0052420D01*
X0207109Y0053650D01*
X0208849Y0053650D01*
X0210079Y0052420D01*
X0210079Y0050680D01*
X0209679Y0050280D01*
X0209679Y0029370D01*
X0210009Y0029700D01*
X0211749Y0029700D01*
X0212979Y0028470D01*
X0212979Y0026730D01*
X0211749Y0025500D01*
X0210009Y0025500D01*
X0209679Y0025830D01*
X0209679Y0017499D01*
X0209683Y0017495D01*
X0209679Y0016795D01*
X0209679Y0016096D01*
X0209675Y0016092D01*
X0209669Y0015056D01*
X0208580Y0011763D01*
X0206526Y0008968D01*
X0206526Y0008968D01*
X0206526Y0008968D01*
X0204482Y0007500D01*
X0217084Y0007500D01*
X0217091Y0007507D01*
X0217787Y0007500D01*
X0217796Y0007500D01*
X0219149Y0007593D01*
X0221731Y0008405D01*
X0223936Y0009974D01*
X0225548Y0012148D01*
X0226409Y0014714D01*
X0226529Y0016066D01*
X0226529Y0035139D01*
X0226029Y0035639D01*
X0226029Y0037461D01*
X0227317Y0038750D01*
X0229140Y0038750D01*
X0230429Y0037461D01*
X0230429Y0035639D01*
X0229929Y0035139D01*
X0229929Y0030820D01*
X0230409Y0031300D01*
X0232149Y0031300D01*
X0233379Y0030070D01*
X0233379Y0028330D01*
X0232149Y0027100D01*
X0230409Y0027100D01*
X0229929Y0027580D01*
X0229929Y0016745D01*
X0229935Y0016738D01*
X0229929Y0016041D01*
X0229929Y0015346D01*
X0229922Y0015339D01*
X0229910Y0014125D01*
X0229910Y0014125D01*
X0228696Y0010506D01*
X0228696Y0010506D01*
X0226422Y0007440D01*
X0226422Y0007440D01*
X0226422Y0007440D01*
X0223312Y0005226D01*
X0223312Y0005226D01*
X0219671Y0004082D01*
X0219671Y0004082D01*
X0217770Y0004100D01*
X0108671Y0004100D01*
X0108662Y0004091D01*
X0107969Y0004100D01*
X0107275Y0004100D01*
X0107266Y0004109D01*
X0106008Y0004124D01*
X0106008Y0004124D01*
X0102425Y0005661D01*
X0102425Y0005661D01*
X0099702Y0008451D01*
X0099702Y0008451D01*
X0098255Y0012072D01*
X0098255Y0012072D01*
X0098279Y0014010D01*
X0098279Y0027300D01*
X0097509Y0027300D01*
X0097049Y0027760D01*
X0096980Y0027641D01*
X0096719Y0027380D01*
X0096400Y0027196D01*
X0096044Y0027100D01*
X0094771Y0027100D01*
X0094771Y0029392D01*
X0094587Y0029392D01*
X0094587Y0027100D01*
X0093313Y0027100D01*
X0092957Y0027196D01*
X0092638Y0027380D01*
X0092377Y0027641D01*
X0092193Y0027960D01*
X0092098Y0028316D01*
X0092098Y0029392D01*
X0094587Y0029392D01*
X0094587Y0029577D01*
X0092098Y0029577D01*
X0092098Y0030653D01*
X0092193Y0031009D01*
X0092377Y0031329D01*
X0092638Y0031589D01*
X0092894Y0031737D01*
X0092298Y0032334D01*
X0092298Y0035169D01*
X0090982Y0035169D01*
X0090501Y0035650D01*
X0085828Y0035650D01*
X0085828Y0033788D01*
X0085082Y0031987D01*
X0083703Y0030609D01*
X0082454Y0030092D01*
X0083703Y0029574D01*
X0085082Y0028196D01*
X0085828Y0026395D01*
X0085828Y0024446D01*
X0085082Y0022645D01*
X0083703Y0021266D01*
X0081902Y0020520D01*
X0079953Y0020520D01*
X0078152Y0021266D01*
X0076774Y0022645D01*
X0076857Y0022561D02*
X0075933Y0022561D01*
X0076731Y0021763D02*
X0077656Y0021763D01*
X0077530Y0020964D02*
X0078881Y0020964D01*
X0078056Y0020166D02*
X0098279Y0020166D01*
X0098279Y0020964D02*
X0082974Y0020964D01*
X0084200Y0021763D02*
X0098279Y0021763D01*
X0098279Y0022561D02*
X0084998Y0022561D01*
X0085378Y0023360D02*
X0098279Y0023360D01*
X0098279Y0024158D02*
X0085708Y0024158D01*
X0085828Y0024957D02*
X0098279Y0024957D01*
X0098279Y0025755D02*
X0085828Y0025755D01*
X0085762Y0026554D02*
X0098279Y0026554D01*
X0097457Y0027352D02*
X0096671Y0027352D01*
X0094771Y0027352D02*
X0094587Y0027352D01*
X0094587Y0028151D02*
X0094771Y0028151D01*
X0094771Y0028949D02*
X0094587Y0028949D01*
X0092098Y0028949D02*
X0084328Y0028949D01*
X0085100Y0028151D02*
X0092142Y0028151D01*
X0092686Y0027352D02*
X0085431Y0027352D01*
X0083285Y0029748D02*
X0092098Y0029748D01*
X0092098Y0030546D02*
X0083552Y0030546D01*
X0084439Y0031345D02*
X0092394Y0031345D01*
X0092488Y0032143D02*
X0085146Y0032143D01*
X0085477Y0032942D02*
X0092298Y0032942D01*
X0092298Y0033740D02*
X0085808Y0033740D01*
X0085828Y0034539D02*
X0092298Y0034539D01*
X0090813Y0035337D02*
X0085828Y0035337D01*
X0077766Y0038532D02*
X0062679Y0038532D01*
X0062679Y0039330D02*
X0078521Y0039330D01*
X0077506Y0040129D02*
X0062679Y0040129D01*
X0062679Y0040927D02*
X0076746Y0040927D01*
X0076416Y0041726D02*
X0062679Y0041726D01*
X0062679Y0042524D02*
X0076085Y0042524D01*
X0076028Y0043323D02*
X0062679Y0043323D01*
X0062679Y0044121D02*
X0076028Y0044121D01*
X0076155Y0044920D02*
X0072824Y0044920D01*
X0073105Y0045036D02*
X0074108Y0046039D01*
X0074650Y0047349D01*
X0074650Y0048767D01*
X0074108Y0050078D01*
X0073105Y0051081D01*
X0071794Y0051624D01*
X0070376Y0051624D01*
X0069065Y0051081D01*
X0068062Y0050078D01*
X0067520Y0048767D01*
X0067520Y0047349D01*
X0068062Y0046039D01*
X0069065Y0045036D01*
X0070376Y0044493D01*
X0071794Y0044493D01*
X0073105Y0045036D01*
X0073787Y0045718D02*
X0076486Y0045718D01*
X0076878Y0046517D02*
X0074306Y0046517D01*
X0074636Y0047315D02*
X0077676Y0047315D01*
X0078931Y0048114D02*
X0074650Y0048114D01*
X0074590Y0048912D02*
X0077849Y0048912D01*
X0076999Y0049711D02*
X0074260Y0049711D01*
X0073676Y0050509D02*
X0076462Y0050509D01*
X0076108Y0051308D02*
X0072557Y0051308D01*
X0069613Y0051308D02*
X0062679Y0051308D01*
X0062679Y0052106D02*
X0075902Y0052106D01*
X0075879Y0053703D02*
X0062679Y0053703D01*
X0062679Y0052905D02*
X0080527Y0052905D01*
X0080528Y0053703D02*
X0081328Y0053703D01*
X0081328Y0052905D02*
X0088526Y0052905D01*
X0088986Y0053703D02*
X0085977Y0053703D01*
X0085795Y0054502D02*
X0087597Y0054502D01*
X0087029Y0055300D02*
X0085469Y0055300D01*
X0084965Y0056099D02*
X0087029Y0056099D01*
X0087447Y0056897D02*
X0084212Y0056897D01*
X0082905Y0057696D02*
X0088836Y0057696D01*
X0094129Y0058494D02*
X0078163Y0058494D01*
X0077863Y0057769D02*
X0079009Y0060537D01*
X0079009Y0063533D01*
X0077863Y0066300D01*
X0075745Y0068419D01*
X0072977Y0069565D01*
X0069981Y0069565D01*
X0067213Y0068419D01*
X0065095Y0066300D01*
X0063948Y0063533D01*
X0063948Y0060537D01*
X0065095Y0057769D01*
X0067213Y0055650D01*
X0069981Y0054504D01*
X0072977Y0054504D01*
X0075745Y0055650D01*
X0077863Y0057769D01*
X0077790Y0057696D02*
X0078950Y0057696D01*
X0077643Y0056897D02*
X0076991Y0056897D01*
X0076890Y0056099D02*
X0076193Y0056099D01*
X0076386Y0055300D02*
X0074899Y0055300D01*
X0076060Y0054502D02*
X0062679Y0054502D01*
X0062679Y0055300D02*
X0068058Y0055300D01*
X0066765Y0056099D02*
X0062679Y0056099D01*
X0062679Y0056897D02*
X0065966Y0056897D01*
X0065168Y0057696D02*
X0062679Y0057696D01*
X0062679Y0058494D02*
X0064794Y0058494D01*
X0064463Y0059293D02*
X0062679Y0059293D01*
X0062679Y0060091D02*
X0064133Y0060091D01*
X0063948Y0060890D02*
X0062679Y0060890D01*
X0062679Y0061688D02*
X0063948Y0061688D01*
X0063948Y0062487D02*
X0062679Y0062487D01*
X0062679Y0063285D02*
X0063948Y0063285D01*
X0064176Y0064084D02*
X0062679Y0064084D01*
X0062679Y0064882D02*
X0064507Y0064882D01*
X0064838Y0065681D02*
X0062679Y0065681D01*
X0062679Y0066479D02*
X0065273Y0066479D01*
X0066072Y0067278D02*
X0062679Y0067278D01*
X0062679Y0068076D02*
X0066871Y0068076D01*
X0068314Y0068875D02*
X0062679Y0068875D01*
X0062679Y0069673D02*
X0235479Y0069673D01*
X0235479Y0068875D02*
X0074643Y0068875D01*
X0076087Y0068076D02*
X0235479Y0068076D01*
X0235479Y0067278D02*
X0230232Y0067278D01*
X0230024Y0067486D02*
X0230915Y0066595D01*
X0231397Y0065430D01*
X0231397Y0064170D01*
X0230915Y0063005D01*
X0230024Y0062114D01*
X0228859Y0061631D01*
X0227598Y0061631D01*
X0226434Y0062114D01*
X0225543Y0063005D01*
X0225060Y0064170D01*
X0225060Y0065430D01*
X0225543Y0066595D01*
X0226434Y0067486D01*
X0227598Y0067968D01*
X0228859Y0067968D01*
X0230024Y0067486D01*
X0230963Y0066479D02*
X0235479Y0066479D01*
X0235479Y0065681D02*
X0231293Y0065681D01*
X0231397Y0064882D02*
X0235479Y0064882D01*
X0235479Y0064084D02*
X0231362Y0064084D01*
X0231031Y0063285D02*
X0235479Y0063285D01*
X0235479Y0062487D02*
X0230397Y0062487D01*
X0228996Y0061688D02*
X0235479Y0061688D01*
X0235479Y0060890D02*
X0199559Y0060890D01*
X0199579Y0060870D02*
X0198349Y0062100D01*
X0196609Y0062100D01*
X0195379Y0060870D01*
X0195379Y0059130D01*
X0196609Y0057900D01*
X0198349Y0057900D01*
X0199579Y0059130D01*
X0199579Y0060870D01*
X0199579Y0060091D02*
X0235479Y0060091D01*
X0235479Y0059293D02*
X0224500Y0059293D01*
X0224387Y0059406D02*
X0225334Y0058458D01*
X0225847Y0057220D01*
X0225847Y0055880D01*
X0225334Y0054642D01*
X0224387Y0053694D01*
X0223149Y0053181D01*
X0221809Y0053181D01*
X0220571Y0053694D01*
X0219623Y0054642D01*
X0219110Y0055880D01*
X0219110Y0057220D01*
X0219623Y0058458D01*
X0220571Y0059406D01*
X0221809Y0059918D01*
X0223149Y0059918D01*
X0224387Y0059406D01*
X0225298Y0058494D02*
X0235479Y0058494D01*
X0235479Y0057696D02*
X0225650Y0057696D01*
X0225847Y0056897D02*
X0235479Y0056897D01*
X0235479Y0056099D02*
X0232550Y0056099D01*
X0232449Y0056200D02*
X0230709Y0056200D01*
X0229479Y0054970D01*
X0229479Y0053230D01*
X0230709Y0052000D01*
X0232449Y0052000D01*
X0233679Y0053230D01*
X0233679Y0054970D01*
X0232449Y0056200D01*
X0233348Y0055300D02*
X0235479Y0055300D01*
X0235479Y0054502D02*
X0233679Y0054502D01*
X0233679Y0053703D02*
X0235479Y0053703D01*
X0235479Y0052905D02*
X0233353Y0052905D01*
X0232555Y0052106D02*
X0235479Y0052106D01*
X0235479Y0051308D02*
X0210079Y0051308D01*
X0210079Y0052106D02*
X0230603Y0052106D01*
X0229804Y0052905D02*
X0209594Y0052905D01*
X0211623Y0054642D02*
X0212571Y0053694D01*
X0213809Y0053181D01*
X0215149Y0053181D01*
X0216387Y0053694D01*
X0217334Y0054642D01*
X0217847Y0055880D01*
X0217847Y0057220D01*
X0217334Y0058458D01*
X0216387Y0059406D01*
X0215149Y0059918D01*
X0213809Y0059918D01*
X0212571Y0059406D01*
X0211623Y0058458D01*
X0211110Y0057220D01*
X0211110Y0055880D01*
X0211623Y0054642D01*
X0211763Y0054502D02*
X0191524Y0054502D01*
X0191509Y0055300D02*
X0211350Y0055300D01*
X0211110Y0056099D02*
X0191860Y0056099D01*
X0191860Y0056897D02*
X0211110Y0056897D01*
X0211307Y0057696D02*
X0191860Y0057696D01*
X0191830Y0058494D02*
X0196015Y0058494D01*
X0195379Y0059293D02*
X0191347Y0059293D01*
X0189371Y0059293D02*
X0189187Y0059293D01*
X0189187Y0058494D02*
X0189371Y0058494D01*
X0189371Y0057696D02*
X0189187Y0057696D01*
X0186698Y0057696D02*
X0180528Y0057696D01*
X0180528Y0058494D02*
X0186727Y0058494D01*
X0187211Y0059293D02*
X0180528Y0059293D01*
X0180148Y0060091D02*
X0195379Y0060091D01*
X0195399Y0060890D02*
X0175829Y0060890D01*
X0175829Y0061688D02*
X0196197Y0061688D01*
X0198760Y0061688D02*
X0227461Y0061688D01*
X0226061Y0062487D02*
X0175512Y0062487D01*
X0174713Y0063285D02*
X0225427Y0063285D01*
X0225096Y0064084D02*
X0169565Y0064084D01*
X0169549Y0064100D02*
X0167809Y0064100D01*
X0166579Y0062870D01*
X0166579Y0061130D01*
X0166679Y0061030D01*
X0166679Y0060997D01*
X0166516Y0060834D01*
X0166368Y0061091D01*
X0166107Y0061351D01*
X0165788Y0061536D01*
X0165432Y0061631D01*
X0164356Y0061631D01*
X0164356Y0059142D01*
X0164171Y0059142D01*
X0164171Y0058958D01*
X0161879Y0058958D01*
X0161879Y0057685D01*
X0161975Y0057329D01*
X0162159Y0057009D01*
X0162343Y0056825D01*
X0162159Y0056641D01*
X0161975Y0056321D01*
X0161879Y0055965D01*
X0161879Y0054692D01*
X0164171Y0054692D01*
X0164171Y0054508D01*
X0161879Y0054508D01*
X0161879Y0053235D01*
X0161975Y0052879D01*
X0162159Y0052559D01*
X0162420Y0052299D01*
X0162739Y0052114D01*
X0163095Y0052019D01*
X0164171Y0052019D01*
X0164171Y0054508D01*
X0164356Y0054508D01*
X0164356Y0052019D01*
X0165432Y0052019D01*
X0165788Y0052114D01*
X0166107Y0052299D01*
X0166368Y0052559D01*
X0166516Y0052816D01*
X0166779Y0052553D01*
X0166779Y0051715D01*
X0166555Y0051775D01*
X0165879Y0051775D01*
X0165879Y0048800D01*
X0165879Y0048800D01*
X0165879Y0045825D01*
X0166555Y0045825D01*
X0166911Y0045921D01*
X0167230Y0046105D01*
X0167320Y0046195D01*
X0167490Y0046025D01*
X0169468Y0046025D01*
X0169637Y0046195D01*
X0169727Y0046105D01*
X0170046Y0045921D01*
X0170402Y0045825D01*
X0171079Y0045825D01*
X0171079Y0048800D01*
X0171079Y0048800D01*
X0171079Y0051775D01*
X0170402Y0051775D01*
X0170179Y0051715D01*
X0170179Y0052322D01*
X0170778Y0052922D01*
X0170778Y0056278D01*
X0170594Y0056462D01*
X0170594Y0057188D01*
X0170778Y0057372D01*
X0170778Y0060728D01*
X0170679Y0060828D01*
X0170679Y0061030D01*
X0170779Y0061130D01*
X0170779Y0062870D01*
X0169549Y0064100D01*
X0170363Y0063285D02*
X0172744Y0063285D01*
X0171946Y0062487D02*
X0170779Y0062487D01*
X0170779Y0061688D02*
X0171629Y0061688D01*
X0171629Y0060890D02*
X0170679Y0060890D01*
X0170778Y0060091D02*
X0171968Y0060091D01*
X0171629Y0059293D02*
X0170778Y0059293D01*
X0170778Y0058494D02*
X0171629Y0058494D01*
X0171629Y0057696D02*
X0170778Y0057696D01*
X0170594Y0056897D02*
X0171629Y0056897D01*
X0171802Y0056099D02*
X0170778Y0056099D01*
X0170778Y0055300D02*
X0171629Y0055300D01*
X0171629Y0054502D02*
X0170778Y0054502D01*
X0170778Y0053703D02*
X0171629Y0053703D01*
X0171629Y0052905D02*
X0170761Y0052905D01*
X0170179Y0052106D02*
X0171645Y0052106D01*
X0171079Y0051308D02*
X0171079Y0051308D01*
X0171079Y0050509D02*
X0171079Y0050509D01*
X0171079Y0049711D02*
X0171079Y0049711D01*
X0171079Y0048912D02*
X0171079Y0048912D01*
X0171079Y0048114D02*
X0171079Y0048114D01*
X0171079Y0047315D02*
X0171079Y0047315D01*
X0171079Y0046517D02*
X0171079Y0046517D01*
X0174529Y0045718D02*
X0143661Y0045718D01*
X0143661Y0044920D02*
X0174379Y0044920D01*
X0174129Y0044121D02*
X0143661Y0044121D01*
X0152565Y0046517D02*
X0161579Y0046517D01*
X0161666Y0046366D02*
X0161927Y0046105D01*
X0162246Y0045921D01*
X0162602Y0045825D01*
X0163279Y0045825D01*
X0163955Y0045825D01*
X0164311Y0045921D01*
X0164579Y0046075D01*
X0164846Y0045921D01*
X0165202Y0045825D01*
X0165879Y0045825D01*
X0165879Y0048800D01*
X0165879Y0048800D01*
X0165879Y0051775D01*
X0165202Y0051775D01*
X0164846Y0051679D01*
X0164579Y0051525D01*
X0164311Y0051679D01*
X0163955Y0051775D01*
X0163279Y0051775D01*
X0163279Y0048800D01*
X0165879Y0048800D01*
X0163987Y0048800D01*
X0163279Y0048800D01*
X0163279Y0048800D01*
X0163279Y0048800D01*
X0163279Y0045825D01*
X0163279Y0048800D01*
X0163279Y0048800D01*
X0163279Y0051775D01*
X0162602Y0051775D01*
X0162246Y0051679D01*
X0161927Y0051495D01*
X0161666Y0051234D01*
X0161482Y0050915D01*
X0161387Y0050559D01*
X0161387Y0048800D01*
X0161387Y0047041D01*
X0161482Y0046685D01*
X0161666Y0046366D01*
X0161387Y0047315D02*
X0153129Y0047315D01*
X0153129Y0048114D02*
X0161387Y0048114D01*
X0161387Y0048800D02*
X0163279Y0048800D01*
X0163279Y0048800D01*
X0161387Y0048800D01*
X0161387Y0048912D02*
X0153036Y0048912D01*
X0152238Y0049711D02*
X0161387Y0049711D01*
X0161387Y0050509D02*
X0150981Y0050509D01*
X0151210Y0051308D02*
X0161740Y0051308D01*
X0162769Y0052106D02*
X0151210Y0052106D01*
X0151210Y0052905D02*
X0161968Y0052905D01*
X0161879Y0053703D02*
X0151138Y0053703D01*
X0150441Y0054502D02*
X0161879Y0054502D01*
X0161879Y0055300D02*
X0142260Y0055300D01*
X0142260Y0054502D02*
X0146816Y0054502D01*
X0146120Y0053703D02*
X0142056Y0053703D01*
X0141721Y0052905D02*
X0146048Y0052905D01*
X0146048Y0052106D02*
X0142060Y0052106D01*
X0142060Y0051308D02*
X0146048Y0051308D01*
X0146277Y0050509D02*
X0142060Y0050509D01*
X0137636Y0052905D02*
X0136005Y0052905D01*
X0136005Y0053703D02*
X0137301Y0053703D01*
X0137098Y0054502D02*
X0136005Y0054502D01*
X0136005Y0055300D02*
X0137098Y0055300D01*
X0137098Y0056099D02*
X0136005Y0056099D01*
X0135888Y0056897D02*
X0137182Y0056897D01*
X0137943Y0057696D02*
X0133678Y0057696D01*
X0133678Y0058494D02*
X0161879Y0058494D01*
X0161879Y0059142D02*
X0164171Y0059142D01*
X0164171Y0061631D01*
X0163095Y0061631D01*
X0162739Y0061536D01*
X0162420Y0061351D01*
X0162159Y0061091D01*
X0161975Y0060771D01*
X0161879Y0060415D01*
X0161879Y0059142D01*
X0161879Y0059293D02*
X0133678Y0059293D01*
X0133678Y0060091D02*
X0161879Y0060091D01*
X0162043Y0060890D02*
X0133553Y0060890D01*
X0133728Y0061688D02*
X0166579Y0061688D01*
X0166572Y0060890D02*
X0166484Y0060890D01*
X0164356Y0060890D02*
X0164171Y0060890D01*
X0164171Y0060091D02*
X0164356Y0060091D01*
X0164356Y0059293D02*
X0164171Y0059293D01*
X0164171Y0058958D02*
X0164356Y0058958D01*
X0164356Y0056469D01*
X0164356Y0054692D01*
X0164171Y0054692D01*
X0164171Y0058958D01*
X0164171Y0058494D02*
X0164356Y0058494D01*
X0164356Y0057696D02*
X0164171Y0057696D01*
X0164171Y0056897D02*
X0164356Y0056897D01*
X0164356Y0056099D02*
X0164171Y0056099D01*
X0164171Y0055300D02*
X0164356Y0055300D01*
X0164356Y0054502D02*
X0164171Y0054502D01*
X0164171Y0053703D02*
X0164356Y0053703D01*
X0164356Y0052905D02*
X0164171Y0052905D01*
X0164171Y0052106D02*
X0164356Y0052106D01*
X0163279Y0051308D02*
X0163279Y0051308D01*
X0163279Y0050509D02*
X0163279Y0050509D01*
X0163279Y0049711D02*
X0163279Y0049711D01*
X0163279Y0048912D02*
X0163279Y0048912D01*
X0163279Y0048114D02*
X0163279Y0048114D01*
X0163279Y0047315D02*
X0163279Y0047315D01*
X0163279Y0046517D02*
X0163279Y0046517D01*
X0165879Y0046517D02*
X0165879Y0046517D01*
X0165879Y0047315D02*
X0165879Y0047315D01*
X0165879Y0048114D02*
X0165879Y0048114D01*
X0165879Y0048800D02*
X0165879Y0048800D01*
X0165879Y0048912D02*
X0165879Y0048912D01*
X0165879Y0049711D02*
X0165879Y0049711D01*
X0165879Y0050509D02*
X0165879Y0050509D01*
X0165879Y0051308D02*
X0165879Y0051308D01*
X0165758Y0052106D02*
X0166779Y0052106D01*
X0168479Y0053771D02*
X0168452Y0053809D01*
X0168429Y0053849D01*
X0168408Y0053891D01*
X0168392Y0053934D01*
X0168378Y0053979D01*
X0168368Y0054024D01*
X0168362Y0054070D01*
X0168359Y0054117D01*
X0168360Y0054163D01*
X0168365Y0054210D01*
X0168373Y0054255D01*
X0168385Y0054300D01*
X0168400Y0054344D01*
X0168419Y0054387D01*
X0168440Y0054428D01*
X0168466Y0054467D01*
X0168494Y0054504D01*
X0168525Y0054539D01*
X0168558Y0054571D01*
X0168594Y0054600D01*
X0166594Y0056462D02*
X0166516Y0056384D01*
X0166368Y0056641D01*
X0166184Y0056825D01*
X0166368Y0057009D01*
X0166516Y0057266D01*
X0166594Y0057188D01*
X0166594Y0056462D01*
X0166594Y0056897D02*
X0166256Y0056897D01*
X0162271Y0056897D02*
X0142176Y0056897D01*
X0142260Y0056099D02*
X0161915Y0056099D01*
X0161879Y0057696D02*
X0141415Y0057696D01*
X0139771Y0057696D02*
X0139587Y0057696D01*
X0139587Y0056897D02*
X0139771Y0056897D01*
X0139771Y0056099D02*
X0139587Y0056099D01*
X0131386Y0059293D02*
X0131202Y0059293D01*
X0131202Y0060091D02*
X0131386Y0060091D01*
X0131386Y0060890D02*
X0131252Y0060890D01*
X0131252Y0061688D02*
X0131436Y0061688D01*
X0131436Y0062487D02*
X0131252Y0062487D01*
X0131252Y0063285D02*
X0131436Y0063285D01*
X0131436Y0064084D02*
X0131252Y0064084D01*
X0131252Y0064882D02*
X0131436Y0064882D01*
X0133357Y0064882D02*
X0225060Y0064882D01*
X0225164Y0065681D02*
X0095043Y0065681D01*
X0095147Y0065430D02*
X0094665Y0066595D01*
X0093774Y0067486D01*
X0092609Y0067968D01*
X0091348Y0067968D01*
X0090184Y0067486D01*
X0089293Y0066595D01*
X0088810Y0065430D01*
X0088810Y0064170D01*
X0089293Y0063005D01*
X0090184Y0062114D01*
X0091348Y0061631D01*
X0092609Y0061631D01*
X0093774Y0062114D01*
X0094665Y0063005D01*
X0095147Y0064170D01*
X0095147Y0065430D01*
X0095147Y0064882D02*
X0117651Y0064882D01*
X0117279Y0064084D02*
X0110965Y0064084D01*
X0111479Y0063570D02*
X0110249Y0064800D01*
X0108509Y0064800D01*
X0107279Y0063570D01*
X0107279Y0061830D01*
X0108509Y0060600D01*
X0110249Y0060600D01*
X0111479Y0061830D01*
X0111479Y0063570D01*
X0111479Y0063285D02*
X0117279Y0063285D01*
X0117279Y0062487D02*
X0111479Y0062487D01*
X0111337Y0061688D02*
X0117279Y0061688D01*
X0117455Y0060890D02*
X0110538Y0060890D01*
X0108219Y0060890D02*
X0097492Y0060890D01*
X0098290Y0060091D02*
X0117279Y0060091D01*
X0117279Y0059293D02*
X0104156Y0059293D01*
X0104954Y0058494D02*
X0117279Y0058494D01*
X0117279Y0057696D02*
X0105079Y0057696D01*
X0106187Y0056897D02*
X0106371Y0056897D01*
X0106371Y0056099D02*
X0106187Y0056099D01*
X0106187Y0055300D02*
X0100902Y0055300D01*
X0101279Y0054502D02*
X0103698Y0054502D01*
X0103815Y0053703D02*
X0101279Y0053703D01*
X0101987Y0052905D02*
X0102171Y0052905D01*
X0102171Y0052106D02*
X0101987Y0052106D01*
X0101987Y0051308D02*
X0102171Y0051308D01*
X0098079Y0051308D02*
X0097872Y0051308D01*
X0097879Y0051275D02*
X0097791Y0051717D01*
X0097619Y0052133D01*
X0097368Y0052507D01*
X0097050Y0052826D01*
X0096676Y0053076D01*
X0096260Y0053248D01*
X0095929Y0053314D01*
X0095929Y0053689D01*
X0096457Y0053689D01*
X0096843Y0054074D01*
X0097433Y0054074D01*
X0097533Y0054174D01*
X0097554Y0054174D01*
X0097690Y0054157D01*
X0097925Y0054021D01*
X0098061Y0053786D01*
X0098079Y0053650D01*
X0098079Y0047709D01*
X0097445Y0048013D01*
X0097433Y0048026D01*
X0097419Y0048026D01*
X0097387Y0048041D01*
X0097387Y0048041D01*
X0097294Y0048026D01*
X0096843Y0048026D01*
X0096457Y0048411D01*
X0095929Y0048411D01*
X0095929Y0048786D01*
X0096260Y0048852D01*
X0096676Y0049024D01*
X0097050Y0049274D01*
X0097368Y0049593D01*
X0097619Y0049967D01*
X0097791Y0050383D01*
X0097879Y0050825D01*
X0097879Y0051007D01*
X0092772Y0051007D01*
X0092772Y0051093D01*
X0097879Y0051093D01*
X0097879Y0051275D01*
X0097816Y0050509D02*
X0098079Y0050509D01*
X0098079Y0049711D02*
X0097447Y0049711D01*
X0098079Y0048912D02*
X0096405Y0048912D01*
X0096755Y0048114D02*
X0098079Y0048114D01*
X0102079Y0046735D02*
X0103117Y0046158D01*
X0101329Y0044200D02*
X0101250Y0044199D01*
X0101172Y0044203D01*
X0101094Y0044210D01*
X0101016Y0044221D01*
X0100939Y0044236D01*
X0100862Y0044254D01*
X0100787Y0044276D01*
X0100713Y0044302D01*
X0100640Y0044332D01*
X0100569Y0044365D01*
X0100499Y0044402D01*
X0100432Y0044442D01*
X0100366Y0044485D01*
X0100302Y0044531D01*
X0100241Y0044581D01*
X0100183Y0044633D01*
X0100127Y0044688D01*
X0100074Y0044746D01*
X0100023Y0044807D01*
X0099976Y0044869D01*
X0099932Y0044934D01*
X0099891Y0045002D01*
X0099854Y0045071D01*
X0099820Y0045141D01*
X0099789Y0045214D01*
X0099762Y0045288D01*
X0099739Y0045363D01*
X0099719Y0045439D01*
X0099703Y0045516D01*
X0099691Y0045593D01*
X0099683Y0045672D01*
X0099679Y0045750D01*
X0099679Y0053650D01*
X0098072Y0053703D02*
X0096472Y0053703D01*
X0096931Y0052905D02*
X0098079Y0052905D01*
X0098079Y0052106D02*
X0097630Y0052106D01*
X0099678Y0053650D02*
X0099676Y0053740D01*
X0099670Y0053830D01*
X0099661Y0053920D01*
X0099647Y0054009D01*
X0099630Y0054097D01*
X0099609Y0054185D01*
X0099585Y0054272D01*
X0099557Y0054358D01*
X0099525Y0054442D01*
X0099489Y0054525D01*
X0099451Y0054606D01*
X0099408Y0054686D01*
X0099363Y0054764D01*
X0099314Y0054839D01*
X0099262Y0054913D01*
X0099207Y0054984D01*
X0099148Y0055053D01*
X0099087Y0055120D01*
X0099024Y0055183D01*
X0098957Y0055244D01*
X0098888Y0055303D01*
X0098817Y0055358D01*
X0098743Y0055410D01*
X0098668Y0055459D01*
X0098590Y0055504D01*
X0098510Y0055547D01*
X0098429Y0055585D01*
X0098346Y0055621D01*
X0098262Y0055653D01*
X0098176Y0055681D01*
X0098089Y0055705D01*
X0098001Y0055726D01*
X0097913Y0055743D01*
X0097824Y0055757D01*
X0097734Y0055766D01*
X0097644Y0055772D01*
X0097554Y0055774D01*
X0096729Y0055774D01*
X0099379Y0056897D02*
X0100879Y0056897D01*
X0100879Y0057696D02*
X0098677Y0057696D01*
X0098729Y0058494D02*
X0101003Y0058494D01*
X0101802Y0059293D02*
X0098729Y0059293D01*
X0095366Y0060890D02*
X0079009Y0060890D01*
X0079009Y0061688D02*
X0091211Y0061688D01*
X0092746Y0061688D02*
X0107421Y0061688D01*
X0107279Y0062487D02*
X0094147Y0062487D01*
X0094781Y0063285D02*
X0107279Y0063285D01*
X0107793Y0064084D02*
X0095112Y0064084D01*
X0089811Y0062487D02*
X0079009Y0062487D01*
X0079009Y0063285D02*
X0089177Y0063285D01*
X0088846Y0064084D02*
X0078781Y0064084D01*
X0078450Y0064882D02*
X0088810Y0064882D01*
X0088914Y0065681D02*
X0078120Y0065681D01*
X0077684Y0066479D02*
X0089245Y0066479D01*
X0089976Y0067278D02*
X0076885Y0067278D01*
X0062679Y0070472D02*
X0235479Y0070472D01*
X0235479Y0071270D02*
X0062679Y0071270D01*
X0062679Y0072069D02*
X0235479Y0072069D01*
X0235479Y0072868D02*
X0062679Y0072868D01*
X0062679Y0073666D02*
X0235479Y0073666D01*
X0226226Y0067278D02*
X0093982Y0067278D01*
X0094713Y0066479D02*
X0225495Y0066479D01*
X0220458Y0059293D02*
X0216500Y0059293D01*
X0217298Y0058494D02*
X0219659Y0058494D01*
X0219307Y0057696D02*
X0217650Y0057696D01*
X0217847Y0056897D02*
X0219110Y0056897D01*
X0219110Y0056099D02*
X0217847Y0056099D01*
X0217607Y0055300D02*
X0219350Y0055300D01*
X0219763Y0054502D02*
X0217194Y0054502D01*
X0216396Y0053703D02*
X0220562Y0053703D01*
X0224396Y0053703D02*
X0229479Y0053703D01*
X0229479Y0054502D02*
X0225194Y0054502D01*
X0225607Y0055300D02*
X0229809Y0055300D01*
X0230608Y0056099D02*
X0225847Y0056099D01*
X0235479Y0050509D02*
X0209908Y0050509D01*
X0209679Y0049711D02*
X0235479Y0049711D01*
X0235479Y0048912D02*
X0209679Y0048912D01*
X0209679Y0048114D02*
X0226931Y0048114D01*
X0227567Y0048750D02*
X0226279Y0047461D01*
X0226279Y0045639D01*
X0227567Y0044350D01*
X0229390Y0044350D01*
X0230679Y0045639D01*
X0230679Y0047461D01*
X0229390Y0048750D01*
X0227567Y0048750D01*
X0230026Y0048114D02*
X0235479Y0048114D01*
X0235479Y0047315D02*
X0230679Y0047315D01*
X0230679Y0046517D02*
X0235479Y0046517D01*
X0235479Y0045718D02*
X0230679Y0045718D01*
X0229960Y0044920D02*
X0235479Y0044920D01*
X0235479Y0044121D02*
X0209679Y0044121D01*
X0209679Y0043323D02*
X0235479Y0043323D01*
X0235479Y0042524D02*
X0209679Y0042524D01*
X0209679Y0041726D02*
X0235479Y0041726D01*
X0235479Y0040927D02*
X0209679Y0040927D01*
X0209679Y0040129D02*
X0235479Y0040129D01*
X0235479Y0039330D02*
X0209679Y0039330D01*
X0209679Y0038532D02*
X0227099Y0038532D01*
X0226300Y0037733D02*
X0209679Y0037733D01*
X0209679Y0036934D02*
X0226029Y0036934D01*
X0226029Y0036136D02*
X0209679Y0036136D01*
X0209679Y0035337D02*
X0226330Y0035337D01*
X0226529Y0034539D02*
X0209679Y0034539D01*
X0209679Y0033740D02*
X0226529Y0033740D01*
X0226529Y0032942D02*
X0209679Y0032942D01*
X0209679Y0032143D02*
X0226529Y0032143D01*
X0226529Y0031345D02*
X0209679Y0031345D01*
X0209679Y0030546D02*
X0226529Y0030546D01*
X0226529Y0029748D02*
X0219561Y0029748D01*
X0219149Y0029918D02*
X0217809Y0029918D01*
X0216571Y0029406D01*
X0215623Y0028458D01*
X0215110Y0027220D01*
X0215110Y0025880D01*
X0215623Y0024642D01*
X0216571Y0023694D01*
X0217809Y0023181D01*
X0219149Y0023181D01*
X0220387Y0023694D01*
X0221334Y0024642D01*
X0221847Y0025880D01*
X0221847Y0027220D01*
X0221334Y0028458D01*
X0220387Y0029406D01*
X0219149Y0029918D01*
X0217397Y0029748D02*
X0209679Y0029748D01*
X0212499Y0028949D02*
X0216114Y0028949D01*
X0215496Y0028151D02*
X0212979Y0028151D01*
X0212979Y0027352D02*
X0215165Y0027352D01*
X0215110Y0026554D02*
X0212802Y0026554D01*
X0212004Y0025755D02*
X0215162Y0025755D01*
X0215493Y0024957D02*
X0209679Y0024957D01*
X0209679Y0025755D02*
X0209754Y0025755D01*
X0206279Y0025755D02*
X0198779Y0025755D01*
X0198779Y0024957D02*
X0206279Y0024957D01*
X0206279Y0024158D02*
X0198779Y0024158D01*
X0198779Y0023360D02*
X0206279Y0023360D01*
X0206279Y0022561D02*
X0198878Y0022561D01*
X0198878Y0021763D02*
X0206279Y0021763D01*
X0206279Y0020964D02*
X0198878Y0020964D01*
X0198878Y0020166D02*
X0206279Y0020166D01*
X0206279Y0019367D02*
X0198874Y0019367D01*
X0193729Y0017370D02*
X0192499Y0018600D01*
X0190759Y0018600D01*
X0189529Y0017370D01*
X0189529Y0015630D01*
X0190759Y0014400D01*
X0192499Y0014400D01*
X0193729Y0015630D01*
X0193729Y0017370D01*
X0193729Y0016972D02*
X0206279Y0016972D01*
X0206279Y0017770D02*
X0193328Y0017770D01*
X0192530Y0018569D02*
X0206279Y0018569D01*
X0209679Y0018569D02*
X0226529Y0018569D01*
X0226529Y0019367D02*
X0209679Y0019367D01*
X0209679Y0020166D02*
X0226529Y0020166D01*
X0226529Y0020964D02*
X0209679Y0020964D01*
X0209679Y0021763D02*
X0226529Y0021763D01*
X0226529Y0022561D02*
X0209679Y0022561D01*
X0209679Y0023360D02*
X0217378Y0023360D01*
X0216107Y0024158D02*
X0209679Y0024158D01*
X0206279Y0026554D02*
X0204452Y0026554D01*
X0204349Y0026450D02*
X0205579Y0027680D01*
X0205579Y0029420D01*
X0204349Y0030650D01*
X0202609Y0030650D01*
X0201379Y0029420D01*
X0201379Y0027680D01*
X0202609Y0026450D01*
X0204349Y0026450D01*
X0205251Y0027352D02*
X0206279Y0027352D01*
X0206279Y0028151D02*
X0205579Y0028151D01*
X0205579Y0028949D02*
X0206279Y0028949D01*
X0206279Y0029748D02*
X0205251Y0029748D01*
X0204452Y0030546D02*
X0206279Y0030546D01*
X0206279Y0031345D02*
X0196179Y0031345D01*
X0196179Y0030546D02*
X0202505Y0030546D01*
X0201707Y0029748D02*
X0196179Y0029748D01*
X0196179Y0028949D02*
X0201379Y0028949D01*
X0201379Y0028151D02*
X0198492Y0028151D01*
X0198771Y0027352D02*
X0201707Y0027352D01*
X0202505Y0026554D02*
X0198771Y0026554D01*
X0194807Y0023025D02*
X0194251Y0023025D01*
X0194529Y0022747D01*
X0194807Y0023025D01*
X0189279Y0023360D02*
X0189279Y0023360D01*
X0189279Y0024158D02*
X0189279Y0024158D01*
X0189279Y0024957D02*
X0189279Y0024957D01*
X0189279Y0025755D02*
X0189279Y0025755D01*
X0189279Y0026554D02*
X0189279Y0026554D01*
X0189279Y0027352D02*
X0189279Y0027352D01*
X0189279Y0028151D02*
X0189279Y0028151D01*
X0189879Y0028949D02*
X0188539Y0028949D01*
X0188879Y0029748D02*
X0189879Y0029748D01*
X0190005Y0030546D02*
X0188879Y0030546D01*
X0188645Y0031345D02*
X0190804Y0031345D01*
X0190165Y0032143D02*
X0187847Y0032143D01*
X0189879Y0032942D02*
X0183158Y0032942D01*
X0183179Y0032143D02*
X0185511Y0032143D01*
X0184712Y0031345D02*
X0183179Y0031345D01*
X0183179Y0030546D02*
X0184479Y0030546D01*
X0184479Y0029748D02*
X0183179Y0029748D01*
X0183179Y0028949D02*
X0184818Y0028949D01*
X0191879Y0029650D02*
X0191881Y0029633D01*
X0191885Y0029616D01*
X0191892Y0029600D01*
X0191902Y0029586D01*
X0191915Y0029573D01*
X0191929Y0029563D01*
X0191945Y0029556D01*
X0191962Y0029552D01*
X0191979Y0029550D01*
X0196053Y0032143D02*
X0206279Y0032143D01*
X0206279Y0032942D02*
X0195592Y0032942D01*
X0195131Y0033740D02*
X0206279Y0033740D01*
X0206279Y0034539D02*
X0193903Y0034539D01*
X0193809Y0034700D02*
X0195549Y0034700D01*
X0196779Y0035930D01*
X0196779Y0037670D01*
X0195549Y0038900D01*
X0193809Y0038900D01*
X0192579Y0037670D01*
X0192579Y0035930D01*
X0193809Y0034700D01*
X0193171Y0035337D02*
X0192911Y0035337D01*
X0192579Y0036136D02*
X0182120Y0036136D01*
X0182380Y0035337D02*
X0191046Y0035337D01*
X0190248Y0034539D02*
X0182639Y0034539D01*
X0182899Y0033740D02*
X0189879Y0033740D01*
X0192579Y0036934D02*
X0181819Y0036934D01*
X0181239Y0037733D02*
X0192642Y0037733D01*
X0193440Y0038532D02*
X0180659Y0038532D01*
X0180079Y0039330D02*
X0206279Y0039330D01*
X0206279Y0038532D02*
X0195917Y0038532D01*
X0196716Y0037733D02*
X0206279Y0037733D01*
X0206279Y0036934D02*
X0196779Y0036934D01*
X0196779Y0036136D02*
X0206279Y0036136D01*
X0206279Y0035337D02*
X0196186Y0035337D01*
X0206279Y0040129D02*
X0179499Y0040129D01*
X0178442Y0040927D02*
X0206279Y0040927D01*
X0206279Y0041726D02*
X0177343Y0041726D01*
X0177923Y0042524D02*
X0190985Y0042524D01*
X0190186Y0043323D02*
X0178329Y0043323D01*
X0178329Y0044121D02*
X0189779Y0044121D01*
X0189779Y0044920D02*
X0178079Y0044920D01*
X0177929Y0045718D02*
X0190027Y0045718D01*
X0189279Y0045825D02*
X0189279Y0048800D01*
X0189279Y0048800D01*
X0189279Y0045825D01*
X0189279Y0046517D02*
X0189279Y0046517D01*
X0189279Y0047315D02*
X0189279Y0047315D01*
X0189279Y0048114D02*
X0189279Y0048114D01*
X0186679Y0048800D02*
X0186679Y0051000D01*
X0186681Y0051083D01*
X0186687Y0051166D01*
X0186696Y0051249D01*
X0186710Y0051331D01*
X0186727Y0051412D01*
X0186748Y0051493D01*
X0186772Y0051572D01*
X0186801Y0051650D01*
X0186832Y0051727D01*
X0186868Y0051802D01*
X0186906Y0051876D01*
X0186949Y0051948D01*
X0186994Y0052017D01*
X0187043Y0052085D01*
X0187094Y0052150D01*
X0187149Y0052213D01*
X0187206Y0052273D01*
X0187266Y0052330D01*
X0187329Y0052385D01*
X0187394Y0052436D01*
X0187462Y0052485D01*
X0187531Y0052530D01*
X0187603Y0052573D01*
X0187677Y0052611D01*
X0187752Y0052647D01*
X0187829Y0052678D01*
X0187907Y0052707D01*
X0187986Y0052731D01*
X0188067Y0052752D01*
X0188148Y0052769D01*
X0188230Y0052783D01*
X0188313Y0052792D01*
X0188396Y0052798D01*
X0188479Y0052800D01*
X0189279Y0052885D01*
X0188479Y0052800D02*
X0190479Y0052800D01*
X0192516Y0053703D02*
X0212562Y0053703D01*
X0206364Y0052905D02*
X0193132Y0052905D01*
X0192748Y0053569D02*
X0192748Y0053569D01*
X0192748Y0053569D01*
X0193579Y0052106D02*
X0205879Y0052106D01*
X0205879Y0051308D02*
X0198618Y0051308D01*
X0198971Y0050509D02*
X0206050Y0050509D01*
X0206279Y0049711D02*
X0198971Y0049711D01*
X0198971Y0048912D02*
X0206279Y0048912D01*
X0206279Y0048114D02*
X0198971Y0048114D01*
X0198971Y0047315D02*
X0206279Y0047315D01*
X0206279Y0046517D02*
X0198778Y0046517D01*
X0197079Y0046517D02*
X0197079Y0046517D01*
X0197079Y0047315D02*
X0197079Y0047315D01*
X0197079Y0048114D02*
X0197079Y0048114D01*
X0197079Y0048800D02*
X0197079Y0048800D01*
X0197079Y0048912D02*
X0197079Y0048912D01*
X0197079Y0049711D02*
X0197079Y0049711D01*
X0197079Y0050509D02*
X0197079Y0050509D01*
X0197079Y0051308D02*
X0197079Y0051308D01*
X0194479Y0051308D02*
X0194479Y0051308D01*
X0194479Y0050509D02*
X0194479Y0050509D01*
X0194479Y0049711D02*
X0194479Y0049711D01*
X0194479Y0048912D02*
X0194479Y0048912D01*
X0194479Y0048114D02*
X0194479Y0048114D01*
X0194479Y0047315D02*
X0194479Y0047315D01*
X0194479Y0046517D02*
X0194479Y0046517D01*
X0193730Y0045718D02*
X0206279Y0045718D01*
X0206279Y0044920D02*
X0193979Y0044920D01*
X0193979Y0044121D02*
X0206279Y0044121D01*
X0206279Y0043323D02*
X0193571Y0043323D01*
X0192773Y0042524D02*
X0206279Y0042524D01*
X0209679Y0044920D02*
X0226998Y0044920D01*
X0226279Y0045718D02*
X0209679Y0045718D01*
X0209679Y0046517D02*
X0226279Y0046517D01*
X0226279Y0047315D02*
X0209679Y0047315D01*
X0191979Y0048900D02*
X0191879Y0048900D01*
X0191879Y0048800D02*
X0191896Y0048802D01*
X0191913Y0048806D01*
X0191929Y0048813D01*
X0191943Y0048823D01*
X0191956Y0048836D01*
X0191966Y0048850D01*
X0191973Y0048866D01*
X0191977Y0048883D01*
X0191979Y0048900D01*
X0191979Y0051300D01*
X0191977Y0051376D01*
X0191971Y0051452D01*
X0191962Y0051527D01*
X0191948Y0051602D01*
X0191931Y0051676D01*
X0191910Y0051749D01*
X0191886Y0051821D01*
X0191857Y0051892D01*
X0191826Y0051961D01*
X0191791Y0052028D01*
X0191752Y0052093D01*
X0191710Y0052157D01*
X0191665Y0052218D01*
X0191617Y0052277D01*
X0191566Y0052333D01*
X0191512Y0052387D01*
X0191456Y0052438D01*
X0191397Y0052486D01*
X0191336Y0052531D01*
X0191272Y0052573D01*
X0191207Y0052612D01*
X0191140Y0052647D01*
X0191071Y0052678D01*
X0191000Y0052707D01*
X0190928Y0052731D01*
X0190855Y0052752D01*
X0190781Y0052769D01*
X0190706Y0052783D01*
X0190631Y0052792D01*
X0190555Y0052798D01*
X0190479Y0052800D01*
X0187033Y0054502D02*
X0180528Y0054502D01*
X0180528Y0053703D02*
X0186361Y0053703D01*
X0185990Y0053489D02*
X0185990Y0053489D01*
X0185652Y0052905D02*
X0180528Y0052905D01*
X0180440Y0052106D02*
X0185191Y0052106D01*
X0184079Y0051308D02*
X0184079Y0051308D01*
X0184079Y0050509D02*
X0184079Y0050509D01*
X0184079Y0049711D02*
X0184079Y0049711D01*
X0184079Y0048912D02*
X0184079Y0048912D01*
X0184079Y0048114D02*
X0184079Y0048114D01*
X0184079Y0047315D02*
X0184079Y0047315D01*
X0184079Y0046517D02*
X0184079Y0046517D01*
X0181479Y0046517D02*
X0181479Y0046517D01*
X0181479Y0047315D02*
X0181479Y0047315D01*
X0181479Y0048114D02*
X0181479Y0048114D01*
X0181479Y0048912D02*
X0181479Y0048912D01*
X0181479Y0049711D02*
X0181479Y0049711D01*
X0181479Y0050509D02*
X0181479Y0050509D01*
X0181479Y0051308D02*
X0181479Y0051308D01*
X0176224Y0051575D02*
X0175451Y0051575D01*
X0175892Y0052016D01*
X0176040Y0051759D01*
X0176224Y0051575D01*
X0173813Y0053799D02*
X0173797Y0053809D01*
X0173779Y0053815D01*
X0173760Y0053818D01*
X0173742Y0053817D01*
X0173723Y0053812D01*
X0173706Y0053804D01*
X0173691Y0053793D01*
X0173679Y0053779D01*
X0173679Y0053780D02*
X0173679Y0048800D01*
X0176229Y0048750D02*
X0176231Y0048763D01*
X0176236Y0048775D01*
X0176244Y0048785D01*
X0176254Y0048793D01*
X0176266Y0048798D01*
X0176279Y0048800D01*
X0173813Y0053800D02*
X0173813Y0057950D01*
X0173699Y0061270D01*
X0173729Y0061300D01*
X0175534Y0060091D02*
X0176140Y0060091D01*
X0178052Y0060091D02*
X0178236Y0060091D01*
X0178236Y0059293D02*
X0178052Y0059293D01*
X0178052Y0058494D02*
X0178236Y0058494D01*
X0178236Y0057696D02*
X0178052Y0057696D01*
X0178052Y0056897D02*
X0178236Y0056897D01*
X0178236Y0056099D02*
X0178052Y0056099D01*
X0178052Y0055300D02*
X0178236Y0055300D01*
X0178236Y0054502D02*
X0178052Y0054502D01*
X0176074Y0055875D02*
X0176040Y0055841D01*
X0175892Y0055584D01*
X0175601Y0055875D01*
X0175892Y0056166D01*
X0176040Y0055909D01*
X0176074Y0055875D01*
X0175930Y0056099D02*
X0175825Y0056099D01*
X0180358Y0056099D02*
X0186698Y0056099D01*
X0186698Y0056897D02*
X0180528Y0056897D01*
X0180492Y0055300D02*
X0187049Y0055300D01*
X0198943Y0058494D02*
X0211659Y0058494D01*
X0212458Y0059293D02*
X0199579Y0059293D01*
X0167793Y0064084D02*
X0133728Y0064084D01*
X0133728Y0063285D02*
X0166994Y0063285D01*
X0166579Y0062487D02*
X0133728Y0062487D01*
X0129191Y0060793D02*
X0129190Y0060791D01*
X0129042Y0060534D01*
X0128851Y0060725D01*
X0129092Y0060966D01*
X0129191Y0060793D01*
X0129135Y0060890D02*
X0129016Y0060890D01*
X0124463Y0058505D02*
X0124427Y0058496D01*
X0124391Y0058490D01*
X0124354Y0058488D01*
X0124318Y0058489D01*
X0124281Y0058495D01*
X0124246Y0058503D01*
X0124211Y0058515D01*
X0124178Y0058531D01*
X0124146Y0058549D01*
X0124116Y0058571D01*
X0124089Y0058595D01*
X0124064Y0058622D01*
X0124042Y0058651D01*
X0124023Y0058683D01*
X0124007Y0058716D01*
X0123994Y0058750D01*
X0119756Y0058842D02*
X0119571Y0058842D01*
X0119571Y0062658D01*
X0119756Y0062658D01*
X0119756Y0061331D01*
X0119756Y0058842D01*
X0119756Y0059293D02*
X0119571Y0059293D01*
X0119571Y0060091D02*
X0119756Y0060091D01*
X0119756Y0060890D02*
X0119571Y0060890D01*
X0119571Y0061688D02*
X0119756Y0061688D01*
X0119756Y0062487D02*
X0119571Y0062487D01*
X0119571Y0063285D02*
X0119756Y0063285D01*
X0119756Y0064084D02*
X0119571Y0064084D01*
X0119571Y0064882D02*
X0119756Y0064882D01*
X0121676Y0064882D02*
X0122264Y0064882D01*
X0123994Y0062750D02*
X0124021Y0062721D01*
X0124046Y0062689D01*
X0124068Y0062656D01*
X0124087Y0062620D01*
X0124102Y0062583D01*
X0124114Y0062545D01*
X0124122Y0062506D01*
X0124127Y0062466D01*
X0124128Y0062426D01*
X0124125Y0062386D01*
X0124119Y0062346D01*
X0124109Y0062308D01*
X0124095Y0062270D01*
X0124078Y0062234D01*
X0124058Y0062199D01*
X0124034Y0062167D01*
X0124008Y0062136D01*
X0122003Y0060879D02*
X0122002Y0060620D01*
X0121916Y0060534D01*
X0121791Y0060750D01*
X0121916Y0060966D01*
X0122003Y0060879D01*
X0121992Y0060890D02*
X0121872Y0060890D01*
X0128743Y0064882D02*
X0129331Y0064882D01*
X0114621Y0056897D02*
X0114620Y0056897D01*
X0114620Y0056099D02*
X0114621Y0056099D01*
X0114620Y0055300D02*
X0114621Y0055300D01*
X0114620Y0054502D02*
X0114621Y0054502D01*
X0114620Y0053703D02*
X0114621Y0053703D01*
X0114620Y0052905D02*
X0114621Y0052905D01*
X0114620Y0052106D02*
X0114621Y0052106D01*
X0114620Y0051308D02*
X0114621Y0051308D01*
X0114620Y0050509D02*
X0114621Y0050509D01*
X0114889Y0049711D02*
X0114172Y0049711D01*
X0113526Y0050509D02*
X0108660Y0050509D01*
X0108660Y0051308D02*
X0110952Y0051308D01*
X0110952Y0052106D02*
X0108660Y0052106D01*
X0108171Y0052905D02*
X0110952Y0052905D01*
X0110952Y0053703D02*
X0108743Y0053703D01*
X0108860Y0054502D02*
X0110952Y0054502D01*
X0110952Y0055300D02*
X0106371Y0055300D01*
X0108860Y0056099D02*
X0110952Y0056099D01*
X0111070Y0056897D02*
X0108702Y0056897D01*
X0101410Y0056099D02*
X0100441Y0056099D01*
X0104383Y0052905D02*
X0104386Y0052905D01*
X0114971Y0048912D02*
X0115462Y0048912D01*
X0115769Y0048114D02*
X0116261Y0048114D01*
X0116568Y0047315D02*
X0117059Y0047315D01*
X0116979Y0046517D02*
X0117858Y0046517D01*
X0118656Y0045718D02*
X0116979Y0045718D01*
X0113579Y0045496D02*
X0113579Y0042896D01*
X0113579Y0040295D01*
X0113269Y0039979D01*
X0112979Y0040270D01*
X0112979Y0045304D01*
X0111983Y0046300D01*
X0111856Y0046427D01*
X0112648Y0046427D01*
X0113579Y0045496D01*
X0113356Y0045718D02*
X0112565Y0045718D01*
X0112979Y0044920D02*
X0113579Y0044920D01*
X0113579Y0044121D02*
X0112979Y0044121D01*
X0112979Y0043323D02*
X0113579Y0043323D01*
X0113579Y0042524D02*
X0112979Y0042524D01*
X0112979Y0041726D02*
X0113579Y0041726D01*
X0113579Y0040927D02*
X0112979Y0040927D01*
X0113120Y0040129D02*
X0113416Y0040129D01*
X0115829Y0037733D02*
X0124179Y0037733D01*
X0124179Y0036934D02*
X0115045Y0036934D01*
X0114262Y0036136D02*
X0124179Y0036136D01*
X0124179Y0035337D02*
X0115653Y0035337D01*
X0116451Y0034539D02*
X0124179Y0034539D01*
X0124179Y0033740D02*
X0116879Y0033740D01*
X0116879Y0032942D02*
X0124179Y0032942D01*
X0124179Y0032143D02*
X0116733Y0032143D01*
X0116379Y0031345D02*
X0124179Y0031345D01*
X0124179Y0030546D02*
X0116379Y0030546D01*
X0116379Y0029748D02*
X0124179Y0029748D01*
X0124179Y0028949D02*
X0116379Y0028949D01*
X0116379Y0028151D02*
X0121618Y0028151D01*
X0119900Y0027352D02*
X0116379Y0027352D01*
X0116379Y0026554D02*
X0119281Y0026554D01*
X0118820Y0025755D02*
X0116379Y0025755D01*
X0116379Y0024957D02*
X0118779Y0024957D01*
X0118779Y0024158D02*
X0117495Y0024158D01*
X0116589Y0024158D02*
X0116589Y0024158D01*
X0116589Y0023360D02*
X0116589Y0023360D01*
X0116589Y0022561D02*
X0116589Y0022561D01*
X0116589Y0021763D02*
X0116589Y0021763D01*
X0116589Y0020964D02*
X0116589Y0020964D01*
X0114678Y0020626D02*
X0114677Y0020613D01*
X0114672Y0020601D01*
X0114665Y0020590D01*
X0114656Y0020581D01*
X0114645Y0020574D01*
X0114633Y0020569D01*
X0114620Y0020568D01*
X0110952Y0020964D02*
X0107084Y0020964D01*
X0107379Y0020166D02*
X0110952Y0020166D01*
X0109697Y0019367D02*
X0107379Y0019367D01*
X0107017Y0018569D02*
X0108425Y0018569D01*
X0107779Y0017770D02*
X0106219Y0017770D01*
X0107179Y0016972D02*
X0103779Y0016972D01*
X0103779Y0017770D02*
X0104339Y0017770D01*
X0103779Y0016173D02*
X0107179Y0016173D01*
X0107234Y0015375D02*
X0103779Y0015375D01*
X0103791Y0014576D02*
X0107585Y0014576D01*
X0107079Y0013778D02*
X0103805Y0013778D01*
X0103953Y0012979D02*
X0107079Y0012979D01*
X0107228Y0012181D02*
X0104248Y0012181D01*
X0104644Y0011382D02*
X0108027Y0011382D01*
X0110331Y0011382D02*
X0111829Y0011382D01*
X0111829Y0010584D02*
X0105383Y0010584D01*
X0106641Y0009785D02*
X0112183Y0009785D01*
X0114121Y0009785D02*
X0114306Y0009785D01*
X0114306Y0010584D02*
X0114121Y0010584D01*
X0114121Y0011382D02*
X0114306Y0011382D01*
X0114306Y0011992D02*
X0114121Y0011992D01*
X0114121Y0014481D01*
X0114121Y0015608D01*
X0114306Y0015608D01*
X0114306Y0011992D01*
X0114306Y0012181D02*
X0114121Y0012181D01*
X0114121Y0012979D02*
X0114306Y0012979D01*
X0114306Y0013778D02*
X0114121Y0013778D01*
X0114121Y0014576D02*
X0114306Y0014576D01*
X0114306Y0015375D02*
X0114121Y0015375D01*
X0111829Y0015375D02*
X0111323Y0015375D01*
X0111829Y0014576D02*
X0110772Y0014576D01*
X0111279Y0013778D02*
X0112015Y0013778D01*
X0111829Y0012979D02*
X0111279Y0012979D01*
X0111129Y0012181D02*
X0111829Y0012181D01*
X0116399Y0013800D02*
X0116466Y0013916D01*
X0116527Y0013854D01*
X0116526Y0013745D01*
X0116466Y0013684D01*
X0116399Y0013800D01*
X0116412Y0013778D02*
X0116527Y0013778D01*
X0120529Y0013778D02*
X0120537Y0013778D01*
X0120728Y0014576D02*
X0136133Y0014576D01*
X0136791Y0013778D02*
X0136859Y0013778D01*
X0138225Y0014576D02*
X0140051Y0014576D01*
X0140029Y0015375D02*
X0139023Y0015375D01*
X0139279Y0016173D02*
X0140029Y0016173D01*
X0140029Y0016972D02*
X0139279Y0016972D01*
X0138878Y0017770D02*
X0140029Y0017770D01*
X0140500Y0018569D02*
X0138080Y0018569D01*
X0137351Y0019367D02*
X0136005Y0019367D01*
X0136005Y0020166D02*
X0136898Y0020166D01*
X0136879Y0020964D02*
X0136005Y0020964D01*
X0136005Y0021763D02*
X0136879Y0021763D01*
X0136879Y0022561D02*
X0136005Y0022561D01*
X0135960Y0023360D02*
X0136997Y0023360D01*
X0138010Y0024158D02*
X0130000Y0024158D01*
X0130000Y0024957D02*
X0137280Y0024957D01*
X0136761Y0025755D02*
X0130000Y0025755D01*
X0130000Y0026554D02*
X0136761Y0026554D01*
X0136761Y0027352D02*
X0130000Y0027352D01*
X0130000Y0028151D02*
X0136761Y0028151D01*
X0136761Y0028949D02*
X0130000Y0028949D01*
X0130000Y0029748D02*
X0136761Y0029748D01*
X0136761Y0030546D02*
X0131629Y0030546D01*
X0132725Y0031345D02*
X0136761Y0031345D01*
X0136761Y0032143D02*
X0133186Y0032143D01*
X0133279Y0032942D02*
X0136761Y0032942D01*
X0136761Y0033740D02*
X0133279Y0033740D01*
X0133279Y0034539D02*
X0136761Y0034539D01*
X0136761Y0035337D02*
X0133279Y0035337D01*
X0133279Y0036136D02*
X0136761Y0036136D01*
X0136042Y0036934D02*
X0133279Y0036934D01*
X0133423Y0037733D02*
X0134977Y0037733D01*
X0134516Y0038532D02*
X0133679Y0038532D01*
X0133679Y0039330D02*
X0134279Y0039330D01*
X0134279Y0040129D02*
X0133361Y0040129D01*
X0132563Y0040927D02*
X0134279Y0040927D01*
X0134279Y0041726D02*
X0126429Y0041726D01*
X0126301Y0041939D02*
X0126301Y0041939D01*
X0126007Y0042524D02*
X0134279Y0042524D01*
X0134279Y0043323D02*
X0126805Y0043323D01*
X0127604Y0044121D02*
X0134279Y0044121D01*
X0134279Y0044920D02*
X0128402Y0044920D01*
X0129201Y0045718D02*
X0134279Y0045718D01*
X0134279Y0046517D02*
X0129779Y0046517D01*
X0129779Y0047315D02*
X0134279Y0047315D01*
X0124479Y0047550D02*
X0124473Y0047551D01*
X0124468Y0047555D01*
X0124464Y0047560D01*
X0124463Y0047566D01*
X0123079Y0045839D02*
X0123567Y0045350D01*
X0124025Y0045350D01*
X0123975Y0045300D01*
X0123079Y0045300D01*
X0123079Y0045839D01*
X0123079Y0045718D02*
X0123199Y0045718D01*
X0122763Y0050186D02*
X0122366Y0050582D01*
X0122763Y0050582D01*
X0122763Y0050186D01*
X0122763Y0050509D02*
X0122439Y0050509D01*
X0118557Y0054032D02*
X0118479Y0054111D01*
X0136005Y0052106D02*
X0136021Y0052106D01*
X0148537Y0052905D02*
X0148721Y0052905D01*
X0148721Y0053703D02*
X0148537Y0053703D01*
X0148537Y0054502D02*
X0148721Y0054502D01*
X0173978Y0043323D02*
X0174129Y0043323D01*
X0174254Y0039532D02*
X0174471Y0039462D01*
X0176931Y0037674D01*
X0178719Y0035213D01*
X0179659Y0032321D01*
X0179661Y0032300D01*
X0178009Y0032300D01*
X0177979Y0032270D01*
X0177979Y0033156D01*
X0176956Y0036305D01*
X0175009Y0038983D01*
X0174254Y0039532D01*
X0174532Y0039330D02*
X0174652Y0039330D01*
X0175009Y0038983D02*
X0175009Y0038983D01*
X0175009Y0038983D01*
X0175338Y0038532D02*
X0175751Y0038532D01*
X0175918Y0037733D02*
X0176850Y0037733D01*
X0176498Y0036934D02*
X0177469Y0036934D01*
X0176956Y0036305D02*
X0176956Y0036305D01*
X0177010Y0036136D02*
X0178049Y0036136D01*
X0178629Y0035337D02*
X0177270Y0035337D01*
X0177529Y0034539D02*
X0178938Y0034539D01*
X0179198Y0033740D02*
X0177789Y0033740D01*
X0177979Y0032942D02*
X0179457Y0032942D01*
X0174492Y0032603D02*
X0174579Y0031500D01*
X0174579Y0028575D01*
X0172690Y0028575D01*
X0172520Y0028405D01*
X0172430Y0028495D01*
X0172111Y0028679D01*
X0171755Y0028775D01*
X0171079Y0028775D01*
X0171079Y0025800D01*
X0171079Y0025800D01*
X0171079Y0022825D01*
X0171755Y0022825D01*
X0171979Y0022885D01*
X0171979Y0022347D01*
X0171666Y0022034D01*
X0171518Y0022291D01*
X0171257Y0022551D01*
X0170938Y0022736D01*
X0170604Y0022825D01*
X0171079Y0022825D01*
X0171079Y0025800D01*
X0171079Y0025800D01*
X0171079Y0028775D01*
X0170402Y0028775D01*
X0170079Y0028688D01*
X0170079Y0032613D01*
X0169074Y0035039D01*
X0167217Y0036895D01*
X0164792Y0037900D01*
X0159141Y0037900D01*
X0159126Y0037916D01*
X0143661Y0037916D01*
X0143661Y0038553D01*
X0167526Y0038553D01*
X0168629Y0038466D01*
X0170728Y0037784D01*
X0172513Y0036487D01*
X0173810Y0034702D01*
X0174492Y0032603D01*
X0174382Y0032942D02*
X0169942Y0032942D01*
X0170079Y0032143D02*
X0174528Y0032143D01*
X0174579Y0031345D02*
X0170079Y0031345D01*
X0170079Y0030546D02*
X0174579Y0030546D01*
X0174579Y0029748D02*
X0170079Y0029748D01*
X0170079Y0028949D02*
X0174579Y0028949D01*
X0171079Y0028151D02*
X0171079Y0028151D01*
X0171079Y0027352D02*
X0171079Y0027352D01*
X0171079Y0026554D02*
X0171079Y0026554D01*
X0171079Y0025755D02*
X0171079Y0025755D01*
X0171079Y0024957D02*
X0171079Y0024957D01*
X0171079Y0024158D02*
X0171079Y0024158D01*
X0171079Y0023360D02*
X0171079Y0023360D01*
X0171240Y0022561D02*
X0171979Y0022561D01*
X0169506Y0022561D02*
X0169321Y0022561D01*
X0169321Y0021763D02*
X0169506Y0021763D01*
X0169506Y0020964D02*
X0169321Y0020964D01*
X0169321Y0020166D02*
X0165428Y0020166D01*
X0165428Y0020964D02*
X0167029Y0020964D01*
X0167069Y0021763D02*
X0165428Y0021763D01*
X0165245Y0022561D02*
X0167587Y0022561D01*
X0163244Y0020700D02*
X0163258Y0025780D01*
X0163279Y0025800D01*
X0161579Y0025755D02*
X0151679Y0025755D01*
X0151679Y0024957D02*
X0161587Y0024957D01*
X0161587Y0024158D02*
X0151679Y0024158D01*
X0151679Y0023360D02*
X0161652Y0023360D01*
X0161243Y0022561D02*
X0160914Y0022561D01*
X0154970Y0022561D02*
X0151679Y0022561D01*
X0151679Y0021763D02*
X0154172Y0021763D01*
X0153979Y0020964D02*
X0151679Y0020964D01*
X0151679Y0020166D02*
X0153979Y0020166D01*
X0154442Y0019367D02*
X0151679Y0019367D01*
X0151679Y0018569D02*
X0157182Y0018569D01*
X0160645Y0018569D02*
X0161513Y0018569D01*
X0164832Y0017770D02*
X0151679Y0017770D01*
X0151679Y0016972D02*
X0164832Y0016972D01*
X0164832Y0016173D02*
X0163375Y0016173D01*
X0163149Y0016400D02*
X0161409Y0016400D01*
X0160179Y0015170D01*
X0160179Y0013430D01*
X0161409Y0012200D01*
X0163149Y0012200D01*
X0164379Y0013430D01*
X0164379Y0015170D01*
X0163149Y0016400D01*
X0164174Y0015375D02*
X0164832Y0015375D01*
X0164854Y0014576D02*
X0164379Y0014576D01*
X0164379Y0013778D02*
X0164832Y0013778D01*
X0164832Y0012979D02*
X0163928Y0012979D01*
X0164832Y0012181D02*
X0149756Y0012181D01*
X0150555Y0012979D02*
X0152330Y0012979D01*
X0151879Y0013430D02*
X0153109Y0012200D01*
X0154849Y0012200D01*
X0156079Y0013430D01*
X0156079Y0015170D01*
X0154849Y0016400D01*
X0153109Y0016400D01*
X0151879Y0015170D01*
X0151879Y0013430D01*
X0151879Y0013778D02*
X0151125Y0013778D01*
X0151455Y0014576D02*
X0151879Y0014576D01*
X0151679Y0015375D02*
X0152084Y0015375D01*
X0151679Y0016173D02*
X0152882Y0016173D01*
X0155075Y0016173D02*
X0161182Y0016173D01*
X0160384Y0015375D02*
X0155874Y0015375D01*
X0156079Y0014576D02*
X0160179Y0014576D01*
X0160179Y0013778D02*
X0156079Y0013778D01*
X0155628Y0012979D02*
X0160630Y0012979D01*
X0164832Y0011382D02*
X0147991Y0011382D01*
X0146539Y0010584D02*
X0165446Y0010584D01*
X0171342Y0010584D02*
X0202787Y0010584D01*
X0203899Y0011382D02*
X0171956Y0011382D01*
X0171956Y0012181D02*
X0204552Y0012181D01*
X0205138Y0012979D02*
X0171956Y0012979D01*
X0171956Y0013778D02*
X0205567Y0013778D01*
X0205831Y0014576D02*
X0192675Y0014576D01*
X0193473Y0015375D02*
X0206095Y0015375D01*
X0206225Y0016173D02*
X0193729Y0016173D01*
X0190583Y0014576D02*
X0171934Y0014576D01*
X0171956Y0015375D02*
X0176826Y0015375D01*
X0174098Y0016173D02*
X0171956Y0016173D01*
X0171956Y0016972D02*
X0173011Y0016972D01*
X0172550Y0017770D02*
X0171956Y0017770D01*
X0175928Y0019310D02*
X0176237Y0019132D01*
X0176437Y0019105D01*
X0176932Y0019600D01*
X0176248Y0020284D01*
X0176248Y0023025D01*
X0175379Y0023025D01*
X0175379Y0022478D01*
X0175928Y0021928D01*
X0175928Y0019310D01*
X0175928Y0019367D02*
X0176699Y0019367D01*
X0176366Y0020166D02*
X0175928Y0020166D01*
X0175928Y0020964D02*
X0176248Y0020964D01*
X0176248Y0021763D02*
X0175928Y0021763D01*
X0176248Y0022561D02*
X0175379Y0022561D01*
X0178629Y0021765D02*
X0178671Y0021792D01*
X0178712Y0021822D01*
X0178750Y0021855D01*
X0178785Y0021890D01*
X0178818Y0021928D01*
X0178849Y0021968D01*
X0178876Y0022010D01*
X0178900Y0022054D01*
X0178921Y0022100D01*
X0178939Y0022147D01*
X0178953Y0022195D01*
X0178964Y0022244D01*
X0178972Y0022294D01*
X0178975Y0022344D01*
X0178976Y0022394D01*
X0178972Y0022445D01*
X0178965Y0022494D01*
X0178955Y0022544D01*
X0178941Y0022592D01*
X0178923Y0022639D01*
X0178903Y0022685D01*
X0178879Y0022729D01*
X0181010Y0022561D02*
X0181748Y0022561D01*
X0181748Y0023002D02*
X0181748Y0020234D01*
X0182432Y0019550D01*
X0182116Y0019235D01*
X0180691Y0019235D01*
X0180326Y0019600D01*
X0181010Y0020284D01*
X0181010Y0023002D01*
X0181748Y0023002D01*
X0181748Y0021763D02*
X0181010Y0021763D01*
X0181010Y0020964D02*
X0181748Y0020964D01*
X0181816Y0020166D02*
X0180892Y0020166D01*
X0180559Y0019367D02*
X0182249Y0019367D01*
X0187863Y0016972D02*
X0189529Y0016972D01*
X0189529Y0016173D02*
X0186971Y0016173D01*
X0187617Y0016546D02*
X0187617Y0016546D01*
X0188324Y0017770D02*
X0189929Y0017770D01*
X0190728Y0018569D02*
X0188479Y0018569D01*
X0189784Y0015375D02*
X0185981Y0015375D01*
X0182276Y0015375D02*
X0180431Y0015375D01*
X0173744Y0020250D02*
X0173679Y0020630D01*
X0173679Y0020600D01*
X0173729Y0020550D01*
X0167029Y0019367D02*
X0165428Y0019367D01*
X0165304Y0018569D02*
X0164975Y0018569D01*
X0148279Y0018569D02*
X0146681Y0018569D01*
X0146450Y0018800D02*
X0145491Y0018800D01*
X0145491Y0019634D01*
X0145778Y0019922D01*
X0145778Y0023278D01*
X0145079Y0023978D01*
X0145079Y0024715D01*
X0145155Y0024816D01*
X0145079Y0025362D01*
X0145079Y0025913D01*
X0144989Y0026003D01*
X0144950Y0026279D01*
X0144588Y0026742D01*
X0147587Y0026742D01*
X0147766Y0026718D01*
X0148076Y0026539D01*
X0148255Y0026229D01*
X0148279Y0026050D01*
X0148279Y0016050D01*
X0148254Y0015796D01*
X0148060Y0015328D01*
X0147701Y0014969D01*
X0147232Y0014775D01*
X0147153Y0014767D01*
X0147153Y0018097D01*
X0146450Y0018800D01*
X0145491Y0019367D02*
X0148279Y0019367D01*
X0148279Y0020166D02*
X0145778Y0020166D01*
X0145778Y0020964D02*
X0148279Y0020964D01*
X0148279Y0021763D02*
X0145778Y0021763D01*
X0145778Y0022561D02*
X0148279Y0022561D01*
X0148279Y0023360D02*
X0145697Y0023360D01*
X0145079Y0024158D02*
X0148279Y0024158D01*
X0148279Y0024957D02*
X0145136Y0024957D01*
X0145079Y0025755D02*
X0148279Y0025755D01*
X0148051Y0026554D02*
X0144735Y0026554D01*
X0144950Y0026279D02*
X0144950Y0026279D01*
X0143479Y0025250D02*
X0143479Y0021430D01*
X0143591Y0021317D02*
X0143608Y0021336D01*
X0143623Y0021358D01*
X0143635Y0021381D01*
X0143644Y0021406D01*
X0143649Y0021432D01*
X0143651Y0021458D01*
X0143650Y0021484D01*
X0143645Y0021510D01*
X0143637Y0021534D01*
X0143625Y0021558D01*
X0143611Y0021580D01*
X0143594Y0021600D01*
X0143597Y0021577D01*
X0143596Y0021554D01*
X0143591Y0021532D01*
X0143583Y0021510D01*
X0143572Y0021490D01*
X0143558Y0021472D01*
X0143541Y0021457D01*
X0143522Y0021444D01*
X0143501Y0021435D01*
X0143479Y0021429D01*
X0141691Y0019367D02*
X0141176Y0019367D01*
X0139356Y0019367D02*
X0139171Y0019367D01*
X0139171Y0020166D02*
X0139356Y0020166D01*
X0139356Y0020964D02*
X0139171Y0020964D01*
X0139171Y0021763D02*
X0139356Y0021763D01*
X0139356Y0022561D02*
X0139171Y0022561D01*
X0139171Y0023360D02*
X0139356Y0023360D01*
X0139356Y0024158D02*
X0139171Y0024158D01*
X0140517Y0024158D02*
X0141879Y0024158D01*
X0143479Y0025250D02*
X0143467Y0025324D01*
X0143450Y0025398D01*
X0143430Y0025470D01*
X0143406Y0025541D01*
X0143379Y0025611D01*
X0143348Y0025680D01*
X0143313Y0025747D01*
X0143275Y0025811D01*
X0143233Y0025874D01*
X0143188Y0025935D01*
X0143141Y0025993D01*
X0143090Y0026048D01*
X0143036Y0026101D01*
X0142980Y0026151D01*
X0142921Y0026198D01*
X0142860Y0026241D01*
X0142796Y0026282D01*
X0142731Y0026319D01*
X0142663Y0026352D01*
X0142594Y0026382D01*
X0142524Y0026409D01*
X0142452Y0026431D01*
X0142379Y0026450D01*
X0142306Y0026465D01*
X0142231Y0026476D01*
X0142156Y0026483D01*
X0142081Y0026487D01*
X0142006Y0026486D01*
X0141931Y0026482D01*
X0141856Y0026473D01*
X0140211Y0026473D01*
X0143661Y0030546D02*
X0147162Y0030546D01*
X0146364Y0031345D02*
X0143661Y0031345D01*
X0143661Y0032143D02*
X0146179Y0032143D01*
X0148279Y0032400D02*
X0146331Y0034347D01*
X0140211Y0034347D01*
X0140211Y0036316D02*
X0158463Y0036316D01*
X0158464Y0036310D01*
X0158468Y0036305D01*
X0158473Y0036301D01*
X0158479Y0036300D01*
X0163479Y0036300D01*
X0165195Y0037733D02*
X0170798Y0037733D01*
X0171897Y0036934D02*
X0167122Y0036934D01*
X0167217Y0036895D02*
X0167217Y0036895D01*
X0167977Y0036136D02*
X0172768Y0036136D01*
X0173348Y0035337D02*
X0168775Y0035337D01*
X0169074Y0035039D02*
X0169074Y0035039D01*
X0169281Y0034539D02*
X0173863Y0034539D01*
X0174122Y0033740D02*
X0169612Y0033740D01*
X0168479Y0031300D02*
X0168479Y0025800D01*
X0165879Y0025800D02*
X0165879Y0031650D01*
X0164279Y0031345D02*
X0150194Y0031345D01*
X0150379Y0032143D02*
X0162415Y0032143D01*
X0161629Y0032942D02*
X0150379Y0032942D01*
X0149908Y0033740D02*
X0161629Y0033740D01*
X0161629Y0034539D02*
X0148402Y0034539D01*
X0149395Y0030546D02*
X0164279Y0030546D01*
X0164279Y0029748D02*
X0149366Y0029748D01*
X0150638Y0028949D02*
X0164279Y0028949D01*
X0161866Y0028151D02*
X0151099Y0028151D01*
X0151560Y0027352D02*
X0161587Y0027352D01*
X0161587Y0026554D02*
X0151679Y0026554D01*
X0163479Y0036300D02*
X0163619Y0036298D01*
X0163759Y0036292D01*
X0163899Y0036282D01*
X0164039Y0036269D01*
X0164178Y0036251D01*
X0164317Y0036229D01*
X0164454Y0036204D01*
X0164592Y0036175D01*
X0164728Y0036142D01*
X0164863Y0036105D01*
X0164997Y0036064D01*
X0165130Y0036019D01*
X0165262Y0035971D01*
X0165392Y0035919D01*
X0165521Y0035864D01*
X0165648Y0035805D01*
X0165774Y0035742D01*
X0165898Y0035676D01*
X0166019Y0035607D01*
X0166139Y0035534D01*
X0166257Y0035457D01*
X0166372Y0035378D01*
X0166486Y0035295D01*
X0166596Y0035209D01*
X0166705Y0035120D01*
X0166811Y0035028D01*
X0166914Y0034933D01*
X0167015Y0034836D01*
X0167112Y0034735D01*
X0167207Y0034632D01*
X0167299Y0034526D01*
X0167388Y0034417D01*
X0167474Y0034307D01*
X0167557Y0034193D01*
X0167636Y0034078D01*
X0167713Y0033960D01*
X0167786Y0033840D01*
X0167855Y0033719D01*
X0167921Y0033595D01*
X0167984Y0033469D01*
X0168043Y0033342D01*
X0168098Y0033213D01*
X0168150Y0033083D01*
X0168198Y0032951D01*
X0168243Y0032818D01*
X0168284Y0032684D01*
X0168321Y0032549D01*
X0168354Y0032413D01*
X0168383Y0032275D01*
X0168408Y0032138D01*
X0168430Y0031999D01*
X0168448Y0031860D01*
X0168461Y0031720D01*
X0168471Y0031580D01*
X0168477Y0031440D01*
X0168479Y0031300D01*
X0165879Y0031650D02*
X0165877Y0031741D01*
X0165871Y0031832D01*
X0165862Y0031923D01*
X0165848Y0032013D01*
X0165831Y0032103D01*
X0165810Y0032192D01*
X0165785Y0032280D01*
X0165756Y0032366D01*
X0165724Y0032452D01*
X0165688Y0032536D01*
X0165649Y0032618D01*
X0165606Y0032699D01*
X0165560Y0032777D01*
X0165510Y0032854D01*
X0165458Y0032928D01*
X0165402Y0033001D01*
X0165343Y0033070D01*
X0165281Y0033138D01*
X0165217Y0033202D01*
X0165149Y0033264D01*
X0165080Y0033323D01*
X0165007Y0033379D01*
X0164933Y0033431D01*
X0164856Y0033481D01*
X0164778Y0033527D01*
X0164697Y0033570D01*
X0164615Y0033609D01*
X0164531Y0033645D01*
X0164445Y0033677D01*
X0164359Y0033706D01*
X0164271Y0033731D01*
X0164182Y0033752D01*
X0164092Y0033769D01*
X0164002Y0033783D01*
X0163911Y0033792D01*
X0163820Y0033798D01*
X0163729Y0033800D01*
X0167796Y0038532D02*
X0143661Y0038532D01*
X0140211Y0038284D02*
X0140210Y0038290D01*
X0140206Y0038295D01*
X0140201Y0038299D01*
X0140195Y0038300D01*
X0131679Y0038800D02*
X0131679Y0033000D01*
X0131677Y0032940D01*
X0131672Y0032879D01*
X0131663Y0032820D01*
X0131650Y0032761D01*
X0131634Y0032702D01*
X0131614Y0032645D01*
X0131591Y0032590D01*
X0131564Y0032535D01*
X0131535Y0032483D01*
X0131502Y0032432D01*
X0131466Y0032383D01*
X0131428Y0032337D01*
X0131386Y0032293D01*
X0131342Y0032251D01*
X0131296Y0032213D01*
X0131247Y0032177D01*
X0131196Y0032144D01*
X0131144Y0032115D01*
X0131089Y0032088D01*
X0131034Y0032065D01*
X0130977Y0032045D01*
X0130918Y0032029D01*
X0130859Y0032016D01*
X0130800Y0032007D01*
X0130739Y0032002D01*
X0130679Y0032000D01*
X0130279Y0032000D01*
X0128207Y0032942D02*
X0127579Y0032942D01*
X0127579Y0033740D02*
X0130079Y0033740D01*
X0130079Y0034539D02*
X0127579Y0034539D01*
X0127579Y0035337D02*
X0130079Y0035337D01*
X0130079Y0036136D02*
X0127579Y0036136D01*
X0127579Y0036934D02*
X0130079Y0036934D01*
X0129534Y0037733D02*
X0127579Y0037733D01*
X0127580Y0038532D02*
X0129279Y0038532D01*
X0129279Y0039330D02*
X0127566Y0039330D01*
X0127389Y0040129D02*
X0129596Y0040129D01*
X0130395Y0040927D02*
X0126909Y0040927D01*
X0123856Y0039330D02*
X0118979Y0039330D01*
X0117179Y0039330D02*
X0116981Y0039330D01*
X0116614Y0038532D02*
X0124179Y0038532D01*
X0131479Y0038900D02*
X0131501Y0038905D01*
X0131523Y0038908D01*
X0131546Y0038907D01*
X0131568Y0038903D01*
X0131589Y0038896D01*
X0131610Y0038886D01*
X0131628Y0038873D01*
X0131645Y0038858D01*
X0131659Y0038840D01*
X0131670Y0038821D01*
X0131679Y0038800D01*
X0113705Y0035337D02*
X0113478Y0035337D01*
X0112906Y0034539D02*
X0112695Y0034539D01*
X0112479Y0033740D02*
X0111911Y0033740D01*
X0112479Y0032942D02*
X0111128Y0032942D01*
X0110196Y0032143D02*
X0112624Y0032143D01*
X0112979Y0031345D02*
X0110196Y0031345D01*
X0110196Y0030546D02*
X0112979Y0030546D01*
X0112979Y0029748D02*
X0110196Y0029748D01*
X0110196Y0028949D02*
X0112979Y0028949D01*
X0112979Y0028151D02*
X0110196Y0028151D01*
X0110196Y0027352D02*
X0112979Y0027352D01*
X0112979Y0026554D02*
X0110196Y0026554D01*
X0110196Y0025755D02*
X0112979Y0025755D01*
X0112979Y0024957D02*
X0109677Y0024957D01*
X0112979Y0024158D02*
X0103853Y0024158D01*
X0103787Y0023360D02*
X0110997Y0023360D01*
X0110952Y0022561D02*
X0103779Y0022561D01*
X0103779Y0021763D02*
X0104272Y0021763D01*
X0106286Y0021763D02*
X0110952Y0021763D01*
X0118508Y0020519D02*
X0118510Y0020532D01*
X0118515Y0020544D01*
X0118522Y0020554D01*
X0118533Y0020561D01*
X0118544Y0020566D01*
X0118557Y0020568D01*
X0120479Y0020615D02*
X0120481Y0020603D01*
X0120485Y0020592D01*
X0120493Y0020582D01*
X0120503Y0020574D01*
X0120514Y0020570D01*
X0120526Y0020568D01*
X0120728Y0016972D02*
X0124379Y0016972D01*
X0124379Y0016173D02*
X0120728Y0016173D01*
X0120728Y0015375D02*
X0124834Y0015375D01*
X0128123Y0015375D02*
X0134283Y0015375D01*
X0133601Y0016173D02*
X0128579Y0016173D01*
X0128579Y0016972D02*
X0132918Y0016972D01*
X0134306Y0018473D02*
X0134306Y0020568D01*
X0136060Y0018569D02*
X0136278Y0018569D01*
X0128400Y0020568D02*
X0128400Y0030121D01*
X0128402Y0030205D01*
X0128408Y0030289D01*
X0128417Y0030373D01*
X0128430Y0030457D01*
X0128447Y0030539D01*
X0128468Y0030621D01*
X0128492Y0030702D01*
X0128520Y0030781D01*
X0128551Y0030859D01*
X0128586Y0030936D01*
X0128624Y0031011D01*
X0128666Y0031085D01*
X0128711Y0031156D01*
X0128759Y0031225D01*
X0128810Y0031293D01*
X0128864Y0031357D01*
X0128921Y0031420D01*
X0128980Y0031479D01*
X0129043Y0031536D01*
X0129107Y0031590D01*
X0129175Y0031641D01*
X0129244Y0031689D01*
X0129315Y0031734D01*
X0129389Y0031776D01*
X0129464Y0031814D01*
X0129541Y0031849D01*
X0129619Y0031880D01*
X0129698Y0031908D01*
X0129779Y0031932D01*
X0129861Y0031953D01*
X0129943Y0031970D01*
X0130027Y0031983D01*
X0130111Y0031992D01*
X0130195Y0031998D01*
X0130279Y0032000D01*
X0110328Y0036981D02*
X0110196Y0036847D01*
X0110196Y0037112D01*
X0110328Y0036981D01*
X0110282Y0036934D02*
X0110196Y0036934D01*
X0103296Y0036584D02*
X0103296Y0036047D01*
X0098978Y0036047D01*
X0098978Y0036584D01*
X0103296Y0036584D01*
X0103296Y0036136D02*
X0098978Y0036136D01*
X0095556Y0034347D02*
X0094679Y0033815D01*
X0097060Y0032647D02*
X0098099Y0032647D01*
X0097649Y0032262D01*
X0097084Y0031149D01*
X0096980Y0031329D01*
X0096719Y0031589D01*
X0096463Y0031737D01*
X0097060Y0032334D01*
X0097060Y0032647D01*
X0096869Y0032143D02*
X0097589Y0032143D01*
X0097649Y0032262D02*
X0097649Y0032262D01*
X0097183Y0031345D02*
X0096964Y0031345D01*
X0102001Y0027861D02*
X0101715Y0027173D01*
X0101708Y0027093D01*
X0103296Y0028051D01*
X0103296Y0028681D01*
X0103216Y0028674D01*
X0102528Y0028388D01*
X0102001Y0027861D01*
X0102290Y0028151D02*
X0103296Y0028151D01*
X0102137Y0027352D02*
X0101790Y0027352D01*
X0106799Y0034300D02*
X0106746Y0034347D01*
X0094682Y0039300D02*
X0094629Y0039247D01*
X0094576Y0039300D01*
X0094629Y0039353D01*
X0094682Y0039300D01*
X0094652Y0039330D02*
X0094606Y0039330D01*
X0100607Y0042321D02*
X0106746Y0042221D01*
X0106746Y0044190D02*
X0106725Y0044209D01*
X0106702Y0044226D01*
X0106676Y0044239D01*
X0106650Y0044250D01*
X0106622Y0044256D01*
X0106593Y0044259D01*
X0106565Y0044258D01*
X0106536Y0044253D01*
X0106509Y0044245D01*
X0106483Y0044233D01*
X0106458Y0044218D01*
X0106436Y0044200D01*
X0101329Y0044200D01*
X0100607Y0042321D02*
X0100505Y0042329D01*
X0100403Y0042340D01*
X0100302Y0042355D01*
X0100202Y0042374D01*
X0100102Y0042397D01*
X0100004Y0042423D01*
X0099906Y0042453D01*
X0099809Y0042487D01*
X0099714Y0042524D01*
X0099620Y0042565D01*
X0099528Y0042609D01*
X0099438Y0042656D01*
X0099349Y0042707D01*
X0099263Y0042762D01*
X0099178Y0042819D01*
X0099096Y0042880D01*
X0099016Y0042943D01*
X0098938Y0043010D01*
X0098863Y0043079D01*
X0098791Y0043152D01*
X0098721Y0043226D01*
X0098655Y0043304D01*
X0098591Y0043384D01*
X0098530Y0043466D01*
X0098472Y0043550D01*
X0098418Y0043637D01*
X0098367Y0043725D01*
X0098319Y0043815D01*
X0098274Y0043908D01*
X0098233Y0044001D01*
X0098196Y0044096D01*
X0098162Y0044193D01*
X0098132Y0044290D01*
X0098105Y0044389D01*
X0098082Y0044489D01*
X0098063Y0044589D01*
X0098048Y0044690D01*
X0098036Y0044792D01*
X0098028Y0044894D01*
X0098025Y0044996D01*
X0098024Y0045098D01*
X0098028Y0045200D01*
X0098029Y0045200D02*
X0098033Y0045263D01*
X0098034Y0045327D01*
X0098031Y0045390D01*
X0098023Y0045453D01*
X0098012Y0045515D01*
X0097998Y0045577D01*
X0097979Y0045638D01*
X0097957Y0045697D01*
X0097931Y0045755D01*
X0097902Y0045811D01*
X0097869Y0045865D01*
X0097833Y0045918D01*
X0097794Y0045968D01*
X0097752Y0046015D01*
X0097707Y0046060D01*
X0097660Y0046102D01*
X0097609Y0046141D01*
X0097557Y0046177D01*
X0097503Y0046209D01*
X0097446Y0046238D01*
X0097388Y0046264D01*
X0097329Y0046286D01*
X0097268Y0046304D01*
X0097207Y0046319D01*
X0097144Y0046330D01*
X0097081Y0046337D01*
X0097018Y0046340D01*
X0096954Y0046339D01*
X0096891Y0046334D01*
X0096828Y0046326D01*
X0096829Y0046326D02*
X0096729Y0046326D01*
X0096371Y0044121D02*
X0095866Y0044121D01*
X0095204Y0043323D02*
X0094053Y0043323D01*
X0090874Y0043323D02*
X0085828Y0043323D01*
X0085828Y0044121D02*
X0089592Y0044121D01*
X0087731Y0044920D02*
X0085700Y0044920D01*
X0085369Y0045718D02*
X0087029Y0045718D01*
X0087029Y0046517D02*
X0084978Y0046517D01*
X0084179Y0047315D02*
X0087314Y0047315D01*
X0088703Y0048114D02*
X0082924Y0048114D01*
X0084006Y0048912D02*
X0089053Y0048912D01*
X0088010Y0049711D02*
X0084857Y0049711D01*
X0085393Y0050509D02*
X0087642Y0050509D01*
X0087585Y0051308D02*
X0085747Y0051308D01*
X0085953Y0052106D02*
X0087828Y0052106D01*
X0081328Y0054502D02*
X0080528Y0054502D01*
X0080528Y0055300D02*
X0081328Y0055300D01*
X0081328Y0056099D02*
X0080528Y0056099D01*
X0080528Y0056897D02*
X0081328Y0056897D01*
X0081328Y0057696D02*
X0080528Y0057696D01*
X0078494Y0059293D02*
X0094129Y0059293D01*
X0094567Y0060091D02*
X0078825Y0060091D01*
X0068494Y0050509D02*
X0062679Y0050509D01*
X0062679Y0049711D02*
X0067910Y0049711D01*
X0067580Y0048912D02*
X0062679Y0048912D01*
X0062679Y0048114D02*
X0067520Y0048114D01*
X0067534Y0047315D02*
X0062679Y0047315D01*
X0062679Y0046517D02*
X0067864Y0046517D01*
X0068383Y0045718D02*
X0062679Y0045718D01*
X0062679Y0044920D02*
X0069346Y0044920D01*
X0062679Y0037733D02*
X0076968Y0037733D01*
X0076523Y0036934D02*
X0062679Y0036934D01*
X0062679Y0036136D02*
X0076193Y0036136D01*
X0076028Y0035337D02*
X0062679Y0035337D01*
X0062679Y0034539D02*
X0076028Y0034539D01*
X0076047Y0033740D02*
X0072196Y0033740D01*
X0071794Y0033907D02*
X0070376Y0033907D01*
X0069065Y0033364D01*
X0068062Y0032361D01*
X0067520Y0031051D01*
X0067520Y0029633D01*
X0068062Y0028322D01*
X0069065Y0027319D01*
X0070376Y0026776D01*
X0071794Y0026776D01*
X0073105Y0027319D01*
X0074108Y0028322D01*
X0074650Y0029633D01*
X0074650Y0031051D01*
X0074108Y0032361D01*
X0073105Y0033364D01*
X0071794Y0033907D01*
X0069974Y0033740D02*
X0062679Y0033740D01*
X0062679Y0032942D02*
X0068643Y0032942D01*
X0067972Y0032143D02*
X0062679Y0032143D01*
X0062679Y0031345D02*
X0067641Y0031345D01*
X0067520Y0030546D02*
X0062679Y0030546D01*
X0062679Y0029748D02*
X0067520Y0029748D01*
X0067803Y0028949D02*
X0062679Y0028949D01*
X0062679Y0028151D02*
X0068234Y0028151D01*
X0069032Y0027352D02*
X0062679Y0027352D01*
X0062679Y0026554D02*
X0076093Y0026554D01*
X0076028Y0025755D02*
X0062679Y0025755D01*
X0062679Y0024957D02*
X0076028Y0024957D01*
X0076147Y0024158D02*
X0062679Y0024158D01*
X0073138Y0027352D02*
X0076424Y0027352D01*
X0076755Y0028151D02*
X0073936Y0028151D01*
X0074367Y0028949D02*
X0077527Y0028949D01*
X0078571Y0029748D02*
X0074650Y0029748D01*
X0074650Y0030546D02*
X0078303Y0030546D01*
X0077416Y0031345D02*
X0074529Y0031345D01*
X0074198Y0032143D02*
X0076709Y0032143D01*
X0076378Y0032942D02*
X0073527Y0032942D01*
X0078386Y0019367D02*
X0098279Y0019367D01*
X0098279Y0018569D02*
X0078717Y0018569D01*
X0079009Y0017770D02*
X0098279Y0017770D01*
X0098279Y0016972D02*
X0079009Y0016972D01*
X0079009Y0016173D02*
X0098279Y0016173D01*
X0098279Y0015375D02*
X0079009Y0015375D01*
X0078889Y0014576D02*
X0098279Y0014576D01*
X0098276Y0013778D02*
X0078558Y0013778D01*
X0078227Y0012979D02*
X0089927Y0012979D01*
X0089128Y0012181D02*
X0077897Y0012181D01*
X0077146Y0011382D02*
X0088747Y0011382D01*
X0088560Y0010584D02*
X0076347Y0010584D01*
X0075271Y0009785D02*
X0088560Y0009785D01*
X0088843Y0008987D02*
X0073344Y0008987D01*
X0092982Y0007390D02*
X0096898Y0007390D01*
X0097697Y0008188D02*
X0094098Y0008188D01*
X0094614Y0008987D02*
X0099488Y0008987D01*
X0099660Y0008188D02*
X0099959Y0008188D01*
X0100459Y0007390D02*
X0100738Y0007390D01*
X0100779Y0006591D02*
X0101517Y0006591D01*
X0100779Y0005793D02*
X0102296Y0005793D01*
X0103980Y0004994D02*
X0100443Y0004994D01*
X0099644Y0004196D02*
X0105842Y0004196D01*
X0099169Y0009785D02*
X0094897Y0009785D01*
X0094897Y0010584D02*
X0098850Y0010584D01*
X0098530Y0011382D02*
X0094710Y0011382D01*
X0094329Y0012181D02*
X0098256Y0012181D01*
X0098266Y0012979D02*
X0093531Y0012979D01*
X0116244Y0009785D02*
X0116797Y0009785D01*
X0118508Y0011736D02*
X0118525Y0011749D01*
X0118539Y0011764D01*
X0118550Y0011781D01*
X0118558Y0011801D01*
X0118562Y0011821D01*
X0118563Y0011842D01*
X0118560Y0011862D01*
X0118554Y0011882D01*
X0118544Y0011900D01*
X0122321Y0013778D02*
X0132336Y0013778D01*
X0132179Y0012979D02*
X0123119Y0012979D01*
X0123529Y0012181D02*
X0132179Y0012181D01*
X0132179Y0011382D02*
X0123529Y0011382D01*
X0123282Y0010584D02*
X0132179Y0010584D01*
X0132583Y0009785D02*
X0122484Y0009785D01*
X0134471Y0009785D02*
X0134656Y0009785D01*
X0134656Y0010584D02*
X0134471Y0010584D01*
X0134471Y0011382D02*
X0134656Y0011382D01*
X0134656Y0012181D02*
X0134471Y0012181D01*
X0134471Y0012979D02*
X0134656Y0012979D01*
X0134656Y0013778D02*
X0134471Y0013778D01*
X0136544Y0009785D02*
X0137197Y0009785D01*
X0140592Y0009785D02*
X0201119Y0009785D01*
X0205439Y0008188D02*
X0221042Y0008188D01*
X0222549Y0008987D02*
X0206539Y0008987D01*
X0207126Y0009785D02*
X0223670Y0009785D01*
X0224388Y0010584D02*
X0207713Y0010584D01*
X0208299Y0011382D02*
X0224980Y0011382D01*
X0225559Y0012181D02*
X0208718Y0012181D01*
X0208982Y0012979D02*
X0225827Y0012979D01*
X0226095Y0013778D02*
X0209246Y0013778D01*
X0209510Y0014576D02*
X0226363Y0014576D01*
X0226468Y0015375D02*
X0209671Y0015375D01*
X0209679Y0016173D02*
X0226529Y0016173D01*
X0226529Y0016972D02*
X0209680Y0016972D01*
X0209679Y0017770D02*
X0226529Y0017770D01*
X0229929Y0017770D02*
X0235479Y0017770D01*
X0235479Y0016972D02*
X0229929Y0016972D01*
X0229930Y0016173D02*
X0235479Y0016173D01*
X0235479Y0015375D02*
X0229929Y0015375D01*
X0229915Y0014576D02*
X0235479Y0014576D01*
X0235479Y0013778D02*
X0229794Y0013778D01*
X0229526Y0012979D02*
X0235479Y0012979D01*
X0235479Y0012181D02*
X0229258Y0012181D01*
X0228990Y0011382D02*
X0235479Y0011382D01*
X0235479Y0010584D02*
X0228722Y0010584D01*
X0228161Y0009785D02*
X0235479Y0009785D01*
X0235479Y0008987D02*
X0227569Y0008987D01*
X0226977Y0008188D02*
X0235479Y0008188D01*
X0235479Y0007390D02*
X0226352Y0007390D01*
X0225230Y0006591D02*
X0235479Y0006591D01*
X0235479Y0005793D02*
X0224108Y0005793D01*
X0222574Y0004994D02*
X0235479Y0004994D01*
X0235479Y0004196D02*
X0220033Y0004196D01*
X0229929Y0018569D02*
X0235479Y0018569D01*
X0235479Y0019367D02*
X0229929Y0019367D01*
X0229929Y0020166D02*
X0235479Y0020166D01*
X0235479Y0020964D02*
X0229929Y0020964D01*
X0229929Y0021763D02*
X0235479Y0021763D01*
X0235479Y0022561D02*
X0229929Y0022561D01*
X0229929Y0023360D02*
X0235479Y0023360D01*
X0235479Y0024158D02*
X0229929Y0024158D01*
X0229929Y0024957D02*
X0235479Y0024957D01*
X0235479Y0025755D02*
X0229929Y0025755D01*
X0229929Y0026554D02*
X0235479Y0026554D01*
X0235479Y0027352D02*
X0232401Y0027352D01*
X0233199Y0028151D02*
X0235479Y0028151D01*
X0235479Y0028949D02*
X0233379Y0028949D01*
X0233379Y0029748D02*
X0235479Y0029748D01*
X0235479Y0030546D02*
X0232902Y0030546D01*
X0235479Y0031345D02*
X0229929Y0031345D01*
X0229929Y0032143D02*
X0235479Y0032143D01*
X0235479Y0032942D02*
X0229929Y0032942D01*
X0229929Y0033740D02*
X0235479Y0033740D01*
X0235479Y0034539D02*
X0229929Y0034539D01*
X0230127Y0035337D02*
X0235479Y0035337D01*
X0235479Y0036136D02*
X0230429Y0036136D01*
X0230429Y0036934D02*
X0235479Y0036934D01*
X0235479Y0037733D02*
X0230157Y0037733D01*
X0229358Y0038532D02*
X0235479Y0038532D01*
X0226529Y0028949D02*
X0220843Y0028949D01*
X0221462Y0028151D02*
X0226529Y0028151D01*
X0226529Y0027352D02*
X0221792Y0027352D01*
X0221847Y0026554D02*
X0226529Y0026554D01*
X0226529Y0025755D02*
X0221796Y0025755D01*
X0221465Y0024957D02*
X0226529Y0024957D01*
X0226529Y0024158D02*
X0220851Y0024158D01*
X0219579Y0023360D02*
X0226529Y0023360D01*
X0229929Y0027352D02*
X0230157Y0027352D01*
X0184108Y0025730D02*
X0184079Y0025800D01*
X0148279Y0017770D02*
X0147153Y0017770D01*
X0147153Y0016972D02*
X0148279Y0016972D01*
X0148279Y0016173D02*
X0147153Y0016173D01*
X0147153Y0015375D02*
X0148079Y0015375D01*
X0143617Y0013051D02*
X0143628Y0013034D01*
X0143635Y0013016D01*
X0143640Y0012997D01*
X0143642Y0012977D01*
X0143641Y0012958D01*
X0143636Y0012939D01*
X0143629Y0012921D01*
X0143619Y0012904D01*
X0143606Y0012889D01*
X0143592Y0012876D01*
D22*
X0137179Y0016500D03*
X0126479Y0016700D03*
X0121429Y0011700D03*
X0109179Y0013200D03*
X0106379Y0012550D03*
X0109279Y0016300D03*
X0105279Y0019800D03*
X0098379Y0029400D03*
X0111279Y0039000D03*
X0118079Y0041400D03*
X0120979Y0045800D03*
X0121079Y0048900D03*
X0102979Y0057500D03*
X0109379Y0062700D03*
X0151029Y0047950D03*
X0176229Y0043800D03*
X0191879Y0044600D03*
X0207979Y0051550D03*
X0197479Y0060000D03*
X0173729Y0061300D03*
X0168679Y0062000D03*
X0231579Y0054100D03*
X0194679Y0036800D03*
X0191979Y0033300D03*
X0191979Y0029550D03*
X0203479Y0028550D03*
X0210879Y0027600D03*
X0231279Y0029200D03*
X0191629Y0016500D03*
X0162279Y0014300D03*
X0153979Y0014300D03*
X0156079Y0020700D03*
X0178879Y0030200D03*
X0163729Y0033800D03*
X0148279Y0032400D03*
X0098679Y0006200D03*
D23*
X0095779Y0008800D03*
X0079479Y0008800D03*
X0109279Y0019750D03*
X0123079Y0026500D03*
X0114679Y0033200D03*
X0117479Y0035550D03*
X0122979Y0035550D03*
X0128479Y0035550D03*
X0131479Y0038900D03*
X0124479Y0047550D03*
X0153479Y0056300D03*
X0180329Y0044550D03*
X0184529Y0040300D03*
X0188779Y0036150D03*
X0183879Y0034300D03*
X0186679Y0030200D03*
X0172479Y0031300D03*
X0170479Y0035800D03*
X0146979Y0022800D03*
X0129479Y0015150D03*
X0214979Y0010800D03*
X0221979Y0017550D03*
X0228229Y0036550D03*
X0225729Y0039300D03*
X0228329Y0041500D03*
X0225729Y0044050D03*
X0228479Y0046550D03*
X0204479Y0058000D03*
X0184729Y0054800D03*
X0179979Y0069800D03*
X0204479Y0069800D03*
X0226979Y0069800D03*
X0153479Y0069800D03*
X0129979Y0069800D03*
X0107479Y0069300D03*
X0085979Y0069300D03*
D24*
X0124008Y0062136D02*
X0123994Y0058750D01*
X0148629Y0047935D02*
X0151029Y0047935D01*
X0151029Y0047950D01*
X0168594Y0054600D02*
X0168594Y0059050D01*
X0168679Y0058250D01*
X0168679Y0062000D01*
X0118544Y0015700D02*
X0118508Y0011736D01*
X0118544Y0011900D02*
X0121429Y0011700D01*
D25*
X0173744Y0020035D02*
X0173744Y0020250D01*
X0173744Y0020035D02*
X0173746Y0019933D01*
X0173752Y0019831D01*
X0173761Y0019729D01*
X0173775Y0019627D01*
X0173792Y0019527D01*
X0173813Y0019426D01*
X0173837Y0019327D01*
X0173866Y0019229D01*
X0173897Y0019132D01*
X0173933Y0019036D01*
X0173972Y0018941D01*
X0174015Y0018848D01*
X0174061Y0018757D01*
X0174110Y0018667D01*
X0174163Y0018580D01*
X0174219Y0018494D01*
X0174278Y0018411D01*
X0174341Y0018330D01*
X0174406Y0018251D01*
X0174474Y0018175D01*
X0174545Y0018101D01*
X0174619Y0018030D01*
X0174695Y0017962D01*
X0174774Y0017897D01*
X0174855Y0017834D01*
X0174938Y0017775D01*
X0175024Y0017719D01*
X0175112Y0017666D01*
X0175201Y0017617D01*
X0175292Y0017571D01*
X0175385Y0017528D01*
X0175480Y0017489D01*
X0175576Y0017453D01*
X0175673Y0017422D01*
X0175771Y0017393D01*
X0175870Y0017369D01*
X0175971Y0017348D01*
X0176071Y0017331D01*
X0176173Y0017317D01*
X0176275Y0017308D01*
X0176377Y0017302D01*
X0176479Y0017300D01*
X0178494Y0017300D01*
X0178515Y0017302D01*
X0178536Y0017307D01*
X0178555Y0017315D01*
X0178573Y0017326D01*
X0178589Y0017340D01*
X0178603Y0017356D01*
X0178614Y0017374D01*
X0178622Y0017393D01*
X0178627Y0017414D01*
X0178629Y0017435D01*
X0183979Y0017435D01*
X0183997Y0017442D01*
X0184016Y0017446D01*
X0184036Y0017447D01*
X0184055Y0017444D01*
X0184074Y0017438D01*
X0184091Y0017428D01*
X0184106Y0017416D01*
X0184119Y0017402D01*
X0184129Y0017385D01*
X0106279Y0048127D02*
X0106279Y0050935D01*
D26*
X0092463Y0041050D02*
X0083715Y0041050D01*
X0080928Y0043637D01*
X0083715Y0037550D02*
X0080928Y0034763D01*
X0083715Y0037550D02*
X0092463Y0037550D01*
X0143591Y0021317D02*
X0143591Y0016419D01*
X0141579Y0012400D02*
X0139344Y0012400D01*
D27*
X0096429Y0058700D03*
M02*
