G75*
%MOIN*%
%OFA0B0*%
%FSLAX25Y25*%
%IPPOS*%
%LPD*%
%AMOC8*
5,1,8,0,0,1.08239X$1,22.5*
%
%ADD10C,0.05400*%
%ADD11C,0.12661*%
%ADD12C,0.01800*%
%ADD13C,0.02000*%
%ADD14C,0.00800*%
%ADD15C,0.02200*%
D10*
X0080928Y0025420D03*
X0080928Y0034763D03*
X0080928Y0043637D03*
X0080928Y0052980D03*
D11*
X0071479Y0062035D03*
X0071479Y0016365D03*
D12*
X0098679Y0006200D03*
X0106379Y0012550D03*
X0109179Y0013200D03*
X0109279Y0016300D03*
X0105279Y0019800D03*
X0126479Y0016700D03*
X0137179Y0016500D03*
X0121429Y0011700D03*
X0153979Y0014300D03*
X0162279Y0014300D03*
X0156079Y0020700D03*
X0178879Y0030200D03*
X0191979Y0029550D03*
X0191979Y0033300D03*
X0194679Y0036800D03*
X0176229Y0043800D03*
X0191879Y0044600D03*
X0207979Y0051550D03*
X0197479Y0060000D03*
X0173729Y0061300D03*
X0168679Y0062000D03*
X0151029Y0047950D03*
X0121079Y0048900D03*
X0120979Y0045800D03*
X0118079Y0041400D03*
X0111279Y0039000D03*
X0098379Y0029400D03*
X0148279Y0032400D03*
X0163729Y0033800D03*
X0203479Y0028550D03*
X0210879Y0027600D03*
X0231279Y0029200D03*
X0191629Y0016500D03*
X0231579Y0054100D03*
X0109379Y0062700D03*
X0102979Y0057500D03*
D13*
X0124479Y0047550D03*
X0131479Y0038900D03*
X0128479Y0035550D03*
X0122979Y0035550D03*
X0117479Y0035550D03*
X0114679Y0033200D03*
X0123079Y0026500D03*
X0109279Y0019750D03*
X0129479Y0015150D03*
X0146979Y0022800D03*
X0172479Y0031300D03*
X0183879Y0034300D03*
X0188779Y0036150D03*
X0184529Y0040300D03*
X0180329Y0044550D03*
X0170479Y0035800D03*
X0186679Y0030200D03*
X0221979Y0017550D03*
X0214979Y0010800D03*
X0228229Y0036550D03*
X0225729Y0039300D03*
X0228329Y0041500D03*
X0225729Y0044050D03*
X0228479Y0046550D03*
X0204479Y0058000D03*
X0184729Y0054800D03*
X0153479Y0056300D03*
X0153479Y0069800D03*
X0129979Y0069800D03*
X0107479Y0069300D03*
X0085979Y0069300D03*
X0179979Y0069800D03*
X0204479Y0069800D03*
X0226979Y0069800D03*
X0095779Y0008800D03*
X0079479Y0008800D03*
D14*
X0062679Y0004000D02*
X0062679Y0074400D01*
X0235479Y0074400D01*
X0235479Y0004000D01*
X0062679Y0004000D01*
X0062679Y0004196D02*
X0235479Y0004196D01*
X0235479Y0004994D02*
X0062679Y0004994D01*
X0062679Y0005793D02*
X0235479Y0005793D01*
X0235479Y0006591D02*
X0062679Y0006591D01*
X0062679Y0007390D02*
X0077778Y0007390D01*
X0077279Y0007889D02*
X0078567Y0006600D01*
X0080390Y0006600D01*
X0081679Y0007889D01*
X0081679Y0009711D01*
X0080390Y0011000D01*
X0078567Y0011000D01*
X0077279Y0009711D01*
X0077279Y0007889D01*
X0077279Y0008188D02*
X0062679Y0008188D01*
X0062679Y0008987D02*
X0069614Y0008987D01*
X0069981Y0008835D02*
X0067213Y0009981D01*
X0065095Y0012100D01*
X0063948Y0014867D01*
X0063948Y0017863D01*
X0065095Y0020631D01*
X0067213Y0022750D01*
X0069981Y0023896D01*
X0072977Y0023896D01*
X0075745Y0022750D01*
X0077863Y0020631D01*
X0079009Y0017863D01*
X0079009Y0014867D01*
X0077863Y0012100D01*
X0075745Y0009981D01*
X0072977Y0008835D01*
X0069981Y0008835D01*
X0067686Y0009785D02*
X0062679Y0009785D01*
X0062679Y0010584D02*
X0066610Y0010584D01*
X0065812Y0011382D02*
X0062679Y0011382D01*
X0062679Y0012181D02*
X0065061Y0012181D01*
X0064730Y0012979D02*
X0062679Y0012979D01*
X0062679Y0013778D02*
X0064399Y0013778D01*
X0064069Y0014576D02*
X0062679Y0014576D01*
X0062679Y0015375D02*
X0063948Y0015375D01*
X0063948Y0016173D02*
X0062679Y0016173D01*
X0062679Y0016972D02*
X0063948Y0016972D01*
X0063948Y0017770D02*
X0062679Y0017770D01*
X0062679Y0018569D02*
X0064240Y0018569D01*
X0064571Y0019367D02*
X0062679Y0019367D01*
X0062679Y0020166D02*
X0064902Y0020166D01*
X0065428Y0020964D02*
X0062679Y0020964D01*
X0062679Y0021763D02*
X0066226Y0021763D01*
X0067025Y0022561D02*
X0062679Y0022561D01*
X0062679Y0023360D02*
X0068686Y0023360D01*
X0074271Y0023360D02*
X0077560Y0023360D01*
X0077621Y0023211D02*
X0078718Y0022114D01*
X0080152Y0021520D01*
X0081703Y0021520D01*
X0083137Y0022114D01*
X0084234Y0023211D01*
X0084828Y0024645D01*
X0084828Y0026196D01*
X0084234Y0027630D01*
X0083137Y0028727D01*
X0081703Y0029320D01*
X0080152Y0029320D01*
X0078718Y0028727D01*
X0077621Y0027630D01*
X0077028Y0026196D01*
X0077028Y0024645D01*
X0077621Y0023211D01*
X0078271Y0022561D02*
X0075933Y0022561D01*
X0076731Y0021763D02*
X0079567Y0021763D01*
X0077530Y0020964D02*
X0107382Y0020964D01*
X0107079Y0020661D02*
X0107079Y0018839D01*
X0107963Y0017954D01*
X0107179Y0017170D01*
X0107179Y0015430D01*
X0107809Y0014800D01*
X0107454Y0014445D01*
X0107249Y0014650D01*
X0105509Y0014650D01*
X0104279Y0013420D01*
X0104279Y0011680D01*
X0105509Y0010450D01*
X0107249Y0010450D01*
X0108104Y0011305D01*
X0108309Y0011100D01*
X0110049Y0011100D01*
X0111279Y0012330D01*
X0111279Y0014070D01*
X0110649Y0014700D01*
X0111379Y0015430D01*
X0111379Y0017170D01*
X0110594Y0017954D01*
X0111479Y0018839D01*
X0111479Y0020661D01*
X0110190Y0021950D01*
X0108367Y0021950D01*
X0107079Y0020661D01*
X0107079Y0020166D02*
X0078056Y0020166D01*
X0078386Y0019367D02*
X0107079Y0019367D01*
X0107349Y0018569D02*
X0078717Y0018569D01*
X0079009Y0017770D02*
X0107779Y0017770D01*
X0107179Y0016972D02*
X0079009Y0016972D01*
X0079009Y0016173D02*
X0107179Y0016173D01*
X0107234Y0015375D02*
X0079009Y0015375D01*
X0078889Y0014576D02*
X0105435Y0014576D01*
X0104637Y0013778D02*
X0078558Y0013778D01*
X0078227Y0012979D02*
X0104279Y0012979D01*
X0104279Y0012181D02*
X0077897Y0012181D01*
X0077146Y0011382D02*
X0104577Y0011382D01*
X0105375Y0010584D02*
X0097106Y0010584D01*
X0096690Y0011000D02*
X0094867Y0011000D01*
X0093579Y0009711D01*
X0093579Y0007889D01*
X0094867Y0006600D01*
X0096690Y0006600D01*
X0097979Y0007889D01*
X0097979Y0009711D01*
X0096690Y0011000D01*
X0094451Y0010584D02*
X0080806Y0010584D01*
X0081605Y0009785D02*
X0093653Y0009785D01*
X0093579Y0008987D02*
X0081679Y0008987D01*
X0081679Y0008188D02*
X0093579Y0008188D01*
X0094078Y0007390D02*
X0081180Y0007390D01*
X0077279Y0008987D02*
X0073344Y0008987D01*
X0075271Y0009785D02*
X0077353Y0009785D01*
X0078151Y0010584D02*
X0076347Y0010584D01*
X0097480Y0007390D02*
X0235479Y0007390D01*
X0235479Y0008188D02*
X0097979Y0008188D01*
X0097979Y0008987D02*
X0213681Y0008987D01*
X0214067Y0008600D02*
X0212779Y0009889D01*
X0212779Y0011711D01*
X0214067Y0013000D01*
X0215890Y0013000D01*
X0217179Y0011711D01*
X0217179Y0009889D01*
X0215890Y0008600D01*
X0214067Y0008600D01*
X0212882Y0009785D02*
X0097905Y0009785D01*
X0107382Y0010584D02*
X0212779Y0010584D01*
X0212779Y0011382D02*
X0110331Y0011382D01*
X0111129Y0012181D02*
X0213248Y0012181D01*
X0214047Y0012979D02*
X0155628Y0012979D01*
X0156079Y0013430D02*
X0154849Y0012200D01*
X0153109Y0012200D01*
X0151879Y0013430D01*
X0151879Y0015170D01*
X0153109Y0016400D01*
X0154849Y0016400D01*
X0156079Y0015170D01*
X0156079Y0013430D01*
X0156079Y0013778D02*
X0235479Y0013778D01*
X0235479Y0014576D02*
X0192675Y0014576D01*
X0192499Y0014400D02*
X0193729Y0015630D01*
X0193729Y0017370D01*
X0192499Y0018600D01*
X0190759Y0018600D01*
X0189529Y0017370D01*
X0189529Y0015630D01*
X0190759Y0014400D01*
X0192499Y0014400D01*
X0193473Y0015375D02*
X0221043Y0015375D01*
X0221067Y0015350D02*
X0222890Y0015350D01*
X0224179Y0016639D01*
X0224179Y0018461D01*
X0222890Y0019750D01*
X0221067Y0019750D01*
X0219779Y0018461D01*
X0219779Y0016639D01*
X0221067Y0015350D01*
X0220244Y0016173D02*
X0193729Y0016173D01*
X0193729Y0016972D02*
X0219779Y0016972D01*
X0219779Y0017770D02*
X0193328Y0017770D01*
X0192530Y0018569D02*
X0219886Y0018569D01*
X0220685Y0019367D02*
X0111479Y0019367D01*
X0111479Y0020166D02*
X0235479Y0020166D01*
X0235479Y0020964D02*
X0148254Y0020964D01*
X0147890Y0020600D02*
X0146067Y0020600D01*
X0144779Y0021889D01*
X0144779Y0023711D01*
X0146067Y0025000D01*
X0147890Y0025000D01*
X0149179Y0023711D01*
X0149179Y0021889D01*
X0147890Y0020600D01*
X0149053Y0021763D02*
X0235479Y0021763D01*
X0235479Y0022561D02*
X0149179Y0022561D01*
X0149179Y0023360D02*
X0217378Y0023360D01*
X0217809Y0023181D02*
X0219149Y0023181D01*
X0220387Y0023694D01*
X0221334Y0024642D01*
X0221847Y0025880D01*
X0221847Y0027220D01*
X0221334Y0028458D01*
X0220387Y0029406D01*
X0219149Y0029918D01*
X0217809Y0029918D01*
X0216571Y0029406D01*
X0215623Y0028458D01*
X0215110Y0027220D01*
X0215110Y0025880D01*
X0215623Y0024642D01*
X0216571Y0023694D01*
X0217809Y0023181D01*
X0219579Y0023360D02*
X0235479Y0023360D01*
X0235479Y0024158D02*
X0220851Y0024158D01*
X0221465Y0024957D02*
X0235479Y0024957D01*
X0235479Y0025755D02*
X0221796Y0025755D01*
X0221847Y0026554D02*
X0235479Y0026554D01*
X0235479Y0027352D02*
X0221792Y0027352D01*
X0221462Y0028151D02*
X0235479Y0028151D01*
X0235479Y0028949D02*
X0220843Y0028949D01*
X0219561Y0029748D02*
X0235479Y0029748D01*
X0235479Y0030546D02*
X0193952Y0030546D01*
X0194079Y0030420D02*
X0193074Y0031425D01*
X0194079Y0032430D01*
X0194079Y0034170D01*
X0192849Y0035400D01*
X0191109Y0035400D01*
X0190979Y0035270D01*
X0190979Y0037061D01*
X0189690Y0038350D01*
X0187867Y0038350D01*
X0186579Y0037061D01*
X0186579Y0035239D01*
X0187867Y0033950D01*
X0189690Y0033950D01*
X0189879Y0034139D01*
X0189879Y0032430D01*
X0190884Y0031425D01*
X0189879Y0030420D01*
X0189879Y0028680D01*
X0191109Y0027450D01*
X0192849Y0027450D01*
X0194079Y0028680D01*
X0194079Y0030420D01*
X0194079Y0029748D02*
X0217397Y0029748D01*
X0216114Y0028949D02*
X0212499Y0028949D01*
X0212979Y0028470D02*
X0211749Y0029700D01*
X0210009Y0029700D01*
X0208779Y0028470D01*
X0208779Y0026730D01*
X0210009Y0025500D01*
X0211749Y0025500D01*
X0212979Y0026730D01*
X0212979Y0028470D01*
X0212979Y0028151D02*
X0215496Y0028151D01*
X0215165Y0027352D02*
X0212979Y0027352D01*
X0212802Y0026554D02*
X0215110Y0026554D01*
X0215162Y0025755D02*
X0212004Y0025755D01*
X0209754Y0025755D02*
X0125279Y0025755D01*
X0125279Y0025589D02*
X0123990Y0024300D01*
X0122167Y0024300D01*
X0120879Y0025589D01*
X0120879Y0027411D01*
X0122167Y0028700D01*
X0123990Y0028700D01*
X0125279Y0027411D01*
X0125279Y0025589D01*
X0124647Y0024957D02*
X0146024Y0024957D01*
X0145226Y0024158D02*
X0084626Y0024158D01*
X0084828Y0024957D02*
X0121511Y0024957D01*
X0120879Y0025755D02*
X0084828Y0025755D01*
X0084679Y0026554D02*
X0120879Y0026554D01*
X0120879Y0027352D02*
X0099301Y0027352D01*
X0099249Y0027300D02*
X0100479Y0028530D01*
X0100479Y0030270D01*
X0099249Y0031500D01*
X0097509Y0031500D01*
X0096279Y0030270D01*
X0096279Y0028530D01*
X0097509Y0027300D01*
X0099249Y0027300D01*
X0100099Y0028151D02*
X0121618Y0028151D01*
X0124539Y0028151D02*
X0177958Y0028151D01*
X0178009Y0028100D02*
X0179749Y0028100D01*
X0180979Y0029330D01*
X0180979Y0031070D01*
X0179749Y0032300D01*
X0178009Y0032300D01*
X0176779Y0031070D01*
X0176779Y0029330D01*
X0178009Y0028100D01*
X0177159Y0028949D02*
X0100479Y0028949D01*
X0100479Y0029748D02*
X0170920Y0029748D01*
X0170279Y0030389D02*
X0171567Y0029100D01*
X0173390Y0029100D01*
X0174679Y0030389D01*
X0174679Y0032211D01*
X0173390Y0033500D01*
X0171567Y0033500D01*
X0170279Y0032211D01*
X0170279Y0030389D01*
X0170279Y0030546D02*
X0149395Y0030546D01*
X0149149Y0030300D02*
X0150379Y0031530D01*
X0150379Y0033270D01*
X0149149Y0034500D01*
X0147409Y0034500D01*
X0146179Y0033270D01*
X0146179Y0031530D01*
X0147409Y0030300D01*
X0149149Y0030300D01*
X0150194Y0031345D02*
X0170279Y0031345D01*
X0170279Y0032143D02*
X0165042Y0032143D01*
X0164599Y0031700D02*
X0165829Y0032930D01*
X0165829Y0034670D01*
X0164599Y0035900D01*
X0162859Y0035900D01*
X0161629Y0034670D01*
X0161629Y0032930D01*
X0162859Y0031700D01*
X0164599Y0031700D01*
X0165829Y0032942D02*
X0171009Y0032942D01*
X0171390Y0033600D02*
X0172679Y0034889D01*
X0172679Y0036711D01*
X0171390Y0038000D01*
X0169567Y0038000D01*
X0168279Y0036711D01*
X0168279Y0034889D01*
X0169567Y0033600D01*
X0171390Y0033600D01*
X0171530Y0033740D02*
X0181679Y0033740D01*
X0181679Y0033389D02*
X0182967Y0032100D01*
X0184790Y0032100D01*
X0186079Y0033389D01*
X0186079Y0035211D01*
X0184790Y0036500D01*
X0182967Y0036500D01*
X0181679Y0035211D01*
X0181679Y0033389D01*
X0182126Y0032942D02*
X0173948Y0032942D01*
X0174679Y0032143D02*
X0177852Y0032143D01*
X0177054Y0031345D02*
X0174679Y0031345D01*
X0174679Y0030546D02*
X0176779Y0030546D01*
X0176779Y0029748D02*
X0174038Y0029748D01*
X0179799Y0028151D02*
X0190408Y0028151D01*
X0189879Y0028949D02*
X0180598Y0028949D01*
X0180979Y0029748D02*
X0189879Y0029748D01*
X0190005Y0030546D02*
X0180979Y0030546D01*
X0180704Y0031345D02*
X0190804Y0031345D01*
X0190165Y0032143D02*
X0184833Y0032143D01*
X0185632Y0032942D02*
X0189879Y0032942D01*
X0189879Y0033740D02*
X0186079Y0033740D01*
X0186079Y0034539D02*
X0187278Y0034539D01*
X0186579Y0035337D02*
X0185953Y0035337D01*
X0186579Y0036136D02*
X0185154Y0036136D01*
X0186579Y0036934D02*
X0172455Y0036934D01*
X0172679Y0036136D02*
X0182603Y0036136D01*
X0181805Y0035337D02*
X0172679Y0035337D01*
X0172329Y0034539D02*
X0181679Y0034539D01*
X0182924Y0032143D02*
X0179905Y0032143D01*
X0169427Y0033740D02*
X0165829Y0033740D01*
X0165829Y0034539D02*
X0168628Y0034539D01*
X0168279Y0035337D02*
X0165161Y0035337D01*
X0162296Y0035337D02*
X0130679Y0035337D01*
X0130679Y0034639D02*
X0129390Y0033350D01*
X0127567Y0033350D01*
X0126279Y0034639D01*
X0126279Y0036461D01*
X0127567Y0037750D01*
X0129390Y0037750D01*
X0130679Y0036461D01*
X0130679Y0034639D01*
X0130579Y0034539D02*
X0161629Y0034539D01*
X0161629Y0033740D02*
X0149908Y0033740D01*
X0150379Y0032942D02*
X0161629Y0032942D01*
X0162415Y0032143D02*
X0150379Y0032143D01*
X0146364Y0031345D02*
X0115935Y0031345D01*
X0115590Y0031000D02*
X0116879Y0032289D01*
X0116879Y0033350D01*
X0118390Y0033350D01*
X0119679Y0034639D01*
X0119679Y0036461D01*
X0118390Y0037750D01*
X0116567Y0037750D01*
X0115279Y0036461D01*
X0115279Y0035400D01*
X0113767Y0035400D01*
X0112479Y0034111D01*
X0112479Y0032289D01*
X0113767Y0031000D01*
X0115590Y0031000D01*
X0116733Y0032143D02*
X0146179Y0032143D01*
X0146179Y0032942D02*
X0116879Y0032942D01*
X0118780Y0033740D02*
X0121677Y0033740D01*
X0122067Y0033350D02*
X0123890Y0033350D01*
X0125179Y0034639D01*
X0125179Y0036461D01*
X0123890Y0037750D01*
X0122067Y0037750D01*
X0120779Y0036461D01*
X0120779Y0034639D01*
X0122067Y0033350D01*
X0120878Y0034539D02*
X0119579Y0034539D01*
X0119679Y0035337D02*
X0120779Y0035337D01*
X0120779Y0036136D02*
X0119679Y0036136D01*
X0119205Y0036934D02*
X0121252Y0036934D01*
X0122050Y0037733D02*
X0118407Y0037733D01*
X0118949Y0039300D02*
X0117209Y0039300D01*
X0115979Y0040530D01*
X0115979Y0042270D01*
X0117209Y0043500D01*
X0118949Y0043500D01*
X0120179Y0042270D01*
X0120179Y0040530D01*
X0118949Y0039300D01*
X0118979Y0039330D02*
X0129279Y0039330D01*
X0129279Y0039811D02*
X0129279Y0037989D01*
X0130567Y0036700D01*
X0132390Y0036700D01*
X0133679Y0037989D01*
X0133679Y0039811D01*
X0132390Y0041100D01*
X0130567Y0041100D01*
X0129279Y0039811D01*
X0129596Y0040129D02*
X0119777Y0040129D01*
X0120179Y0040927D02*
X0130395Y0040927D01*
X0132563Y0040927D02*
X0182329Y0040927D01*
X0182329Y0041211D02*
X0182329Y0039389D01*
X0183617Y0038100D01*
X0185440Y0038100D01*
X0186729Y0039389D01*
X0186729Y0041211D01*
X0185440Y0042500D01*
X0183617Y0042500D01*
X0182329Y0041211D01*
X0182843Y0041726D02*
X0177124Y0041726D01*
X0177099Y0041700D02*
X0178329Y0042930D01*
X0178329Y0043439D01*
X0179417Y0042350D01*
X0181240Y0042350D01*
X0182529Y0043639D01*
X0182529Y0045461D01*
X0181240Y0046750D01*
X0179417Y0046750D01*
X0178129Y0045461D01*
X0178129Y0044870D01*
X0177099Y0045900D01*
X0175359Y0045900D01*
X0174129Y0044670D01*
X0174129Y0042930D01*
X0175359Y0041700D01*
X0177099Y0041700D01*
X0177923Y0042524D02*
X0179243Y0042524D01*
X0178445Y0043323D02*
X0178329Y0043323D01*
X0181414Y0042524D02*
X0224143Y0042524D01*
X0223529Y0043139D02*
X0224817Y0041850D01*
X0226129Y0041850D01*
X0226129Y0041500D01*
X0224817Y0041500D01*
X0223529Y0040211D01*
X0223529Y0038389D01*
X0224817Y0037100D01*
X0226029Y0037100D01*
X0226029Y0035639D01*
X0227317Y0034350D01*
X0229140Y0034350D01*
X0230429Y0035639D01*
X0230429Y0037461D01*
X0229140Y0038750D01*
X0227929Y0038750D01*
X0227929Y0039300D01*
X0229240Y0039300D01*
X0230529Y0040589D01*
X0230529Y0042411D01*
X0229240Y0043700D01*
X0227929Y0043700D01*
X0227929Y0044350D01*
X0229390Y0044350D01*
X0230679Y0045639D01*
X0230679Y0047461D01*
X0229390Y0048750D01*
X0227567Y0048750D01*
X0226279Y0047461D01*
X0226279Y0046250D01*
X0224817Y0046250D01*
X0223529Y0044961D01*
X0223529Y0043139D01*
X0223529Y0043323D02*
X0182213Y0043323D01*
X0182529Y0044121D02*
X0223529Y0044121D01*
X0223529Y0044920D02*
X0182529Y0044920D01*
X0182272Y0045718D02*
X0224286Y0045718D01*
X0226279Y0046517D02*
X0181473Y0046517D01*
X0179184Y0046517D02*
X0123079Y0046517D01*
X0123079Y0046670D02*
X0123079Y0044930D01*
X0121849Y0043700D01*
X0120109Y0043700D01*
X0118879Y0044930D01*
X0118879Y0046670D01*
X0119609Y0047400D01*
X0118979Y0048030D01*
X0118979Y0049770D01*
X0120209Y0051000D01*
X0121949Y0051000D01*
X0123179Y0049770D01*
X0123179Y0048030D01*
X0122449Y0047300D01*
X0123079Y0046670D01*
X0122464Y0047315D02*
X0226279Y0047315D01*
X0226931Y0048114D02*
X0123179Y0048114D01*
X0123179Y0048912D02*
X0235479Y0048912D01*
X0235479Y0048114D02*
X0230026Y0048114D01*
X0230679Y0047315D02*
X0235479Y0047315D01*
X0235479Y0046517D02*
X0230679Y0046517D01*
X0230679Y0045718D02*
X0235479Y0045718D01*
X0235479Y0044920D02*
X0229960Y0044920D01*
X0227929Y0044121D02*
X0235479Y0044121D01*
X0235479Y0043323D02*
X0229617Y0043323D01*
X0230416Y0042524D02*
X0235479Y0042524D01*
X0235479Y0041726D02*
X0230529Y0041726D01*
X0230529Y0040927D02*
X0235479Y0040927D01*
X0235479Y0040129D02*
X0230069Y0040129D01*
X0229270Y0039330D02*
X0235479Y0039330D01*
X0235479Y0038532D02*
X0229358Y0038532D01*
X0230157Y0037733D02*
X0235479Y0037733D01*
X0235479Y0036934D02*
X0230429Y0036934D01*
X0230429Y0036136D02*
X0235479Y0036136D01*
X0235479Y0035337D02*
X0230127Y0035337D01*
X0229329Y0034539D02*
X0235479Y0034539D01*
X0235479Y0033740D02*
X0194079Y0033740D01*
X0194079Y0032942D02*
X0235479Y0032942D01*
X0235479Y0032143D02*
X0193792Y0032143D01*
X0193154Y0031345D02*
X0235479Y0031345D01*
X0227128Y0034539D02*
X0193710Y0034539D01*
X0193809Y0034700D02*
X0195549Y0034700D01*
X0196779Y0035930D01*
X0196779Y0037670D01*
X0195549Y0038900D01*
X0193809Y0038900D01*
X0192579Y0037670D01*
X0192579Y0035930D01*
X0193809Y0034700D01*
X0193171Y0035337D02*
X0192911Y0035337D01*
X0192579Y0036136D02*
X0190979Y0036136D01*
X0190979Y0036934D02*
X0192579Y0036934D01*
X0192642Y0037733D02*
X0190307Y0037733D01*
X0193440Y0038532D02*
X0185872Y0038532D01*
X0186670Y0039330D02*
X0223529Y0039330D01*
X0223529Y0038532D02*
X0195917Y0038532D01*
X0196716Y0037733D02*
X0224184Y0037733D01*
X0226029Y0036934D02*
X0196779Y0036934D01*
X0196779Y0036136D02*
X0226029Y0036136D01*
X0226330Y0035337D02*
X0196186Y0035337D01*
X0191046Y0035337D02*
X0190979Y0035337D01*
X0187250Y0037733D02*
X0171657Y0037733D01*
X0169300Y0037733D02*
X0133423Y0037733D01*
X0133679Y0038532D02*
X0183186Y0038532D01*
X0182387Y0039330D02*
X0133679Y0039330D01*
X0133361Y0040129D02*
X0182329Y0040129D01*
X0186729Y0040129D02*
X0223529Y0040129D01*
X0224245Y0040927D02*
X0186729Y0040927D01*
X0186214Y0041726D02*
X0226129Y0041726D01*
X0210079Y0050680D02*
X0208849Y0049450D01*
X0207109Y0049450D01*
X0205879Y0050680D01*
X0205879Y0052420D01*
X0207109Y0053650D01*
X0208849Y0053650D01*
X0210079Y0052420D01*
X0210079Y0050680D01*
X0209908Y0050509D02*
X0235479Y0050509D01*
X0235479Y0049711D02*
X0209109Y0049711D01*
X0210079Y0051308D02*
X0235479Y0051308D01*
X0235479Y0052106D02*
X0210079Y0052106D01*
X0209594Y0052905D02*
X0235479Y0052905D01*
X0235479Y0053703D02*
X0224396Y0053703D01*
X0224387Y0053694D02*
X0225334Y0054642D01*
X0225847Y0055880D01*
X0225847Y0057220D01*
X0225334Y0058458D01*
X0224387Y0059406D01*
X0223149Y0059918D01*
X0221809Y0059918D01*
X0220571Y0059406D01*
X0219623Y0058458D01*
X0219110Y0057220D01*
X0219110Y0055880D01*
X0219623Y0054642D01*
X0220571Y0053694D01*
X0221809Y0053181D01*
X0223149Y0053181D01*
X0224387Y0053694D01*
X0225194Y0054502D02*
X0235479Y0054502D01*
X0235479Y0055300D02*
X0225607Y0055300D01*
X0225847Y0056099D02*
X0235479Y0056099D01*
X0235479Y0056897D02*
X0225847Y0056897D01*
X0225650Y0057696D02*
X0235479Y0057696D01*
X0235479Y0058494D02*
X0225298Y0058494D01*
X0224500Y0059293D02*
X0235479Y0059293D01*
X0235479Y0060091D02*
X0205499Y0060091D01*
X0205390Y0060200D02*
X0203567Y0060200D01*
X0202279Y0058911D01*
X0202279Y0057089D01*
X0203567Y0055800D01*
X0205390Y0055800D01*
X0206679Y0057089D01*
X0206679Y0058911D01*
X0205390Y0060200D01*
X0206297Y0059293D02*
X0212458Y0059293D01*
X0212571Y0059406D02*
X0211623Y0058458D01*
X0211110Y0057220D01*
X0211110Y0055880D01*
X0211623Y0054642D01*
X0212571Y0053694D01*
X0213809Y0053181D01*
X0215149Y0053181D01*
X0216387Y0053694D01*
X0217334Y0054642D01*
X0217847Y0055880D01*
X0217847Y0057220D01*
X0217334Y0058458D01*
X0216387Y0059406D01*
X0215149Y0059918D01*
X0213809Y0059918D01*
X0212571Y0059406D01*
X0211659Y0058494D02*
X0206679Y0058494D01*
X0206679Y0057696D02*
X0211307Y0057696D01*
X0211110Y0056897D02*
X0206487Y0056897D01*
X0205689Y0056099D02*
X0211110Y0056099D01*
X0211350Y0055300D02*
X0186929Y0055300D01*
X0186929Y0055711D02*
X0186929Y0053889D01*
X0185640Y0052600D01*
X0183817Y0052600D01*
X0182529Y0053889D01*
X0182529Y0055711D01*
X0183817Y0057000D01*
X0185640Y0057000D01*
X0186929Y0055711D01*
X0186541Y0056099D02*
X0203269Y0056099D01*
X0202470Y0056897D02*
X0185743Y0056897D01*
X0183715Y0056897D02*
X0155679Y0056897D01*
X0155679Y0057211D02*
X0154390Y0058500D01*
X0152567Y0058500D01*
X0151279Y0057211D01*
X0151279Y0055389D01*
X0152567Y0054100D01*
X0154390Y0054100D01*
X0155679Y0055389D01*
X0155679Y0057211D01*
X0155194Y0057696D02*
X0202279Y0057696D01*
X0202279Y0058494D02*
X0198943Y0058494D01*
X0198349Y0057900D02*
X0199579Y0059130D01*
X0199579Y0060870D01*
X0198349Y0062100D01*
X0196609Y0062100D01*
X0195379Y0060870D01*
X0195379Y0059130D01*
X0196609Y0057900D01*
X0198349Y0057900D01*
X0199579Y0059293D02*
X0202660Y0059293D01*
X0203459Y0060091D02*
X0199579Y0060091D01*
X0199559Y0060890D02*
X0235479Y0060890D01*
X0235479Y0061688D02*
X0198760Y0061688D01*
X0196197Y0061688D02*
X0079009Y0061688D01*
X0079009Y0060890D02*
X0095366Y0060890D01*
X0095476Y0061000D02*
X0094129Y0059653D01*
X0094129Y0057747D01*
X0095476Y0056400D01*
X0097381Y0056400D01*
X0098729Y0057747D01*
X0098729Y0059653D01*
X0097381Y0061000D01*
X0095476Y0061000D01*
X0094567Y0060091D02*
X0078825Y0060091D01*
X0079009Y0060537D02*
X0077863Y0057769D01*
X0075745Y0055650D01*
X0072977Y0054504D01*
X0069981Y0054504D01*
X0067213Y0055650D01*
X0065095Y0057769D01*
X0063948Y0060537D01*
X0063948Y0063533D01*
X0065095Y0066300D01*
X0067213Y0068419D01*
X0069981Y0069565D01*
X0072977Y0069565D01*
X0075745Y0068419D01*
X0077863Y0066300D01*
X0079009Y0063533D01*
X0079009Y0060537D01*
X0078494Y0059293D02*
X0094129Y0059293D01*
X0094129Y0058494D02*
X0078163Y0058494D01*
X0077790Y0057696D02*
X0094180Y0057696D01*
X0094979Y0056897D02*
X0076991Y0056897D01*
X0076193Y0056099D02*
X0078531Y0056099D01*
X0078718Y0056286D02*
X0077621Y0055189D01*
X0077028Y0053755D01*
X0077028Y0052204D01*
X0077621Y0050770D01*
X0078718Y0049673D01*
X0080152Y0049080D01*
X0081703Y0049080D01*
X0083137Y0049673D01*
X0084234Y0050770D01*
X0084828Y0052204D01*
X0084828Y0053755D01*
X0084234Y0055189D01*
X0083137Y0056286D01*
X0081703Y0056880D01*
X0080152Y0056880D01*
X0078718Y0056286D01*
X0077733Y0055300D02*
X0074899Y0055300D01*
X0077337Y0054502D02*
X0062679Y0054502D01*
X0062679Y0055300D02*
X0068058Y0055300D01*
X0066765Y0056099D02*
X0062679Y0056099D01*
X0062679Y0056897D02*
X0065966Y0056897D01*
X0065168Y0057696D02*
X0062679Y0057696D01*
X0062679Y0058494D02*
X0064794Y0058494D01*
X0064463Y0059293D02*
X0062679Y0059293D01*
X0062679Y0060091D02*
X0064133Y0060091D01*
X0063948Y0060890D02*
X0062679Y0060890D01*
X0062679Y0061688D02*
X0063948Y0061688D01*
X0063948Y0062487D02*
X0062679Y0062487D01*
X0062679Y0063285D02*
X0063948Y0063285D01*
X0064176Y0064084D02*
X0062679Y0064084D01*
X0062679Y0064882D02*
X0064507Y0064882D01*
X0064838Y0065681D02*
X0062679Y0065681D01*
X0062679Y0066479D02*
X0065273Y0066479D01*
X0066072Y0067278D02*
X0062679Y0067278D01*
X0062679Y0068076D02*
X0066871Y0068076D01*
X0068314Y0068875D02*
X0062679Y0068875D01*
X0062679Y0069673D02*
X0083779Y0069673D01*
X0083779Y0070211D02*
X0083779Y0068389D01*
X0085067Y0067100D01*
X0086890Y0067100D01*
X0088179Y0068389D01*
X0088179Y0070211D01*
X0086890Y0071500D01*
X0085067Y0071500D01*
X0083779Y0070211D01*
X0084039Y0070472D02*
X0062679Y0070472D01*
X0062679Y0071270D02*
X0084838Y0071270D01*
X0087120Y0071270D02*
X0106338Y0071270D01*
X0106567Y0071500D02*
X0105279Y0070211D01*
X0105279Y0068389D01*
X0106567Y0067100D01*
X0108390Y0067100D01*
X0109679Y0068389D01*
X0109679Y0070211D01*
X0108390Y0071500D01*
X0106567Y0071500D01*
X0105539Y0070472D02*
X0087918Y0070472D01*
X0088179Y0069673D02*
X0105279Y0069673D01*
X0105279Y0068875D02*
X0088179Y0068875D01*
X0087866Y0068076D02*
X0105591Y0068076D01*
X0106390Y0067278D02*
X0087068Y0067278D01*
X0084890Y0067278D02*
X0076885Y0067278D01*
X0076087Y0068076D02*
X0084091Y0068076D01*
X0083779Y0068875D02*
X0074643Y0068875D01*
X0077684Y0066479D02*
X0235479Y0066479D01*
X0235479Y0065681D02*
X0078120Y0065681D01*
X0078450Y0064882D02*
X0235479Y0064882D01*
X0235479Y0064084D02*
X0078781Y0064084D01*
X0079009Y0063285D02*
X0235479Y0063285D01*
X0235479Y0062487D02*
X0079009Y0062487D01*
X0083324Y0056099D02*
X0151279Y0056099D01*
X0151279Y0056897D02*
X0097879Y0056897D01*
X0098677Y0057696D02*
X0151763Y0057696D01*
X0152562Y0058494D02*
X0098729Y0058494D01*
X0098729Y0059293D02*
X0195379Y0059293D01*
X0195379Y0060091D02*
X0098290Y0060091D01*
X0097492Y0060890D02*
X0195399Y0060890D01*
X0196015Y0058494D02*
X0154396Y0058494D01*
X0155679Y0056099D02*
X0182916Y0056099D01*
X0182529Y0055300D02*
X0155590Y0055300D01*
X0154792Y0054502D02*
X0182529Y0054502D01*
X0182714Y0053703D02*
X0084828Y0053703D01*
X0084828Y0052905D02*
X0183513Y0052905D01*
X0185945Y0052905D02*
X0206364Y0052905D01*
X0205879Y0052106D02*
X0084787Y0052106D01*
X0084456Y0051308D02*
X0205879Y0051308D01*
X0206050Y0050509D02*
X0122439Y0050509D01*
X0123179Y0049711D02*
X0206848Y0049711D01*
X0212562Y0053703D02*
X0186743Y0053703D01*
X0186929Y0054502D02*
X0211763Y0054502D01*
X0216396Y0053703D02*
X0220562Y0053703D01*
X0219763Y0054502D02*
X0217194Y0054502D01*
X0217607Y0055300D02*
X0219350Y0055300D01*
X0219110Y0056099D02*
X0217847Y0056099D01*
X0217847Y0056897D02*
X0219110Y0056897D01*
X0219307Y0057696D02*
X0217650Y0057696D01*
X0217298Y0058494D02*
X0219659Y0058494D01*
X0220458Y0059293D02*
X0216500Y0059293D01*
X0235479Y0067278D02*
X0108568Y0067278D01*
X0109366Y0068076D02*
X0128591Y0068076D01*
X0129067Y0067600D02*
X0130890Y0067600D01*
X0132179Y0068889D01*
X0132179Y0070711D01*
X0130890Y0072000D01*
X0129067Y0072000D01*
X0127779Y0070711D01*
X0127779Y0068889D01*
X0129067Y0067600D01*
X0127793Y0068875D02*
X0109679Y0068875D01*
X0109679Y0069673D02*
X0127779Y0069673D01*
X0127779Y0070472D02*
X0109418Y0070472D01*
X0108620Y0071270D02*
X0128338Y0071270D01*
X0131620Y0071270D02*
X0151838Y0071270D01*
X0151279Y0070711D02*
X0151279Y0068889D01*
X0152567Y0067600D01*
X0154390Y0067600D01*
X0155679Y0068889D01*
X0155679Y0070711D01*
X0154390Y0072000D01*
X0152567Y0072000D01*
X0151279Y0070711D01*
X0151279Y0070472D02*
X0132179Y0070472D01*
X0132179Y0069673D02*
X0151279Y0069673D01*
X0151293Y0068875D02*
X0132165Y0068875D01*
X0131366Y0068076D02*
X0152091Y0068076D01*
X0154866Y0068076D02*
X0178591Y0068076D01*
X0179067Y0067600D02*
X0180890Y0067600D01*
X0182179Y0068889D01*
X0182179Y0070711D01*
X0180890Y0072000D01*
X0179067Y0072000D01*
X0177779Y0070711D01*
X0177779Y0068889D01*
X0179067Y0067600D01*
X0177793Y0068875D02*
X0155665Y0068875D01*
X0155679Y0069673D02*
X0177779Y0069673D01*
X0177779Y0070472D02*
X0155679Y0070472D01*
X0155120Y0071270D02*
X0178338Y0071270D01*
X0181620Y0071270D02*
X0202838Y0071270D01*
X0202279Y0070711D02*
X0202279Y0068889D01*
X0203567Y0067600D01*
X0205390Y0067600D01*
X0206679Y0068889D01*
X0206679Y0070711D01*
X0205390Y0072000D01*
X0203567Y0072000D01*
X0202279Y0070711D01*
X0202279Y0070472D02*
X0182179Y0070472D01*
X0182179Y0069673D02*
X0202279Y0069673D01*
X0202293Y0068875D02*
X0182165Y0068875D01*
X0181366Y0068076D02*
X0203091Y0068076D01*
X0205866Y0068076D02*
X0225591Y0068076D01*
X0226067Y0067600D02*
X0227890Y0067600D01*
X0229179Y0068889D01*
X0229179Y0070711D01*
X0227890Y0072000D01*
X0226067Y0072000D01*
X0224779Y0070711D01*
X0224779Y0068889D01*
X0226067Y0067600D01*
X0224793Y0068875D02*
X0206665Y0068875D01*
X0206679Y0069673D02*
X0224779Y0069673D01*
X0224779Y0070472D02*
X0206679Y0070472D01*
X0206120Y0071270D02*
X0225338Y0071270D01*
X0228620Y0071270D02*
X0235479Y0071270D01*
X0235479Y0070472D02*
X0229179Y0070472D01*
X0229179Y0069673D02*
X0235479Y0069673D01*
X0235479Y0068875D02*
X0229165Y0068875D01*
X0228366Y0068076D02*
X0235479Y0068076D01*
X0235479Y0072069D02*
X0062679Y0072069D01*
X0062679Y0072868D02*
X0235479Y0072868D01*
X0235479Y0073666D02*
X0062679Y0073666D01*
X0084122Y0055300D02*
X0151367Y0055300D01*
X0152166Y0054502D02*
X0084518Y0054502D01*
X0077028Y0053703D02*
X0062679Y0053703D01*
X0062679Y0052905D02*
X0077028Y0052905D01*
X0077068Y0052106D02*
X0062679Y0052106D01*
X0062679Y0051308D02*
X0069613Y0051308D01*
X0069065Y0051081D02*
X0068062Y0050078D01*
X0067520Y0048767D01*
X0067520Y0047349D01*
X0068062Y0046039D01*
X0069065Y0045036D01*
X0070376Y0044493D01*
X0071794Y0044493D01*
X0073105Y0045036D01*
X0074108Y0046039D01*
X0074650Y0047349D01*
X0074650Y0048767D01*
X0074108Y0050078D01*
X0073105Y0051081D01*
X0071794Y0051624D01*
X0070376Y0051624D01*
X0069065Y0051081D01*
X0068494Y0050509D02*
X0062679Y0050509D01*
X0062679Y0049711D02*
X0067910Y0049711D01*
X0067580Y0048912D02*
X0062679Y0048912D01*
X0062679Y0048114D02*
X0067520Y0048114D01*
X0067534Y0047315D02*
X0062679Y0047315D01*
X0062679Y0046517D02*
X0067864Y0046517D01*
X0068383Y0045718D02*
X0062679Y0045718D01*
X0062679Y0044920D02*
X0069346Y0044920D01*
X0072824Y0044920D02*
X0077238Y0044920D01*
X0077028Y0044413D02*
X0077028Y0042861D01*
X0077621Y0041428D01*
X0078718Y0040331D01*
X0080152Y0039737D01*
X0081703Y0039737D01*
X0083137Y0040331D01*
X0084234Y0041428D01*
X0084828Y0042861D01*
X0084828Y0044413D01*
X0084234Y0045846D01*
X0083137Y0046943D01*
X0081703Y0047537D01*
X0080152Y0047537D01*
X0078718Y0046943D01*
X0077621Y0045846D01*
X0077028Y0044413D01*
X0077028Y0044121D02*
X0062679Y0044121D01*
X0062679Y0043323D02*
X0077028Y0043323D01*
X0077167Y0042524D02*
X0062679Y0042524D01*
X0062679Y0041726D02*
X0077498Y0041726D01*
X0078122Y0040927D02*
X0062679Y0040927D01*
X0062679Y0040129D02*
X0079207Y0040129D01*
X0080152Y0038663D02*
X0078718Y0038069D01*
X0077621Y0036972D01*
X0077028Y0035539D01*
X0077028Y0033987D01*
X0077621Y0032554D01*
X0078718Y0031457D01*
X0080152Y0030863D01*
X0081703Y0030863D01*
X0083137Y0031457D01*
X0084234Y0032554D01*
X0084828Y0033987D01*
X0084828Y0035539D01*
X0084234Y0036972D01*
X0083137Y0038069D01*
X0081703Y0038663D01*
X0080152Y0038663D01*
X0079834Y0038532D02*
X0062679Y0038532D01*
X0062679Y0039330D02*
X0117179Y0039330D01*
X0116380Y0040129D02*
X0082649Y0040129D01*
X0083733Y0040927D02*
X0115979Y0040927D01*
X0115979Y0041726D02*
X0084357Y0041726D01*
X0084688Y0042524D02*
X0116233Y0042524D01*
X0117031Y0043323D02*
X0084828Y0043323D01*
X0084828Y0044121D02*
X0119688Y0044121D01*
X0119126Y0043323D02*
X0174129Y0043323D01*
X0174129Y0044121D02*
X0122270Y0044121D01*
X0123068Y0044920D02*
X0174379Y0044920D01*
X0175177Y0045718D02*
X0123079Y0045718D01*
X0119524Y0047315D02*
X0082239Y0047315D01*
X0083563Y0046517D02*
X0118879Y0046517D01*
X0118879Y0045718D02*
X0084287Y0045718D01*
X0084618Y0044920D02*
X0118889Y0044920D01*
X0119924Y0042524D02*
X0174535Y0042524D01*
X0175333Y0041726D02*
X0120179Y0041726D01*
X0116550Y0037733D02*
X0083473Y0037733D01*
X0084249Y0036934D02*
X0115752Y0036934D01*
X0115279Y0036136D02*
X0084580Y0036136D01*
X0084828Y0035337D02*
X0113705Y0035337D01*
X0112906Y0034539D02*
X0084828Y0034539D01*
X0084725Y0033740D02*
X0112479Y0033740D01*
X0112479Y0032942D02*
X0084395Y0032942D01*
X0083823Y0032143D02*
X0112624Y0032143D01*
X0113423Y0031345D02*
X0099404Y0031345D01*
X0100202Y0030546D02*
X0147162Y0030546D01*
X0146649Y0033740D02*
X0129780Y0033740D01*
X0127177Y0033740D02*
X0124280Y0033740D01*
X0125079Y0034539D02*
X0126378Y0034539D01*
X0126279Y0035337D02*
X0125179Y0035337D01*
X0125179Y0036136D02*
X0126279Y0036136D01*
X0126752Y0036934D02*
X0124705Y0036934D01*
X0123907Y0037733D02*
X0127550Y0037733D01*
X0129407Y0037733D02*
X0129534Y0037733D01*
X0129279Y0038532D02*
X0082021Y0038532D01*
X0078382Y0037733D02*
X0062679Y0037733D01*
X0062679Y0036934D02*
X0077606Y0036934D01*
X0077275Y0036136D02*
X0062679Y0036136D01*
X0062679Y0035337D02*
X0077028Y0035337D01*
X0077028Y0034539D02*
X0062679Y0034539D01*
X0062679Y0033740D02*
X0069974Y0033740D01*
X0070376Y0033907D02*
X0069065Y0033364D01*
X0068062Y0032361D01*
X0067520Y0031051D01*
X0067520Y0029633D01*
X0068062Y0028322D01*
X0069065Y0027319D01*
X0070376Y0026776D01*
X0071794Y0026776D01*
X0073105Y0027319D01*
X0074108Y0028322D01*
X0074650Y0029633D01*
X0074650Y0031051D01*
X0074108Y0032361D01*
X0073105Y0033364D01*
X0071794Y0033907D01*
X0070376Y0033907D01*
X0072196Y0033740D02*
X0077130Y0033740D01*
X0077461Y0032942D02*
X0073527Y0032942D01*
X0074198Y0032143D02*
X0078032Y0032143D01*
X0078988Y0031345D02*
X0074529Y0031345D01*
X0074650Y0030546D02*
X0096555Y0030546D01*
X0096279Y0029748D02*
X0074650Y0029748D01*
X0074367Y0028949D02*
X0079256Y0028949D01*
X0078143Y0028151D02*
X0073936Y0028151D01*
X0073138Y0027352D02*
X0077506Y0027352D01*
X0077176Y0026554D02*
X0062679Y0026554D01*
X0062679Y0027352D02*
X0069032Y0027352D01*
X0068234Y0028151D02*
X0062679Y0028151D01*
X0062679Y0028949D02*
X0067803Y0028949D01*
X0067520Y0029748D02*
X0062679Y0029748D01*
X0062679Y0030546D02*
X0067520Y0030546D01*
X0067641Y0031345D02*
X0062679Y0031345D01*
X0062679Y0032143D02*
X0067972Y0032143D01*
X0068643Y0032942D02*
X0062679Y0032942D01*
X0062679Y0025755D02*
X0077028Y0025755D01*
X0077028Y0024957D02*
X0062679Y0024957D01*
X0062679Y0024158D02*
X0077229Y0024158D01*
X0083584Y0022561D02*
X0144779Y0022561D01*
X0144779Y0023360D02*
X0084295Y0023360D01*
X0082288Y0021763D02*
X0108180Y0021763D01*
X0110377Y0021763D02*
X0144905Y0021763D01*
X0145703Y0020964D02*
X0111176Y0020964D01*
X0111209Y0018569D02*
X0125378Y0018569D01*
X0125609Y0018800D02*
X0124379Y0017570D01*
X0124379Y0015830D01*
X0125609Y0014600D01*
X0127279Y0014600D01*
X0127279Y0014239D01*
X0128567Y0012950D01*
X0130390Y0012950D01*
X0131679Y0014239D01*
X0131679Y0016061D01*
X0130390Y0017350D01*
X0128579Y0017350D01*
X0128579Y0017570D01*
X0127349Y0018800D01*
X0125609Y0018800D01*
X0124579Y0017770D02*
X0110778Y0017770D01*
X0111379Y0016972D02*
X0124379Y0016972D01*
X0124379Y0016173D02*
X0111379Y0016173D01*
X0111323Y0015375D02*
X0124834Y0015375D01*
X0127279Y0014576D02*
X0110772Y0014576D01*
X0111279Y0013778D02*
X0127740Y0013778D01*
X0128538Y0012979D02*
X0111279Y0012979D01*
X0107585Y0014576D02*
X0107322Y0014576D01*
X0127580Y0018569D02*
X0136278Y0018569D01*
X0136309Y0018600D02*
X0135079Y0017370D01*
X0135079Y0015630D01*
X0136309Y0014400D01*
X0138049Y0014400D01*
X0139279Y0015630D01*
X0139279Y0017370D01*
X0138049Y0018600D01*
X0136309Y0018600D01*
X0135479Y0017770D02*
X0128378Y0017770D01*
X0130768Y0016972D02*
X0135079Y0016972D01*
X0135079Y0016173D02*
X0131567Y0016173D01*
X0131679Y0015375D02*
X0135334Y0015375D01*
X0136133Y0014576D02*
X0131679Y0014576D01*
X0131218Y0013778D02*
X0151879Y0013778D01*
X0151879Y0014576D02*
X0138225Y0014576D01*
X0139023Y0015375D02*
X0152084Y0015375D01*
X0152882Y0016173D02*
X0139279Y0016173D01*
X0139279Y0016972D02*
X0189529Y0016972D01*
X0189529Y0016173D02*
X0155075Y0016173D01*
X0155874Y0015375D02*
X0189784Y0015375D01*
X0190583Y0014576D02*
X0156079Y0014576D01*
X0152330Y0012979D02*
X0130419Y0012979D01*
X0138878Y0017770D02*
X0189929Y0017770D01*
X0190728Y0018569D02*
X0138080Y0018569D01*
X0148732Y0024158D02*
X0216107Y0024158D01*
X0215493Y0024957D02*
X0147933Y0024957D01*
X0125279Y0026554D02*
X0208955Y0026554D01*
X0208779Y0027352D02*
X0125279Y0027352D01*
X0130679Y0036136D02*
X0168279Y0036136D01*
X0168502Y0036934D02*
X0132625Y0036934D01*
X0130333Y0036934D02*
X0130205Y0036934D01*
X0118979Y0048114D02*
X0074650Y0048114D01*
X0074636Y0047315D02*
X0079616Y0047315D01*
X0078292Y0046517D02*
X0074306Y0046517D01*
X0073787Y0045718D02*
X0077568Y0045718D01*
X0074590Y0048912D02*
X0118979Y0048912D01*
X0118979Y0049711D02*
X0083174Y0049711D01*
X0083973Y0050509D02*
X0119718Y0050509D01*
X0078681Y0049711D02*
X0074260Y0049711D01*
X0073676Y0050509D02*
X0077882Y0050509D01*
X0077399Y0051308D02*
X0072557Y0051308D01*
X0082867Y0031345D02*
X0097354Y0031345D01*
X0096279Y0028949D02*
X0082599Y0028949D01*
X0083713Y0028151D02*
X0096658Y0028151D01*
X0097457Y0027352D02*
X0084349Y0027352D01*
X0177280Y0045718D02*
X0178386Y0045718D01*
X0178129Y0044920D02*
X0178079Y0044920D01*
X0194079Y0028949D02*
X0209258Y0028949D01*
X0208779Y0028151D02*
X0193549Y0028151D01*
X0223273Y0019367D02*
X0235479Y0019367D01*
X0235479Y0018569D02*
X0224071Y0018569D01*
X0224179Y0017770D02*
X0235479Y0017770D01*
X0235479Y0016972D02*
X0224179Y0016972D01*
X0223713Y0016173D02*
X0235479Y0016173D01*
X0235479Y0015375D02*
X0222915Y0015375D01*
X0216709Y0012181D02*
X0235479Y0012181D01*
X0235479Y0012979D02*
X0215911Y0012979D01*
X0217179Y0011382D02*
X0235479Y0011382D01*
X0235479Y0010584D02*
X0217179Y0010584D01*
X0217075Y0009785D02*
X0235479Y0009785D01*
X0235479Y0008987D02*
X0216277Y0008987D01*
D15*
X0096429Y0058700D03*
M02*
