%
M48
M72
T01C0.0100
T02C0.0120
T03C0.0140
T04C0.0360
T05C0.0394
T06C0.0433
T07C0.0866
%
T01
X9868Y620
X10638Y1255
X10918Y1320
X10928Y1630
X10528Y1980
X12648Y1670
X13718Y1650
X12143Y1170
X15398Y1430
X16228Y1430
X15608Y2070
X17888Y3020
X19198Y2955
X19198Y3330
X19468Y3680
X17623Y4380
X19188Y4460
X20798Y5155
X19748Y6000
X17373Y6130
X16868Y6200
X15103Y4795
X12108Y4890
X12098Y4580
X11808Y4140
X11128Y3900
X9838Y2940
X14828Y3240
X16373Y3380
X20348Y2855
X21088Y2760
X23128Y2920
X19163Y1650
X23158Y5410
X10938Y6270
X10298Y5750
T02
X12448Y4755
X13148Y3890
X12848Y3555
X12298Y3555
X11748Y3555
X11468Y3320
X12308Y2650
X10928Y1975
X12948Y1515
X14698Y2280
X17248Y3130
X18388Y3430
X18878Y3615
X18453Y4030
X18033Y4455
X17048Y3580
X18668Y3020
X22198Y1755
X21498Y1080
X22823Y3655
X22573Y3930
X22833Y4150
X22573Y4405
X22848Y4655
X20448Y5800
X18473Y5480
X15348Y5630
X15348Y6980
X12998Y6980
X10748Y6930
X8598Y6930
X17998Y6980
X20448Y6980
X22698Y6980
X9578Y880
X7948Y880
T03
X9643Y5870
T04
X8093Y5298
X8093Y4364
X8093Y3476
X8093Y2542
T05
X21448Y5655
X22248Y5655
X21848Y2655
T06
X7109Y3034
X7109Y4806
T07
X7148Y1637
X7148Y6203
M30
